<svg width="91" height="67" viewBox="0 0 91 67" fill="none" xmlns="http://www.w3.org/2000/svg">
<path fill-rule="evenodd" clip-rule="evenodd" d="M75.4035 59.7851V62.1551C75.4035 64.3233 77.1773 66.096 79.3456 66.096H84.7091C86.8774 66.096 88.65 64.3233 88.65 62.1551V58.7238C89.5005 57.5849 90.4614 55.2582 90.4614 50.557C90.4614 43.879 90.4614 33.2898 90.4614 29.1643C90.4614 25.5893 86.1581 22.7941 79.4311 20.7786C79.2726 20.2109 79.1119 19.6592 78.9511 19.1222H87.9489C91.1899 19.1222 89.9815 13.0747 85.6451 13.0747H81.2242V16.5767H78.1452C73.2011 1.94967 66.7648 0.583984 45.2307 0.583984C23.6966 0.583984 17.2603 1.94967 12.3163 16.5767H9.2372V13.0747H4.81639C0.479929 13.0747 -0.728443 19.1222 2.5125 19.1222H11.5103C11.3496 19.6592 11.19 20.2109 11.0304 20.7786C4.3034 22.7941 0 25.5893 0 29.1643C0 33.2898 0 43.879 0 50.557C0 55.2582 0.960998 57.5849 1.81142 58.7238V62.1551C1.81142 64.3233 3.58522 66.096 5.75231 66.096H11.1159C13.2841 66.096 15.0579 64.3233 15.0579 62.1551V59.7851C35.1727 59.7851 55.2887 59.7851 75.4035 59.7851ZM5.68619 33.462H18.821V41.4269H5.68619V33.462ZM12.2536 46.387C14.2987 46.387 15.9562 48.0445 15.9562 50.0896C15.9562 52.1347 14.2987 53.7934 12.2536 53.7934C10.2085 53.7934 8.5498 52.1347 8.5498 50.0896C8.5498 48.0445 10.2085 46.387 12.2536 46.387ZM71.6405 33.462H84.7764V41.4269H71.6405V33.462ZM78.2079 46.387C80.253 46.387 81.9116 48.0445 81.9116 50.0896C81.9116 52.1347 80.253 53.7934 78.2079 53.7934C76.1628 53.7934 74.5052 52.1347 74.5052 50.0896C74.5052 48.0445 76.1628 46.387 78.2079 46.387ZM28.7923 28.8975H61.6691C64.087 28.8975 66.644 30.946 66.0649 33.2932L62.0966 49.3805C61.5175 51.7277 60.1176 53.7751 57.7009 53.7751H32.7606C30.3438 53.7751 28.9439 51.7277 28.366 49.3805L24.3966 33.2932C23.8186 30.946 26.3744 28.8975 28.7923 28.8975ZM16.9434 22.3233H73.8475C73.2866 20.2291 69.584 6.8926 59.6457 6.8584C58.7166 6.85612 32.3205 6.85954 31.3208 6.85954C23.9736 6.85954 19.432 13.0382 16.9434 22.3233Z" fill="#EF6058"/>
</svg>
