<svg width="91" height="82" viewBox="0 0 91 82" fill="none" xmlns="http://www.w3.org/2000/svg">
<path d="M87.253 17.487H85.88C84.363 17.487 83.133 18.717 83.133 20.234V22.096L80.954 23.644V23.645C80.751 17.373 78.822 7.594 77.571 6.308C74.331 2.976 67.206 1.771 59.46 1.623C57.092 1.578 54.191 1.547 51.086 1.529V0H38.914V1.529C35.809 1.547 32.908 1.578 30.54 1.623C22.794 1.771 16.205 2.976 12.429 6.308C11.084 7.495 9.249 17.372 9.046 23.645V23.644L6.867 22.096V20.234C6.867 18.717 5.637 17.487 4.12 17.487H2.747C1.229 17.487 0 18.717 0 20.234V24.513C0 26.03 1.229 27.26 2.747 27.26H4.12C5.637 27.26 6.867 26.03 6.867 24.513L8.925 28.883C8.925 28.883 7.965 29.178 7.302 31.022C6.638 32.866 6.933 41.572 6.933 41.572C6.933 41.572 6.972 50.696 7.986 57.236H7.868C7.216 57.236 6.687 57.765 6.687 58.417V62.155C6.687 62.807 7.215 63.336 7.868 63.336H11.305L11.656 79.197C11.656 79.197 11.656 81.557 13.427 81.557C15.198 81.557 19.033 81.557 19.033 81.557C19.033 81.557 20.804 81.336 20.804 79.049C20.804 76.762 20.804 70.048 20.804 70.048C20.804 70.048 21.763 68.647 24.714 68.647C27.665 68.647 31.428 68.574 31.428 68.574L35.191 72.188H38.363L42.346 68.942C42.346 68.942 62.339 68.647 65.29 68.647C68.241 68.647 69.2 70.048 69.2 70.048C69.2 70.048 69.2 76.762 69.2 79.049C69.2 81.336 70.971 81.557 70.971 81.557C70.971 81.557 74.807 81.557 76.577 81.557C78.347 81.557 78.348 79.197 78.348 79.197L78.699 63.336H82.136C82.787 63.336 83.317 62.808 83.317 62.155V58.417C83.317 57.766 82.788 57.236 82.136 57.236H82.018C83.032 50.696 83.071 41.572 83.071 41.572C83.071 41.572 83.366 32.866 82.702 31.022C82.038 29.178 81.079 28.883 81.079 28.883L83.137 24.513C83.137 26.03 84.367 27.26 85.884 27.26H87.257C88.775 27.26 90.004 26.03 90.004 24.513V20.234C90 18.717 88.771 17.487 87.253 17.487ZM19.908 52.769C18.568 52.769 17.482 51.683 17.482 50.343C17.482 49.002 18.568 47.916 19.908 47.916C21.248 47.916 22.335 49.002 22.335 50.343C22.335 51.683 21.248 52.769 19.908 52.769ZM18.736 41.777C18.736 39.79 20.347 38.178 22.335 38.178C24.323 38.178 25.934 39.789 25.934 41.777C25.934 43.765 24.323 45.376 22.335 45.376C20.347 45.376 18.736 43.764 18.736 41.777ZM27.023 65.383C26.055 65.375 25.033 65.339 24.072 65.254C20.728 64.959 20.925 63.631 20.925 63.631V63.336H27.024V65.383H27.023ZM31.499 65.254C31.499 65.254 30.879 65.299 29.926 65.336V63.336H33.895L31.499 65.254ZM60.074 65.179L42.467 65.385L40.238 63.336H60.075V65.179H60.074ZM27.294 54.114C27.294 54.114 30.245 47.843 31.352 45.777C32.459 43.711 34.598 44.081 34.598 44.081H55.403C55.403 44.081 57.542 43.712 58.649 45.777C59.755 47.842 62.707 54.114 62.707 54.114H27.294ZM35.704 41.376V38.351C35.704 37.7 36.233 37.171 36.885 37.171H53.115C53.767 37.171 54.296 37.7 54.296 38.351V41.376C54.296 42.027 53.768 42.557 53.115 42.557H36.885C36.233 42.556 35.704 42.027 35.704 41.376ZM69.075 63.434C68.583 65.007 66.222 65.106 66.222 65.106L62.976 65.144V63.335H69.075V63.434ZM64.066 41.777C64.066 39.79 65.677 38.178 67.665 38.178C69.653 38.178 71.264 39.789 71.264 41.777C71.264 43.765 69.653 45.376 67.665 45.376C65.677 45.376 64.066 43.764 64.066 41.777ZM70.092 52.769C68.751 52.769 67.665 51.683 67.665 50.343C67.665 49.002 68.751 47.916 70.092 47.916C71.431 47.916 72.518 49.002 72.518 50.343C72.518 51.683 71.431 52.769 70.092 52.769ZM74.214 26.817C70.747 26.743 19.253 26.743 15.785 26.817C12.318 26.891 13.425 19.292 13.425 19.292C13.425 19.292 13.13 9.775 18.516 8.816C23.901 7.857 66.1 7.857 71.486 8.816C76.871 9.775 76.576 19.292 76.576 19.292C76.576 19.292 77.682 26.891 74.214 26.817Z" fill="#EF6058"/>
</svg>
