<svg width="84" height="67" viewBox="0 0 84 67" fill="none" xmlns="http://www.w3.org/2000/svg">
<path fill-rule="evenodd" clip-rule="evenodd" d="M2.37804 7.5564e-05L3.10884 24.0023L0 27.1521C0 27.1521 0.54348 50.5062 2.74344 56.8075C4.9476 63.1079 7.33236 67 7.33236 67H80.3636C80.3636 52.2936 80.3636 37.5855 80.3636 22.8766C80.3636 22.8766 64.2541 6.64153 46.7779 3.28984C29.2984 -0.0610029 2.37804 7.5564e-05 2.37804 7.5564e-05ZM62.9488 15.4538H64.192C66.3449 15.4538 68.1122 17.2353 68.1122 19.4129V21.9943C68.1122 24.172 66.3449 25.9543 64.192 25.9543H62.9488V15.4538ZM81.2011 58.7289H84V51.8703H81.2011V58.7289ZM81.2011 44.7156H84V37.8604H81.2011V44.7156ZM7.80864 4.52075C7.80864 4.52075 26.2391 4.45119 40.383 6.46509C51.1081 7.9946 58.6488 12.159 61.6678 14.0846C64.003 14.0846 66.0652 13.7784 67.9199 15.6523C68.8733 16.6186 69.4688 17.9496 69.4688 19.4129V21.9943C69.4688 23.4594 68.8733 24.7929 67.9199 25.7609C66.9623 26.7245 65.6443 27.3226 64.192 27.3226H61.5871V24.1066C43.9715 24.1066 26.2525 24.0015 8.63604 24.0015L7.80864 4.52075ZM10.5857 31.4149H21.3578C22.3364 31.4149 23.1336 32.2233 23.1336 33.2116C23.1336 34.199 22.3356 35.0066 21.3578 35.0066H10.5857C9.60456 35.0066 8.80572 34.1982 8.80572 33.215C8.80572 32.2233 9.60456 31.4149 10.5857 31.4149Z" fill="#EF6058"/>
</svg>
