<svg width="72" height="38" viewBox="0 0 72 38" fill="none" xmlns="http://www.w3.org/2000/svg">
<path d="M20.9535 17.7333C19.4504 17.7333 17.981 18.179 16.7312 19.0141C15.4814 19.8492 14.5073 21.0362 13.932 22.4249C13.3568 23.8136 13.2063 25.3417 13.4996 26.8159C13.7928 28.2902 14.5166 29.6444 15.5795 30.7072C16.6424 31.7701 17.9966 32.4939 19.4708 32.7872C20.9451 33.0804 22.4732 32.9299 23.8619 32.3547C25.2506 31.7795 26.4375 30.8054 27.2726 29.5556C28.1077 28.3058 28.5535 26.8364 28.5535 25.3332C28.5515 23.3182 27.7501 21.3863 26.3253 19.9615C24.9004 18.5366 22.9685 17.7353 20.9535 17.7333ZM20.9535 30.3999C19.9514 30.3999 18.9718 30.1027 18.1386 29.546C17.3054 28.9893 16.656 28.198 16.2725 27.2722C15.889 26.3464 15.7887 25.3276 15.9842 24.3448C16.1797 23.362 16.6622 22.4592 17.3708 21.7506C18.0794 21.042 18.9822 20.5595 19.965 20.364C20.9479 20.1685 21.9666 20.2688 22.8924 20.6523C23.8182 21.0358 24.6095 21.6852 25.1663 22.5184C25.723 23.3516 26.0201 24.3312 26.0201 25.3332C26.0201 26.677 25.4863 27.9657 24.5362 28.9159C23.586 29.8661 22.2972 30.3999 20.9535 30.3999Z" fill="#EF6058"/>
<path d="M20.9552 27.8665C22.3543 27.8665 23.4885 26.7323 23.4885 25.3332C23.4885 23.9341 22.3543 22.7999 20.9552 22.7999C19.5561 22.7999 18.4219 23.9341 18.4219 25.3332C18.4219 26.7323 19.5561 27.8665 20.9552 27.8665Z" fill="#EF6058"/>
<path d="M47.5569 26.5999C50.3551 26.5999 52.6235 24.3315 52.6235 21.5333C52.6235 18.735 50.3551 16.4666 47.5569 16.4666C44.7587 16.4666 42.4902 18.735 42.4902 21.5333C42.4902 24.3315 44.7587 26.5999 47.5569 26.5999Z" fill="#EF6058"/>
<path d="M47.5543 10.1333C45.2996 10.1333 43.0955 10.8019 41.2208 12.0545C39.3461 13.3072 37.8849 15.0876 37.0221 17.1707C36.1592 19.2538 35.9335 21.5459 36.3733 23.7573C36.8132 25.9687 37.899 27.9999 39.4933 29.5942C41.0876 31.1886 43.1189 32.2743 45.3302 32.7142C47.5416 33.154 49.8338 32.9283 51.9168 32.0654C53.9999 31.2026 55.7803 29.7415 57.033 27.8667C58.2856 25.992 58.9542 23.788 58.9542 21.5333C58.9509 18.5108 57.7487 15.6132 55.6115 13.476C53.4744 11.3388 50.5767 10.1367 47.5543 10.1333ZM47.5543 29.1332C46.0511 29.1332 44.5818 28.6875 43.3319 27.8524C42.0821 27.0173 41.108 25.8304 40.5328 24.4416C39.9576 23.0529 39.8071 21.5248 40.1003 20.0506C40.3936 18.5763 41.1174 17.2221 42.1803 16.1593C43.2431 15.0964 44.5973 14.3726 46.0716 14.0793C47.5458 13.7861 49.0739 13.9366 50.4626 14.5118C51.8514 15.087 53.0383 16.0611 53.8734 17.3109C54.7085 18.5607 55.1542 20.0301 55.1542 21.5333C55.1522 23.5483 54.3509 25.4802 52.926 26.905C51.5012 28.3299 49.5693 29.1312 47.5543 29.1332Z" fill="#EF6058"/>
<path d="M62.754 0H62.4779C61.1098 0.000186607 59.7495 0.207743 58.4436 0.615598L15.5152 14.0308C11.2095 15.3613 7.44475 18.0392 4.7754 21.6702C2.10605 25.3012 0.673116 29.6933 0.687609 34.1999C0.687609 35.2077 1.08796 36.1742 1.8006 36.8869C2.51323 37.5995 3.47978 37.9999 4.48759 37.9999H53.1667C54.8358 38.0046 56.4892 37.6781 58.0312 37.0393C59.5732 36.4005 60.9731 35.4621 62.1498 34.2784C63.4894 32.935 64.5139 31.3109 65.1493 29.5234L70.8493 13.3671C71.3607 11.9218 71.6216 10.3998 71.6207 8.86663C71.618 6.51588 70.683 4.26218 69.0207 2.59994C67.3585 0.937704 65.1048 0.00268198 62.754 0ZM20.9542 35.4665C18.95 35.4665 16.9909 34.8722 15.3244 33.7588C13.658 32.6453 12.3592 31.0627 11.5923 29.2111C10.8253 27.3595 10.6246 25.322 11.0156 23.3563C11.4066 21.3907 12.3717 19.5851 13.7889 18.1679C15.206 16.7508 17.0116 15.7856 18.9773 15.3947C20.943 15.0037 22.9804 15.2043 24.832 15.9713C26.6837 16.7383 28.2663 18.0371 29.3797 19.7035C30.4932 21.3699 31.0875 23.3291 31.0875 25.3332C31.0845 28.0198 30.0159 30.5955 28.1162 32.4952C26.2165 34.3949 23.6408 35.4635 20.9542 35.4665ZM47.5541 35.4665C44.7984 35.4665 42.1045 34.6494 39.8132 33.1184C37.5219 31.5873 35.736 29.4113 34.6814 26.8653C33.6269 24.3193 33.3509 21.5178 33.8885 18.815C34.4262 16.1122 35.7532 13.6295 37.7018 11.6809C39.6504 9.73233 42.1331 8.40532 44.8359 7.8677C47.5387 7.33008 50.3402 7.606 52.8861 8.66058C55.4321 9.71516 57.6082 11.501 59.1392 13.7923C60.6702 16.0837 61.4874 18.7775 61.4874 21.5333C61.483 25.2273 60.0137 28.7687 57.4016 31.3808C54.7896 33.9928 51.2481 35.4622 47.5541 35.4665Z" fill="#EF6058"/>
</svg>
