<svg width="73" height="62" viewBox="0 0 73 62" fill="none" xmlns="http://www.w3.org/2000/svg">
<path d="M68.4653 10.1698V9.84434C68.4653 9.19348 67.8958 8.62397 67.2449 8.62397H59.9227C59.2718 8.62397 58.7023 9.19348 58.7023 9.84434V10.1698H55.2039V5.85779C55.2039 2.60346 52.6818 0 49.5902 0H23.3115C20.2199 0 17.6978 2.60346 17.6978 5.85779V10.1698H14.1994V9.84434C14.1994 9.19348 13.6299 8.62397 12.979 8.62397H5.65675C5.00588 8.62397 4.43638 9.19348 4.43638 9.84434V10.1698H0.287109V61.1H72.6145V10.1698H68.4653ZM21.0334 5.93915C21.0334 4.4747 22.0911 3.33569 23.3928 3.33569H49.6715C50.9733 3.33569 52.0309 4.4747 52.0309 5.93915V10.2511H21.0334V5.93915ZM17.2096 16.6784L21.847 19.6887L22.9047 22.2921L34.0508 33.5196L33.0745 34.4959L21.847 23.2684L19.2436 22.2921L16.2333 17.5734L17.2096 16.6784ZM21.3589 56.1371C20.1385 57.3575 18.2673 57.3575 17.0469 56.1371C15.8265 54.9168 15.8265 53.0455 17.0469 51.8252L40.3153 28.5567C39.8272 27.4177 39.6645 26.1973 39.7458 25.0583C39.8272 23.8379 40.1526 22.6989 40.7221 21.5599C40.8035 21.3972 40.8848 21.2345 41.0476 21.0718C41.1289 20.9091 41.2103 20.8277 41.2916 20.7463C42.7561 18.7124 45.1155 17.3293 47.8816 17.3293C48.8579 17.3293 49.6715 17.5734 50.4851 17.8988L45.9291 22.4549L46.5799 26.7668L50.8919 27.4177L55.5293 22.7803C55.6107 22.943 55.6107 23.1057 55.692 23.1871C55.9361 23.9193 56.0988 24.6515 56.1802 25.5465C56.0988 28.1499 54.7971 30.428 52.8445 31.8924C52.1123 32.4619 51.136 32.9501 50.241 33.1941H50.1597C49.8342 33.2755 49.5088 33.3569 49.1834 33.4382C49.102 33.4382 49.102 33.4382 49.102 33.4382C49.0207 33.4382 48.8579 33.5196 48.7766 33.5196C48.6952 33.5196 48.6952 33.5196 48.6952 33.5196C48.6139 33.5196 48.4512 33.5196 48.3698 33.5196C48.2884 33.5196 48.2884 33.5196 48.2884 33.5196C48.1257 33.5196 48.0444 33.5196 47.963 33.5196H47.8003H47.5562C47.3935 33.5196 47.1494 33.4382 46.9867 33.4382C46.7426 33.4382 46.5799 33.3569 46.3358 33.3569C46.2545 33.3569 46.1731 33.2755 46.0918 33.2755C45.9291 33.2755 45.7663 33.1941 45.6036 33.1128C45.5223 33.1128 45.4409 33.0314 45.3595 33.0314C45.1155 32.9501 44.8714 32.8687 44.7087 32.7874L21.3589 56.1371ZM55.6107 55.0795L54.7971 55.8931C53.7394 56.9507 52.4377 57.3575 51.8682 56.788L39.2577 44.0961C38.9323 43.7707 38.7695 43.2826 38.9322 42.8758C39.0136 42.469 38.9322 42.0622 38.6068 41.7368C38.3627 41.4927 38.1187 41.4113 37.7932 41.4113L41.0476 38.157C41.0476 38.4824 41.2103 38.7265 41.373 38.9706C41.6984 39.296 42.1866 39.3774 42.512 39.296C42.9188 39.2146 43.407 39.3774 43.7324 39.6214L56.5056 52.1506C57.0751 52.8015 56.6683 54.1032 55.6107 55.0795Z" fill="#EF6058"/>
</svg>
