<svg width="72" height="73" viewBox="0 0 72 73" fill="none" xmlns="http://www.w3.org/2000/svg">
<path d="M40.0492 56.4868C38.1171 56.4868 36.5449 58.059 36.5449 59.991C36.5449 61.923 38.1171 63.4952 40.0492 63.4952C41.9812 63.4952 43.5534 61.923 43.5534 59.991C43.5534 58.059 41.9804 56.4868 40.0492 56.4868Z" fill="#EF6058"/>
<path d="M35.6645 50.715C36.6701 50.715 37.4852 49.8998 37.4852 48.8943C37.4852 47.8887 36.6701 47.0735 35.6645 47.0735C34.6589 47.0735 33.8438 47.8887 33.8438 48.8943C33.8438 49.8998 34.6589 50.715 35.6645 50.715Z" fill="#EF6058"/>
<path d="M59.2415 70.3281C59.8565 69.5993 60.2288 68.6831 60.0958 67.5736H66.4566V65.4817H59.6573C59.2959 63.9949 58.9018 62.6335 58.6758 61.888L60.2849 60.1919L60.0682 59.5861C59.5034 58.0063 58.1964 53.3658 58.9193 50.8874C59.3176 49.5235 60.0004 47.1773 60.3962 44.2337H52.0581V42.1418H60.6079C60.8614 38.7045 60.6371 34.6815 59.2072 30.5322C59.0942 30.0945 56.6183 20.934 46.7231 15.3379H20.837C18.5352 17.5218 15.3045 21.1499 15.7421 23.9855C15.8417 24.6332 16.0166 25.4908 16.2182 26.4832C17.0525 30.5849 18.5578 37.9925 16.8349 42.1427H49.9663V44.2345H15.8116C13.9172 48.7554 12.7307 58.1854 14.9849 65.1085C15.0276 65.2382 15.0778 65.3554 15.123 65.4826H6.52551V67.5744H16.0015C16.5555 68.6496 17.2081 69.5633 17.9511 70.3289H0.25V72.4208H72V70.3289H59.2415V70.3281ZM48.7973 23.932C34.0641 15.7688 22.4118 23.7897 22.2955 23.8709L21.088 22.1631C21.2144 22.0736 33.9403 13.308 49.8106 22.1021L48.7973 23.932ZM26.5026 58.6833C24.3111 58.6833 22.5281 56.9002 22.5281 54.7088C22.5281 52.5174 24.3111 50.7343 26.5026 50.7343C28.694 50.7343 30.477 52.5174 30.477 54.7088C30.477 56.9002 28.694 58.6833 26.5026 58.6833ZM31.7514 48.8943C31.7514 46.7372 33.5069 44.9817 35.664 44.9817C37.8211 44.9817 39.5765 46.7372 39.5765 48.8943C39.5765 51.0514 37.8211 52.8069 35.664 52.8069C33.5069 52.8069 31.7514 51.0514 31.7514 48.8943ZM40.0476 65.5863C36.9617 65.5863 34.4515 63.0761 34.4515 59.9902C34.4515 56.9044 36.9617 54.3942 40.0476 54.3942C43.1335 54.3942 45.6437 56.9044 45.6437 59.9902C45.6437 63.0761 43.1327 65.5863 40.0476 65.5863Z" fill="#EF6058"/>
<path d="M26.5037 56.5914C27.5435 56.5914 28.3864 55.7485 28.3864 54.7087C28.3864 53.6689 27.5435 52.826 26.5037 52.826C25.464 52.826 24.6211 53.6689 24.6211 54.7087C24.6211 55.7485 25.464 56.5914 26.5037 56.5914Z" fill="#EF6058"/>
<path d="M43.0327 13.2452V9.47233H42.7239V5.49784C42.7239 2.61445 40.3777 0.26825 37.4943 0.26825H28.2902C25.4068 0.26825 23.0606 2.61445 23.0606 5.49784V9.47233H22.5645V13.2452H43.0327ZM29.6583 9.47233H28.4032V6.54376H29.6583V9.47233ZM33.0052 9.47233H31.7501V6.54376H33.0052V9.47233ZM36.3522 9.47233H35.0971V6.54376H36.3522V9.47233ZM40.6321 9.47233H38.444V6.54376H40.6321V9.47233ZM28.2902 2.36009H37.4943C38.8557 2.36009 40.0062 3.23698 40.4396 4.45192H25.3449C25.7784 3.23615 26.928 2.36009 28.2902 2.36009ZM25.1525 6.54376H26.3114V9.47233H25.1525V6.54376Z" fill="#EF6058"/>
</svg>
