<svg width="84" height="51" viewBox="0 0 84 51" fill="none" xmlns="http://www.w3.org/2000/svg">
<path d="M78.7762 33.5598C79.2882 34.1182 83.7779 39.2477 83.7779 44.4551C83.7779 46.1909 83.0808 47.8556 81.84 49.083C80.5992 50.3104 78.9163 51 77.1615 51C75.4068 51 73.7239 50.3104 72.4831 49.083C71.2423 47.8556 70.5452 46.1909 70.5452 44.4551C70.5452 39.2607 75.0349 34.0663 75.5469 33.5598C75.7553 33.3438 76.0058 33.1717 76.2833 33.0542C76.5609 32.9367 76.8596 32.8761 77.1615 32.8761C77.4634 32.8761 77.7622 32.9367 78.0397 33.0542C78.3173 33.1717 78.5678 33.3438 78.7762 33.5598ZM83.8435 15.834C84.044 16.3825 84.0521 16.9818 83.8663 17.5354C83.6806 18.089 83.3119 18.5646 82.8195 18.8857L48.4252 41.2345C47.9966 41.514 47.4945 41.663 46.9812 41.6631H46.5743L12.8757 36.4687C12.5341 36.4165 12.2062 36.2981 11.9109 36.1202C11.6157 35.9423 11.3588 35.7085 11.1551 35.4322C10.9514 35.1559 10.8049 34.8426 10.724 34.5101C10.643 34.1776 10.6292 33.8326 10.6834 33.4949L11.0904 30.8977L1.10026 17.9896C0.498108 17.2209 0.126203 16.3004 0.026874 15.3329C-0.0724555 14.3654 0.104779 13.3897 0.538406 12.5169C0.972033 11.6441 1.64464 10.9093 2.47966 10.396C3.31469 9.88278 4.27861 9.6117 5.26171 9.61368L14.451 9.39292L14.6611 8.09432C14.7717 7.41638 15.1494 6.8094 15.7113 6.40615C15.9892 6.20256 16.3051 6.05531 16.6408 5.97285C16.9765 5.89039 17.3253 5.87436 17.6673 5.92566L31.9501 8.13328L32.3439 5.67893L29.3508 5.22442C29.0061 5.17241 28.675 5.05373 28.3766 4.87515C28.0782 4.69658 27.8182 4.4616 27.6116 4.18365C27.405 3.9057 27.2557 3.59021 27.1723 3.2552C27.089 2.92019 27.0731 2.57222 27.1257 2.23115C27.1783 1.89008 27.2983 1.5626 27.4788 1.2674C27.6593 0.972195 27.8969 0.715056 28.1778 0.510663C28.4588 0.30627 28.7777 0.158624 29.1164 0.0761564C29.4551 -0.00631119 29.8068 -0.021986 30.1516 0.030027L35.7309 0.887104L41.3232 1.74418C42.0195 1.79756 42.6659 2.12239 43.1201 2.64721C43.5744 3.17203 43.7992 3.85384 43.7453 4.54266C43.6913 5.23147 43.3629 5.87088 42.8324 6.3202C42.3018 6.76952 41.6126 6.99195 40.9163 6.93857H40.5093L37.5162 6.47108L37.1355 8.92542L51.3527 11.1071C51.6943 11.1593 52.0222 11.2777 52.3175 11.4556C52.6127 11.6334 52.8696 11.8672 53.0733 12.1435C53.277 12.4198 53.4235 12.7332 53.5045 13.0656C53.5854 13.3981 53.5992 13.7431 53.545 14.0809L53.0593 17.1196L81.0867 14.1718C81.6719 14.0994 82.2647 14.224 82.7696 14.5255C83.2745 14.8271 83.662 15.288 83.8698 15.834H83.8435ZM13.6634 14.6133L5.26171 14.7951L12.1537 23.8074L13.6634 14.6133Z" fill="#EF6058"/>
</svg>
