<svg width="68" height="58" viewBox="0 0 68 58" fill="none" xmlns="http://www.w3.org/2000/svg">
<path fill-rule="evenodd" clip-rule="evenodd" d="M64.2078 58.0001H3.79102C3.75115 57.9977 3.71248 57.9977 3.67261 57.9941C3.24123 57.9518 2.84248 57.6606 2.67452 57.2546C2.62981 57.1446 2.5996 57.0286 2.58873 56.9102C2.5851 56.8703 2.5851 56.8317 2.58269 56.7918V19.3334H65.4162V56.7918C65.4138 56.8317 65.4138 56.8703 65.4101 56.9102C65.3678 57.3416 65.0766 57.7403 64.6706 57.9083C64.5607 57.953 64.4447 57.9832 64.3263 57.9941C64.2876 57.9977 64.2477 57.9977 64.2078 58.0001ZM30.5593 41.0834L29.183 49.3436C29.1709 49.4463 29.1637 49.4717 29.1661 49.5756C29.1806 50.0517 29.4923 50.4903 29.9249 50.6631C30.3635 50.8395 30.8916 50.7296 31.2239 50.4009C31.2517 50.3743 31.2758 50.3441 31.3024 50.3151L43.3858 35.8151C43.41 35.7837 43.4353 35.7535 43.4571 35.7208C43.7072 35.3535 43.729 34.8593 43.526 34.4762C43.358 34.1597 43.045 33.9265 42.6946 33.8564C42.6559 33.8491 42.6161 33.8455 42.5762 33.8395L42.4578 33.8334H37.4396L38.8159 25.5732C38.8207 25.5346 38.8267 25.4971 38.8304 25.4572C38.8461 25.224 38.7929 24.9872 38.6781 24.783C38.5053 24.4773 38.1948 24.2537 37.8504 24.1885C37.8117 24.1812 37.7731 24.1776 37.7344 24.1716C37.6957 24.1703 37.6571 24.1679 37.6184 24.1667C37.5145 24.1728 37.4879 24.1704 37.3852 24.1909C37.1943 24.2296 37.013 24.3141 36.862 24.4374C36.781 24.5026 36.7665 24.5256 36.6964 24.6017L24.6131 39.1018C24.5889 39.1332 24.5635 39.1634 24.5418 39.196C24.34 39.4945 24.2808 39.8799 24.3835 40.2207C24.5092 40.6436 24.8765 40.9747 25.3042 41.0605C25.3429 41.0677 25.3828 41.0713 25.4227 41.0774L25.5411 41.0834H30.5593ZM39.878 36.2501L32.2993 45.3452L33.1778 40.0733C33.1814 40.0346 33.1886 39.9971 33.1911 39.9585C33.2068 39.7253 33.1536 39.4884 33.04 39.2854C32.8696 38.9797 32.5603 38.7562 32.2171 38.6897C32.1785 38.6813 32.1398 38.6776 32.1023 38.6728L31.9851 38.6668H28.1209L35.6996 29.5716L34.8211 34.8436C34.8175 34.8822 34.8102 34.9197 34.8078 34.9584C34.7921 35.1916 34.8453 35.4284 34.9588 35.6314C35.1486 35.971 35.5111 36.2066 35.8965 36.244C35.9352 36.2477 35.9751 36.2477 36.0137 36.2501H39.878ZM54.5411 27.7917V30.2084C54.546 30.3135 54.5436 30.3401 54.5641 30.444C54.6112 30.6772 54.7272 30.8947 54.8952 31.0627C55.2057 31.3732 55.6854 31.4905 56.0999 31.3648C56.5615 31.2246 56.9059 30.7981 56.9518 30.3268C56.9554 30.2869 56.9554 30.2483 56.9578 30.2084V27.7917H59.3745C59.4796 27.7869 59.5062 27.7893 59.6101 27.7688C59.9593 27.6987 60.2723 27.4667 60.4402 27.1525C60.6094 26.8371 60.6263 26.4493 60.491 26.1206C60.34 25.7557 59.9992 25.4754 59.6101 25.398C59.5714 25.3908 59.5316 25.3871 59.4929 25.3811C59.453 25.3787 59.4144 25.3775 59.3745 25.3751H56.9578V22.9584C56.9554 22.9185 56.9554 22.8798 56.9518 22.84C56.9324 22.643 56.8636 22.4521 56.7536 22.2866C56.5784 22.0243 56.2957 21.8346 55.9851 21.773C55.9464 21.7658 55.9066 21.7621 55.8679 21.7561C55.7894 21.7525 55.7096 21.7476 55.6311 21.7561C55.3954 21.7791 55.1659 21.8733 54.9834 22.0243C54.7381 22.2249 54.5774 22.5246 54.5472 22.84C54.5436 22.8798 54.5436 22.9185 54.5411 22.9584V25.3751H52.1245C52.0846 25.3775 52.0459 25.3775 52.0061 25.3811C51.7293 25.4077 51.4659 25.5334 51.2702 25.7291C50.9898 26.0082 50.8618 26.4311 50.9391 26.819C51.0333 27.2927 51.4248 27.6757 51.8888 27.7688C51.9928 27.7893 52.0193 27.7869 52.1245 27.7917H54.5411ZM15.8744 25.3751H8.62437C8.51924 25.3799 8.49266 25.3775 8.38874 25.398C8.27274 25.421 8.15916 25.4621 8.05524 25.5176C7.74108 25.6856 7.50908 25.9986 7.43899 26.3478C7.36891 26.6994 7.46558 27.0752 7.69033 27.3495C7.89091 27.5948 8.19058 27.7555 8.50595 27.7857C8.54583 27.7893 8.58449 27.7893 8.62437 27.7917H15.8744C15.9795 27.7869 16.0061 27.7893 16.11 27.7688C16.3432 27.7217 16.5607 27.6056 16.7287 27.4377C17.009 27.1586 17.1371 26.7356 17.0598 26.3478C16.9655 25.8741 16.5752 25.4911 16.11 25.398C16.0713 25.3908 16.0315 25.3871 15.9928 25.3811L15.8744 25.3751ZM66.6245 16.9167H1.37435C1.33448 16.9143 1.29581 16.9143 1.25593 16.9107C0.785892 16.8647 0.358141 16.5204 0.217974 16.0588C0.195016 15.9839 0.179307 15.9053 0.172057 15.8268C0.168432 15.7869 0.168432 15.7482 0.166016 15.7084V8.45835C0.168432 8.41848 0.168432 8.37981 0.172057 8.33994C0.217974 7.86989 0.56235 7.44214 1.02393 7.30198C1.09885 7.27902 1.17739 7.26331 1.25593 7.25606C1.29581 7.25243 1.33448 7.25243 1.37435 7.25002H66.6245C66.6644 7.25243 66.703 7.25364 66.7429 7.25606C66.7816 7.2621 66.8215 7.26573 66.8601 7.27298C67.1707 7.3346 67.4534 7.52431 67.6286 7.78652C67.7386 7.95206 67.8075 8.14298 67.8268 8.33994C67.8304 8.37981 67.8304 8.41848 67.8328 8.45835V15.7084C67.8304 15.7482 67.8304 15.7869 67.8268 15.8268C67.7845 16.2582 67.4933 16.6569 67.0873 16.8249C66.9773 16.8696 66.8613 16.8998 66.7429 16.9107C66.703 16.9143 66.6644 16.9143 66.6245 16.9167ZM7.41603 4.83334H2.58269V1.20834C2.5851 1.16846 2.5851 1.12979 2.58873 1.08992C2.63102 0.657335 2.92223 0.259793 3.32823 0.0918338C3.43819 0.0471254 3.55419 0.0169168 3.67261 0.00604182C3.71248 0.00241681 3.75115 0.00241667 3.79102 0H7.41603V4.83334ZM14.666 4.83334H9.83271V0H13.4577C13.4976 0.00241667 13.5363 0.00362515 13.5761 0.00604182C13.6148 0.0120835 13.6547 0.0157084 13.6933 0.0229585C14.1199 0.107542 14.486 0.436209 14.6141 0.857919C14.637 0.932836 14.6528 1.01138 14.66 1.08992C14.6636 1.12979 14.6636 1.16846 14.666 1.20834V4.83334ZM58.1662 4.83334H53.3328V1.20834C53.3352 1.16846 53.3352 1.12979 53.3389 1.08992C53.3811 0.657335 53.6724 0.259793 54.0784 0.0918338C54.1883 0.0471254 54.3043 0.0169168 54.4227 0.00604182C54.4626 0.00241681 54.5013 0.00241667 54.5411 0H58.1662V4.83334ZM65.4162 4.83334H60.5828V0H64.2078C64.2477 0.00241667 64.2864 0.00362515 64.3263 0.00604182C64.3649 0.0120835 64.4048 0.0157084 64.4435 0.0229585C64.87 0.107542 65.2361 0.436209 65.3642 0.857919C65.3872 0.932836 65.4029 1.01138 65.4101 1.08992C65.4138 1.12979 65.4138 1.16846 65.4162 1.20834V4.83334Z" fill="#EF6058"/>
</svg>
