<svg width="70" height="70" viewBox="0 0 70 70" fill="none" xmlns="http://www.w3.org/2000/svg">
<circle cx="35" cy="35" r="35" fill="#0156FF"/>
<path d="M34.7438 33.6734L20.6047 27.79C20.2341 27.6377 19.8102 27.8147 19.658 28.1853C19.6225 28.2717 19.604 28.3641 19.6036 28.4574V33.6153H22.3023C22.7029 33.6153 23.0277 33.9402 23.0277 34.3408C23.0277 34.7414 22.7029 35.0663 22.3023 35.0663H18.5879C18.1873 35.0668 17.8629 35.3921 17.8635 35.7927C17.864 36.1926 18.188 36.5166 18.5879 36.5172H19.6036V37.1483H27.1628C27.5634 37.1483 27.8882 37.4731 27.8882 37.8738C27.8882 38.2744 27.5634 38.5992 27.1628 38.5992H16.281C15.8804 38.5992 15.5556 38.924 15.5556 39.3247C15.5556 39.7253 15.8804 40.0501 16.281 40.0501H19.6181V40.6813H23.6661C24.0667 40.6813 24.3916 41.0061 24.3916 41.4067C24.3916 41.8073 24.0667 42.1322 23.6661 42.1322H17.5506C17.1499 42.1322 16.8251 42.457 16.8251 42.8576C16.8251 43.2582 17.1499 43.5831 17.5506 43.5831H19.6036V44.7583C19.5781 45.0684 19.7532 45.3603 20.0389 45.4837L34.1852 51.3381C34.5558 51.4904 34.9796 51.3134 35.1319 50.9428C35.1673 50.8564 35.1858 50.764 35.1863 50.6707V34.3408C35.186 34.0497 35.0118 33.7869 34.7438 33.6734Z" fill="white"/>
<path d="M51.7846 27.8554C51.5826 27.7209 51.3266 27.6964 51.1027 27.7901L36.9709 33.6735C36.7 33.7848 36.5226 34.048 36.5211 34.3409V50.6709C36.5231 51.0715 36.8496 51.3947 37.2502 51.3927C37.3435 51.3922 37.4359 51.3737 37.5223 51.3383L51.6613 45.4839C51.9322 45.3726 52.1097 45.1094 52.1111 44.8165V28.4575C52.1098 28.2149 51.9873 27.9889 51.7846 27.8554ZM39.996 48.0157C39.9917 48.3089 39.9064 48.5951 39.7494 48.8427C39.4897 49.2542 39.0314 49.4971 38.5451 49.4811C38.4558 49.4886 38.366 49.4886 38.2767 49.4811C37.4631 49.3008 36.9497 48.4951 37.1301 47.6815C37.2321 47.221 37.5437 46.8347 37.972 46.6374C38.1543 46.5645 38.3489 46.5275 38.5451 46.5285C39.3465 46.5283 39.9962 47.1776 39.9965 47.979C39.9965 47.9912 39.9963 48.0035 39.996 48.0157ZM43.13 47.4354C42.9428 48.0084 42.4052 48.3933 41.8024 48.3857C41.6008 48.3864 41.401 48.347 41.2148 48.2696C40.6622 48.0259 40.3183 47.4654 40.3515 46.8622C40.3515 46.0609 41.0011 45.4113 41.8024 45.4113C42.6038 45.4113 43.2533 46.0609 43.2533 46.8622C43.247 47.0591 43.2052 47.2533 43.13 47.4354Z" fill="white"/>
<path d="M50.2612 25.0041L44.7841 22.8278L42.9051 23.633L30.986 28.7475L29.1288 29.5237L35.5781 32.2079C35.7568 32.2824 35.9579 32.2824 36.1367 32.2079L50.2757 26.3244C50.539 26.213 50.7123 25.9574 50.7183 25.6715C50.7156 25.3769 50.535 25.1131 50.2612 25.0041Z" fill="white"/>
<path d="M36.1294 19.3093C35.9549 19.2387 35.7598 19.2387 35.5853 19.3093L21.4462 25.0041C21.0756 25.1563 20.8986 25.5802 21.0508 25.9508C21.1245 26.1301 21.2669 26.2725 21.4462 26.3461H21.439L27.2934 28.7982L29.1505 28.0002L41.0479 22.8712L42.9269 22.0587L36.1294 19.3093Z" fill="white"/>
<path d="M38.5823 47.2255C38.5699 47.2249 38.5576 47.2246 38.5451 47.2246C38.1249 47.2046 37.768 47.5291 37.748 47.9492C37.728 48.3694 38.0525 48.7263 38.4726 48.7463C38.8928 48.7663 39.2497 48.4419 39.2697 48.0217C39.2702 48.0099 39.2705 47.9982 39.2706 47.9863C39.2906 47.5862 38.9825 47.2456 38.5823 47.2255Z" fill="white"/>
<path d="M41.8396 46.101C41.8272 46.1004 41.8148 46.1001 41.8024 46.1001C41.3822 46.0801 41.0253 46.4045 41.0053 46.8247C40.9853 47.2449 41.3097 47.6018 41.7299 47.6218C42.1501 47.6418 42.507 47.3173 42.527 46.8972C42.5275 46.8854 42.5278 46.8736 42.5279 46.8618C42.5479 46.4617 42.2398 46.1211 41.8396 46.101Z" fill="white"/>
</svg>
