<svg width="49" height="49" viewBox="0 0 49 49" fill="none" xmlns="http://www.w3.org/2000/svg">
<path d="M24.3295 37.6097C26.9488 37.6097 29.0721 35.4865 29.0721 32.8673C29.0721 30.2482 26.9488 28.1249 24.3295 28.1249C21.7102 28.1249 19.5869 30.2482 19.5869 32.8673C19.5869 35.4865 21.7102 37.6097 24.3295 37.6097Z" fill="#6CCB7F"/>
<path d="M47.1413 0H1.42278C0.637024 0 0 0.636929 0 1.42268V35.5676C0 36.3533 0.637024 36.9903 1.42278 36.9903H17.9642C14.7026 31.9725 18.3206 25.2797 24.3295 25.2797C30.3383 25.2797 33.9564 31.9724 30.6948 36.9903H47.1413C47.9271 36.9903 48.5641 36.3533 48.5641 35.5676V1.42268C48.5641 0.636929 47.9271 0 47.1413 0V0ZM18.5909 5.78567H29.9731C30.7589 5.78567 31.3959 6.4226 31.3959 7.20835C31.3959 7.9941 30.7589 8.63103 29.9731 8.63103H18.5909C17.8052 8.63103 17.1682 7.9941 17.1682 7.20835C17.1682 6.4226 17.8052 5.78567 18.5909 5.78567ZM38.5098 22.8581H10.0543C9.26853 22.8581 8.63151 22.2212 8.63151 21.4354C8.63151 20.6497 9.26853 20.0128 10.0543 20.0128H38.5098C39.2956 20.0128 39.9326 20.6497 39.9326 21.4354C39.9326 22.2212 39.2956 22.8581 38.5098 22.8581ZM38.5098 17.1673H10.0543C9.26853 17.1673 8.63151 16.5304 8.63151 15.7446C8.63151 14.9589 9.26853 14.3219 10.0543 14.3219H38.5098C39.2956 14.3219 39.9326 14.9589 39.9326 15.7446C39.9326 16.5304 39.2956 17.1673 38.5098 17.1673Z" fill="#6CCB7F"/>
<path d="M18.6619 37.9055V47.1388C18.6619 48.2669 19.9215 48.9539 20.8708 48.3246L24.3768 46.0003L27.8828 48.3246C28.8175 48.9443 30.0917 48.2802 30.0917 47.1388V37.796C27.0943 41.295 21.728 41.3506 18.6619 37.9055Z" fill="#6CCB7F"/>
</svg>
