<svg width="46" height="49" viewBox="0 0 46 49" fill="none" xmlns="http://www.w3.org/2000/svg">
<path d="M45.2189 40.9636L39.6495 29.0206C36.5744 33.4982 31.7729 36.6867 26.2148 37.6535L30.877 47.651C31.473 48.9302 33.3177 48.8449 33.7978 47.5238L36.1874 40.9596L36.6798 40.73L43.244 43.1196C44.5613 43.603 45.8141 42.2379 45.2189 40.9636Z" fill="#6CCB7F"/>
<path d="M22.6856 6.10352e-05C13.0879 6.10352e-05 5.27881 7.80873 5.27881 17.4069C5.27881 27.005 13.088 34.8137 22.6856 34.8137C32.2833 34.8137 40.0924 27.005 40.0924 17.4069C40.0924 7.80873 32.2834 6.10352e-05 22.6856 6.10352e-05ZM31.1553 16.1279L28.0687 19.1368L28.7981 23.3865C29.0211 24.684 27.654 25.6588 26.5017 25.0545L22.6857 23.0485L18.8697 25.0544C17.7107 25.6629 16.3515 24.6767 16.5733 23.3864L17.3027 19.1367L14.2161 16.1278C13.278 15.2132 13.7987 13.6168 15.093 13.4287L19.3592 12.809L21.2672 8.94353C21.8446 7.76965 23.5265 7.7686 24.1045 8.94353L26.0125 12.809L30.2787 13.4287C31.5728 13.6167 32.0934 15.2132 31.1553 16.1279Z" fill="#6CCB7F"/>
<path d="M5.72193 29.0206L0.152622 40.9636C-0.445417 42.2438 0.818766 43.6015 2.12753 43.1193L8.69164 40.7297L9.18411 40.9594L11.5737 47.5236C12.0528 48.8419 13.8972 48.9328 14.4945 47.6509L19.1566 37.6534C13.5986 36.6867 8.79721 33.4983 5.72193 29.0206Z" fill="#6CCB7F"/>
</svg>
