<svg width="70" height="70" viewBox="0 0 70 70" fill="none" xmlns="http://www.w3.org/2000/svg">
<circle cx="35" cy="35" r="35" fill="#0156FF"/>
<path d="M33.4256 29.7012C30.0923 30.5737 28.0985 33.983 28.971 37.3163C29.8435 40.6496 33.2529 42.6435 36.5862 41.771C39.9195 40.8984 41.914 37.4891 41.0408 34.1558C40.1676 30.8225 36.7589 28.8286 33.4256 29.7012ZM36.332 38.8306C36.268 38.8559 36.2059 38.8859 36.1232 38.9219C36.2093 39.2501 36.2907 39.5617 36.3747 39.8825C36.1306 39.9465 35.8998 40.0066 35.6536 40.0713C35.5656 39.7358 35.4802 39.4076 35.3928 39.076C34.633 39.1114 33.8792 39.1821 33.2135 38.6791C33.4443 38.3196 33.6644 37.9767 33.8799 37.6412C34.6684 38.0514 35.4255 37.9247 36.1566 37.5418C36.5575 37.3317 36.5355 36.696 36.1452 36.4618C35.9351 36.3351 35.7103 36.2937 35.4675 36.2924C34.8204 36.289 34.1761 36.2524 33.5484 36.0783C33.1855 35.9775 32.8366 35.8314 32.6705 35.4626C32.4644 35.0043 32.349 34.5207 32.4477 34.0144C32.5658 33.408 32.9607 33.0251 33.493 32.7616C33.5444 32.7363 33.5977 32.7129 33.6498 32.6876C33.6644 32.6802 33.6784 32.6709 33.7038 32.6556C33.6171 32.3234 33.5297 31.9892 33.4383 31.6416C33.6818 31.5783 33.9126 31.5176 34.1681 31.4509C34.2548 31.7824 34.3428 32.1192 34.4316 32.4574C35.1166 32.3674 35.773 32.3234 36.388 32.7069C36.2033 33.0558 36.0265 33.3913 35.8404 33.7442C35.3067 33.4527 34.7791 33.5741 34.2574 33.7502C34.12 33.7962 33.9806 33.8763 33.8766 33.9763C33.5984 34.2445 33.6944 34.6234 34.0713 34.7014C34.3849 34.7668 34.7111 34.7708 35.0319 34.7995C35.4788 34.8395 35.9304 34.8502 36.3714 34.9216C37.0458 35.0316 37.4633 35.4512 37.6608 36.1009C37.9977 37.2029 37.4113 38.4096 36.332 38.8306Z" fill="white"/>
<path d="M55.1673 37.9519L51.2002 22.7989C50.9661 21.9051 50.0502 21.3694 49.1564 21.6035L16.0281 30.2773C15.1342 30.5115 14.5986 31.4274 14.8327 32.3212L15.848 36.1955C16.3463 35.5084 17.0267 35.1382 17.515 34.9141C18.5943 34.4225 19.7783 34.185 21.1351 34.185H21.2966C21.3673 34.187 21.438 34.187 21.5073 34.1883C22.3445 33.3752 22.7654 32.2118 22.5533 30.6269L43.6211 25.1109C44.8065 27.3843 45.9431 28.044 48.2145 27.7632L50.1169 35.0342C49.4819 35.3237 48.9636 35.6639 48.558 36.0628C48.6654 35.9574 49.8168 36.6531 49.9642 36.7492C50.4378 37.056 50.8527 37.4783 51.1616 37.9492C51.6892 38.753 51.6038 39.6929 51.6038 40.6161L53.9712 39.9964C54.8657 39.7623 55.4014 38.8464 55.1673 37.9519ZM39.4993 41.7268L26.9599 45.0087C26.9666 45.2275 26.9699 45.4683 26.9512 45.7158V47.0693L39.5107 43.7807V42.1457C39.504 42.0583 39.4987 41.9689 39.4987 41.8762V41.7268H39.4993Z" fill="white"/>
<path d="M22.7303 45.5071L22.7261 45.5114V45.5071H22.7303Z" fill="white"/>
<path d="M22.7346 45.5934L22.7281 45.5945V45.5891L22.7346 45.5934Z" fill="white"/>
<path d="M24.7559 39.5207C24.1709 40.1057 23.4285 40.4145 22.6467 40.5853C22.1471 40.6974 21.6414 40.7821 21.1285 40.8281C20.9971 40.8414 20.8656 40.8541 20.7342 40.8675C20.6422 40.8675 20.5501 40.8741 20.4581 40.8741C20.0505 40.8808 19.6302 40.8281 19.2293 40.7754C18.723 40.71 18.2241 40.5913 17.7445 40.4205C17.4683 40.3218 17.1921 40.1971 16.936 40.0523C16.5091 39.8222 16.1342 39.5333 15.8847 39.0998C15.6746 38.7315 15.6746 38.364 15.898 38.0024C16.2202 37.4701 16.7132 37.1479 17.2582 36.8984C18.3228 36.4122 19.4528 36.2414 20.6162 36.2607C21.6875 36.2741 22.7387 36.4315 23.7113 36.9111C24.0922 37.0952 24.4738 37.3447 24.7826 37.6342C25.4397 38.2719 25.3736 38.8963 24.7559 39.5207Z" fill="white"/>
<path d="M25.2369 40.3636C25.2369 40.7765 25.2756 41.1734 25.2276 41.559C25.1322 42.3161 24.2503 42.7263 23.632 42.9945C21.7755 43.801 19.4235 43.7049 17.547 43.0385C16.6765 42.729 15.6999 42.3368 15.7039 41.2481C15.7046 40.9619 15.7039 40.6758 15.7039 40.3442C15.8794 40.5003 16.0114 40.6331 16.1582 40.7471C17.0507 41.4436 18.1 41.7351 19.1953 41.8885C20.1439 42.0212 21.0951 42.0059 22.0403 41.8485C23.0329 41.683 23.9788 41.3895 24.7893 40.7625C24.9434 40.6431 25.0808 40.5043 25.2369 40.3636Z" fill="white"/>
<path d="M25.2489 43.0541C25.2489 43.467 25.2876 43.8639 25.2396 44.2495C25.1442 45.0066 24.2623 45.4169 23.6439 45.685C21.7875 46.4915 19.4355 46.3954 17.559 45.729C16.6885 45.4195 15.7119 45.0273 15.7159 43.9387C15.7166 43.6525 15.7159 43.3663 15.7159 43.0348C15.8914 43.1909 16.0234 43.3236 16.1702 43.4377C17.0627 44.1341 18.112 44.4256 19.2073 44.579C20.1559 44.7118 21.1071 44.6964 22.0523 44.539C23.0449 44.3736 23.9908 44.0801 24.8013 43.453C24.9547 43.3336 25.0921 43.1949 25.2489 43.0541Z" fill="white"/>
<path d="M25.2489 45.6962C25.2489 46.1091 25.2876 46.506 25.2396 46.8916C25.1442 47.6487 24.2623 48.059 23.6439 48.3271C21.7875 49.1336 19.4355 49.0375 17.559 48.3711C16.6885 48.0616 15.7119 47.6694 15.7159 46.5807C15.7166 46.2946 15.7159 46.0084 15.7159 45.6769C15.8914 45.833 16.0234 45.9657 16.1702 46.0798C17.0627 46.7762 18.112 47.0677 19.2073 47.2211C20.1559 47.3539 21.1071 47.3385 22.0523 47.1811C23.0449 47.0157 23.9908 46.7222 24.8013 46.0951C24.9547 45.9764 25.0921 45.837 25.2489 45.6962Z" fill="white"/>
<path d="M47.5873 44.9099L47.5841 44.9142V44.9099H47.5873Z" fill="white"/>
<path d="M47.5905 44.9875L47.5854 44.9885V44.9835L47.5905 44.9875Z" fill="white"/>
<path d="M49.4113 40.4377C48.8843 40.9647 48.2159 41.2429 47.5115 41.4023C47.0619 41.503 46.6063 41.5737 46.144 41.6211C46.0259 41.6331 45.9072 41.6391 45.7891 41.6505C45.7064 41.6565 45.6237 41.6625 45.5403 41.6625C45.1734 41.6625 44.7945 41.6211 44.4396 41.5737C43.978 41.5084 43.5284 41.4023 43.0962 41.2482C42.8474 41.1595 42.6052 41.0468 42.3684 40.9227C41.9895 40.7099 41.6467 40.4551 41.4212 40.0588C41.2318 39.7273 41.2318 39.3958 41.4332 39.0703C41.7234 38.5906 42.167 38.3011 42.6586 38.0757C43.6172 37.6374 44.6351 37.49 45.6831 37.5013C46.6536 37.5133 47.6009 37.6608 48.4767 38.087C48.8202 38.2585 49.1571 38.4779 49.4353 38.7441C50.0263 39.3137 49.9676 39.8761 49.4113 40.4377Z" fill="white"/>
<path d="M49.8455 41.2003C49.8455 41.5719 49.8808 41.9294 49.8368 42.277C49.7507 42.9587 48.9563 43.3283 48.3999 43.5697C46.7283 44.2962 44.6097 44.2094 42.92 43.6091C42.1362 43.3303 41.257 42.9774 41.2597 41.9968C41.2604 41.7393 41.2597 41.4812 41.2597 41.183C41.4178 41.3237 41.5372 41.4431 41.6693 41.5459C42.4731 42.1729 43.4183 42.4357 44.4042 42.5738C45.2587 42.6939 46.1153 42.6792 46.9664 42.5378C47.8603 42.389 48.7121 42.1242 49.4419 41.5592C49.5806 41.4518 49.7047 41.3264 49.8455 41.2003Z" fill="white"/>
<path d="M49.8555 43.6231C49.8555 43.9946 49.8908 44.3522 49.8468 44.6997C49.7607 45.3814 48.9663 45.751 48.4099 45.9925C46.7383 46.7189 44.6197 46.6322 42.93 46.0318C42.1462 45.753 41.2671 45.4001 41.2697 44.4195C41.2704 44.162 41.2697 43.9039 41.2697 43.6057C41.4278 43.7465 41.5472 43.8659 41.6793 43.9686C42.4831 44.5956 43.4283 44.8585 44.4142 44.9965C45.2688 45.1166 46.1253 45.1019 46.9764 44.9605C47.8703 44.8118 48.7221 44.5469 49.4519 43.9819C49.5913 43.8745 49.7147 43.7491 49.8555 43.6231Z" fill="white"/>
<path d="M49.8555 46.0023C49.8555 46.3739 49.8908 46.7314 49.8468 47.079C49.7607 47.7607 48.9663 48.1303 48.4099 48.3717C46.7383 49.0982 44.6197 49.0114 42.93 48.4111C42.1462 48.1323 41.2671 47.7794 41.2697 46.7988C41.2704 46.5413 41.2697 46.2832 41.2697 45.985C41.4278 46.1257 41.5472 46.2451 41.6793 46.3479C42.4831 46.9749 43.4283 47.2377 44.4142 47.3758C45.2688 47.4959 46.1253 47.4812 46.9764 47.3398C47.8703 47.191 48.7221 46.9262 49.4519 46.3612C49.5913 46.2545 49.7147 46.1291 49.8555 46.0023Z" fill="white"/>
</svg>
