<svg width="64" height="44" viewBox="0 0 64 44" fill="none" xmlns="http://www.w3.org/2000/svg">
<path d="M63.71 19.9973L57.71 9.99863C57.5363 9.69785 57.2873 9.44747 56.9875 9.27215C56.6877 9.09683 56.3473 9.00261 56 8.99877H42V1.99973C42 1.46937 41.7893 0.960728 41.4142 0.585706C41.0391 0.210685 40.5304 0 40 0H2.5C1.83696 0 1.20107 0.263356 0.732233 0.732133C0.263392 1.20091 0 1.83671 0 2.49966H0C0 3.16261 0.263392 3.7984 0.732233 4.26718C1.20107 4.73596 1.83696 4.99931 2.5 4.99931H12.89C13.3816 4.98014 13.864 5.13665 14.2506 5.4408C14.6373 5.74495 14.9029 6.17685 15 6.65909C15.05 6.94866 15.0355 7.2457 14.9577 7.52906C14.8798 7.81241 14.7404 8.07513 14.5495 8.29852C14.3585 8.5219 14.1207 8.70046 13.8529 8.82149C13.5851 8.94252 13.2939 9.00305 13 8.99877H1.5C1.10218 8.99877 0.720644 9.15678 0.43934 9.43805C0.158035 9.71931 0 10.1008 0 10.4986H0C0 10.8963 0.158035 11.2778 0.43934 11.5591C0.720644 11.8403 1.10218 11.9984 1.5 11.9984H9.5C9.98653 11.9864 10.4617 12.1462 10.8421 12.4498C11.2225 12.7533 11.4838 13.1811 11.58 13.6581C11.6297 13.946 11.6157 14.2413 11.5389 14.5232C11.4622 14.8051 11.3246 15.0668 11.1359 15.2898C10.9471 15.5128 10.7118 15.6918 10.4465 15.8141C10.1811 15.9364 9.89219 15.9991 9.6 15.9978H1.5C1.10218 15.9978 0.720644 16.1558 0.43934 16.4371C0.158035 16.7184 0 17.0998 0 17.4976H0C0 17.8954 0.158035 18.2768 0.43934 18.5581C0.720644 18.8394 1.10218 18.9974 1.5 18.9974H7.5C7.98653 18.9854 8.46172 19.1453 8.8421 19.4488C9.22249 19.7523 9.48375 20.1802 9.58 20.6572C9.62968 20.9451 9.61566 21.2404 9.53893 21.5223C9.4622 21.8042 9.32463 22.0658 9.13589 22.2888C8.94715 22.5119 8.71183 22.6908 8.44648 22.8132C8.18112 22.9355 7.89219 22.9982 7.6 22.9968H1.5C1.10218 22.9968 0.720644 23.1549 0.43934 23.4361C0.158035 23.7174 0 24.0989 0 24.4966H0C0 24.8944 0.158035 25.2759 0.43934 25.5572C0.720644 25.8384 1.10218 25.9964 1.5 25.9964H4.09C4.57653 25.9845 5.05172 26.1443 5.4321 26.4478C5.81249 26.7514 6.07375 27.1792 6.17 27.6562C6.21953 27.9433 6.20573 28.2377 6.12958 28.5189C6.05342 28.8001 5.91674 29.0612 5.7291 29.2841C5.54147 29.5069 5.3074 29.6861 5.04327 29.809C4.77915 29.932 4.49135 29.9958 4.2 29.9959H2C1.46957 29.9959 0.960859 30.2066 0.585786 30.5816C0.210714 30.9566 0 31.4653 0 31.9956L0 36.9949C0 37.5253 0.210714 38.0339 0.585786 38.4089C0.960859 38.784 1.46957 38.9947 2 38.9947H7.29C7.71971 40.4405 8.60506 41.7089 9.81418 42.6108C11.0233 43.5127 12.4915 44 14 44C15.5085 44 16.9767 43.5127 18.1858 42.6108C19.3949 41.7089 20.2803 40.4405 20.71 38.9947H44.29C44.7197 40.4405 45.6051 41.7089 46.8142 42.6108C48.0233 43.5127 49.4915 44 51 44C52.5085 44 53.9767 43.5127 55.1858 42.6108C56.3949 41.7089 57.2803 40.4405 57.71 38.9947H62C62.5304 38.9947 63.0391 38.784 63.4142 38.4089C63.7893 38.0339 64 37.5253 64 36.9949V20.9971C63.9933 20.6441 63.8933 20.2991 63.71 19.9973ZM14 39.9945C13.4067 39.9945 12.8266 39.8186 12.3333 39.489C11.8399 39.1594 11.4554 38.6909 11.2284 38.1428C11.0013 37.5947 10.9419 36.9916 11.0576 36.4097C11.1734 35.8279 11.4591 35.2934 11.8787 34.8739C12.2982 34.4544 12.8328 34.1687 13.4147 34.053C13.9967 33.9372 14.5999 33.9966 15.1481 34.2237C15.6962 34.4507 16.1648 34.8352 16.4944 35.3284C16.8241 35.8217 17 36.4017 17 36.9949C17 37.7905 16.6839 38.5534 16.1213 39.116C15.5587 39.6785 14.7956 39.9945 14 39.9945ZM51 39.9945C50.4067 39.9945 49.8266 39.8186 49.3333 39.489C48.8399 39.1594 48.4554 38.6909 48.2284 38.1428C48.0013 37.5947 47.9419 36.9916 48.0576 36.4097C48.1734 35.8279 48.4591 35.2934 48.8787 34.8739C49.2982 34.4544 49.8328 34.1687 50.4147 34.053C50.9967 33.9372 51.5999 33.9966 52.148 34.2237C52.6962 34.4507 53.1648 34.8352 53.4944 35.3284C53.8241 35.8217 54 36.4017 54 36.9949C54 37.7905 53.6839 38.5534 53.1213 39.116C52.5587 39.6785 51.7957 39.9945 51 39.9945ZM42 20.9971V12.9982H54.87L59.67 20.9971H42Z" fill="#6CCB7F"/>
</svg>
