<svg width="85" height="85" viewBox="0 0 85 85" fill="none" xmlns="http://www.w3.org/2000/svg">
<path d="M35.46 16.896C36.11 17.436 37.11 17.786 38.23 17.786C40.19 17.786 41.78 17.256 41.78 15.406C41.78 13.556 40.19 13.026 38.23 13.026C36.27 13.026 34.68 12.366 34.68 10.646C34.68 8.91599 36.27 8.26599 38.23 8.26599C39.42 8.26599 40.47 8.65599 41.11 9.25599" stroke="#082044" stroke-width="2.5" stroke-miterlimit="10" stroke-linecap="square"/>
<path d="M38.23 8.25598V6.62598" stroke="#082044" stroke-width="2.5" stroke-miterlimit="10" stroke-linecap="square"/>
<path d="M38.23 19.5459V17.9159" stroke="#082044" stroke-width="2.5" stroke-miterlimit="10" stroke-linecap="square"/>
<path d="M49.4342 14.8276C50.4346 8.63942 46.2291 2.81188 40.0409 1.81144C33.8527 0.811001 28.0252 5.0165 27.0247 11.2047C26.0243 17.3929 30.2298 23.2204 36.418 24.2209C42.6062 25.2213 48.4337 21.0158 49.4342 14.8276Z" stroke="#082044" stroke-width="2.5" stroke-miterlimit="10" stroke-linecap="square"/>
<path d="M24.96 78.6559L23.31 83.6159H12.94L16.08 74.1559C16.04 74.1259 16.01 74.1059 15.97 74.0759C11.72 71.0259 8.53 66.7359 6.58 61.8759L6.21 60.9659H2V49.1659H6.21C7.77 43.9159 11.35 39.2959 16.26 35.8559L10.32 29.6159C16.83 26.5759 20.83 30.0459 24.28 31.7359C28.31 30.2859 32.77 29.4759 37.48 29.4759C54.52 29.4759 68.46 40.0359 69.55 53.3859H69.62C69.62 53.3859 73.87 49.7059 77.81 53.5259C80.23 55.8659 79.77 61.2559 76.11 60.8459C71.49 60.3259 73.03 54.2659 83.19 51.0759" stroke="#082044" stroke-width="2.5" stroke-miterlimit="10" stroke-linecap="square"/>
<path d="M69.33 58.506C68.24 64.956 64.14 70.646 58.19 74.646L61.17 83.626H50.78L49.21 78.906C45.57 80.046 41.61 80.676 37.47 80.676C34.84 80.676 32.27 80.426 29.82 79.946" stroke="#082044" stroke-width="2.5" stroke-miterlimit="10" stroke-linecap="square"/>
<path d="M61.75 58.256C60.88 61.446 57.77 65.466 55.22 67.206" stroke="#082044" stroke-width="2.5" stroke-miterlimit="10" stroke-linecap="square"/>
<path d="M33.34 37.486H43.12" stroke="#082044" stroke-width="2.5" stroke-miterlimit="10" stroke-linecap="square"/>
<path d="M16.82 44.5759L14.39 48.0659" stroke="#082044" stroke-width="2.5" stroke-miterlimit="10"/>
</svg>
