<svg width="52" height="46" viewBox="0 0 52 46" fill="none" xmlns="http://www.w3.org/2000/svg">
<path d="M25.9709 23.2961C25.2543 23.2949 24.547 23.1563 23.9023 22.8906L6.4868 15.7917L0.538888 18.2166C0.21231 18.3528 0.00469971 18.6351 0.00469971 18.9444C0.00469971 19.2537 0.21231 19.536 0.538888 19.6722L24.729 29.5445C25.5151 29.8597 26.4267 29.8597 27.2128 29.5445L51.4029 19.6762C51.7295 19.5399 51.9366 19.2576 51.9366 18.9484C51.9366 18.6391 51.7295 18.3568 51.4029 18.2206L45.455 15.7917L28.0405 22.8942C27.3948 23.1583 26.6875 23.2961 25.9709 23.2961Z" fill="#6CCB7F"/>
<path d="M6.13e-05 10.837C-0.00413753 11.1494 0.207671 11.4353 0.541714 11.5668L24.729 21.432C25.5132 21.7543 26.4286 21.7543 27.2129 21.432L51.3987 11.5668C51.7286 11.4314 51.938 11.1478 51.938 10.837C51.938 10.5262 51.7286 10.2427 51.3987 10.1072L27.2129 0.242037C26.4286 -0.0806789 25.5132 -0.0806789 24.729 0.242037L0.541714 10.1072C0.207671 10.2387 -0.00413753 10.5246 6.13e-05 10.837Z" fill="#6CCB7F"/>
<path d="M0.536176 35.8953L24.7291 45.7636C25.5152 46.0788 26.4268 46.0788 27.2129 45.7636L51.4016 35.8953C51.7347 35.7622 51.947 35.4779 51.947 35.1655C51.947 34.8531 51.7347 34.5688 51.4016 34.4357L45.4541 32.0108L28.0387 39.1165C26.73 39.6404 25.2143 39.6404 23.9061 39.1165L6.48782 32.0108L0.538975 34.4357C0.209598 34.5711 0.00012207 34.8547 0.00012207 35.1655C0.00012207 35.4763 0.209598 35.7598 0.538975 35.8953H0.536176Z" fill="#6CCB7F"/>
<path d="M27.2129 37.6523L51.403 27.7855C51.7324 27.6501 51.9418 27.3666 51.9418 27.0558C51.9418 26.7449 51.7324 26.4614 51.403 26.326L45.4541 23.9011L28.0387 31.0067C26.73 31.5306 25.2143 31.5306 23.9061 31.0067L6.48782 23.9011L0.538975 26.326C0.209598 26.4614 0.00012207 26.7449 0.00012207 27.0558C0.00012207 27.3666 0.209598 27.6501 0.538975 27.7855L24.7291 37.6539C25.5156 37.9687 26.4268 37.9679 27.2129 37.6523Z" fill="#6CCB7F"/>
</svg>
