<svg width="21" height="18" viewBox="0 0 21 18" fill="none" xmlns="http://www.w3.org/2000/svg">
<path d="M2.23272 7.86761H18.7673H19.128C19.144 7.86761 19.1618 7.86085 19.1725 7.84901C19.1849 7.83718 19.192 7.82197 19.192 7.80507V6.43775C19.192 6.42254 19.1849 6.40563 19.1725 6.39549C19.1618 6.38366 19.144 6.3769 19.128 6.3769H1.87196C1.85596 6.3769 1.83819 6.38366 1.82753 6.39549C1.81509 6.40563 1.80798 6.42254 1.80798 6.43775V7.80507C1.80798 7.82366 1.81509 7.83887 1.82575 7.8507L1.82753 7.84901C1.83819 7.86085 1.85596 7.86761 1.87196 7.86761H2.23272ZM9.4035 0H11.5965C11.9395 0 12.2309 0.211268 12.3376 0.503662H13.1959C13.6811 0.503662 14.1076 0.655775 14.4613 0.922817C14.8078 1.18479 15.0762 1.55493 15.2468 1.99606L16.3308 5.13296H19.128C19.5048 5.13296 19.8496 5.28 20.0966 5.51662C20.3454 5.75155 20.5 6.07944 20.5 6.43775V7.80507C20.5 8.16507 20.3454 8.49127 20.0966 8.72789C19.8922 8.92225 19.6221 9.05747 19.3218 9.09803L17.8592 17.4777C17.8076 17.782 17.5304 17.9983 17.2158 17.9983V18H3.78417C3.44295 18 3.16216 17.7516 3.13373 17.4338L1.67825 9.09803C1.37791 9.05747 1.10778 8.92225 0.903412 8.72789V8.7262C0.654612 8.48958 0.5 8.16338 0.5 7.80507V6.43775C0.5 6.07944 0.654612 5.75155 0.903412 5.51662C1.15044 5.28 1.4952 5.13296 1.87196 5.13296H4.66918L5.75324 1.99606C5.92385 1.55493 6.1922 1.18479 6.53874 0.922817C6.89239 0.655775 7.32069 0.503662 7.80407 0.503662H8.66243C8.76906 0.211268 9.06051 0 9.4035 0V0ZM12.2807 1.74761C12.1474 1.97577 11.8897 2.13127 11.5965 2.13127H9.4035C9.11027 2.13127 8.85259 1.97577 8.7193 1.74761H7.80407C7.62813 1.74761 7.4753 1.80169 7.3509 1.89465C7.19451 2.01296 7.06833 2.1938 6.97947 2.42197L6.04292 5.13296H14.9571L14.0205 2.42197C13.9317 2.1938 13.8055 2.01296 13.6491 1.89465C13.5247 1.80169 13.3719 1.74761 13.1959 1.74761H12.2807ZM11.154 14.5758C11.154 14.9206 10.8608 15.1977 10.5 15.1977C10.1392 15.1977 9.84601 14.9206 9.84601 14.5758V11.2918C9.84601 10.9487 10.1392 10.6699 10.5 10.6699C10.8608 10.6699 11.154 10.9487 11.154 11.2918V14.5758ZM14.4861 14.6755C14.4275 15.0135 14.0916 15.2434 13.738 15.1876C13.3825 15.1335 13.1408 14.8141 13.1977 14.4777L13.7717 11.1921C13.8304 10.8541 14.1645 10.6242 14.5199 10.68C14.8753 10.7341 15.117 11.0535 15.0584 11.3916L14.4861 14.6755ZM7.80229 14.4777C7.85916 14.8141 7.61747 15.1335 7.26204 15.1876C6.90839 15.2434 6.57251 15.0135 6.51564 14.6755L5.94162 11.3916C5.88298 11.0535 6.12467 10.7341 6.4801 10.68C6.83553 10.6242 7.16963 10.8541 7.22827 11.1921L7.80229 14.4777ZM10.5 9.11155H3.00222L4.33686 16.7561H16.6631L17.9996 9.11155H10.5Z" fill="#C91216"/>
</svg>
