<svg width="190" height="190" viewBox="0 0 190 190" fill="none" xmlns="http://www.w3.org/2000/svg">
<mask id="mask0" mask-type="alpha" maskUnits="userSpaceOnUse" x="0" y="0" width="190" height="190">
<rect width="190" height="190" fill="#C4C4C4"/>
</mask>
<g mask="url(#mask0)">
<path d="M54.5137 37.1979L53.3484 38.045L49.4031 32.6483L46.438 34.8036L50.3834 40.2003L49.2181 41.0473L44.6498 34.7986L49.9454 30.9491L54.5137 37.1979Z" fill="white"/>
<path d="M71.0312 22.6274L72.1044 25.6223C72.2625 26.0637 72.3338 26.4682 72.318 26.8357C72.3023 27.2032 72.2262 27.513 72.0897 27.765C71.9596 28.0034 71.7516 28.23 71.4657 28.4446C71.1797 28.6593 70.8994 28.8266 70.625 28.9467C70.3541 29.0768 70.0174 29.2133 69.615 29.3562C69.2126 29.4991 68.8023 29.5882 68.384 29.6236C67.9658 29.6591 67.6686 29.5893 67.4925 29.4143L68.7274 32.8607L67.3693 33.3429L63.6916 23.079L65.0497 22.5968L65.3301 23.3794C65.2179 22.718 65.9364 22.1123 67.4857 21.5622C68.4615 21.2157 69.2444 21.1695 69.8345 21.4237C70.431 21.6643 70.8299 22.0655 71.0312 22.6274ZM70.7754 26.2808L69.8155 23.6019C69.5746 22.9297 69.276 22.5551 68.9195 22.4781C68.5594 22.391 68.0072 22.4797 67.2627 22.744C66.5082 23.0119 66.0192 23.293 65.7958 23.5872C65.5788 23.8678 65.5908 24.3442 65.8317 25.0165L66.7915 27.6953C67.0108 28.3073 67.2987 28.6519 67.6552 28.7289C68.0181 28.7923 68.5718 28.6918 69.3162 28.4275C70.0607 28.1631 70.5432 27.8957 70.7638 27.6251C70.9908 27.3409 70.9947 26.8928 70.7754 26.2808Z" fill="white"/>
<path d="M92.3724 19.428L92.5238 22.1092C92.5508 22.588 92.515 22.9955 92.4164 23.3317C92.3177 23.6679 92.1829 23.9313 92.0118 24.1221C91.8408 24.3128 91.5874 24.4653 91.2517 24.5796C90.9266 24.6933 90.61 24.7692 90.3021 24.8073C90.0048 24.8448 89.6056 24.8771 89.1045 24.9043C88.4648 24.9391 87.9626 24.945 87.5977 24.9222C87.2435 24.8987 86.8806 24.8171 86.5091 24.6772C86.1477 24.5261 85.8768 24.274 85.6965 23.9209C85.5268 23.5673 85.4251 23.0926 85.3915 22.4967L85.2401 19.8156C85.2113 19.3049 85.2456 18.8708 85.3431 18.5133C85.4512 18.1553 85.5851 17.8758 85.7449 17.6751C85.9153 17.4737 86.1684 17.3159 86.5042 17.2016C86.8393 17.0767 87.1502 16.9957 87.4369 16.9588C87.7342 16.9213 88.1387 16.8887 88.6504 16.8609C89.1622 16.8331 89.5626 16.822 89.8516 16.8276C90.1513 16.8327 90.4748 16.8791 90.8219 16.967C91.1685 17.0442 91.4325 17.1739 91.6138 17.3562C91.8059 17.5378 91.9705 17.801 92.1076 18.1458C92.2553 18.4899 92.3436 18.9173 92.3724 19.428ZM91.0643 22.3966L90.8877 19.2686C90.8474 18.5557 90.6786 18.122 90.3811 17.9674C90.0837 17.8128 89.5245 17.7579 88.7036 17.8025C87.8827 17.8471 87.3331 17.9623 87.0549 18.1482C86.7766 18.334 86.6576 18.7834 86.6979 19.4963L86.8745 22.6243C86.8937 22.9647 86.9463 23.234 87.0323 23.4321C87.1184 23.6302 87.2654 23.7716 87.4733 23.8564C87.6807 23.9305 87.8916 23.9724 88.106 23.9821C88.3205 23.9918 88.6356 23.9853 89.0513 23.9627C89.4671 23.9402 89.781 23.9124 89.9931 23.8796C90.2051 23.8467 90.41 23.7822 90.6077 23.6861C90.8049 23.5793 90.9351 23.4228 90.9983 23.2166C91.0615 23.0104 91.0835 22.7371 91.0643 22.3966Z" fill="white"/>
<path d="M113.373 24.387C113.241 24.9472 113.044 25.3879 112.782 25.7092C112.52 26.0305 112.192 26.2324 111.8 26.3148C111.408 26.3973 111.029 26.4226 110.663 26.391C110.298 26.3593 109.856 26.282 109.336 26.1591C108.91 26.0584 108.555 25.958 108.272 25.8581C107.996 25.771 107.709 25.6427 107.409 25.4731C107.111 25.2932 106.89 25.093 106.744 24.8724C106.601 24.6414 106.505 24.3504 106.456 23.9993C106.41 23.6379 106.441 23.2289 106.548 22.7725L107.91 16.9995C108.025 16.5119 108.201 16.1154 108.437 15.8099C108.676 15.4941 108.932 15.2698 109.205 15.1371C109.48 14.9941 109.811 14.9137 110.199 14.896C110.598 14.8807 110.95 14.8983 111.256 14.9488C111.565 14.989 111.927 15.0582 112.342 15.1565C112.976 15.3064 113.817 15.5546 114.865 15.9011L114.615 16.9592C113.546 16.5638 112.643 16.2789 111.905 16.1045C111.095 15.9128 110.499 15.8814 110.118 16.0102C109.749 16.1311 109.478 16.5599 109.304 17.2964L109.022 18.4946C109.346 18.3742 109.778 18.312 110.316 18.3079C110.865 18.3063 111.342 18.3534 111.747 18.4492C112.754 18.6876 113.434 19.0619 113.785 19.5721C114.147 20.0849 114.235 20.7354 114.049 21.5238L113.373 24.387ZM111.968 24.1367L112.658 21.2113C112.778 20.703 112.737 20.3208 112.534 20.0647C112.341 19.8111 111.887 19.5995 111.17 19.43C110.754 19.3317 110.305 19.3075 109.822 19.3574C109.351 19.3994 108.987 19.5268 108.728 19.7394L107.917 23.1784C107.758 23.8527 107.801 24.3228 108.045 24.5887C108.302 24.8467 108.815 25.0666 109.584 25.2484C110.353 25.4303 110.899 25.461 111.224 25.3406C111.559 25.2227 111.807 24.8214 111.968 24.1367Z" fill="white"/>
<path d="M131.257 34.5589L130.006 33.8447L131.73 30.8322L128.422 28.9436L126.698 31.9561L125.447 31.2419L129.292 24.5228L130.543 25.237L128.946 28.0273L132.254 29.9159L133.851 27.1256L135.102 27.8398L131.257 34.5589Z" fill="white"/>
<path d="M143.617 43.8273L142.32 42.4777L147.918 37.1243L148.86 38.1048L144.338 42.4296L151.52 40.8732L152.817 42.2228L147.219 47.5762L146.277 46.5957L150.903 42.1714L143.617 43.8273Z" fill="white"/>
<path d="M167.816 58.4891C167.265 58.7249 166.721 58.7415 166.183 58.5389C165.659 58.3409 165.262 57.9817 164.992 57.4613C164.718 56.9314 164.648 56.3916 164.784 55.8421C164.934 55.2972 165.268 54.8737 165.784 54.5716L166.417 55.7923C166.116 56.1154 165.931 56.3726 165.862 56.564C165.793 56.7554 165.839 57.0073 166.001 57.3195C166.139 57.5845 166.318 57.756 166.539 57.8341C166.774 57.9168 167.089 57.9222 167.485 57.8504L167.816 58.4891ZM156.185 59.6762L155.324 58.0155L162.214 54.468L162.839 55.6745L157.274 58.5404L164.606 59.081L165.467 60.7417L158.578 64.2892L157.952 63.0827L163.646 60.1509L156.185 59.6762Z" fill="white"/>
<path d="M173.453 94.2465L162.393 90.7999L162.337 89.2984L165.438 90.3561L173.184 87.0903L173.243 88.6557L167.002 91.0364L167.003 91.0683L173.398 92.7929L173.453 94.2465Z" fill="white"/>
<path d="M168.972 114.274L165.87 113.541C165.413 113.433 165.034 113.272 164.734 113.059C164.433 112.845 164.214 112.613 164.076 112.361C163.945 112.122 163.867 111.825 163.842 111.468C163.816 111.112 163.827 110.786 163.875 110.49C163.912 110.192 163.979 109.836 164.077 109.421C164.175 109.006 164.322 108.614 164.519 108.244C164.716 107.874 164.935 107.663 165.178 107.611L161.609 106.768L161.939 105.367L172.567 107.878L172.237 109.279L171.427 109.088C172.044 109.354 172.165 110.286 171.788 111.883C171.551 112.89 171.166 113.571 170.632 113.927C170.107 114.295 169.553 114.411 168.972 114.274ZM166.036 112.069L168.81 112.724C169.506 112.888 169.983 112.842 170.241 112.586C170.509 112.331 170.734 111.821 170.915 111.053C171.098 110.275 171.126 109.712 171 109.364C170.881 109.03 170.474 108.78 169.778 108.616L167.004 107.96C166.37 107.811 165.924 107.864 165.667 108.121C165.417 108.39 165.201 108.909 165.02 109.677C164.84 110.444 164.803 110.994 164.911 111.327C165.028 111.672 165.403 111.919 166.036 112.069Z" fill="white"/>
<path d="M160.108 133.905L157.772 132.573C157.355 132.335 157.032 132.083 156.803 131.817C156.574 131.552 156.426 131.295 156.358 131.048C156.291 130.801 156.3 130.505 156.386 130.161C156.466 129.827 156.574 129.52 156.709 129.241C156.839 128.971 157.028 128.619 157.277 128.184C157.594 127.628 157.862 127.204 158.079 126.91C158.291 126.626 158.556 126.366 158.875 126.131C159.198 125.91 159.557 125.82 159.951 125.861C160.34 125.911 160.795 126.084 161.314 126.38L163.649 127.713C164.094 127.967 164.44 128.232 164.688 128.508C164.93 128.794 165.092 129.058 165.174 129.301C165.251 129.554 165.247 129.852 165.161 130.196C165.084 130.545 164.984 130.85 164.859 131.11C164.729 131.38 164.538 131.737 164.284 132.181C164.029 132.626 163.822 132.967 163.66 133.207C163.493 133.455 163.279 133.701 163.017 133.945C162.764 134.193 162.512 134.344 162.261 134.397C162.004 134.459 161.693 134.454 161.329 134.381C160.96 134.318 160.553 134.159 160.108 133.905ZM158.322 131.192L161.047 132.747C161.668 133.101 162.124 133.196 162.415 133.03C162.706 132.865 163.056 132.426 163.463 131.713C163.871 131.001 164.072 130.477 164.067 130.142C164.061 129.808 163.748 129.463 163.127 129.109L160.402 127.555C160.106 127.385 159.851 127.283 159.638 127.247C159.425 127.212 159.226 127.258 159.042 127.386C158.867 127.52 158.718 127.674 158.593 127.848C158.469 128.023 158.304 128.291 158.097 128.652C157.891 129.013 157.744 129.291 157.656 129.487C157.569 129.683 157.512 129.889 157.486 130.108C157.469 130.331 157.53 130.525 157.669 130.691C157.808 130.856 158.025 131.023 158.322 131.192Z" fill="white"/>
<path d="M147.808 142.181L153.227 147.711L152.196 148.717L149.856 146.329C149.589 146.589 149.424 146.825 149.361 147.035C149.291 147.253 149.302 147.577 149.395 148.007L149.718 149.458C149.848 150.017 149.854 150.457 149.737 150.78C149.62 151.118 149.351 151.491 148.931 151.901L148.542 152.281L147.971 151.698L148.189 151.486C148.578 151.106 148.701 150.591 148.557 149.942L148.299 148.809C148.111 148.084 148.124 147.549 148.34 147.205C148.073 147.36 147.288 147.396 145.982 147.314L142.756 147.109L144.028 145.868L147.219 146.107C147.687 146.143 148.072 146.132 148.375 146.075C148.678 146.018 148.864 145.963 148.932 145.911C149.001 145.86 149.092 145.778 149.207 145.666L146.777 143.187L147.808 142.181Z" fill="white"/>
<path d="M118.099 164.594L117.829 163.841C117.699 163.48 117.663 163.142 117.72 162.828C117.768 162.517 117.872 162.254 118.032 162.038C118.187 161.836 118.416 161.636 118.719 161.438C119.022 161.239 119.307 161.087 119.575 160.98C119.83 160.867 120.148 160.743 120.53 160.607C121.284 160.338 122.215 160.104 123.322 159.902L123.706 160.97C122.551 161.132 121.611 161.342 120.887 161.6C120.595 161.704 120.365 161.791 120.198 161.862C120.024 161.946 119.832 162.06 119.623 162.202C119.416 162.355 119.287 162.531 119.234 162.731C119.174 162.944 119.191 163.181 119.285 163.442L119.452 163.909C119.528 164.119 119.65 164.268 119.817 164.356C119.978 164.457 120.178 164.493 120.418 164.465C120.65 164.45 120.854 164.417 121.029 164.366C121.207 164.325 121.417 164.262 121.658 164.176L123.242 163.613L123.577 164.545L122.249 165.018C122.008 165.104 121.809 165.18 121.651 165.247C121.488 165.328 121.304 165.433 121.101 165.562C120.901 165.701 120.766 165.862 120.696 166.045C120.626 166.229 120.63 166.431 120.709 166.651L120.871 167.103C121.058 167.625 121.756 167.671 122.963 167.241C123.908 166.905 124.706 166.553 125.357 166.186L125.708 167.164C124.986 167.523 124.188 167.858 123.313 168.169C122.588 168.426 122.012 168.592 121.585 168.665C121.053 168.763 120.62 168.742 120.286 168.601C119.952 168.459 119.698 168.148 119.525 167.666L119.315 167.08C119.196 166.749 119.226 166.438 119.406 166.148C119.575 165.862 119.825 165.626 120.155 165.44L120.134 165.38C119.04 165.588 118.362 165.326 118.099 164.594Z" fill="#1CB86D"/>
<path d="M99.6185 165.315L101.007 165.199L101.07 165.931C101.136 165.327 101.887 164.964 103.323 164.844C104.387 164.755 105.141 164.853 105.583 165.136C106.015 165.432 106.274 166.073 106.359 167.06C106.433 167.92 106.292 168.526 105.936 168.876C105.582 169.237 104.856 169.464 103.76 169.556L101.446 169.749L101.552 170.976C101.588 171.4 101.746 171.676 102.025 171.802C102.293 171.93 102.789 171.963 103.512 171.902C104.299 171.836 105.177 171.699 106.145 171.489L106.235 172.541C105.19 172.724 104.242 172.852 103.391 172.923C102.093 173.032 101.239 172.943 100.828 172.656C100.419 172.381 100.172 171.749 100.087 170.761L99.6185 165.315ZM101.186 166.723L101.37 168.858L103.588 168.672C104.248 168.617 104.655 168.497 104.811 168.313C104.956 168.13 105.003 167.735 104.95 167.13C104.903 166.578 104.785 166.198 104.595 165.989C104.395 165.781 104.013 165.701 103.449 165.748L103.162 165.772C102.885 165.795 102.657 165.82 102.477 165.845C102.287 165.872 102.076 165.916 101.846 165.979C101.616 166.051 101.447 166.146 101.339 166.261C101.222 166.389 101.171 166.543 101.186 166.723Z" fill="#1CB86D"/>
<path d="M80.2504 163.846L81.6646 164.123L80.3852 170.682L83.9837 171.387L85.2631 164.828L86.6774 165.105L85.196 172.7L78.7689 171.44L80.2504 163.846Z" fill="#1CB86D"/>
<path d="M65.5296 158.998L67.1908 159.863L63.6109 166.726L62.4041 166.098L65.2961 160.553L58.9967 164.324L57.3355 163.459L60.9153 156.596L62.1221 157.224L59.1636 162.896L65.5296 158.998Z" fill="#1CB86D"/>
<path d="M45.8384 145.494C46.4564 145.863 47.1135 146.37 47.8097 147.016C48.1539 147.335 48.4165 147.593 48.5975 147.79C48.778 147.971 48.9643 148.209 49.1565 148.504C49.3336 148.799 49.4305 149.071 49.4472 149.319C49.456 149.56 49.3984 149.841 49.2742 150.162C49.1428 150.491 48.9135 150.831 48.5864 151.183L46.6459 153.268C46.3551 153.58 46.077 153.824 45.8115 154C45.5381 154.168 45.2734 154.265 45.0175 154.289C44.7615 154.314 44.527 154.307 44.3141 154.27C44.1011 154.233 43.8667 154.124 43.6108 153.945C43.3398 153.767 43.1146 153.602 42.9352 153.45C42.7408 153.299 42.4949 153.086 42.1977 152.81C41.6579 152.31 41.1727 151.751 40.742 151.134L41.4615 150.361C41.9263 151.082 42.4364 151.701 42.9918 152.215C43.5941 152.774 44.0395 153.07 44.3278 153.105C44.6084 153.132 44.974 152.904 45.4246 152.419L47.6051 150.077C47.9903 149.663 48.1469 149.299 48.0749 148.985C47.9956 148.679 47.6431 148.236 47.0173 147.656C46.4619 147.141 45.8218 146.686 45.097 146.29L45.8384 145.494Z" fill="#1CB86D"/>
<path d="M34.6336 131.318L35.3787 132.493L34.7556 132.886C35.3241 132.666 35.9937 133.164 36.7644 134.38C37.3354 135.28 37.5967 135.991 37.5485 136.513C37.4855 137.031 37.0342 137.555 36.1945 138.084C35.4631 138.545 34.8592 138.699 34.3828 138.546C33.8973 138.398 33.3606 137.86 32.7725 136.933L31.5308 134.975L30.4879 135.632C30.1267 135.86 29.9543 136.126 29.9706 136.43C29.9812 136.726 30.1807 137.18 30.5689 137.792C30.9914 138.459 31.5194 139.172 32.153 139.932L31.2591 140.495C30.6126 139.655 30.061 138.875 29.6043 138.155C28.9078 137.056 28.5922 136.26 28.6575 135.765C28.7138 135.276 29.1618 134.766 30.0016 134.237L34.6336 131.318ZM34.1041 133.353L32.2892 134.497L33.4796 136.374C33.8336 136.932 34.1285 137.238 34.3643 137.291C34.5944 137.335 34.9668 137.195 35.4815 136.87C35.951 136.574 36.2349 136.295 36.3332 136.031C36.4257 135.759 36.3207 135.384 36.0181 134.907L35.864 134.664C35.7155 134.429 35.5883 134.239 35.4822 134.091C35.3704 133.935 35.2336 133.769 35.0719 133.594C34.9011 133.424 34.7392 133.318 34.5861 133.276C34.4183 133.231 34.2576 133.256 34.1041 133.353Z" fill="#1CB86D"/>
<path d="M20.5516 115.552L21.4634 118.433L27.8508 116.43L28.285 117.802L21.8976 119.804L22.8143 122.7L21.8058 123.016L19.5431 115.868L20.5516 115.552Z" fill="#1CB86D"/>
<path d="M24.6324 100.928L24.7035 102.797L16.9572 103.076L16.9055 101.718L23.1634 101.493L16.7596 97.8846L16.6884 96.0157L24.4348 95.7367L24.4865 97.0944L18.0845 97.325L24.6324 100.928Z" fill="#1CB86D"/>
<path d="M26.6164 77.1805C26.6009 77.8996 26.4847 78.7209 26.2677 79.6443C26.1605 80.1009 26.066 80.4564 25.9842 80.7109C25.9153 80.9574 25.8003 81.237 25.6392 81.5494C25.4701 81.849 25.2817 82.0674 25.074 82.2046C24.8688 82.3315 24.5957 82.4204 24.2547 82.4715C23.9033 82.5201 23.4939 82.4893 23.0263 82.3791L20.2521 81.7253C19.8365 81.6273 19.4866 81.5065 19.2023 81.3629C18.9205 81.2089 18.7056 81.0268 18.5576 80.8167C18.4096 80.6067 18.2991 80.3999 18.2263 80.1966C18.1534 79.9933 18.1316 79.7363 18.1607 79.4256C18.1819 79.1021 18.2141 78.825 18.2574 78.5942C18.2927 78.3507 18.3566 78.0318 18.4493 77.6375C18.6175 76.9216 18.8636 76.224 19.1877 75.5448L20.2164 75.7872C19.8184 76.5476 19.5329 77.2961 19.3598 78.0328C19.172 78.8317 19.1345 79.3649 19.2471 79.6323C19.3621 79.8894 19.7418 80.0939 20.386 80.2457L23.503 80.9803C24.0537 81.11 24.4478 81.066 24.6854 80.8483C24.9126 80.6281 25.1237 80.1029 25.3188 79.2729C25.4919 78.5362 25.5711 77.7555 25.5566 76.9308L26.6164 77.1805Z" fill="#1CB86D"/>
<path d="M32.2878 62.5788L30.6023 65.8124L23.7296 62.2369L24.4097 60.9322L26.8946 62.2249L27.9591 60.1827C28.3977 59.3412 28.815 58.783 29.2109 58.5082C29.6069 58.2335 30.0983 58.2488 30.6852 58.5541L32.1052 59.2928C33.0992 59.8099 33.1601 60.9053 32.2878 62.5788ZM31.2843 60.4522L30.4181 60.0016C30.0205 59.7948 29.7111 59.742 29.4898 59.8432C29.2641 59.9301 29.0083 60.2477 28.7224 60.7961L27.7392 62.6824L30.4514 64.0933L31.4198 62.2354C31.5085 62.0652 31.5777 61.921 31.6274 61.8026C31.6725 61.6698 31.718 61.5132 31.764 61.3328C31.8004 61.1474 31.7793 60.9802 31.7006 60.8311C31.6124 60.677 31.4736 60.5507 31.2843 60.4522Z" fill="#1CB86D"/>
</g>
</svg>
