<svg width="523" height="150" viewBox="0 0 523 150" fill="none" xmlns="http://www.w3.org/2000/svg">
<g filter="url(#filter0_f)">
<path d="M88.4469 65.8V92.2C88.4469 99.5333 86.1802 104.5 81.6469 107.1C77.1135 109.7 69.1469 111 57.7469 111H30.0469V46.1H57.6469C68.6469 46.1 76.5135 47.4667 81.2469 50.2C86.0469 52.9333 88.4469 58.1333 88.4469 65.8ZM72.8469 92.2V65.5C72.8469 62.3667 71.5802 60.2 69.0469 59C66.5135 57.8 62.6802 57.2 57.5469 57.2H45.6469V99.9H57.0469C63.0469 99.9 67.1802 99.4667 69.4469 98.6C71.7135 97.6667 72.8469 95.5333 72.8469 92.2ZM145.143 90.7H113.743V95.1C113.743 97.8333 114.71 99.8333 116.643 101.1C118.576 102.3 122.21 102.9 127.543 102.9C132.343 102.9 137.743 102.2 143.743 100.8V110.1C137.61 111.367 131.276 112 124.743 112C107.61 112 99.043 106.767 99.043 96.3V78.9C99.043 72.7 101.043 68.2667 105.043 65.6C109.043 62.9333 115.01 61.6 122.943 61.6C130.41 61.6 135.976 62.8667 139.643 65.4C143.31 67.9333 145.143 72.4333 145.143 78.9V90.7ZM131.243 82.4V75.4C131.243 73.8667 130.61 72.7 129.343 71.9C128.143 71.0333 125.943 70.6 122.743 70.6C119.21 70.6 116.81 71.0333 115.543 71.9C114.343 72.7 113.743 73.8667 113.743 75.4V82.4H131.243ZM200.902 62.6L183.102 111H168.302L149.902 62.6H165.402L176.002 96.1L186.202 62.6H200.902ZM261.626 46.1V93.3C261.626 100.3 259.726 105.167 255.926 107.9C252.126 110.633 246.592 112 239.326 112C234.992 112 230.492 111.667 225.826 111V99.6C230.759 100.467 234.859 100.9 238.126 100.9C243.392 100.9 246.026 98.5333 246.026 93.8V46.1H261.626ZM321.557 111H307.157V105.1C306.024 109.7 300.857 112 291.657 112C285.257 112 280.857 110.867 278.457 108.6C276.057 106.267 274.857 102.767 274.857 98.1V62.6H289.457V96.1C289.457 98.7667 289.89 100.567 290.757 101.5C291.69 102.433 293.857 102.9 297.257 102.9C301.457 102.9 304.124 102.467 305.257 101.6C306.39 100.667 306.957 98.8333 306.957 96.1V62.6H321.557V111ZM381.03 111H366.43V77.4C366.43 74.7333 365.963 72.9333 365.03 72C364.163 71.0667 362.03 70.6 358.63 70.6C354.43 70.6 351.763 71.0667 350.63 72C349.496 72.8667 348.93 74.6667 348.93 77.4V111H334.33V62.6H348.73V68.5C349.863 63.9 355.03 61.6 364.23 61.6C370.63 61.6 375.03 62.7667 377.43 65.1C379.83 67.3667 381.03 70.8333 381.03 75.5V111ZM408.802 56.9H394.202V45.1H408.802V56.9ZM408.802 111H394.202V62.6H408.802V111ZM469.825 80.1V94.4C469.825 97.5333 469.325 100.233 468.325 102.5C467.325 104.7 466.092 106.433 464.625 107.7C463.158 108.9 461.225 109.833 458.825 110.5C456.492 111.167 454.325 111.567 452.325 111.7C450.392 111.9 448.025 112 445.225 112C442.425 112 440.025 111.9 438.025 111.7C436.092 111.567 433.925 111.167 431.525 110.5C429.192 109.833 427.292 108.9 425.825 107.7C424.358 106.433 423.125 104.7 422.125 102.5C421.125 100.233 420.625 97.5333 420.625 94.4V80.1C420.625 76.7667 421.125 73.9333 422.125 71.6C423.192 69.2 424.458 67.3667 425.925 66.1C427.458 64.8333 429.425 63.8667 431.825 63.2C434.225 62.4667 436.358 62.0333 438.225 61.9C440.158 61.7 442.492 61.6 445.225 61.6C447.958 61.6 450.258 61.7 452.125 61.9C454.058 62.0333 456.225 62.4667 458.625 63.2C461.025 63.8667 462.958 64.8333 464.425 66.1C465.958 67.3667 467.225 69.2 468.225 71.6C469.292 73.9333 469.825 76.7667 469.825 80.1ZM455.225 96.1V77.8C455.225 75.2 454.558 73.3667 453.225 72.3C451.892 71.1667 449.225 70.6 445.225 70.6C441.225 70.6 438.558 71.1667 437.225 72.3C435.892 73.3667 435.225 75.2 435.225 77.8V96.1C435.225 98.6333 435.858 100.4 437.125 101.4C438.458 102.4 441.158 102.9 445.225 102.9C449.292 102.9 451.958 102.4 453.225 101.4C454.558 100.4 455.225 98.6333 455.225 96.1ZM512.905 73.7H507.905C503.905 73.7 500.871 74.3333 498.805 75.6C496.805 76.8 495.805 78.9 495.805 81.9V111H481.205V62.6H495.105V71.1C495.171 68.7 496.538 66.5333 499.205 64.6C501.938 62.6 504.771 61.6 507.705 61.6H512.905V73.7Z" fill="url(#paint0_linear)"/>
</g>
<path d="M88.4469 65.8V92.2C88.4469 99.5333 86.1802 104.5 81.6469 107.1C77.1135 109.7 69.1469 111 57.7469 111H30.0469V46.1H57.6469C68.6469 46.1 76.5135 47.4667 81.2469 50.2C86.0469 52.9333 88.4469 58.1333 88.4469 65.8ZM72.8469 92.2V65.5C72.8469 62.3667 71.5802 60.2 69.0469 59C66.5135 57.8 62.6802 57.2 57.5469 57.2H45.6469V99.9H57.0469C63.0469 99.9 67.1802 99.4667 69.4469 98.6C71.7135 97.6667 72.8469 95.5333 72.8469 92.2ZM145.143 90.7H113.743V95.1C113.743 97.8333 114.71 99.8333 116.643 101.1C118.576 102.3 122.21 102.9 127.543 102.9C132.343 102.9 137.743 102.2 143.743 100.8V110.1C137.61 111.367 131.276 112 124.743 112C107.61 112 99.043 106.767 99.043 96.3V78.9C99.043 72.7 101.043 68.2667 105.043 65.6C109.043 62.9333 115.01 61.6 122.943 61.6C130.41 61.6 135.976 62.8667 139.643 65.4C143.31 67.9333 145.143 72.4333 145.143 78.9V90.7ZM131.243 82.4V75.4C131.243 73.8667 130.61 72.7 129.343 71.9C128.143 71.0333 125.943 70.6 122.743 70.6C119.21 70.6 116.81 71.0333 115.543 71.9C114.343 72.7 113.743 73.8667 113.743 75.4V82.4H131.243ZM200.902 62.6L183.102 111H168.302L149.902 62.6H165.402L176.002 96.1L186.202 62.6H200.902ZM261.626 46.1V93.3C261.626 100.3 259.726 105.167 255.926 107.9C252.126 110.633 246.592 112 239.326 112C234.992 112 230.492 111.667 225.826 111V99.6C230.759 100.467 234.859 100.9 238.126 100.9C243.392 100.9 246.026 98.5333 246.026 93.8V46.1H261.626ZM321.557 111H307.157V105.1C306.024 109.7 300.857 112 291.657 112C285.257 112 280.857 110.867 278.457 108.6C276.057 106.267 274.857 102.767 274.857 98.1V62.6H289.457V96.1C289.457 98.7667 289.89 100.567 290.757 101.5C291.69 102.433 293.857 102.9 297.257 102.9C301.457 102.9 304.124 102.467 305.257 101.6C306.39 100.667 306.957 98.8333 306.957 96.1V62.6H321.557V111ZM381.03 111H366.43V77.4C366.43 74.7333 365.963 72.9333 365.03 72C364.163 71.0667 362.03 70.6 358.63 70.6C354.43 70.6 351.763 71.0667 350.63 72C349.496 72.8667 348.93 74.6667 348.93 77.4V111H334.33V62.6H348.73V68.5C349.863 63.9 355.03 61.6 364.23 61.6C370.63 61.6 375.03 62.7667 377.43 65.1C379.83 67.3667 381.03 70.8333 381.03 75.5V111ZM408.802 56.9H394.202V45.1H408.802V56.9ZM408.802 111H394.202V62.6H408.802V111ZM469.825 80.1V94.4C469.825 97.5333 469.325 100.233 468.325 102.5C467.325 104.7 466.092 106.433 464.625 107.7C463.158 108.9 461.225 109.833 458.825 110.5C456.492 111.167 454.325 111.567 452.325 111.7C450.392 111.9 448.025 112 445.225 112C442.425 112 440.025 111.9 438.025 111.7C436.092 111.567 433.925 111.167 431.525 110.5C429.192 109.833 427.292 108.9 425.825 107.7C424.358 106.433 423.125 104.7 422.125 102.5C421.125 100.233 420.625 97.5333 420.625 94.4V80.1C420.625 76.7667 421.125 73.9333 422.125 71.6C423.192 69.2 424.458 67.3667 425.925 66.1C427.458 64.8333 429.425 63.8667 431.825 63.2C434.225 62.4667 436.358 62.0333 438.225 61.9C440.158 61.7 442.492 61.6 445.225 61.6C447.958 61.6 450.258 61.7 452.125 61.9C454.058 62.0333 456.225 62.4667 458.625 63.2C461.025 63.8667 462.958 64.8333 464.425 66.1C465.958 67.3667 467.225 69.2 468.225 71.6C469.292 73.9333 469.825 76.7667 469.825 80.1ZM455.225 96.1V77.8C455.225 75.2 454.558 73.3667 453.225 72.3C451.892 71.1667 449.225 70.6 445.225 70.6C441.225 70.6 438.558 71.1667 437.225 72.3C435.892 73.3667 435.225 75.2 435.225 77.8V96.1C435.225 98.6333 435.858 100.4 437.125 101.4C438.458 102.4 441.158 102.9 445.225 102.9C449.292 102.9 451.958 102.4 453.225 101.4C454.558 100.4 455.225 98.6333 455.225 96.1ZM512.905 73.7H507.905C503.905 73.7 500.871 74.3333 498.805 75.6C496.805 76.8 495.805 78.9 495.805 81.9V111H481.205V62.6H495.105V71.1C495.171 68.7 496.538 66.5333 499.205 64.6C501.938 62.6 504.771 61.6 507.705 61.6H512.905V73.7Z" fill="url(#paint1_linear)"/>
<defs>
<filter id="filter0_f" x="20.0469" y="35.0996" width="502.858" height="86.9" filterUnits="userSpaceOnUse" color-interpolation-filters="sRGB">
<feFlood flood-opacity="0" result="BackgroundImageFix"/>
<feBlend mode="normal" in="SourceGraphic" in2="BackgroundImageFix" result="shape"/>
<feGaussianBlur stdDeviation="5" result="effect1_foregroundBlur"/>
</filter>
<linearGradient id="paint0_linear" x1="-2.87779e-06" y1="75" x2="515" y2="75" gradientUnits="userSpaceOnUse">
<stop stop-color="#1CB86D"/>
<stop offset="1" stop-color="#00B6EF"/>
</linearGradient>
<linearGradient id="paint1_linear" x1="-2.87779e-06" y1="75" x2="515" y2="75" gradientUnits="userSpaceOnUse">
<stop stop-color="#1CB86D"/>
<stop offset="1" stop-color="#00B6EF"/>
</linearGradient>
</defs>
</svg>
