<svg width="27" height="27" viewBox="0 0 27 27" fill="none" xmlns="http://www.w3.org/2000/svg">
<path d="M1.6875 24.4688V2.53126C1.6875 2.06525 2.06524 1.68751 2.53125 1.68751H15.1875V5.06251C15.1875 5.99449 15.943 6.75001 16.875 6.75001H20.25V9.28126H21.9375V5.90626C21.9388 5.68198 21.8507 5.46641 21.6928 5.3072L16.6303 0.244701C16.4711 0.0867615 16.2555 -0.00125216 16.0312 1.3463e-05H2.53125C1.13326 1.3463e-05 0 1.13333 0 2.53126V24.4688C0 25.8668 1.13326 27 2.53125 27H8.4375V25.3125H2.53125C2.06529 25.3125 1.6875 24.9348 1.6875 24.4688Z" fill="#BF3783"/>
<path d="M10.125 13.5002H6.75C6.28399 13.5002 5.90625 13.8779 5.90625 14.3439V21.0939C5.90625 21.5599 6.28399 21.9377 6.75 21.9377H10.125C11.057 21.9377 11.8125 21.1822 11.8125 20.2502V15.1877C11.8125 14.2557 11.057 13.5002 10.125 13.5002ZM10.125 20.2502H7.59375V15.1877H10.125V20.2502Z" fill="#BF3783"/>
<path d="M16.0312 13.5002C14.1673 13.5002 12.6562 15.0112 12.6562 16.8752V18.5627C12.6562 20.4266 14.1673 21.9377 16.0312 21.9377C17.8952 21.9377 19.4062 20.4266 19.4062 18.5627V16.8752C19.4062 15.0112 17.8952 13.5002 16.0312 13.5002ZM17.7188 18.5627C17.7188 19.4947 16.9632 20.2502 16.0312 20.2502C15.0993 20.2502 14.3438 19.4947 14.3438 18.5627V16.8752C14.3438 15.9432 15.0993 15.1877 16.0312 15.1877C16.9632 15.1877 17.7188 15.9432 17.7188 16.8752V18.5627Z" fill="#BF3783"/>
<path d="M23.625 20.2502C22.693 20.2502 21.9375 19.4947 21.9375 18.5627V16.8752C21.9375 15.9432 22.693 15.1877 23.625 15.1877C24.557 15.1877 25.3125 15.9432 25.3125 16.8752H27C27 15.0112 25.4889 13.5002 23.625 13.5002C21.7611 13.5002 20.25 15.0112 20.25 16.8752V18.5627C20.25 20.4266 21.7611 21.9377 23.625 21.9377C25.4889 21.9377 27 20.4266 27 18.5627H25.3125C25.3125 19.4947 24.557 20.2502 23.625 20.2502Z" fill="#BF3783"/>
</svg>
