<svg width="246" height="58" viewBox="0 0 246 58" fill="none" xmlns="http://www.w3.org/2000/svg">
<path d="M28.66 30.82V31.82H29.66V30.82H28.66ZM9.82 30.82V29.82H8.82V30.82H9.82ZM11.56 37.06L11.012 37.8965L11.0222 37.9032L11.0326 37.9096L11.56 37.06ZM27.82 36.88H28.82V35.6198L27.5928 35.9062L27.82 36.88ZM27.82 42.46L28.0223 43.4393L28.82 43.2746V42.46H27.82ZM4.6 15.76L5.1547 16.592H5.1547L4.6 15.76ZM25.36 15.64L25.9284 14.8173L25.36 15.64ZM20.32 25.84V26.84H21.32V25.84H20.32ZM19.18 19.54L18.5945 20.3507L18.6197 20.3689L18.646 20.3855L19.18 19.54ZM10.9 19.54L11.4547 20.3721L11.4647 20.3653L10.9 19.54ZM9.82 25.84H8.82V26.84H9.82V25.84ZM28.66 29.82H9.82V31.82H28.66V29.82ZM8.82 30.82V33.46H10.82V30.82H8.82ZM8.82 33.46C8.82 35.3659 9.51508 36.9157 11.012 37.8965L12.108 36.2235C11.2849 35.6843 10.82 34.8341 10.82 33.46H8.82ZM11.0326 37.9096C11.7717 38.3683 12.753 38.6669 13.9021 38.8566C15.0639 39.0485 16.4673 39.14 18.1 39.14V37.14C16.5327 37.14 15.2461 37.0515 14.2279 36.8834C13.197 36.7131 12.5083 36.4717 12.0874 36.2104L11.0326 37.9096ZM18.1 39.14C21.0745 39.14 24.3926 38.7066 28.0472 37.8538L27.5928 35.9062C24.0474 36.7334 20.8855 37.14 18.1 37.14V39.14ZM26.82 36.88V42.46H28.82V36.88H26.82ZM27.6177 41.4807C24.0071 42.2263 20.275 42.6 16.42 42.6V44.6C20.405 44.6 24.2729 44.2137 28.0223 43.4393L27.6177 41.4807ZM16.42 42.6C11.3493 42.6 7.71405 41.8197 5.37632 40.3916C3.11876 39.0125 2 36.9897 2 34.18H0C0 37.6503 1.45124 40.3375 4.33368 42.0984C7.13595 43.8102 11.2107 44.6 16.42 44.6V42.6ZM2 34.18V23.74H0V34.18H2ZM2 23.74C2 20.2457 3.11253 17.9535 5.1547 16.592L4.0453 14.9279C1.28747 16.7665 0 19.7943 0 23.74H2ZM5.1547 16.592C7.31508 15.1518 10.6616 14.36 15.34 14.36V12.36C10.4984 12.36 6.68492 13.1682 4.0453 14.9279L5.1547 16.592ZM15.34 14.36C19.7403 14.36 22.8375 15.1126 24.7916 16.4627L25.9284 14.8173C23.4825 13.1274 19.8997 12.36 15.34 12.36V14.36ZM24.7916 16.4627C26.6132 17.7213 27.66 20.0305 27.66 23.74H29.66C29.66 19.6895 28.5068 16.5987 25.9284 14.8173L24.7916 16.4627ZM27.66 23.74V30.82H29.66V23.74H27.66ZM21.32 25.84V21.64H19.32V25.84H21.32ZM21.32 21.64C21.32 20.3867 20.7723 19.3629 19.714 18.6945L18.646 20.3855C19.1077 20.6771 19.32 21.0533 19.32 21.64H21.32ZM19.7655 18.7293C19.2441 18.3528 18.5787 18.1187 17.8433 17.9739C17.099 17.8273 16.2199 17.76 15.22 17.76V19.76C16.1401 19.76 16.881 19.8227 17.4567 19.9361C18.0413 20.0513 18.3959 20.2072 18.5945 20.3507L19.7655 18.7293ZM15.22 17.76C14.1244 17.76 13.1706 17.8268 12.3723 17.9709C11.5862 18.1129 10.8802 18.3419 10.3353 18.7147L11.4647 20.3653C11.6798 20.2181 12.0738 20.0571 12.7277 19.9391C13.3694 19.8232 14.1956 19.76 15.22 19.76V17.76ZM10.3453 18.7079C9.3268 19.387 8.82 20.4108 8.82 21.64H10.82C10.82 21.0292 11.0332 20.653 11.4547 20.372L10.3453 18.7079ZM8.82 21.64V25.84H10.82V21.64H8.82ZM9.82 26.84H20.32V24.84H9.82V26.84ZM63.3756 43V44H64.3756V43H63.3756ZM54.6156 43H53.6156V44H54.6156V43ZM53.7756 19.6L53.0428 20.2804L53.0554 20.294L53.0685 20.3071L53.7756 19.6ZM45.1356 19.6L45.7431 20.3944L45.7574 20.3834L45.7713 20.3719L45.1356 19.6ZM44.1156 43V44H45.1156V43H44.1156ZM35.3556 43H34.3556V44H35.3556V43ZM35.3556 13.96V12.96H34.3556V13.96H35.3556ZM43.9956 13.96H44.9956V12.96H43.9956V13.96ZM43.9956 17.5H42.9956L44.9666 17.7392L43.9956 17.5ZM61.2156 15.46L60.5185 16.177L60.5237 16.182L60.529 16.187L61.2156 15.46ZM63.3756 42H54.6156V44H63.3756V42ZM55.6156 43V22.84H53.6156V43H55.6156ZM55.6156 22.84C55.6156 21.2084 55.3479 19.7581 54.4827 18.8929L53.0685 20.3071C53.3233 20.5619 53.6156 21.2716 53.6156 22.84H55.6156ZM54.5084 18.9195C54.0418 18.417 53.3516 18.1489 52.6393 17.9931C51.9016 17.8317 50.9925 17.76 49.9356 17.76V19.76C50.9188 19.76 51.6696 19.8283 52.2119 19.9469C52.7796 20.0711 52.9894 20.223 53.0428 20.2804L54.5084 18.9195ZM49.9356 17.76C48.6457 17.76 47.5522 17.8311 46.6732 17.985C45.8246 18.1335 45.0441 18.3799 44.4999 18.8281L45.7713 20.3719C45.9072 20.2601 46.2666 20.0865 47.018 19.955C47.739 19.8289 48.7056 19.76 49.9356 19.76V17.76ZM44.5282 18.8056C43.4478 19.6318 43.1156 21.1522 43.1156 22.84H45.1156C45.1156 21.2478 45.4634 20.6082 45.7431 20.3944L44.5282 18.8056ZM43.1156 22.84V43H45.1156V22.84H43.1156ZM44.1156 42H35.3556V44H44.1156V42ZM36.3556 43V13.96H34.3556V43H36.3556ZM35.3556 14.96H43.9956V12.96H35.3556V14.96ZM42.9956 13.96V17.5H44.9956V13.96H42.9956ZM44.9666 17.7392C45.2181 16.7186 45.9083 15.9002 47.2373 15.3086C48.6038 14.7003 50.5985 14.36 53.2956 14.36V12.36C50.4728 12.36 48.1575 12.7097 46.4239 13.4814C44.653 14.2698 43.4532 15.5214 43.0247 17.2608L44.9666 17.7392ZM53.2956 14.36C57.0851 14.36 59.3751 15.0653 60.5185 16.177L61.9127 14.743C60.1762 13.0547 57.1861 12.36 53.2956 12.36V14.36ZM60.529 16.187C61.6979 17.2909 62.3756 19.059 62.3756 21.7H64.3756C64.3756 18.741 63.6134 16.3491 61.9023 14.733L60.529 16.187ZM62.3756 21.7V43H64.3756V21.7H62.3756ZM99.8392 13.96H100.839V12.96H99.8392V13.96ZM95.4592 53.56L94.943 52.7035L94.9378 52.7067L95.4592 53.56ZM72.2992 55.78H71.2992V56.6718L72.1852 56.7735L72.2992 55.78ZM72.2992 49.9L72.4307 48.9087L71.2992 48.7586V49.9H72.2992ZM89.0992 49.24L88.5274 48.4196L88.5131 48.4296L88.4992 48.44L89.0992 49.24ZM91.0792 39.76H92.0792V36.4938L90.2506 39.2001L91.0792 39.76ZM87.8392 42.82L88.2483 43.7325L88.2612 43.7267L88.274 43.7206L87.8392 42.82ZM72.8392 41.74L72.2632 42.5575L72.2719 42.5635L72.8392 41.74ZM72.6592 15.52L73.3085 16.2806L73.319 16.2714L72.6592 15.52ZM86.9992 13.78L86.7567 14.7501L86.7731 14.7542L86.7897 14.7578L86.9992 13.78ZM89.5192 14.92L88.8388 15.6528L88.8533 15.6663L88.8684 15.6793L89.5192 14.92ZM91.3792 17.26L90.533 17.7928L92.3792 20.7251V17.26H91.3792ZM91.3792 13.96V12.96H90.3792V13.96H91.3792ZM89.8792 19.54L89.3342 20.3784L89.3493 20.3882L89.3647 20.3975L89.8792 19.54ZM79.9192 19.66L80.5777 20.4126L80.5906 20.4013L80.6032 20.3895L79.9192 19.66ZM89.8792 37.3L89.3058 36.4808L89.2958 36.4877L89.286 36.4949L89.8792 37.3ZM98.8392 13.96V44.56H100.839V13.96H98.8392ZM98.8392 44.56C98.8392 48.5483 97.4868 51.1703 94.943 52.7035L95.9754 54.4165C99.2716 52.4297 100.839 49.0517 100.839 44.56H98.8392ZM94.9378 52.7067C92.286 54.3272 88.2819 55.2 82.7992 55.2V57.2C88.4365 57.2 92.8724 56.3128 95.9807 54.4133L94.9378 52.7067ZM82.7992 55.2C78.251 55.2 74.796 55.06 72.4132 54.7865L72.1852 56.7735C74.6824 57.06 78.2275 57.2 82.7992 57.2V55.2ZM73.2992 55.78V49.9H71.2992V55.78H73.2992ZM72.1677 50.8913C76.1198 51.4156 79.665 51.68 82.7992 51.68V49.68C79.7735 49.68 76.3187 49.4244 72.4307 48.9087L72.1677 50.8913ZM82.7992 51.68C85.7796 51.68 88.1531 51.1996 89.6992 50.04L88.4992 48.44C87.4854 49.2004 85.6589 49.68 82.7992 49.68V51.68ZM89.671 50.0604C91.3605 48.8829 92.0792 46.9005 92.0792 44.44H90.0792C90.0792 46.5395 89.478 47.7571 88.5274 48.4196L89.671 50.0604ZM92.0792 44.44V39.76H90.0792V44.44H92.0792ZM90.2506 39.2001C89.313 40.5878 88.3555 41.4603 87.4045 41.9194L88.274 43.7206C89.6429 43.0597 90.8454 41.8922 91.9078 40.3199L90.2506 39.2001ZM87.4302 41.9075C86.4817 42.3327 84.6526 42.6 81.7792 42.6V44.6C84.6658 44.6 86.8767 44.3473 88.2483 43.7325L87.4302 41.9075ZM81.7792 42.6C77.6664 42.6 74.9461 41.9771 73.4065 40.9165L72.2719 42.5635C74.3324 43.9829 77.572 44.6 81.7792 44.6V42.6ZM73.4152 40.9225C72.0445 39.9568 71.1992 38.0628 71.1992 34.84H69.1992C69.1992 38.3372 70.1139 41.0432 72.2633 42.5575L73.4152 40.9225ZM71.1992 34.84V23.5H69.1992V34.84H71.1992ZM71.1992 23.5C71.1992 19.6497 72.0178 17.3824 73.3085 16.2806L72.01 14.7594C70.0206 16.4576 69.1992 19.5103 69.1992 23.5H71.1992ZM73.319 16.2714C73.9668 15.7026 74.9936 15.2153 76.495 14.8753C77.9883 14.5372 79.8836 14.36 82.1992 14.36V12.36C79.7949 12.36 77.7402 12.5428 76.0534 12.9247C74.3748 13.3047 72.9916 13.8974 71.9994 14.7686L73.319 16.2714ZM82.1992 14.36C84.2515 14.36 85.7553 14.4998 86.7567 14.7501L87.2418 12.8099C86.0031 12.5002 84.3069 12.36 82.1992 12.36V14.36ZM86.7897 14.7578C87.8151 14.9775 88.4609 15.3019 88.8388 15.6528L90.1997 14.1872C89.4576 13.4981 88.4233 13.0625 87.2087 12.8022L86.7897 14.7578ZM88.8684 15.6793C89.3164 16.0633 89.8735 16.7454 90.533 17.7928L92.2255 16.7272C91.525 15.6146 90.842 14.7367 90.17 14.1607L88.8684 15.6793ZM92.3792 17.26V13.96H90.3792V17.26H92.3792ZM91.3792 14.96H99.8392V12.96H91.3792V14.96ZM92.0792 34.3V22.6H90.0792V34.3H92.0792ZM92.0792 22.6C92.0792 20.9318 91.657 19.4405 90.3937 18.6825L89.3647 20.3975C89.7015 20.5995 90.0792 21.1482 90.0792 22.6H92.0792ZM90.4242 18.7016C89.8351 18.3186 89.0004 18.1 88.0556 17.965C87.0808 17.8258 85.864 17.76 84.4192 17.76V19.76C85.8144 19.76 86.9276 19.8242 87.7728 19.945C88.648 20.07 89.1233 20.2414 89.3342 20.3784L90.4242 18.7016ZM84.4192 17.76C83.2047 17.76 82.1675 17.8365 81.3281 18.0044C80.5143 18.1672 79.7587 18.4397 79.2353 18.9305L80.6032 20.3895C80.7197 20.2803 81.0342 20.1028 81.7203 19.9656C82.381 19.8335 83.2737 19.76 84.4192 19.76V17.76ZM79.2607 18.9074C78.2753 19.7697 77.9592 21.2436 77.9592 22.9H79.9592C79.9592 21.3564 80.2832 20.6703 80.5777 20.4126L79.2607 18.9074ZM77.9592 22.9V34H79.9592V22.9H77.9592ZM77.9592 34C77.9592 34.9132 78.0432 35.7239 78.2377 36.4047C78.4316 37.0834 78.7562 37.7035 79.2886 38.1361L80.5498 36.5839C80.4423 36.4965 80.2868 36.2966 80.1607 35.8553C80.0353 35.4161 79.9592 34.8069 79.9592 34H77.9592ZM79.2886 38.1361C79.8273 38.5738 80.6315 38.7986 81.4895 38.933C82.3915 39.0742 83.534 39.14 84.8992 39.14V37.14C83.5844 37.14 82.5569 37.0758 81.799 36.957C80.997 36.8314 80.6511 36.6662 80.5498 36.5839L79.2886 38.1361ZM84.8992 39.14C86.2094 39.14 87.3251 39.0688 88.2305 38.9161C89.1119 38.7674 89.9028 38.5248 90.4724 38.1051L89.286 36.4949C89.0956 36.6352 88.6765 36.8126 87.8979 36.9439C87.1433 37.0712 86.149 37.14 84.8992 37.14V39.14ZM90.4527 38.1192C91.6307 37.2946 92.0792 35.9027 92.0792 34.3H90.0792C90.0792 35.5773 89.7278 36.1854 89.3058 36.4808L90.4527 38.1192ZM116.543 43V44H117.543V43H116.543ZM107.783 43H106.783V44H107.783V43ZM107.783 0.999996V-3.8147e-06H106.783V0.999996H107.783ZM116.543 0.999996H117.543V-3.8147e-06H116.543V0.999996ZM116.543 42H107.783V44H116.543V42ZM108.783 43V0.999996H106.783V43H108.783ZM107.783 2H116.543V-3.8147e-06H107.783V2ZM115.543 0.999996V43H117.543V0.999996H115.543ZM133.477 10.54V11.54H134.477V10.54H133.477ZM124.717 10.54H123.717V11.54H124.717V10.54ZM124.717 3.46V2.46H123.717V3.46H124.717ZM133.477 3.46H134.477V2.46H133.477V3.46ZM133.477 43V44H134.477V43H133.477ZM124.717 43H123.717V44H124.717V43ZM124.717 13.96V12.96H123.717V13.96H124.717ZM133.477 13.96H134.477V12.96H133.477V13.96ZM133.477 9.54H124.717V11.54H133.477V9.54ZM125.717 10.54V3.46H123.717V10.54H125.717ZM124.717 4.46H133.477V2.46H124.717V4.46ZM132.477 3.46V10.54H134.477V3.46H132.477ZM133.477 42H124.717V44H133.477V42ZM125.717 43V13.96H123.717V43H125.717ZM124.717 14.96H133.477V12.96H124.717V14.96ZM132.477 13.96V43H134.477V13.96H132.477ZM165.59 39.04L164.71 38.5659L164.703 38.5792L164.696 38.5928L165.59 39.04ZM163.55 41.5L164.124 42.3193L164.132 42.3137L163.55 41.5ZM160.37 42.82L160.606 43.7918L160.37 42.82ZM156.53 43.42L156.466 42.4221L156.448 42.4232L156.431 42.425L156.53 43.42ZM140.81 42.7H139.81V43.575L140.678 43.6911L140.81 42.7ZM140.81 36.88L140.96 35.8912L139.81 35.7176V36.88H140.81ZM156.35 37.66L156.679 38.6045L156.69 38.6005L156.701 38.5963L156.35 37.66ZM157.01 31.78L156.332 32.5148L156.348 32.5294L156.364 32.5434L157.01 31.78ZM142.73 29.26L142.136 30.0646L142.147 30.0725L142.158 30.0801L142.73 29.26ZM143.99 14.86L144.359 15.7895L143.99 14.86ZM164.99 13.9H165.99V12.9699L165.063 12.9026L164.99 13.9ZM164.99 19.48L164.914 20.4771L165.99 20.5599V19.48H164.99ZM149.81 19.3L150.258 20.1944L150.279 20.1835L150.301 20.1716L149.81 19.3ZM149.57 24.1L148.93 24.8682L148.945 24.8807L148.961 24.8926L149.57 24.1ZM165.43 31.66V35.32H167.43V31.66H165.43ZM165.43 35.32C165.43 36.6304 165.176 37.7002 164.71 38.5659L166.471 39.5141C167.125 38.2997 167.43 36.8896 167.43 35.32H165.43ZM164.696 38.5928C164.239 39.5056 163.66 40.1925 162.969 40.6863L164.132 42.3137C165.12 41.6075 165.901 40.6544 166.485 39.4872L164.696 38.5928ZM162.977 40.6808C162.31 41.1473 161.378 41.5469 160.135 41.8482L160.606 43.7918C162.003 43.4531 163.19 42.9727 164.124 42.3192L162.977 40.6808ZM160.135 41.8482C158.866 42.1558 157.643 42.3461 156.466 42.4221L156.595 44.4179C157.897 44.3339 159.235 44.1242 160.606 43.7918L160.135 41.8482ZM156.431 42.425C155.273 42.5407 153.888 42.6 152.27 42.6V44.6C153.933 44.6 155.387 44.5393 156.63 44.415L156.431 42.425ZM152.27 42.6C149.169 42.6 145.396 42.3052 140.943 41.7088L140.678 43.6911C145.185 44.2948 149.052 44.6 152.27 44.6V42.6ZM141.81 42.7V36.88H139.81V42.7H141.81ZM140.661 37.8688C146.216 38.7081 150.146 39.14 152.39 39.14V37.14C150.315 37.14 146.524 36.7319 140.96 35.8912L140.661 37.8688ZM152.39 39.14C154.15 39.14 155.602 38.9791 156.679 38.6045L156.022 36.7155C155.259 36.9809 154.07 37.14 152.39 37.14V39.14ZM156.701 38.5963C157.325 38.3624 157.867 37.9951 158.247 37.4567C158.629 36.9163 158.79 36.284 158.79 35.62H156.79C156.79 35.9559 156.712 36.1637 156.613 36.3033C156.513 36.4449 156.335 36.5976 155.999 36.7237L156.701 38.5963ZM158.79 35.62V33.82H156.79V35.62H158.79ZM158.79 33.82C158.79 32.7148 158.472 31.7073 157.656 31.0166L156.364 32.5434C156.588 32.7327 156.79 33.0852 156.79 33.82H158.79ZM157.689 31.0452C157.239 30.6303 156.628 30.3988 155.99 30.2622C155.336 30.1221 154.549 30.06 153.65 30.06V32.06C154.471 32.06 155.105 32.1179 155.571 32.2178C156.053 32.3212 156.262 32.4497 156.332 32.5148L157.689 31.0452ZM153.65 30.06H149.87V32.06H153.65V30.06ZM149.87 30.06C146.947 30.06 144.795 29.4809 143.302 28.4399L142.158 30.0801C144.106 31.4391 146.714 32.06 149.87 32.06V30.06ZM143.324 28.4554C141.936 27.4305 141.21 25.95 141.21 23.86H139.21C139.21 26.49 140.165 28.6095 142.136 30.0646L143.324 28.4554ZM141.21 23.86V20.32H139.21V23.86H141.21ZM141.21 20.32C141.21 19.1634 141.484 18.2568 141.978 17.5442C142.472 16.8296 143.241 16.2332 144.359 15.7895L143.621 13.9305C142.22 14.4868 141.098 15.3004 140.333 16.4058C139.566 17.5131 139.21 18.8366 139.21 20.32H141.21ZM144.359 15.7895C146.708 14.8576 150.121 14.36 154.67 14.36V12.36C150.02 12.36 146.313 12.8624 143.621 13.9305L144.359 15.7895ZM154.67 14.36C156.549 14.36 159.956 14.5372 164.918 14.8974L165.063 12.9026C160.105 12.5428 156.631 12.36 154.67 12.36V14.36ZM163.99 13.9V19.48H165.99V13.9H163.99ZM165.067 18.4829C158.856 18.0052 155.28 17.76 154.43 17.76V19.76C155.18 19.76 158.644 19.9948 164.914 20.4771L165.067 18.4829ZM154.43 17.76C153.191 17.76 152.153 17.8055 151.329 17.9018C150.541 17.9938 149.825 18.1443 149.32 18.4284L150.301 20.1716C150.436 20.0957 150.809 19.9762 151.561 19.8882C152.278 19.8045 153.23 19.76 154.43 19.76V17.76ZM149.363 18.4056C148.268 18.9533 147.85 20.0322 147.85 21.22H149.85C149.85 20.4878 150.073 20.2867 150.258 20.1944L149.363 18.4056ZM147.85 21.22V22.78H149.85V21.22H147.85ZM147.85 22.78C147.85 23.6411 148.296 24.3398 148.93 24.8682L150.21 23.3318C149.885 23.0602 149.85 22.8789 149.85 22.78H147.85ZM148.961 24.8926C149.731 25.4856 150.77 25.7 151.91 25.7V23.7C150.971 23.7 150.449 23.5144 150.18 23.3074L148.961 24.8926ZM151.91 25.7H155.75V23.7H151.91V25.7ZM155.75 25.7C159.234 25.7 161.673 26.2733 163.214 27.2778C164.682 28.2339 165.43 29.6411 165.43 31.66H167.43C167.43 29.0389 166.399 26.9661 164.306 25.6022C162.288 24.2867 159.387 23.7 155.75 23.7V25.7ZM200.954 43V44H201.954V43H200.954ZM192.194 43H191.194V44H192.194V43ZM191.354 19.54L190.647 20.2471L190.66 20.2602L190.673 20.2728L191.354 19.54ZM182.714 19.54L183.29 20.357L183.306 20.346L183.321 20.3344L182.714 19.54ZM181.694 43V44H182.694V43H181.694ZM172.934 43H171.934V44H172.934V43ZM172.934 0.999996V-3.8147e-06H171.934V0.999996H172.934ZM181.694 0.999996H182.694V-3.8147e-06H181.694V0.999996ZM181.694 17.5H180.694L182.674 17.6988L181.694 17.5ZM198.794 15.46L198.097 16.177L198.102 16.182L198.107 16.187L198.794 15.46ZM200.954 42H192.194V44H200.954V42ZM193.194 43V22.72H191.194V43H193.194ZM193.194 22.72C193.194 21.8694 193.12 21.1115 192.951 20.4696C192.782 19.8321 192.501 19.2405 192.034 18.8072L190.673 20.2728C190.767 20.3595 190.905 20.5579 191.017 20.9804C191.127 21.3985 191.194 21.9706 191.194 22.72H193.194ZM192.061 18.8329C191.591 18.3629 190.905 18.1176 190.203 17.975C189.472 17.8265 188.568 17.76 187.514 17.76V19.76C188.5 19.76 189.256 19.8235 189.805 19.935C190.383 20.0524 190.597 20.1971 190.647 20.2471L192.061 18.8329ZM187.514 17.76C186.226 17.76 185.137 17.826 184.263 17.9679C183.422 18.1047 182.649 18.331 182.106 18.7456L183.321 20.3344C183.459 20.229 183.826 20.0653 184.584 19.9421C185.31 19.824 186.281 19.76 187.514 19.76V17.76ZM182.137 18.723C181.02 19.5115 180.694 21.0463 180.694 22.72H182.694C182.694 21.1137 183.047 20.5285 183.29 20.357L182.137 18.723ZM180.694 22.72V43H182.694V22.72H180.694ZM181.694 42H172.934V44H181.694V42ZM173.934 43V0.999996H171.934V43H173.934ZM172.934 2H181.694V-3.8147e-06H172.934V2ZM180.694 0.999996V17.5H182.694V0.999996H180.694ZM182.674 17.6988C182.877 16.697 183.519 15.8932 184.82 15.3066C186.163 14.7009 188.154 14.36 190.874 14.36V12.36C188.033 12.36 185.715 12.7091 183.998 13.4834C182.238 14.2768 181.07 15.543 180.714 17.3012L182.674 17.6988ZM190.874 14.36C194.663 14.36 196.953 15.0653 198.097 16.177L199.491 14.743C197.754 13.0547 194.764 12.36 190.874 12.36V14.36ZM198.107 16.187C199.276 17.2909 199.954 19.059 199.954 21.7H201.954C201.954 18.741 201.192 16.3491 199.48 14.733L198.107 16.187ZM199.954 21.7V43H201.954V21.7H199.954ZM217.617 10.54V11.54H218.617V10.54H217.617ZM208.857 10.54H207.857V11.54H208.857V10.54ZM208.857 3.46V2.46H207.857V3.46H208.857ZM217.617 3.46H218.617V2.46H217.617V3.46ZM217.617 43V44H218.617V43H217.617ZM208.857 43H207.857V44H208.857V43ZM208.857 13.96V12.96H207.857V13.96H208.857ZM217.617 13.96H218.617V12.96H217.617V13.96ZM217.617 9.54H208.857V11.54H217.617V9.54ZM209.857 10.54V3.46H207.857V10.54H209.857ZM208.857 4.46H217.617V2.46H208.857V4.46ZM216.617 3.46V10.54H218.617V3.46H216.617ZM217.617 42H208.857V44H217.617V42ZM209.857 43V13.96H207.857V43H209.857ZM208.857 14.96H217.617V12.96H208.857V14.96ZM216.617 13.96V43H218.617V13.96H216.617ZM244.931 43.3L245.049 44.293L245.931 44.188V43.3H244.931ZM236.471 43.42L236.586 42.4266L236.568 42.4246L236.551 42.4232L236.471 43.42ZM233.291 42.76L232.944 43.6977L232.964 43.7053L232.985 43.712L233.291 42.76ZM230.591 41.26L229.906 41.9882L229.928 42.0089L229.951 42.0282L230.591 41.26ZM228.851 38.62L227.916 38.9747L227.923 38.9945L227.932 39.0139L228.851 38.62ZM228.191 19.36H229.191V18.36H228.191V19.36ZM222.311 19.36H221.311V20.36H222.311V19.36ZM222.311 13.96V12.96H221.311V13.96H222.311ZM228.191 13.96V14.96H229.191V13.96H228.191ZM228.191 5.56V4.56H227.191V5.56H228.191ZM236.951 5.56H237.951V4.56H236.951V5.56ZM236.951 13.96H235.951V14.96H236.951V13.96ZM244.931 13.96H245.931V12.96H244.931V13.96ZM244.931 19.36V20.36H245.931V19.36H244.931ZM236.951 19.36V18.36H235.951V19.36H236.951ZM237.851 37.12L237.083 37.7602L237.092 37.771L237.101 37.7816L237.851 37.12ZM244.931 37.84H245.931V36.687L244.79 36.8501L244.931 37.84ZM244.813 42.307C243.169 42.5027 241.588 42.6 240.071 42.6V44.6C241.674 44.6 243.333 44.4973 245.049 44.293L244.813 42.307ZM240.071 42.6C238.739 42.6 237.578 42.5411 236.586 42.4266L236.356 44.4134C237.444 44.5389 238.683 44.6 240.071 44.6V42.6ZM236.551 42.4232C235.639 42.3503 234.656 42.1483 233.597 41.808L232.985 43.712C234.166 44.0917 235.302 44.3297 236.391 44.4168L236.551 42.4232ZM233.638 41.8223C232.641 41.453 231.846 41.0046 231.231 40.4918L229.951 42.0282C230.775 42.7154 231.781 43.267 232.944 43.6977L233.638 41.8223ZM231.276 40.5318C230.722 40.01 230.212 39.2565 229.77 38.2261L227.932 39.0139C228.45 40.2235 229.1 41.23 229.906 41.9882L231.276 40.5318ZM229.786 38.2653C229.398 37.2436 229.191 36.0088 229.191 34.54H227.191C227.191 36.1912 227.423 37.6764 227.916 38.9747L229.786 38.2653ZM229.191 34.54V19.36H227.191V34.54H229.191ZM228.191 18.36H222.311V20.36H228.191V18.36ZM223.311 19.36V13.96H221.311V19.36H223.311ZM222.311 14.96H228.191V12.96H222.311V14.96ZM229.191 13.96V5.56H227.191V13.96H229.191ZM228.191 6.56H236.951V4.56H228.191V6.56ZM235.951 5.56V13.96H237.951V5.56H235.951ZM236.951 14.96H244.931V12.96H236.951V14.96ZM243.931 13.96V19.36H245.931V13.96H243.931ZM244.931 18.36H236.951V20.36H244.931V18.36ZM235.951 19.36V33.04H237.951V19.36H235.951ZM235.951 33.04C235.951 34.0839 236.029 35.0014 236.199 35.7754C236.368 36.5417 236.643 37.2321 237.083 37.7602L238.619 36.4798C238.459 36.2879 238.283 35.9383 238.152 35.3446C238.023 34.7586 237.951 33.9961 237.951 33.04H235.951ZM237.101 37.7816C237.585 38.3296 238.279 38.6571 239.042 38.8534C239.813 39.052 240.744 39.14 241.811 39.14V37.14C240.838 37.14 240.089 37.058 239.54 36.9166C238.983 36.7729 238.717 36.5904 238.601 36.4584L237.101 37.7816ZM241.811 39.14C242.566 39.14 243.664 39.0311 245.072 38.8299L244.79 36.8501C243.398 37.0489 242.416 37.14 241.811 37.14V39.14ZM243.931 37.84V43.3H245.931V37.84H243.931Z" fill="url(#paint0_linear)"/>
<defs>
<linearGradient id="paint0_linear" x1="-2" y1="22" x2="247" y2="22" gradientUnits="userSpaceOnUse">
<stop stop-color="#1CB86D"/>
<stop offset="1" stop-color="#00B6EF"/>
</linearGradient>
</defs>
</svg>
