<svg width="244" height="56" viewBox="0 0 244 56" fill="none" xmlns="http://www.w3.org/2000/svg">
<path d="M27.66 29.82H8.82V32.46C8.82 34.1 9.4 35.3 10.56 36.06C11.72 36.78 13.9 37.14 17.1 37.14C19.98 37.14 23.22 36.72 26.82 35.88V41.46C23.14 42.22 19.34 42.6 15.42 42.6C5.14 42.6 4.47035e-08 39.46 4.47035e-08 33.18V22.74C4.47035e-08 19.02 1.2 16.36 3.6 14.76C6 13.16 9.58 12.36 14.34 12.36C18.82 12.36 22.16 13.12 24.36 14.64C26.56 16.16 27.66 18.86 27.66 22.74V29.82ZM19.32 24.84V20.64C19.32 19.72 18.94 19.02 18.18 18.54C17.46 18.02 16.14 17.76 14.22 17.76C12.1 17.76 10.66 18.02 9.9 18.54C9.18 19.02 8.82 19.72 8.82 20.64V24.84H19.32ZM62.3756 42H53.6156V21.84C53.6156 20.24 53.3356 19.16 52.7756 18.6C52.2556 18.04 50.9756 17.76 48.9356 17.76C46.4156 17.76 44.8156 18.04 44.1356 18.6C43.4556 19.12 43.1156 20.2 43.1156 21.84V42H34.3556V12.96H42.9956V16.5C43.6756 13.74 46.7756 12.36 52.2956 12.36C56.1356 12.36 58.7756 13.06 60.2156 14.46C61.6556 15.82 62.3756 17.9 62.3756 20.7V42ZM98.8392 12.96V43.56C98.8392 47.8 97.3792 50.8 94.4592 52.56C91.5792 54.32 87.3592 55.2 81.7992 55.2C77.2392 55.2 73.7392 55.06 71.2992 54.78V48.9C75.2192 49.42 78.7192 49.68 81.7992 49.68C84.7192 49.68 86.8192 49.2 88.0992 48.24C89.4192 47.32 90.0792 45.72 90.0792 43.44V38.76C89.0792 40.24 87.9992 41.26 86.8392 41.82C85.6792 42.34 83.6592 42.6 80.7792 42.6C76.6192 42.6 73.6392 41.98 71.8392 40.74C70.0792 39.5 69.1992 37.2 69.1992 33.84V22.5C69.1992 18.58 70.0192 15.92 71.6592 14.52C73.2992 13.08 76.4792 12.36 81.1992 12.36C83.2792 12.36 84.8792 12.5 85.9992 12.78C87.1192 13.02 87.9592 13.4 88.5192 13.92C89.0792 14.4 89.6992 15.18 90.3792 16.26V12.96H98.8392ZM90.0792 33.3V21.6C90.0792 20.04 89.6792 19.02 88.8792 18.54C88.0792 18.02 86.2592 17.76 83.4192 17.76C81.0592 17.76 79.5592 18.06 78.9192 18.66C78.2792 19.22 77.9592 20.3 77.9592 21.9V33C77.9592 34.72 78.2792 35.84 78.9192 36.36C79.5592 36.88 81.2192 37.14 83.8992 37.14C86.4592 37.14 88.1192 36.86 88.8792 36.3C89.6792 35.74 90.0792 34.74 90.0792 33.3ZM115.543 42H106.783V-2.86102e-06H115.543V42ZM132.477 9.54H123.717V2.46H132.477V9.54ZM132.477 42H123.717V12.96H132.477V42ZM165.43 30.66V34.32C165.43 35.76 165.15 37 164.59 38.04C164.07 39.08 163.39 39.9 162.55 40.5C161.75 41.06 160.69 41.5 159.37 41.82C158.05 42.14 156.77 42.34 155.53 42.42C154.33 42.54 152.91 42.6 151.27 42.6C148.11 42.6 144.29 42.3 139.81 41.7V35.88C145.37 36.72 149.23 37.14 151.39 37.14C153.11 37.14 154.43 36.98 155.35 36.66C156.31 36.3 156.79 35.62 156.79 34.62V32.82C156.79 31.9 156.53 31.22 156.01 30.78C155.49 30.3 154.37 30.06 152.65 30.06H148.87C145.83 30.06 143.45 29.46 141.73 28.26C140.05 27.02 139.21 25.22 139.21 22.86V19.32C139.21 16.68 140.47 14.86 142.99 13.86C145.51 12.86 149.07 12.36 153.67 12.36C155.59 12.36 159.03 12.54 163.99 12.9V18.48C157.75 18 154.23 17.76 153.43 17.76C150.99 17.76 149.45 17.94 148.81 18.3C148.17 18.62 147.85 19.26 147.85 20.22V21.78C147.85 22.26 148.09 22.7 148.57 23.1C149.09 23.5 149.87 23.7 150.91 23.7H154.75C161.87 23.7 165.43 26.02 165.43 30.66ZM199.954 42H191.194V21.72C191.194 20.12 190.914 19.06 190.354 18.54C189.834 18.02 188.554 17.76 186.514 17.76C183.994 17.76 182.394 18.02 181.714 18.54C181.034 19.02 180.694 20.08 180.694 21.72V42H171.934V-2.86102e-06H180.694V16.5C181.254 13.74 184.314 12.36 189.874 12.36C193.714 12.36 196.354 13.06 197.794 14.46C199.234 15.82 199.954 17.9 199.954 20.7V42ZM216.617 9.54H207.857V2.46H216.617V9.54ZM216.617 42H207.857V12.96H216.617V42ZM243.931 42.3C242.251 42.5 240.631 42.6 239.071 42.6C237.711 42.6 236.511 42.54 235.471 42.42C234.471 42.34 233.411 42.12 232.291 41.76C231.211 41.36 230.311 40.86 229.591 40.26C228.911 39.62 228.331 38.74 227.851 37.62C227.411 36.46 227.191 35.1 227.191 33.54V18.36H221.311V12.96H227.191V4.56H235.951V12.96H243.931V18.36H235.951V32.04C235.951 34.04 236.251 35.4 236.851 36.12C237.451 36.8 238.771 37.14 240.811 37.14C241.491 37.14 242.531 37.04 243.931 36.84V42.3Z" fill="white"/>
</svg>
