<svg width="44" height="43" viewBox="0 0 44 43" fill="none" xmlns="http://www.w3.org/2000/svg">
<path d="M43.7275 21.5C43.7275 33.3787 34.1063 43 22.2275 43C10.3488 43 0.727539 33.3787 0.727539 21.5C0.727539 9.62125 10.3488 0 22.2275 0C34.1063 0 43.7275 9.62125 43.7275 21.5Z" fill="#F6F6F6"/>
<path d="M30.6365 15.8289C30.6365 14.2294 29.2252 12.8181 27.6257 12.8181H15.4883C13.8889 12.8181 12.4775 14.2294 12.4775 15.8289V27.9662C12.4775 29.5657 13.8889 30.977 15.4883 30.977H21.604V24.1086H19.3459V21.0978H21.604V19.8746C21.604 17.8047 23.1095 16.017 24.9912 16.017H27.4375V19.0278H24.9912C24.7089 19.0278 24.4267 19.3101 24.4267 19.8746V21.0978H27.4375V24.1086H24.4267V30.977H27.6257C29.2252 30.977 30.6365 29.5657 30.6365 27.9662V15.8289Z" fill="#4E6297"/>
</svg>
