<svg width="13" height="13" viewBox="0 0 13 13" fill="none" xmlns="http://www.w3.org/2000/svg">
<path fill-rule="evenodd" clip-rule="evenodd" d="M0.476501 12.5239C0.793357 12.8408 1.20933 13 1.6253 13C2.04128 13 2.45725 12.8408 2.77411 12.5239L6.5 8.79788L10.2259 12.5239C10.5427 12.8408 10.9587 13 11.3747 13C11.7907 13 12.2066 12.8408 12.5235 12.5239C13.1588 11.8885 13.1588 10.8616 12.5235 10.2262L8.79761 6.5002L12.5235 2.77419C13.1588 2.13884 13.1588 1.11187 12.5235 0.476516C11.8882 -0.158839 10.8612 -0.158839 10.2259 0.476516L6.5 4.20252L2.77411 0.476516C2.13877 -0.158839 1.11184 -0.158839 0.476501 0.476516C-0.158834 1.11187 -0.158834 2.13884 0.476501 2.77419L4.20239 6.5002L0.476501 10.2262C-0.158834 10.8616 -0.158834 11.8885 0.476501 12.5239Z" fill="#FF757F"/>
</svg>
