<svg width="102" height="96" viewBox="0 0 102 96" fill="none" xmlns="http://www.w3.org/2000/svg">
<path d="M0.778978 39.5876C-2.26193 29.04 3.86991 18.0376 14.4748 15.0131L64.3997 0.774768C75.0047 -2.24971 86.0668 3.84899 89.1077 14.3966L101.221 56.4124C104.262 66.96 98.1301 77.9624 87.5252 80.9869L37.6003 95.2252C26.9953 98.2497 15.9332 92.151 12.8923 81.6034L0.778978 39.5876Z" fill="#E4EEE7"/>
<rect x="12" y="13" width="78" height="70" rx="8" fill="white"/>
<path d="M34.8668 64.8666C34.8668 64.4315 34.7378 64.0062 34.496 63.6444C34.2543 63.2826 33.9107 63.0006 33.5087 62.8341C33.1067 62.6676 32.6644 62.624 32.2376 62.7089C31.8108 62.7938 31.4188 63.0033 31.1112 63.311C30.8035 63.6187 30.594 64.0107 30.5091 64.4374C30.4242 64.8642 30.4678 65.3065 30.6343 65.7085C30.8008 66.1105 31.0828 66.4541 31.4445 66.6959C31.8063 66.9376 32.2317 67.0666 32.6668 67.0666C33.2503 67.0666 33.8099 66.8348 34.2224 66.4223C34.635 66.0097 34.8668 65.4501 34.8668 64.8666ZM31.9335 64.8666C31.9335 64.7216 31.9765 64.5798 32.0571 64.4592C32.1376 64.3386 32.2522 64.2446 32.3862 64.1891C32.5202 64.1336 32.6676 64.1191 32.8099 64.1474C32.9521 64.1757 33.0828 64.2455 33.1853 64.3481C33.2879 64.4506 33.3577 64.5813 33.386 64.7236C33.4143 64.8658 33.3998 65.0133 33.3443 65.1473C33.2888 65.2813 33.1948 65.3958 33.0742 65.4764C32.9536 65.557 32.8118 65.6 32.6668 65.6C32.4723 65.6 32.2858 65.5227 32.1483 65.3852C32.0107 65.2476 31.9335 65.0611 31.9335 64.8666Z" fill="#67AE7B"/>
<path d="M72.2667 48.7333H70.0667C70.0703 43.8011 68.1625 39.0593 64.7439 35.504C61.3253 31.9486 56.662 29.8564 51.7333 29.6667V27.4667H53.2V26H48.8V27.4667H50.2667V29.6667C45.3381 29.8564 40.6747 31.9486 37.2561 35.504C33.8375 39.0593 31.9297 43.8011 31.9333 48.7333H29.7333C29.5388 48.7333 29.3523 48.8106 29.2148 48.9481C29.0773 49.0856 29 49.2722 29 49.4667C29 50.8281 29.5408 52.1338 30.5035 53.0965C31.4662 54.0592 32.7719 54.6 34.1333 54.6H39.4207L37.47 56.2207C37.3541 56.13 37.2135 56.0764 37.0667 56.0667H29V57.5333H36.3333V68.5333H29V70H37.0667C37.2612 70 37.4477 69.9227 37.5852 69.7852C37.7227 69.6477 37.8 69.4612 37.8 69.2667V67.0667H55.2607C56.455 67.0656 57.6117 66.6481 58.5313 65.886L67.3973 58.5527C67.9833 58.1337 68.3901 57.5096 68.5368 56.8044C68.6836 56.0992 68.5595 55.3646 68.1893 54.7467C68.1893 54.6953 68.116 54.6513 68.0867 54.6C69.4096 54.5433 70.6595 53.9775 71.5751 53.0209C72.4907 52.0643 73.0012 50.7908 73 49.4667C73 49.2722 72.9227 49.0856 72.7852 48.9481C72.6477 48.8106 72.4612 48.7333 72.2667 48.7333ZM51 31.1333C55.6678 31.1333 60.1444 32.9876 63.4451 36.2883C66.7457 39.5889 68.6 44.0655 68.6 48.7333H33.4C33.4 44.0655 35.2543 39.5889 38.5549 36.2883C41.8556 32.9876 46.3322 31.1333 51 31.1333ZM66.5027 57.3793L57.6 64.7567C56.9423 65.3017 56.1149 65.6 55.2607 65.6H37.8V57.878L41.1 55.1133C41.4948 54.7827 41.9931 54.6011 42.508 54.6H52.0413C52.3331 54.6 52.6129 54.7159 52.8192 54.9222C53.0254 55.1285 53.1413 55.4083 53.1413 55.7C53.1413 55.9917 53.0254 56.2715 52.8192 56.4778C52.6129 56.6841 52.3331 56.8 52.0413 56.8H47.3333C46.7499 56.8 46.1903 57.0318 45.7777 57.4444C45.3651 57.8569 45.1333 58.4165 45.1333 59C45.1333 59.5835 45.3651 60.1431 45.7777 60.5556C46.1903 60.9682 46.7499 61.2 47.3333 61.2H56.1333C56.2862 61.199 56.4349 61.1503 56.5587 61.0607L64.9333 55.0693C65.0908 54.9589 65.2692 54.882 65.4575 54.8432C65.6459 54.8044 65.8402 54.8045 66.0284 54.8437C66.2167 54.8829 66.3949 54.9602 66.5522 55.0709C66.7094 55.1816 66.8423 55.3233 66.9427 55.4873C67.1228 55.7997 67.1775 56.1689 67.0958 56.5201C67.0141 56.8713 66.8021 57.1785 66.5027 57.3793ZM54.388 54.6H63.0633L55.8767 59.7333H47.3333C47.1388 59.7333 46.9523 59.6561 46.8148 59.5185C46.6773 59.381 46.6 59.1945 46.6 59C46.6 58.8055 46.6773 58.619 46.8148 58.4815C46.9523 58.3439 47.1388 58.2667 47.3333 58.2667H52.1C52.7807 58.2667 53.4336 57.9963 53.9149 57.5149C54.3962 57.0336 54.6667 56.3807 54.6667 55.7C54.6583 55.317 54.563 54.9408 54.388 54.6ZM67.8667 53.1333H34.1333C33.2881 53.1335 32.4687 52.8416 31.8139 52.3071C31.1591 51.7726 30.7091 51.0282 30.54 50.2H71.46C71.2909 51.0282 70.8409 51.7726 70.1861 52.3071C69.5313 52.8416 68.7119 53.1335 67.8667 53.1333Z" fill="#67AE7B"/>
</svg>
