<svg width="22" height="22" viewBox="0 0 22 22" fill="none" xmlns="http://www.w3.org/2000/svg">
<path fill-rule="evenodd" clip-rule="evenodd" d="M11.0094 0C17.0802 0.00507163 22 4.92799 22 11C22 17.0751 17.0751 22 11 22C10.9993 22 10.9986 22 10.998 22C4.92376 21.9989 0 17.0744 0 11C0 4.92798 4.91982 0.00505433 10.9906 3.78588e-06M13.2743 19.7102C16.8312 18.784 19.532 15.7368 19.9451 12H15.9499C15.7257 14.7632 14.8009 17.4156 13.2743 19.7102ZM15.9499 10H19.9451C19.532 6.26323 16.8312 3.21597 13.2743 2.28983C14.8009 4.58442 15.7257 7.23681 15.9499 10ZM8.72571 2.28983C5.16881 3.21597 2.46801 6.26323 2.05493 10H6.05009C6.2743 7.23681 7.1991 4.58442 8.72571 2.28983ZM8.05759 10C8.30879 7.28683 9.33032 4.70193 11 2.55079C12.6697 4.70193 13.6912 7.28683 13.9424 10H8.05759ZM8.05759 12H13.9424C13.6912 14.7132 12.6697 17.2981 11 19.4492C9.33032 17.2981 8.30879 14.7132 8.05759 12ZM6.05009 12C6.2743 14.7632 7.1991 17.4156 8.72571 19.7102C5.16881 18.784 2.46801 15.7368 2.05493 12H6.05009Z" fill="white" fill-opacity="0.65"/>
</svg>
