<svg width="12" height="17" viewBox="0 0 12 17" fill="none" xmlns="http://www.w3.org/2000/svg">
<path d="M6.69358 16.6549C8.25688 14.3539 12 8.5904 12 5.9826C12 2.67354 9.31376 0 6.01101 0C2.70826 0 0 2.67354 0 5.9826C0 8.5904 3.76514 14.3539 5.32844 16.6549C5.65872 17.1151 6.3633 17.1151 6.69358 16.6549ZM3.21468 5.9826C3.21468 4.4486 4.46973 3.19948 6.01101 3.19948C7.55229 3.19948 8.80734 4.4486 8.80734 5.9826C8.80734 7.5166 7.55229 8.7438 6.01101 8.7438C4.46973 8.7438 3.21468 7.49468 3.21468 5.9826Z" fill="#4597DE"/>
</svg>
