<svg width="20" height="18" viewBox="0 0 20 18" fill="none" xmlns="http://www.w3.org/2000/svg">
<path d="M17.8453 0.343517C17.5918 0.354702 17.3555 0.428551 17.1476 0.512612C16.9528 0.590971 16.2085 0.910195 15.0362 1.41293C13.8628 1.91611 12.3092 2.58313 10.6519 3.29584C7.33725 4.72124 3.61073 6.32575 1.702 7.14695C1.63022 7.17782 1.37978 7.25783 1.11397 7.46534C0.848159 7.67285 0.565552 8.10285 0.565552 8.58198C0.565552 8.96833 0.749678 9.35216 0.981436 9.58132C1.21319 9.81048 1.45842 9.92368 1.66848 10.0094C2.43064 10.3204 4.79445 11.2877 5.24082 11.4703C5.39791 11.9515 6.2535 14.5688 6.45191 15.2102C6.58271 15.6335 6.70721 15.8986 6.86932 16.109C6.95037 16.2142 7.04459 16.3064 7.15876 16.3787C7.2044 16.4075 7.25443 16.4298 7.305 16.4503L7.30805 16.4518C7.3197 16.4565 7.32975 16.4644 7.34157 16.4685C7.36386 16.4763 7.37877 16.4773 7.4086 16.4838C7.5274 16.5221 7.64735 16.5462 7.7544 16.5462C8.21081 16.5462 8.4902 16.2949 8.4902 16.2949L8.50696 16.2827L10.8545 14.252L13.7017 16.9454C13.7418 17.002 14.1157 17.5151 14.9402 17.5151C15.4298 17.5151 15.8182 17.2694 16.0675 17.0078C16.3169 16.7462 16.4722 16.4714 16.5382 16.1258V16.1243C16.6 15.7977 19.224 2.32696 19.224 2.32696L19.2194 2.34524C19.2962 1.99464 19.3163 1.66812 19.2316 1.3459C19.1468 1.02369 18.9235 0.715186 18.6466 0.549173C18.3697 0.383198 18.0988 0.332331 17.8453 0.343517ZM17.6991 1.97354C17.6953 1.9963 17.7019 1.98485 17.696 2.01162L17.6945 2.02076L17.693 2.0299C17.693 2.0299 15.1015 15.3284 15.0057 15.8348C15.0127 15.7966 14.9807 15.8726 14.9478 15.9186C14.9014 15.8866 14.8061 15.8455 14.8061 15.8455L14.7909 15.8287L10.9017 12.1497L8.15201 14.5262L8.97006 11.251C8.97006 11.251 14.0837 5.95755 14.3918 5.64947C14.6398 5.40299 14.6919 5.31707 14.6919 5.23206C14.6919 5.11818 14.6325 5.03554 14.4999 5.03554C14.3806 5.03554 14.2201 5.15156 14.1343 5.20616C13.0166 5.9187 8.10931 8.77874 5.90958 10.0581C5.56001 9.91508 3.1314 8.92095 2.3083 8.58503C2.31454 8.5823 2.31248 8.58327 2.31897 8.58046C4.2282 7.75904 7.95317 6.15454 11.2673 4.72934C12.9244 4.01674 14.4792 3.34921 15.6516 2.84644C16.806 2.35141 17.6081 2.01072 17.6991 1.97354Z" fill="#828282"/>
</svg>
