<svg width="56" height="56" viewBox="0 0 56 56" fill="none" xmlns="http://www.w3.org/2000/svg">
<rect x="0.5" y="0.5" width="55" height="54.4043" rx="27.2021" stroke="url(#paint0_linear)"/>
<path d="M28 17C25.0826 17 22.2847 18.1589 20.2218 20.2218C18.1589 22.2847 17 25.0826 17 28C17 30.9174 18.1589 33.7153 20.2218 35.7782C22.2847 37.8411 25.0826 39 28 39C30.9174 39 33.7153 37.8411 35.7782 35.7782C37.8411 33.7153 39 30.9174 39 28C39 25.0826 37.8411 22.2847 35.7782 20.2218C33.7153 18.1589 30.9174 17 28 17V17ZM28 18.9578C28.3809 18.9578 28.6875 19.2114 28.6875 19.5264V27.3125H34.6863C35.0102 27.3125 35.2711 27.6191 35.2711 28C35.2711 28.3809 35.0102 28.6875 34.6863 28.6875H28.4653C28.3429 28.7809 28.1804 28.8392 28 28.8392C27.7517 28.8392 27.5367 28.7303 27.4159 28.568C27.2621 28.4444 27.1608 28.2365 27.1608 28C27.1608 27.8227 27.2194 27.6631 27.3125 27.5414V19.5264C27.3125 19.2114 27.6191 18.9578 28 18.9578Z" fill="#4597DE"/>
<defs>
<linearGradient id="paint0_linear" x1="8.13712e-07" y1="27.4165" x2="56" y2="27.4165" gradientUnits="userSpaceOnUse">
<stop stop-color="#4798DE"/>
<stop offset="1" stop-color="#6DB1EB"/>
</linearGradient>
</defs>
</svg>
