<svg width="56" height="56" viewBox="0 0 56 56" fill="none" xmlns="http://www.w3.org/2000/svg">
<rect x="0.5" y="0.5" width="55" height="54.4043" rx="27.2021" stroke="url(#paint0_linear)"/>
<path d="M32.541 28.0344L38.8872 34.3805C38.9718 34.1549 39 33.9293 39 33.6754V21.9421C39 21.8293 39 21.6883 38.9718 21.5754L32.541 28.0344Z" fill="#4597DE"/>
<path d="M28.7895 30.1772L38.4638 20.5029C38.0407 20.0516 37.4766 19.7695 36.8279 19.7695H19.1715C18.5228 19.7695 17.9305 20.0516 17.5356 20.5029L27.21 30.1772C27.6613 30.6003 28.3382 30.6003 28.7895 30.1772Z" fill="#4597DE"/>
<path d="M29.5791 30.9673C29.1561 31.3904 28.592 31.616 27.9997 31.616C27.4074 31.616 26.8433 31.3904 26.4202 30.9673L24.2766 28.8237L17.7612 35.3109C18.1561 35.6494 18.6356 35.8468 19.1715 35.8468H36.7996C37.3355 35.8468 37.8432 35.6494 38.2099 35.3109L31.7227 28.8237L29.5791 30.9673Z" fill="#4597DE"/>
<path d="M23.459 28.0344L17.0282 21.5754C17 21.7165 17 21.8293 17 21.9421V33.6472C17 33.901 17.0564 34.1267 17.1128 34.3523L23.459 28.0344Z" fill="#4597DE"/>
<defs>
<linearGradient id="paint0_linear" x1="8.13712e-07" y1="27.4165" x2="56" y2="27.4165" gradientUnits="userSpaceOnUse">
<stop stop-color="#4798DE"/>
<stop offset="1" stop-color="#6DB1EB"/>
</linearGradient>
</defs>
</svg>
