<svg width="56" height="56" viewBox="0 0 56 56" fill="none" xmlns="http://www.w3.org/2000/svg">
<rect x="0.5" y="0.5" width="55" height="54.4043" rx="27.2021" stroke="url(#paint0_linear)"/>
<path d="M28.9997 39.4025C31.2527 36.0863 36.6471 27.7802 36.6471 24.0219C36.6471 19.2529 32.7758 15.3999 28.016 15.3999C23.2561 15.3999 19.353 19.2529 19.353 24.0219C19.353 27.7802 24.7793 36.0863 27.0323 39.4025C27.5082 40.0657 28.5237 40.0657 28.9997 39.4025ZM23.9859 24.0219C23.9859 21.8111 25.7947 20.0109 28.016 20.0109C30.2372 20.0109 32.046 21.8111 32.046 24.0219C32.046 26.2326 30.2372 28.0013 28.016 28.0013C25.7947 28.0013 23.9859 26.2011 23.9859 24.0219Z" fill="#4597DE"/>
<defs>
<linearGradient id="paint0_linear" x1="8.13712e-07" y1="27.4165" x2="56" y2="27.4165" gradientUnits="userSpaceOnUse">
<stop stop-color="#4798DE"/>
<stop offset="1" stop-color="#6DB1EB"/>
</linearGradient>
</defs>
</svg>
