<svg width="29" height="21" viewBox="0 0 29 21" fill="none" xmlns="http://www.w3.org/2000/svg">
<path d="M28.87 9.63484L26.1814 5.31565C26.1036 5.18572 25.992 5.07756 25.8577 5.00183C25.7233 4.92609 25.5708 4.88539 25.4152 4.88373H19.1419V1.8603C19.1419 1.63119 19.0475 1.41147 18.8794 1.24947C18.7113 1.08747 18.4834 0.99646 18.2457 0.99646H1.44225C1.14515 0.99646 0.860213 1.11022 0.650129 1.31273C0.440045 1.51523 0.322021 1.78988 0.322021 2.07626H0.322021C0.322021 2.36264 0.440045 2.63729 0.650129 2.83979C0.860213 3.04229 1.14515 3.15605 1.44225 3.15605H6.09793C6.31821 3.14777 6.53435 3.21538 6.7076 3.34677C6.88086 3.47816 6.99991 3.66473 7.0434 3.87304C7.0658 3.99813 7.05933 4.12644 7.02444 4.24885C6.98955 4.37125 6.9271 4.48474 6.84153 4.58124C6.75597 4.67774 6.64939 4.75487 6.52939 4.80715C6.40938 4.85943 6.2789 4.88558 6.14722 4.88373H0.99416C0.815897 4.88373 0.644937 4.95199 0.518886 5.07349C0.392836 5.19499 0.322021 5.35978 0.322021 5.53161H0.322021C0.322021 5.70344 0.392836 5.86823 0.518886 5.98973C0.644937 6.11123 0.815897 6.17949 0.99416 6.17949H4.5789C4.79691 6.17432 5.00983 6.24336 5.18028 6.37448C5.35073 6.5056 5.4678 6.69042 5.51093 6.89647C5.53319 7.02084 5.52691 7.1484 5.49252 7.27017C5.45814 7.39195 5.3965 7.50498 5.31192 7.60132C5.22735 7.69767 5.12191 7.77498 5.003 7.82782C4.8841 7.88065 4.75463 7.90774 4.62371 7.90716H0.99416C0.815897 7.90716 0.644937 7.97542 0.518886 8.09692C0.392836 8.21842 0.322021 8.38321 0.322021 8.55504H0.322021C0.322021 8.72687 0.392836 8.89166 0.518886 9.01316C0.644937 9.13466 0.815897 9.20292 0.99416 9.20292H3.68271C3.90072 9.19775 4.11365 9.26679 4.2841 9.39791C4.45455 9.52904 4.57162 9.71385 4.61474 9.91991C4.637 10.0443 4.63072 10.1718 4.59634 10.2936C4.56196 10.4154 4.50031 10.5284 4.41574 10.6248C4.33117 10.7211 4.22572 10.7984 4.10682 10.8512C3.98792 10.9041 3.85845 10.9312 3.72752 10.9306H0.99416C0.815897 10.9306 0.644937 10.9989 0.518886 11.1204C0.392836 11.2419 0.322021 11.4066 0.322021 11.5785H0.322021C0.322021 11.7503 0.392836 11.9151 0.518886 12.0366C0.644937 12.1581 0.815897 12.2264 0.99416 12.2264H2.15472C2.37273 12.2212 2.58566 12.2902 2.7561 12.4213C2.92655 12.5525 3.04362 12.7373 3.08675 12.9433C3.10894 13.0673 3.10276 13.1945 3.06864 13.316C3.03451 13.4375 2.97327 13.5503 2.88919 13.6465C2.80511 13.7428 2.70022 13.8202 2.58187 13.8733C2.46352 13.9264 2.33456 13.954 2.20401 13.954H1.21821C0.980523 13.954 0.752575 14.045 0.584508 14.207C0.416441 14.369 0.322021 14.5888 0.322021 14.8179L0.322021 16.9775C0.322021 17.2066 0.416441 17.4263 0.584508 17.5883C0.752575 17.7503 0.980523 17.8413 1.21821 17.8413H3.58861C3.78116 18.4659 4.17788 19.0138 4.71968 19.4034C5.26147 19.793 5.91935 20.0035 6.59531 20.0035C7.27127 20.0035 7.92915 19.793 8.47094 19.4034C9.01274 19.0138 9.40946 18.4659 9.60201 17.8413H20.168C20.3606 18.4659 20.7573 19.0138 21.2991 19.4034C21.8409 19.793 22.4988 20.0035 23.1747 20.0035C23.8507 20.0035 24.5086 19.793 25.0504 19.4034C25.5921 19.0138 25.9889 18.4659 26.1814 17.8413H28.1037C28.3414 17.8413 28.5694 17.7503 28.7374 17.5883C28.9055 17.4263 28.9999 17.2066 28.9999 16.9775V10.0668C28.9969 9.91425 28.9521 9.76523 28.87 9.63484ZM6.59531 18.2732C6.32944 18.2732 6.06954 18.1972 5.84847 18.0548C5.62741 17.9125 5.45511 17.7101 5.35336 17.4733C5.25162 17.2366 5.22499 16.976 5.27686 16.7247C5.32873 16.4733 5.45676 16.2424 5.64476 16.0612C5.83276 15.88 6.07229 15.7566 6.33306 15.7066C6.59382 15.6566 6.86411 15.6823 7.10974 15.7803C7.35538 15.8784 7.56532 16.0445 7.71304 16.2576C7.86075 16.4707 7.93959 16.7212 7.93959 16.9775C7.93959 17.3211 7.79796 17.6507 7.54586 17.8937C7.29376 18.1367 6.95183 18.2732 6.59531 18.2732ZM23.1747 18.2732C22.9088 18.2732 22.6489 18.1972 22.4279 18.0548C22.2068 17.9125 22.0345 17.7101 21.9328 17.4733C21.831 17.2366 21.8044 16.976 21.8563 16.7247C21.9081 16.4733 22.0362 16.2424 22.2242 16.0612C22.4122 15.88 22.6517 15.7566 22.9125 15.7066C23.1732 15.6566 23.4435 15.6823 23.6891 15.7803C23.9348 15.8784 24.1447 16.0445 24.2924 16.2576C24.4402 16.4707 24.519 16.7212 24.519 16.9775C24.519 17.3211 24.3774 17.6507 24.1253 17.8937C23.8732 18.1367 23.5312 18.2732 23.1747 18.2732ZM19.1419 10.0668V6.61141H24.9088L27.0597 10.0668H19.1419Z" fill="#4597DE"/>
</svg>
