<svg width="56" height="56" viewBox="0 0 56 56" fill="none" xmlns="http://www.w3.org/2000/svg">
<rect x="0.5" y="0.5" width="55" height="54.4043" rx="27.2021" stroke="url(#paint0_linear)"/>
<path fill-rule="evenodd" clip-rule="evenodd" d="M17.6358 24.4722C16.3986 21.0832 17.1409 18.8514 18.3782 17.6942C19.6155 16.537 20.0279 17.0329 20.8527 17.6942C21.6776 18.4381 24.3171 21.0005 24.3171 21.0005C24.3171 21.0005 25.1419 21.5791 24.3995 22.571C23.7397 23.6456 22.0075 24.3895 23.3273 25.96C25.4718 28.5225 27.4515 30.5889 30.0909 32.6554C31.6581 33.9779 32.4005 32.3248 33.3903 31.5808C34.3801 30.8369 35.04 31.6635 35.04 31.6635C35.04 31.6635 37.597 34.3086 38.2569 35.1352C38.9167 35.9617 39.4941 36.4577 38.3394 37.6976C37.1846 38.8548 34.875 39.5987 31.4932 38.3588C27.2865 36.7883 19.2855 28.7704 17.6358 24.4722ZM26.7091 20.5872C25.5543 20.5872 25.6368 18.9341 26.7091 18.9341C32.4005 18.8514 37.1021 23.5629 37.1021 29.349C37.1021 30.4236 35.4524 30.4236 35.4524 29.349C35.4524 24.4722 31.4932 20.5046 26.7091 20.5872ZM28.1113 24.3895C27.039 24.3895 27.039 22.7364 28.1113 22.7364C30.9158 22.7364 33.2253 25.0508 33.2253 27.8612C33.2253 28.9358 31.5757 28.9358 31.5757 27.8612C31.5757 25.96 30.0085 24.3895 28.1113 24.3895Z" fill="#4597DE"/>
<defs>
<linearGradient id="paint0_linear" x1="8.13712e-07" y1="27.4165" x2="56" y2="27.4165" gradientUnits="userSpaceOnUse">
<stop stop-color="#4798DE"/>
<stop offset="1" stop-color="#6DB1EB"/>
</linearGradient>
</defs>
</svg>
