<svg width="23" height="24" viewBox="0 0 23 24" fill="none" xmlns="http://www.w3.org/2000/svg">
<path d="M4.76172 10.0129C3.64703 10.0129 2.74023 10.9243 2.74023 12.0447V17.463C2.74023 18.5834 3.64703 19.4948 4.76172 19.4948C5.87641 19.4948 6.7832 18.5834 6.7832 17.463V12.0447C6.7832 10.9243 5.87641 10.0129 4.76172 10.0129Z" fill="#6CCB7F"/>
<path d="M18.2383 10.0129C17.1236 10.0129 16.2168 10.9243 16.2168 12.0447V17.463C16.2168 18.316 16.7438 19.0449 17.4865 19.3457C17.2992 20.0398 16.7589 20.5828 16.0684 20.771C15.7692 20.0245 15.0439 19.4948 14.1953 19.4948C13.0806 19.4948 12.1738 20.4063 12.1738 21.5267C12.1738 22.6471 13.0806 23.5585 14.1953 23.5585C15.0937 23.5585 15.848 22.9625 16.1105 22.1463C17.512 21.905 18.6147 20.7968 18.8547 19.388C19.6668 19.1242 20.2598 18.366 20.2598 17.463V12.0447C20.2598 10.9243 19.353 10.0129 18.2383 10.0129Z" fill="#6CCB7F"/>
<path d="M18.6554 4.77963C19.0028 3.88322 18.6824 2.8892 17.9053 2.36308C14.1335 -0.198538 8.86527 -0.199215 5.09472 2.3624C4.31604 2.89073 3.99727 3.88444 4.34488 4.7794C2.85666 6.29345 1.86663 8.3579 1.53345 10.4443C1.65402 10.3911 1.77059 10.3304 1.8961 10.2872C2.22776 9.74298 2.71435 9.31562 3.28333 9.02899C3.70178 7.87897 4.36217 6.69128 5.21771 5.79853C5.93156 6.21402 6.74191 6.14738 7.35707 5.73031C9.79704 4.07282 13.2044 4.07412 15.643 5.73031C16.3042 6.17849 17.1338 6.17411 17.7826 5.79876C18.638 6.69142 19.2985 7.87901 19.7168 9.02895C20.2857 9.31557 20.7723 9.74294 21.104 10.2871C21.2295 10.3304 21.3461 10.3911 21.4667 10.4443C21.1335 8.35794 20.1436 6.29358 18.6554 4.77963Z" fill="#6CCB7F"/>
<path d="M21.6523 12.0618V17.4456C22.4656 16.8267 23 15.8556 23 14.7537C23 13.6518 22.4656 12.6806 21.6523 12.0618Z" fill="#6CCB7F"/>
<path d="M0 14.7537C0 15.8556 0.53439 16.8267 1.34765 17.4455V12.0618C0.53439 12.6806 0 13.6518 0 14.7537Z" fill="#6CCB7F"/>
</svg>
