<svg width="12" height="12" viewBox="0 0 12 12" fill="none" xmlns="http://www.w3.org/2000/svg">
<path fill-rule="evenodd" clip-rule="evenodd" d="M0.346826 4.07574C-0.328044 2.22719 0.0768779 1.00985 0.751748 0.378643C1.42662 -0.252569 1.65157 0.0179505 2.10149 0.378643C2.5514 0.784422 3.99112 2.1821 3.99112 2.1821C3.99112 2.1821 4.44104 2.49771 4.03611 3.03875C3.67618 3.62487 2.73137 4.03065 3.45123 4.8873C4.621 6.28498 5.70079 7.41214 7.14052 8.5393C7.99535 9.26069 8.40027 8.35896 8.94017 7.95318C9.48007 7.5474 9.84 7.99827 9.84 7.99827C9.84 7.99827 11.2347 9.44104 11.5947 9.8919C11.9546 10.3428 12.2695 10.6133 11.6397 11.2896C11.0098 11.9208 9.75001 12.3266 7.90537 11.6503C5.61081 10.7936 1.24665 6.42024 0.346826 4.07574ZM5.29587 1.95667C4.66599 1.95667 4.71098 1.05494 5.29587 1.05494C8.40027 1.00985 10.9648 3.57979 10.9648 6.73584C10.9648 7.32197 10.065 7.32197 10.065 6.73584C10.065 4.07574 7.90537 1.91158 5.29587 1.95667ZM6.06072 4.03065C5.47584 4.03065 5.47584 3.12892 6.06072 3.12892C7.59043 3.12892 8.85019 4.39134 8.85019 5.92429C8.85019 6.51041 7.95036 6.51041 7.95036 5.92429C7.95036 4.8873 7.09553 4.03065 6.06072 4.03065Z" fill="white"/>
</svg>
