<svg width="88" height="88" viewBox="0 0 88 88" fill="none" xmlns="http://www.w3.org/2000/svg">
<g filter="url(#filter0_d)">
<circle cx="44" cy="39" r="34" fill="#87BB4E"/>
</g>
<path d="M60.5051 48.1177L60.5149 48.1153C60.5149 48.1153 60.5397 49.8351 60.2631 50.5331C60.2631 50.5331 56.0276 53.2833 48.9337 53.2833L48.9376 53.1232L48.9239 53.2833C41.8299 53.2833 37.5945 50.5331 37.5945 50.5331C37.3175 49.8355 37.3426 48.1153 37.3426 48.1153C37.2553 46.8775 37.3604 44.3772 39.5283 43.8263C42.437 43.0874 44.8501 41.9606 44.8501 41.9606C45.3269 41.3043 45.4119 39.93 45.4119 39.93C44.5019 38.9515 44.0978 37.7259 43.9282 36.6895C43.8676 36.734 43.7988 36.7635 43.722 36.7615C43.4486 36.7556 43.0823 36.3559 42.6877 34.8407C42.1907 32.9333 42.657 32.5567 43.1083 32.5603C43.2121 32.5611 43.2291 32.5591 43.3195 32.5863L43.3207 32.5446C43.3207 32.5446 41.9834 28.0864 45.2002 26.1258C45.2002 26.1258 44.6352 25.6682 44.6789 25.0092C44.6789 25.0092 46.1536 25.1764 47.5668 25.1792C48.209 25.1807 48.8389 25.1477 49.3114 25.0505C49.5003 25.0116 49.6915 24.9958 49.8811 25.0009C51.2086 25.0348 52.4799 26.068 52.7041 27.0654C52.7041 27.0654 52.7238 27.0638 52.7592 27.0638C53.1786 27.063 55.8139 27.2645 54.5494 32.5623C54.5494 32.5623 54.5482 32.5693 54.5463 32.5823C54.6072 32.5693 54.6718 32.5611 54.7363 32.5603C55.1888 32.5544 55.6593 32.9278 55.1608 34.8407C54.7626 36.3693 54.3936 36.7627 54.1194 36.7615C54.0281 36.7612 53.9474 36.7171 53.8797 36.6569C53.7129 37.7015 53.3096 38.9436 52.3878 39.9335L52.4366 39.9304C52.4366 39.9304 52.5117 41.1473 52.9178 41.8378C52.9355 41.8465 55.4217 43.0902 58.3202 43.8267C60.4889 44.3772 60.5924 46.8807 60.5051 48.1177ZM35.8357 48.1566C35.7869 47.3906 35.8082 46.2822 36.1623 45.2317C36.3889 44.5597 36.7265 43.9837 37.1652 43.5198C37.6999 42.9545 38.3699 42.5665 39.1568 42.3666C40.1243 42.1207 41.0387 41.828 41.8174 41.5514C41.6541 41.503 41.5644 41.4829 41.5494 41.4747C41.514 41.4558 39.5464 40.9388 38.6434 40.4478C38.4313 40.3116 38.2979 40.2101 38.2979 40.2101V40.0724H38.2972V39.2336C38.2972 39.2336 40.947 39.3146 42.2041 38.0304C42.2041 38.0304 40.3746 37.5123 40.7031 34.1817C41.032 30.8511 40.2931 27.9266 37.6161 28.1745C37.6161 28.1745 36.4558 26.7781 34.1463 27.6563C33.3535 27.9581 31.2257 28.7202 31.3339 33.335C31.4421 37.9498 29.6936 37.9769 29.6936 37.9769C29.6936 37.9769 30.595 39.2883 33.6544 39.2611V40.1991C33.6544 40.1991 33.5215 40.3006 33.309 40.4368C32.4064 40.9278 30.4384 41.4448 30.403 41.4637C30.3617 41.4857 29.764 41.5963 28.5892 42.1491C27.4143 42.7019 27.3526 43.9027 27.3526 43.9027V45.8479C29.1365 47.8922 34.6365 48.2656 35.8338 48.3235C35.8353 48.2609 35.8353 48.2046 35.8357 48.1566Z" fill="white"/>
<defs>
<filter id="filter0_d" x="0" y="0" width="88" height="88" filterUnits="userSpaceOnUse" color-interpolation-filters="sRGB">
<feFlood flood-opacity="0" result="BackgroundImageFix"/>
<feColorMatrix in="SourceAlpha" type="matrix" values="0 0 0 0 0 0 0 0 0 0 0 0 0 0 0 0 0 0 127 0"/>
<feOffset dy="5"/>
<feGaussianBlur stdDeviation="5"/>
<feColorMatrix type="matrix" values="0 0 0 0 0.529412 0 0 0 0 0.733333 0 0 0 0 0.305882 0 0 0 0.5 0"/>
<feBlend mode="normal" in2="BackgroundImageFix" result="effect1_dropShadow"/>
<feBlend mode="normal" in="SourceGraphic" in2="effect1_dropShadow" result="shape"/>
</filter>
</defs>
</svg>
