<svg width="40" height="40" viewBox="0 0 40 40" fill="none" xmlns="http://www.w3.org/2000/svg">
<circle cx="20" cy="20" r="20" fill="#F2F2F2" fill-opacity="0.2"/>
<path d="M29 19.7684C29 24.6108 25.044 28.5363 20.1629 28.5363C18.6139 28.5363 17.1589 28.1401 15.8922 27.4463L11 29L12.5947 24.2944C11.7906 22.9738 11.3275 21.4231 11.3275 19.7679C11.3281 14.9255 15.283 11 20.1641 11C25.0445 11.0012 29 14.9261 29 19.7684ZM20.1623 12.3981C16.066 12.3981 12.7339 15.705 12.7339 19.7702C12.7339 21.3831 13.2598 22.8764 14.149 24.0913L13.2216 26.8283L16.0754 25.9214C17.2493 26.6915 18.6538 27.14 20.1623 27.14C24.2586 27.14 27.5919 23.8337 27.5919 19.7684C27.5931 15.705 24.2592 12.3981 20.1623 12.3981ZM24.6255 21.7881C24.5703 21.6995 24.4259 21.6455 24.2099 21.5375C23.9945 21.4295 22.928 20.9101 22.7302 20.8396C22.5306 20.7674 22.3862 20.731 22.2419 20.9465C22.0992 21.1619 21.6837 21.6455 21.5563 21.7899C21.4301 21.9337 21.3039 21.9519 21.0873 21.8457C20.8707 21.7365 20.1723 21.5111 19.3447 20.7792C18.7008 20.2087 18.2659 19.5061 18.1402 19.2907C18.0129 19.0758 18.1273 18.9596 18.2347 18.8528C18.3316 18.756 18.4513 18.6016 18.5599 18.4754C18.6685 18.3504 18.7043 18.2617 18.7765 18.1179C18.8475 17.9741 18.8117 17.8491 18.7583 17.7405C18.7043 17.6325 18.2717 16.576 18.0904 16.1458C17.9102 15.7161 17.73 15.7872 17.6032 15.7872C17.477 15.7872 17.3326 15.7696 17.1882 15.7696C17.0438 15.7696 16.809 15.8218 16.6112 16.0372C16.4134 16.2526 15.8535 16.7721 15.8535 17.8298C15.8535 18.8886 16.6289 19.9093 16.7374 20.0525C16.8466 20.1952 18.2365 22.4367 20.4382 23.2972C22.641 24.1571 22.641 23.8701 23.0378 23.8337C23.4357 23.7973 24.3197 23.3142 24.4993 22.813C24.68 22.3094 24.68 21.8779 24.6255 21.7881Z" fill="#48C95F"/>
</svg>
