<svg width="20" height="20" viewBox="0 0 20 20" fill="none" xmlns="http://www.w3.org/2000/svg">
<path d="M10 20C8.02219 20 6.08879 19.4135 4.4443 18.3147C2.79981 17.2159 1.51809 15.6541 0.761209 13.8268C0.00433283 11.9996 -0.193701 9.98891 0.192152 8.0491C0.578004 6.10929 1.53041 4.32746 2.92894 2.92894C4.32746 1.53041 6.10929 0.578004 8.0491 0.192152C9.98891 -0.193701 11.9996 0.00433283 13.8268 0.761209C15.6541 1.51809 17.2159 2.79981 18.3147 4.4443C19.4135 6.08879 20 8.02219 20 10C19.997 12.6513 18.9425 15.1931 17.0678 17.0678C15.1931 18.9425 12.6513 19.997 10 20ZM10 1.42858C8.30474 1.42858 6.64754 1.93128 5.23798 2.87312C3.82841 3.81496 2.72979 5.15364 2.08104 6.71986C1.43229 8.28609 1.26254 10.0095 1.59327 11.6722C1.924 13.3349 2.74035 14.8622 3.93909 16.0609C5.13783 17.2597 6.66511 18.076 8.3278 18.4067C9.9905 18.7375 11.7139 18.5677 13.2802 17.919C14.8464 17.2702 16.185 16.1716 17.1269 14.762C18.0687 13.3525 18.5714 11.6953 18.5714 10C18.569 7.72748 17.6651 5.54874 16.0582 3.94183C14.4513 2.33491 12.2725 1.43105 10 1.42858Z" fill="#BDBDBD"/>
<path d="M13.5121 14.2265C13.4183 14.2266 13.3254 14.2081 13.2387 14.1722C13.152 14.1363 13.0733 14.0836 13.0071 14.0172L9.49493 10.505C9.42858 10.4387 9.37594 10.36 9.34003 10.2734C9.30412 10.1867 9.28564 10.0938 9.28564 10V3.57146C9.28564 3.38202 9.3609 3.20034 9.49485 3.06639C9.62881 2.93243 9.81049 2.85718 9.99993 2.85718C10.1894 2.85718 10.3711 2.93243 10.505 3.06639C10.639 3.20034 10.7142 3.38202 10.7142 3.57146V9.70425L14.0171 13.0072C14.1169 13.1071 14.1849 13.2343 14.2125 13.3729C14.24 13.5114 14.2259 13.655 14.1718 13.7855C14.1178 13.916 14.0263 14.0275 13.9088 14.106C13.7914 14.1845 13.6533 14.2264 13.5121 14.2265Z" fill="#BDBDBD"/>
</svg>
