<svg width="12" height="10" viewBox="0 0 12 10" fill="none" xmlns="http://www.w3.org/2000/svg">
<path d="M8.47705 4.9314L11.9386 8.39293C11.9847 8.26986 12.0001 8.14678 12.0001 8.00832V1.60833C12.0001 1.54679 12.0001 1.46986 11.9847 1.40833L8.47705 4.9314Z" fill="#00963F"/>
<path d="M6.43093 6.10038L11.7078 0.823461C11.4771 0.577308 11.1694 0.423462 10.8155 0.423462H1.18479C0.830941 0.423462 0.507865 0.577308 0.29248 0.823461L5.5694 6.10038C5.81555 6.33115 6.18478 6.33115 6.43093 6.10038Z" fill="#00963F"/>
<path d="M6.86167 6.53129C6.6309 6.76206 6.32321 6.88514 6.00014 6.88514C5.67706 6.88514 5.36937 6.76206 5.1386 6.53129L3.96937 5.36206L0.415527 8.90052C0.630912 9.08513 0.89245 9.19283 1.18476 9.19283H10.8001C11.0924 9.19283 11.3694 9.08513 11.5694 8.90052L8.0309 5.36206L6.86167 6.53129Z" fill="#00963F"/>
<path d="M3.52307 4.9314L0.0153847 1.40833C5.84583e-08 1.48525 0 1.54679 0 1.60833V7.99293C0 8.13139 0.0307691 8.25447 0.0615383 8.37755L3.52307 4.9314Z" fill="#00963F"/>
</svg>
