<svg width="40" height="40" viewBox="0 0 40 40" fill="none" xmlns="http://www.w3.org/2000/svg">
<path d="M40 20C40 31.05 31.05 40 20 40C8.95 40 0 31.05 0 20C0 8.95 8.95 0 20 0C31.05 0 40 8.95 40 20Z" fill="#F2F2F2" fill-opacity="0.2"/>
<path d="M26.8178 12.0014C26.5857 12.0116 26.3695 12.0792 26.1791 12.1561C26.0008 12.2279 25.3195 12.5201 24.2464 12.9803C23.1723 13.4409 21.7501 14.0515 20.233 14.7039C17.1988 16.0087 13.7875 17.4775 12.0403 18.2292C11.9746 18.2574 11.7453 18.3307 11.502 18.5206C11.2587 18.7106 11 19.1042 11 19.5428C11 19.8965 11.1685 20.2478 11.3807 20.4576C11.5928 20.6674 11.8173 20.771 12.0096 20.8495C12.7073 21.1341 14.8711 22.0196 15.2797 22.1868C15.4235 22.6273 16.2067 25.0231 16.3883 25.6103C16.5081 25.9978 16.6221 26.2404 16.7704 26.433C16.8446 26.5293 16.9309 26.6137 17.0354 26.6799C17.0772 26.7063 17.123 26.7267 17.1693 26.7454L17.1721 26.7468C17.1827 26.7511 17.1919 26.7584 17.2027 26.7621C17.2231 26.7693 17.2368 26.7701 17.2641 26.7761C17.3729 26.8112 17.4827 26.8333 17.5806 26.8333C17.9984 26.8333 18.2542 26.6032 18.2542 26.6032L18.2695 26.592L20.4185 24.7331L23.0248 27.1986C23.0615 27.2505 23.4037 27.7202 24.1585 27.7202C24.6067 27.7202 24.9622 27.4953 25.1904 27.2558C25.4187 27.0163 25.5609 26.7647 25.6213 26.4484V26.447C25.6779 26.1481 28.0798 13.817 28.0798 13.817L28.0757 13.8337C28.146 13.5128 28.1644 13.2139 28.0868 12.9189C28.0092 12.624 27.8048 12.3416 27.5513 12.1896C27.2979 12.0377 27.0499 11.9911 26.8178 12.0014ZM26.6839 13.4935C26.6805 13.5143 26.6865 13.5038 26.6812 13.5283L26.6798 13.5367L26.6784 13.5451C26.6784 13.5451 24.3062 25.7184 24.2185 26.182C24.2249 26.147 24.1955 26.2166 24.1655 26.2587C24.123 26.2294 24.0358 26.1918 24.0358 26.1918L24.0218 26.1764L20.4617 22.8087L17.9446 24.9841L18.6935 21.986C18.6935 21.986 23.3745 17.1404 23.6565 16.8584C23.8835 16.6328 23.9312 16.5541 23.9312 16.4763C23.9312 16.3721 23.8769 16.2964 23.7555 16.2964C23.6463 16.2964 23.4993 16.4026 23.4208 16.4526C22.3976 17.1049 17.9055 19.7229 15.8919 20.8941C15.5719 20.7631 13.3488 19.8531 12.5953 19.5456C12.601 19.5431 12.5991 19.544 12.6051 19.5414C14.3528 18.7895 17.7626 17.3207 20.7964 16.0161C22.3132 15.3638 23.7365 14.7527 24.8097 14.2925C25.8664 13.8394 26.6006 13.5275 26.6839 13.4935Z" fill="#29B6F6"/>
</svg>
