<svg width="17" height="13" viewBox="0 0 17 13" fill="none" xmlns="http://www.w3.org/2000/svg">
<path d="M11.5996 6.66876L16.3364 11.4055C16.3995 11.2371 16.4206 11.0687 16.4206 10.8792V2.12146C16.4206 2.03725 16.4206 1.93199 16.3995 1.84778L11.5996 6.66876Z" fill="#012255"/>
<path d="M8.80002 8.26831L16.021 1.04736C15.7052 0.710523 15.2841 0.5 14.7999 0.5H1.62118C1.13698 0.5 0.694879 0.710523 0.400146 1.04736L7.62109 8.26831C7.95793 8.58409 8.46318 8.58409 8.80002 8.26831Z" fill="#012255"/>
<path d="M9.38928 8.85791C9.0735 9.1737 8.65245 9.34211 8.21035 9.34211C7.76825 9.34211 7.34721 9.1737 7.03142 8.85791L5.43144 7.25793L0.568359 12.1C0.863092 12.3526 1.22098 12.5 1.62098 12.5H14.7787C15.1787 12.5 15.5576 12.3526 15.8313 12.1L10.9893 7.25793L9.38928 8.85791Z" fill="#012255"/>
<path d="M4.82098 6.66876L0.0210524 1.84778C7.99945e-08 1.95304 0 2.03725 0 2.12146V10.8582C0 11.0476 0.0421046 11.2161 0.0842092 11.3845L4.82098 6.66876Z" fill="#012255"/>
</svg>
