<svg width="23" height="23" viewBox="0 0 23 23" fill="none" xmlns="http://www.w3.org/2000/svg">
<rect x="0.77417" y="0.741943" width="22.2258" height="22.2258" rx="3.38298" fill="white"/>
<path d="M17.4744 6.38132C17.2908 6.38942 17.1197 6.44291 16.969 6.50381C16.8279 6.56057 16.2888 6.7918 15.4396 7.15597C14.5896 7.52045 13.4642 8.00362 12.2637 8.51988C9.86272 9.5524 7.16335 10.7147 5.78072 11.3095C5.72873 11.3319 5.54732 11.3898 5.35478 11.5401C5.16223 11.6905 4.95752 12.0019 4.95752 12.349C4.95752 12.6289 5.09089 12.9069 5.25877 13.0729C5.42665 13.2389 5.60429 13.3209 5.75645 13.383C6.30853 13.6082 8.02079 14.3089 8.34413 14.4412C8.45792 14.7898 9.07768 16.6856 9.22141 17.1503C9.31615 17.4569 9.40634 17.6489 9.52376 17.8013C9.58248 17.8775 9.65072 17.9443 9.73343 17.9967C9.76648 18.0176 9.80273 18.0337 9.83936 18.0485L9.84157 18.0496C9.85001 18.053 9.85729 18.0588 9.86585 18.0618C9.88199 18.0674 9.8928 18.0681 9.9144 18.0728C10.0005 18.1006 10.0873 18.118 10.1649 18.118C10.4955 18.118 10.6979 17.936 10.6979 17.936L10.71 17.9271L12.4105 16.4562L14.4729 18.4072C14.502 18.4482 14.7728 18.8199 15.3701 18.8199C15.7247 18.8199 16.006 18.6419 16.1866 18.4524C16.3673 18.2629 16.4798 18.0638 16.5276 17.8135V17.8124C16.5724 17.5758 18.4731 7.81806 18.4731 7.81806L18.4698 7.8313C18.5254 7.57734 18.54 7.34082 18.4786 7.10741C18.4172 6.87401 18.2554 6.65054 18.0549 6.53029C17.8543 6.41006 17.6581 6.37322 17.4744 6.38132ZM17.3685 7.56205C17.3658 7.57854 17.3705 7.57025 17.3663 7.58964L17.3652 7.59626L17.3641 7.60288C17.3641 7.60288 15.4869 17.2359 15.4175 17.6027C15.4226 17.575 15.3994 17.6301 15.3756 17.6634C15.3419 17.6402 15.273 17.6104 15.273 17.6104L15.2619 17.5983L12.4447 14.9334L10.4529 16.6548L11.0455 14.2823C11.0455 14.2823 14.7496 10.4479 14.9728 10.2248C15.1525 10.0462 15.1902 9.984 15.1902 9.92242C15.1902 9.83993 15.1472 9.78007 15.0511 9.78007C14.9647 9.78007 14.8485 9.86411 14.7863 9.90366C13.9766 10.4198 10.422 12.4915 8.82856 13.4183C8.57535 13.3147 6.81614 12.5945 6.21991 12.3512C6.22443 12.3492 6.22294 12.3499 6.22764 12.3479C7.61062 11.7529 10.3089 10.5906 12.7095 9.55827C13.9099 9.04208 15.0361 8.55854 15.8854 8.19435C16.7216 7.83577 17.3026 7.58899 17.3685 7.56205Z" fill="#29B6F6"/>
</svg>
