<svg width="80" height="80" viewBox="0 0 80 80" fill="none" xmlns="http://www.w3.org/2000/svg">
<rect width="80" height="80" rx="40" fill="#EDFEF5"/>
<path d="M37.2924 59.3529H32.7979C32.1774 59.3529 31.6743 58.8499 31.6743 58.2293V53.585C31.6743 52.9645 32.1774 52.4614 32.7979 52.4614H37.2924C37.913 52.4614 38.416 52.9645 38.416 53.585V58.2293C38.416 58.8499 37.913 59.3529 37.2924 59.3529Z" fill="#33CBA0"/>
<path d="M47.4052 59.3529H42.9107C42.2902 59.3529 41.7871 58.8499 41.7871 58.2293V35.6071C41.7871 34.9865 42.2902 34.4835 42.9107 34.4835H47.4052C48.0258 34.4835 48.5288 34.9865 48.5288 35.6071V58.2293C48.5288 58.8499 48.0258 59.3529 47.4052 59.3529Z" fill="#33CBA0"/>
<path d="M47.4052 27.7417H42.9107C42.2902 27.7417 41.7871 27.2386 41.7871 26.6181C41.7871 25.9976 42.2902 25.4945 42.9107 25.4945H47.4052C48.0258 25.4945 48.5288 25.9976 48.5288 26.6181C48.5288 27.2386 48.0258 27.7417 47.4052 27.7417Z" fill="#33CBA0"/>
<path d="M47.4052 23.2472H42.9107C42.2902 23.2472 41.7871 22.7442 41.7871 22.1236C41.7871 21.5031 42.2902 21 42.9107 21H47.4052C48.0258 21 48.5288 21.5031 48.5288 22.1236C48.5288 22.7442 48.0258 23.2472 47.4052 23.2472Z" fill="#33CBA0"/>
<path d="M37.2924 45.7197H32.7979C32.1774 45.7197 31.6743 45.2166 31.6743 44.596C31.6743 43.9755 32.1774 43.4724 32.7979 43.4724H37.2924C37.913 43.4724 38.416 43.9755 38.416 44.596C38.416 45.2166 37.913 45.7197 37.2924 45.7197Z" fill="#33CBA0"/>
<path d="M26.6181 41.2252H22.1236C21.5031 41.2252 21 40.7221 21 40.1016C21 39.481 21.5031 38.9779 22.1236 38.9779H26.6181C27.2386 38.9779 27.7417 39.481 27.7417 40.1016C27.7417 40.7221 27.2386 41.2252 26.6181 41.2252Z" fill="#33CBA0"/>
<path d="M37.2924 50.2142H32.7979C32.1774 50.2142 31.6743 49.7111 31.6743 49.0905C31.6743 48.47 32.1774 47.9669 32.7979 47.9669H37.2924C37.913 47.9669 38.416 48.47 38.416 49.0905C38.416 49.7111 37.913 50.2142 37.2924 50.2142Z" fill="#33CBA0"/>
<path d="M37.2924 41.2252H32.7979C32.1774 41.2252 31.6743 40.7221 31.6743 40.1016C31.6743 39.481 32.1774 38.9779 32.7979 38.9779H37.2924C37.913 38.9779 38.416 39.481 38.416 40.1016C38.416 40.7221 37.913 41.2252 37.2924 41.2252Z" fill="#33CBA0"/>
<path d="M37.2924 36.7307H32.7979C32.1774 36.7307 31.6743 36.2276 31.6743 35.6071C31.6743 34.9865 32.1774 34.4835 32.7979 34.4835H37.2924C37.913 34.4835 38.416 34.9865 38.416 35.6071C38.416 36.2276 37.913 36.7307 37.2924 36.7307Z" fill="#33CBA0"/>
<path d="M26.6181 36.7307H22.1236C21.5031 36.7307 21 36.2276 21 35.6071C21 34.9865 21.5031 34.4835 22.1236 34.4835H26.6181C27.2386 34.4835 27.7417 34.9865 27.7417 35.6071C27.7417 36.2276 27.2386 36.7307 26.6181 36.7307Z" fill="#33CBA0"/>
<path d="M26.6181 32.2362H22.1236C21.5031 32.2362 21 31.7331 21 31.1126C21 30.4921 21.5031 29.989 22.1236 29.989H26.6181C27.2386 29.989 27.7417 30.4921 27.7417 31.1126C27.7417 31.7331 27.2386 32.2362 26.6181 32.2362Z" fill="#33CBA0"/>
<path d="M58.0795 36.7307H53.585C52.9645 36.7307 52.4614 36.2276 52.4614 35.6071C52.4614 34.9865 52.9645 34.4835 53.585 34.4835H58.0795C58.7001 34.4835 59.2032 34.9865 59.2032 35.6071C59.2032 36.2276 58.7001 36.7307 58.0795 36.7307Z" fill="#33CBA0"/>
<path d="M58.0795 32.2362H53.585C52.9645 32.2362 52.4614 31.7331 52.4614 31.1126C52.4614 30.4921 52.9645 29.989 53.585 29.989H58.0795C58.7001 29.989 59.2032 30.4921 59.2032 31.1126C59.2032 31.7331 58.7001 32.2362 58.0795 32.2362Z" fill="#33CBA0"/>
<path d="M47.4052 32.2362H42.9107C42.2902 32.2362 41.7871 31.7331 41.7871 31.1126C41.7871 30.4921 42.2902 29.989 42.9107 29.989H47.4052C48.0258 29.989 48.5288 30.4921 48.5288 31.1126C48.5288 31.7331 48.0258 32.2362 47.4052 32.2362Z" fill="#33CBA0"/>
<path d="M26.6181 59.3529H22.1236C21.5031 59.3529 21 58.8499 21 58.2293V44.596C21 43.9755 21.5031 43.4724 22.1236 43.4724H26.6181C27.2386 43.4724 27.7417 43.9755 27.7417 44.596V58.2293C27.7417 58.8499 27.2386 59.3529 26.6181 59.3529Z" fill="#33CBA0"/>
<path d="M58.0795 59.3529H53.585C52.9645 59.3529 52.4614 58.8499 52.4614 58.2293V40.1016C52.4614 39.481 52.9645 38.9779 53.585 38.9779H58.0795C58.7001 38.9779 59.2032 39.481 59.2032 40.1016V58.2293C59.2032 58.8499 58.7001 59.3529 58.0795 59.3529Z" fill="#33CBA0"/>
</svg>
