<svg width="88" height="88" viewBox="0 0 88 88" fill="none" xmlns="http://www.w3.org/2000/svg">
<g filter="url(#filter0_d)">
<circle cx="44" cy="39" r="34" fill="#87BB4E"/>
</g>
<path fill-rule="evenodd" clip-rule="evenodd" d="M55.1623 48.1153L55.1525 48.1177C55.2398 46.8807 55.1364 44.3772 52.9677 43.8267C50.1084 43.1002 47.6504 41.8802 47.5673 41.8389L47.5652 41.8378C47.1592 41.1473 47.084 39.9304 47.084 39.9304L47.0352 39.9335C47.9571 38.9436 48.3604 37.7015 48.5272 36.6569C48.5949 36.7171 48.6755 36.7612 48.7668 36.7615C49.041 36.7627 49.4101 36.3693 49.8083 34.8407C50.3068 32.9278 49.8362 32.5544 49.3837 32.5603C49.3192 32.5611 49.2547 32.5693 49.1937 32.5823L49.1968 32.5623C50.4614 27.2645 47.8261 27.063 47.4066 27.0638C47.3712 27.0638 47.3516 27.0654 47.3516 27.0654C47.1273 26.068 45.8561 25.0348 44.5286 25.0009C44.3389 24.9958 44.1477 25.0116 43.9588 25.0505C43.4863 25.1477 42.8564 25.1807 42.2143 25.1792C40.801 25.1764 39.3264 25.0092 39.3264 25.0092C39.2827 25.6682 39.8477 26.1258 39.8477 26.1258C36.6308 28.0864 37.9682 32.5446 37.9682 32.5446L37.967 32.5863C37.883 32.5611 37.8624 32.5609 37.7769 32.5604C37.7702 32.5604 37.7632 32.5603 37.7557 32.5603C37.3044 32.5567 36.8382 32.9333 37.3351 34.8407C37.7297 36.3559 38.096 36.7556 38.3695 36.7615C38.4462 36.7635 38.5151 36.734 38.5757 36.6895C38.7452 37.7259 39.1493 38.9515 40.0594 39.93C40.0594 39.93 39.9744 41.3043 39.4975 41.9606C39.4975 41.9606 37.0845 43.0874 34.1757 43.8263C32.0078 44.3772 31.9027 46.8775 31.9901 48.1153C31.9901 48.1153 31.9649 49.8355 32.2419 50.5331C32.2419 50.5331 36.4774 53.2833 43.5713 53.2833L43.5851 53.1232L43.5811 53.2833C50.675 53.2833 54.9105 50.5331 54.9105 50.5331C55.1871 49.8351 55.1623 48.1153 55.1623 48.1153Z" fill="white"/>
<defs>
<filter id="filter0_d" x="0" y="0" width="88" height="88" filterUnits="userSpaceOnUse" color-interpolation-filters="sRGB">
<feFlood flood-opacity="0" result="BackgroundImageFix"/>
<feColorMatrix in="SourceAlpha" type="matrix" values="0 0 0 0 0 0 0 0 0 0 0 0 0 0 0 0 0 0 127 0"/>
<feOffset dy="5"/>
<feGaussianBlur stdDeviation="5"/>
<feColorMatrix type="matrix" values="0 0 0 0 0.529412 0 0 0 0 0.733333 0 0 0 0 0.305882 0 0 0 0.5 0"/>
<feBlend mode="normal" in2="BackgroundImageFix" result="effect1_dropShadow"/>
<feBlend mode="normal" in="SourceGraphic" in2="effect1_dropShadow" result="shape"/>
</filter>
</defs>
</svg>
