<svg width="18" height="18" viewBox="0 0 18 18" fill="none" xmlns="http://www.w3.org/2000/svg">
<path fill-rule="evenodd" clip-rule="evenodd" d="M0.520239 6.11361C-0.492066 3.34079 0.115317 1.51478 1.12762 0.567964C2.13993 -0.378853 2.47736 0.0269257 3.15223 0.567964C3.8271 1.17663 5.98669 3.27316 5.98669 3.27316C5.98669 3.27316 6.66156 3.74656 6.05417 4.55812C5.51428 5.43731 4.09705 6.04598 5.17684 7.33094C6.9315 9.42747 8.55119 11.1182 10.7108 12.809C11.993 13.891 12.6004 12.5384 13.4103 11.9298C14.2201 11.3211 14.76 11.9974 14.76 11.9974C14.76 11.9974 16.8521 14.1616 17.392 14.8379C17.9319 15.5142 18.4043 15.9199 17.4595 16.9344C16.5147 17.8812 14.625 18.4899 11.8581 17.4754C8.41622 16.1904 1.86998 9.63036 0.520239 6.11361ZM7.94381 2.93501C6.99899 2.93501 7.06648 1.58241 7.94381 1.58241C12.6004 1.51478 16.4472 5.36968 16.4472 10.1038C16.4472 10.983 15.0974 10.983 15.0974 10.1038C15.0974 6.11361 11.8581 2.86738 7.94381 2.93501ZM9.09109 6.04598C8.21376 6.04598 8.21376 4.69338 9.09109 4.69338C11.3856 4.69338 13.2753 6.58702 13.2753 8.88643C13.2753 9.76562 11.9255 9.76562 11.9255 8.88643C11.9255 7.33094 10.6433 6.04598 9.09109 6.04598Z" fill="#FEB62B"/>
</svg>
