<svg width="11" height="17" viewBox="0 0 11 17" fill="none" xmlns="http://www.w3.org/2000/svg">
<path d="M6.13578 16.1752C7.56881 14.0095 11 8.58508 11 6.13068C11 3.01627 8.53761 0.5 5.51009 0.5C2.48257 0.5 0 3.01627 0 6.13068C0 8.58508 3.45138 14.0095 4.8844 16.1752C5.18716 16.6083 5.83303 16.6083 6.13578 16.1752ZM2.94679 6.13068C2.94679 4.68692 4.09725 3.51128 5.51009 3.51128C6.92294 3.51128 8.07339 4.68692 8.07339 6.13068C8.07339 7.57444 6.92294 8.72946 5.51009 8.72946C4.09725 8.72946 2.94679 7.55382 2.94679 6.13068Z" fill="#012255"/>
</svg>
