<svg width="16" height="16" viewBox="0 0 16 16" fill="none" xmlns="http://www.w3.org/2000/svg">
<path d="M13.215 11.6946C13.1169 11.5965 13.0004 11.5188 12.8723 11.4658C12.7441 11.4127 12.6067 11.3855 12.468 11.3856C12.3293 11.3857 12.192 11.4132 12.0639 11.4664C11.9358 11.5196 11.8195 11.5975 11.7215 11.6957L11.7063 11.7108C11.6081 11.8086 11.5301 11.9248 11.4768 12.0528C11.4236 12.1808 11.3961 12.318 11.396 12.4567C11.3959 12.5953 11.4232 12.7326 11.4762 12.8607C11.5293 12.9887 11.6071 13.1051 11.7052 13.203L14.1922 15.6876C14.3885 15.8837 14.6534 15.9956 14.9308 15.9999C15.2082 16.0041 15.4764 15.9003 15.6786 15.7103C15.7813 15.6074 15.8625 15.4852 15.9176 15.3508C15.9728 15.2163 16.0008 15.0722 16 14.9269C15.9991 14.7816 15.9696 14.6379 15.9129 14.504C15.8563 14.3702 15.7737 14.2489 15.67 14.1471L13.215 11.6946Z" fill="white"/>
<path d="M6.49487 12.9778C7.778 12.9767 9.03199 12.5951 10.0983 11.8814C11.1646 11.1677 11.9954 10.1538 12.4856 8.96801C12.9758 7.78221 13.1035 6.47769 12.8524 5.21936C12.6014 3.96102 11.9829 2.80536 11.0752 1.89846C10.1675 0.991566 9.01123 0.374146 7.75266 0.124251C6.4941 -0.125644 5.1897 0.00320559 4.00435 0.494511C2.819 0.985817 1.80592 1.81752 1.09317 2.88449C0.38042 3.95146 5.38826e-07 5.20579 0 6.48892C0.00274389 8.21008 0.688093 9.85987 1.90569 11.0764C3.12329 12.2928 4.77371 12.9767 6.49487 12.9778ZM6.49487 2.13334C7.35615 2.13413 8.19787 2.39026 8.91361 2.86933C9.62936 3.34841 10.187 4.02893 10.5161 4.82488C10.8451 5.62083 10.9308 6.49646 10.7623 7.3411C10.5938 8.18573 10.1786 8.96145 9.56933 9.57019C8.96003 10.1789 8.18393 10.5934 7.33914 10.7611C6.49435 10.9288 5.6188 10.8424 4.82315 10.5126C4.02751 10.1828 3.34749 9.62452 2.86907 8.90834C2.39065 8.19215 2.1353 7.35021 2.1353 6.48892C2.13713 5.33362 2.59715 4.22622 3.41445 3.40967C4.23174 2.59312 5.33957 2.13411 6.49487 2.13334Z" fill="white"/>
</svg>
