<svg width="16" height="22" viewBox="0 0 16 22" fill="none" xmlns="http://www.w3.org/2000/svg">
<path fill-rule="evenodd" clip-rule="evenodd" d="M7.72795 0C11.9965 0 15.4559 3.44702 15.4559 7.71795C15.4559 11.7295 11.465 16.6109 9.32921 20.3097C8.02213 22.5741 7.42067 22.5514 6.12911 20.3138C3.99296 16.6143 0 11.7292 0 7.71795C0 3.44702 3.45944 0 7.72795 0V0ZM7.71795 4.14574C9.69098 4.14574 11.2902 5.74492 11.2902 7.71795C11.2902 9.69098 9.69098 11.2902 7.71795 11.2902C5.74492 11.2902 4.14574 9.69098 4.14574 7.71795C4.14574 5.74492 5.74492 4.14574 7.71795 4.14574Z" fill="#FEB62B"/>
</svg>
