<svg width="40" height="40" viewBox="0 0 40 40" fill="none" xmlns="http://www.w3.org/2000/svg">
<path d="M20 0C8.94656 0 0 8.94508 0 20C0 31.0534 8.94508 40 20 40C31.0534 40 40 31.0549 40 20C40 8.94656 31.0549 0 20 0ZM20 36.875C10.6737 36.875 3.125 29.3276 3.125 20C3.125 10.6737 10.6724 3.125 20 3.125C29.3263 3.125 36.875 10.6724 36.875 20C36.875 29.3263 29.3276 36.875 20 36.875Z" fill="#4DADFF"/>
<path d="M20 31.5237C21.0787 31.5237 21.9531 30.6493 21.9531 29.5706C21.9531 28.4919 21.0787 27.6175 20 27.6175C18.9213 27.6175 18.0469 28.4919 18.0469 29.5706C18.0469 30.6493 18.9213 31.5237 20 31.5237Z" fill="#4DADFF"/>
<path d="M20 10.0385C16.5538 10.0385 13.75 12.8423 13.75 16.2885C13.75 17.1515 14.4495 17.851 15.3125 17.851C16.1755 17.851 16.875 17.1515 16.875 16.2885C16.875 14.5654 18.2769 13.1635 20 13.1635C21.7231 13.1635 23.125 14.5654 23.125 16.2885C23.125 18.0117 21.7231 19.4135 20 19.4135C19.137 19.4135 18.4375 20.1131 18.4375 20.976V24.8823C18.4375 25.7453 19.137 26.4448 20 26.4448C20.863 26.4448 21.5625 25.7453 21.5625 24.8823V22.3408C24.2552 21.6453 26.25 19.1955 26.25 16.2885C26.25 12.8423 23.4462 10.0385 20 10.0385Z" fill="#4DADFF"/>
</svg>
