<svg width="19" height="12" viewBox="0 0 19 12" fill="none" xmlns="http://www.w3.org/2000/svg">
<path d="M18.8312 5.5148C18.8312 5.5148 14.8797 0.831299 9.50002 0.831299C4.12068 0.831299 0.168872 5.5148 0.168872 5.5148C-0.0562906 5.78164 -0.0562906 6.21839 0.168872 6.48555C0.168872 6.48523 4.12068 11.1687 9.50002 11.1687C14.8794 11.1687 18.8308 6.48523 18.8308 6.48523C19.0563 6.21839 19.0563 5.78164 18.8312 5.5148ZM9.50002 9.97896C7.30267 9.97896 5.52108 8.19769 5.52108 6.00002C5.52108 3.80234 7.30267 2.02107 9.50002 2.02107C11.6974 2.02107 13.479 3.80266 13.479 6.00002C13.479 8.19737 11.6977 9.97896 9.50002 9.97896Z" fill="#012255"/>
<path d="M11.3763 5.1674C10.9089 5.1674 10.5296 4.78847 10.5296 4.3207C10.5296 4.19859 10.5558 4.08229 10.6023 3.97763C10.2747 3.79866 9.89905 3.6969 9.49976 3.6969C8.22794 3.6969 7.19678 4.72806 7.19678 5.99989C7.19678 7.27171 8.22794 8.30319 9.49976 8.30319C10.7716 8.30319 11.8028 7.27204 11.8028 6.00021C11.8028 5.6917 11.7417 5.39741 11.6315 5.12831C11.5511 5.15351 11.4652 5.1674 11.3763 5.1674Z" fill="#012255"/>
</svg>
