<svg width="25" height="25" viewBox="0 0 25 25" fill="none" xmlns="http://www.w3.org/2000/svg">
<rect x="-0.000244141" y="0.00012207" width="25" height="25" rx="3" fill="#FBFBFB"/>
<path d="M19.2404 11.5678C19.2404 15.3243 16.1714 18.3695 12.3848 18.3695C11.1832 18.3695 10.0544 18.0622 9.07183 17.524L5.27661 18.7293L6.51376 15.0788C5.88995 14.0543 5.53069 12.8513 5.53069 11.5673C5.53114 7.81078 8.59919 4.7655 12.3858 4.7655C16.1719 4.76641 19.2404 7.81124 19.2404 11.5678ZM12.3844 5.85011C9.20661 5.85011 6.62167 8.41547 6.62167 11.5691C6.62167 12.8204 7.02965 13.9787 7.71948 14.9213L7.00005 17.0445L9.21389 16.341C10.1246 16.9384 11.2142 17.2863 12.3844 17.2863C15.5622 17.2863 18.148 14.7214 18.148 11.5678C18.1489 8.41547 15.5626 5.85011 12.3844 5.85011ZM15.8468 13.1346C15.804 13.0658 15.6919 13.0239 15.5244 12.9401C15.3573 12.8563 14.5299 12.4534 14.3765 12.3987C14.2217 12.3427 14.1097 12.3145 13.9976 12.4816C13.887 12.6487 13.5646 13.0239 13.4658 13.1359C13.3679 13.2475 13.27 13.2616 13.102 13.1792C12.934 13.0945 12.3921 12.9196 11.7501 12.3518C11.2506 11.9093 10.9132 11.3642 10.8158 11.1971C10.717 11.0305 10.8057 10.9403 10.8891 10.8574C10.9642 10.7823 11.0571 10.6625 11.1413 10.5646C11.2256 10.4677 11.2533 10.3989 11.3093 10.2873C11.3644 10.1758 11.3367 10.0788 11.2952 9.99457C11.2533 9.91079 10.9178 9.09118 10.7771 8.75742C10.6373 8.42412 10.4975 8.47921 10.3991 8.47921C10.3012 8.47921 10.1892 8.46555 10.0772 8.46555C9.96519 8.46555 9.78306 8.50608 9.62961 8.67319C9.47616 8.84029 9.04178 9.24327 9.04178 10.0638C9.04178 10.8852 9.64327 11.677 9.72751 11.7881C9.8122 11.8988 10.8904 13.6377 12.5984 14.3052C14.3073 14.9723 14.3073 14.7496 14.6151 14.7214C14.9238 14.6932 15.6095 14.3184 15.7489 13.9296C15.8891 13.5389 15.8891 13.2042 15.8468 13.1346Z" fill="#29AD1C"/>
</svg>
