<svg width="64" height="64" viewBox="0 0 64 64" fill="none" xmlns="http://www.w3.org/2000/svg">
<circle cx="32" cy="32" r="32" fill="white"/>
<path fill-rule="evenodd" clip-rule="evenodd" d="M31.2008 36.6392L24.6377 30.0761C23.628 29.0663 25.2267 27.4676 26.2364 28.4773L30.8643 33.1893V21.0728C30.8643 19.6424 33.1361 19.6424 33.1361 21.0728V33.1893L37.764 28.4773C38.8578 27.4676 40.3724 28.9822 39.3627 30.0761L32.7996 36.6392C32.3788 37.0599 31.7057 37.0599 31.2008 36.6392Z" fill="#33CBA0"/>
<path fill-rule="evenodd" clip-rule="evenodd" d="M19 42.2765V34.9561C19 33.5257 21.1877 33.5257 21.1877 34.9561V41.1827H42.8123V34.9561C42.8123 33.5257 45 33.5257 45 34.9561V42.2765C45 42.8655 44.4951 43.3704 43.9061 43.3704H20.0939C19.5049 43.3704 19 42.8655 19 42.2765Z" fill="#33CBA0"/>
</svg>
