<svg width="22" height="22" viewBox="0 0 22 22" fill="none" xmlns="http://www.w3.org/2000/svg">
<path d="M11 0C8.08262 1.82336e-07 5.28473 1.15893 3.22183 3.22183C1.15893 5.28473 1.82336e-07 8.08262 0 11C1.82336e-07 13.9174 1.15893 16.7153 3.22183 18.7782C5.28473 20.8411 8.08262 22 11 22C13.9174 22 16.7153 20.8411 18.7782 18.7782C20.8411 16.7153 22 13.9174 22 11C22 8.08262 20.8411 5.28473 18.7782 3.22183C16.7153 1.15893 13.9174 1.82336e-07 11 0ZM11 1.95776C11.3809 1.95776 11.6875 2.21136 11.6875 2.52643V10.3125H17.6863C18.0102 10.3125 18.2711 10.6191 18.2711 11C18.2711 11.3809 18.0102 11.6875 17.6863 11.6875H11.4653C11.3429 11.7809 11.1804 11.8392 11 11.8392C10.7517 11.8392 10.5367 11.7303 10.4159 11.568C10.2621 11.4444 10.1608 11.2365 10.1608 11C10.1608 10.8227 10.2194 10.6631 10.3125 10.5414V2.52643C10.3125 2.21136 10.6191 1.95776 11 1.95776Z" fill="#FEB62B"/>
</svg>
