<svg width="14" height="11" viewBox="0 0 14 11" fill="none" xmlns="http://www.w3.org/2000/svg">
<path d="M9.88977 5.95205L13.9282 9.9905C13.9821 9.84692 14 9.70333 14 9.54179V2.07513C14 2.00334 14 1.91359 13.9821 1.8418L9.88977 5.95205Z" fill="#4597DE"/>
<path d="M7.50253 7.3157L13.6589 1.15929C13.3897 0.872114 13.0307 0.692627 12.6179 0.692627H1.38203C0.969208 0.692627 0.592285 0.872114 0.341003 1.15929L6.49741 7.3157C6.78458 7.58493 7.21535 7.58493 7.50253 7.3157Z" fill="#4597DE"/>
<path d="M8.00512 7.81845C7.73589 8.08768 7.37692 8.23127 7 8.23127C6.62307 8.23127 6.2641 8.08768 5.99487 7.81845L4.63077 6.45435L0.484619 10.5825C0.735901 10.7979 1.04103 10.9236 1.38205 10.9236H12.6C12.941 10.9236 13.2641 10.7979 13.4974 10.5825L9.36922 6.45435L8.00512 7.81845Z" fill="#4597DE"/>
<path d="M4.11025 5.95205L0.0179488 1.8418C6.82014e-08 1.93154 0 2.00334 0 2.07513V9.52384C0 9.68537 0.0358973 9.82896 0.0717947 9.97255L4.11025 5.95205Z" fill="#4597DE"/>
</svg>
