<svg width="18" height="18" viewBox="0 0 18 18" fill="none" xmlns="http://www.w3.org/2000/svg">
<path d="M15.1185 7.59106C15.1396 5.17423 13.0258 2.95863 10.4064 2.65225C10.3543 2.64624 10.2976 2.63708 10.2375 2.62739C10.1078 2.60647 9.97372 2.58496 9.83841 2.58496C9.30156 2.58496 9.15805 2.95219 9.12028 3.1712C9.08354 3.38415 9.11858 3.56297 9.22426 3.70293C9.40204 3.93834 9.71486 3.98013 9.96612 4.01362C10.0398 4.02352 10.1092 4.03273 10.1674 4.04545C12.5208 4.55754 13.3133 5.36263 13.7005 7.63488C13.71 7.6904 13.7143 7.75881 13.7188 7.83137C13.7357 8.10299 13.7709 8.66809 14.3948 8.66809H14.3948C14.4468 8.66809 14.5026 8.66373 14.5607 8.6551C15.1417 8.56913 15.1235 8.05257 15.1147 7.80438C15.1123 7.73448 15.1099 7.66836 15.116 7.62439C15.1176 7.61332 15.1184 7.60219 15.1185 7.59106Z" fill="#828282"/>
<path d="M9.68585 1.76598C9.75555 1.77088 9.82154 1.77556 9.87648 1.78376C13.741 2.3625 15.5182 4.1455 16.0108 7.93818C16.0191 8.00265 16.0204 8.08128 16.0218 8.16454C16.0267 8.46085 16.0368 9.07728 16.7167 9.09006L16.7378 9.09027C16.951 9.09027 17.1206 9.02766 17.2419 8.90405C17.4535 8.68849 17.4387 8.36827 17.4268 8.11093C17.4239 8.04779 17.4211 7.98833 17.4218 7.93626C17.471 4.05734 14.023 0.53994 10.0432 0.409138C10.0267 0.408606 10.011 0.409457 9.99506 0.41164C9.98724 0.412758 9.97275 0.414142 9.94793 0.414142C9.90824 0.414142 9.85942 0.410788 9.80765 0.407381C9.74505 0.403229 9.67409 0.398438 9.60215 0.398438C8.96837 0.398438 8.84788 0.837107 8.83246 1.09861C8.79692 1.70295 9.3973 1.74548 9.68585 1.76598Z" fill="#828282"/>
<path d="M15.8246 12.8404C15.7424 12.7793 15.6575 12.716 15.5779 12.6536C15.156 12.323 14.7071 12.0182 14.273 11.7234C14.1829 11.6623 14.0928 11.6011 14.003 11.5398C13.4469 11.1594 12.9469 10.9746 12.4746 10.9746C11.8384 10.9746 11.2837 11.3169 10.8259 11.9919C10.6231 12.2911 10.3771 12.4366 10.0738 12.4366C9.89449 12.4366 9.69073 12.3868 9.46828 12.2885C7.67333 11.4958 6.3916 10.2805 5.65865 8.67636C5.30434 7.90102 5.4192 7.39421 6.04276 6.98174C6.39685 6.74771 7.05594 6.31202 7.00926 5.47769C6.95639 4.53024 4.80964 1.67948 3.90513 1.35569C3.52217 1.21855 3.11981 1.21728 2.70705 1.3525C1.66724 1.69289 0.921062 2.29069 0.548982 3.08114C0.189422 3.84493 0.205659 4.74175 0.595943 5.67467C1.72421 8.37196 3.31049 10.7236 5.3109 12.6643C7.26894 14.564 9.67554 16.1201 12.4638 17.2892C12.7151 17.3945 12.9787 17.4519 13.1712 17.4938C13.2368 17.5082 13.2934 17.5205 13.3347 17.5315C13.3574 17.5375 13.3808 17.5407 13.4043 17.5409L13.4263 17.5411C13.4263 17.5411 13.4263 17.5411 13.4264 17.5411C14.7378 17.5411 16.3124 16.3741 16.7961 15.0437C17.2197 13.8788 16.4462 13.303 15.8246 12.8404Z" fill="#828282"/>
<path d="M10.2672 4.8469C10.0427 4.85244 9.57545 4.86372 9.41149 5.32715C9.33479 5.54371 9.34398 5.73175 9.43883 5.88603C9.57802 6.11239 9.84469 6.18176 10.0873 6.21982C10.9669 6.35728 11.4187 6.83098 11.5091 7.71044C11.5511 8.12053 11.8347 8.40689 12.1988 8.40689H12.1988C12.2257 8.40689 12.2532 8.40534 12.2806 8.40209C12.7185 8.35136 12.9308 8.03806 12.9116 7.47099C12.9186 6.87915 12.6005 6.20726 12.0596 5.67207C11.5168 5.13523 10.8624 4.8329 10.2672 4.8469Z" fill="#828282"/>
</svg>
