<svg width="80" height="80" viewBox="0 0 80 80" fill="none" xmlns="http://www.w3.org/2000/svg">
<rect width="80" height="80" rx="40" fill="#33CBA0"/>
<path d="M43.5744 41.286C43.3641 41.0757 43.084 40.96 42.7856 40.96C42.4872 40.96 42.2071 41.0758 41.9969 41.286L38.4129 44.87L35.6907 42.1478L39.2747 38.5638C39.7095 38.1288 39.7095 37.4211 39.2746 36.9862L38.0336 35.7452C37.8233 35.5349 37.5432 35.4192 37.2448 35.4192C36.9464 35.4192 36.6662 35.535 36.4562 35.7453L32.8722 39.3292L30.8357 37.2927C30.6255 37.0825 30.3454 36.9668 30.047 36.9668C29.7485 36.9668 29.4684 37.0826 29.2583 37.2927L27.4684 39.0822C27.0335 39.5172 27.0335 40.2249 27.4684 40.6599L27.8925 41.084C27.7145 41.2052 27.5464 41.3434 27.391 41.4988L22.1839 46.7059C21.5329 47.3568 21.1744 48.2253 21.1744 49.1511C21.1744 50.0771 21.533 50.9456 22.1839 51.5964L24.1855 53.5979L20.5718 57.2117C19.8094 57.9741 19.8094 59.2101 20.5718 59.9725C20.953 60.3536 21.4527 60.5442 21.9522 60.5442C22.4517 60.5442 22.9514 60.3536 23.3325 59.9725L26.9463 56.3587L28.9643 58.3768C29.6151 59.0277 30.4836 59.3862 31.4096 59.3862C32.3355 59.3862 33.204 59.0277 33.8548 58.3768L39.0619 53.1697C39.2174 53.0143 39.3556 52.8461 39.4768 52.668L39.9009 53.0922C40.1112 53.3024 40.3913 53.4182 40.6896 53.4182C40.988 53.4182 41.2681 53.3024 41.4785 53.0922L43.2677 51.3026C43.4782 51.0924 43.594 50.8123 43.594 50.5138C43.594 50.2152 43.4782 49.9351 43.2679 49.725L41.2315 47.6886L44.8155 44.1045C45.2504 43.6696 45.2504 42.9618 44.8154 42.527L43.5744 41.286Z" fill="white"/>
<path d="M59.9725 20.5717C59.2101 19.8094 57.9741 19.8094 57.2118 20.5717L53.5656 24.2179L51.5639 22.2162C50.9131 21.5653 50.0447 21.2069 49.1187 21.2069C48.1927 21.2069 47.3243 21.5653 46.6735 22.2162L41.4663 27.4234C41.3109 27.5788 41.1727 27.7469 41.0515 27.925L40.6273 27.5009C40.4171 27.2906 40.137 27.1748 39.8386 27.1748C39.5402 27.1748 39.2599 27.2906 39.0498 27.5009L37.2603 29.2904C37.0499 29.5007 36.9341 29.7808 36.9341 30.0793C36.9341 30.3777 37.0499 30.6579 37.2603 30.8681L49.6924 43.3003C49.9027 43.5106 50.1828 43.6264 50.4812 43.6264C50.7797 43.6264 51.0597 43.5106 51.27 43.3003L53.0596 41.5107C53.4945 41.0758 53.4945 40.3681 53.0596 39.9331L52.6356 39.5091C52.8136 39.388 52.9817 39.2498 53.1371 39.0943L58.3442 33.8871C58.9951 33.2363 59.3537 32.3678 59.3537 31.4419C59.3537 30.516 58.9953 29.6475 58.3442 28.9967L56.3263 26.9787L59.9725 23.3325C60.7349 22.5701 60.7349 21.3341 59.9725 20.5717Z" fill="white"/>
</svg>
