<svg width="40" height="40" viewBox="0 0 40 40" fill="none" xmlns="http://www.w3.org/2000/svg">
<circle cx="20" cy="20" r="20" fill="#F2F2F2" fill-opacity="0.2"/>
<path d="M27.8229 11.9563C27.3245 11.4964 25.3103 10.0343 20.8239 10.0144C20.8239 10.0144 15.5332 9.69536 12.9541 12.0611C11.5185 13.497 11.0134 15.5982 10.9601 18.2032C10.9069 20.8082 10.8379 25.6901 15.5438 27.0138H15.5483L15.5453 29.0337C15.5453 29.0337 15.5152 29.8514 16.0536 30.0182C16.705 30.2204 17.0872 29.5989 17.709 28.9289C18.0503 28.5611 18.5217 28.0209 18.8768 27.6079C22.0952 27.8788 24.5705 27.2597 24.8516 27.1682C25.5014 26.9575 29.1785 26.4862 29.7766 21.6049C30.3939 16.5734 29.478 13.3908 27.8229 11.9563ZM28.3683 21.244C27.8635 25.3199 24.8811 25.576 24.3312 25.7524C24.0974 25.8276 21.9234 26.3685 19.1896 26.19C19.1896 26.19 17.1525 28.6475 16.5162 29.2865C16.4169 29.3864 16.3001 29.4268 16.2222 29.4069C16.1126 29.3801 16.0825 29.2504 16.0837 29.0608C16.0855 28.7899 16.1012 25.7042 16.1012 25.7042C16.1012 25.7042 16.0988 25.7042 16.1012 25.7042C12.1204 24.599 12.3525 20.444 12.3976 18.2682C12.4428 16.0924 12.8515 14.31 14.0657 13.1112C16.2472 11.1352 20.7411 11.4305 20.7411 11.4305C24.5362 11.4471 26.3547 12.5899 26.7764 12.9727C28.1765 14.1715 28.8899 17.0402 28.3683 21.2428V21.244Z" fill="#7360F2"/>
<path fill-rule="evenodd" clip-rule="evenodd" d="M20.901 16.5081C20.9083 16.3681 21.0276 16.2606 21.1676 16.2679C21.6912 16.2952 22.1267 16.4537 22.437 16.7745C22.746 17.094 22.8975 17.5404 22.9241 18.0765C22.9311 18.2165 22.8232 18.3356 22.6833 18.3425C22.5433 18.3494 22.4242 18.2416 22.4173 18.1017C22.3945 17.6427 22.2686 17.3303 22.0722 17.1272C21.877 16.9254 21.5791 16.7975 21.1411 16.7747C21.0012 16.7674 20.8937 16.648 20.901 16.5081Z" fill="#7360F2"/>
<path fill-rule="evenodd" clip-rule="evenodd" d="M20.5163 15.1418C20.5265 15.0021 20.6481 14.8971 20.7879 14.9073C21.8534 14.9853 22.711 15.3493 23.3357 16.0313L23.3358 16.0314C23.9537 16.7066 24.2474 17.5465 24.2261 18.5317C24.223 18.6718 24.107 18.7829 23.9669 18.7799C23.8268 18.7769 23.7157 18.6608 23.7187 18.5207C23.7375 17.6519 23.482 16.9428 22.9614 16.3739C22.4424 15.8075 21.7169 15.4841 20.7508 15.4134C20.6111 15.4032 20.5061 15.2816 20.5163 15.1418Z" fill="#7360F2"/>
<path fill-rule="evenodd" clip-rule="evenodd" d="M20.0685 13.8419C20.0695 13.7018 20.1838 13.589 20.324 13.59C21.7964 13.6002 23.0411 14.0904 24.0404 15.0646C25.048 16.0469 25.5463 17.3842 25.559 19.0451C25.56 19.1852 25.4473 19.2997 25.3072 19.3008C25.1671 19.3018 25.0526 19.1891 25.0515 19.049C25.0397 17.4926 24.5767 16.2961 23.6861 15.4279C22.7872 14.5517 21.6712 14.1068 20.3204 14.0974C20.1803 14.0964 20.0675 13.9821 20.0685 13.8419Z" fill="#7360F2"/>
<path d="M21.2046 21.4878C21.2046 21.4878 21.5613 21.5179 21.7533 21.2814L22.1277 20.8103C22.3083 20.5768 22.7442 20.4278 23.1709 20.6656C23.4908 20.848 23.8013 21.0463 24.1013 21.2597C24.3845 21.468 24.9645 21.9519 24.9663 21.9519C25.2426 22.1852 25.3064 22.5277 25.1183 22.8889C25.1183 22.891 25.1168 22.8946 25.1168 22.8964C24.9096 23.2556 24.6466 23.5795 24.3375 23.856C24.3339 23.8578 24.3339 23.8596 24.3306 23.8614C24.0621 24.0857 23.7984 24.2132 23.5393 24.2439C23.5012 24.2506 23.4624 24.253 23.4238 24.2511C23.3095 24.2522 23.1959 24.2348 23.0873 24.1994L23.0788 24.187C22.6797 24.0745 22.0134 23.7927 20.9037 23.1806C20.2615 22.8305 19.6501 22.4266 19.0761 21.9733C18.7884 21.7462 18.5139 21.5029 18.2541 21.2443L18.2264 21.2167L18.1987 21.189L18.171 21.1613C18.1617 21.1522 18.1527 21.1429 18.1434 21.1336C17.8848 20.8738 17.6415 20.5993 17.4144 20.3116C16.9612 19.7376 16.5573 19.1264 16.2071 18.4843C15.595 17.3743 15.3132 16.7086 15.2007 16.3089L15.1883 16.3004C15.153 16.1918 15.1357 16.0781 15.1369 15.9639C15.1348 15.9253 15.1371 15.8865 15.1438 15.8484C15.1761 15.5897 15.3038 15.3258 15.5269 15.0565C15.5287 15.0532 15.5305 15.0532 15.5323 15.0496C15.8087 14.7405 16.1327 14.4776 16.4919 14.2706C16.4937 14.2706 16.4973 14.2688 16.4994 14.2688C16.8606 14.0807 17.2031 14.1445 17.4361 14.4193C17.4379 14.4211 17.9209 15.0011 18.1283 15.2843C18.3418 15.5846 18.5401 15.8954 18.7224 16.2156C18.9602 16.642 18.8112 17.0788 18.5777 17.2588L18.1066 17.6332C17.8689 17.8252 17.9002 18.1819 17.9002 18.1819C17.9002 18.1819 18.5978 20.8224 21.2046 21.4878Z" fill="#7360F2"/>
</svg>
