<svg width="20" height="15" viewBox="0 0 20 15" fill="none" xmlns="http://www.w3.org/2000/svg">
<path d="M14.1282 7.51339L19.8974 13.2826C19.9743 13.0775 20 12.8724 20 12.6416V1.97493C20 1.87237 20 1.74417 19.9743 1.6416L14.1282 7.51339Z" fill="#FEB62B"/>
<path d="M10.7178 9.46153L19.5127 0.666666C19.1281 0.25641 18.6152 0 18.0255 0H1.97424C1.3845 0 0.846034 0.25641 0.487061 0.666666L9.28192 9.46153C9.69218 9.84614 10.3076 9.84614 10.7178 9.46153Z" fill="#FEB62B"/>
<path d="M11.436 10.1797C11.0513 10.5643 10.5385 10.7694 10.0001 10.7694C9.4616 10.7694 8.94878 10.5643 8.56417 10.1797L6.61545 8.23096L0.692383 14.1284C1.05136 14.4361 1.48725 14.6156 1.97443 14.6156H18.0001C18.4872 14.6156 18.9488 14.4361 19.2821 14.1284L13.3847 8.23096L11.436 10.1797Z" fill="#FEB62B"/>
<path d="M5.87179 7.51339L0.0256411 1.6416C9.74305e-08 1.76981 0 1.87237 0 1.97493V12.6159C0 12.8467 0.0512819 13.0518 0.102564 13.257L5.87179 7.51339Z" fill="#FEB62B"/>
</svg>
