<svg width="25" height="25" viewBox="0 0 25 25" fill="none" xmlns="http://www.w3.org/2000/svg">
<rect width="25" height="25" rx="3" fill="#FBFBFB"/>
<path d="M16.6143 11.3033C16.6279 9.75078 15.27 8.32756 13.5874 8.13075C13.554 8.12689 13.5175 8.121 13.4789 8.11478C13.3956 8.10134 13.3095 8.08752 13.2226 8.08752C12.8777 8.08752 12.7855 8.32342 12.7613 8.4641C12.7377 8.60089 12.7602 8.71576 12.8281 8.80567C12.9423 8.95689 13.1432 8.98373 13.3046 9.00524C13.3519 9.0116 13.3965 9.01752 13.4339 9.02569C14.9457 9.35464 15.4547 9.8718 15.7035 11.3314C15.7095 11.3671 15.7123 11.411 15.7152 11.4576C15.726 11.6321 15.7487 11.9951 16.1494 11.9951H16.1495C16.1828 11.9951 16.2187 11.9923 16.256 11.9868C16.6292 11.9315 16.6175 11.5997 16.6119 11.4403C16.6103 11.3954 16.6088 11.3529 16.6127 11.3247C16.6137 11.3176 16.6143 11.3104 16.6143 11.3033Z" fill="#7B519D"/>
<path d="M13.1246 7.56144C13.1694 7.56459 13.2118 7.5676 13.2471 7.57286C15.7295 7.94462 16.8711 9.08996 17.1875 11.5262C17.1929 11.5677 17.1937 11.6182 17.1946 11.6716C17.1977 11.862 17.2042 12.258 17.6409 12.2662L17.6545 12.2663C17.7914 12.2663 17.9004 12.2261 17.9783 12.1467C18.1142 12.0082 18.1048 11.8025 18.0971 11.6372C18.0953 11.5967 18.0935 11.5585 18.0939 11.525C18.1255 9.03333 15.9106 6.77388 13.3542 6.68986C13.3436 6.68952 13.3334 6.69006 13.3232 6.69146C13.3182 6.69218 13.3089 6.69307 13.293 6.69307C13.2675 6.69307 13.2361 6.69092 13.2028 6.68873C13.1626 6.68606 13.117 6.68298 13.0708 6.68298C12.6637 6.68298 12.5863 6.96477 12.5764 7.13275C12.5536 7.52095 12.9392 7.54828 13.1246 7.56144Z" fill="#7B519D"/>
<path d="M17.0677 14.6752C17.0149 14.6359 16.9604 14.5953 16.9093 14.5552C16.6382 14.3428 16.3499 14.147 16.071 13.9577C16.0131 13.9184 15.9553 13.8791 15.8976 13.8397C15.5404 13.5954 15.2192 13.4767 14.9158 13.4767C14.5071 13.4767 14.1508 13.6966 13.8568 14.1301C13.7265 14.3224 13.5684 14.4158 13.3736 14.4158C13.2584 14.4158 13.1276 14.3838 12.9847 14.3207C11.8316 13.8115 11.0083 13.0308 10.5375 12.0004C10.3099 11.5023 10.3837 11.1768 10.7842 10.9118C11.0117 10.7615 11.4351 10.4816 11.4051 9.94567C11.3711 9.33706 9.99211 7.50583 9.41109 7.29784C9.16509 7.20975 8.90663 7.20893 8.64149 7.29579C7.97355 7.51444 7.49423 7.89845 7.25522 8.40621C7.02425 8.89684 7.03468 9.47292 7.28539 10.0722C8.01014 11.8048 9.02912 13.3155 10.3141 14.5621C11.5719 15.7824 13.1178 16.7819 14.9089 17.5329C15.0703 17.6006 15.2396 17.6375 15.3633 17.6644C15.4054 17.6736 15.4418 17.6815 15.4683 17.6886C15.4829 17.6924 15.4979 17.6945 15.513 17.6947L15.5271 17.6947C15.5272 17.6947 15.5271 17.6947 15.5272 17.6947C16.3696 17.6947 17.3811 16.9451 17.6918 16.0905C17.9639 15.3422 17.467 14.9724 17.0677 14.6752Z" fill="#7B519D"/>
<path d="M13.498 9.54058C13.3538 9.54414 13.0536 9.55139 12.9483 9.84908C12.899 9.98819 12.9049 10.109 12.9659 10.2081C13.0553 10.3535 13.2266 10.398 13.3824 10.4225C13.9475 10.5108 14.2377 10.8151 14.2957 11.38C14.3227 11.6434 14.5049 11.8274 14.7387 11.8274H14.7388C14.756 11.8274 14.7737 11.8264 14.7913 11.8243C15.0726 11.7917 15.209 11.5905 15.1966 11.2262C15.2011 10.846 14.9968 10.4144 14.6493 10.0706C14.3006 9.72579 13.8803 9.53159 13.498 9.54058Z" fill="#7B519D"/>
</svg>
