<svg width="23" height="23" viewBox="0 0 23 23" fill="none" xmlns="http://www.w3.org/2000/svg">
<rect y="0.741943" width="22.2258" height="22.2258" rx="3.38298" fill="white"/>
<path d="M17.0397 7.77041C17.0397 6.79155 16.176 5.92786 15.1971 5.92786H7.76931C6.79045 5.92786 5.92676 6.79155 5.92676 7.77041V15.1982C5.92676 16.1771 6.79045 17.0408 7.76931 17.0408H11.512V12.8374H10.1301V10.9949H11.512V10.2463C11.512 8.97959 12.4333 7.88557 13.5849 7.88557H15.082V9.72812H13.5849C13.4121 9.72812 13.2394 9.90086 13.2394 10.2463V10.9949H15.082V12.8374H13.2394V17.0408H15.1971C16.176 17.0408 17.0397 16.1771 17.0397 15.1982V7.77041Z" fill="#2787F5"/>
</svg>
