<svg width="25" height="25" viewBox="0 0 25 25" fill="none" xmlns="http://www.w3.org/2000/svg">
<circle cx="12.5" cy="12.5" r="12.5" fill="#E0E0E0"/>
<path d="M18 13.5189V17H15.8475V13.7311C15.8475 12.9245 15.5336 12.3726 14.7713 12.3726C14.1883 12.3726 13.8296 12.7547 13.6951 13.0943C13.6502 13.2217 13.6054 13.3915 13.6054 13.6038V17H11.4529C11.4529 17 11.4978 11.4811 11.4529 10.9292H13.6054V11.7783C13.8744 11.3538 14.4126 10.7594 15.5336 10.7594C16.9238 10.7594 18 11.6509 18 13.5189ZM9.21076 8C8.49327 8 8 8.46698 8 9.06132C8 9.65566 8.44843 10.1226 9.16592 10.1226C9.92825 10.1226 10.3767 9.65566 10.3767 9.06132C10.4215 8.42453 9.97309 8 9.21076 8ZM8.13453 17H10.287V10.9292H8.13453V17Z" fill="#333333"/>
</svg>
