<svg width="15" height="15" viewBox="0 0 15 15" fill="none" xmlns="http://www.w3.org/2000/svg">
<path d="M5.27573 7.28404C5.27573 6.03936 6.31271 5.03008 7.59224 5.03008C8.87177 5.03008 9.90931 6.03936 9.90931 7.28404C9.90931 8.52872 8.87177 9.538 7.59224 9.538C6.31271 9.538 5.27573 8.52872 5.27573 7.28404ZM4.02317 7.28404C4.02317 9.20156 5.62104 10.7559 7.59224 10.7559C9.56344 10.7559 11.1613 9.20156 11.1613 7.28404C11.1613 5.36653 9.56344 3.81218 7.59224 3.81218C5.62104 3.81218 4.02317 5.36653 4.02317 7.28404ZM10.4685 3.67452C10.4685 3.83499 10.5173 3.99188 10.6089 4.12534C10.7005 4.2588 10.8307 4.36285 10.9831 4.42432C11.1355 4.48578 11.3032 4.50192 11.465 4.47067C11.6268 4.43943 11.7755 4.36221 11.8922 4.24879C12.0088 4.13536 12.0883 3.99082 12.1206 3.83345C12.1528 3.67607 12.1364 3.51293 12.0733 3.36465C12.0103 3.21636 11.9034 3.08961 11.7663 3.0004C11.6291 2.91119 11.4679 2.86354 11.3029 2.86348H11.3026C11.0815 2.86358 10.8694 2.94905 10.7131 3.10112C10.5567 3.25319 10.4687 3.45942 10.4685 3.67452ZM4.78418 12.7876C4.10652 12.7576 3.7382 12.6478 3.49342 12.555C3.16891 12.4321 2.93737 12.2858 2.69393 12.0493C2.45049 11.8128 2.2998 11.5878 2.17402 11.2721C2.0786 11.0341 1.96573 10.6757 1.93492 10.0165C1.90122 9.30379 1.8945 9.0897 1.8945 7.2841C1.8945 5.4785 1.90178 5.265 1.93492 4.5517C1.96578 3.8925 2.07949 3.5348 2.17402 3.2961C2.30036 2.98042 2.45083 2.75519 2.69393 2.51838C2.93704 2.28157 3.16835 2.13499 3.49342 2.01263C3.73808 1.91981 4.10652 1.81001 4.78418 1.78004C5.51684 1.74726 5.73692 1.74072 7.59224 1.74072C9.44756 1.74072 9.66787 1.74781 10.4011 1.78004C11.0788 1.81006 11.4465 1.92068 11.6919 2.01263C12.0164 2.13499 12.2479 2.2819 12.4914 2.51838C12.7348 2.75487 12.885 2.98042 13.0113 3.2961C13.1067 3.5341 13.2196 3.8925 13.2504 4.5517C13.2841 5.265 13.2908 5.4785 13.2908 7.2841C13.2908 9.0897 13.2841 9.30319 13.2504 10.0165C13.2195 10.6757 13.1061 11.034 13.0113 11.2721C12.885 11.5878 12.7345 11.813 12.4914 12.0493C12.2483 12.2855 12.0164 12.4321 11.6919 12.555C11.4472 12.6478 11.0788 12.7576 10.4011 12.7876C9.66848 12.8204 9.4484 12.8269 7.59224 12.8269C5.73609 12.8269 5.51661 12.8204 4.78418 12.7876ZM4.72663 0.563652C3.98669 0.596431 3.48108 0.710562 3.03952 0.877702C2.58222 1.05031 2.1951 1.28187 1.80825 1.65758C1.42141 2.0333 1.18397 2.41047 1.00654 2.85531C0.834718 3.28512 0.717391 3.77669 0.683695 4.49648C0.649442 5.2174 0.641602 5.44788 0.641602 7.28404C0.641602 9.1202 0.649442 9.35069 0.683695 10.0716C0.717391 10.7914 0.834718 11.283 1.00654 11.7128C1.18397 12.1573 1.42146 12.535 1.80825 12.9105C2.19504 13.2861 2.58222 13.5173 3.03952 13.6904C3.48191 13.8575 3.98669 13.9717 4.72663 14.0044C5.46813 14.0372 5.70467 14.0454 7.59224 14.0454C9.47981 14.0454 9.71675 14.0378 10.4579 14.0044C11.1978 13.9717 11.7031 13.8575 12.145 13.6904C12.602 13.5173 12.9894 13.2862 13.3762 12.9105C13.7631 12.5348 14 12.1573 14.1779 11.7128C14.3498 11.283 14.4676 10.7914 14.5008 10.0716C14.5345 9.35014 14.5423 9.1202 14.5423 7.28404C14.5423 5.44788 14.5345 5.2174 14.5008 4.49648C14.4671 3.77664 14.3498 3.28485 14.1779 2.85531C14 2.41074 13.7625 2.03389 13.3762 1.65758C12.99 1.28127 12.602 1.05031 12.1455 0.877702C11.7031 0.710562 11.1978 0.59589 10.4584 0.563652C9.7173 0.530873 9.48037 0.522705 7.5928 0.522705C5.70523 0.522705 5.46813 0.530332 4.72663 0.563652Z" fill="white"/>
<path d="M5.27573 7.28404C5.27573 6.03936 6.31271 5.03008 7.59224 5.03008C8.87177 5.03008 9.90931 6.03936 9.90931 7.28404C9.90931 8.52872 8.87177 9.538 7.59224 9.538C6.31271 9.538 5.27573 8.52872 5.27573 7.28404ZM4.02317 7.28404C4.02317 9.20156 5.62104 10.7559 7.59224 10.7559C9.56344 10.7559 11.1613 9.20156 11.1613 7.28404C11.1613 5.36653 9.56344 3.81218 7.59224 3.81218C5.62104 3.81218 4.02317 5.36653 4.02317 7.28404ZM10.4685 3.67452C10.4685 3.83499 10.5173 3.99188 10.6089 4.12534C10.7005 4.2588 10.8307 4.36285 10.9831 4.42432C11.1355 4.48578 11.3032 4.50192 11.465 4.47067C11.6268 4.43943 11.7755 4.36221 11.8922 4.24879C12.0088 4.13536 12.0883 3.99082 12.1206 3.83345C12.1528 3.67607 12.1364 3.51293 12.0733 3.36465C12.0103 3.21636 11.9034 3.08961 11.7663 3.0004C11.6291 2.91119 11.4679 2.86354 11.3029 2.86348H11.3026C11.0815 2.86358 10.8694 2.94905 10.7131 3.10112C10.5567 3.25319 10.4687 3.45942 10.4685 3.67452ZM4.78418 12.7876C4.10652 12.7576 3.7382 12.6478 3.49342 12.555C3.16891 12.4321 2.93737 12.2858 2.69393 12.0493C2.45049 11.8128 2.2998 11.5878 2.17402 11.2721C2.0786 11.0341 1.96573 10.6757 1.93492 10.0165C1.90122 9.30379 1.8945 9.0897 1.8945 7.2841C1.8945 5.4785 1.90178 5.265 1.93492 4.5517C1.96578 3.8925 2.07949 3.5348 2.17402 3.2961C2.30036 2.98042 2.45083 2.75519 2.69393 2.51838C2.93704 2.28157 3.16835 2.13499 3.49342 2.01263C3.73808 1.91981 4.10652 1.81001 4.78418 1.78004C5.51684 1.74726 5.73692 1.74072 7.59224 1.74072C9.44756 1.74072 9.66787 1.74781 10.4011 1.78004C11.0788 1.81006 11.4465 1.92068 11.6919 2.01263C12.0164 2.13499 12.2479 2.2819 12.4914 2.51838C12.7348 2.75487 12.885 2.98042 13.0113 3.2961C13.1067 3.5341 13.2196 3.8925 13.2504 4.5517C13.2841 5.265 13.2908 5.4785 13.2908 7.2841C13.2908 9.0897 13.2841 9.30319 13.2504 10.0165C13.2195 10.6757 13.1061 11.034 13.0113 11.2721C12.885 11.5878 12.7345 11.813 12.4914 12.0493C12.2483 12.2855 12.0164 12.4321 11.6919 12.555C11.4472 12.6478 11.0788 12.7576 10.4011 12.7876C9.66848 12.8204 9.4484 12.8269 7.59224 12.8269C5.73609 12.8269 5.51661 12.8204 4.78418 12.7876ZM4.72663 0.563652C3.98669 0.596431 3.48108 0.710562 3.03952 0.877702C2.58222 1.05031 2.1951 1.28187 1.80825 1.65758C1.42141 2.0333 1.18397 2.41047 1.00654 2.85531C0.834718 3.28512 0.717391 3.77669 0.683695 4.49648C0.649442 5.2174 0.641602 5.44788 0.641602 7.28404C0.641602 9.1202 0.649442 9.35069 0.683695 10.0716C0.717391 10.7914 0.834718 11.283 1.00654 11.7128C1.18397 12.1573 1.42146 12.535 1.80825 12.9105C2.19504 13.2861 2.58222 13.5173 3.03952 13.6904C3.48191 13.8575 3.98669 13.9717 4.72663 14.0044C5.46813 14.0372 5.70467 14.0454 7.59224 14.0454C9.47981 14.0454 9.71675 14.0378 10.4579 14.0044C11.1978 13.9717 11.7031 13.8575 12.145 13.6904C12.602 13.5173 12.9894 13.2862 13.3762 12.9105C13.7631 12.5348 14 12.1573 14.1779 11.7128C14.3498 11.283 14.4676 10.7914 14.5008 10.0716C14.5345 9.35014 14.5423 9.1202 14.5423 7.28404C14.5423 5.44788 14.5345 5.2174 14.5008 4.49648C14.4671 3.77664 14.3498 3.28485 14.1779 2.85531C14 2.41074 13.7625 2.03389 13.3762 1.65758C12.99 1.28127 12.602 1.05031 12.1455 0.877702C11.7031 0.710562 11.1978 0.59589 10.4584 0.563652C9.7173 0.530873 9.48037 0.522705 7.5928 0.522705C5.70523 0.522705 5.46813 0.530332 4.72663 0.563652Z" fill="white"/>
</svg>
