<svg width="40" height="40" viewBox="0 0 40 40" fill="none" xmlns="http://www.w3.org/2000/svg">
<path d="M27.4558 16.921C27.4474 16.2899 27.3292 15.665 27.1066 15.0744C26.9136 14.5762 26.6187 14.1237 26.2409 13.7459C25.8631 13.3681 25.4107 13.0733 24.9124 12.8802C24.3294 12.6613 23.7134 12.543 23.0908 12.5302C22.2891 12.4944 22.0349 12.4844 19.9999 12.4844C17.9649 12.4844 17.7041 12.4844 16.9083 12.5302C16.2859 12.5431 15.6702 12.6614 15.0874 12.8802C14.5892 13.0731 14.1366 13.3679 13.7588 13.7457C13.381 14.1236 13.0862 14.5761 12.8933 15.0744C12.674 15.657 12.5559 16.2728 12.5441 16.8952C12.5083 17.6977 12.4974 17.9519 12.4974 19.9869C12.4974 22.0219 12.4974 22.2819 12.5441 23.0785C12.5566 23.7019 12.6741 24.3169 12.8933 24.901C13.0865 25.3992 13.3815 25.8515 13.7595 26.2292C14.1374 26.6069 14.59 26.9015 15.0883 27.0944C15.6695 27.322 16.2853 27.4489 16.9091 27.4694C17.7116 27.5052 17.9658 27.516 20.0008 27.516C22.0358 27.516 22.2966 27.516 23.0924 27.4694C23.7151 27.4571 24.3311 27.339 24.9141 27.1202C25.4122 26.9269 25.8645 26.632 26.2423 26.2542C26.6201 25.8765 26.915 25.4241 27.1083 24.926C27.3274 24.3427 27.4449 23.7277 27.4574 23.1035C27.4933 22.3019 27.5041 22.0477 27.5041 20.0119C27.5024 17.9769 27.5024 17.7185 27.4558 16.921ZM19.9949 23.8352C17.8666 23.8352 16.1424 22.111 16.1424 19.9827C16.1424 17.8544 17.8666 16.1302 19.9949 16.1302C21.0167 16.1302 21.9966 16.5361 22.7191 17.2586C23.4416 17.9811 23.8474 18.961 23.8474 19.9827C23.8474 21.0045 23.4416 21.9844 22.7191 22.7068C21.9966 23.4293 21.0167 23.8352 19.9949 23.8352ZM24.0008 16.886C23.5033 16.886 23.1024 16.4844 23.1024 15.9877C23.1024 15.8698 23.1257 15.753 23.1708 15.6441C23.2159 15.5352 23.2821 15.4362 23.3654 15.3528C23.4488 15.2694 23.5478 15.2033 23.6567 15.1581C23.7657 15.113 23.8824 15.0898 24.0004 15.0898C24.1183 15.0898 24.235 15.113 24.344 15.1581C24.4529 15.2033 24.5519 15.2694 24.6353 15.3528C24.7187 15.4362 24.7848 15.5352 24.8299 15.6441C24.8751 15.753 24.8983 15.8698 24.8983 15.9877C24.8983 16.4844 24.4966 16.886 24.0008 16.886Z" fill="url(#paint0_linear)"/>
<path d="M19.9951 22.485C21.3772 22.485 22.4976 21.3646 22.4976 19.9825C22.4976 18.6004 21.3772 17.48 19.9951 17.48C18.613 17.48 17.4926 18.6004 17.4926 19.9825C17.4926 21.3646 18.613 22.485 19.9951 22.485Z" fill="url(#paint1_linear)"/>
<circle cx="20" cy="20" r="19.5" stroke="url(#paint2_linear)"/>
<defs>
<linearGradient id="paint0_linear" x1="12.4974" y1="20.0002" x2="27.5041" y2="20.0002" gradientUnits="userSpaceOnUse">
<stop stop-color="#1CB86D"/>
<stop offset="1" stop-color="#00B6EF"/>
</linearGradient>
<linearGradient id="paint1_linear" x1="17.4926" y1="19.9825" x2="22.4976" y2="19.9825" gradientUnits="userSpaceOnUse">
<stop stop-color="#1CB86D"/>
<stop offset="1" stop-color="#00B6EF"/>
</linearGradient>
<linearGradient id="paint2_linear" x1="-2.23517e-07" y1="20" x2="40" y2="20" gradientUnits="userSpaceOnUse">
<stop stop-color="#1CB86D"/>
<stop offset="1" stop-color="#00B6EF"/>
</linearGradient>
</defs>
</svg>
