<svg width="40" height="40" viewBox="0 0 40 40" fill="none" xmlns="http://www.w3.org/2000/svg">
<circle cx="20" cy="20" r="20" fill="url(#paint0_radial)"/>
<circle cx="20" cy="20" r="20" fill="url(#paint1_radial)"/>
<path d="M16.846 20.0546C16.846 18.2838 18.2811 16.8478 20.052 16.8478C21.8228 16.8478 23.2587 18.2838 23.2587 20.0546C23.2587 21.8255 21.8228 23.2614 20.052 23.2614C18.2811 23.2614 16.846 21.8255 16.846 20.0546ZM15.1124 20.0546C15.1124 22.7827 17.3239 24.9941 20.052 24.9941C22.7801 24.9941 24.9915 22.7827 24.9915 20.0546C24.9915 17.3265 22.7801 15.1151 20.052 15.1151C17.3239 15.1151 15.1124 17.3265 15.1124 20.0546ZM24.0327 14.9192C24.0326 15.1475 24.1002 15.3708 24.227 15.5606C24.3537 15.7505 24.534 15.8985 24.7449 15.986C24.9558 16.0735 25.1878 16.0964 25.4118 16.052C25.6357 16.0075 25.8415 15.8976 26.003 15.7363C26.1645 15.5749 26.2745 15.3693 26.3191 15.1454C26.3637 14.9214 26.341 14.6893 26.2537 14.4784C26.1664 14.2674 26.0185 14.0871 25.8287 13.9601C25.639 13.8332 25.4158 13.7654 25.1875 13.7653H25.187C24.881 13.7655 24.5875 13.8871 24.3711 14.1034C24.1547 14.3198 24.033 14.6132 24.0327 14.9192ZM16.1657 27.8847C15.2278 27.842 14.718 27.6858 14.3793 27.5538C13.9302 27.3789 13.6097 27.1707 13.2728 26.8342C12.9359 26.4978 12.7273 26.1777 12.5532 25.7285C12.4212 25.3899 12.265 24.88 12.2223 23.9422C12.1757 22.9282 12.1664 22.6236 12.1664 20.0547C12.1664 17.4858 12.1765 17.1821 12.2223 16.1672C12.265 15.2294 12.4224 14.7205 12.5532 14.3808C12.7281 13.9317 12.9363 13.6113 13.2728 13.2744C13.6092 12.9375 13.9294 12.7289 14.3793 12.5548C14.7179 12.4228 15.2278 12.2665 16.1657 12.2239C17.1796 12.1773 17.4842 12.168 20.052 12.168C22.6197 12.168 22.9246 12.178 23.9394 12.2239C24.8773 12.2666 25.3862 12.424 25.7258 12.5548C26.1749 12.7289 26.4954 12.9379 26.8323 13.2744C27.1692 13.6108 27.377 13.9317 27.5518 14.3808C27.6839 14.7195 27.8401 15.2294 27.8827 16.1672C27.9294 17.1821 27.9387 17.4858 27.9387 20.0547C27.9387 22.6236 27.9294 22.9273 27.8827 23.9422C27.84 24.88 27.683 25.3898 27.5518 25.7285C27.377 26.1777 27.1687 26.4981 26.8323 26.8342C26.4958 27.1704 26.1749 27.3789 25.7258 27.5538C25.3872 27.6859 24.8773 27.8421 23.9394 27.8847C22.9254 27.9313 22.6208 27.9407 20.052 27.9407C17.4831 27.9407 17.1793 27.9313 16.1657 27.8847ZM16.086 10.4933C15.062 10.54 14.3622 10.7023 13.7511 10.9401C13.1182 11.1857 12.5824 11.5151 12.047 12.0497C11.5116 12.5842 11.183 13.1208 10.9375 13.7537C10.6997 14.3652 10.5373 15.0646 10.4907 16.0887C10.4433 17.1143 10.4324 17.4423 10.4324 20.0546C10.4324 22.667 10.4433 22.9949 10.4907 24.0206C10.5373 25.0447 10.6997 25.744 10.9375 26.3555C11.183 26.988 11.5117 27.5252 12.047 28.0596C12.5823 28.5939 13.1182 28.9228 13.7511 29.1691C14.3633 29.4069 15.062 29.5693 16.086 29.6159C17.1122 29.6626 17.4396 29.6742 20.052 29.6742C22.6643 29.6742 22.9922 29.6633 24.0179 29.6159C25.042 29.5693 25.7414 29.4069 26.3528 29.1691C26.9854 28.9228 27.5215 28.5941 28.0569 28.0596C28.5923 27.525 28.9202 26.988 29.1665 26.3555C29.4043 25.744 29.5674 25.0446 29.6133 24.0206C29.6599 22.9941 29.6707 22.667 29.6707 20.0546C29.6707 17.4423 29.6599 17.1143 29.6133 16.0887C29.5666 15.0645 29.4043 14.3648 29.1665 13.7537C28.9202 13.1212 28.5914 12.5851 28.0569 12.0497C27.5224 11.5143 26.9854 11.1857 26.3536 10.9401C25.7414 10.7023 25.042 10.5392 24.0187 10.4933C22.993 10.4467 22.6651 10.4351 20.0527 10.4351C17.4404 10.4351 17.1122 10.4459 16.086 10.4933Z" fill="white"/>
<path d="M16.846 20.0546C16.846 18.2838 18.2811 16.8478 20.052 16.8478C21.8228 16.8478 23.2587 18.2838 23.2587 20.0546C23.2587 21.8255 21.8228 23.2614 20.052 23.2614C18.2811 23.2614 16.846 21.8255 16.846 20.0546ZM15.1124 20.0546C15.1124 22.7827 17.3239 24.9941 20.052 24.9941C22.7801 24.9941 24.9915 22.7827 24.9915 20.0546C24.9915 17.3265 22.7801 15.1151 20.052 15.1151C17.3239 15.1151 15.1124 17.3265 15.1124 20.0546ZM24.0327 14.9192C24.0326 15.1475 24.1002 15.3708 24.227 15.5606C24.3537 15.7505 24.534 15.8985 24.7449 15.986C24.9558 16.0735 25.1878 16.0964 25.4118 16.052C25.6357 16.0075 25.8415 15.8976 26.003 15.7363C26.1645 15.5749 26.2745 15.3693 26.3191 15.1454C26.3637 14.9214 26.341 14.6893 26.2537 14.4784C26.1664 14.2674 26.0185 14.0871 25.8287 13.9601C25.639 13.8332 25.4158 13.7654 25.1875 13.7653H25.187C24.881 13.7655 24.5875 13.8871 24.3711 14.1034C24.1547 14.3198 24.033 14.6132 24.0327 14.9192ZM16.1657 27.8847C15.2278 27.842 14.718 27.6858 14.3793 27.5538C13.9302 27.3789 13.6097 27.1707 13.2728 26.8342C12.9359 26.4978 12.7273 26.1777 12.5532 25.7285C12.4212 25.3899 12.265 24.88 12.2223 23.9422C12.1757 22.9282 12.1664 22.6236 12.1664 20.0547C12.1664 17.4858 12.1765 17.1821 12.2223 16.1672C12.265 15.2294 12.4224 14.7205 12.5532 14.3808C12.7281 13.9317 12.9363 13.6113 13.2728 13.2744C13.6092 12.9375 13.9294 12.7289 14.3793 12.5548C14.7179 12.4228 15.2278 12.2665 16.1657 12.2239C17.1796 12.1773 17.4842 12.168 20.052 12.168C22.6197 12.168 22.9246 12.178 23.9394 12.2239C24.8773 12.2666 25.3862 12.424 25.7258 12.5548C26.1749 12.7289 26.4954 12.9379 26.8323 13.2744C27.1692 13.6108 27.377 13.9317 27.5518 14.3808C27.6839 14.7195 27.8401 15.2294 27.8827 16.1672C27.9294 17.1821 27.9387 17.4858 27.9387 20.0547C27.9387 22.6236 27.9294 22.9273 27.8827 23.9422C27.84 24.88 27.683 25.3898 27.5518 25.7285C27.377 26.1777 27.1687 26.4981 26.8323 26.8342C26.4958 27.1704 26.1749 27.3789 25.7258 27.5538C25.3872 27.6859 24.8773 27.8421 23.9394 27.8847C22.9254 27.9313 22.6208 27.9407 20.052 27.9407C17.4831 27.9407 17.1793 27.9313 16.1657 27.8847ZM16.086 10.4933C15.062 10.54 14.3622 10.7023 13.7511 10.9401C13.1182 11.1857 12.5824 11.5151 12.047 12.0497C11.5116 12.5842 11.183 13.1208 10.9375 13.7537C10.6997 14.3652 10.5373 15.0646 10.4907 16.0887C10.4433 17.1143 10.4324 17.4423 10.4324 20.0546C10.4324 22.667 10.4433 22.9949 10.4907 24.0206C10.5373 25.0447 10.6997 25.744 10.9375 26.3555C11.183 26.988 11.5117 27.5252 12.047 28.0596C12.5823 28.5939 13.1182 28.9228 13.7511 29.1691C14.3633 29.4069 15.062 29.5693 16.086 29.6159C17.1122 29.6626 17.4396 29.6742 20.052 29.6742C22.6643 29.6742 22.9922 29.6633 24.0179 29.6159C25.042 29.5693 25.7414 29.4069 26.3528 29.1691C26.9854 28.9228 27.5215 28.5941 28.0569 28.0596C28.5923 27.525 28.9202 26.988 29.1665 26.3555C29.4043 25.744 29.5674 25.0446 29.6133 24.0206C29.6599 22.9941 29.6707 22.667 29.6707 20.0546C29.6707 17.4423 29.6599 17.1143 29.6133 16.0887C29.5666 15.0645 29.4043 14.3648 29.1665 13.7537C28.9202 13.1212 28.5914 12.5851 28.0569 12.0497C27.5224 11.5143 26.9854 11.1857 26.3536 10.9401C25.7414 10.7023 25.042 10.5392 24.0187 10.4933C22.993 10.4467 22.6651 10.4351 20.0527 10.4351C17.4404 10.4351 17.1122 10.4459 16.086 10.4933Z" fill="white"/>
<defs>
<radialGradient id="paint0_radial" cx="0" cy="0" r="1" gradientUnits="userSpaceOnUse" gradientTransform="translate(5.31445 40.189) scale(52.2187 52.2166)">
<stop offset="0.09" stop-color="#FA8F21"/>
<stop offset="0.78" stop-color="#D82D7E"/>
</radialGradient>
<radialGradient id="paint1_radial" cx="0" cy="0" r="1" gradientUnits="userSpaceOnUse" gradientTransform="translate(24.2592 41.981) scale(41.1556 41.1539)">
<stop stop-color="#8C3AAA" stop-opacity="0"/>
<stop offset="0.64" stop-color="#8C3AAA" stop-opacity="0"/>
<stop offset="1" stop-color="#8C3AAA"/>
</radialGradient>
</defs>
</svg>
