<svg width="44" height="43" viewBox="0 0 44 43" fill="none" xmlns="http://www.w3.org/2000/svg">
<circle cx="21.8633" cy="21.5" r="21.5" fill="#F6F6F6"/>
<path d="M18.2093 21.4274C18.2093 19.4492 19.8124 17.8452 21.7906 17.8452C23.7687 17.8452 25.3727 19.4492 25.3727 21.4274C25.3727 23.4055 23.7687 25.0095 21.7906 25.0095C19.8124 25.0095 18.2093 23.4055 18.2093 21.4274ZM16.2728 21.4274C16.2728 24.4748 18.7431 26.9451 21.7906 26.9451C24.838 26.9451 27.3083 24.4748 27.3083 21.4274C27.3083 18.3799 24.838 15.9096 21.7906 15.9096C18.7431 15.9096 16.2728 18.3799 16.2728 21.4274ZM26.2373 15.6908C26.2372 15.9459 26.3127 16.1952 26.4543 16.4073C26.5959 16.6194 26.7972 16.7848 27.0328 16.8825C27.2684 16.9802 27.5277 17.0058 27.7778 16.9561C28.028 16.9065 28.2578 16.7838 28.4382 16.6035C28.6186 16.4232 28.7415 16.1935 28.7913 15.9434C28.8412 15.6933 28.8158 15.434 28.7183 15.1984C28.6208 14.9627 28.4556 14.7612 28.2436 14.6195C28.0316 14.4777 27.7823 14.402 27.5273 14.4019H27.5268C27.1849 14.402 26.8571 14.5379 26.6153 14.7795C26.3735 15.0212 26.2376 15.349 26.2373 15.6908ZM17.4493 30.174C16.4017 30.1263 15.8322 29.9518 15.4538 29.8044C14.9521 29.6091 14.5942 29.3765 14.2178 29.0006C13.8415 28.6248 13.6085 28.2672 13.414 27.7655C13.2665 27.3872 13.092 26.8176 13.0444 25.77C12.9923 24.6373 12.9819 24.297 12.9819 21.4274C12.9819 18.5578 12.9931 18.2185 13.0444 17.0849C13.0921 16.0373 13.2679 15.4688 13.414 15.0894C13.6093 14.5877 13.842 14.2298 14.2178 13.8534C14.5936 13.477 14.9513 13.2441 15.4538 13.0496C15.8321 12.9021 16.4017 12.7276 17.4493 12.68C18.582 12.6279 18.9222 12.6175 21.7906 12.6175C24.6589 12.6175 24.9995 12.6287 26.1331 12.68C27.1807 12.7277 27.7492 12.9035 28.1286 13.0496C28.6303 13.2441 28.9882 13.4776 29.3646 13.8534C29.741 14.2292 29.9731 14.5877 30.1684 15.0894C30.3159 15.4677 30.4904 16.0373 30.538 17.0849C30.5901 18.2185 30.6005 18.5578 30.6005 21.4274C30.6005 24.297 30.5901 24.6363 30.538 25.77C30.4903 26.8176 30.3149 27.3871 30.1684 27.7655C29.9731 28.2672 29.7404 28.6251 29.3646 29.0006C28.9888 29.3761 28.6303 29.6091 28.1286 29.8044C27.7503 29.9519 27.1807 30.1264 26.1331 30.174C25.0004 30.2261 24.6602 30.2365 21.7906 30.2365C18.921 30.2365 18.5817 30.2261 17.4493 30.174ZM17.3603 10.7468C16.2164 10.7989 15.4347 10.9803 14.7521 11.2459C14.0451 11.5202 13.4466 11.8882 12.8486 12.4854C12.2505 13.0825 11.8834 13.6819 11.6091 14.3889C11.3435 15.072 11.1621 15.8532 11.11 16.9971C11.057 18.1429 11.0449 18.5092 11.0449 21.4274C11.0449 24.3455 11.057 24.7118 11.11 25.8576C11.1621 27.0016 11.3435 27.7828 11.6091 28.4658C11.8834 29.1724 12.2506 29.7725 12.8486 30.3694C13.4465 30.9662 14.0451 31.3337 14.7521 31.6088C15.436 31.8744 16.2164 32.0558 17.3603 32.1079C18.5067 32.16 18.8724 32.173 21.7906 32.173C24.7087 32.173 25.075 32.1609 26.2208 32.1079C27.3648 32.0558 28.146 31.8744 28.829 31.6088C29.5356 31.3337 30.1345 30.9665 30.7326 30.3694C31.3306 29.7722 31.6969 29.1724 31.972 28.4658C32.2376 27.7828 32.4199 27.0015 32.4711 25.8576C32.5232 24.711 32.5353 24.3455 32.5353 21.4274C32.5353 18.5092 32.5232 18.1429 32.4711 16.9971C32.419 15.8531 32.2376 15.0715 31.972 14.3889C31.6969 13.6823 31.3297 13.0834 30.7326 12.4854C30.1354 11.8873 29.5356 11.5202 28.8299 11.2459C28.146 10.9803 27.3647 10.798 26.2216 10.7468C25.0759 10.6947 24.7096 10.6817 21.7914 10.6817C18.8732 10.6817 18.5067 10.6938 17.3603 10.7468Z" fill="url(#paint0_radial)"/>
<path d="M18.2093 21.4274C18.2093 19.4492 19.8124 17.8452 21.7906 17.8452C23.7687 17.8452 25.3727 19.4492 25.3727 21.4274C25.3727 23.4055 23.7687 25.0095 21.7906 25.0095C19.8124 25.0095 18.2093 23.4055 18.2093 21.4274ZM16.2728 21.4274C16.2728 24.4748 18.7431 26.9451 21.7906 26.9451C24.838 26.9451 27.3083 24.4748 27.3083 21.4274C27.3083 18.3799 24.838 15.9096 21.7906 15.9096C18.7431 15.9096 16.2728 18.3799 16.2728 21.4274ZM26.2373 15.6908C26.2372 15.9459 26.3127 16.1952 26.4543 16.4073C26.5959 16.6194 26.7972 16.7848 27.0328 16.8825C27.2684 16.9802 27.5277 17.0058 27.7778 16.9561C28.028 16.9065 28.2578 16.7838 28.4382 16.6035C28.6186 16.4232 28.7415 16.1935 28.7913 15.9434C28.8412 15.6933 28.8158 15.434 28.7183 15.1984C28.6208 14.9627 28.4556 14.7612 28.2436 14.6195C28.0316 14.4777 27.7823 14.402 27.5273 14.4019H27.5268C27.1849 14.402 26.8571 14.5379 26.6153 14.7795C26.3735 15.0212 26.2376 15.349 26.2373 15.6908ZM17.4493 30.174C16.4017 30.1263 15.8322 29.9518 15.4538 29.8044C14.9521 29.6091 14.5942 29.3765 14.2178 29.0006C13.8415 28.6248 13.6085 28.2672 13.414 27.7655C13.2665 27.3872 13.092 26.8176 13.0444 25.77C12.9923 24.6373 12.9819 24.297 12.9819 21.4274C12.9819 18.5578 12.9931 18.2185 13.0444 17.0849C13.0921 16.0373 13.2679 15.4688 13.414 15.0894C13.6093 14.5877 13.842 14.2298 14.2178 13.8534C14.5936 13.477 14.9513 13.2441 15.4538 13.0496C15.8321 12.9021 16.4017 12.7276 17.4493 12.68C18.582 12.6279 18.9222 12.6175 21.7906 12.6175C24.6589 12.6175 24.9995 12.6287 26.1331 12.68C27.1807 12.7277 27.7492 12.9035 28.1286 13.0496C28.6303 13.2441 28.9882 13.4776 29.3646 13.8534C29.741 14.2292 29.9731 14.5877 30.1684 15.0894C30.3159 15.4677 30.4904 16.0373 30.538 17.0849C30.5901 18.2185 30.6005 18.5578 30.6005 21.4274C30.6005 24.297 30.5901 24.6363 30.538 25.77C30.4903 26.8176 30.3149 27.3871 30.1684 27.7655C29.9731 28.2672 29.7404 28.6251 29.3646 29.0006C28.9888 29.3761 28.6303 29.6091 28.1286 29.8044C27.7503 29.9519 27.1807 30.1264 26.1331 30.174C25.0004 30.2261 24.6602 30.2365 21.7906 30.2365C18.921 30.2365 18.5817 30.2261 17.4493 30.174ZM17.3603 10.7468C16.2164 10.7989 15.4347 10.9803 14.7521 11.2459C14.0451 11.5202 13.4466 11.8882 12.8486 12.4854C12.2505 13.0825 11.8834 13.6819 11.6091 14.3889C11.3435 15.072 11.1621 15.8532 11.11 16.9971C11.057 18.1429 11.0449 18.5092 11.0449 21.4274C11.0449 24.3455 11.057 24.7118 11.11 25.8576C11.1621 27.0016 11.3435 27.7828 11.6091 28.4658C11.8834 29.1724 12.2506 29.7725 12.8486 30.3694C13.4465 30.9662 14.0451 31.3337 14.7521 31.6088C15.436 31.8744 16.2164 32.0558 17.3603 32.1079C18.5067 32.16 18.8724 32.173 21.7906 32.173C24.7087 32.173 25.075 32.1609 26.2208 32.1079C27.3648 32.0558 28.146 31.8744 28.829 31.6088C29.5356 31.3337 30.1345 30.9665 30.7326 30.3694C31.3306 29.7722 31.6969 29.1724 31.972 28.4658C32.2376 27.7828 32.4199 27.0015 32.4711 25.8576C32.5232 24.711 32.5353 24.3455 32.5353 21.4274C32.5353 18.5092 32.5232 18.1429 32.4711 16.9971C32.419 15.8531 32.2376 15.0715 31.972 14.3889C31.6969 13.6823 31.3297 13.0834 30.7326 12.4854C30.1354 11.8873 29.5356 11.5202 28.8299 11.2459C28.146 10.9803 27.3647 10.798 26.2216 10.7468C25.0759 10.6947 24.7096 10.6817 21.7914 10.6817C18.8732 10.6817 18.5067 10.6938 17.3603 10.7468Z" fill="url(#paint1_radial)"/>
<defs>
<radialGradient id="paint0_radial" cx="0" cy="0" r="1" gradientUnits="userSpaceOnUse" gradientTransform="translate(13.9002 32.2745) scale(28.0551)">
<stop offset="0.09" stop-color="#FA8F21"/>
<stop offset="0.78" stop-color="#D82D7E"/>
</radialGradient>
<radialGradient id="paint1_radial" cx="0" cy="0" r="1" gradientUnits="userSpaceOnUse" gradientTransform="translate(24.0784 33.2373) scale(22.1113)">
<stop offset="0.64" stop-color="#8C3AAA" stop-opacity="0"/>
<stop offset="1" stop-color="#8C3AAA"/>
</radialGradient>
</defs>
</svg>
