<svg width="25" height="25" viewBox="0 0 25 25" fill="none" xmlns="http://www.w3.org/2000/svg">
<circle cx="12.5" cy="12.5" r="12.5" fill="#E0E0E0"/>
<path d="M8.4375 7.5C7.91813 7.5 7.5 7.91813 7.5 8.4375V12.1875H10.0244C10.1798 10.9579 11.2294 10 12.5 10C13.7706 10 14.8202 10.9579 14.9756 12.1875H17.5V8.4375C17.5 7.91813 17.0819 7.5 16.5625 7.5H8.4375ZM15.625 8.75C15.9702 8.75 16.25 9.02981 16.25 9.375C16.25 9.72017 15.9702 10 15.625 10C15.2798 10 15 9.72017 15 9.375C15 9.02981 15.2798 8.75 15.625 8.75ZM12.5 10.625C11.4608 10.625 10.625 11.4608 10.625 12.5C10.625 13.5392 11.4608 14.375 12.5 14.375C13.5392 14.375 14.375 13.5392 14.375 12.5C14.375 11.4608 13.5392 10.625 12.5 10.625ZM7.5 12.8125V16.5625C7.5 17.0819 7.91813 17.5 8.4375 17.5H16.5625C17.0819 17.5 17.5 17.0819 17.5 16.5625V12.8125H14.9756C14.8202 14.0421 13.7706 15 12.5 15C11.2294 15 10.1798 14.0421 10.0244 12.8125H7.5Z" fill="#333333"/>
</svg>
