<svg width="46" height="45" viewBox="0 0 46 45" fill="none" xmlns="http://www.w3.org/2000/svg">
<circle opacity="0.5" cx="22.9613" cy="22.3204" r="22.3204" fill="#F2F2F2"/>
<path d="M19.4415 22.3814C19.4415 20.4051 21.0432 18.8026 23.0195 18.8026C24.9958 18.8026 26.5983 20.4051 26.5983 22.3814C26.5983 24.3577 24.9958 25.9602 23.0195 25.9602C21.0432 25.9602 19.4415 24.3577 19.4415 22.3814ZM17.5069 22.3814C17.5069 25.426 19.9749 27.894 23.0195 27.894C26.0641 27.894 28.5321 25.426 28.5321 22.3814C28.5321 19.3368 26.0641 16.8688 23.0195 16.8688C19.9749 16.8688 17.5069 19.3368 17.5069 22.3814ZM27.4621 16.6502C27.462 16.905 27.5374 17.1541 27.6789 17.366C27.8204 17.5779 28.0215 17.7431 28.2569 17.8407C28.4923 17.9383 28.7513 17.9639 29.0012 17.9143C29.2511 17.8647 29.4807 17.7421 29.661 17.562C29.8412 17.3819 29.964 17.1524 30.0138 16.9025C30.0636 16.6527 30.0382 16.3936 29.9408 16.1582C29.8434 15.9227 29.6783 15.7215 29.4665 15.5798C29.2547 15.4382 29.0057 15.3625 28.7509 15.3624C28.4093 15.3626 28.0813 15.4983 27.8398 15.7398C27.5982 15.9812 27.4624 16.3087 27.4621 16.6502ZM18.6823 31.1199C17.6356 31.0723 17.0667 30.8979 16.6887 30.7506C16.1874 30.5555 15.8298 30.3231 15.4538 29.9476C15.0778 29.5721 14.8451 29.2148 14.6508 28.7136C14.5034 28.3357 14.3291 27.7666 14.2815 26.72C14.2294 25.5883 14.219 25.2484 14.219 22.3815C14.219 19.5145 14.2303 19.1756 14.2815 18.043C14.3291 16.9963 14.5048 16.4284 14.6508 16.0493C14.8459 15.5481 15.0783 15.1905 15.4538 14.8145C15.8293 14.4385 16.1866 14.2057 16.6887 14.0115C17.0666 13.8641 17.6356 13.6897 18.6823 13.6422C19.8139 13.5901 20.1539 13.5797 23.0195 13.5797C25.8852 13.5797 26.2254 13.591 27.358 13.6422C28.4047 13.6898 28.9726 13.8655 29.3517 14.0115C29.8529 14.2057 30.2105 14.439 30.5865 14.8145C30.9625 15.19 31.1944 15.5481 31.3895 16.0493C31.5369 16.4272 31.7113 16.9963 31.7588 18.043C31.8109 19.1756 31.8213 19.5145 31.8213 22.3815C31.8213 25.2484 31.8109 25.5874 31.7588 26.72C31.7112 27.7666 31.536 28.3356 31.3895 28.7136C31.1944 29.2148 30.962 29.5725 30.5865 29.9476C30.211 30.3228 29.8529 30.5555 29.3517 30.7506C28.9738 30.898 28.4047 31.0724 27.358 31.1199C26.2264 31.172 25.8864 31.1824 23.0195 31.1824C20.1526 31.1824 19.8136 31.172 18.6823 31.1199ZM18.5934 11.7108C17.4505 11.7628 16.6696 11.944 15.9876 12.2094C15.2813 12.4835 14.6833 12.8511 14.0858 13.4477C13.4883 14.0443 13.1216 14.6431 12.8475 15.3495C12.5821 16.0319 12.4009 16.8124 12.3489 17.9553C12.296 19.1 12.2839 19.4659 12.2839 22.3814C12.2839 25.2968 12.296 25.6628 12.3489 26.8075C12.4009 27.9504 12.5821 28.7309 12.8475 29.4133C13.1216 30.1192 13.4884 30.7188 14.0858 31.3151C14.6832 31.9114 15.2813 32.2785 15.9876 32.5534C16.6709 32.8188 17.4505 33 18.5934 33.052C19.7387 33.1041 20.1041 33.117 23.0195 33.117C25.935 33.117 26.3009 33.1049 27.4456 33.052C28.5886 33 29.369 32.8188 30.0514 32.5534C30.7573 32.2785 31.3557 31.9116 31.9532 31.3151C32.5507 30.7185 32.9167 30.1192 33.1915 29.4133C33.4569 28.7309 33.639 27.9504 33.6901 26.8075C33.7422 25.6619 33.7543 25.2968 33.7543 22.3814C33.7543 19.4659 33.7422 19.1 33.6901 17.9553C33.6381 16.8123 33.4569 16.0315 33.1915 15.3495C32.9167 14.6436 32.5498 14.0452 31.9532 13.4477C31.3566 12.8502 30.7573 12.4835 30.0523 12.2094C29.369 11.944 28.5885 11.762 27.4465 11.7108C26.3018 11.6587 25.9358 11.6458 23.0204 11.6458C20.1049 11.6458 19.7387 11.6579 18.5934 11.7108Z" fill="url(#paint0_radial)"/>
<defs>
<radialGradient id="paint0_radial" cx="0" cy="0" r="1" gradientUnits="userSpaceOnUse" gradientTransform="translate(15.1365 33.2185) scale(28.029)">
<stop offset="0.09" stop-color="#FA8F21"/>
<stop offset="0.78" stop-color="#D82D7E"/>
</radialGradient>
</defs>
</svg>
