<svg width="45" height="45" viewBox="0 0 45 45" fill="none" xmlns="http://www.w3.org/2000/svg">
<circle cx="22.5" cy="22.5" r="22.5" fill="url(#paint0_radial)"/>
<circle cx="22.5" cy="22.5" r="22.5" fill="url(#paint1_radial)"/>
<path d="M18.9516 22.562C18.9516 20.5698 20.5661 18.9544 22.5583 18.9544C24.5505 18.9544 26.166 20.5698 26.166 22.562C26.166 24.5542 24.5505 26.1696 22.5583 26.1696C20.5661 26.1696 18.9516 24.5542 18.9516 22.562ZM17.0014 22.562C17.0014 25.6311 19.4892 28.119 22.5583 28.119C25.6275 28.119 28.1153 25.6311 28.1153 22.562C28.1153 19.4929 25.6275 17.005 22.5583 17.005C19.4892 17.005 17.0014 19.4929 17.0014 22.562ZM27.0366 16.7847C27.0365 17.0415 27.1126 17.2926 27.2552 17.5063C27.3978 17.7199 27.6006 17.8864 27.8378 17.9848C28.0751 18.0832 28.3362 18.109 28.5881 18.059C28.8401 18.009 29.0715 17.8854 29.2532 17.7039C29.4349 17.5223 29.5587 17.291 29.6089 17.0391C29.6591 16.7872 29.6335 16.5261 29.5353 16.2887C29.4371 16.0514 29.2707 15.8485 29.0572 15.7057C28.8437 15.5629 28.5927 15.4867 28.3358 15.4866H28.3353C27.991 15.4867 27.6609 15.6235 27.4174 15.8669C27.1739 16.1103 27.0369 16.4404 27.0366 16.7847ZM18.1862 31.3708C17.1311 31.3228 16.5577 31.147 16.1766 30.9986C15.6713 30.8019 15.3108 30.5676 14.9318 30.1891C14.5527 29.8106 14.3181 29.4504 14.1223 28.9452C13.9737 28.5642 13.798 27.9906 13.75 26.9355C13.6975 25.7947 13.6871 25.4521 13.6871 22.5621C13.6871 19.6721 13.6984 19.3304 13.75 18.1887C13.798 17.1336 13.9751 16.5611 14.1223 16.179C14.319 15.6737 14.5533 15.3132 14.9318 14.9342C15.3103 14.5552 15.6704 14.3206 16.1766 14.1247C16.5575 13.9762 17.1311 13.8004 18.1862 13.7524C19.327 13.7 19.6696 13.6895 22.5583 13.6895C25.447 13.6895 25.79 13.7009 26.9317 13.7524C27.9868 13.8005 28.5593 13.9775 28.9414 14.1247C29.4467 14.3206 29.8072 14.5557 30.1862 14.9342C30.5652 15.3127 30.799 15.6737 30.9957 16.179C31.1442 16.5599 31.32 17.1336 31.368 18.1887C31.4204 19.3304 31.4309 19.6721 31.4309 22.5621C31.4309 25.4521 31.4204 25.7938 31.368 26.9355C31.3199 27.9906 31.1433 28.5641 30.9957 28.9452C30.799 29.4504 30.5647 29.8109 30.1862 30.1891C29.8077 30.5672 29.4467 30.8019 28.9414 30.9986C28.5605 31.1471 27.9868 31.3229 26.9317 31.3708C25.791 31.4233 25.4483 31.4338 22.5583 31.4338C19.6683 31.4338 19.3266 31.4233 18.1862 31.3708ZM18.0966 11.8055C16.9446 11.858 16.1573 12.0407 15.4698 12.3082C14.7578 12.5845 14.1551 12.9551 13.5528 13.5564C12.9505 14.1578 12.5808 14.7615 12.3045 15.4735C12.037 16.1614 11.8543 16.9482 11.8019 18.1003C11.7485 19.2542 11.7363 19.6231 11.7363 22.562C11.7363 25.5009 11.7485 25.8698 11.8019 27.0237C11.8543 28.1758 12.037 28.9626 12.3045 29.6505C12.5808 30.3621 12.9506 30.9664 13.5528 31.5675C14.155 32.1686 14.7578 32.5388 15.4698 32.8158C16.1586 33.0833 16.9446 33.266 18.0966 33.3185C19.2511 33.3709 19.6194 33.384 22.5583 33.384C25.4972 33.384 25.8661 33.3718 27.02 33.3185C28.1722 33.266 28.9589 33.0833 29.6468 32.8158C30.3584 32.5388 30.9616 32.1689 31.5639 31.5675C32.1662 30.9662 32.5351 30.3621 32.8121 29.6505C33.0797 28.9626 33.2632 28.1758 33.3148 27.0237C33.3673 25.8689 33.3795 25.5009 33.3795 22.562C33.3795 19.6231 33.3673 19.2542 33.3148 18.1003C33.2623 16.9481 33.0797 16.161 32.8121 15.4735C32.5351 14.7619 32.1652 14.1588 31.5639 13.5564C30.9625 12.9541 30.3584 12.5845 29.6477 12.3082C28.9589 12.0407 28.1721 11.8571 27.0209 11.8055C25.867 11.7531 25.4981 11.74 22.5592 11.74C19.6203 11.74 19.2511 11.7522 18.0966 11.8055Z" fill="white"/>
<path d="M18.9516 22.562C18.9516 20.5698 20.5661 18.9544 22.5583 18.9544C24.5505 18.9544 26.166 20.5698 26.166 22.562C26.166 24.5542 24.5505 26.1696 22.5583 26.1696C20.5661 26.1696 18.9516 24.5542 18.9516 22.562ZM17.0014 22.562C17.0014 25.6311 19.4892 28.119 22.5583 28.119C25.6275 28.119 28.1153 25.6311 28.1153 22.562C28.1153 19.4929 25.6275 17.005 22.5583 17.005C19.4892 17.005 17.0014 19.4929 17.0014 22.562ZM27.0366 16.7847C27.0365 17.0415 27.1126 17.2926 27.2552 17.5063C27.3978 17.7199 27.6006 17.8864 27.8378 17.9848C28.0751 18.0832 28.3362 18.109 28.5881 18.059C28.8401 18.009 29.0715 17.8854 29.2532 17.7039C29.4349 17.5223 29.5587 17.291 29.6089 17.0391C29.6591 16.7872 29.6335 16.5261 29.5353 16.2887C29.4371 16.0514 29.2707 15.8485 29.0572 15.7057C28.8437 15.5629 28.5927 15.4867 28.3358 15.4866H28.3353C27.991 15.4867 27.6609 15.6235 27.4174 15.8669C27.1739 16.1103 27.0369 16.4404 27.0366 16.7847ZM18.1862 31.3708C17.1311 31.3228 16.5577 31.147 16.1766 30.9986C15.6713 30.8019 15.3108 30.5676 14.9318 30.1891C14.5527 29.8106 14.3181 29.4504 14.1223 28.9452C13.9737 28.5642 13.798 27.9906 13.75 26.9355C13.6975 25.7947 13.6871 25.4521 13.6871 22.5621C13.6871 19.6721 13.6984 19.3304 13.75 18.1887C13.798 17.1336 13.9751 16.5611 14.1223 16.179C14.319 15.6737 14.5533 15.3132 14.9318 14.9342C15.3103 14.5552 15.6704 14.3206 16.1766 14.1247C16.5575 13.9762 17.1311 13.8004 18.1862 13.7524C19.327 13.7 19.6696 13.6895 22.5583 13.6895C25.447 13.6895 25.79 13.7009 26.9317 13.7524C27.9868 13.8005 28.5593 13.9775 28.9414 14.1247C29.4467 14.3206 29.8072 14.5557 30.1862 14.9342C30.5652 15.3127 30.799 15.6737 30.9957 16.179C31.1442 16.5599 31.32 17.1336 31.368 18.1887C31.4204 19.3304 31.4309 19.6721 31.4309 22.5621C31.4309 25.4521 31.4204 25.7938 31.368 26.9355C31.3199 27.9906 31.1433 28.5641 30.9957 28.9452C30.799 29.4504 30.5647 29.8109 30.1862 30.1891C29.8077 30.5672 29.4467 30.8019 28.9414 30.9986C28.5605 31.1471 27.9868 31.3229 26.9317 31.3708C25.791 31.4233 25.4483 31.4338 22.5583 31.4338C19.6683 31.4338 19.3266 31.4233 18.1862 31.3708ZM18.0966 11.8055C16.9446 11.858 16.1573 12.0407 15.4698 12.3082C14.7578 12.5845 14.1551 12.9551 13.5528 13.5564C12.9505 14.1578 12.5808 14.7615 12.3045 15.4735C12.037 16.1614 11.8543 16.9482 11.8019 18.1003C11.7485 19.2542 11.7363 19.6231 11.7363 22.562C11.7363 25.5009 11.7485 25.8698 11.8019 27.0237C11.8543 28.1758 12.037 28.9626 12.3045 29.6505C12.5808 30.3621 12.9506 30.9664 13.5528 31.5675C14.155 32.1686 14.7578 32.5388 15.4698 32.8158C16.1586 33.0833 16.9446 33.266 18.0966 33.3185C19.2511 33.3709 19.6194 33.384 22.5583 33.384C25.4972 33.384 25.8661 33.3718 27.02 33.3185C28.1722 33.266 28.9589 33.0833 29.6468 32.8158C30.3584 32.5388 30.9616 32.1689 31.5639 31.5675C32.1662 30.9662 32.5351 30.3621 32.8121 29.6505C33.0797 28.9626 33.2632 28.1758 33.3148 27.0237C33.3673 25.8689 33.3795 25.5009 33.3795 22.562C33.3795 19.6231 33.3673 19.2542 33.3148 18.1003C33.2623 16.9481 33.0797 16.161 32.8121 15.4735C32.5351 14.7619 32.1652 14.1588 31.5639 13.5564C30.9625 12.9541 30.3584 12.5845 29.6477 12.3082C28.9589 12.0407 28.1721 11.8571 27.0209 11.8055C25.867 11.7531 25.4981 11.74 22.5592 11.74C19.6203 11.74 19.2511 11.7522 18.0966 11.8055Z" fill="white"/>
<defs>
<radialGradient id="paint0_radial" cx="0" cy="0" r="1" gradientUnits="userSpaceOnUse" gradientTransform="translate(5.97876 45.2126) scale(58.7461 58.7437)">
<stop offset="0.09" stop-color="#FA8F21"/>
<stop offset="0.78" stop-color="#D82D7E"/>
</radialGradient>
<radialGradient id="paint1_radial" cx="0" cy="0" r="1" gradientUnits="userSpaceOnUse" gradientTransform="translate(27.2916 47.2286) scale(46.3 46.2982)">
<stop stop-color="#8C3AAA" stop-opacity="0"/>
<stop offset="0.64" stop-color="#8C3AAA" stop-opacity="0"/>
<stop offset="1" stop-color="#8C3AAA"/>
</radialGradient>
</defs>
</svg>
