<svg width="30" height="30" viewBox="0 0 30 30" fill="none" xmlns="http://www.w3.org/2000/svg">
<circle cx="15" cy="15" r="15" fill="url(#paint0_radial_73_675)"/>
<path d="M12.6346 15.0407C12.6346 13.7126 13.711 12.6356 15.0391 12.6356C16.3673 12.6356 17.4442 13.7126 17.4442 15.0407C17.4442 16.3689 16.3673 17.4458 15.0391 17.4458C13.711 17.4458 12.6346 16.3689 12.6346 15.0407ZM11.3345 15.0407C11.3345 17.0868 12.9931 18.7454 15.0391 18.7454C17.0852 18.7454 18.7438 17.0868 18.7438 15.0407C18.7438 12.9946 17.0852 11.3361 15.0391 11.3361C12.9931 11.3361 11.3345 12.9946 11.3345 15.0407ZM18.0247 11.1892C18.0246 11.3604 18.0753 11.5278 18.1704 11.6702C18.2655 11.8126 18.4006 11.9237 18.5588 11.9893C18.717 12.0548 18.891 12.0721 19.059 12.0387C19.227 12.0054 19.3813 11.923 19.5024 11.802C19.6235 11.6809 19.706 11.5267 19.7395 11.3588C19.773 11.1908 19.7559 11.0168 19.6904 10.8585C19.625 10.7003 19.5141 10.5651 19.3717 10.4699C19.2294 10.3747 19.062 10.3238 18.8908 10.3238H18.8904C18.6609 10.3239 18.4408 10.4151 18.2785 10.5773C18.1162 10.7396 18.0249 10.9597 18.0247 11.1892ZM12.1244 20.9133C11.421 20.8813 11.0387 20.7641 10.7846 20.6651C10.4478 20.534 10.2074 20.3778 9.95475 20.1254C9.70207 19.8731 9.54565 19.633 9.4151 19.2962C9.31605 19.0422 9.19889 18.6598 9.16691 17.9564C9.13193 17.1959 9.12495 16.9674 9.12495 15.0408C9.12495 13.1141 9.13251 12.8863 9.16691 12.1252C9.19894 11.4218 9.31698 11.0401 9.4151 10.7854C9.54623 10.4486 9.70241 10.2082 9.95475 9.95553C10.2071 9.70284 10.4472 9.54643 10.7846 9.41587C11.0386 9.31683 11.421 9.19967 12.1244 9.16769C12.8849 9.13271 13.1133 9.12573 15.0391 9.12573C16.9649 9.12573 17.1936 9.13329 17.9547 9.16769C18.6581 9.19972 19.0398 9.31775 19.2945 9.41587C19.6314 9.54643 19.8717 9.70319 20.1244 9.95553C20.3771 10.2079 20.5329 10.4486 20.664 10.7854C20.7631 11.0393 20.8802 11.4218 20.9122 12.1252C20.9472 12.8863 20.9542 13.1141 20.9542 15.0408C20.9542 16.9674 20.9472 17.1953 20.9122 17.9564C20.8802 18.6598 20.7624 19.0421 20.664 19.2962C20.5329 19.633 20.3767 19.8733 20.1244 20.1254C19.872 20.3776 19.6314 20.534 19.2945 20.6651C19.0406 20.7641 18.6581 20.8813 17.9547 20.9133C17.1942 20.9483 16.9658 20.9552 15.0391 20.9552C13.1125 20.9552 12.8847 20.9483 12.1244 20.9133ZM12.0647 7.86974C11.2966 7.90472 10.7718 8.0265 10.3135 8.20485C9.8388 8.38902 9.43697 8.63611 9.03543 9.03702C8.63389 9.43792 8.38744 9.84039 8.20326 10.3151C8.02492 10.7737 7.90313 11.2982 7.86815 12.0663C7.8326 12.8355 7.82446 13.0814 7.82446 15.0407C7.82446 17 7.8326 17.2459 7.86815 18.0152C7.90313 18.7833 8.02492 19.3078 8.20326 19.7664C8.38744 20.2408 8.63395 20.6437 9.03543 21.0444C9.43691 21.4452 9.8388 21.6919 10.3135 21.8766C10.7727 22.0549 11.2966 22.1767 12.0647 22.2117C12.8343 22.2467 13.0799 22.2554 15.0391 22.2554C16.9984 22.2554 17.2443 22.2472 18.0136 22.2117C18.7817 22.1767 19.3062 22.0549 19.7648 21.8766C20.2392 21.6919 20.6413 21.4453 21.0428 21.0444C21.4444 20.6435 21.6903 20.2408 21.875 19.7664C22.0534 19.3078 22.1757 18.7832 22.2101 18.0152C22.2451 17.2453 22.2532 17 22.2532 15.0407C22.2532 13.0814 22.2451 12.8355 22.2101 12.0663C22.1751 11.2982 22.0534 10.7734 21.875 10.3151C21.6903 9.84067 21.4437 9.43856 21.0428 9.03702C20.6419 8.63548 20.2392 8.38902 19.7654 8.20485C19.3062 8.0265 18.7816 7.90414 18.0142 7.86974C17.2449 7.83477 16.999 7.82605 15.0397 7.82605C13.0804 7.82605 12.8343 7.83419 12.0647 7.86974Z" fill="white"/>
<path d="M12.6346 15.0407C12.6346 13.7126 13.711 12.6356 15.0391 12.6356C16.3673 12.6356 17.4442 13.7126 17.4442 15.0407C17.4442 16.3689 16.3673 17.4458 15.0391 17.4458C13.711 17.4458 12.6346 16.3689 12.6346 15.0407ZM11.3345 15.0407C11.3345 17.0868 12.9931 18.7454 15.0391 18.7454C17.0852 18.7454 18.7438 17.0868 18.7438 15.0407C18.7438 12.9946 17.0852 11.3361 15.0391 11.3361C12.9931 11.3361 11.3345 12.9946 11.3345 15.0407ZM18.0247 11.1892C18.0246 11.3604 18.0753 11.5278 18.1704 11.6702C18.2655 11.8126 18.4006 11.9237 18.5588 11.9893C18.717 12.0548 18.891 12.0721 19.059 12.0387C19.227 12.0054 19.3813 11.923 19.5024 11.802C19.6235 11.6809 19.706 11.5267 19.7395 11.3588C19.773 11.1908 19.7559 11.0168 19.6904 10.8585C19.625 10.7003 19.5141 10.5651 19.3717 10.4699C19.2294 10.3747 19.062 10.3238 18.8908 10.3238H18.8904C18.6609 10.3239 18.4408 10.4151 18.2785 10.5773C18.1162 10.7396 18.0249 10.9597 18.0247 11.1892ZM12.1244 20.9133C11.421 20.8813 11.0387 20.7641 10.7846 20.6651C10.4478 20.534 10.2074 20.3778 9.95475 20.1254C9.70207 19.8731 9.54565 19.633 9.4151 19.2962C9.31605 19.0422 9.19889 18.6598 9.16691 17.9564C9.13193 17.1959 9.12495 16.9674 9.12495 15.0408C9.12495 13.1141 9.13251 12.8863 9.16691 12.1252C9.19894 11.4218 9.31698 11.0401 9.4151 10.7854C9.54623 10.4486 9.70241 10.2082 9.95475 9.95553C10.2071 9.70284 10.4472 9.54643 10.7846 9.41587C11.0386 9.31683 11.421 9.19967 12.1244 9.16769C12.8849 9.13271 13.1133 9.12573 15.0391 9.12573C16.9649 9.12573 17.1936 9.13329 17.9547 9.16769C18.6581 9.19972 19.0398 9.31775 19.2945 9.41587C19.6314 9.54643 19.8717 9.70319 20.1244 9.95553C20.3771 10.2079 20.5329 10.4486 20.664 10.7854C20.7631 11.0393 20.8802 11.4218 20.9122 12.1252C20.9472 12.8863 20.9542 13.1141 20.9542 15.0408C20.9542 16.9674 20.9472 17.1953 20.9122 17.9564C20.8802 18.6598 20.7624 19.0421 20.664 19.2962C20.5329 19.633 20.3767 19.8733 20.1244 20.1254C19.872 20.3776 19.6314 20.534 19.2945 20.6651C19.0406 20.7641 18.6581 20.8813 17.9547 20.9133C17.1942 20.9483 16.9658 20.9552 15.0391 20.9552C13.1125 20.9552 12.8847 20.9483 12.1244 20.9133ZM12.0647 7.86974C11.2966 7.90472 10.7718 8.0265 10.3135 8.20485C9.8388 8.38902 9.43697 8.63611 9.03543 9.03702C8.63389 9.43792 8.38744 9.84039 8.20326 10.3151C8.02492 10.7737 7.90313 11.2982 7.86815 12.0663C7.8326 12.8355 7.82446 13.0814 7.82446 15.0407C7.82446 17 7.8326 17.2459 7.86815 18.0152C7.90313 18.7833 8.02492 19.3078 8.20326 19.7664C8.38744 20.2408 8.63395 20.6437 9.03543 21.0444C9.43691 21.4452 9.8388 21.6919 10.3135 21.8766C10.7727 22.0549 11.2966 22.1767 12.0647 22.2117C12.8343 22.2467 13.0799 22.2554 15.0391 22.2554C16.9984 22.2554 17.2443 22.2472 18.0136 22.2117C18.7817 22.1767 19.3062 22.0549 19.7648 21.8766C20.2392 21.6919 20.6413 21.4453 21.0428 21.0444C21.4444 20.6435 21.6903 20.2408 21.875 19.7664C22.0534 19.3078 22.1757 18.7832 22.2101 18.0152C22.2451 17.2453 22.2532 17 22.2532 15.0407C22.2532 13.0814 22.2451 12.8355 22.2101 12.0663C22.1751 11.2982 22.0534 10.7734 21.875 10.3151C21.6903 9.84067 21.4437 9.43856 21.0428 9.03702C20.6419 8.63548 20.2392 8.38902 19.7654 8.20485C19.3062 8.0265 18.7816 7.90414 18.0142 7.86974C17.2449 7.83477 16.999 7.82605 15.0397 7.82605C13.0804 7.82605 12.8343 7.83419 12.0647 7.86974Z" fill="white"/>
<defs>
<radialGradient id="paint0_radial_73_675" cx="0" cy="0" r="1" gradientUnits="userSpaceOnUse" gradientTransform="translate(3.98584 30.1417) scale(39.164 39.1625)">
<stop offset="0.09" stop-color="#FA8F21"/>
<stop offset="0.78" stop-color="#D82D7E"/>
</radialGradient>
</defs>
</svg>
