<svg width="452" height="55" viewBox="0 0 452 55" fill="none" xmlns="http://www.w3.org/2000/svg">
<path d="M1.84 41H0.84V42H1.84V41ZM1.84 11.96V10.96H0.84V11.96H1.84ZM10.6 11.96H11.6V10.96H10.6V11.96ZM10.6 23.6H9.6V24.6H10.6V23.6ZM12.4 23.36L11.9939 22.4462L11.9731 22.4554L11.9528 22.4656L12.4 23.36ZM13.54 22.1L12.6864 21.579L12.6822 21.586L12.6781 21.593L13.54 22.1ZM16.36 17.48L17.2136 18.001L17.2164 17.9963L16.36 17.48ZM20.2 12.68L19.7374 11.7934V11.7934L20.2 12.68ZM29.86 11.96H30.86V10.96H29.86V11.96ZM29.86 17.36V18.36H30.86V17.36H29.86ZM25.6 17.84L25.9808 18.7647L25.9935 18.7594L26.0061 18.7538L25.6 17.84ZM23.62 19.64L24.4392 20.2135L24.4409 20.2111L23.62 19.64ZM21.94 22.04L21.1207 21.4665L21.1147 21.4753L21.94 22.04ZM19 25.04L18.5374 24.1534L16.6436 25.1415L18.6154 25.9631L19 25.04ZM24.76 30.26L25.5756 29.6813L25.5729 29.6776L24.76 30.26ZM32.38 41V42H34.3156L33.1956 40.4213L32.38 41ZM22.3 41L21.4736 41.5631L21.7714 42H22.3V41ZM16.78 32.9L17.6064 32.3369L17.6062 32.3367L16.78 32.9ZM13.9 29.6L14.4215 28.7467L14.4214 28.7467L13.9 29.6ZM10.6 28.94V27.94H9.6V28.94H10.6ZM10.6 41V42H11.6V41H10.6ZM2.84 41V11.96H0.84V41H2.84ZM1.84 12.96H10.6V10.96H1.84V12.96ZM9.6 11.96V23.6H11.6V11.96H9.6ZM10.6 24.6C11.0663 24.6 11.4836 24.579 11.8422 24.5312C12.1869 24.4853 12.5431 24.4065 12.8472 24.2544L11.9528 22.4656C11.9533 22.4653 11.9461 22.4689 11.929 22.4751C11.9121 22.4811 11.8878 22.4888 11.8551 22.4974C11.7886 22.5147 11.6977 22.5328 11.5778 22.5488C11.3364 22.581 11.0137 22.6 10.6 22.6V24.6ZM12.8061 24.2738C13.4704 23.9786 13.9844 23.3169 14.4019 22.607L12.6781 21.593C12.2956 22.2431 12.0496 22.4214 11.9939 22.4462L12.8061 24.2738ZM14.3936 22.621L17.2136 18.001L15.5064 16.959L12.6864 21.579L14.3936 22.621ZM17.2164 17.9963C18.0245 16.656 18.729 15.617 19.3309 14.8647C19.9523 14.0879 20.3953 13.706 20.6626 13.5666L19.7374 11.7934C19.0847 12.1339 18.4277 12.7921 17.7691 13.6153C17.091 14.463 16.3355 15.584 15.5036 16.9637L17.2164 17.9963ZM20.6626 13.5666C20.9422 13.4207 21.5722 13.2532 22.6906 13.1344C23.7714 13.0196 25.1975 12.96 26.98 12.96V10.96C25.1625 10.96 23.6586 11.0204 22.4794 11.1456C21.3378 11.2668 20.3778 11.4593 19.7374 11.7934L20.6626 13.5666ZM26.98 12.96H29.86V10.96H26.98V12.96ZM28.86 11.96V17.36H30.86V11.96H28.86ZM29.86 16.36H28.9V18.36H29.86V16.36ZM28.9 16.36C27.3816 16.36 26.1099 16.519 25.1939 16.9262L26.0061 18.7538C26.5301 18.521 27.4584 18.36 28.9 18.36V16.36ZM25.2192 16.9153C24.2914 17.2974 23.4954 18.068 22.7991 19.0689L24.4409 20.2111C25.0246 19.372 25.5486 18.9426 25.9808 18.7647L25.2192 16.9153ZM22.8008 19.0665L21.1208 21.4665L22.7592 22.6135L24.4392 20.2135L22.8008 19.0665ZM21.1147 21.4753C20.1058 22.9499 19.2389 23.7874 18.5374 24.1534L19.4626 25.9266C20.6011 25.3326 21.6942 24.1701 22.7653 22.6047L21.1147 21.4753ZM18.6154 25.9631C20.2908 26.6612 22.0777 28.233 23.9471 30.8424L25.5729 29.6776C23.6023 26.927 21.5492 25.0188 19.3846 24.1169L18.6154 25.9631ZM23.9444 30.8386L31.5644 41.5787L33.1956 40.4213L25.5756 29.6814L23.9444 30.8386ZM32.38 40H22.3V42H32.38V40ZM23.1264 40.4369L17.6064 32.3369L15.9536 33.4631L21.4736 41.5631L23.1264 40.4369ZM17.6062 32.3367C16.993 31.4373 16.4284 30.6875 15.9134 30.0975C15.4078 29.5181 14.9092 29.0448 14.4215 28.7467L13.3786 30.4533C13.6108 30.5952 13.9522 30.8919 14.4066 31.4125C14.8516 31.9225 15.367 32.6027 15.9538 33.4633L17.6062 32.3367ZM14.4214 28.7467C13.4661 28.1629 12.1431 27.94 10.6 27.94V29.94C12.0169 29.94 12.8939 30.1571 13.3786 30.4533L14.4214 28.7467ZM9.6 28.94V41H11.6V28.94H9.6ZM10.6 40H1.84V42H10.6V40ZM62.8427 35.9L63.7531 36.3138L63.7576 36.3036L62.8427 35.9ZM60.6227 39.02L61.2559 39.794L61.2662 39.7855L61.2763 39.7768L60.6227 39.02ZM57.1427 40.7L56.875 39.7365L56.8679 39.7385L57.1427 40.7ZM53.2427 41.42L53.1761 40.4222L53.1579 40.4234L53.1398 40.4253L53.2427 41.42ZM44.6627 41.42L44.7622 40.425L44.7468 40.4234L44.7315 40.4224L44.6627 41.42ZM40.7627 40.7L40.4879 41.6616L40.495 41.6635L40.7627 40.7ZM37.3427 39.02L36.689 39.7768L36.6991 39.7855L36.7094 39.794L37.3427 39.02ZM35.1227 35.9L34.2077 36.3037L34.2123 36.3138L35.1227 35.9ZM35.1227 17.36L34.2088 16.9538L34.2035 16.9661L35.1227 17.36ZM37.4027 14.06L36.7658 13.289L36.7573 13.296L36.749 13.3032L37.4027 14.06ZM40.9427 12.32L41.2103 13.2835L41.2226 13.2801L41.2349 13.2764L40.9427 12.32ZM44.7827 11.54L44.8539 12.5375L44.8698 12.5363L44.8856 12.5347L44.7827 11.54ZM53.1227 11.54L53.0161 12.5343L53.035 12.5363L53.0539 12.5376L53.1227 11.54ZM57.0227 12.32L56.7304 13.2764L56.7427 13.2801L56.755 13.2835L57.0227 12.32ZM60.5027 14.06L59.849 14.8168L59.8573 14.824L59.8658 14.831L60.5027 14.06ZM62.7827 17.36L61.8596 17.7446L61.8661 17.7603L61.8732 17.7758L62.7827 17.36ZM53.7827 17.78L53.135 18.5419L53.1463 18.5516L53.158 18.5609L53.7827 17.78ZM44.1827 17.78L44.8074 18.5609L44.819 18.5516L44.8303 18.5419L44.1827 17.78ZM44.1227 35.24L43.503 36.0249L43.5127 36.0326L43.5227 36.04L44.1227 35.24ZM53.7827 35.24L53.1827 34.44L53.1727 34.4474L53.163 34.4551L53.7827 35.24ZM62.7427 22.46V31.04H64.7427V22.46H62.7427ZM62.7427 31.04C62.7427 32.8165 62.4589 34.2924 61.9277 35.4964L63.7576 36.3036C64.4264 34.7876 64.7427 33.0235 64.7427 31.04H62.7427ZM61.9323 35.4862C61.3777 36.7062 60.7161 37.6179 59.969 38.2632L61.2763 39.7768C62.2892 38.9021 63.1076 37.7338 63.753 36.3138L61.9323 35.4862ZM59.9894 38.246C59.2449 38.8552 58.2214 39.3625 56.875 39.7365L57.4103 41.6635C58.9439 41.2375 60.2404 40.6248 61.2559 39.794L59.9894 38.246ZM56.8679 39.7385C55.5222 40.123 54.2928 40.3478 53.1761 40.4222L53.3092 42.4178C54.5926 42.3322 55.9631 42.077 57.4174 41.6615L56.8679 39.7385ZM53.1398 40.4253C52.0252 40.5406 50.6418 40.6 48.9827 40.6V42.6C50.6835 42.6 52.1401 42.5394 53.3456 42.4147L53.1398 40.4253ZM48.9827 40.6C47.3241 40.6 45.9191 40.5407 44.7622 40.425L44.5632 42.415C45.8062 42.5393 47.2813 42.6 48.9827 42.6V40.6ZM44.7315 40.4224C43.6546 40.3481 42.4227 40.1233 41.0303 39.7365L40.495 41.6635C41.9826 42.0767 43.3507 42.3319 44.5939 42.4176L44.7315 40.4224ZM41.0374 39.7385C39.7331 39.3658 38.7253 38.8592 37.9759 38.246L36.7094 39.794C37.72 40.6208 38.9922 41.2342 40.4879 41.6615L41.0374 39.7385ZM37.9963 38.2632C37.2492 37.6179 36.5876 36.7062 36.033 35.4862L34.2123 36.3138C34.8577 37.7338 35.6761 38.9021 36.689 39.7768L37.9963 38.2632ZM36.0376 35.4964C35.5064 34.2924 35.2227 32.8165 35.2227 31.04H33.2227C33.2227 33.0235 33.5389 34.7876 34.2077 36.3036L36.0376 35.4964ZM35.2227 31.04V22.46H33.2227V31.04H35.2227ZM35.2227 22.46C35.2227 20.5551 35.509 18.997 36.0418 17.7539L34.2035 16.9661C33.5363 18.5229 33.2227 20.3649 33.2227 22.46H35.2227ZM36.0365 17.7661C36.6368 16.4155 37.32 15.4527 38.0563 14.8168L36.749 13.3032C35.7253 14.1873 34.8886 15.4245 34.2088 16.9539L36.0365 17.7661ZM38.0395 14.831C38.8277 14.1799 39.8724 13.6551 41.2103 13.2835L40.675 11.3565C39.1329 11.7849 37.8176 12.4201 36.7658 13.289L38.0395 14.831ZM41.2349 13.2764C42.6257 12.8514 43.8293 12.6106 44.8539 12.5375L44.7114 10.5425C43.496 10.6294 42.1396 10.9086 40.6504 11.3636L41.2349 13.2764ZM44.8856 12.5347C46.0008 12.4193 47.3644 12.36 48.9827 12.36V10.36C47.3209 10.36 45.8845 10.4207 44.6798 10.5453L44.8856 12.5347ZM48.9827 12.36C50.6015 12.36 51.9435 12.4194 53.0161 12.5343L53.2292 10.5457C52.0619 10.4206 50.6438 10.36 48.9827 10.36V12.36ZM53.0539 12.5376C54.1196 12.6111 55.343 12.8524 56.7304 13.2764L57.3149 11.3636C55.8223 10.9076 54.4457 10.6289 53.1915 10.5424L53.0539 12.5376ZM56.755 13.2835C58.0918 13.6549 59.108 14.1768 59.849 14.8168L61.1563 13.3032C60.1373 12.4232 58.8335 11.7851 57.2903 11.3565L56.755 13.2835ZM59.8658 14.831C60.6278 15.4604 61.3036 16.4102 61.8596 17.7446L63.7057 16.9754C63.0618 15.4298 62.2175 14.1795 61.1395 13.289L59.8658 14.831ZM61.8732 17.7758C62.4385 19.0124 62.7427 20.5623 62.7427 22.46H64.7427C64.7427 20.3577 64.4068 18.5076 63.6921 16.9442L61.8732 17.7758ZM55.9827 32.06V21.08H53.9827V32.06H55.9827ZM55.9827 21.08C55.9827 19.378 55.5472 17.911 54.4074 16.9991L53.158 18.5609C53.6181 18.929 53.9827 19.662 53.9827 21.08H55.9827ZM54.4303 17.0181C53.8525 16.5269 53.0707 16.2239 52.1905 16.0368C51.2986 15.8473 50.2233 15.76 48.9827 15.76V17.76C50.142 17.76 51.0667 17.8427 51.7748 17.9932C52.4946 18.1461 52.9128 18.3531 53.135 18.5419L54.4303 17.0181ZM48.9827 15.76C47.742 15.76 46.6668 15.8473 45.7748 16.0368C44.8946 16.2239 44.1128 16.5269 43.535 17.0181L44.8303 18.5419C45.0525 18.3531 45.4707 18.1461 46.1905 17.9932C46.8986 17.8427 47.8233 17.76 48.9827 17.76V15.76ZM43.558 16.9991C42.4181 17.911 41.9827 19.378 41.9827 21.08H43.9827C43.9827 19.662 44.3472 18.929 44.8074 18.5609L43.558 16.9991ZM41.9827 21.08V32.06H43.9827V21.08H41.9827ZM41.9827 32.06C41.9827 33.7103 42.3923 35.148 43.503 36.0249L44.7423 34.4551C44.333 34.132 43.9827 33.4497 43.9827 32.06H41.9827ZM43.5227 36.04C44.101 36.4738 44.8805 36.7362 45.7556 36.8983C46.6468 37.0633 47.7277 37.14 48.9827 37.14V35.14C47.7976 35.14 46.8485 35.0667 46.1197 34.9317C45.3748 34.7938 44.9443 34.6062 44.7227 34.44L43.5227 36.04ZM48.9827 37.14C50.2372 37.14 51.3142 37.0634 52.1969 36.8979C53.061 36.7359 53.8366 36.4715 54.4023 36.0249L53.163 34.4551C52.9687 34.6085 52.5644 34.7941 51.8284 34.9321C51.1111 35.0666 50.1682 35.14 48.9827 35.14V37.14ZM54.3827 36.04C55.5443 35.1688 55.9827 33.726 55.9827 32.06H53.9827C53.9827 33.434 53.6211 34.1112 53.1827 34.44L54.3827 36.04ZM106.99 41V42H107.99V41H106.99ZM99.0105 41H98.0105V42H99.0105V41ZM99.0105 21.2H100.01V20.2H99.0105V21.2ZM98.7105 21.2V20.2H98.002L97.7671 20.8684L98.7105 21.2ZM91.7505 41V42H92.4589L92.6939 41.3316L91.7505 41ZM85.3305 41L84.3835 41.3214L84.6138 42H85.3305V41ZM78.6105 21.2L79.5574 20.8786L79.3271 20.2H78.6105V21.2ZM78.3105 21.2V20.2H77.3105V21.2H78.3105ZM78.3105 41V42H79.3105V41H78.3105ZM70.5705 41H69.5705V42H70.5705V41ZM70.5705 11.96V10.96H69.5705V11.96H70.5705ZM82.5105 11.96L83.4615 11.6508L83.2368 10.96H82.5105V11.96ZM88.8705 31.52L87.9195 31.8292L88.8402 34.6608L89.8153 31.8475L88.8705 31.52ZM95.6505 11.96V10.96H94.9387L94.7056 11.6325L95.6505 11.96ZM106.99 11.96H107.99V10.96H106.99V11.96ZM106.99 40H99.0105V42H106.99V40ZM100.01 41V21.2H98.0105V41H100.01ZM99.0105 20.2H98.7105V22.2H99.0105V20.2ZM97.7671 20.8684L90.8071 40.6684L92.6939 41.3316L99.6539 21.5316L97.7671 20.8684ZM91.7505 40H85.3305V42H91.7505V40ZM86.2774 40.6786L79.5574 20.8786L77.6635 21.5214L84.3835 41.3214L86.2774 40.6786ZM78.6105 20.2H78.3105V22.2H78.6105V20.2ZM77.3105 21.2V41H79.3105V21.2H77.3105ZM78.3105 40H70.5705V42H78.3105V40ZM71.5705 41V11.96H69.5705V41H71.5705ZM70.5705 12.96H82.5105V10.96H70.5705V12.96ZM81.5595 12.2692L87.9195 31.8292L89.8215 31.2108L83.4615 11.6508L81.5595 12.2692ZM89.8153 31.8475L96.5953 12.2875L94.7056 11.6325L87.9256 31.1925L89.8153 31.8475ZM95.6505 12.96H106.99V10.96H95.6505V12.96ZM105.99 11.96V41H107.99V11.96H105.99ZM142.412 11.96L143.345 12.3176L143.865 10.96H142.412V11.96ZM126.512 53.48V54.48H127.199L127.445 53.8376L126.512 53.48ZM117.632 53.48L116.708 53.0966L116.134 54.48H117.632V53.48ZM122.912 40.76L123.835 41.1434L123.992 40.766L123.839 40.3869L122.912 40.76ZM111.332 11.96V10.96H109.852L110.404 12.3331L111.332 11.96ZM120.872 11.96L121.824 11.6563L121.602 10.96H120.872V11.96ZM127.412 32.48L126.459 32.7837L127.458 35.9175L128.372 32.7581L127.412 32.48ZM133.352 11.96V10.96H132.6L132.391 11.6819L133.352 11.96ZM141.478 11.6024L125.578 53.1224L127.445 53.8376L143.345 12.3176L141.478 11.6024ZM126.512 52.48H117.632V54.48H126.512V52.48ZM118.555 53.8634L123.835 41.1434L121.988 40.3766L116.708 53.0966L118.555 53.8634ZM123.839 40.3869L112.259 11.5869L110.404 12.3331L121.984 41.1331L123.839 40.3869ZM111.332 12.96H120.872V10.96H111.332V12.96ZM119.919 12.2637L126.459 32.7837L128.364 32.1763L121.824 11.6563L119.919 12.2637ZM128.372 32.7581L134.312 12.2381L132.391 11.6819L126.451 32.2019L128.372 32.7581ZM133.352 12.96H142.412V10.96H133.352V12.96ZM189.49 41V42H190.49V41H189.49ZM180.73 41H179.73V42H180.73V41ZM180.73 17.36H181.73V16.36H180.73V17.36ZM169.33 17.36V16.36H168.33V17.36H169.33ZM169.33 41V42H170.33V41H169.33ZM160.57 41H159.57V42H160.57V41ZM160.57 11.96V10.96H159.57V11.96H160.57ZM189.49 11.96H190.49V10.96H189.49V11.96ZM189.49 40H180.73V42H189.49V40ZM181.73 41V17.36H179.73V41H181.73ZM180.73 16.36H169.33V18.36H180.73V16.36ZM168.33 17.36V41H170.33V17.36H168.33ZM169.33 40H160.57V42H169.33V40ZM161.57 41V11.96H159.57V41H161.57ZM160.57 12.96H189.49V10.96H160.57V12.96ZM188.49 11.96V41H190.49V11.96H188.49ZM206.192 8.54V9.54H207.192V8.54H206.192ZM197.432 8.54H196.432V9.54H197.432V8.54ZM197.432 1.46V0.459997H196.432V1.46H197.432ZM206.192 1.46H207.192V0.459997H206.192V1.46ZM206.192 41V42H207.192V41H206.192ZM197.432 41H196.432V42H197.432V41ZM197.432 11.96V10.96H196.432V11.96H197.432ZM206.192 11.96H207.192V10.96H206.192V11.96ZM206.192 7.54H197.432V9.54H206.192V7.54ZM198.432 8.54V1.46H196.432V8.54H198.432ZM197.432 2.46H206.192V0.459997H197.432V2.46ZM205.192 1.46V8.54H207.192V1.46H205.192ZM206.192 40H197.432V42H206.192V40ZM198.432 41V11.96H196.432V41H198.432ZM197.432 12.96H206.192V10.96H197.432V12.96ZM205.192 11.96V41H207.192V11.96H205.192ZM218.325 11.96V10.96H217.325V11.96H218.325ZM241.125 11.96H242.125V10.96H241.125V11.96ZM241.125 35.6H240.125V36.6H241.125V35.6ZM243.765 35.6H244.765V34.6H243.765V35.6ZM243.765 49.04V50.04H244.765V49.04H243.765ZM235.785 49.04H234.785V50.04H235.785V49.04ZM235.785 41H236.785V40H235.785V41ZM218.985 41V40H217.985V41H218.985ZM218.985 49.04V50.04H219.985V49.04H218.985ZM211.005 49.04H210.005V50.04H211.005V49.04ZM211.005 35.6V34.6H210.005V35.6H211.005ZM213.165 35.6V36.6H213.705L214.001 36.1488L213.165 35.6ZM232.485 17.36H233.485V16.36H232.485V17.36ZM226.545 17.36V16.36H225.545V17.36H226.545ZM225.465 27.5L226.441 27.7195L226.441 27.7169L225.465 27.5ZM222.525 35.6L221.654 35.109L220.814 36.6H222.525V35.6ZM232.485 35.6V36.6H233.485V35.6H232.485ZM218.325 12.96H241.125V10.96H218.325V12.96ZM240.125 11.96V35.6H242.125V11.96H240.125ZM241.125 36.6H243.765V34.6H241.125V36.6ZM242.765 35.6V49.04H244.765V35.6H242.765ZM243.765 48.04H235.785V50.04H243.765V48.04ZM236.785 49.04V41H234.785V49.04H236.785ZM235.785 40H218.985V42H235.785V40ZM217.985 41V49.04H219.985V41H217.985ZM218.985 48.04H211.005V50.04H218.985V48.04ZM212.005 49.04V35.6H210.005V49.04H212.005ZM211.005 36.6H213.165V34.6H211.005V36.6ZM214.001 36.1488C217.571 30.7116 219.325 24.0296 219.325 16.16H217.325C217.325 23.7304 215.64 30.0084 212.329 35.0512L214.001 36.1488ZM219.325 16.16V11.96H217.325V16.16H219.325ZM232.485 16.36H226.545V18.36H232.485V16.36ZM225.545 17.36V18.92H227.545V17.36H225.545ZM225.545 18.92C225.545 21.3073 225.198 24.092 224.489 27.2831L226.441 27.7169C227.172 24.428 227.545 21.4927 227.545 18.92H225.545ZM224.49 27.2805C223.785 30.4121 222.834 33.0149 221.654 35.109L223.396 36.091C224.696 33.7851 225.705 30.9879 226.441 27.7195L224.49 27.2805ZM222.525 36.6H232.485V34.6H222.525V36.6ZM233.485 35.6V17.36H231.485V35.6H233.485ZM279.45 41V42H281.483L280.242 40.3898L279.45 41ZM269.31 41L268.49 41.572L268.788 42H269.31V41ZM262.95 31.88L263.77 31.308L262.946 30.1262L262.127 31.3116L262.95 31.88ZM256.65 41V42H257.175L257.473 41.5684L256.65 41ZM246.51 41L245.716 40.3918L244.484 42H246.51V41ZM257.91 26.12L258.704 26.7282L259.169 26.1214L258.705 25.5135L257.91 26.12ZM247.11 11.96V10.96H245.09L246.315 12.5664L247.11 11.96ZM257.25 11.96L258.076 11.3957L257.778 10.96H257.25V11.96ZM262.95 20.3L262.125 20.8643L262.946 22.0659L263.773 20.8683L262.95 20.3ZM268.71 11.96V10.96H268.185L267.887 11.3917L268.71 11.96ZM278.85 11.96L279.644 12.5686L280.877 10.96H278.85V11.96ZM267.99 26.12L267.197 25.5114L266.729 26.1213L267.198 26.7302L267.99 26.12ZM279.45 40H269.31V42H279.45V40ZM270.13 40.428L263.77 31.308L262.13 32.452L268.49 41.572L270.13 40.428ZM262.127 31.3116L255.827 40.4316L257.473 41.5684L263.773 32.4484L262.127 31.3116ZM256.65 40H246.51V42H256.65V40ZM247.304 41.6082L258.704 26.7282L257.116 25.5118L245.716 40.3918L247.304 41.6082ZM258.705 25.5135L247.905 11.3535L246.315 12.5664L257.115 26.7264L258.705 25.5135ZM247.11 12.96H257.25V10.96H247.11V12.96ZM256.425 12.5243L262.125 20.8643L263.776 19.7357L258.076 11.3957L256.425 12.5243ZM263.773 20.8683L269.533 12.5283L267.887 11.3917L262.127 19.7317L263.773 20.8683ZM268.71 12.96H278.85V10.96H268.71V12.96ZM278.057 11.3514L267.197 25.5114L268.784 26.7286L279.644 12.5686L278.057 11.3514ZM267.198 26.7302L278.658 41.6102L280.242 40.3898L268.782 25.5098L267.198 26.7302ZM309.229 35.9L310.14 36.3138L310.144 36.3036L309.229 35.9ZM307.009 39.02L307.643 39.794L307.653 39.7855L307.663 39.7768L307.009 39.02ZM303.529 40.7L303.262 39.7365L303.255 39.7385L303.529 40.7ZM299.629 41.42L299.563 40.4222L299.545 40.4234L299.526 40.4253L299.629 41.42ZM291.049 41.42L291.149 40.425L291.134 40.4234L291.118 40.4224L291.049 41.42ZM287.149 40.7L286.875 41.6616L286.882 41.6635L287.149 40.7ZM283.729 39.02L283.076 39.7768L283.086 39.7855L283.096 39.794L283.729 39.02ZM281.509 35.9L280.594 36.3037L280.599 36.3138L281.509 35.9ZM281.509 17.36L280.595 16.9538L280.59 16.9661L281.509 17.36ZM283.789 14.06L283.152 13.289L283.144 13.296L283.136 13.3032L283.789 14.06ZM287.329 12.32L287.597 13.2835L287.609 13.2801L287.622 13.2764L287.329 12.32ZM291.169 11.54L291.241 12.5375L291.256 12.5363L291.272 12.5347L291.169 11.54ZM299.509 11.54L299.403 12.5343L299.422 12.5363L299.441 12.5376L299.509 11.54ZM303.409 12.32L303.117 13.2764L303.129 13.2801L303.142 13.2835L303.409 12.32ZM306.889 14.06L306.236 14.8168L306.244 14.824L306.253 14.831L306.889 14.06ZM309.169 17.36L308.246 17.7446L308.253 17.7603L308.26 17.7758L309.169 17.36ZM300.169 17.78L299.522 18.5419L299.533 18.5516L299.545 18.5609L300.169 17.78ZM290.569 17.78L291.194 18.5609L291.206 18.5516L291.217 18.5419L290.569 17.78ZM290.509 35.24L289.89 36.0249L289.899 36.0326L289.909 36.04L290.509 35.24ZM300.169 35.24L299.569 34.44L299.559 34.4474L299.55 34.4551L300.169 35.24ZM309.129 22.46V31.04H311.129V22.46H309.129ZM309.129 31.04C309.129 32.8165 308.846 34.2924 308.314 35.4964L310.144 36.3036C310.813 34.7876 311.129 33.0235 311.129 31.04H309.129ZM308.319 35.4862C307.764 36.7062 307.103 37.6179 306.356 38.2632L307.663 39.7768C308.676 38.9021 309.494 37.7338 310.14 36.3138L308.319 35.4862ZM306.376 38.246C305.632 38.8552 304.608 39.3625 303.262 39.7365L303.797 41.6635C305.331 41.2375 306.627 40.6248 307.643 39.794L306.376 38.246ZM303.255 39.7385C301.909 40.123 300.679 40.3478 299.563 40.4222L299.696 42.4178C300.979 42.3322 302.35 42.077 303.804 41.6615L303.255 39.7385ZM299.526 40.4253C298.412 40.5406 297.029 40.6 295.369 40.6V42.6C297.07 42.6 298.527 42.5394 299.732 42.4147L299.526 40.4253ZM295.369 40.6C293.711 40.6 292.306 40.5407 291.149 40.425L290.95 42.415C292.193 42.5393 293.668 42.6 295.369 42.6V40.6ZM291.118 40.4224C290.041 40.3481 288.809 40.1233 287.417 39.7365L286.882 41.6635C288.369 42.0767 289.737 42.3319 290.981 42.4176L291.118 40.4224ZM287.424 39.7385C286.12 39.3658 285.112 38.8592 284.363 38.246L283.096 39.794C284.107 40.6208 285.379 41.2342 286.875 41.6615L287.424 39.7385ZM284.383 38.2632C283.636 37.6179 282.974 36.7062 282.42 35.4862L280.599 36.3138C281.244 37.7338 282.063 38.9021 283.076 39.7768L284.383 38.2632ZM282.424 35.4964C281.893 34.2924 281.609 32.8165 281.609 31.04H279.609C279.609 33.0235 279.926 34.7876 280.594 36.3036L282.424 35.4964ZM281.609 31.04V22.46H279.609V31.04H281.609ZM281.609 22.46C281.609 20.5551 281.896 18.997 282.429 17.7539L280.59 16.9661C279.923 18.5229 279.609 20.3649 279.609 22.46H281.609ZM282.423 17.7661C283.023 16.4155 283.707 15.4527 284.443 14.8168L283.136 13.3032C282.112 14.1873 281.275 15.4245 280.596 16.9539L282.423 17.7661ZM284.426 14.831C285.214 14.1799 286.259 13.6551 287.597 13.2835L287.062 11.3565C285.52 11.7849 284.204 12.4201 283.152 13.289L284.426 14.831ZM287.622 13.2764C289.012 12.8514 290.216 12.6106 291.241 12.5375L291.098 10.5425C289.883 10.6294 288.526 10.9086 287.037 11.3636L287.622 13.2764ZM291.272 12.5347C292.388 12.4193 293.751 12.36 295.369 12.36V10.36C293.708 10.36 292.271 10.4207 291.066 10.5453L291.272 12.5347ZM295.369 12.36C296.988 12.36 298.33 12.4194 299.403 12.5343L299.616 10.5457C298.449 10.4206 297.03 10.36 295.369 10.36V12.36ZM299.441 12.5376C300.506 12.6111 301.73 12.8524 303.117 13.2764L303.702 11.3636C302.209 10.9076 300.832 10.6289 299.578 10.5424L299.441 12.5376ZM303.142 13.2835C304.479 13.6549 305.495 14.1768 306.236 14.8168L307.543 13.3032C306.524 12.4232 305.22 11.7851 303.677 11.3565L303.142 13.2835ZM306.253 14.831C307.014 15.4604 307.69 16.4102 308.246 17.7446L310.092 16.9754C309.448 15.4298 308.604 14.1795 307.526 13.289L306.253 14.831ZM308.26 17.7758C308.825 19.0124 309.129 20.5623 309.129 22.46H311.129C311.129 20.3577 310.794 18.5076 310.079 16.9442L308.26 17.7758ZM302.369 32.06V21.08H300.369V32.06H302.369ZM302.369 21.08C302.369 19.378 301.934 17.911 300.794 16.9991L299.545 18.5609C300.005 18.929 300.369 19.662 300.369 21.08H302.369ZM300.817 17.0181C300.239 16.5269 299.457 16.2239 298.577 16.0368C297.685 15.8473 296.61 15.76 295.369 15.76V17.76C296.529 17.76 297.453 17.8427 298.162 17.9932C298.881 18.1461 299.299 18.3531 299.522 18.5419L300.817 17.0181ZM295.369 15.76C294.129 15.76 293.053 15.8473 292.162 16.0368C291.281 16.2239 290.5 16.5269 289.922 17.0181L291.217 18.5419C291.439 18.3531 291.857 18.1461 292.577 17.9932C293.285 17.8427 294.21 17.76 295.369 17.76V15.76ZM289.945 16.9991C288.805 17.911 288.369 19.378 288.369 21.08H290.369C290.369 19.662 290.734 18.929 291.194 18.5609L289.945 16.9991ZM288.369 21.08V32.06H290.369V21.08H288.369ZM288.369 32.06C288.369 33.7103 288.779 35.148 289.89 36.0249L291.129 34.4551C290.72 34.132 290.369 33.4497 290.369 32.06H288.369ZM289.909 36.04C290.488 36.4738 291.267 36.7362 292.142 36.8983C293.034 37.0633 294.114 37.14 295.369 37.14V35.14C294.184 35.14 293.235 35.0667 292.506 34.9317C291.762 34.7938 291.331 34.6062 291.109 34.44L289.909 36.04ZM295.369 37.14C296.624 37.14 297.701 37.0634 298.584 36.8979C299.448 36.7359 300.223 36.4715 300.789 36.0249L299.55 34.4551C299.355 34.6085 298.951 34.7941 298.215 34.9321C297.498 35.0666 296.555 35.14 295.369 35.14V37.14ZM300.769 36.04C301.931 35.1688 302.369 33.726 302.369 32.06H300.369C300.369 33.434 300.008 34.1112 299.569 34.44L300.769 36.04ZM321.157 11.96V10.96H320.157V11.96H321.157ZM343.957 11.96H344.957V10.96H343.957V11.96ZM343.957 35.6H342.957V36.6H343.957V35.6ZM346.597 35.6H347.597V34.6H346.597V35.6ZM346.597 49.04V50.04H347.597V49.04H346.597ZM338.617 49.04H337.617V50.04H338.617V49.04ZM338.617 41H339.617V40H338.617V41ZM321.817 41V40H320.817V41H321.817ZM321.817 49.04V50.04H322.817V49.04H321.817ZM313.837 49.04H312.837V50.04H313.837V49.04ZM313.837 35.6V34.6H312.837V35.6H313.837ZM315.997 35.6V36.6H316.537L316.833 36.1488L315.997 35.6ZM335.317 17.36H336.317V16.36H335.317V17.36ZM329.377 17.36V16.36H328.377V17.36H329.377ZM328.297 27.5L329.273 27.7195L329.273 27.7169L328.297 27.5ZM325.357 35.6L324.486 35.109L323.646 36.6H325.357V35.6ZM335.317 35.6V36.6H336.317V35.6H335.317ZM321.157 12.96H343.957V10.96H321.157V12.96ZM342.957 11.96V35.6H344.957V11.96H342.957ZM343.957 36.6H346.597V34.6H343.957V36.6ZM345.597 35.6V49.04H347.597V35.6H345.597ZM346.597 48.04H338.617V50.04H346.597V48.04ZM339.617 49.04V41H337.617V49.04H339.617ZM338.617 40H321.817V42H338.617V40ZM320.817 41V49.04H322.817V41H320.817ZM321.817 48.04H313.837V50.04H321.817V48.04ZM314.837 49.04V35.6H312.837V49.04H314.837ZM313.837 36.6H315.997V34.6H313.837V36.6ZM316.833 36.1488C320.403 30.7116 322.157 24.0296 322.157 16.16H320.157C320.157 23.7304 318.472 30.0084 315.161 35.0512L316.833 36.1488ZM322.157 16.16V11.96H320.157V16.16H322.157ZM335.317 16.36H329.377V18.36H335.317V16.36ZM328.377 17.36V18.92H330.377V17.36H328.377ZM328.377 18.92C328.377 21.3073 328.03 24.092 327.321 27.2831L329.273 27.7169C330.004 24.428 330.377 21.4927 330.377 18.92H328.377ZM327.322 27.2805C326.617 30.4121 325.666 33.0149 324.486 35.109L326.228 36.091C327.528 33.7851 328.537 30.9879 329.273 27.7195L327.322 27.2805ZM325.357 36.6H335.317V34.6H325.357V36.6ZM336.317 35.6V17.36H334.317V35.6H336.317ZM362.602 41V42H363.164L363.456 41.5199L362.602 41ZM352.582 41H351.582V42H352.582V41ZM352.582 11.96V10.96H351.582V11.96H352.582ZM360.682 11.96H361.682V10.96H360.682V11.96ZM360.682 32.42H359.682V35.9085L361.53 32.9498L360.682 32.42ZM373.462 11.96V10.96H372.908L372.614 11.4302L373.462 11.96ZM383.482 11.96H384.482V10.96H383.482V11.96ZM383.482 41V42H384.482V41H383.482ZM375.382 41H374.382V42H375.382V41ZM375.382 20H376.382V16.4332L374.528 19.4801L375.382 20ZM362.602 40H352.582V42H362.602V40ZM353.582 41V11.96H351.582V41H353.582ZM352.582 12.96H360.682V10.96H352.582V12.96ZM359.682 11.96V32.42H361.682V11.96H359.682ZM361.53 32.9498L374.31 12.4898L372.614 11.4302L359.834 31.8902L361.53 32.9498ZM373.462 12.96H383.482V10.96H373.462V12.96ZM382.482 11.96V41H384.482V11.96H382.482ZM383.482 40H375.382V42H383.482V40ZM376.382 41V20H374.382V41H376.382ZM374.528 19.4801L361.748 40.4801L363.456 41.5199L376.236 20.5199L374.528 19.4801ZM415.797 17.36V18.36H416.797V17.36H415.797ZM406.857 17.36V16.36H405.857V17.36H406.857ZM406.857 41V42H407.857V41H406.857ZM398.097 41H397.097V42H398.097V41ZM398.097 17.36H399.097V16.36H398.097V17.36ZM389.097 17.36H388.097V18.36H389.097V17.36ZM389.097 11.96V10.96H388.097V11.96H389.097ZM415.797 11.96H416.797V10.96H415.797V11.96ZM415.797 16.36H406.857V18.36H415.797V16.36ZM405.857 17.36V41H407.857V17.36H405.857ZM406.857 40H398.097V42H406.857V40ZM399.097 41V17.36H397.097V41H399.097ZM398.097 16.36H389.097V18.36H398.097V16.36ZM390.097 17.36V11.96H388.097V17.36H390.097ZM389.097 12.96H415.797V10.96H389.097V12.96ZM414.797 11.96V17.36H416.797V11.96H414.797ZM446.45 39.26L446.02 38.3568L446.015 38.3596L446.45 39.26ZM421.43 41H420.43V42H421.43V41ZM421.43 11.96V10.96H420.43V11.96H421.43ZM430.19 11.96H431.19V10.96H430.19V11.96ZM430.19 21.98H429.19V22.98H430.19V21.98ZM447.29 23.54L446.798 24.4106L446.806 24.415L447.29 23.54ZM439.85 28.1L439.384 28.9849L439.393 28.9898L439.403 28.9944L439.85 28.1ZM430.19 27.5V26.5H429.19V27.5H430.19ZM430.19 35.54H429.19V36.54H430.19V35.54ZM440.03 34.82L440.63 35.62L440.637 35.6144L440.03 34.82ZM449.11 30.14V33.26H451.11V30.14H449.11ZM449.11 33.26C449.11 34.5354 448.837 35.5564 448.341 36.3692C447.847 37.1789 447.092 37.8472 446.02 38.3569L446.879 40.1631C448.247 39.5128 449.322 38.6011 450.049 37.4108C450.773 36.2236 451.11 34.8246 451.11 33.26H449.11ZM446.015 38.3596C443.816 39.4223 440.475 40 435.89 40V42C440.585 42 444.284 41.4177 446.885 40.1603L446.015 38.3596ZM435.89 40H421.43V42H435.89V40ZM422.43 41V11.96H420.43V41H422.43ZM421.43 12.96H430.19V10.96H421.43V12.96ZM429.19 11.96V21.98H431.19V11.96H429.19ZM430.19 22.98H435.71V20.98H430.19V22.98ZM435.71 22.98C438.625 22.98 441.012 23.1092 442.881 23.361C444.773 23.6159 446.046 23.9856 446.798 24.4106L447.782 22.6694C446.694 22.0544 445.116 21.6441 443.148 21.379C441.158 21.1108 438.674 20.98 435.71 20.98V22.98ZM446.806 24.415C448.212 25.1931 449.11 26.923 449.11 30.14H451.11C451.11 26.637 450.127 23.9669 447.774 22.665L446.806 24.415ZM442.05 32V30.68H440.05V32H442.05ZM442.05 30.68C442.05 29.1838 441.585 27.8497 440.297 27.2056L439.403 28.9944C439.714 29.1503 440.05 29.5362 440.05 30.68H442.05ZM440.316 27.2151C439.788 26.9374 439.113 26.7666 438.354 26.6598C437.583 26.5511 436.658 26.5 435.59 26.5V28.5C436.602 28.5 437.427 28.5489 438.075 28.6402C438.737 28.7334 439.152 28.8626 439.384 28.9849L440.316 27.2151ZM435.59 26.5H430.19V28.5H435.59V26.5ZM429.19 27.5V35.54H431.19V27.5H429.19ZM430.19 36.54H435.47V34.54H430.19V36.54ZM435.47 36.54C436.697 36.54 437.734 36.4791 438.566 36.3478C439.364 36.2217 440.107 36.0122 440.63 35.62L439.43 34.02C439.313 34.1078 438.976 34.2583 438.254 34.3722C437.566 34.4809 436.643 34.54 435.47 34.54V36.54ZM440.637 35.6144C441.682 34.8157 442.05 33.4865 442.05 32H440.05C440.05 33.2335 439.738 33.7843 439.422 34.0256L440.637 35.6144Z" fill="url(#paint0_linear)"/>
<defs>
<linearGradient id="paint0_linear" x1="-2" y1="20" x2="453" y2="20" gradientUnits="userSpaceOnUse">
<stop stop-color="#1CB86D"/>
<stop offset="1" stop-color="#00B6EF"/>
</linearGradient>
</defs>
</svg>
