<svg width="450" height="53" viewBox="0 0 450 53" fill="none" xmlns="http://www.w3.org/2000/svg">
<path d="M0.84 10.96H9.6V22.72C10.24 22.72 10.76 22.64 11.16 22.48C11.56 22.28 11.96 21.94 12.36 21.46L20.76 10.96H29.88L18.24 24.4C19.88 25.16 21.48 26.66 23.04 28.9L30.78 40H20.7L14.28 30.52C13.56 29.48 12.88 28.82 12.24 28.54C11.6 28.26 10.72 28.12 9.6 28.12V40H0.84V10.96ZM48.5686 40.6C46.7686 40.6 45.2886 40.54 44.1286 40.42C42.9686 40.3 41.7286 40.06 40.4086 39.7C38.9686 39.3 37.8086 38.74 36.9286 38.02C36.0486 37.26 35.3086 36.2 34.7086 34.84C34.1086 33.52 33.8086 31.92 33.8086 30.04V21.46C33.8086 19.54 34.1086 17.86 34.7086 16.42C35.3086 14.98 36.0886 13.86 37.0486 13.06C37.8886 12.38 38.9886 11.82 40.3486 11.38C41.7486 10.9 43.1086 10.6 44.4286 10.48C45.9486 10.4 47.3286 10.36 48.5686 10.36C50.4086 10.36 51.8686 10.42 52.9486 10.54C54.0686 10.62 55.2886 10.86 56.6086 11.26C58.0486 11.7 59.2086 12.3 60.0886 13.06C61.0086 13.82 61.7886 14.9 62.4286 16.3C63.0286 17.74 63.3286 19.46 63.3286 21.46V30.04C63.3286 31.84 63.0286 33.42 62.4286 34.78C61.8686 36.14 61.1286 37.2 60.2086 37.96C59.4086 38.64 58.3086 39.2 56.9086 39.64C55.5486 40.04 54.2086 40.3 52.8886 40.42C51.6886 40.54 50.2486 40.6 48.5686 40.6ZM48.5686 35.14C50.2086 35.14 51.4486 35.02 52.2886 34.78C53.1286 34.5 53.7086 34.08 54.0286 33.52C54.3886 32.96 54.5686 32.14 54.5686 31.06V20.08C54.5686 18.48 54.1486 17.36 53.3086 16.72C52.4686 16.08 50.8886 15.76 48.5686 15.76C46.2486 15.76 44.6686 16.08 43.8286 16.72C42.9886 17.36 42.5686 18.48 42.5686 20.08V31.06C42.5686 32.14 42.7286 32.96 43.0486 33.52C43.4086 34.08 44.0086 34.5 44.8486 34.78C45.6886 35.02 46.9286 35.14 48.5686 35.14ZM70.1564 10.96H81.3164L88.3964 31L95.8964 10.96H106.456V40H98.5364V21.28H98.1764L91.1564 40H84.9764L78.1964 21.28H77.8364V40H70.1564V10.96ZM122.38 39.76L110.8 10.96H120.34L126.88 31.48L132.82 10.96H141.88L125.98 52.48H117.1L122.38 39.76ZM160.039 10.96H188.179V40H179.419V16.54H168.799V40H160.039V10.96ZM196.08 0.459998H204.84V7.54H196.08V0.459998ZM196.08 10.96H204.84V40H196.08V10.96ZM210.134 34.24H211.874C212.674 34.24 213.454 33.7 214.214 32.62C215.014 31.5 215.694 29.54 216.254 26.74C216.814 23.9 217.094 20.1 217.094 15.34V10.96H239.654V34.24H244.154V48.04H236.954V40H218.114V48.04H210.134V34.24ZM230.894 34.42V16.48H224.294V17.26C224.294 21.3 223.994 24.78 223.394 27.7C222.794 30.62 221.934 32.86 220.814 34.42H230.894ZM257.613 25.12L246.813 10.96H256.953L262.653 19.3L268.413 10.96H278.553L267.693 25.12L279.153 40H269.013L262.653 30.88L256.353 40H246.213L257.613 25.12ZM297.475 40.6C295.675 40.6 294.195 40.54 293.035 40.42C291.875 40.3 290.635 40.06 289.315 39.7C287.875 39.3 286.715 38.74 285.835 38.02C284.955 37.26 284.215 36.2 283.615 34.84C283.015 33.52 282.715 31.92 282.715 30.04V21.46C282.715 19.54 283.015 17.86 283.615 16.42C284.215 14.98 284.995 13.86 285.955 13.06C286.795 12.38 287.895 11.82 289.255 11.38C290.655 10.9 292.015 10.6 293.335 10.48C294.855 10.4 296.235 10.36 297.475 10.36C299.315 10.36 300.775 10.42 301.855 10.54C302.975 10.62 304.195 10.86 305.515 11.26C306.955 11.7 308.115 12.3 308.995 13.06C309.915 13.82 310.695 14.9 311.335 16.3C311.935 17.74 312.235 19.46 312.235 21.46V30.04C312.235 31.84 311.935 33.42 311.335 34.78C310.775 36.14 310.035 37.2 309.115 37.96C308.315 38.64 307.215 39.2 305.815 39.64C304.455 40.04 303.115 40.3 301.795 40.42C300.595 40.54 299.155 40.6 297.475 40.6ZM297.475 35.14C299.115 35.14 300.355 35.02 301.195 34.78C302.035 34.5 302.615 34.08 302.935 33.52C303.295 32.96 303.475 32.14 303.475 31.06V20.08C303.475 18.48 303.055 17.36 302.215 16.72C301.375 16.08 299.795 15.76 297.475 15.76C295.155 15.76 293.575 16.08 292.735 16.72C291.895 17.36 291.475 18.48 291.475 20.08V31.06C291.475 32.14 291.635 32.96 291.955 33.52C292.315 34.08 292.915 34.5 293.755 34.78C294.595 35.02 295.835 35.14 297.475 35.14ZM316.423 34.24H318.163C318.963 34.24 319.743 33.7 320.503 32.62C321.303 31.5 321.983 29.54 322.543 26.74C323.103 23.9 323.383 20.1 323.383 15.34V10.96H345.943V34.24H350.443V48.04H343.243V40H324.403V48.04H316.423V34.24ZM337.183 34.42V16.48H330.583V17.26C330.583 21.3 330.283 24.78 329.683 27.7C329.083 30.62 328.223 32.86 327.103 34.42H337.183ZM355.742 10.96H364.502V29.92L375.962 10.96H384.722V40H375.962V20.5L364.502 40H355.742V10.96ZM399.382 16.72H389.782V10.96H417.742V16.72H408.142V40H399.382V16.72ZM422.774 10.96H431.534V20.68H434.894C438.934 20.68 441.934 20.9 443.894 21.34C445.894 21.78 447.254 22.56 447.974 23.68C448.734 24.8 449.114 26.52 449.114 28.84V32.26C449.114 35.02 447.974 37 445.694 38.2C443.414 39.4 439.874 40 435.074 40H422.774V10.96ZM434.654 34.54C436.254 34.54 437.434 34.44 438.194 34.24C438.954 34 439.454 33.64 439.694 33.16C439.934 32.68 440.054 31.96 440.054 31V29.38C440.054 28.5 439.894 27.84 439.574 27.4C439.294 26.92 438.774 26.6 438.014 26.44C437.294 26.28 436.214 26.2 434.774 26.2H431.414V34.54H434.654Z" fill="white"/>
</svg>
