<svg width="13" height="18" viewBox="0 0 13 18" fill="none" xmlns="http://www.w3.org/2000/svg">
<path fill-rule="evenodd" clip-rule="evenodd" d="M6.5 3.05176e-05C10.0903 3.05176e-05 13 2.77759 13 6.21904C13 9.45152 9.64325 13.3848 7.84682 16.3653C6.74743 18.1899 6.24154 18.1716 5.15521 16.3686C3.35849 13.3876 0 9.45124 0 6.21904C0 2.77759 2.90974 3.05176e-05 6.5 3.05176e-05V3.05176e-05ZM6.49159 3.34061C8.15111 3.34061 9.49619 4.6292 9.49619 6.21904C9.49619 7.80888 8.15111 9.09748 6.49159 9.09748C4.83207 9.09748 3.48699 7.80888 3.48699 6.21904C3.48699 4.6292 4.83207 3.34061 6.49159 3.34061Z" fill="#DA251D"/>
</svg>
