<svg width="15" height="19" viewBox="0 0 15 19" fill="none" xmlns="http://www.w3.org/2000/svg">
<path d="M7.49977 0C3.64311 0 0.505127 3.13799 0.505127 6.99504C0.505127 8.00111 0.711046 8.96167 1.11686 9.8503C2.86571 13.6772 6.21876 17.7176 7.20499 18.8647C7.27888 18.9504 7.38661 18.9998 7.49997 18.9998C7.61333 18.9998 7.72105 18.9504 7.79494 18.8647C8.78079 17.7178 12.1338 13.6776 13.8833 9.8503C14.2893 8.96167 14.495 8.00111 14.495 6.99504C14.4946 3.13799 11.3566 0 7.49977 0ZM7.49977 10.6283C5.49639 10.6283 3.86634 8.99823 3.86634 6.99484C3.86634 4.99126 5.49639 3.36121 7.49977 3.36121C9.50316 3.36121 11.1332 4.99126 11.1332 6.99484C11.1334 8.99823 9.50336 10.6283 7.49977 10.6283Z" fill="#F6E11F"/>
</svg>
