<svg width="10" height="14" viewBox="0 0 10 14" fill="none" xmlns="http://www.w3.org/2000/svg">
<path fill-rule="evenodd" clip-rule="evenodd" d="M5 0C7.76174 0 10 2.19356 10 4.91142C10 7.46425 7.41789 10.5706 6.03601 12.9243C5.19033 14.3654 4.80119 14.3509 3.96555 12.927C2.58345 10.5728 0 7.46403 0 4.91142C0 2.19356 2.23826 0 5 0V0ZM4.99353 2.6382C6.27008 2.6382 7.30476 3.65586 7.30476 4.91142C7.30476 6.16699 6.27008 7.18465 4.99353 7.18465C3.71698 7.18465 2.6823 6.16699 2.6823 4.91142C2.6823 3.65586 3.71698 2.6382 4.99353 2.6382Z" fill="#3C4196"/>
</svg>
