<svg width="20" height="20" viewBox="0 0 20 20" fill="none" xmlns="http://www.w3.org/2000/svg">
<path d="M10 10.8333C11.3807 10.8333 12.5 9.71397 12.5 8.33325C12.5 6.95254 11.3807 5.83325 10 5.83325C8.61929 5.83325 7.5 6.95254 7.5 8.33325C7.5 9.71397 8.61929 10.8333 10 10.8333Z" stroke="#2D487C" stroke-width="2" stroke-linecap="round" stroke-linejoin="round"/>
<path d="M10 1.66675C8.2319 1.66675 6.53621 2.36913 5.28596 3.61937C4.03572 4.86961 3.33334 6.5653 3.33334 8.33342C3.33334 9.91008 3.66834 10.9417 4.58334 12.0834L10 18.3334L15.4167 12.0834C16.3317 10.9417 16.6667 9.91008 16.6667 8.33342C16.6667 6.5653 15.9643 4.86961 14.7141 3.61937C13.4638 2.36913 11.7681 1.66675 10 1.66675V1.66675Z" stroke="#2D487C" stroke-width="2" stroke-linecap="round" stroke-linejoin="round"/>
</svg>
