<svg width="60" height="61" viewBox="0 0 60 61" fill="none" xmlns="http://www.w3.org/2000/svg">
<g filter="url(#filter0_d)">
<circle cx="30" cy="25.5791" r="20" fill="#87BB4E"/>
</g>
<path d="M30.578 32.2949C31.8807 30.3999 35 25.6535 35 23.5059C35 20.7808 32.7615 18.5791 30.0092 18.5791C27.2569 18.5791 25 20.7808 25 23.5059C25 25.6535 28.1376 30.3999 29.4404 32.2949C29.7156 32.6739 30.3028 32.6739 30.578 32.2949ZM27.6789 23.5059C27.6789 22.2427 28.7248 21.214 30.0092 21.214C31.2936 21.214 32.3394 22.2427 32.3394 23.5059C32.3394 24.7692 31.2936 25.7799 30.0092 25.7799C28.7248 25.7799 27.6789 24.7512 27.6789 23.5059Z" fill="white"/>
<defs>
<filter id="filter0_d" x="0" y="0.579102" width="60" height="60" filterUnits="userSpaceOnUse" color-interpolation-filters="sRGB">
<feFlood flood-opacity="0" result="BackgroundImageFix"/>
<feColorMatrix in="SourceAlpha" type="matrix" values="0 0 0 0 0 0 0 0 0 0 0 0 0 0 0 0 0 0 127 0"/>
<feOffset dy="5"/>
<feGaussianBlur stdDeviation="5"/>
<feColorMatrix type="matrix" values="0 0 0 0 0.529412 0 0 0 0 0.733333 0 0 0 0 0.305882 0 0 0 0.5 0"/>
<feBlend mode="normal" in2="BackgroundImageFix" result="effect1_dropShadow"/>
<feBlend mode="normal" in="SourceGraphic" in2="effect1_dropShadow" result="shape"/>
</filter>
</defs>
</svg>
