<svg width="82" height="96" viewBox="0 0 82 96" fill="none" xmlns="http://www.w3.org/2000/svg">
<path fill-rule="evenodd" clip-rule="evenodd" d="M82 9.7253C80.5881 11.1489 78.8298 12.8551 76.6772 14.8439L70.2248 20.7569L64.4438 25.8755C62.8613 24.3399 60.9325 22.4098 58.7267 20.0211C57.368 18.5975 56.2331 17.4618 55.386 16.7207L54.7626 17.2325C54.5335 17.3445 54.363 17.6324 54.2511 18.1443L63.0851 27.1285L71.8659 35.942L80.4708 44.5316C75.2066 50.1034 69.1485 52.892 62.4084 52.892C59.1796 52.892 55.6684 52.2095 51.928 50.9032C50.6865 51.2978 49.4398 51.5857 48.1344 51.7563C46.8343 51.9269 45.5875 52.0389 44.4526 52.0389L42.5292 51.9802C42.1349 51.9802 41.7353 51.9269 41.2824 51.8683C40.8881 51.7563 40.5471 51.6976 40.2647 51.639C39.247 51.4684 38.1708 51.1271 37.0359 50.6739C33.5832 52.2682 29.9548 53.0626 26.1611 53.0626C22.6499 53.0626 19.3678 52.4388 16.2508 51.1271C13.1392 49.8208 10.3632 47.8854 7.81104 45.3847C5.3228 42.8254 3.34074 39.9249 1.98206 36.6245C1.35867 34.977 0.847168 33.3294 0.506168 31.6232C0.1705 29.9703 0 28.2108 0 26.446C0 22.8043 0.623389 19.3919 1.92345 16.2088C3.22352 13.0257 5.09369 10.1252 7.64588 7.5659L14.1568 13.9908L20.2149 20.0744L21.5203 18.6562L19.0854 16.0382L15.7393 12.5139L9.34021 6.03033C11.3809 4.15351 13.8745 2.67126 16.8742 1.59423C18.1796 1.13568 19.6502 0.794444 21.2912 0.453205C22.879 0.111967 24.4615 0 25.9906 0C30.072 0 33.8656 0.794444 37.4301 2.44732C39.6999 1.3063 42.2468 0.741129 45.1346 0.741129C46.2642 0.741129 46.9462 0.741129 47.2286 0.853096C47.511 0.853096 47.7934 0.853097 47.9639 0.911749C48.1344 0.965064 48.5873 1.08237 49.2107 1.25299C50.1164 1.42361 51.0222 1.81816 51.9866 2.38867C55.4393 0.911748 58.9505 0.170619 62.6322 0.170619C66.4259 0.170619 69.9371 0.965064 73.2832 2.55929C76.5653 4.09486 79.4532 6.48353 82 9.7253ZM77.9826 58.4104L74.9242 67.5652H74.0717L74.3541 65.7471L74.4713 64.0942C74.4713 62.9585 74.3008 61.9934 74.0185 61.311C73.4483 59.8287 72.4893 59.0343 71.1306 59.0343C69.6014 59.0343 68.2428 59.8287 66.996 61.4229C65.8025 63.0172 64.5024 65.6298 63.2556 69.2714L61.2203 75.2431L60.0854 79.4499C59.803 80.7616 59.6911 81.8386 59.6911 82.7504V83.4328L59.803 84.0567C60.0854 85.5389 60.8207 86.3334 62.0088 86.3334C62.6322 86.3334 63.3142 86.1627 64.0495 85.8801C64.7315 85.5922 65.5201 85.027 66.3726 84.2859C67.2197 83.5448 68.1255 82.4678 69.0313 81.1561C69.4309 80.591 69.7719 79.9618 70.1076 79.2793C70.4486 78.5968 70.8429 77.8024 71.3544 76.8373H72.4307L68.8075 86.9039H67.7313C67.7313 86.504 67.6194 86.1627 67.3903 85.9921L66.7669 85.8801C66.4845 85.8801 66.1435 85.9921 65.6906 86.2214L64.5024 86.6746L63.3142 87.0745C62.8027 87.1865 62.5203 87.2451 62.4617 87.2984H61.8383C58.8972 87.2984 57.027 85.7095 56.1799 82.4678C55.8921 81.3854 55.7803 80.2497 55.7803 79.1087C55.7803 77.1199 56.1799 74.9019 57.027 72.4012C58.1033 68.9888 60.0854 65.8004 62.8027 62.7879C65.7492 59.6581 68.5784 58.1225 71.3011 58.1225C71.754 58.1225 72.0897 58.1225 72.3188 58.1812C72.5426 58.1812 72.8836 58.2931 73.3364 58.5224L74.9242 59.2049L75.5476 59.3169C75.7714 59.3169 76.0005 59.2635 76.2243 59.1462C76.4534 59.0343 76.6772 58.805 76.9063 58.4638H77.9826V58.4104ZM56.5155 67.8478H49.6103L49.3225 68.7009H50.5693L50.4574 69.0422L41.7939 82.5797L46.3814 68.7009H47.6282L47.9639 67.8478H41.0586L40.7176 68.7009H42.2468L36.4711 85.9921H34.9419L34.6595 86.8452H41.5648L41.8472 85.9921H40.6057L40.7709 85.4216L49.493 71.7188L44.7404 85.9921H43.4936L43.2112 86.8452H50.1164L50.4574 85.9921H48.9283L54.704 68.7009H56.2331L56.5155 67.8478ZM37.4888 71.0363L37.6006 72.4012C37.6006 72.9131 37.6006 73.3663 37.6006 73.8782C37.4888 74.278 37.4301 74.7312 37.3769 75.1844C37.3183 75.643 37.0945 76.3788 36.6949 77.4612C35.6186 80.591 34.0894 83.0329 32.0541 84.7978C30.1839 86.4453 28.3723 87.2451 26.7259 87.2451C26.1611 87.2451 25.655 86.9572 25.1435 86.504C24.8025 85.9921 24.5787 85.3683 24.5787 84.5685L21.0674 95.0936H22.4794L22.197 96H15.1212L15.4569 95.0936H16.8742L25.655 68.7009H24.2377L24.5201 67.8478H28.4256L29.1076 67.7945L30.2372 67.4533L29.2195 70.4658C29.6191 69.6713 30.1839 69.0422 30.9778 68.477C31.9368 67.7358 32.9598 67.3946 34.0361 67.3946C36.0715 67.5066 37.2064 68.7009 37.4888 71.0363ZM27.296 58.4104H9.05782L5.71708 67.6239H6.85197C7.52865 66.2003 8.21066 65.0059 8.77543 64.0409C9.45744 63.0705 10.0808 62.276 10.6456 61.5349C12.0629 60.058 13.4748 59.3169 14.7216 59.3169H15.5155L6.68147 85.9335H4.13463L3.79363 86.8452H13.4748L13.8158 85.9335H11.269L20.1031 59.3169H20.9502C22.4794 59.3169 23.3852 60.3406 23.6729 62.388L23.7848 63.1291V63.8703C23.7848 64.3235 23.7262 64.894 23.6729 65.6298C23.5557 66.3709 23.4438 66.9947 23.3319 67.5652H24.4615L27.296 58.4104ZM78.9417 9.32541C76.7358 6.99539 74.1889 5.23055 71.1839 3.9829C69.6547 3.35373 68.2428 2.90053 66.8255 2.55929C66.2021 2.44732 65.4668 2.33002 64.6729 2.21805C63.879 2.10608 63.0851 2.10608 62.2912 2.10608C59.9149 2.10608 57.5385 2.50064 55.2741 3.35373L58.4976 5.17723C59.3501 5.68909 60.9325 7.05404 63.2023 9.21344C62.1261 10.0665 61.0498 11.0903 60.0268 12.2846C59.462 12.8551 58.9505 13.4203 58.3857 13.9908C57.8742 14.5026 57.4213 14.9558 57.027 15.2438L64.3319 22.6924L68.9194 18.5975L74.5246 13.4203L78.9417 9.32541ZM77.3006 44.6436L52.0985 19.28L45.9818 25.3636L40.8295 20.0744L37.7711 17.0033L37.0945 17.6858L36.3006 18.5388L45.0227 27.2404L54.2511 36.5125L61.7851 44.1317C60.4264 45.726 59.1796 46.8083 58.1619 47.4322L54.4802 49.2503C56.7979 50.1621 59.2382 50.6153 61.7851 50.6153C64.5024 50.6153 67.1665 50.1034 69.7719 49.0797C72.4307 48.1146 74.9242 46.6377 77.3006 44.6436ZM43.1526 9.27209C41 7.10736 38.4531 5.40116 35.4481 4.15351C32.4483 2.90053 29.4486 2.33002 26.3316 2.33002C21.4617 2.33002 16.9328 3.75362 12.7396 6.54218L28.5961 22.6337L33.1836 18.5388L38.7888 13.367L43.1526 9.27209ZM41.7939 44.6436L32.0541 34.9183L17.3857 20.0744L8.09877 10.749C6.34047 12.7964 4.92319 15.2971 3.84691 18.1443C3.45263 19.28 3.11163 20.7036 2.77063 22.2925C2.65874 22.9749 2.54684 23.6041 2.48824 24.2866C2.43495 24.9104 2.37634 25.6515 2.37634 26.5046C2.37634 29.6878 2.94113 32.6469 4.07602 35.5475C5.20558 38.3893 6.90526 40.9486 9.17505 43.2253C11.3809 45.4967 14.045 47.2615 17.0447 48.5678C20.0444 49.8208 23.1028 50.5033 26.1611 50.5033C28.9371 50.5033 31.6544 50.0501 34.3185 49.0797C37.0945 48.1146 39.5294 46.6377 41.7939 44.6436ZM33.8656 70.9776L33.9189 70.2365C33.9189 69.1595 33.5246 68.589 32.7893 68.589C31.6012 68.589 30.4077 69.6713 29.2195 71.8894C28.4842 73.3663 27.637 75.4724 26.7259 78.085L26.1611 79.7912C25.8787 80.7616 25.655 81.556 25.5377 82.2385C25.3672 82.921 25.314 83.4915 25.314 83.9447C25.314 84.4565 25.3672 84.7391 25.4259 84.8564C25.655 85.5389 26.1611 85.8801 26.955 85.8801C27.5784 85.8801 28.2551 85.4216 29.049 84.5152C29.6724 83.7154 30.3544 82.1798 31.2016 80.0204L32.7893 75.3018L33.5246 72.7425L33.8656 70.9776Z" fill="#3C4196"/>
</svg>
