<svg width="216" height="27" viewBox="0 0 216 27" fill="none" xmlns="http://www.w3.org/2000/svg">
<path d="M0.353516 2.34078V0.239258H2.21486V2.34078H0.353516ZM0.353516 15.1901V4.38225H2.21486V15.1901H0.353516ZM5.21703 15.1901V0.239258H7.25851L15.1242 11.9477V0.239258H17.0456V15.1901H15.0041L7.13842 3.42156V15.13H5.21703V15.1901ZM24.2508 15.1901V2.04056H19.3272V0.299305H31.2158V2.04056H26.2322V15.1901H24.2508ZM33.3173 15.1901V0.239258H44.1852V1.98052H35.2988V6.54381H43.5848V8.28507H35.2988V13.3888H44.5454V15.13H33.3173V15.1901ZM47.3074 15.1901V0.239258H53.9723C55.2932 0.239258 56.314 0.359347 57.0345 0.659564C57.755 0.899738 58.2954 1.38009 58.7157 2.10061C59.136 2.76108 59.3161 3.54165 59.3161 4.32221C59.3161 5.40299 58.9559 6.30364 58.2954 7.02416C57.6349 7.74468 56.5541 8.22503 55.1131 8.40516C55.6535 8.64534 56.0137 8.88551 56.3139 9.12568C56.9144 9.66607 57.4548 10.3266 57.9351 11.1071L60.577 15.1901H57.9952L56.0137 12.0678C55.4133 11.1672 54.933 10.5067 54.5727 10.0263C54.2124 9.54599 53.8522 9.24577 53.552 9.0056C53.2517 8.82547 52.9515 8.70538 52.6513 8.58529C52.4111 8.52525 52.0509 8.52525 51.5705 8.52525H49.2889V15.13H47.3074V15.1901ZM49.2889 6.84403H53.552C54.4526 6.84403 55.1731 6.72394 55.7135 6.54381C56.2539 6.36368 56.6142 6.06347 56.8543 5.64316C57.0945 5.22286 57.2747 4.80256 57.2747 4.32221C57.2747 3.60169 57.0345 3.0613 56.4941 2.58095C55.9537 2.1006 55.1731 1.92047 54.0323 1.92047H49.2889V6.84403ZM62.3783 15.1901V0.239258H64.4198L72.2855 11.9477V0.239258H74.2069V15.1901H72.1654L64.2997 3.42156V15.13H62.3783V15.1901ZM77.6294 15.1901V0.239258H88.4972V1.98052H79.6108V6.54381H87.8968V8.28507H79.6108V13.3888H88.8575V15.13H77.6294V15.1901ZM95.4022 15.1901V2.04056H90.4786V0.299305H102.367V2.04056H97.3836V15.1901H95.4022Z" fill="#EB5757"/>
<path d="M103.749 10.3875L105.61 10.2074C105.67 10.9279 105.911 11.5884 106.211 12.0687C106.511 12.5491 107.051 12.9093 107.712 13.2095C108.372 13.5098 109.153 13.6298 109.994 13.6298C110.774 13.6298 111.435 13.5098 111.975 13.2696C112.575 13.0294 112.996 12.7292 113.296 12.3689C113.596 11.9486 113.716 11.5283 113.716 11.108C113.716 10.6277 113.596 10.2074 113.296 9.90716C112.996 9.5469 112.575 9.24668 111.915 9.00651C111.495 8.82638 110.594 8.5862 109.213 8.28599C107.832 7.92573 106.871 7.62551 106.331 7.32529C105.61 6.96503 105.07 6.48468 104.71 5.94429C104.349 5.4039 104.169 4.74343 104.169 4.08295C104.169 3.30238 104.41 2.64191 104.83 1.98143C105.25 1.32095 105.911 0.840605 106.691 0.480344C107.532 0.120084 108.432 0 109.453 0C110.594 0 111.555 0.180127 112.395 0.540387C113.236 0.900647 113.896 1.44104 114.377 2.10152C114.857 2.82204 115.097 3.6026 115.097 4.44321L113.176 4.5633C113.056 3.6026 112.695 2.88208 112.155 2.40174C111.555 1.92139 110.714 1.68121 109.513 1.68121C108.312 1.68121 107.412 1.92138 106.871 2.34169C106.331 2.76199 106.031 3.30239 106.031 3.90282C106.031 4.44321 106.211 4.86351 106.631 5.22377C106.991 5.58403 108.012 5.9443 109.633 6.30456C111.254 6.66482 112.335 6.96503 112.936 7.26525C113.836 7.68555 114.437 8.1659 114.857 8.76633C115.277 9.36677 115.457 10.0873 115.457 10.8679C115.457 11.6484 115.217 12.429 114.797 13.0895C114.317 13.81 113.656 14.3504 112.816 14.7106C111.975 15.0709 111.014 15.3111 109.933 15.3111C108.552 15.3111 107.412 15.1309 106.511 14.7106C105.61 14.2903 104.89 13.7499 104.349 12.9093C104.049 12.3089 103.749 11.4082 103.749 10.3875ZM117.799 7.92573C117.799 5.46395 118.46 3.48252 119.781 2.10152C121.102 0.720521 122.843 0 124.944 0C126.325 0 127.586 0.300216 128.667 0.960693C129.808 1.62117 130.648 2.52182 131.189 3.72269C131.789 4.92356 132.09 6.24451 132.09 7.74559C132.09 9.24668 131.789 10.6277 131.189 11.8285C130.588 13.0294 129.688 13.9301 128.547 14.5305C127.406 15.1309 126.205 15.4312 124.884 15.4312C123.443 15.4312 122.182 15.0709 121.102 14.4104C119.961 13.7499 119.12 12.7892 118.58 11.6484C118.099 10.4475 117.799 9.24668 117.799 7.92573ZM119.841 7.92573C119.841 9.72703 120.321 11.1681 121.282 12.1888C122.242 13.2095 123.503 13.7499 124.944 13.7499C126.445 13.7499 127.646 13.2095 128.607 12.1888C129.568 11.1681 130.048 9.66698 130.048 7.74559C130.048 6.54473 129.868 5.46395 129.448 4.5633C129.027 3.66265 128.427 2.94213 127.646 2.46178C126.866 1.98143 125.965 1.68121 124.944 1.68121C123.563 1.68121 122.302 2.16156 121.282 3.12225C120.381 4.08295 119.841 5.70412 119.841 7.92573ZM133.531 15.191V13.3296L141.216 3.78273C141.757 3.12225 142.297 2.52182 142.777 1.98143H134.371V0.24017H145.119V1.98143L136.713 12.3089L135.812 13.3296H145.419V15.0709H133.531V15.191ZM147.581 15.191V0.24017H152.744C153.885 0.24017 154.786 0.300214 155.446 0.480344C156.287 0.660475 157.068 1.02074 157.668 1.56113C158.449 2.2216 159.049 3.06221 159.469 4.14299C159.89 5.16373 160.07 6.3646 160.07 7.68555C160.07 8.82638 159.95 9.84711 159.649 10.6877C159.409 11.5884 159.049 12.3089 158.629 12.8493C158.208 13.3897 157.728 13.87 157.248 14.2303C156.767 14.5305 156.167 14.8307 155.446 14.9508C154.726 15.1309 153.945 15.191 153.045 15.191H147.581ZM149.562 13.4497H152.744C153.765 13.4497 154.486 13.3296 155.086 13.1495C155.627 12.9694 156.107 12.7292 156.467 12.3689C156.947 11.8886 157.308 11.2882 157.548 10.5076C157.788 9.72703 157.968 8.76633 157.968 7.62551C157.968 6.06438 157.728 4.86351 157.188 4.02291C156.647 3.1823 156.047 2.64191 155.326 2.34169C154.786 2.16156 153.945 2.04147 152.744 2.04147H149.562V13.4497ZM161.09 15.191L166.855 0.24017H169.016L175.141 15.191H172.859L171.118 10.6877H164.873L163.252 15.191H161.09ZM165.414 9.06655H170.517L168.956 4.92356C168.476 3.66265 168.116 2.64191 167.875 1.8013C167.695 2.762 167.395 3.72269 167.095 4.62334L165.414 9.06655ZM179.043 15.191V2.04147H174.12V0.300217H186.008V2.04147H181.025V15.191H179.043ZM188.05 15.191V0.24017H198.918V1.98143H190.031V6.54473H198.317V8.28599H190.031V13.3897H199.278V15.1309H188.05V15.191ZM201.92 15.191V0.24017H203.901V13.3897H211.287V15.1309H201.92V15.191ZM213.508 2.34169V0.24017H215.37V2.34169H213.508ZM213.508 15.191V4.38316H215.37V15.191H213.508Z" fill="#F8F9FA"/>
<path d="M0 26.7865V20.8623H2.04075C2.50143 20.8623 2.853 20.8905 3.09547 20.9471C3.43492 21.0252 3.72453 21.1667 3.9643 21.3714C4.27681 21.6355 4.50985 21.9736 4.66341 22.3857C4.81966 22.7952 4.89779 23.264 4.89779 23.792C4.89779 24.2419 4.84526 24.6407 4.74019 24.9882C4.63512 25.3357 4.50042 25.624 4.33608 25.853C4.17174 26.0793 3.99124 26.2584 3.79458 26.3905C3.6006 26.5198 3.36487 26.6181 3.08739 26.6855C2.81259 26.7528 2.49604 26.7865 2.13773 26.7865H0ZM0.78397 26.0874H2.04883C2.43947 26.0874 2.74524 26.051 2.96615 25.9783C3.18976 25.9055 3.36757 25.8032 3.49958 25.6711C3.68547 25.4853 3.8296 25.2361 3.93197 24.9235C4.03704 24.6083 4.08957 24.2271 4.08957 23.7799C4.08957 23.1603 3.9872 22.6848 3.78245 22.3534C3.5804 22.0194 3.33389 21.7957 3.04293 21.6826C2.8328 21.6018 2.49469 21.5614 2.02862 21.5614H0.78397V26.0874Z" fill="#F8F9FA"/>
<path d="M10.335 26.7865V20.8623H11.119V26.7865H10.335Z" fill="#F8F9FA"/>
<path d="M19.4981 24.4629V23.7678L22.0076 23.7638V25.9621C21.6223 26.2692 21.2249 26.5009 20.8154 26.6572C20.406 26.8107 19.9857 26.8875 19.5546 26.8875C18.9727 26.8875 18.4433 26.7636 17.9665 26.5157C17.4923 26.2652 17.134 25.9042 16.8916 25.4327C16.6491 24.9613 16.5279 24.4346 16.5279 23.8527C16.5279 23.2761 16.6477 22.7387 16.8875 22.2403C17.13 21.7392 17.4775 21.3674 17.9301 21.1249C18.3827 20.8825 18.904 20.7612 19.494 20.7612C19.9224 20.7612 20.309 20.8313 20.6538 20.9714C21.0013 21.1088 21.2734 21.3014 21.4701 21.5492C21.6668 21.7971 21.8163 22.1204 21.9187 22.5191L21.2115 22.7131C21.1226 22.4113 21.0121 22.1743 20.8801 22.0018C20.7481 21.8294 20.5595 21.692 20.3144 21.5897C20.0692 21.4846 19.7971 21.432 19.4981 21.432C19.1397 21.432 18.8299 21.4873 18.5686 21.5977C18.3073 21.7055 18.0958 21.8483 17.9342 22.0261C17.7752 22.2039 17.6513 22.3992 17.5624 22.612C17.4115 22.9784 17.3361 23.3758 17.3361 23.8042C17.3361 24.3322 17.4263 24.774 17.6068 25.1296C17.79 25.4853 18.0554 25.7493 18.4029 25.9217C18.7505 26.0941 19.1195 26.1803 19.5102 26.1803C19.8496 26.1803 20.181 26.1157 20.5043 25.9863C20.8276 25.8543 21.0727 25.7142 21.2398 25.5661V24.4629H19.4981Z" fill="#F8F9FA"/>
<path d="M27.5215 26.7865V20.8623H28.3055V26.7865H27.5215Z" fill="#F8F9FA"/>
<path d="M35.4198 26.7865V21.5614H33.4679V20.8623H38.1637V21.5614H36.2037V26.7865H35.4198Z" fill="#F8F9FA"/>
<path d="M41.9278 26.7865L44.203 20.8623H45.0476L47.4722 26.7865H46.5791L45.8881 24.9922H43.4109L42.7603 26.7865H41.9278ZM43.6372 24.3538H45.6456L45.0273 22.7131C44.8388 22.2147 44.6987 21.8052 44.6071 21.4846C44.5316 21.8644 44.4252 22.2416 44.2878 22.6161L43.6372 24.3538Z" fill="#F8F9FA"/>
<path d="M52.2871 26.7865V20.8623H53.071V26.0874H55.9887V26.7865H52.2871Z" fill="#F8F9FA"/>
<path d="M67.3399 26.7865V20.8623H68.5199L69.9222 25.0569C70.0515 25.4475 70.1458 25.7398 70.2051 25.9338C70.2724 25.7183 70.3775 25.4017 70.5203 24.9842L71.9387 20.8623H72.9934V26.7865H72.2377V21.8281L70.5162 26.7865H69.809L68.0956 21.7432V26.7865H67.3399Z" fill="#F8F9FA"/>
<path d="M77.8285 26.7865L80.1036 20.8623H80.9482L83.3728 26.7865H82.4798L81.7887 24.9922H79.3116L78.6609 26.7865H77.8285ZM79.5379 24.3538H81.5463L80.928 22.7131C80.7394 22.2147 80.5993 21.8052 80.5077 21.4846C80.4323 21.8644 80.3259 22.2416 80.1885 22.6161L79.5379 24.3538Z" fill="#F8F9FA"/>
<path d="M88.2322 26.7865V20.8623H90.8589C91.3869 20.8623 91.7883 20.9161 92.0631 21.0239C92.3379 21.129 92.5575 21.3162 92.7218 21.5856C92.8861 21.855 92.9683 22.1527 92.9683 22.4787C92.9683 22.899 92.8323 23.2532 92.5602 23.5415C92.2881 23.8298 91.8678 24.013 91.2993 24.0911C91.5068 24.1908 91.6644 24.2891 91.7721 24.3861C92.0011 24.5962 92.218 24.8589 92.4228 25.1741L93.4532 26.7865H92.4672L91.6833 25.554C91.4543 25.1983 91.2657 24.9262 91.1175 24.7377C90.9693 24.5491 90.836 24.4171 90.7174 24.3416C90.6016 24.2662 90.483 24.2137 90.3618 24.184C90.2729 24.1652 90.1274 24.1557 89.9254 24.1557H89.0161V26.7865H88.2322ZM89.0161 23.4768H90.7013C91.0596 23.4768 91.3398 23.4405 91.5418 23.3677C91.7439 23.2923 91.8974 23.1738 92.0025 23.0121C92.1076 22.8478 92.1601 22.67 92.1601 22.4787C92.1601 22.1985 92.0577 21.9682 91.853 21.7877C91.6509 21.6072 91.3303 21.5169 90.8912 21.5169H89.0161V23.4768Z" fill="#F8F9FA"/>
<path d="M98.3893 26.7865V20.8623H99.1733V23.8001L102.115 20.8623H103.178L100.693 23.2627L103.287 26.7865H102.253L100.143 23.788L99.1733 24.7336V26.7865H98.3893Z" fill="#F8F9FA"/>
<path d="M108.179 26.7865V20.8623H112.462V21.5614H108.963V23.3758H112.24V24.0709H108.963V26.0874H112.6V26.7865H108.179Z" fill="#F8F9FA"/>
<path d="M119.411 26.7865V21.5614H117.459V20.8623H122.155V21.5614H120.195V26.7865H119.411Z" fill="#F8F9FA"/>
<path d="M127.317 26.7865V20.8623H128.101V26.7865H127.317Z" fill="#F8F9FA"/>
<path d="M133.7 26.7865V20.8623H134.504L137.616 25.5135V20.8623H138.367V26.7865H137.563L134.452 22.1312V26.7865H133.7Z" fill="#F8F9FA"/>
<path d="M146.682 24.4629V23.7678L149.191 23.7638V25.9621C148.806 26.2692 148.409 26.5009 147.999 26.6572C147.59 26.8107 147.17 26.8875 146.738 26.8875C146.157 26.8875 145.627 26.7636 145.15 26.5157C144.676 26.2652 144.318 25.9042 144.075 25.4327C143.833 24.9613 143.712 24.4346 143.712 23.8527C143.712 23.2761 143.832 22.7387 144.071 22.2403C144.314 21.7392 144.661 21.3674 145.114 21.1249C145.567 20.8825 146.088 20.7612 146.678 20.7612C147.106 20.7612 147.493 20.8313 147.838 20.9714C148.185 21.1088 148.457 21.3014 148.654 21.5492C148.851 21.7971 149 22.1204 149.102 22.5191L148.395 22.7131C148.306 22.4113 148.196 22.1743 148.064 22.0018C147.932 21.8294 147.743 21.692 147.498 21.5897C147.253 21.4846 146.981 21.432 146.682 21.432C146.324 21.432 146.014 21.4873 145.752 21.5977C145.491 21.7055 145.28 21.8483 145.118 22.0261C144.959 22.2039 144.835 22.3992 144.746 22.612C144.595 22.9784 144.52 23.3758 144.52 23.8042C144.52 24.3322 144.61 24.774 144.791 25.1296C144.974 25.4853 145.239 25.7493 145.587 25.9217C145.934 26.0941 146.303 26.1803 146.694 26.1803C147.033 26.1803 147.365 26.1157 147.688 25.9863C148.011 25.8543 148.257 25.7142 148.424 25.5661V24.4629H146.682Z" fill="#F8F9FA"/>
<path d="M159.985 26.7865L162.26 20.8623H163.105L165.529 26.7865H164.636L163.945 24.9922H161.468L160.817 26.7865H159.985ZM161.694 24.3538H163.703L163.084 22.7131C162.896 22.2147 162.756 21.8052 162.664 21.4846C162.589 21.8644 162.482 22.2416 162.345 22.6161L161.694 24.3538Z" fill="#F8F9FA"/>
<path d="M173.149 24.4629V23.7678L175.658 23.7638V25.9621C175.273 26.2692 174.876 26.5009 174.466 26.6572C174.057 26.8107 173.636 26.8875 173.205 26.8875C172.623 26.8875 172.094 26.7636 171.617 26.5157C171.143 26.2652 170.785 25.9042 170.542 25.4327C170.3 24.9613 170.179 24.4346 170.179 23.8527C170.179 23.2761 170.298 22.7387 170.538 22.2403C170.781 21.7392 171.128 21.3674 171.581 21.1249C172.033 20.8825 172.555 20.7612 173.145 20.7612C173.573 20.7612 173.96 20.8313 174.304 20.9714C174.652 21.1088 174.924 21.3014 175.121 21.5492C175.317 21.7971 175.467 22.1204 175.569 22.5191L174.862 22.7131C174.773 22.4113 174.663 22.1743 174.531 22.0018C174.399 21.8294 174.21 21.692 173.965 21.5897C173.72 21.4846 173.448 21.432 173.149 21.432C172.79 21.432 172.481 21.4873 172.219 21.5977C171.958 21.7055 171.746 21.8483 171.585 22.0261C171.426 22.2039 171.302 22.3992 171.213 22.612C171.062 22.9784 170.987 23.3758 170.987 23.8042C170.987 24.3322 171.077 24.774 171.257 25.1296C171.441 25.4853 171.706 25.7493 172.054 25.9217C172.401 26.0941 172.77 26.1803 173.161 26.1803C173.5 26.1803 173.832 26.1157 174.155 25.9863C174.478 25.8543 174.723 25.7142 174.89 25.5661V24.4629H173.149Z" fill="#F8F9FA"/>
<path d="M181.055 26.7865V20.8623H185.339V21.5614H181.839V23.3758H185.116V24.0709H181.839V26.0874H185.476V26.7865H181.055Z" fill="#F8F9FA"/>
<path d="M190.772 26.7865V20.8623H191.576L194.688 25.5135V20.8623H195.439V26.7865H194.635L191.523 22.1312V26.7865H190.772Z" fill="#F8F9FA"/>
<path d="M205.208 24.7094L205.992 24.9074C205.828 25.5513 205.532 26.0429 205.103 26.3824C204.678 26.7191 204.156 26.8875 203.539 26.8875C202.901 26.8875 202.381 26.7582 201.98 26.4996C201.581 26.2382 201.276 25.8611 201.066 25.3681C200.859 24.8751 200.755 24.3457 200.755 23.7799C200.755 23.163 200.872 22.6255 201.107 22.1675C201.344 21.7068 201.679 21.358 202.113 21.1209C202.549 20.8811 203.029 20.7612 203.552 20.7612C204.144 20.7612 204.643 20.9121 205.047 21.2138C205.451 21.5156 205.732 21.9399 205.891 22.4868L205.119 22.6686C204.982 22.2376 204.783 21.9237 204.521 21.727C204.26 21.5304 203.931 21.432 203.535 21.432C203.08 21.432 202.699 21.5412 202.392 21.7594C202.087 21.9776 201.873 22.2712 201.749 22.6403C201.625 23.0067 201.563 23.3852 201.563 23.7759C201.563 24.2797 201.636 24.7201 201.782 25.0973C201.93 25.4718 202.159 25.752 202.469 25.9379C202.778 26.1237 203.114 26.2167 203.475 26.2167C203.914 26.2167 204.286 26.0901 204.59 25.8368C204.895 25.5836 205.101 25.2078 205.208 24.7094Z" fill="#F8F9FA"/>
<path d="M212.852 26.7865V24.277L210.569 20.8623H211.522L212.69 22.6484C212.906 22.9825 213.107 23.3165 213.292 23.6506C213.47 23.3408 213.686 22.9919 213.939 22.604L215.087 20.8623H216L213.636 24.277V26.7865H212.852Z" fill="#F8F9FA"/>
</svg>
