<svg width="190" height="38" viewBox="0 0 190 38" fill="none" xmlns="http://www.w3.org/2000/svg">
<path d="M61.6292 8.89717C61.6292 9.84848 61.3477 10.5843 60.7846 11.1046C60.2255 11.621 59.4295 11.8792 58.3967 11.8792H57.7502V14.704H55.4495V6.18885H58.3967C59.4722 6.18885 60.2799 6.42377 60.8196 6.8936C61.3593 7.36343 61.6292 8.03129 61.6292 8.89717ZM57.7502 10.0038H58.1695C58.5151 10.0038 58.7888 9.90672 58.9907 9.71258C59.1965 9.51843 59.2994 9.25051 59.2994 8.90882C59.2994 8.33415 58.981 8.04682 58.3442 8.04682H57.7502V10.0038ZM65.2869 11.6055V14.704H62.9862V6.18885H65.7761C68.0903 6.18885 69.2474 7.02756 69.2474 8.70497C69.2474 9.69122 68.7659 10.4542 67.803 10.9939L70.2841 14.704H67.6748L65.8693 11.6055H65.2869ZM65.2869 9.87566H65.7179C66.5216 9.87566 66.9235 9.52038 66.9235 8.80981C66.9235 8.22349 66.5294 7.93033 65.7412 7.93033H65.2869V9.87566ZM79.0265 10.4348C79.0265 11.8676 78.6751 12.9567 77.9723 13.7023C77.2695 14.4478 76.2405 14.8205 74.8854 14.8205C73.5497 14.8205 72.5246 14.4458 71.8101 13.6964C71.0996 12.947 70.7443 11.8559 70.7443 10.4231C70.7443 9.00589 71.0976 7.92451 71.8043 7.17899C72.5149 6.42959 73.5458 6.05489 74.897 6.05489C76.2522 6.05489 77.2792 6.42571 77.9781 7.16734C78.677 7.90897 79.0265 8.99813 79.0265 10.4348ZM73.1672 10.4348C73.1672 12.0811 73.7399 12.9043 74.8854 12.9043C75.4678 12.9043 75.8988 12.7043 76.1784 12.3044C76.4618 11.9045 76.6036 11.2813 76.6036 10.4348C76.6036 9.58444 76.4599 8.95736 76.1726 8.55353C75.8891 8.14583 75.4639 7.94198 74.897 7.94198C73.7438 7.94198 73.1672 8.77292 73.1672 10.4348ZM82.8298 14.704H80.5641V6.18885H85.5963V8.03517H82.8298V9.66016H85.3808V11.5065H82.8298V14.704ZM92.0497 14.704H86.9942V6.18885H92.0497V8.03517H89.2948V9.37477H91.8459V11.2211H89.2948V12.8286H92.0497V14.704ZM99.1088 12.118C99.1088 12.6461 98.9749 13.1159 98.7069 13.5275C98.439 13.9352 98.0527 14.2536 97.5479 14.4827C97.0431 14.7079 96.451 14.8205 95.7715 14.8205C95.2046 14.8205 94.7289 14.7817 94.3445 14.704C93.9601 14.6225 93.5602 14.4827 93.1447 14.2847V12.2345C93.5835 12.4597 94.0397 12.6364 94.5134 12.7645C94.9871 12.8888 95.422 12.9509 95.8181 12.9509C96.1598 12.9509 96.4102 12.8927 96.5694 12.7762C96.7286 12.6558 96.8082 12.5024 96.8082 12.3161C96.8082 12.1996 96.7752 12.0986 96.7092 12.0132C96.6471 11.9239 96.5442 11.8346 96.4005 11.7453C96.2607 11.656 95.8841 11.4735 95.2706 11.1978C94.7153 10.9454 94.2979 10.7008 94.0183 10.4639C93.7427 10.2271 93.5369 9.95526 93.401 9.64851C93.2689 9.34176 93.2029 8.97871 93.2029 8.55936C93.2029 7.77501 93.4883 7.16346 94.0591 6.72469C94.6299 6.28592 95.4142 6.06654 96.4121 6.06654C97.2936 6.06654 98.1924 6.27039 99.1088 6.6781L98.4041 8.45452C97.6081 8.08953 96.9208 7.90703 96.3422 7.90703C96.0433 7.90703 95.8258 7.95945 95.6899 8.06429C95.554 8.16913 95.4861 8.29921 95.4861 8.45452C95.4861 8.62149 95.5715 8.77098 95.7423 8.903C95.9171 9.03501 96.3869 9.27575 97.1518 9.62521C97.8857 9.95526 98.3944 10.3105 98.6778 10.6911C98.9651 11.0677 99.1088 11.5434 99.1088 12.118ZM105.993 12.118C105.993 12.6461 105.859 13.1159 105.591 13.5275C105.323 13.9352 104.937 14.2536 104.432 14.4827C103.927 14.7079 103.335 14.8205 102.656 14.8205C102.089 14.8205 101.613 14.7817 101.229 14.704C100.844 14.6225 100.445 14.4827 100.029 14.2847V12.2345C100.468 12.4597 100.924 12.6364 101.398 12.7645C101.871 12.8888 102.306 12.9509 102.702 12.9509C103.044 12.9509 103.295 12.8927 103.454 12.7762C103.613 12.6558 103.693 12.5024 103.693 12.3161C103.693 12.1996 103.66 12.0986 103.594 12.0132C103.531 11.9239 103.429 11.8346 103.285 11.7453C103.145 11.656 102.768 11.4735 102.155 11.1978C101.6 10.9454 101.182 10.7008 100.903 10.4639C100.627 10.2271 100.421 9.95526 100.285 9.64851C100.153 9.34176 100.087 8.97871 100.087 8.55936C100.087 7.77501 100.373 7.16346 100.943 6.72469C101.514 6.28592 102.299 6.06654 103.297 6.06654C104.178 6.06654 105.077 6.27039 105.993 6.6781L105.288 8.45452C104.492 8.08953 103.805 7.90703 103.227 7.90703C102.928 7.90703 102.71 7.95945 102.574 8.06429C102.438 8.16913 102.37 8.29921 102.37 8.45452C102.37 8.62149 102.456 8.77098 102.627 8.903C102.801 9.03501 103.271 9.27575 104.036 9.62521C104.77 9.95526 105.279 10.3105 105.562 10.6911C105.85 11.0677 105.993 11.5434 105.993 12.118ZM107.309 14.704V6.18885H109.622V14.704H107.309ZM119.436 10.4348C119.436 11.8676 119.084 12.9567 118.382 13.7023C117.679 14.4478 116.65 14.8205 115.295 14.8205C113.959 14.8205 112.934 14.4458 112.219 13.6964C111.509 12.947 111.154 11.8559 111.154 10.4231C111.154 9.00589 111.507 7.92451 112.214 7.17899C112.924 6.42959 113.955 6.05489 115.306 6.05489C116.661 6.05489 117.688 6.42571 118.387 7.16734C119.086 7.90897 119.436 8.99813 119.436 10.4348ZM113.576 10.4348C113.576 12.0811 114.149 12.9043 115.295 12.9043C115.877 12.9043 116.308 12.7043 116.588 12.3044C116.871 11.9045 117.013 11.2813 117.013 10.4348C117.013 9.58444 116.869 8.95736 116.582 8.55353C116.298 8.14583 115.873 7.94198 115.306 7.94198C114.153 7.94198 113.576 8.77292 113.576 10.4348ZM129.081 14.704H126.064L122.954 8.70497H122.901C122.975 9.64851 123.012 10.3688 123.012 10.8658V14.704H120.973V6.18885H123.979L127.077 12.1064H127.112C127.058 11.2483 127.031 10.5591 127.031 10.0387V6.18885H129.081V14.704ZM136.146 14.704L135.726 13.1082H132.96L132.529 14.704H130.001L132.779 6.15391H135.849L138.662 14.704H136.146ZM135.249 11.2211L134.882 9.82324C134.797 9.51261 134.692 9.11073 134.567 8.6176C134.447 8.12448 134.367 7.77113 134.329 7.55757C134.294 7.7556 134.224 8.08176 134.119 8.53606C134.018 8.99036 133.791 9.88537 133.437 11.2211H135.249ZM139.588 14.704V6.18885H141.889V12.8461H145.168V14.704H139.588ZM151.895 14.704H149.629V6.18885H154.661V8.03517H151.895V9.66016H154.446V11.5065H151.895V14.704ZM156.059 14.704V6.18885H158.36V12.8461H161.639V14.704H156.059ZM170.97 10.4348C170.97 11.8676 170.618 12.9567 169.915 13.7023C169.213 14.4478 168.184 14.8205 166.828 14.8205C165.493 14.8205 164.468 14.4458 163.753 13.6964C163.043 12.947 162.687 11.8559 162.687 10.4231C162.687 9.00589 163.041 7.92451 163.747 7.17899C164.458 6.42959 165.489 6.05489 166.84 6.05489C168.195 6.05489 169.222 6.42571 169.921 7.16734C170.62 7.90897 170.97 8.99813 170.97 10.4348ZM165.11 10.4348C165.11 12.0811 165.683 12.9043 166.828 12.9043C167.411 12.9043 167.842 12.7043 168.121 12.3044C168.405 11.9045 168.547 11.2813 168.547 10.4348C168.547 9.58444 168.403 8.95736 168.116 8.55353C167.832 8.14583 167.407 7.94198 166.84 7.94198C165.687 7.94198 165.11 8.77292 165.11 10.4348ZM180.475 10.4348C180.475 11.8676 180.123 12.9567 179.421 13.7023C178.718 14.4478 177.689 14.8205 176.334 14.8205C174.998 14.8205 173.973 14.4458 173.259 13.6964C172.548 12.947 172.193 11.8559 172.193 10.4231C172.193 9.00589 172.546 7.92451 173.253 7.17899C173.963 6.42959 174.994 6.05489 176.345 6.05489C177.701 6.05489 178.728 6.42571 179.426 7.16734C180.125 7.90897 180.475 8.99813 180.475 10.4348ZM174.616 10.4348C174.616 12.0811 175.188 12.9043 176.334 12.9043C176.916 12.9043 177.347 12.7043 177.627 12.3044C177.91 11.9045 178.052 11.2813 178.052 10.4348C178.052 9.58444 177.908 8.95736 177.621 8.55353C177.337 8.14583 176.912 7.94198 176.345 7.94198C175.192 7.94198 174.616 8.77292 174.616 10.4348ZM184.313 11.6055V14.704H182.013V6.18885H184.802C187.117 6.18885 188.274 7.02756 188.274 8.70497C188.274 9.69122 187.792 10.4542 186.829 10.9939L189.31 14.704H186.701L184.896 11.6055H184.313ZM184.313 9.87566H184.744C185.548 9.87566 185.95 9.52038 185.95 8.80981C185.95 8.22349 185.556 7.93033 184.767 7.93033H184.313V9.87566ZM55.4495 31.704V23.1889H57.7618V31.704H55.4495ZM67.7156 31.704H64.6986L61.5884 25.705H61.536C61.6098 26.6485 61.6466 27.3688 61.6466 27.8658V31.704H59.6081V23.1889H62.6135L65.712 29.1064H65.747C65.6926 28.2483 65.6654 27.5591 65.6654 27.0387V23.1889H67.7156V31.704ZM75.1242 29.118C75.1242 29.6461 74.9902 30.1159 74.7223 30.5275C74.4544 30.9352 74.068 31.2536 73.5632 31.4827C73.0585 31.7079 72.4663 31.8205 71.7868 31.8205C71.2199 31.8205 70.7443 31.7817 70.3599 31.704C69.9755 31.6225 69.5755 31.4827 69.16 31.2847V29.2345C69.5988 29.4597 70.0551 29.6364 70.5288 29.7645C71.0025 29.8888 71.4374 29.9509 71.8334 29.9509C72.1751 29.9509 72.4256 29.8927 72.5848 29.7762C72.744 29.6558 72.8236 29.5024 72.8236 29.3161C72.8236 29.1996 72.7906 29.0986 72.7245 29.0132C72.6624 28.9239 72.5595 28.8346 72.4159 28.7453C72.2761 28.656 71.8994 28.4735 71.2859 28.1978C70.7307 27.9454 70.3133 27.7008 70.0337 27.4639C69.758 27.2271 69.5522 26.9553 69.4163 26.6485C69.2843 26.3418 69.2183 25.9787 69.2183 25.5594C69.2183 24.775 69.5037 24.1635 70.0745 23.7247C70.6453 23.2859 71.4296 23.0665 72.4275 23.0665C73.3089 23.0665 74.2078 23.2704 75.1242 23.6781L74.4194 25.4545C73.6234 25.0895 72.9362 24.907 72.3576 24.907C72.0586 24.907 71.8412 24.9595 71.7053 25.0643C71.5694 25.1691 71.5014 25.2992 71.5014 25.4545C71.5014 25.6215 71.5869 25.771 71.7577 25.903C71.9324 26.035 72.4023 26.2758 73.1672 26.6252C73.9011 26.9553 74.4097 27.3105 74.6932 27.6911C74.9805 28.0677 75.1242 28.5434 75.1242 29.118ZM80.1972 31.704H77.8966V25.0701H75.8173V23.1889H82.2706V25.0701H80.1972V31.704ZM88.7124 31.704L88.293 30.1082H85.5264L85.0954 31.704H82.5677L85.3459 23.1539H88.4153L91.2285 31.704H88.7124ZM87.8154 28.2211L87.4485 26.8232C87.3631 26.5126 87.2582 26.1107 87.134 25.6176C87.0136 25.1245 86.934 24.7711 86.8952 24.5576C86.8602 24.7556 86.7903 25.0818 86.6855 25.5361C86.5845 25.9904 86.3574 26.8854 86.004 28.2211H87.8154ZM92.1545 31.704V23.1889H94.4552V29.8461H97.7343V31.704H92.1545ZM99.0972 31.704V23.1889H101.398V29.8461H104.677V31.704H99.0972ZM111.264 31.704L110.845 30.1082H108.078L107.647 31.704H105.12L107.898 23.1539H110.967L113.78 31.704H111.264ZM110.367 28.2211L110 26.8232C109.915 26.5126 109.81 26.1107 109.686 25.6176C109.565 25.1245 109.486 24.7711 109.447 24.5576C109.412 24.7556 109.342 25.0818 109.237 25.5361C109.136 25.9904 108.909 26.8854 108.556 28.2211H110.367ZM118.463 31.704H116.162V25.0701H114.083V23.1889H120.537V25.0701H118.463V31.704ZM121.754 31.704V23.1889H124.066V31.704H121.754ZM133.88 27.4348C133.88 28.8676 133.529 29.9567 132.826 30.7023C132.123 31.4478 131.094 31.8205 129.739 31.8205C128.403 31.8205 127.378 31.4458 126.664 30.6964C125.953 29.947 125.598 28.8559 125.598 27.4231C125.598 26.0059 125.951 24.9245 126.658 24.179C127.369 23.4296 128.399 23.0549 129.751 23.0549C131.106 23.0549 132.133 23.4257 132.832 24.1673C133.531 24.909 133.88 25.9981 133.88 27.4348ZM128.021 27.4348C128.021 29.0811 128.594 29.9043 129.739 29.9043C130.321 29.9043 130.752 29.7043 131.032 29.3044C131.315 28.9045 131.457 28.2813 131.457 27.4348C131.457 26.5844 131.314 25.9574 131.026 25.5535C130.743 25.1458 130.318 24.942 129.751 24.942C128.597 24.942 128.021 25.7729 128.021 27.4348ZM143.525 31.704H140.508L137.398 25.705H137.346C137.419 26.6485 137.456 27.3688 137.456 27.8658V31.704H135.418V23.1889H138.423L141.522 29.1064H141.557C141.502 28.2483 141.475 27.5591 141.475 27.0387V23.1889H143.525V31.704Z" fill="white"/>
<rect x="27.457" y="3.05176e-05" width="26.2365" height="26.2365" transform="rotate(45 27.457 3.05176e-05)" fill="white"/>
<rect x="18.5518" y="3.05176e-05" width="26.2365" height="26.2365" transform="rotate(45 18.5518 3.05176e-05)" fill="#FEB62B"/>
</svg>
