<svg width="516" height="134" viewBox="0 0 516 134" fill="none" xmlns="http://www.w3.org/2000/svg">
<path d="M119.506 67.7528C119.506 69.159 119.179 70.4835 118.525 71.7262C117.904 72.9689 117.087 74.0807 116.073 75.0618C115.092 76.0102 113.947 76.7787 112.639 77.3673C111.331 77.9233 109.974 78.2012 108.568 78.2012H78.792V84.2839C78.792 88.9931 81.1302 91.3476 85.8066 91.3476H119.506V99H82.1276C80.7214 99 79.3806 98.722 78.1052 98.1661C76.8298 97.5774 75.6689 96.8253 74.6224 95.9096C73.5759 94.9612 72.7257 93.8494 72.0716 92.574C71.4503 91.2986 71.1396 89.9905 71.1396 88.6497V61.3268C71.1396 59.9206 71.4503 58.5961 72.0716 57.3534C72.7257 56.1107 73.5759 55.0152 74.6224 54.0668C75.6689 53.0858 76.8298 52.3173 78.1052 51.7613C79.3806 51.1727 80.7214 50.8784 82.1276 50.8784H108.568C109.974 50.8784 111.331 51.1727 112.639 51.7613C113.947 52.3173 115.092 53.0858 116.073 54.0668C117.087 55.0152 117.904 56.1107 118.525 57.3534C119.179 58.5961 119.506 59.9206 119.506 61.3268V67.7528ZM105.821 70.5489C106.638 70.5489 107.407 70.4017 108.126 70.1074C108.878 69.7804 109.532 69.3389 110.088 68.7829C110.644 68.227 111.069 67.5893 111.364 66.8699C111.691 66.1504 111.854 65.3655 111.854 64.5153C111.854 63.6977 111.691 62.9292 111.364 62.2098C111.069 61.4576 110.644 60.8199 110.088 60.2967C109.532 59.7407 108.878 59.3156 108.126 59.0213C107.407 58.6942 106.638 58.5307 105.821 58.5307H85.8066C81.1302 58.5307 78.792 60.918 78.792 65.6926V70.5489H105.821ZM177.684 99H170.032V65.6926C170.032 60.918 167.644 58.5307 162.87 58.5307H143.984C139.308 58.5307 136.97 60.918 136.97 65.6926V99H129.317V61.3268C129.317 59.9206 129.628 58.5961 130.249 57.3534C130.903 56.1107 131.754 55.0152 132.8 54.0668C133.847 53.0858 135.007 52.3173 136.283 51.7613C137.558 51.1727 138.899 50.8784 140.305 50.8784H166.745C168.151 50.8784 169.492 51.1727 170.768 51.7613C172.043 52.3173 173.188 53.0858 174.201 54.0668C175.248 55.0152 176.082 56.1107 176.703 57.3534C177.357 58.5961 177.684 59.9206 177.684 61.3268V99ZM202.162 58.5307C197.485 58.5307 195.147 60.918 195.147 65.6926V84.2839C195.147 88.9931 197.485 91.3476 202.162 91.3476H221.048C225.822 91.3476 228.209 88.9931 228.209 84.2839V65.6926C228.209 60.918 225.822 58.5307 221.048 58.5307H202.162ZM189.8 115.678V108.026H221.048C225.822 108.026 228.209 105.671 228.209 100.962V99H198.483C197.077 99 195.736 98.722 194.46 98.1661C193.185 97.5774 192.024 96.8253 190.978 95.9096C189.931 94.9612 189.081 93.8494 188.427 92.574C187.806 91.2986 187.495 89.9905 187.495 88.6497V61.3268C187.495 59.9206 187.806 58.5961 188.427 57.3534C189.081 56.1107 189.931 55.0152 190.978 54.0668C192.024 53.0858 193.185 52.3173 194.46 51.7613C195.736 51.1727 197.077 50.8784 198.483 50.8784H224.923C226.329 50.8784 227.67 51.1727 228.945 51.7613C230.221 52.3173 231.365 53.0858 232.379 54.0668C233.425 55.0152 234.259 56.1107 234.881 57.3534C235.535 58.5961 235.862 59.9206 235.862 61.3268V105.328C235.862 106.669 235.535 107.977 234.881 109.252C234.259 110.528 233.425 111.623 232.379 112.539C231.365 113.487 230.221 114.239 228.945 114.795C227.67 115.384 226.329 115.678 224.923 115.678H189.8ZM245.673 88.6006V34.8869H253.325V84.2839C253.325 88.9604 255.696 91.2986 260.438 91.2986H263.97V98.9509H256.661C255.254 98.9509 253.914 98.673 252.638 98.117C251.363 97.5284 250.202 96.7762 249.155 95.8606C248.109 94.9122 247.259 93.8003 246.605 92.5249C245.983 91.2495 245.673 89.9414 245.673 88.6006ZM273.878 50.8784H281.629V99H273.878V50.8784ZM273.29 40.2828C273.29 39.6614 273.404 39.0728 273.633 38.5168C273.862 37.9609 274.173 37.4867 274.565 37.0943C274.99 36.6691 275.464 36.3421 275.988 36.1132C276.544 35.8843 277.132 35.7698 277.754 35.7698C278.375 35.7698 278.964 35.8843 279.52 36.1132C280.075 36.3421 280.55 36.6691 280.942 37.0943C281.367 37.4867 281.694 37.9609 281.923 38.5168C282.152 39.0728 282.267 39.6614 282.267 40.2828C282.267 40.9041 282.152 41.4928 281.923 42.0487C281.694 42.5719 281.367 43.0461 280.942 43.4713C280.55 43.8637 280.075 44.1744 279.52 44.4033C278.964 44.6322 278.375 44.7467 277.754 44.7467C276.511 44.7467 275.448 44.3215 274.565 43.4713C273.715 42.5883 273.29 41.5255 273.29 40.2828ZM330.879 70.5489C332.285 70.5489 333.626 70.8432 334.901 71.4318C336.177 71.9878 337.321 72.7399 338.335 73.6883C339.381 74.604 340.215 75.6995 340.837 76.9749C341.491 78.2503 341.818 79.5911 341.818 80.9973V88.6497C341.818 89.9905 341.491 91.2986 340.837 92.574C340.215 93.8494 339.381 94.9612 338.335 95.9096C337.321 96.8253 336.177 97.5774 334.901 98.1661C333.626 98.722 332.285 99 330.879 99H295.658V91.3476H327.543C328.459 91.3476 329.309 91.1841 330.094 90.8571C330.911 90.4974 331.615 90.0232 332.203 89.4345C332.825 88.8459 333.299 88.1591 333.626 87.3743C333.985 86.5567 334.165 85.6901 334.165 84.7744C334.165 83.8588 333.985 83.0085 333.626 82.2236C333.299 81.4061 332.825 80.703 332.203 80.1143C331.615 79.5257 330.911 79.0679 330.094 78.7408C329.309 78.3811 328.459 78.2012 327.543 78.2012H304.439C303.033 78.2012 301.692 77.9396 300.416 77.4164C299.141 76.8604 297.98 76.1083 296.934 75.1599C295.887 74.1788 295.037 73.067 294.383 71.8243C293.761 70.5816 293.451 69.2571 293.451 67.8509V61.2287C293.451 59.8225 293.761 58.5144 294.383 57.3044C295.037 56.0944 295.887 55.0152 296.934 54.0668C297.98 53.0858 299.141 52.3173 300.416 51.7613C301.692 51.1727 303.033 50.8784 304.439 50.8784H339.61V58.5307H307.137C306.286 58.5307 305.502 58.6942 304.782 59.0213C304.063 59.3156 303.425 59.7407 302.869 60.2967C302.313 60.8199 301.872 61.4576 301.545 62.2098C301.25 62.9292 301.103 63.6977 301.103 64.5153C301.103 65.3655 301.25 66.1504 301.545 66.8699C301.872 67.5893 302.313 68.227 302.869 68.7829C303.425 69.3389 304.063 69.7804 304.782 70.1074C305.502 70.4017 306.286 70.5489 307.137 70.5489H330.879ZM389.056 50.8784C390.463 50.8784 391.803 51.1727 393.079 51.7613C394.354 52.3173 395.499 53.0858 396.513 54.0668C397.559 55.0152 398.393 56.1107 399.014 57.3534C399.668 58.5961 399.995 59.9206 399.995 61.3268V99H392.343V65.6926C392.343 60.918 389.956 58.5307 385.181 58.5307H359.281V99H351.628V34.8869H359.281V50.8784H389.056Z" fill="url(#paint0_linear)"/>
<path d="M411.414 50.9521H419.165V99.0737H411.414V50.9521ZM410.826 40.3565C410.826 39.7352 410.94 39.1465 411.169 38.5906C411.398 38.0346 411.709 37.5604 412.101 37.168C412.526 36.7429 413 36.4159 413.524 36.1869C414.08 35.958 414.668 35.8436 415.29 35.8436C415.911 35.8436 416.5 35.958 417.055 36.1869C417.611 36.4159 418.086 36.7429 418.478 37.168C418.903 37.5604 419.23 38.0346 419.459 38.5906C419.688 39.1465 419.802 39.7352 419.802 40.3565C419.802 40.9778 419.688 41.5665 419.459 42.1224C419.23 42.6457 418.903 43.1199 418.478 43.545C418.086 43.9374 417.611 44.2481 417.055 44.477C416.5 44.7059 415.911 44.8204 415.29 44.8204C414.047 44.8204 412.984 44.3952 412.101 43.545C411.251 42.662 410.826 41.5992 410.826 40.3565ZM430.987 99.0737V34.9606H438.737V50.9521H449.431V58.6045H438.737V99.0737H430.987Z" fill="white"/>
<path d="M8.41106 68.2906C11.5505 68.2906 14.1231 67.3095 16.1288 65.3474C18.1346 63.3416 19.1375 60.7909 19.1375 57.695V22.5726C19.1375 15.5961 22.6039 12.1078 29.5368 12.1078H39.6092V18.6483H39.4784C35.4669 18.6483 32.7853 19.2369 31.4336 20.4142C30.0819 21.5479 29.406 23.8153 29.406 27.2163V56.4523C29.406 59.679 28.534 62.4042 26.7898 64.6279C25.0893 66.8517 22.8437 68.0726 20.0531 68.2906C22.8437 68.5522 25.0893 69.7949 26.7898 72.0187C28.534 74.2425 29.406 76.9241 29.406 80.0635V109.299C29.406 112.701 30.0819 114.946 31.4336 116.036C32.7853 117.17 35.4669 117.737 39.4784 117.737H39.6092V124.408H29.5368C22.6039 124.408 19.1375 120.942 19.1375 114.009V78.9516C19.1375 75.943 18.1346 73.414 16.1288 71.3646C14.1231 69.3153 11.5505 68.2906 8.41106 68.2906Z" fill="url(#paint1_linear)"/>
<path d="M507.589 68.2906C504.45 68.2906 501.877 67.3095 499.871 65.3474C497.865 63.3416 496.863 60.7909 496.863 57.695V22.5726C496.863 15.5961 493.396 12.1078 486.463 12.1078H476.391V18.6483H476.522C480.533 18.6483 483.215 19.2369 484.566 20.4142C485.918 21.5479 486.594 23.8153 486.594 27.2163V56.4523C486.594 59.679 487.466 62.4042 489.21 64.6279C490.911 66.8517 493.156 68.0726 495.947 68.2906C493.156 68.5522 490.911 69.7949 489.21 72.0187C487.466 74.2425 486.594 76.9241 486.594 80.0635V109.299C486.594 112.701 485.918 114.946 484.566 116.036C483.215 117.17 480.533 117.737 476.522 117.737H476.391V124.408H486.463C493.396 124.408 496.863 120.942 496.863 114.009V78.9516C496.863 75.943 497.865 73.414 499.871 71.3646C501.877 69.3153 504.45 68.2906 507.589 68.2906Z" fill="url(#paint2_linear)"/>
<defs>
<linearGradient id="paint0_linear" x1="64" y1="65.8961" x2="404.901" y2="65.8961" gradientUnits="userSpaceOnUse">
<stop stop-color="#1CB86D"/>
<stop offset="1" stop-color="#00B6EF"/>
</linearGradient>
<linearGradient id="paint1_linear" x1="-2.43262e-07" y1="66.6397" x2="43.5335" y2="66.6397" gradientUnits="userSpaceOnUse">
<stop stop-color="#1CB86D"/>
<stop offset="1" stop-color="#00B6EF"/>
</linearGradient>
<linearGradient id="paint2_linear" x1="516" y1="66.6397" x2="472.467" y2="66.6397" gradientUnits="userSpaceOnUse">
<stop stop-color="#1CB86D"/>
<stop offset="1" stop-color="#00B6EF"/>
</linearGradient>
</defs>
</svg>
