<svg width="88" height="88" viewBox="0 0 88 88" fill="none" xmlns="http://www.w3.org/2000/svg">
<path d="M75 12H12V75H75V12Z" fill="#333333"/>
<path fill-rule="evenodd" clip-rule="evenodd" d="M39.5166 56.4123L34.1848 35.2132V58.1611C34.1848 59.4408 33.8863 60.3792 33.3318 61.019C32.7773 61.6588 32.0095 61.9574 31.0711 61.9574C30.1754 61.9574 29.4076 61.6588 28.8531 61.019C28.2986 60.3792 28 59.4408 28 58.1611V31.8862C28 30.436 28.3839 29.4549 29.109 28.9431C29.8768 28.4312 30.9005 28.1753 32.1801 28.1753H34.2702C35.5071 28.1753 36.4455 28.3032 37 28.5165C37.5545 28.7298 37.9811 29.1563 38.2796 29.7535C38.5356 30.3506 38.8768 31.289 39.218 32.654L44.038 50.8246L48.8579 32.6113C49.1991 31.289 49.4977 30.308 49.7963 29.7108C50.0522 29.1137 50.4787 28.7298 51.0759 28.4739C51.6304 28.2606 52.5688 28.1326 53.8058 28.1326H55.8958C57.1754 28.1326 58.1991 28.3886 58.9669 28.9004C59.7347 29.4123 60.0759 30.3933 60.0759 31.8435V58.1611C60.0759 59.4408 59.7773 60.3792 59.2228 61.019C58.6683 61.6588 57.9005 61.9574 56.9622 61.9574C56.0664 61.9574 55.3413 61.6588 54.7441 61.019C54.1896 60.3792 53.8911 59.4408 53.8911 58.1611V35.2132L48.5593 56.4123C48.2181 57.7773 47.9195 58.8009 47.7062 59.4408C47.4929 60.0806 47.0664 60.6777 46.5119 61.1896C45.9147 61.7014 45.1043 62 44.0806 62C43.2702 62 42.6304 61.8294 42.0759 61.4882C41.5214 61.1469 41.0948 60.7204 40.7962 60.2085C40.4977 59.6967 40.2417 59.0995 40.0711 58.4597C39.9005 57.7772 39.6872 57.0948 39.5166 56.4123Z" fill="white"/>
<path fill-rule="evenodd" clip-rule="evenodd" d="M62.7129 31.2796H68.9831V30.3413H64.2058L65.8693 28.6777C67.7035 26.801 68.6845 25.6493 68.6845 23.9431C68.6845 22.1517 67.5755 21 65.5708 21C64.4191 21 63.3954 21.5545 62.7982 21.9384L63.1821 22.7915C63.7793 22.3649 64.5897 21.9384 65.4855 21.9384C66.9357 21.9384 67.5755 22.6209 67.5755 24.0284C67.5755 25.5213 66.6371 26.5877 65.1869 28.0806L62.6703 30.6825V31.2796H62.7129Z" fill="white"/>
<path fill-rule="evenodd" clip-rule="evenodd" d="M41.2452 12L57.8195 4.00543L61.6756 12H65.0064L60.5216 2.70209L59.2182 0L56.5161 1.30334L34.3399 12H41.2452ZM12 26.1063V22.7756L2.70209 27.2604L0 28.5637L1.30334 31.2658L27.2604 85.0799L28.5637 87.782L31.2658 86.4786L85.0799 60.5216L87.782 59.2182L86.4786 56.5161L75 32.7187V39.624L83.7765 57.8195L29.9625 83.7765L4.00543 29.9625L12 26.1063Z" fill="#6CCB7F"/>
</svg>
