<svg width="207" height="44" viewBox="0 0 207 44" fill="none" xmlns="http://www.w3.org/2000/svg">
<path d="M47.3581 32.4481L49.4195 31.9328V9.94505L47.3581 9.42971V8.91438H57.1495V9.42971L55.0882 9.94505V20.7328L63.5054 10.4604L60.9287 9.42971V8.91438H67.4563V9.42971L64.7078 10.4604L58.6955 17.8469L67.9716 31.9328L69.6894 32.4481V32.9634H64.8796C63.8489 32.9634 62.9671 32.7115 62.2342 32.2076C61.5242 31.6808 60.86 30.9594 60.2416 30.0432L55.0882 22.1414V31.9328L57.1495 32.4481V32.9634H47.3581V32.4481ZM68.6735 32.4481L71.422 31.4174L80.8698 8.57082H81.9005L91.6919 31.9328L93.4097 32.4481V32.9634H89.287C88.096 32.9634 87.1226 32.7 86.3667 32.1733C85.6109 31.6236 85.0498 30.9135 84.6833 30.0432L82.9311 25.9205H74.7201L72.4526 31.4174L75.0293 32.4481V32.9634H68.6735V32.4481ZM75.0637 25.0616H82.5876L78.8085 16.026L75.0637 25.0616ZM94.4296 32.4481L96.491 31.9328V9.94505L94.4296 9.42971V8.91438H104.221V9.42971L102.16 9.94505V32.1045H109.546C109.546 30.6616 109.913 29.3217 110.646 28.0849C110.966 27.5581 111.344 27.123 111.779 26.7794H112.81V32.9634H94.4296V32.4481ZM115.399 32.9634V32.4481L117.46 31.9328V9.94505L115.399 9.42971V8.91438H125.19V9.42971L123.129 9.94505V31.9328L125.19 32.4481V32.9634H115.399ZM131.374 14.7549V31.4174L134.123 32.4481V32.9634H127.595V32.4481L130.343 31.4174V10.1168L127.939 9.42971V8.91438H131.546C132.76 8.91438 133.71 9.13196 134.397 9.56714C135.085 10.0023 135.737 10.5864 136.356 11.3193L147.35 24.2027V10.4604L144.601 9.42971V8.91438H151.129V9.42971L148.38 10.4604V33.4788H147.35L131.374 14.7549ZM153.378 32.4481L155.439 31.9328V9.94505L153.378 9.42971V8.91438H162.139C166.239 8.91438 169.376 9.96796 171.552 12.0751C173.751 14.1823 174.85 17.1369 174.85 20.9389C174.85 24.741 173.751 27.6956 171.552 29.8027C169.376 31.9099 166.239 32.9634 162.139 32.9634H153.378V32.4481ZM162.139 32.1045C164.269 32.1045 165.918 31.2456 167.086 29.5279C168.254 27.7872 168.838 24.9242 168.838 20.9389C168.838 16.9536 168.254 14.1021 167.086 12.3843C165.918 10.6436 164.269 9.77327 162.139 9.77327H161.108V32.1045H162.139ZM174.492 32.4481L177.241 31.4174L186.688 8.57082H187.719L197.51 31.9328L199.228 32.4481V32.9634H195.106C193.915 32.9634 192.941 32.7 192.185 32.1733C191.429 31.6236 190.868 30.9135 190.502 30.0432L188.75 25.9205H180.539L178.271 31.4174L180.848 32.4481V32.9634H174.492V32.4481ZM180.882 25.0616H188.406L184.627 16.026L180.882 25.0616Z" fill="white"/>
<path d="M205.5 42.0664H3.61188C2.72167 42.0664 2 41.3448 2 40.4545V9.02286C2 8.13265 2.72166 7.41098 3.61188 7.41098H37.0584C37.9486 7.41098 38.6703 8.13264 38.6703 9.02286V28.3654C38.6703 29.2557 37.9486 29.9773 37.0584 29.9773H19.3277C18.4375 29.9773 17.7158 29.2557 17.7158 28.3654V15.4704" stroke="white" stroke-width="2.41782" stroke-linecap="round"/>
</svg>
