<svg width="223" height="44" viewBox="0 0 223 44" fill="none" xmlns="http://www.w3.org/2000/svg">
<path d="M72.333 10.1846C72.333 11.3011 72.0026 12.1647 71.3418 12.7754C70.6855 13.3815 69.7513 13.6846 68.5391 13.6846H67.7803V17H65.0801V7.00586H68.5391C69.8014 7.00586 70.7493 7.28158 71.3828 7.83301C72.0163 8.38444 72.333 9.16829 72.333 10.1846ZM67.7803 11.4834H68.2725C68.6781 11.4834 68.9993 11.3695 69.2363 11.1416C69.4779 10.9137 69.5986 10.5993 69.5986 10.1982C69.5986 9.52376 69.2249 9.18652 68.4775 9.18652H67.7803V11.4834ZM76.626 13.3633V17H73.9258V7.00586H77.2002C79.9163 7.00586 81.2744 7.99023 81.2744 9.95898C81.2744 11.1165 80.7093 12.012 79.5791 12.6455L82.4912 17H79.4287L77.3096 13.3633H76.626ZM76.626 11.333H77.1318C78.0752 11.333 78.5469 10.916 78.5469 10.082C78.5469 9.39388 78.0843 9.0498 77.1592 9.0498H76.626V11.333ZM92.752 11.9893C92.752 13.6709 92.3395 14.9492 91.5146 15.8242C90.6898 16.6992 89.4821 17.1367 87.8916 17.1367C86.3239 17.1367 85.1208 16.6969 84.2822 15.8174C83.4482 14.9378 83.0312 13.6572 83.0312 11.9756C83.0312 10.3122 83.446 9.04297 84.2754 8.16797C85.1094 7.28841 86.3193 6.84863 87.9053 6.84863C89.4958 6.84863 90.7012 7.28385 91.5215 8.1543C92.3418 9.02474 92.752 10.3031 92.752 11.9893ZM85.875 11.9893C85.875 13.9215 86.5472 14.8877 87.8916 14.8877C88.5752 14.8877 89.0811 14.653 89.4092 14.1836C89.7419 13.7142 89.9082 12.9827 89.9082 11.9893C89.9082 10.9912 89.7396 10.2552 89.4023 9.78125C89.0697 9.30273 88.5706 9.06348 87.9053 9.06348C86.5518 9.06348 85.875 10.0387 85.875 11.9893ZM97.2158 17H94.5566V7.00586H100.463V9.17285H97.2158V11.0801H100.21V13.2471H97.2158V17ZM108.037 17H102.104V7.00586H108.037V9.17285H104.804V10.7451H107.798V12.9121H104.804V14.7988H108.037V17ZM116.322 13.9648C116.322 14.5846 116.165 15.1361 115.851 15.6191C115.536 16.0977 115.083 16.4714 114.49 16.7402C113.898 17.0046 113.203 17.1367 112.405 17.1367C111.74 17.1367 111.182 17.0911 110.73 17C110.279 16.9043 109.81 16.7402 109.322 16.5078V14.1016C109.837 14.3659 110.373 14.5732 110.929 14.7236C111.485 14.8695 111.995 14.9424 112.46 14.9424C112.861 14.9424 113.155 14.874 113.342 14.7373C113.529 14.596 113.622 14.416 113.622 14.1973C113.622 14.0605 113.583 13.9421 113.506 13.8418C113.433 13.737 113.312 13.6322 113.144 13.5273C112.979 13.4225 112.537 13.2083 111.817 12.8848C111.166 12.5885 110.676 12.3014 110.348 12.0234C110.024 11.7454 109.783 11.4264 109.623 11.0664C109.468 10.7064 109.391 10.2803 109.391 9.78809C109.391 8.86751 109.726 8.14974 110.396 7.63477C111.065 7.11979 111.986 6.8623 113.157 6.8623C114.192 6.8623 115.247 7.10156 116.322 7.58008L115.495 9.66504C114.561 9.23665 113.754 9.02246 113.075 9.02246C112.724 9.02246 112.469 9.08398 112.31 9.20703C112.15 9.33008 112.07 9.48275 112.07 9.66504C112.07 9.861 112.171 10.0365 112.371 10.1914C112.576 10.3464 113.128 10.6289 114.025 11.0391C114.887 11.4264 115.484 11.8434 115.816 12.29C116.154 12.7321 116.322 13.2904 116.322 13.9648ZM124.402 13.9648C124.402 14.5846 124.245 15.1361 123.931 15.6191C123.616 16.0977 123.163 16.4714 122.57 16.7402C121.978 17.0046 121.283 17.1367 120.485 17.1367C119.82 17.1367 119.262 17.0911 118.811 17C118.359 16.9043 117.89 16.7402 117.402 16.5078V14.1016C117.917 14.3659 118.453 14.5732 119.009 14.7236C119.565 14.8695 120.075 14.9424 120.54 14.9424C120.941 14.9424 121.235 14.874 121.422 14.7373C121.609 14.596 121.702 14.416 121.702 14.1973C121.702 14.0605 121.663 13.9421 121.586 13.8418C121.513 13.737 121.392 13.6322 121.224 13.5273C121.06 13.4225 120.618 13.2083 119.897 12.8848C119.246 12.5885 118.756 12.3014 118.428 12.0234C118.104 11.7454 117.863 11.4264 117.703 11.0664C117.548 10.7064 117.471 10.2803 117.471 9.78809C117.471 8.86751 117.806 8.14974 118.476 7.63477C119.146 7.11979 120.066 6.8623 121.237 6.8623C122.272 6.8623 123.327 7.10156 124.402 7.58008L123.575 9.66504C122.641 9.23665 121.834 9.02246 121.155 9.02246C120.804 9.02246 120.549 9.08398 120.39 9.20703C120.23 9.33008 120.15 9.48275 120.15 9.66504C120.15 9.861 120.251 10.0365 120.451 10.1914C120.656 10.3464 121.208 10.6289 122.105 11.0391C122.967 11.4264 123.564 11.8434 123.896 12.29C124.234 12.7321 124.402 13.2904 124.402 13.9648ZM125.947 17V7.00586H128.661V17H125.947ZM140.18 11.9893C140.18 13.6709 139.767 14.9492 138.942 15.8242C138.118 16.6992 136.91 17.1367 135.319 17.1367C133.752 17.1367 132.549 16.6969 131.71 15.8174C130.876 14.9378 130.459 13.6572 130.459 11.9756C130.459 10.3122 130.874 9.04297 131.703 8.16797C132.537 7.28841 133.747 6.84863 135.333 6.84863C136.924 6.84863 138.129 7.28385 138.949 8.1543C139.77 9.02474 140.18 10.3031 140.18 11.9893ZM133.303 11.9893C133.303 13.9215 133.975 14.8877 135.319 14.8877C136.003 14.8877 136.509 14.653 136.837 14.1836C137.17 13.7142 137.336 12.9827 137.336 11.9893C137.336 10.9912 137.167 10.2552 136.83 9.78125C136.497 9.30273 135.998 9.06348 135.333 9.06348C133.979 9.06348 133.303 10.0387 133.303 11.9893ZM151.5 17H147.959L144.309 9.95898H144.247C144.334 11.0664 144.377 11.9118 144.377 12.4951V17H141.984V7.00586H145.512L149.148 13.9512H149.189C149.126 12.944 149.094 12.1351 149.094 11.5244V7.00586H151.5V17ZM159.792 17L159.3 15.127H156.053L155.547 17H152.58L155.841 6.96484H159.443L162.745 17H159.792ZM158.739 12.9121L158.309 11.2715C158.208 10.9069 158.085 10.4352 157.939 9.85645C157.798 9.27767 157.705 8.86296 157.659 8.6123C157.618 8.84473 157.536 9.22754 157.413 9.76074C157.295 10.2939 157.028 11.3444 156.613 12.9121H158.739ZM163.832 17V7.00586H166.532V14.8193H170.381V17H163.832ZM178.276 17H175.617V7.00586H181.523V9.17285H178.276V11.0801H181.271V13.2471H178.276V17ZM183.164 17V7.00586H185.864V14.8193H189.713V17H183.164ZM200.664 11.9893C200.664 13.6709 200.252 14.9492 199.427 15.8242C198.602 16.6992 197.394 17.1367 195.804 17.1367C194.236 17.1367 193.033 16.6969 192.194 15.8174C191.36 14.9378 190.943 13.6572 190.943 11.9756C190.943 10.3122 191.358 9.04297 192.188 8.16797C193.021 7.28841 194.231 6.84863 195.817 6.84863C197.408 6.84863 198.613 7.28385 199.434 8.1543C200.254 9.02474 200.664 10.3031 200.664 11.9893ZM193.787 11.9893C193.787 13.9215 194.459 14.8877 195.804 14.8877C196.487 14.8877 196.993 14.653 197.321 14.1836C197.654 13.7142 197.82 12.9827 197.82 11.9893C197.82 10.9912 197.652 10.2552 197.314 9.78125C196.982 9.30273 196.483 9.06348 195.817 9.06348C194.464 9.06348 193.787 10.0387 193.787 11.9893ZM211.82 11.9893C211.82 13.6709 211.408 14.9492 210.583 15.8242C209.758 16.6992 208.55 17.1367 206.96 17.1367C205.392 17.1367 204.189 16.6969 203.351 15.8174C202.517 14.9378 202.1 13.6572 202.1 11.9756C202.1 10.3122 202.514 9.04297 203.344 8.16797C204.178 7.28841 205.388 6.84863 206.974 6.84863C208.564 6.84863 209.77 7.28385 210.59 8.1543C211.41 9.02474 211.82 10.3031 211.82 11.9893ZM204.943 11.9893C204.943 13.9215 205.616 14.8877 206.96 14.8877C207.644 14.8877 208.149 14.653 208.478 14.1836C208.81 13.7142 208.977 12.9827 208.977 11.9893C208.977 10.9912 208.808 10.2552 208.471 9.78125C208.138 9.30273 207.639 9.06348 206.974 9.06348C205.62 9.06348 204.943 10.0387 204.943 11.9893ZM216.325 13.3633V17H213.625V7.00586H216.899C219.616 7.00586 220.974 7.99023 220.974 9.95898C220.974 11.1165 220.409 12.012 219.278 12.6455L222.19 17H219.128L217.009 13.3633H216.325ZM216.325 11.333H216.831C217.774 11.333 218.246 10.916 218.246 10.082C218.246 9.39388 217.784 9.0498 216.858 9.0498H216.325V11.333ZM65.0801 37V27.0059H67.7939V37H65.0801ZM79.4766 37H75.9355L72.2852 29.959H72.2236C72.3102 31.0664 72.3535 31.9118 72.3535 32.4951V37H69.9609V27.0059H73.4883L77.125 33.9512H77.166C77.1022 32.944 77.0703 32.1351 77.0703 31.5244V27.0059H79.4766V37ZM88.1719 33.9648C88.1719 34.5846 88.0146 35.1361 87.7002 35.6191C87.3857 36.0977 86.9323 36.4714 86.3398 36.7402C85.7474 37.0046 85.0524 37.1367 84.2549 37.1367C83.5895 37.1367 83.0312 37.0911 82.5801 37C82.1289 36.9043 81.6595 36.7402 81.1719 36.5078V34.1016C81.6868 34.3659 82.2223 34.5732 82.7783 34.7236C83.3343 34.8695 83.8447 34.9424 84.3096 34.9424C84.7106 34.9424 85.0046 34.874 85.1914 34.7373C85.3783 34.596 85.4717 34.416 85.4717 34.1973C85.4717 34.0605 85.4329 33.9421 85.3555 33.8418C85.2826 33.737 85.1618 33.6322 84.9932 33.5273C84.8291 33.4225 84.387 33.2083 83.667 32.8848C83.0153 32.5885 82.5254 32.3014 82.1973 32.0234C81.8737 31.7454 81.6322 31.4264 81.4727 31.0664C81.3177 30.7064 81.2402 30.2803 81.2402 29.7881C81.2402 28.8675 81.5752 28.1497 82.2451 27.6348C82.915 27.1198 83.8356 26.8623 85.0068 26.8623C86.0413 26.8623 87.0964 27.1016 88.1719 27.5801L87.3447 29.665C86.4105 29.2367 85.6038 29.0225 84.9248 29.0225C84.5739 29.0225 84.3187 29.084 84.1592 29.207C83.9997 29.3301 83.9199 29.4827 83.9199 29.665C83.9199 29.861 84.0202 30.0365 84.2207 30.1914C84.4258 30.3464 84.9772 30.6289 85.875 31.0391C86.7363 31.4264 87.3333 31.8434 87.666 32.29C88.0033 32.7321 88.1719 33.2904 88.1719 33.9648ZM94.126 37H91.4258V29.2139H88.9854V27.0059H96.5596V29.2139H94.126V37ZM104.12 37L103.628 35.127H100.381L99.875 37H96.9082L100.169 26.9648H103.771L107.073 37H104.12ZM103.067 32.9121L102.637 31.2715C102.536 30.9069 102.413 30.4352 102.268 29.8564C102.126 29.2777 102.033 28.863 101.987 28.6123C101.946 28.8447 101.864 29.2275 101.741 29.7607C101.623 30.2939 101.356 31.3444 100.941 32.9121H103.067ZM108.16 37V27.0059H110.86V34.8193H114.709V37H108.16ZM116.309 37V27.0059H119.009V34.8193H122.857V37H116.309ZM130.589 37L130.097 35.127H126.85L126.344 37H123.377L126.638 26.9648H130.24L133.542 37H130.589ZM129.536 32.9121L129.105 31.2715C129.005 30.9069 128.882 30.4352 128.736 29.8564C128.595 29.2777 128.502 28.863 128.456 28.6123C128.415 28.8447 128.333 29.2275 128.21 29.7607C128.091 30.2939 127.825 31.3444 127.41 32.9121H129.536ZM139.038 37H136.338V29.2139H133.897V27.0059H141.472V29.2139H139.038V37ZM142.9 37V27.0059H145.614V37H142.9ZM157.133 31.9893C157.133 33.6709 156.72 34.9492 155.896 35.8242C155.071 36.6992 153.863 37.1367 152.272 37.1367C150.705 37.1367 149.502 36.6969 148.663 35.8174C147.829 34.9378 147.412 33.6572 147.412 31.9756C147.412 30.3122 147.827 29.043 148.656 28.168C149.49 27.2884 150.7 26.8486 152.286 26.8486C153.877 26.8486 155.082 27.2839 155.902 28.1543C156.723 29.0247 157.133 30.3031 157.133 31.9893ZM150.256 31.9893C150.256 33.9215 150.928 34.8877 152.272 34.8877C152.956 34.8877 153.462 34.653 153.79 34.1836C154.123 33.7142 154.289 32.9827 154.289 31.9893C154.289 30.9912 154.12 30.2552 153.783 29.7812C153.451 29.3027 152.951 29.0635 152.286 29.0635C150.933 29.0635 150.256 30.0387 150.256 31.9893ZM168.453 37H164.912L161.262 29.959H161.2C161.287 31.0664 161.33 31.9118 161.33 32.4951V37H158.938V27.0059H162.465L166.102 33.9512H166.143C166.079 32.944 166.047 32.1351 166.047 31.5244V27.0059H168.453V37Z" fill="#222931"/>
<rect x="32.2256" width="30.7934" height="30.7934" transform="rotate(45 32.2256 0)" fill="#222931"/>
<rect x="21.7744" width="30.7934" height="30.7934" transform="rotate(45 21.7744 0)" fill="#FEB62B"/>
</svg>
