<svg width="75" height="75" viewBox="0 0 75 75" fill="none" xmlns="http://www.w3.org/2000/svg">
<path d="M70.694 25.3384C72.2111 29.3739 73 33.6218 73 37.9303C73 57.5312 57.1009 73.4303 37.5 73.4303C17.8991 73.4303 2 57.5312 2 37.9303C2 33.6218 2.78889 29.3739 4.30598 25.3384" stroke="#333333" stroke-width="2.8346" stroke-miterlimit="22.9256"/>
<mask id="path-2-inside-1" fill="white">
<path d="M68.4487 18.2385L68.7825 18.7543L66.7193 21.9402L70.4513 21.3333L70.7547 21.8492L64.1099 22.9111L63.7761 22.3953L65.9607 22.0312L68.4487 18.2385ZM62.5321 17.3586C62.7445 17.6013 63.0176 17.753 63.321 17.844C63.6244 17.9351 63.9278 17.9351 64.2616 17.844C64.565 17.753 64.8684 17.6013 65.0808 17.3889C65.3235 17.1765 65.4752 16.9034 65.5663 16.5697C65.6573 16.2663 65.6876 15.9325 65.5966 15.6291C65.5359 15.3257 65.3842 15.0526 65.1718 14.8402C64.9594 14.5974 64.6864 14.4457 64.3829 14.3547C64.0795 14.2637 63.7761 14.2637 63.4727 14.3244C63.1693 14.4154 62.8962 14.5671 62.6535 14.8098C62.2893 15.1739 62.077 15.5987 62.077 16.0842C62.0163 16.5697 62.168 16.9945 62.5321 17.3586ZM60.5902 15.9932L65.1111 11.6543L65.5056 12.0791L63.6851 13.8389C64.0795 13.8086 64.4133 13.8389 64.747 13.9603C65.0505 14.0816 65.3539 14.2637 65.5966 14.5064C66.0517 14.9615 66.2641 15.5077 66.2338 16.1752C66.2035 16.8124 65.9607 17.3586 65.4752 17.844C65.0201 18.2992 64.4436 18.5116 63.8064 18.5116C63.1693 18.5116 62.6231 18.2688 62.168 17.8137C61.9252 17.5406 61.7432 17.2675 61.6522 16.9338C61.5611 16.6 61.5308 16.2663 61.6218 15.8718L61.015 16.4483L60.5902 15.9932ZM59.0731 13.4748C59.1945 13.5658 59.2552 13.6872 59.2552 13.8086C59.2552 13.9603 59.2248 14.0816 59.1338 14.1727C59.0428 14.294 58.9214 14.3547 58.8 14.3547C58.6483 14.3851 58.527 14.3244 58.4359 14.2637C58.3146 14.1727 58.2539 14.0513 58.2539 13.9299C58.2539 13.7782 58.2842 13.6568 58.3752 13.5658C58.4663 13.4445 58.5876 13.3838 58.709 13.3838C58.8607 13.3534 58.9821 13.4141 59.0731 13.4748ZM55.6748 5.07009L56.2817 5.40386L56.3727 8.4077L58.9821 6.98163L59.5889 7.31539L56.312 9.10557L54.8556 11.6239L54.3398 11.3205L55.7962 8.80215L55.6748 5.07009ZM49.7885 3.31027L49.121 5.28249L50.1223 5.61625C50.5167 5.73762 50.8201 5.7983 51.0325 5.7983C51.2449 5.7983 51.427 5.70727 51.5787 5.58591C51.7304 5.46454 51.8517 5.31283 51.9124 5.10044C51.9731 4.91839 51.9731 4.70599 51.9428 4.52394C51.8821 4.34189 51.7911 4.15984 51.6393 4.03847C51.4876 3.9171 51.2146 3.79574 50.8201 3.64403L49.7885 3.31027ZM49.394 2.55172L50.547 2.94616C51.1842 3.15856 51.609 3.34061 51.8214 3.46197C52.1248 3.64403 52.3676 3.9171 52.4889 4.25086C52.6103 4.58462 52.6103 4.94873 52.4889 5.31283C52.3676 5.61625 52.2158 5.88933 51.9731 6.07138C51.7304 6.25343 51.4573 6.3748 51.1539 6.40514C50.8505 6.43548 50.4257 6.3748 49.9402 6.19274L51.0932 9.59104L50.3953 9.3483L49.2423 5.95001L48.9086 5.82864L47.9983 8.52907L47.4218 8.31668L49.394 2.55172ZM42.8402 1.61112C42.3851 1.55044 41.9603 1.61112 41.5355 1.79317C41.1107 1.97522 40.7466 2.2483 40.4735 2.6124C40.2005 2.9765 40.0184 3.40129 39.9577 3.88676C39.8667 4.61497 40.0184 5.25215 40.4735 5.7983C40.8983 6.34445 41.4748 6.67821 42.1727 6.76924C42.6581 6.82992 43.0829 6.76924 43.5077 6.58719C43.9325 6.40514 44.2966 6.13206 44.5697 5.76796C44.8428 5.40386 45.0248 4.97907 45.0855 4.4936C45.1462 4.00813 45.0855 3.553 44.9338 3.15856C44.7517 2.73377 44.4787 2.40001 44.1146 2.09659C43.7201 1.85386 43.2953 1.6718 42.8402 1.61112ZM42.9009 1.03462C43.8111 1.15599 44.5393 1.55044 45.0855 2.2483C45.6317 2.94616 45.844 3.73505 45.7227 4.61497C45.6013 5.49488 45.2069 6.22309 44.509 6.7389C43.8111 7.28505 43.0223 7.49745 42.1423 7.37608C41.2321 7.25471 40.5342 6.86027 39.9881 6.1624C39.4419 5.46454 39.2295 4.67565 39.3509 3.82608C39.4419 3.24958 39.624 2.73377 39.9881 2.27864C40.3218 1.82351 40.777 1.48975 41.2928 1.27736C41.7782 1.03462 42.3244 0.943599 42.9009 1.03462ZM33.7376 4.25086L33.9197 6.58719L34.6782 6.5265C35.1334 6.49616 35.4368 6.43548 35.6492 6.31411C35.8616 6.22309 36.0133 6.07138 36.1043 5.85898C36.2257 5.67693 36.256 5.46454 36.256 5.25215C36.2257 4.97907 36.1346 4.73633 35.9222 4.55428C35.7402 4.37223 35.4671 4.25086 35.1637 4.19018C34.9513 4.15984 34.5872 4.15984 34.0714 4.19018L33.7376 4.25086ZM33.5252 1.70215L33.677 3.64403L34.0107 3.61368C34.4355 3.58334 34.7389 3.52266 34.9513 3.43163C35.1334 3.34061 35.2851 3.1889 35.4064 3.03719C35.4975 2.85514 35.5581 2.67309 35.5278 2.46069C35.4975 2.18762 35.4064 1.97522 35.194 1.82351C34.9817 1.6718 34.6782 1.61112 34.2534 1.6718L33.5252 1.70215ZM32.8881 1.15599L34.1017 1.06497C34.5872 1.03462 34.9513 1.06497 35.2244 1.15599C35.4975 1.24702 35.7099 1.39873 35.8919 1.64146C36.074 1.85386 36.165 2.12693 36.165 2.40001C36.1953 2.67309 36.1346 2.91582 36.0133 3.15856C35.8919 3.40129 35.7099 3.58334 35.4671 3.73505C35.8009 3.82608 36.0436 3.9171 36.2257 4.06881C36.4077 4.19018 36.5594 4.37223 36.6505 4.55428C36.7718 4.76668 36.8325 4.97907 36.8325 5.2218C36.8628 5.70727 36.7111 6.13206 36.3774 6.49616C36.0436 6.86027 35.5885 7.07266 34.9817 7.103L33.3128 7.22437L32.8881 1.15599ZM27.3052 3.73505L26.9107 6.1624L28.9133 5.58591L27.3052 3.73505ZM27.0321 2.46069L31.462 7.52779L30.8248 7.70984L29.3684 6.07138L26.8197 6.79958L26.4556 8.9842L25.7881 9.16625L26.8804 2.52138L27.0321 2.46069ZM19.0522 6.5265L18.7791 6.01069L21.6312 4.52394L21.9043 10.5923L24.0586 9.46967L24.3316 9.98548L21.3581 11.5329L21.0851 5.46454L19.0522 6.5265ZM13.5299 9.65172L16.2911 7.49745L16.6552 7.95257L14.3795 9.74275L15.5628 11.2598L17.8081 9.50001L18.1722 9.95514L15.9269 11.715L17.4137 13.5962L19.659 11.8363L20.0231 12.2915L17.2923 14.4457L13.5299 9.65172ZM12.2859 17.7227L12.4073 17.1462C13.1355 17.3586 13.6816 17.2675 14.0154 16.9338C14.1671 16.7821 14.2581 16.6 14.3188 16.418C14.3795 16.2359 14.3795 16.0235 14.3188 15.8415C14.2581 15.6594 14.1671 15.5077 14.0458 15.3863C13.894 15.2346 13.712 15.1436 13.4693 15.1133C13.1355 15.0526 12.65 15.0829 12.0432 15.2043C11.406 15.2953 10.9812 15.356 10.7688 15.3257C10.4047 15.2953 10.1013 15.1436 9.85857 14.9312C9.67652 14.7492 9.52481 14.5368 9.46413 14.294C9.40344 14.0513 9.40344 13.8086 9.46413 13.5355C9.52481 13.2927 9.64618 13.05 9.85857 12.868C10.071 12.6556 10.2834 12.5039 10.5564 12.4128C10.8295 12.3218 11.1936 12.3218 11.6791 12.3825L11.6184 12.9893C11.224 12.959 10.9509 12.959 10.7688 12.9893C10.5868 13.05 10.4351 13.141 10.2834 13.2624C10.1013 13.4445 10.0406 13.6265 10.0406 13.8692C10.0406 14.0816 10.1316 14.2637 10.2834 14.4154C10.3744 14.5064 10.4958 14.5671 10.6171 14.6278C10.7385 14.6885 10.9205 14.6885 11.1329 14.6885C11.2543 14.6885 11.5881 14.6278 12.1342 14.5368C12.7714 14.4154 13.2872 14.3851 13.6513 14.4761C14.0154 14.5368 14.2885 14.6885 14.5312 14.9009C14.865 15.2043 15.0167 15.5987 15.0167 16.0539C15.0167 16.509 14.865 16.9338 14.5312 17.2675C14.2885 17.5406 13.9851 17.7227 13.621 17.7833C13.2265 17.9047 12.8017 17.8744 12.2859 17.7227ZM4.1543 20.8175L4.5184 20.2714L9.58549 21.0906L6.70302 16.8124L7.06712 16.2663L10.7992 21.7885L10.7385 21.9098L4.1543 20.8175Z"/>
</mask>
<path d="M68.4487 18.2385L68.7825 18.7543L66.7193 21.9402L70.4513 21.3333L70.7547 21.8492L64.1099 22.9111L63.7761 22.3953L65.9607 22.0312L68.4487 18.2385ZM62.5321 17.3586C62.7445 17.6013 63.0176 17.753 63.321 17.844C63.6244 17.9351 63.9278 17.9351 64.2616 17.844C64.565 17.753 64.8684 17.6013 65.0808 17.3889C65.3235 17.1765 65.4752 16.9034 65.5663 16.5697C65.6573 16.2663 65.6876 15.9325 65.5966 15.6291C65.5359 15.3257 65.3842 15.0526 65.1718 14.8402C64.9594 14.5974 64.6864 14.4457 64.3829 14.3547C64.0795 14.2637 63.7761 14.2637 63.4727 14.3244C63.1693 14.4154 62.8962 14.5671 62.6535 14.8098C62.2893 15.1739 62.077 15.5987 62.077 16.0842C62.0163 16.5697 62.168 16.9945 62.5321 17.3586ZM60.5902 15.9932L65.1111 11.6543L65.5056 12.0791L63.6851 13.8389C64.0795 13.8086 64.4133 13.8389 64.747 13.9603C65.0505 14.0816 65.3539 14.2637 65.5966 14.5064C66.0517 14.9615 66.2641 15.5077 66.2338 16.1752C66.2035 16.8124 65.9607 17.3586 65.4752 17.844C65.0201 18.2992 64.4436 18.5116 63.8064 18.5116C63.1693 18.5116 62.6231 18.2688 62.168 17.8137C61.9252 17.5406 61.7432 17.2675 61.6522 16.9338C61.5611 16.6 61.5308 16.2663 61.6218 15.8718L61.015 16.4483L60.5902 15.9932ZM59.0731 13.4748C59.1945 13.5658 59.2552 13.6872 59.2552 13.8086C59.2552 13.9603 59.2248 14.0816 59.1338 14.1727C59.0428 14.294 58.9214 14.3547 58.8 14.3547C58.6483 14.3851 58.527 14.3244 58.4359 14.2637C58.3146 14.1727 58.2539 14.0513 58.2539 13.9299C58.2539 13.7782 58.2842 13.6568 58.3752 13.5658C58.4663 13.4445 58.5876 13.3838 58.709 13.3838C58.8607 13.3534 58.9821 13.4141 59.0731 13.4748ZM55.6748 5.07009L56.2817 5.40386L56.3727 8.4077L58.9821 6.98163L59.5889 7.31539L56.312 9.10557L54.8556 11.6239L54.3398 11.3205L55.7962 8.80215L55.6748 5.07009ZM49.7885 3.31027L49.121 5.28249L50.1223 5.61625C50.5167 5.73762 50.8201 5.7983 51.0325 5.7983C51.2449 5.7983 51.427 5.70727 51.5787 5.58591C51.7304 5.46454 51.8517 5.31283 51.9124 5.10044C51.9731 4.91839 51.9731 4.70599 51.9428 4.52394C51.8821 4.34189 51.7911 4.15984 51.6393 4.03847C51.4876 3.9171 51.2146 3.79574 50.8201 3.64403L49.7885 3.31027ZM49.394 2.55172L50.547 2.94616C51.1842 3.15856 51.609 3.34061 51.8214 3.46197C52.1248 3.64403 52.3676 3.9171 52.4889 4.25086C52.6103 4.58462 52.6103 4.94873 52.4889 5.31283C52.3676 5.61625 52.2158 5.88933 51.9731 6.07138C51.7304 6.25343 51.4573 6.3748 51.1539 6.40514C50.8505 6.43548 50.4257 6.3748 49.9402 6.19274L51.0932 9.59104L50.3953 9.3483L49.2423 5.95001L48.9086 5.82864L47.9983 8.52907L47.4218 8.31668L49.394 2.55172ZM42.8402 1.61112C42.3851 1.55044 41.9603 1.61112 41.5355 1.79317C41.1107 1.97522 40.7466 2.2483 40.4735 2.6124C40.2005 2.9765 40.0184 3.40129 39.9577 3.88676C39.8667 4.61497 40.0184 5.25215 40.4735 5.7983C40.8983 6.34445 41.4748 6.67821 42.1727 6.76924C42.6581 6.82992 43.0829 6.76924 43.5077 6.58719C43.9325 6.40514 44.2966 6.13206 44.5697 5.76796C44.8428 5.40386 45.0248 4.97907 45.0855 4.4936C45.1462 4.00813 45.0855 3.553 44.9338 3.15856C44.7517 2.73377 44.4787 2.40001 44.1146 2.09659C43.7201 1.85386 43.2953 1.6718 42.8402 1.61112ZM42.9009 1.03462C43.8111 1.15599 44.5393 1.55044 45.0855 2.2483C45.6317 2.94616 45.844 3.73505 45.7227 4.61497C45.6013 5.49488 45.2069 6.22309 44.509 6.7389C43.8111 7.28505 43.0223 7.49745 42.1423 7.37608C41.2321 7.25471 40.5342 6.86027 39.9881 6.1624C39.4419 5.46454 39.2295 4.67565 39.3509 3.82608C39.4419 3.24958 39.624 2.73377 39.9881 2.27864C40.3218 1.82351 40.777 1.48975 41.2928 1.27736C41.7782 1.03462 42.3244 0.943599 42.9009 1.03462ZM33.7376 4.25086L33.9197 6.58719L34.6782 6.5265C35.1334 6.49616 35.4368 6.43548 35.6492 6.31411C35.8616 6.22309 36.0133 6.07138 36.1043 5.85898C36.2257 5.67693 36.256 5.46454 36.256 5.25215C36.2257 4.97907 36.1346 4.73633 35.9222 4.55428C35.7402 4.37223 35.4671 4.25086 35.1637 4.19018C34.9513 4.15984 34.5872 4.15984 34.0714 4.19018L33.7376 4.25086ZM33.5252 1.70215L33.677 3.64403L34.0107 3.61368C34.4355 3.58334 34.7389 3.52266 34.9513 3.43163C35.1334 3.34061 35.2851 3.1889 35.4064 3.03719C35.4975 2.85514 35.5581 2.67309 35.5278 2.46069C35.4975 2.18762 35.4064 1.97522 35.194 1.82351C34.9817 1.6718 34.6782 1.61112 34.2534 1.6718L33.5252 1.70215ZM32.8881 1.15599L34.1017 1.06497C34.5872 1.03462 34.9513 1.06497 35.2244 1.15599C35.4975 1.24702 35.7099 1.39873 35.8919 1.64146C36.074 1.85386 36.165 2.12693 36.165 2.40001C36.1953 2.67309 36.1346 2.91582 36.0133 3.15856C35.8919 3.40129 35.7099 3.58334 35.4671 3.73505C35.8009 3.82608 36.0436 3.9171 36.2257 4.06881C36.4077 4.19018 36.5594 4.37223 36.6505 4.55428C36.7718 4.76668 36.8325 4.97907 36.8325 5.2218C36.8628 5.70727 36.7111 6.13206 36.3774 6.49616C36.0436 6.86027 35.5885 7.07266 34.9817 7.103L33.3128 7.22437L32.8881 1.15599ZM27.3052 3.73505L26.9107 6.1624L28.9133 5.58591L27.3052 3.73505ZM27.0321 2.46069L31.462 7.52779L30.8248 7.70984L29.3684 6.07138L26.8197 6.79958L26.4556 8.9842L25.7881 9.16625L26.8804 2.52138L27.0321 2.46069ZM19.0522 6.5265L18.7791 6.01069L21.6312 4.52394L21.9043 10.5923L24.0586 9.46967L24.3316 9.98548L21.3581 11.5329L21.0851 5.46454L19.0522 6.5265ZM13.5299 9.65172L16.2911 7.49745L16.6552 7.95257L14.3795 9.74275L15.5628 11.2598L17.8081 9.50001L18.1722 9.95514L15.9269 11.715L17.4137 13.5962L19.659 11.8363L20.0231 12.2915L17.2923 14.4457L13.5299 9.65172ZM12.2859 17.7227L12.4073 17.1462C13.1355 17.3586 13.6816 17.2675 14.0154 16.9338C14.1671 16.7821 14.2581 16.6 14.3188 16.418C14.3795 16.2359 14.3795 16.0235 14.3188 15.8415C14.2581 15.6594 14.1671 15.5077 14.0458 15.3863C13.894 15.2346 13.712 15.1436 13.4693 15.1133C13.1355 15.0526 12.65 15.0829 12.0432 15.2043C11.406 15.2953 10.9812 15.356 10.7688 15.3257C10.4047 15.2953 10.1013 15.1436 9.85857 14.9312C9.67652 14.7492 9.52481 14.5368 9.46413 14.294C9.40344 14.0513 9.40344 13.8086 9.46413 13.5355C9.52481 13.2927 9.64618 13.05 9.85857 12.868C10.071 12.6556 10.2834 12.5039 10.5564 12.4128C10.8295 12.3218 11.1936 12.3218 11.6791 12.3825L11.6184 12.9893C11.224 12.959 10.9509 12.959 10.7688 12.9893C10.5868 13.05 10.4351 13.141 10.2834 13.2624C10.1013 13.4445 10.0406 13.6265 10.0406 13.8692C10.0406 14.0816 10.1316 14.2637 10.2834 14.4154C10.3744 14.5064 10.4958 14.5671 10.6171 14.6278C10.7385 14.6885 10.9205 14.6885 11.1329 14.6885C11.2543 14.6885 11.5881 14.6278 12.1342 14.5368C12.7714 14.4154 13.2872 14.3851 13.6513 14.4761C14.0154 14.5368 14.2885 14.6885 14.5312 14.9009C14.865 15.2043 15.0167 15.5987 15.0167 16.0539C15.0167 16.509 14.865 16.9338 14.5312 17.2675C14.2885 17.5406 13.9851 17.7227 13.621 17.7833C13.2265 17.9047 12.8017 17.8744 12.2859 17.7227ZM4.1543 20.8175L4.5184 20.2714L9.58549 21.0906L6.70302 16.8124L7.06712 16.2663L10.7992 21.7885L10.7385 21.9098L4.1543 20.8175Z" fill="#DBB43F" stroke="#333333" stroke-width="2" mask="url(#path-2-inside-1)"/>
<path d="M68.4487 18.2385L68.7825 18.7543L66.7193 21.9402L70.4513 21.3333L70.7547 21.8492L64.1099 22.9111L63.7761 22.3953L65.9607 22.0312L68.4487 18.2385ZM62.5321 17.3586C62.7445 17.6013 63.0176 17.753 63.321 17.844C63.6244 17.9351 63.9278 17.9351 64.2616 17.844C64.565 17.753 64.8684 17.6013 65.0808 17.3889C65.3235 17.1765 65.4752 16.9034 65.5663 16.5697C65.6573 16.2663 65.6876 15.9325 65.5966 15.6291C65.5359 15.3257 65.3842 15.0526 65.1718 14.8402C64.9594 14.5974 64.6864 14.4457 64.3829 14.3547C64.0795 14.2637 63.7761 14.2637 63.4727 14.3244C63.1693 14.4154 62.8962 14.5671 62.6535 14.8098C62.2893 15.1739 62.077 15.5987 62.077 16.0842C62.0163 16.5697 62.168 16.9945 62.5321 17.3586ZM60.5902 15.9932L65.1111 11.6543L65.5056 12.0791L63.6851 13.8389C64.0795 13.8086 64.4133 13.8389 64.747 13.9603C65.0505 14.0816 65.3539 14.2637 65.5966 14.5064C66.0517 14.9615 66.2641 15.5077 66.2338 16.1752C66.2035 16.8124 65.9607 17.3586 65.4752 17.844C65.0201 18.2992 64.4436 18.5116 63.8064 18.5116C63.1693 18.5116 62.6231 18.2688 62.168 17.8137C61.9252 17.5406 61.7432 17.2675 61.6522 16.9338C61.5611 16.6 61.5308 16.2663 61.6218 15.8718L61.015 16.4483L60.5902 15.9932ZM59.0731 13.4748C59.1945 13.5658 59.2552 13.6872 59.2552 13.8086C59.2552 13.9603 59.2248 14.0816 59.1338 14.1727C59.0428 14.294 58.9214 14.3547 58.8 14.3547C58.6483 14.3851 58.527 14.3244 58.4359 14.2637C58.3146 14.1727 58.2539 14.0513 58.2539 13.9299C58.2539 13.7782 58.2842 13.6568 58.3752 13.5658C58.4663 13.4445 58.5876 13.3838 58.709 13.3838C58.8607 13.3534 58.9821 13.4141 59.0731 13.4748ZM55.6748 5.07009L56.2817 5.40386L56.3727 8.4077L58.9821 6.98163L59.5889 7.31539L56.312 9.10557L54.8556 11.6239L54.3398 11.3205L55.7962 8.80215L55.6748 5.07009ZM49.7885 3.31027L49.121 5.28249L50.1223 5.61625C50.5167 5.73762 50.8201 5.7983 51.0325 5.7983C51.2449 5.7983 51.427 5.70727 51.5787 5.58591C51.7304 5.46454 51.8517 5.31283 51.9124 5.10044C51.9731 4.91839 51.9731 4.70599 51.9428 4.52394C51.8821 4.34189 51.7911 4.15984 51.6393 4.03847C51.4876 3.9171 51.2146 3.79574 50.8201 3.64403L49.7885 3.31027ZM49.394 2.55172L50.547 2.94616C51.1842 3.15856 51.609 3.34061 51.8214 3.46197C52.1248 3.64403 52.3676 3.9171 52.4889 4.25086C52.6103 4.58462 52.6103 4.94873 52.4889 5.31283C52.3676 5.61625 52.2158 5.88933 51.9731 6.07138C51.7304 6.25343 51.4573 6.3748 51.1539 6.40514C50.8505 6.43548 50.4257 6.3748 49.9402 6.19274L51.0932 9.59104L50.3953 9.3483L49.2423 5.95001L48.9086 5.82864L47.9983 8.52907L47.4218 8.31668L49.394 2.55172ZM42.8402 1.61112C42.3851 1.55044 41.9603 1.61112 41.5355 1.79317C41.1107 1.97522 40.7466 2.2483 40.4735 2.6124C40.2005 2.9765 40.0184 3.40129 39.9577 3.88676C39.8667 4.61497 40.0184 5.25215 40.4735 5.7983C40.8983 6.34445 41.4748 6.67821 42.1727 6.76924C42.6581 6.82992 43.0829 6.76924 43.5077 6.58719C43.9325 6.40514 44.2966 6.13206 44.5697 5.76796C44.8428 5.40386 45.0248 4.97907 45.0855 4.4936C45.1462 4.00813 45.0855 3.553 44.9338 3.15856C44.7517 2.73377 44.4787 2.40001 44.1146 2.09659C43.7201 1.85386 43.2953 1.6718 42.8402 1.61112ZM42.9009 1.03462C43.8111 1.15599 44.5393 1.55044 45.0855 2.2483C45.6317 2.94616 45.844 3.73505 45.7227 4.61497C45.6013 5.49488 45.2069 6.22309 44.509 6.7389C43.8111 7.28505 43.0223 7.49745 42.1423 7.37608C41.2321 7.25471 40.5342 6.86027 39.9881 6.1624C39.4419 5.46454 39.2295 4.67565 39.3509 3.82608C39.4419 3.24958 39.624 2.73377 39.9881 2.27864C40.3218 1.82351 40.7769 1.48975 41.2928 1.27736C41.7782 1.03462 42.3244 0.943599 42.9009 1.03462ZM33.7376 4.25086L33.9197 6.58719L34.6782 6.52651C35.1334 6.49616 35.4368 6.43548 35.6492 6.31411C35.8616 6.22309 36.0133 6.07138 36.1043 5.85898C36.2257 5.67693 36.256 5.46454 36.256 5.25215C36.2257 4.97907 36.1346 4.73633 35.9222 4.55428C35.7402 4.37223 35.4671 4.25086 35.1637 4.19018C34.9513 4.15984 34.5872 4.15984 34.0714 4.19018L33.7376 4.25086ZM33.5252 1.70215L33.677 3.64403L34.0107 3.61368C34.4355 3.58334 34.7389 3.52266 34.9513 3.43163C35.1334 3.34061 35.2851 3.1889 35.4064 3.03719C35.4975 2.85514 35.5581 2.67309 35.5278 2.46069C35.4975 2.18762 35.4064 1.97522 35.194 1.82351C34.9817 1.6718 34.6782 1.61112 34.2534 1.6718L33.5252 1.70215ZM32.8881 1.15599L34.1017 1.06497C34.5872 1.03462 34.9513 1.06497 35.2244 1.15599C35.4975 1.24702 35.7099 1.39873 35.8919 1.64146C36.074 1.85386 36.165 2.12693 36.165 2.40001C36.1953 2.67309 36.1346 2.91582 36.0133 3.15856C35.8919 3.40129 35.7099 3.58334 35.4671 3.73505C35.8009 3.82608 36.0436 3.9171 36.2257 4.06881C36.4077 4.19018 36.5594 4.37223 36.6505 4.55428C36.7718 4.76668 36.8325 4.97907 36.8325 5.2218C36.8628 5.70727 36.7111 6.13206 36.3774 6.49616C36.0436 6.86027 35.5885 7.07266 34.9817 7.103L33.3128 7.22437L32.8881 1.15599ZM27.3052 3.73505L26.9107 6.1624L28.9133 5.58591L27.3052 3.73505ZM27.0321 2.46069L31.462 7.52779L30.8248 7.70984L29.3684 6.07138L26.8197 6.79958L26.4556 8.9842L25.7881 9.16625L26.8804 2.52138L27.0321 2.46069ZM19.0522 6.52651L18.7791 6.01069L21.6312 4.52394L21.9043 10.5923L24.0586 9.46967L24.3317 9.98548L21.3581 11.5329L21.0851 5.46454L19.0522 6.52651ZM13.5299 9.65172L16.2911 7.49745L16.6552 7.95257L14.3795 9.74275L15.5628 11.2598L17.8081 9.50001L18.1722 9.95514L15.9269 11.715L17.4137 13.5962L19.659 11.8363L20.0231 12.2915L17.2923 14.4457L13.5299 9.65172ZM12.2859 17.7227L12.4073 17.1462C13.1355 17.3586 13.6816 17.2675 14.0154 16.9338C14.1671 16.7821 14.2581 16.6 14.3188 16.418C14.3795 16.2359 14.3795 16.0235 14.3188 15.8415C14.2581 15.6594 14.1671 15.5077 14.0458 15.3863C13.894 15.2346 13.712 15.1436 13.4693 15.1133C13.1355 15.0526 12.65 15.0829 12.0432 15.2043C11.406 15.2953 10.9812 15.356 10.7688 15.3257C10.4047 15.2953 10.1013 15.1436 9.85857 14.9312C9.67652 14.7492 9.52481 14.5368 9.46413 14.294C9.40344 14.0513 9.40344 13.8086 9.46413 13.5355C9.52481 13.2927 9.64618 13.05 9.85857 12.868C10.071 12.6556 10.2834 12.5039 10.5564 12.4128C10.8295 12.3218 11.1936 12.3218 11.6791 12.3825L11.6184 12.9893C11.224 12.959 10.9509 12.959 10.7688 12.9893C10.5868 13.05 10.4351 13.141 10.2834 13.2624C10.1013 13.4445 10.0406 13.6265 10.0406 13.8692C10.0406 14.0816 10.1316 14.2637 10.2834 14.4154C10.3744 14.5064 10.4958 14.5671 10.6171 14.6278C10.7385 14.6885 10.9205 14.6885 11.1329 14.6885C11.2543 14.6885 11.5881 14.6278 12.1342 14.5368C12.7714 14.4154 13.2872 14.3851 13.6513 14.4761C14.0154 14.5368 14.2885 14.6885 14.5312 14.9009C14.865 15.2043 15.0167 15.5987 15.0167 16.0539C15.0167 16.509 14.865 16.9338 14.5312 17.2675C14.2885 17.5406 13.9851 17.7227 13.621 17.7833C13.2265 17.9047 12.8017 17.8744 12.2859 17.7227ZM4.1543 20.8175L4.5184 20.2714L9.58549 21.0906L6.70302 16.8124L7.06712 16.2663L10.7992 21.7885L10.7385 21.9098L4.1543 20.8175Z" stroke="#333333" stroke-width="0.5669" stroke-miterlimit="22.9256"/>
<path fill-rule="evenodd" clip-rule="evenodd" d="M53.247 26.006L55.0675 29.6774V49.8244H53.338H51.6085V29.647L53.247 26.006ZM45.176 26.006L46.9965 29.6774V49.8244H45.267H43.5376V29.647L45.176 26.006ZM37.0747 26.006L38.8953 29.6774V49.8244H37.1658H35.4363V29.647L37.0747 26.006ZM29.0038 26.006L30.8243 29.6774V49.8244H29.0948H27.3653V29.647L29.0038 26.006ZM21.6004 26.006L23.4209 29.6774V49.8244H21.6914H19.9619V29.647L21.6004 26.006ZM46.9965 32.6205H51.6085V34.5928H46.9965V32.6205ZM38.8953 32.6205H43.5072V34.5928H38.8953V32.6205ZM30.8243 32.6205H35.4363V34.5928H30.8243V32.6205ZM23.4209 32.6205H27.335V34.5928H23.4209V32.6205ZM46.9965 42.3299H51.6085V44.4539H46.9965V42.3299ZM38.8953 42.3299H43.5072V44.4539H38.8953V42.3299ZM30.8243 42.3299H35.4363V44.4539H30.8243V42.3299ZM23.4209 42.3299H27.335V44.4539H23.4209V42.3299Z" fill="#333333"/>
</svg>
