<svg width="277" height="73" viewBox="0 0 277 73" fill="none" xmlns="http://www.w3.org/2000/svg">
<mask id="mask0" mask-type="alpha" maskUnits="userSpaceOnUse" x="75" y="7" width="202" height="58">
<rect width="201.401" height="56.1283" transform="matrix(1 0 0 -1 75 64.1282)" fill="#BF3783"/>
</mask>
<g mask="url(#mask0)">
<path fill-rule="evenodd" clip-rule="evenodd" d="M212.085 15.6598C213.67 15.6598 215.321 15.6598 216.905 15.6598C216.905 18.3011 216.905 20.9425 216.905 23.5838C218.886 21.0085 220.537 18.3011 222.386 15.6598C224.103 15.6598 225.886 15.6598 227.603 15.6598C225.754 18.4992 223.707 21.1405 221.66 23.8479C223.773 27.1496 226.15 30.2531 228.263 33.5548C226.48 33.5548 224.631 33.5548 222.848 33.5548C220.801 30.6493 219.019 27.6118 216.905 24.7724C216.839 27.6778 216.905 30.5833 216.905 33.5548C215.321 33.5548 213.67 33.5548 212.085 33.5548C212.085 27.6118 212.085 21.6028 212.085 15.6598ZM149.419 15.6598C151.004 15.6598 152.523 15.6598 154.108 15.6598C154.108 17.971 154.108 20.2161 154.108 22.5273C156.023 22.5273 157.938 22.5273 159.787 22.5273C159.787 20.2821 159.787 17.9709 159.787 15.7258C161.372 15.7258 162.89 15.7258 164.475 15.7258C164.475 21.6688 164.475 27.6778 164.475 33.6208C162.89 33.6208 161.305 33.6208 159.787 33.6208C159.787 31.1116 159.787 28.5363 159.787 26.027C157.872 26.027 155.957 26.027 154.042 26.027C154.042 28.5363 154.042 31.1116 154.042 33.6208C152.457 33.6208 150.872 33.6208 149.353 33.6208C149.486 27.6118 149.419 21.6028 149.419 15.6598ZM130.072 15.6598C131.657 15.6598 133.175 15.6598 134.76 15.6598C134.76 19.7539 134.76 23.7819 134.694 27.8759C136.741 23.8479 138.524 19.7539 140.373 15.6598C142.288 15.6598 144.137 15.6598 146.052 15.6598C146.052 21.6688 146.052 27.6118 146.052 33.6208C144.467 33.6208 142.882 33.6208 141.363 33.6208C141.363 29.5268 141.363 25.4327 141.495 21.2726C139.581 25.3667 137.732 29.3947 135.949 33.5548C134.034 33.6208 132.053 33.6208 130.138 33.6208C130.072 27.6118 130.072 21.6028 130.072 15.6598ZM113.167 15.6598C117.657 15.6598 122.214 15.6598 126.704 15.6598C126.638 21.6688 126.77 27.6118 126.638 33.6208C125.053 33.6208 123.468 33.5548 121.884 33.5548C121.884 28.7344 121.884 23.8479 121.884 19.0275C120.431 19.0275 118.978 19.0275 117.591 19.0275C117.525 22.9234 117.79 26.9515 116.733 30.7154C115.809 33.7529 112.177 34.2151 109.535 33.6869C109.535 32.4983 109.535 31.3097 109.535 30.055C110.592 29.8569 112.243 30.055 112.507 28.6023C113.365 24.4422 113.035 20.018 113.167 15.6598ZM95.2062 15.6598C99.4323 15.6598 103.658 15.6598 107.885 15.6598C107.885 16.7824 107.885 17.9049 107.885 19.0275C105.243 19.0275 102.668 19.0275 100.027 19.0275C100.027 20.2821 100.027 21.4707 100.027 22.7254C102.47 22.7254 104.913 22.7254 107.356 22.7254C107.356 23.8479 107.356 24.9705 107.356 26.093C104.913 26.093 102.47 26.093 100.027 26.093C100.027 27.4137 100.027 28.7344 100.027 30.1211C102.734 30.1211 105.375 30.1211 108.083 30.1211C108.083 31.2436 108.083 32.3662 108.083 33.5548C103.791 33.6208 99.4983 33.5548 95.2062 33.5548C95.2062 27.6118 95.2722 21.6028 95.2062 15.6598ZM83.1881 25.961C83.1881 27.3477 83.1881 28.8004 83.1881 30.1871C84.4428 30.055 85.8955 30.3852 87.0841 29.7909C88.4708 29.0645 88.1406 26.6213 86.6219 26.2251C85.4993 25.961 84.3107 26.027 83.1881 25.961ZM78.3017 15.6598C82.6599 15.6598 86.952 15.6598 91.3102 15.6598C91.3102 16.8484 91.3102 18.037 91.3102 19.2256C88.6029 19.2256 85.8955 19.2256 83.1881 19.2256C83.1881 20.3481 83.1881 21.4707 83.1881 22.5933C85.6314 22.7254 88.3387 22.3291 90.5178 23.6498C92.6309 24.9705 93.0271 27.7439 92.4988 29.989C91.9045 32.2341 89.4613 33.4227 87.3482 33.5548C84.3107 33.6869 81.3392 33.5548 78.3017 33.5548V15.6598ZM249.856 15.6598C252.365 15.6598 254.875 15.6598 257.384 15.6598C258.771 19.5558 259.761 23.5838 261.28 27.4797C262.534 23.5177 263.921 19.6218 265.176 15.6598C267.487 15.6598 269.798 15.6598 272.175 15.6598C272.175 21.6688 272.241 27.6118 272.175 33.6208C270.723 33.6208 269.27 33.6208 267.817 33.6208C267.619 29.3947 268.015 25.1025 267.817 20.8764C265.902 24.9705 264.912 29.3947 263.327 33.6869C261.808 33.6869 260.289 33.6869 258.771 33.6208C257.384 29.5928 256.657 25.1686 254.61 21.4707C254.412 25.5648 254.743 29.6588 254.61 33.6869C253.026 33.6869 251.507 33.6869 249.922 33.6869C249.856 27.6118 249.856 21.6028 249.856 15.6598ZM236.781 19.1595C233.744 20.8104 233.81 25.1686 234.8 28.008C235.659 30.7154 239.819 31.2436 241.272 28.8004C242.592 26.6213 242.526 23.7819 241.8 21.4047C241.14 19.3577 238.696 18.3011 236.781 19.1595ZM235.659 15.5938C238.961 14.9334 242.989 15.3957 245.3 18.1691C247.413 20.7443 247.545 24.3102 246.951 27.4797C246.488 30.5173 244.045 33.0926 241.008 33.7529C237.97 34.2151 234.47 34.2151 232.027 32.036C229.122 29.5268 228.791 25.1686 229.518 21.6028C230.178 18.5653 232.621 16.056 235.659 15.5938ZM198.68 19.2916C195.973 21.0745 196.039 25.1026 196.897 27.8759C197.624 30.5833 201.652 31.3757 203.369 29.1306C204.953 26.8854 204.887 23.8479 204.029 21.3387C203.369 19.2256 200.595 18.103 198.68 19.2916ZM198.086 15.5277C201.256 14.9334 205.019 15.3957 207.331 17.971C209.51 20.3482 209.642 23.7819 209.312 26.8194C209.048 29.3287 207.595 31.7059 205.35 32.8945C203.237 34.0831 200.727 33.951 198.416 33.7529C195.181 33.4888 192.473 30.7814 191.879 27.6778C191.285 24.7063 191.417 21.4047 193.067 18.7634C194.124 17.0465 196.105 15.9239 198.086 15.5277ZM172.201 26.6213C172.729 28.2721 174.644 28.6023 176.097 28.9325C176.097 26.093 176.097 23.3196 176.097 20.4802C172.729 20.018 170.814 23.8479 172.201 26.6213ZM180.653 20.5462C180.653 23.3196 180.653 26.1591 180.653 28.9325C182.436 28.8004 184.483 28.074 184.813 26.093C185.738 23.2536 183.691 20.1501 180.653 20.5462ZM175.965 14.5372C177.55 14.5372 179.134 14.5372 180.719 14.6033C180.719 15.4617 180.653 16.3201 180.653 17.1125C182.436 17.1786 184.351 17.1125 185.936 18.037C190.162 20.084 190.954 26.4892 187.851 29.8569C186.002 31.8379 183.162 32.3002 180.587 32.4322C180.587 32.9605 180.653 34.017 180.653 34.5453C179.068 34.5453 177.418 34.5453 175.833 34.5453C175.833 34.017 175.899 32.9605 175.965 32.4322C173.852 32.2341 171.607 32.036 169.824 30.7814C165.664 27.942 165.994 20.7444 170.352 18.2351C172.003 17.1786 173.984 17.1786 175.899 17.1786C176.031 16.2541 175.965 15.3957 175.965 14.5372ZM182.568 -16.8946C183.757 -18.0172 185.21 -16.5644 184.879 -15.2438C184.747 -11.6119 185.804 -7.18771 182.766 -4.41432C180.719 -2.82952 178.672 -1.11265 176.427 0.141983C175.04 0.60421 174.71 -1.24472 174.71 -2.23522C174.776 -5.66895 174.05 -9.69698 176.625 -12.4704C178.474 -14.1212 180.521 -15.5079 182.568 -16.8946ZM157.343 -16.8946C158.334 -17.9511 159.655 -16.6305 160.513 -16.0362C162.89 -14.1212 166.192 -12.6024 166.852 -9.30077C167.182 -6.32928 167.248 -3.29176 166.786 -0.320259C165.598 1.0004 164.211 -0.518356 163.154 -1.17869C160.579 -3.09365 157.079 -5.00861 156.947 -8.64044C157.079 -11.4138 156.551 -14.3193 157.343 -16.8946ZM193.133 -23.1678C194.85 -24.4224 196.435 -26.0732 198.614 -26.4694C198.812 -23.1017 199.869 -18.6775 196.831 -16.3003C195.114 -15.1117 193.596 -13.3948 191.417 -13.1307C191.417 -16.4324 190.162 -20.7245 193.133 -23.1678ZM143.278 -25.8751C143.476 -26.0072 143.873 -26.2713 144.005 -26.4034C146.448 -24.8846 149.618 -23.3659 150.476 -20.3283C150.74 -18.2153 150.674 -16.0362 150.542 -13.9231C150.08 -12.7345 148.759 -13.3288 148.099 -13.9231C146.052 -15.5079 143.344 -16.8946 143.014 -19.668C142.948 -21.715 142.552 -23.9602 143.278 -25.8751ZM208.255 -32.5445C209.444 -33.8652 210.962 -34.9217 212.679 -35.45C212.745 -33.7991 212.811 -32.2143 212.679 -30.5635C212.283 -29.0447 210.83 -28.1203 209.642 -27.2618C209.048 -26.9317 208.255 -26.1393 207.661 -26.8656C207.463 -28.7806 207.199 -30.8937 208.255 -32.5445ZM129.279 -35.516C130.996 -34.8556 132.581 -33.7991 133.704 -32.4124C134.628 -30.5635 134.166 -28.5165 134.166 -26.5355C132.317 -26.9977 130.666 -28.1203 129.543 -29.639C128.751 -31.488 129.147 -33.601 129.279 -35.516ZM183.295 -38.0913C184.285 -39.0818 186.002 -38.4875 186.068 -37.1008C186.134 -33.6671 186.266 -30.2333 186.002 -26.8656C185.342 -22.9697 181.644 -21.0547 178.738 -18.8756C177.352 -18.0172 175.172 -15.5079 173.786 -17.621C173.257 -20.3944 173.654 -23.3659 173.522 -26.2053C173.39 -29.1768 174.908 -32.0823 177.286 -33.7991C179.333 -35.1858 181.248 -36.7706 183.295 -38.0913ZM156.617 -38.4214C157.74 -39.0818 158.862 -37.8271 159.787 -37.2989C162.824 -34.7896 167.116 -32.9407 168.041 -28.7146C168.503 -25.545 168.173 -22.2433 168.239 -19.0077C168.437 -17.8191 167.513 -16.4324 166.126 -16.8286C163.749 -18.1492 161.768 -19.9982 159.523 -21.5169C157.079 -23.1017 155.627 -25.8751 155.627 -28.7806C155.627 -31.1578 155.627 -33.535 155.627 -35.9782C155.759 -36.7706 155.693 -38.0252 156.617 -38.4214ZM196.831 -46.6756C197.69 -47.3359 199.341 -48.4585 199.869 -46.8077C200.133 -44.0343 200.067 -41.2609 199.935 -38.4875C199.605 -35.648 197.095 -33.9312 194.916 -32.4124C193.464 -31.4879 192.011 -29.639 190.03 -30.4314C189.964 -33.4689 189.634 -36.5725 190.162 -39.61C190.888 -43.1098 194.388 -44.6286 196.831 -46.6756ZM142.354 -47.534C143.741 -47.9302 144.797 -46.6756 145.854 -46.0153C148.099 -44.2324 151.07 -42.7136 151.665 -39.6761C152.061 -36.9027 151.929 -34.1293 151.797 -31.3559C151.665 -29.7051 149.75 -30.0352 148.957 -30.8937C146.118 -33.1388 142.024 -34.9877 141.826 -39.0818C141.958 -41.8552 141.165 -44.9587 142.354 -47.534ZM212.283 -56.3825C213.076 -57.1089 214.198 -56.1844 214 -55.2599C213.934 -52.4205 214.726 -48.7887 212.151 -46.7416C210.434 -45.553 208.915 -43.7701 206.802 -43.506C205.878 -45.3549 206.406 -47.534 206.34 -49.515C206.34 -52.9488 209.84 -54.6656 212.283 -56.3825ZM128.025 -56.7127C130.204 -56.4485 131.789 -54.7317 133.505 -53.5431C136.543 -51.0998 135.288 -46.7416 135.222 -43.44C133.043 -43.7701 131.458 -45.487 129.742 -46.6756C126.77 -49.1188 128.091 -53.411 128.025 -56.7127ZM175.503 -53.0808C178.804 -55.5241 181.908 -58.2975 185.606 -60.2124C186.398 -59.6181 187.455 -59.0238 187.323 -57.9013C187.455 -54.6656 187.323 -51.43 187.389 -48.1944C187.521 -44.5625 185.408 -41.1288 182.37 -39.1478C179.795 -37.4309 177.484 -35.1858 174.644 -33.7991C172.663 -33.4029 172.135 -35.648 172.267 -37.1668C172.465 -42.5155 171.012 -48.9868 175.503 -53.0808ZM155.362 -59.5521C156.353 -60.4105 157.476 -59.5521 158.334 -59.0238C160.579 -57.439 162.758 -55.7222 165.003 -54.1374C167.975 -52.0903 169.692 -48.5245 169.56 -44.8927C169.494 -41.8552 169.692 -38.8176 169.494 -35.8461C169.56 -34.5255 168.239 -33.2709 166.918 -33.8652C165.201 -34.7236 163.815 -35.9782 162.296 -37.1008C159.853 -38.9497 156.947 -40.4685 155.627 -43.3739C153.844 -46.6096 154.57 -50.4395 154.372 -54.0053C154.504 -55.8542 153.91 -58.1654 155.362 -59.5521ZM198.68 -68.5986C199.869 -69.5231 201.52 -68.4005 201.322 -66.9478C201.124 -62.1934 202.576 -56.3165 198.548 -52.6846C195.973 -50.8357 193.596 -48.5906 190.756 -47.2039C188.643 -46.7416 188.775 -49.383 188.775 -50.7697C188.973 -54.7977 187.917 -59.5521 191.02 -62.7877C193.332 -64.9008 196.039 -66.7497 198.68 -68.5986ZM141.165 -68.5326L141.628 -68.9288C144.137 -68.7307 145.722 -66.4856 147.769 -65.297C150.41 -63.6461 152.853 -61.2029 153.051 -57.9673C153.183 -54.9298 153.183 -51.8262 153.051 -48.7887C153.117 -47.2699 151.202 -46.7416 150.146 -47.6661C147.637 -49.449 144.995 -51.2319 142.75 -53.2789C140.043 -56.0523 140.439 -60.1464 140.505 -63.7122C140.703 -65.2309 140.043 -67.2119 141.165 -68.5326ZM169.097 -72.8908C173.257 -74.1454 176.493 -70.6457 179.597 -68.5986C181.181 -67.278 183.625 -66.4195 184.021 -64.2404C184.219 -61.5991 181.314 -60.6086 179.597 -59.2219C176.757 -57.5051 174.248 -54.4675 170.616 -54.7977C167.248 -54.6656 165.003 -57.5711 162.296 -59.0898C160.711 -60.4105 158.004 -61.2689 157.806 -63.6461C157.542 -66.0233 160.051 -67.0138 161.636 -68.2024C164.145 -69.7212 166.258 -71.9663 169.097 -72.8908ZM212.943 -77.5792C214.132 -78.5697 215.519 -77.315 215.189 -75.9283C215.057 -72.1644 216.179 -67.4761 212.811 -64.7687C210.698 -63.2499 208.717 -61.335 206.274 -60.3445C206.076 -60.4765 205.614 -60.7407 205.416 -60.9388C204.755 -63.0518 205.152 -65.363 205.086 -67.5421C204.953 -69.9193 205.878 -72.3625 207.793 -73.8153C209.51 -75.1359 211.227 -76.3906 212.943 -77.5792ZM126.572 -75.268C126.44 -76.4566 126.836 -78.5697 128.487 -77.8433C131.657 -75.4001 136.477 -73.4191 136.609 -68.8628C136.411 -66.0233 137.335 -62.7877 135.751 -60.2124C133.175 -61.467 130.93 -63.316 128.685 -65.0989C125.846 -67.6081 126.704 -71.8343 126.572 -75.268ZM184.549 -82.1355C188.115 -83.3901 190.954 -80.5507 193.596 -78.7678C195.048 -77.6452 197.294 -76.7868 197.426 -74.6737C197.029 -72.6267 194.916 -71.9003 193.464 -70.7117C191.219 -69.259 189.105 -66.9478 186.2 -67.0799C183.229 -67.2119 181.115 -69.6552 178.738 -71.1079C177.484 -72.0984 175.569 -72.8248 175.437 -74.6737C175.371 -76.3906 177.087 -77.249 178.21 -78.1074C180.323 -79.4281 182.238 -81.145 184.549 -82.1355ZM153.514 -82.1355C157.74 -83.5882 160.843 -79.6922 164.079 -77.7773C165.73 -76.9188 167.381 -74.8058 165.796 -73.1549C163.683 -71.306 161.305 -69.9193 159.06 -68.2685C157.013 -66.6837 153.976 -66.6837 151.995 -68.2024C149.816 -69.7212 147.637 -71.1739 145.524 -72.7587C144.005 -73.7492 144.335 -76.1264 145.788 -76.9849C148.297 -78.7017 150.74 -80.6827 153.514 -82.1355ZM199.935 -91.3801C203.303 -92.8328 206.076 -89.7293 208.651 -88.0784C209.906 -87.4181 211.491 -85.7012 210.104 -84.3146C208.057 -82.5977 205.878 -81.0129 203.567 -79.7583C199.935 -78.5036 197.228 -81.8713 194.454 -83.5222C193.133 -84.1164 192.473 -86.0974 193.794 -87.0879C195.775 -88.6067 197.822 -90.1255 199.935 -91.3801ZM168.965 -91.3141C172.663 -92.8989 175.569 -89.267 178.474 -87.5502C180.059 -86.7578 180.125 -84.4466 178.474 -83.6542C175.701 -82.0034 173.059 -78.6357 169.428 -79.6262C167.116 -80.7488 165.135 -82.3996 163.088 -83.8523C161.9 -84.5126 161.768 -86.2955 162.824 -87.0879C164.805 -88.6067 166.852 -90.0594 168.965 -91.3141ZM137.93 -91.3141C139.647 -92.1725 141.76 -91.7103 143.278 -90.5217C145.127 -89.135 147.306 -88.0784 148.759 -86.2295C149.221 -84.3806 147.24 -83.4561 146.052 -82.5317C143.807 -81.0129 141.429 -78.6357 138.392 -79.6262C136.147 -80.7488 134.166 -82.3336 132.119 -83.8523C130.798 -84.5787 130.93 -86.5597 132.119 -87.286C134.034 -88.7388 135.949 -90.1255 137.93 -91.3141ZM185.21 -100.823C187.719 -101.747 189.766 -99.3701 191.681 -98.1815C192.803 -97.5872 193.662 -95.9364 192.275 -95.144C190.228 -93.8233 188.247 -91.4461 185.606 -91.8423C183.427 -92.8328 181.38 -94.2195 179.729 -96.0024C180.191 -98.5117 183.295 -99.5022 185.21 -100.823ZM154.174 -100.823C156.815 -101.813 158.994 -99.2381 161.041 -97.9834C162.428 -97.3231 162.296 -95.4081 160.909 -94.8138C158.73 -93.4271 156.221 -90.5877 153.514 -92.3706C151.929 -93.6252 149.419 -94.4176 148.759 -96.5307C149.882 -98.5777 152.259 -99.5682 154.174 -100.823ZM169.89 -110.2H171.937C173.059 -109.209 175.767 -108.483 175.172 -106.7C173.786 -105.511 172.135 -103.86 170.22 -104.323C168.767 -105.049 167.05 -105.907 166.456 -107.492C167.381 -108.615 168.635 -109.407 169.89 -110.2Z" fill="#BF3783"/>
<path fill-rule="evenodd" clip-rule="evenodd" d="M267.223 44.9125H269.006L269.666 46.0351L270.392 44.9125H272.043L270.723 46.8275L272.175 48.9406H270.392L269.666 47.686L268.808 48.9406H267.157L268.61 46.8275L267.223 44.9125ZM265.044 44.9125H266.563V48.8745H265.044V44.9125ZM262.138 47.9501H262.667C262.799 47.9501 262.865 47.9501 262.997 47.884C263.063 47.818 263.129 47.752 263.129 47.6199C263.129 47.3558 262.997 47.2898 262.733 47.2898H262.204V47.9501H262.138ZM262.138 46.3653H262.865C264.053 46.3653 264.648 46.7615 264.648 47.6199C264.648 48.4783 264.053 48.8745 262.931 48.8745H260.686V44.9125H262.204V46.3653H262.138ZM259.629 48.9406H258.11V47.4218H256.724V48.9406H255.205V44.9786H256.724V46.3653H258.11V44.9786H259.629V48.9406ZM254.148 48.9406H252.63V47.4218H251.243V48.9406H249.724V44.9786H251.243V46.3653H252.63V44.9786H254.148V48.9406ZM245.894 46.9596C245.894 47.2898 245.96 47.5539 246.092 47.752C246.224 47.9501 246.422 48.0161 246.62 48.0161C246.819 48.0161 247.017 47.9501 247.149 47.752C247.281 47.5539 247.347 47.2898 247.347 46.9596C247.347 46.6294 247.281 46.3653 247.149 46.1672C247.017 45.9691 246.819 45.903 246.62 45.903C246.422 45.903 246.224 45.9691 246.092 46.1672C245.96 46.2993 245.894 46.5634 245.894 46.9596ZM244.375 46.9596C244.375 46.3653 244.573 45.837 244.97 45.4408C245.366 45.0446 245.894 44.8465 246.62 44.8465C247.413 44.8465 248.007 45.0446 248.403 45.5069C248.734 45.9031 248.866 46.3653 248.866 46.8935C248.866 47.4878 248.667 48.0161 248.271 48.4123C247.875 48.8085 247.281 49.0066 246.62 49.0066C245.96 49.0066 245.432 48.8745 245.102 48.5444C244.573 48.0821 244.375 47.5539 244.375 46.9596ZM243.583 48.9406H242.13V46.9596L240.611 48.9406H239.159V44.9786H240.611V46.9596L242.13 44.9786H243.583V48.9406ZM238.63 50.0631H237.574V48.9406H233.876V44.9786H235.395V47.818H236.583V44.9786H238.102V47.818H238.696V50.0631H238.63ZM231.433 47.0256C231.235 47.0917 231.037 47.1577 230.772 47.2237C230.442 47.2897 230.244 47.4218 230.178 47.4879C230.112 47.5539 230.046 47.6859 230.046 47.752C230.046 47.884 230.112 47.9501 230.178 48.0821C230.244 48.1482 230.376 48.2142 230.574 48.2142C230.772 48.2142 230.905 48.1482 231.037 48.0821C231.169 48.0161 231.301 47.884 231.367 47.752C231.433 47.6199 231.433 47.4879 231.433 47.2898V47.0256ZM230.112 46.2332L228.659 46.1012C228.725 45.837 228.791 45.6389 228.924 45.5069C229.056 45.3748 229.188 45.2427 229.386 45.1107C229.518 45.0446 229.716 44.9786 229.98 44.9125C230.244 44.8465 230.508 44.8465 230.772 44.8465C231.235 44.8465 231.565 44.8465 231.895 44.9125C232.159 44.9786 232.423 45.0446 232.555 45.2427C232.687 45.3748 232.82 45.5069 232.886 45.705C232.952 45.9031 233.018 46.1012 233.018 46.2993V48.0821C233.018 48.2802 233.018 48.4123 233.084 48.5444C233.084 48.6764 233.15 48.8085 233.216 48.9406H231.763C231.697 48.8085 231.697 48.7425 231.631 48.7425C231.631 48.6764 231.631 48.6104 231.565 48.4784C231.367 48.6765 231.169 48.8085 230.971 48.8745C230.706 49.0066 230.376 49.0726 230.046 49.0726C229.584 49.0726 229.188 48.9406 228.99 48.7425C228.725 48.5444 228.593 48.2802 228.593 47.9501C228.593 47.6199 228.659 47.4218 228.858 47.2237C229.056 47.0256 229.386 46.8935 229.848 46.7615C230.442 46.6294 230.772 46.5634 230.971 46.4974C231.169 46.4313 231.301 46.3653 231.499 46.2993C231.499 46.1012 231.433 45.9691 231.367 45.903C231.301 45.837 231.169 45.771 230.971 45.771C230.706 45.771 230.508 45.837 230.442 45.903C230.244 45.903 230.178 46.0351 230.112 46.2332ZM227.801 48.9406H226.546V46.4313L225.556 48.9406H224.631L223.575 46.4313V48.9406H222.254V44.9786H224.103L225.028 47.2898L225.886 44.9786H227.735V48.9406H227.801ZM218.688 46.9596C218.688 47.2898 218.754 47.4879 218.886 47.686C219.019 47.818 219.217 47.884 219.415 47.884C219.613 47.884 219.745 47.818 219.877 47.686C220.009 47.5539 220.075 47.2898 220.075 46.9596C220.075 46.6294 220.009 46.3653 219.877 46.2332C219.745 46.1011 219.613 45.9691 219.415 45.9691C219.217 45.9691 219.085 46.0351 218.953 46.2332C218.754 46.3653 218.688 46.5634 218.688 46.9596ZM217.17 50.3933V44.9125H218.622V45.5069C218.82 45.2427 219.019 45.1107 219.151 44.9786C219.349 44.8465 219.613 44.7805 219.877 44.7805C220.405 44.7805 220.801 44.9786 221.132 45.3748C221.396 45.771 221.594 46.2992 221.594 46.8935C221.594 47.5539 221.462 48.0821 221.132 48.4123C220.801 48.7425 220.405 48.9406 219.943 48.9406C219.745 48.9406 219.481 48.8746 219.283 48.8085C219.085 48.7425 218.886 48.6104 218.754 48.4784V50.3933H217.17ZM213.406 46.9596C213.406 47.2898 213.472 47.5539 213.604 47.752C213.736 47.9501 213.934 48.0161 214.132 48.0161C214.33 48.0161 214.528 47.9501 214.66 47.752C214.792 47.5539 214.858 47.2898 214.858 46.9596C214.858 46.6294 214.792 46.3653 214.66 46.1672C214.528 45.9691 214.33 45.903 214.132 45.903C213.934 45.903 213.736 45.9691 213.604 46.1672C213.472 46.2993 213.406 46.5634 213.406 46.9596ZM211.887 46.9596C211.887 46.3653 212.085 45.837 212.481 45.4408C212.877 45.0446 213.406 44.8465 214.132 44.8465C214.924 44.8465 215.519 45.0446 215.915 45.5069C216.245 45.9031 216.377 46.3653 216.377 46.8935C216.377 47.4878 216.179 48.0161 215.783 48.4123C215.387 48.8085 214.792 49.0066 214.132 49.0066C213.472 49.0066 212.943 48.8745 212.613 48.5444C212.085 48.0821 211.887 47.5539 211.887 46.9596ZM206.274 47.884C206.472 47.884 206.604 47.818 206.736 47.686C206.868 47.5539 206.934 47.2898 206.934 46.9596C206.934 46.6955 206.868 46.4974 206.736 46.2993C206.604 46.1012 206.472 46.0351 206.208 46.0351C206.01 46.0351 205.878 46.1012 205.746 46.2993C205.614 46.4313 205.614 46.6955 205.614 46.9596C205.614 47.5539 205.878 47.884 206.274 47.884ZM209.18 47.884C209.378 47.884 209.51 47.818 209.642 47.6199C209.774 47.4218 209.774 47.2237 209.774 46.9596C209.774 46.2993 209.576 45.9691 209.114 45.9691C208.915 45.9691 208.783 46.0351 208.651 46.1672C208.519 46.2993 208.453 46.5634 208.453 46.8935C208.453 47.1577 208.519 47.4218 208.651 47.5539C208.783 47.752 208.915 47.884 209.18 47.884ZM208.453 45.3088C208.783 44.9786 209.114 44.8465 209.642 44.8465C210.17 44.8465 210.566 45.0446 210.83 45.4408C211.161 45.837 211.293 46.3653 211.293 46.9596C211.293 47.5539 211.161 48.0821 210.83 48.4123C210.5 48.8085 210.104 48.9406 209.576 48.9406C209.114 48.9406 208.717 48.8085 208.387 48.4784V50.3933H206.868V48.4784C206.538 48.8085 206.142 48.9406 205.68 48.9406C205.152 48.9406 204.755 48.7425 204.491 48.3463C204.161 47.9501 204.029 47.4218 204.029 46.8275C204.029 46.2332 204.161 45.705 204.491 45.3748C204.821 45.0446 205.218 44.8465 205.746 44.8465C206.208 44.8465 206.604 45.0446 206.934 45.3748V43.4598H208.453V45.3088ZM203.303 48.9406H201.784V47.4218H200.397V48.9406H198.878V44.9786H200.397V46.3653H201.784V44.9786H203.303V48.9406ZM197.822 48.9406H196.369V46.9596L194.85 48.9406H193.398V44.9786H194.85V46.9596L196.369 44.9786H197.822V48.9406ZM188.907 43.3278C188.907 43.6579 188.775 43.9881 188.511 44.1862C188.247 44.3843 187.983 44.4503 187.653 44.4503C187.257 44.4503 186.926 44.3183 186.728 44.1202C186.53 43.9221 186.398 43.6579 186.332 43.2617H186.992C187.058 43.5259 187.257 43.6579 187.587 43.6579C187.785 43.6579 187.917 43.6579 188.049 43.5919C188.181 43.5259 188.247 43.4598 188.247 43.2617H188.907V43.3278ZM189.898 48.9406H188.445V46.9596L186.926 48.9406H185.474V44.9786H186.926V46.9596L188.445 44.9786H189.898V48.9406ZM184.483 48.9406H183.03V46.9596L181.512 48.9406H180.059V44.9786H181.512V46.9596L183.03 44.9786H184.483V48.9406ZM179.531 50.0631H178.474V48.9406H174.71V44.9786H176.229V47.818H177.418V44.9786H178.936V47.818H179.531V50.0631ZM172.333 47.0256C172.135 47.0917 171.871 47.1577 171.673 47.2237C171.343 47.2897 171.144 47.4218 171.078 47.4879C171.012 47.5539 170.946 47.6859 170.946 47.752C170.946 47.884 171.012 47.9501 171.078 48.0821C171.144 48.1482 171.277 48.2142 171.475 48.2142C171.673 48.2142 171.805 48.1482 171.937 48.0821C172.069 48.0161 172.201 47.884 172.267 47.752C172.333 47.6199 172.333 47.4879 172.333 47.2898V47.0256ZM171.078 46.2332L169.626 46.1012C169.692 45.837 169.758 45.6389 169.89 45.5069C170.022 45.3748 170.154 45.2427 170.352 45.1107C170.484 45.0446 170.682 44.9786 170.946 44.9125C171.21 44.8465 171.475 44.8465 171.739 44.8465C172.201 44.8465 172.531 44.8465 172.861 44.9125C173.125 44.9786 173.39 45.0446 173.522 45.2427C173.654 45.3748 173.786 45.5069 173.852 45.705C173.918 45.9031 173.984 46.1012 173.984 46.2993V48.0821C173.984 48.2802 173.984 48.4123 174.05 48.5444C174.05 48.6764 174.116 48.8085 174.182 48.9406H172.729C172.663 48.8085 172.597 48.7425 172.597 48.7425C172.597 48.6764 172.597 48.6104 172.531 48.4784C172.333 48.6765 172.135 48.8085 171.937 48.8745C171.673 49.0066 171.343 49.0726 171.012 49.0726C170.55 49.0726 170.154 48.9406 169.956 48.7425C169.692 48.5444 169.56 48.2802 169.56 47.9501C169.56 47.6199 169.626 47.4218 169.824 47.2237C170.022 47.0256 170.352 46.8935 170.814 46.7615C171.409 46.6294 171.739 46.5634 171.937 46.4974C172.135 46.4313 172.267 46.3653 172.465 46.2993C172.465 46.1012 172.399 45.9691 172.333 45.903C172.267 45.837 172.135 45.771 171.937 45.771C171.673 45.771 171.475 45.837 171.409 45.903C171.21 45.903 171.078 46.0351 171.078 46.2332ZM168.107 46.8275C168.371 46.8936 168.503 47.0256 168.701 47.1577C168.833 47.2898 168.899 47.4879 168.899 47.686C168.899 48.0822 168.701 48.4123 168.305 48.6104C167.909 48.8085 167.315 48.9406 166.588 48.9406C165.928 48.9406 165.466 48.8085 165.069 48.6104C164.739 48.3463 164.409 48.0161 164.277 47.5539L165.73 47.4218C165.796 47.5539 165.862 47.686 166.06 47.818C166.192 47.9501 166.39 47.9501 166.588 47.9501C167.116 47.9501 167.381 47.818 167.381 47.5539C167.381 47.4878 167.315 47.4218 167.248 47.3558C167.182 47.2898 167.05 47.2898 166.852 47.2898H166.192V46.4974H166.852C166.984 46.4974 167.116 46.4973 167.248 46.4313C167.381 46.3653 167.381 46.2992 167.381 46.2332C167.381 46.1672 167.315 46.0351 167.182 45.9691C167.05 45.9031 166.852 45.903 166.654 45.903C166.456 45.903 166.258 45.9691 166.06 46.0351C165.928 46.1012 165.796 46.2332 165.73 46.3653L164.343 46.1672C164.475 45.705 164.739 45.3748 165.069 45.1767C165.466 44.9786 165.928 44.8465 166.588 44.8465C167.248 44.8465 167.777 44.9786 168.173 45.1767C168.569 45.3748 168.767 45.705 168.767 46.0351C168.767 46.3653 168.569 46.6955 168.107 46.8275ZM163.485 48.9406H162.032V46.9596L160.513 48.9406H159.06V44.9786H160.513V46.9596L162.032 44.9786H163.485V48.9406ZM158.07 48.9406H156.551V47.4218H155.164V48.9406H153.646V44.9786H155.164V46.3653H156.551V44.9786H158.07V48.9406ZM151.202 47.0256C151.004 47.0917 150.74 47.1577 150.542 47.2237C150.212 47.2897 150.014 47.4218 149.948 47.4879C149.882 47.5539 149.816 47.6859 149.816 47.752C149.816 47.884 149.882 47.9501 149.948 48.0821C150.014 48.1482 150.146 48.2142 150.344 48.2142C150.542 48.2142 150.674 48.1482 150.806 48.0821C150.938 48.0161 151.07 47.884 151.136 47.752C151.202 47.6199 151.202 47.4879 151.202 47.2898V47.0256ZM149.882 46.2332L148.429 46.1012C148.495 45.837 148.561 45.6389 148.693 45.5069C148.825 45.3748 148.957 45.2427 149.155 45.1107C149.287 45.0446 149.486 44.9786 149.75 44.9125C150.014 44.8465 150.278 44.8465 150.542 44.8465C151.004 44.8465 151.334 44.8465 151.665 44.9125C151.929 44.9786 152.193 45.0446 152.325 45.2427C152.457 45.3748 152.589 45.5069 152.655 45.705C152.721 45.9031 152.787 46.1012 152.787 46.2993V48.0821C152.787 48.2802 152.787 48.4123 152.853 48.5444C152.853 48.6764 152.919 48.8085 152.985 48.9406H151.533C151.467 48.8085 151.4 48.7425 151.4 48.7425C151.4 48.6764 151.401 48.6104 151.334 48.4784C151.136 48.6765 150.938 48.8085 150.74 48.8745C150.476 49.0066 150.146 49.0726 149.816 49.0726C149.353 49.0726 148.957 48.9406 148.759 48.7425C148.495 48.5444 148.363 48.2802 148.363 47.9501C148.363 47.6199 148.429 47.4218 148.627 47.2237C148.825 47.0256 149.155 46.8935 149.618 46.7615C150.212 46.6294 150.542 46.5634 150.74 46.4974C150.938 46.4313 151.07 46.3653 151.268 46.2993C151.268 46.1012 151.202 45.9691 151.136 45.903C151.07 45.837 150.938 45.771 150.74 45.771C150.476 45.771 150.278 45.837 150.212 45.903C150.014 45.903 149.948 46.0351 149.882 46.2332ZM147.835 46.0351H146.118V48.8745H144.599V44.9125H147.835V46.0351ZM141.033 46.9596C141.033 47.2898 141.099 47.4879 141.231 47.686C141.363 47.818 141.562 47.884 141.76 47.884C141.958 47.884 142.09 47.818 142.222 47.686C142.354 47.5539 142.42 47.2898 142.42 46.9596C142.42 46.6294 142.354 46.3653 142.222 46.2332C142.09 46.1011 141.958 45.9691 141.76 45.9691C141.562 45.9691 141.429 46.0351 141.297 46.2332C141.099 46.3653 141.033 46.5634 141.033 46.9596ZM139.515 50.3933V44.9125H140.967V45.5069C141.165 45.2427 141.363 45.1107 141.496 44.9786C141.694 44.8465 141.958 44.7805 142.222 44.7805C142.75 44.7805 143.146 44.9786 143.477 45.3748C143.741 45.771 143.939 46.2992 143.939 46.8935C143.939 47.5539 143.807 48.0821 143.477 48.4123C143.146 48.7425 142.75 48.9406 142.288 48.9406C142.09 48.9406 141.826 48.8746 141.628 48.8085C141.429 48.7425 141.231 48.6104 141.099 48.4784V50.3933H139.515ZM135.685 46.9596C135.685 47.2898 135.751 47.5539 135.883 47.752C136.015 47.9501 136.213 48.0161 136.411 48.0161C136.609 48.0161 136.807 47.9501 136.939 47.752C137.071 47.5539 137.137 47.2898 137.137 46.9596C137.137 46.6294 137.071 46.3653 136.939 46.1672C136.807 45.9691 136.609 45.903 136.411 45.903C136.213 45.903 136.015 45.9691 135.883 46.1672C135.817 46.2993 135.685 46.5634 135.685 46.9596ZM134.166 46.9596C134.166 46.3653 134.364 45.837 134.76 45.4408C135.156 45.0446 135.751 44.8465 136.411 44.8465C137.203 44.8465 137.798 45.0446 138.194 45.5069C138.524 45.9031 138.656 46.3653 138.656 46.8935C138.656 47.4878 138.458 48.0161 138.062 48.4123C137.666 48.8085 137.071 49.0066 136.411 49.0066C135.751 49.0066 135.222 48.8745 134.892 48.5444C134.43 48.0821 134.166 47.5539 134.166 46.9596ZM129.345 46.4313V45.837H128.883C128.685 45.837 128.553 45.837 128.487 45.903C128.421 45.9691 128.421 46.0351 128.421 46.1012C128.421 46.2993 128.619 46.4313 128.949 46.4313H129.345ZM130.93 48.9406H129.411V47.4218H129.345C129.213 47.4218 129.147 47.4218 129.081 47.4879C129.015 47.5539 128.949 47.6199 128.883 47.752L128.289 48.9406H126.572L127.166 47.752C127.364 47.4218 127.562 47.2237 127.827 47.2237C127.496 47.1577 127.232 47.0256 127.1 46.8275C126.902 46.6294 126.836 46.3653 126.836 46.1012C126.836 45.837 126.902 45.6389 127.034 45.4408C127.166 45.2427 127.364 45.1107 127.562 45.0446C127.827 44.9786 128.091 44.9786 128.487 44.9786H130.798V48.9406H130.93ZM126.044 48.9406H124.591V46.9596L123.072 48.9406H121.62V44.9786H123.072V46.9596L124.591 44.9786H126.044V48.9406ZM121.091 50.0631H120.035V48.9406H116.337V44.9786H117.856V47.818H119.044V44.9786H120.563V47.818H121.157V50.0631H121.091ZM113.96 47.0256C113.762 47.0917 113.563 47.1577 113.299 47.2237C112.969 47.2897 112.771 47.4218 112.705 47.4879C112.639 47.5539 112.573 47.6859 112.573 47.752C112.573 47.884 112.639 47.9501 112.705 48.0821C112.771 48.1482 112.903 48.2142 113.101 48.2142C113.299 48.2142 113.431 48.1482 113.563 48.0821C113.696 48.0161 113.828 47.884 113.894 47.752C113.96 47.6199 113.96 47.4879 113.96 47.2898V47.0256ZM112.639 46.2332L111.186 46.1012C111.252 45.837 111.318 45.6389 111.45 45.5069C111.582 45.3748 111.715 45.2427 111.913 45.1107C112.045 45.0446 112.243 44.9786 112.507 44.9125C112.771 44.8465 113.035 44.8465 113.299 44.8465C113.762 44.8465 114.092 44.8465 114.422 44.9125C114.686 44.9786 114.95 45.0446 115.082 45.2427C115.214 45.3748 115.346 45.5069 115.412 45.705C115.478 45.9031 115.544 46.1012 115.544 46.2993V48.0821C115.544 48.2802 115.544 48.4123 115.61 48.5444C115.61 48.6764 115.677 48.8085 115.743 48.9406H114.29C114.224 48.8085 114.224 48.7425 114.158 48.7425C114.158 48.6764 114.158 48.6104 114.092 48.4784C113.894 48.6765 113.696 48.8085 113.497 48.8745C113.233 49.0066 112.903 49.0726 112.573 49.0726C112.111 49.0726 111.715 48.9406 111.516 48.7425C111.252 48.5444 111.12 48.2802 111.12 47.9501C111.12 47.6199 111.186 47.4218 111.384 47.2237C111.582 47.0256 111.913 46.8935 112.375 46.7615C112.969 46.6294 113.299 46.5634 113.497 46.4974C113.696 46.4313 113.828 46.3653 114.026 46.2993C114.026 46.1012 113.96 45.9691 113.894 45.903C113.828 45.837 113.696 45.771 113.497 45.771C113.233 45.771 113.035 45.837 112.969 45.903C112.771 45.903 112.705 46.0351 112.639 46.2332ZM110.262 48.9406H108.809V46.9596L107.29 48.9406H105.838V44.9786H107.356V46.9596L108.875 44.9786H110.328V48.9406H110.262ZM105.309 50.0631H104.253V48.9406H100.555V44.9786H102.074V47.818H103.262V44.9786H104.715V47.818H105.309V50.0631ZM96.791 46.9596C96.791 47.2898 96.857 47.5539 96.9891 47.752C97.1212 47.9501 97.3193 48.0161 97.5174 48.0161C97.7155 48.0161 97.9136 47.9501 98.0456 47.752C98.1777 47.5539 98.2437 47.2898 98.2437 46.9596C98.2437 46.6294 98.1777 46.3653 98.0456 46.1672C97.9136 45.9691 97.7155 45.903 97.5174 45.903C97.3193 45.903 97.1212 45.9691 96.9891 46.1672C96.857 46.2993 96.791 46.5634 96.791 46.9596ZM95.2722 46.9596C95.2722 46.3653 95.4703 45.837 95.8665 45.4408C96.2627 45.0446 96.791 44.8465 97.5174 44.8465C98.3098 44.8465 98.9041 45.0446 99.3003 45.5069C99.6304 45.9031 99.7625 46.3653 99.7625 46.8935C99.7625 47.4878 99.5644 48.0161 99.1682 48.4123C98.772 48.8085 98.1777 49.0066 97.5174 49.0066C96.857 49.0066 96.3288 48.8745 95.9986 48.5444C95.4703 48.0821 95.2722 47.5539 95.2722 46.9596ZM93.2912 47.3558L94.744 47.4879C94.6779 47.818 94.5459 48.0821 94.3478 48.2802C94.1497 48.4783 93.9516 48.6765 93.6214 48.8085C93.3573 48.9406 92.9611 49.0066 92.5649 49.0066C92.1687 49.0066 91.7725 48.9406 91.5083 48.8745C91.2442 48.8085 90.9801 48.6765 90.782 48.4784C90.5839 48.2803 90.4518 48.0821 90.3197 47.884C90.1877 47.6199 90.1216 47.3558 90.1216 46.9596C90.1216 46.5634 90.1877 46.2332 90.3197 45.903C90.4518 45.7049 90.5839 45.5069 90.7159 45.3748C90.914 45.2427 91.0461 45.1107 91.2442 45.0446C91.5083 44.9126 91.9045 44.8465 92.3668 44.8465C93.0271 44.8465 93.4893 44.9786 93.8195 45.1767C94.1497 45.4408 94.4138 45.771 94.5459 46.1672L93.0931 46.3653C93.0271 46.1672 92.9611 46.0351 92.829 45.9691C92.6969 45.9031 92.5649 45.837 92.3668 45.837C92.1026 45.837 91.9045 45.9031 91.7725 46.1012C91.6404 46.2993 91.5083 46.5634 91.5083 46.9596C91.5083 47.2898 91.5744 47.5539 91.7064 47.686C91.8385 47.8841 92.0366 47.9501 92.3007 47.9501C92.4988 47.9501 92.6969 47.8841 92.829 47.818C93.0931 47.752 93.2252 47.5539 93.2912 47.3558ZM88.2067 47.3558L89.6594 47.4879C89.5934 47.818 89.4613 48.0821 89.2632 48.2802C89.0651 48.4783 88.867 48.6765 88.5368 48.8085C88.2727 48.9406 87.8765 49.0066 87.4803 49.0066C87.0841 49.0066 86.6879 48.9406 86.4238 48.8745C86.1596 48.8085 85.8955 48.6765 85.6974 48.4784C85.4993 48.2803 85.3672 48.0821 85.2352 47.884C85.1031 47.6199 85.0371 47.3558 85.0371 46.9596C85.0371 46.5634 85.1031 46.2332 85.2352 45.903C85.3672 45.7049 85.4993 45.5069 85.6314 45.3748C85.8295 45.2427 85.9615 45.1107 86.1596 45.0446C86.4238 44.9126 86.82 44.8465 87.2822 44.8465C87.9425 44.8465 88.4048 44.9786 88.7349 45.1767C89.0651 45.4408 89.3292 45.771 89.4613 46.1672L88.0086 46.3653C87.9425 46.1672 87.8765 46.0351 87.7444 45.9691C87.6124 45.9031 87.4803 45.837 87.2822 45.837C87.0181 45.837 86.82 45.9031 86.6879 46.1012C86.5558 46.2993 86.4238 46.5634 86.4238 46.9596C86.4238 47.2898 86.4898 47.5539 86.6219 47.686C86.7539 47.8841 86.952 47.9501 87.2162 47.9501C87.4143 47.9501 87.6124 47.8841 87.7444 47.818C88.0086 47.752 88.1406 47.5539 88.2067 47.3558ZM82.3958 46.8275L81.8015 44.8465L81.2072 46.8275H82.3958ZM82.7259 48.0161H80.811L80.5468 48.9406H78.83L80.877 43.4598H82.7259L84.7729 48.9406H82.9901L82.7259 48.0161Z" fill="#BF3783"/>
<path fill-rule="evenodd" clip-rule="evenodd" d="M247.941 52.6384C247.941 52.9686 247.809 53.2987 247.545 53.4968C247.281 53.6949 247.017 53.761 246.686 53.761C246.29 53.761 245.96 53.6289 245.762 53.4308C245.564 53.2327 245.432 52.9686 245.366 52.5724H246.026C246.092 52.8365 246.29 52.9686 246.686 52.9686C246.885 52.9686 247.017 52.9686 247.149 52.9026C247.281 52.8365 247.347 52.7705 247.347 52.5724H247.941V52.6384ZM248.866 58.1852H247.413V56.2042L245.894 58.1852H244.441V54.2232H245.894V56.2042L247.413 54.2232H248.866V58.1852ZM243.451 58.1852H242.064V56.2042L240.545 58.1852H239.093V54.2232H240.545V56.2042L242.064 54.2232H243.517V58.1852H243.451ZM238.432 55.3458H236.715V58.1852H235.197V54.2232H238.432V55.3458ZM231.367 56.2042C231.367 56.5344 231.433 56.7985 231.565 56.9966C231.697 57.1947 231.895 57.2608 232.093 57.2608C232.291 57.2608 232.489 57.1947 232.621 56.9966C232.753 56.7985 232.819 56.5344 232.819 56.2042C232.819 55.8741 232.753 55.6099 232.621 55.4118C232.489 55.2137 232.291 55.1477 232.093 55.1477C231.895 55.1477 231.697 55.2137 231.565 55.4118C231.433 55.6099 231.367 55.8741 231.367 56.2042ZM229.848 56.2042C229.848 55.6099 230.046 55.0816 230.442 54.6854C230.838 54.2893 231.433 54.0912 232.093 54.0912C232.886 54.0912 233.48 54.2893 233.876 54.7515C234.206 55.1477 234.338 55.6099 234.338 56.1382C234.338 56.7325 234.14 57.2607 233.744 57.6569C233.348 58.0531 232.753 58.2513 232.093 58.2513C231.433 58.2513 230.905 58.1192 230.574 57.789C230.112 57.3928 229.848 56.8645 229.848 56.2042ZM229.122 58.1852H227.603V55.3458H226.414V56.9966C226.414 57.4588 226.348 57.789 226.15 57.9871C225.952 58.1852 225.688 58.3173 225.292 58.3173C224.896 58.3173 224.499 58.2512 224.169 58.1852V57.0627C224.367 57.1287 224.499 57.1287 224.565 57.1287C224.763 57.1287 224.895 56.9966 224.895 56.6664V54.2232H229.122V58.1852ZM220.801 56.2042C220.801 56.5344 220.867 56.7985 221 56.9966C221.132 57.1947 221.33 57.2608 221.528 57.2608C221.726 57.2608 221.924 57.1947 222.056 56.9966C222.188 56.7985 222.254 56.5344 222.254 56.2042C222.254 55.8741 222.188 55.6099 222.056 55.4118C221.924 55.2137 221.726 55.1477 221.528 55.1477C221.33 55.1477 221.132 55.2137 221 55.4118C220.867 55.6099 220.801 55.8741 220.801 56.2042ZM219.283 56.2042C219.283 55.6099 219.481 55.0816 219.877 54.6854C220.273 54.2893 220.801 54.0912 221.528 54.0912C222.32 54.0912 222.915 54.2893 223.311 54.7515C223.641 55.1477 223.773 55.6099 223.773 56.1382C223.773 56.7325 223.575 57.2607 223.179 57.6569C222.782 58.0531 222.188 58.2513 221.528 58.2513C220.867 58.2513 220.339 58.1192 220.009 57.789C219.481 57.3928 219.283 56.8645 219.283 56.2042ZM218.49 58.1852H216.972V56.6664H215.585V58.1852H214.066V54.2232H215.585V55.6099H216.972V54.2232H218.49V58.1852ZM208.519 54.2232H210.302L210.962 55.3458L211.689 54.2232H213.34L212.019 56.1382L213.472 58.2513H211.689L210.962 56.9966L210.104 58.2513H208.453L209.906 56.1382L208.519 54.2232ZM206.67 55.8741C206.67 55.5439 206.538 55.3458 206.406 55.2137C206.274 55.0817 206.076 55.0156 205.878 55.0156C205.614 55.0156 205.416 55.1477 205.284 55.2798C205.218 55.4118 205.152 55.6099 205.086 55.808H206.67V55.8741ZM208.189 56.6004H205.152C205.152 56.8646 205.218 57.0626 205.35 57.1287C205.482 57.3268 205.68 57.3928 205.944 57.3928C206.076 57.3928 206.274 57.3268 206.34 57.2608C206.406 57.1947 206.538 57.1287 206.604 56.9966L208.123 57.1287C207.925 57.5249 207.595 57.789 207.265 57.9871C206.934 58.1852 206.472 58.2513 205.878 58.2513C205.35 58.2513 204.953 58.1852 204.623 58.0532C204.293 57.9211 204.095 57.6569 203.897 57.3268C203.699 56.9966 203.567 56.6004 203.567 56.2042C203.567 55.6099 203.765 55.0816 204.161 54.6854C204.557 54.2893 205.086 54.0912 205.812 54.0912C206.406 54.0912 206.802 54.1572 207.133 54.3553C207.463 54.5534 207.727 54.7515 207.859 55.0817C208.057 55.4118 208.123 55.808 208.123 56.3363V56.6004H208.189ZM203.237 55.3458H202.114V58.1852H200.595V55.3458H199.473V54.2232H203.171V55.3458H203.237ZM191.879 54.2232H193.662L194.322 55.3458L195.048 54.2232H196.699L195.379 56.1382L196.831 58.2513H195.048L194.322 56.9966L193.464 58.2513H191.813L193.266 56.1382L191.879 54.2232ZM189.7 54.2232H191.219V58.1852H189.7V54.2232ZM186.86 57.2608H187.389C187.521 57.2608 187.587 57.2607 187.719 57.1947C187.785 57.1287 187.851 57.0627 187.851 56.9306C187.851 56.6665 187.719 56.6004 187.455 56.6004H186.926V57.2608H186.86ZM186.86 55.6759H187.587C188.775 55.6759 189.37 56.0722 189.37 56.9306C189.37 57.789 188.775 58.1852 187.653 58.1852H185.276V54.2232H186.794V55.6759H186.86ZM184.285 58.1852H182.766V56.6664H181.38V58.1852H179.861V54.2232H181.38V55.6099H182.766V54.2232H184.285V58.1852ZM178.804 58.1852H177.286V56.6664H175.899V58.1852H174.38V54.2232H175.899V55.6099H177.286V54.2232H178.804V58.1852ZM170.55 56.2042C170.55 56.5344 170.616 56.7985 170.748 56.9966C170.88 57.1947 171.078 57.2608 171.276 57.2608C171.475 57.2608 171.673 57.1947 171.805 56.9966C171.937 56.7985 172.003 56.5344 172.003 56.2042C172.003 55.8741 171.937 55.6099 171.805 55.4118C171.673 55.2137 171.475 55.1477 171.276 55.1477C171.078 55.1477 170.88 55.2137 170.748 55.4118C170.616 55.6099 170.55 55.8741 170.55 56.2042ZM169.031 56.2042C169.031 55.6099 169.229 55.0816 169.626 54.6854C170.022 54.2893 170.616 54.0912 171.276 54.0912C172.069 54.0912 172.663 54.2893 173.059 54.7515C173.39 55.1477 173.522 55.6099 173.522 56.1382C173.522 56.7325 173.324 57.2607 172.927 57.6569C172.531 58.0531 171.937 58.2513 171.276 58.2513C170.616 58.2513 170.088 58.1192 169.758 57.789C169.295 57.3928 169.031 56.8645 169.031 56.2042ZM168.239 58.1852H166.786V56.2042L165.267 58.1852H163.815V54.2232H165.267V56.2042L166.786 54.2232H168.239V58.1852ZM163.286 59.3078H162.23V58.1852H158.532V54.2232H160.051V57.0627H161.239V54.2232H162.758V57.0627H163.353V59.3078H163.286ZM156.155 56.3363C155.957 56.4023 155.759 56.4683 155.495 56.5344C155.164 56.6004 154.966 56.7325 154.9 56.7985C154.834 56.8645 154.768 56.9966 154.768 57.0627C154.768 57.1947 154.834 57.2608 154.9 57.3928C154.966 57.4589 155.098 57.5249 155.296 57.5249C155.495 57.5249 155.627 57.4589 155.759 57.3928C155.891 57.3268 156.023 57.1947 156.089 57.0627C156.155 56.9306 156.155 56.7985 156.155 56.6004V56.3363ZM154.834 55.5439L153.381 55.4118C153.448 55.1477 153.514 54.9496 153.646 54.8175C153.778 54.6854 153.91 54.5534 154.108 54.4213C154.24 54.3553 154.438 54.2893 154.702 54.2232C154.966 54.1572 155.23 54.1572 155.495 54.1572C155.957 54.1572 156.287 54.1572 156.617 54.2232C156.881 54.2893 157.145 54.3553 157.277 54.5534C157.41 54.6855 157.542 54.8175 157.608 55.0156C157.674 55.2137 157.74 55.4118 157.74 55.6099V57.3928C157.74 57.5909 157.74 57.723 157.806 57.855C157.806 57.9871 157.872 58.1192 157.938 58.2513H156.485C156.419 58.1192 156.353 58.0532 156.353 58.0532C156.353 57.9871 156.353 57.9211 156.287 57.789C156.089 57.9871 155.891 58.1192 155.693 58.1852C155.429 58.3173 155.098 58.3833 154.768 58.3833C154.306 58.3833 153.91 58.2512 153.712 58.0532C153.448 57.8551 153.315 57.5909 153.315 57.2608C153.315 56.9306 153.381 56.7325 153.58 56.5344C153.778 56.3363 154.108 56.2042 154.57 56.0722C155.164 55.9401 155.495 55.874 155.693 55.808C155.891 55.742 156.023 55.676 156.221 55.6099C156.221 55.4118 156.155 55.2798 156.089 55.2137C156.023 55.1477 155.891 55.0817 155.693 55.0817C155.429 55.0817 155.23 55.1477 155.164 55.2137C154.966 55.2137 154.9 55.3458 154.834 55.5439ZM152.919 58.1852H151.202L150.608 57.0627C150.542 56.8646 150.41 56.7985 150.344 56.7325C150.278 56.6665 150.146 56.6664 150.014 56.6664V58.1852H148.495V54.2232H150.014V55.6759C150.146 55.6759 150.212 55.6099 150.278 55.5439C150.344 55.4779 150.41 55.3458 150.542 55.0817C150.674 54.8175 150.74 54.6855 150.872 54.5534C150.938 54.4213 151.07 54.3553 151.202 54.2893C151.334 54.2232 151.533 54.2232 151.731 54.1572C151.929 54.1572 152.259 54.1572 152.655 54.1572V55.2137H152.589C152.391 55.2137 152.259 55.2137 152.127 55.2137C151.995 55.2137 151.929 55.2797 151.863 55.3458C151.797 55.4118 151.731 55.4778 151.665 55.6759C151.599 55.808 151.533 55.9401 151.467 56.0061C151.4 56.0721 151.334 56.1382 151.202 56.1382C151.4 56.1382 151.599 56.2042 151.665 56.2703C151.797 56.3363 151.929 56.6004 152.193 56.9306L152.919 58.1852ZM147.505 58.1852H146.052V56.2042L144.533 58.1852H143.08V54.2232H144.533V56.2042L146.052 54.2232H147.505V58.1852ZM142.156 58.1852H140.637V56.6664H139.25V58.1852H137.732V54.2232H139.25V55.6099H140.637V54.2232H142.156V58.1852ZM132.515 54.2232H134.1L134.892 56.8645L135.619 54.2232H137.137L135.552 58.4493C135.354 58.9116 135.156 59.2417 135.024 59.4398C134.76 59.704 134.364 59.77 133.836 59.77C133.638 59.77 133.307 59.77 132.845 59.704L132.713 58.6474C132.911 58.7135 133.175 58.7795 133.439 58.7795C133.638 58.7795 133.77 58.7135 133.902 58.6474C134.034 58.5814 134.1 58.4493 134.166 58.1852L132.515 54.2232ZM131.987 58.1852H130.732V55.6759L129.808 58.1852H128.883L127.827 55.6759V58.1852H126.506V54.2232H128.355L129.279 56.5344L130.138 54.2232H131.987V58.1852ZM125.515 58.1852H124.261V55.6759L123.336 58.1852H122.412L121.355 55.6759V58.1852H120.101V54.2232H121.884L122.808 56.5344L123.667 54.2232H125.515V58.1852ZM116.205 56.2042C116.205 56.5344 116.271 56.7985 116.403 56.9966C116.535 57.1947 116.733 57.2608 116.931 57.2608C117.129 57.2608 117.327 57.1947 117.459 56.9966C117.591 56.7985 117.657 56.5344 117.657 56.2042C117.657 55.8741 117.591 55.6099 117.459 55.4118C117.327 55.2137 117.129 55.1477 116.931 55.1477C116.733 55.1477 116.535 55.2137 116.403 55.4118C116.271 55.6099 116.205 55.8741 116.205 56.2042ZM114.686 56.2042C114.686 55.6099 114.884 55.0816 115.28 54.6854C115.676 54.2893 116.205 54.0912 116.931 54.0912C117.724 54.0912 118.318 54.2893 118.714 54.7515C119.044 55.1477 119.176 55.6099 119.176 56.1382C119.176 56.7325 118.978 57.2607 118.582 57.6569C118.186 58.0531 117.591 58.2513 116.931 58.2513C116.271 58.2513 115.743 58.1192 115.412 57.789C114.95 57.3928 114.686 56.8645 114.686 56.2042ZM114.422 58.1852H112.705L112.111 57.0627C112.045 56.8646 111.913 56.7985 111.847 56.7325C111.781 56.6665 111.648 56.6664 111.516 56.6664V58.1852H109.998V54.2232H111.516V55.6759C111.648 55.6759 111.714 55.6099 111.781 55.5439C111.847 55.4779 111.913 55.3458 112.045 55.0817C112.177 54.8175 112.243 54.6855 112.375 54.5534C112.441 54.4213 112.573 54.3553 112.705 54.2893C112.837 54.2232 113.035 54.2232 113.233 54.1572C113.431 54.1572 113.762 54.1572 114.158 54.1572V55.2137H114.092C113.894 55.2137 113.762 55.2137 113.629 55.2137C113.497 55.2137 113.431 55.2797 113.365 55.3458C113.299 55.4118 113.233 55.4778 113.167 55.6759C113.101 55.808 113.035 55.9401 112.969 56.0061C112.903 56.0721 112.837 56.1382 112.705 56.1382C112.903 56.1382 113.101 56.2042 113.167 56.2703C113.299 56.3363 113.431 56.6004 113.695 56.9306L114.422 58.1852ZM106.432 58.1852H104.979V56.2042L103.46 58.1852H102.074V54.2232H103.526V56.2042L105.045 54.2232H106.498V58.1852H106.432Z" fill="#BF3783"/>
</g>
<mask id="mask1" mask-type="alpha" maskUnits="userSpaceOnUse" x="0" y="0" width="74" height="73">
<rect width="73.4527" height="72.6366" fill="#BF3783"/>
</mask>
<g mask="url(#mask1)">
<path fill-rule="evenodd" clip-rule="evenodd" d="M62.6797 80.2266C63.659 80.2266 64.6792 80.2266 65.6586 80.2266C65.6586 81.8589 65.6586 83.4912 65.6586 85.1235C66.8828 83.532 67.903 81.8589 69.0456 80.2266C70.1065 80.2266 71.2083 80.2266 72.2693 80.2266C71.1267 81.9813 69.8617 83.6136 68.5967 85.2867C69.9025 87.3271 71.3716 89.245 72.6774 91.2854C71.5756 91.2854 70.433 91.2854 69.3312 91.2854C68.0662 89.4898 66.9644 87.6127 65.6586 85.858C65.6178 87.6535 65.6586 89.449 65.6586 91.2854C64.6792 91.2854 63.659 91.2854 62.6797 91.2854C62.6797 87.6127 62.6797 83.8993 62.6797 80.2266ZM23.9538 80.2266C24.9331 80.2266 25.8717 80.2266 26.8511 80.2266C26.8511 81.6549 26.8511 83.0423 26.8511 84.4706C28.0345 84.4706 29.2179 84.4706 30.3605 84.4706C30.3605 83.0831 30.3605 81.6549 30.3605 80.2674C31.3398 80.2674 32.2784 80.2674 33.2578 80.2674C33.2578 83.9401 33.2578 87.6535 33.2578 91.3262C32.2784 91.3262 31.299 91.3262 30.3605 91.3262C30.3605 89.7755 30.3605 88.184 30.3605 86.6334C29.1771 86.6334 27.9937 86.6334 26.8102 86.6334C26.8102 88.184 26.8102 89.7755 26.8102 91.3262C25.8309 91.3262 24.8515 91.3262 23.9129 91.3262C23.9946 87.6127 23.9538 83.8993 23.9538 80.2266ZM11.9973 80.2266C12.9767 80.2266 13.9152 80.2266 14.8946 80.2266C14.8946 82.7567 14.8946 85.2459 14.8538 87.776C16.1188 85.2867 17.2206 82.7567 18.3632 80.2266C19.5466 80.2266 20.6892 80.2266 21.8726 80.2266C21.8726 83.9401 21.8726 87.6127 21.8726 91.3262C20.8932 91.3262 19.9139 91.3262 18.9753 91.3262C18.9753 88.7961 18.9753 86.2661 19.0569 83.6952C17.8735 86.2253 16.7309 88.7145 15.6291 91.2854C14.4457 91.3262 13.2215 91.3262 12.0381 91.3262C11.9973 87.6127 11.9973 83.8993 11.9973 80.2266ZM1.55068 80.2266C4.32556 80.2266 7.14125 80.2266 9.91613 80.2266C9.87532 83.9401 9.95693 87.6127 9.87532 91.3262C8.89595 91.3262 7.91658 91.2854 6.93721 91.2854C6.93721 88.3064 6.93721 85.2867 6.93721 82.3078C6.03946 82.3078 5.1417 82.3078 4.28475 82.3078C4.24394 84.7154 4.40717 87.2047 3.75426 89.5307C3.18296 91.4078 0.938572 91.6934 -0.69371 91.367C-0.69371 90.6324 -0.69371 89.8979 -0.69371 89.1226C-0.0407982 89.0002 0.979378 89.1226 1.14261 88.2248C1.6731 85.654 1.46906 82.9199 1.55068 80.2266ZM-9.54884 80.2266C-6.93719 80.2266 -4.32554 80.2266 -1.71389 80.2266C-1.71389 80.9204 -1.71389 81.6141 -1.71389 82.3078C-3.34617 82.3078 -4.93764 82.3078 -6.56993 82.3078C-6.56993 83.0831 -6.56993 83.8177 -6.56993 84.593C-5.06007 84.593 -3.55021 84.593 -2.04034 84.593C-2.04034 85.2867 -2.04034 85.9804 -2.04034 86.6742C-3.55021 86.6742 -5.06007 86.6742 -6.56993 86.6742C-6.56993 87.4903 -6.56993 88.3064 -6.56993 89.1634C-4.89684 89.1634 -3.26456 89.1634 -1.59147 89.1634C-1.59147 89.8571 -1.59147 90.5508 -1.59147 91.2854C-4.24393 91.3262 -6.89639 91.2854 -9.54884 91.2854C-9.54884 87.6127 -9.50804 83.8993 -9.54884 80.2266ZM-16.9757 86.5925C-16.9757 87.4495 -16.9757 88.3473 -16.9757 89.2042C-16.2004 89.1226 -15.3026 89.3266 -14.5681 88.9594C-13.7112 88.5105 -13.9152 87.0006 -14.8538 86.7558C-15.5475 86.5925 -16.282 86.6334 -16.9757 86.5925ZM-19.9955 80.2266C-17.3022 80.2266 -14.6497 80.2266 -11.9565 80.2266C-11.9565 80.9612 -11.9565 81.6957 -11.9565 82.4302C-13.6296 82.4302 -15.3026 82.4302 -16.9757 82.4302C-16.9757 83.1239 -16.9757 83.8177 -16.9757 84.5114C-15.4659 84.593 -13.7928 84.3482 -12.4461 85.1643C-11.1403 85.9804 -10.8955 87.6943 -11.2219 89.0818C-11.5892 90.4692 -13.0991 91.2037 -14.4049 91.2854C-16.282 91.367 -18.1183 91.2854 -19.9955 91.2854V80.2266ZM86.0213 80.2266C87.572 80.2266 89.1226 80.2266 90.6733 80.2266C91.5303 82.6343 92.1424 85.1235 93.0809 87.5311C93.8563 85.0827 94.7132 82.6751 95.4885 80.2266C96.9168 80.2266 98.345 80.2266 99.8141 80.2266C99.8141 83.9401 99.8549 87.6127 99.8141 91.3262C98.9163 91.3262 98.0186 91.3262 97.1208 91.3262C96.9984 88.7145 97.2432 86.062 97.1208 83.4504C95.9374 85.9804 95.3253 88.7145 94.3459 91.367C93.4074 91.367 92.4688 91.367 91.5303 91.3262C90.6733 88.8369 90.2244 86.1029 88.9594 83.8177C88.837 86.3477 89.041 88.8777 88.9594 91.367C87.98 91.367 87.0415 91.367 86.0621 91.367C86.0213 87.6127 86.0213 83.8993 86.0213 80.2266ZM77.9415 82.3894C76.0644 83.4096 76.1052 86.1029 76.7173 87.8576C77.2478 89.5307 79.8186 89.8571 80.7164 88.3473C81.5325 87.0006 81.4917 85.2459 81.0428 83.7769C80.6348 82.5118 79.1249 81.8589 77.9415 82.3894ZM77.2478 80.1858C79.2881 79.7778 81.7774 80.0634 83.2056 81.7773C84.5114 83.3688 84.5931 85.5724 84.2258 87.5311C83.9401 89.4082 82.4303 90.9997 80.5532 91.4078C78.676 91.6934 76.5133 91.6934 75.0034 90.3468C73.2079 88.7961 73.0039 86.1029 73.4527 83.8993C73.8608 82.0222 75.3707 80.4715 77.2478 80.1858ZM54.3958 82.471C52.7227 83.5728 52.7635 86.0621 53.294 87.776C53.7429 89.449 56.2321 89.9387 57.2931 88.5513C58.2725 87.1638 58.2317 85.2867 57.7012 83.736C57.2931 82.4302 55.5792 81.7365 54.3958 82.471ZM54.0286 80.145C55.9873 79.7778 58.3133 80.0634 59.7415 81.6549C61.0882 83.1239 61.1698 85.2459 60.9658 87.123C60.8025 88.6737 59.9048 90.1428 58.5173 90.8773C57.2115 91.6118 55.6608 91.5302 54.2326 91.4078C52.233 91.2446 50.56 89.5715 50.1927 87.6535C49.8254 85.8172 49.9071 83.7769 50.9272 82.1446C51.5801 81.0836 52.8044 80.3899 54.0286 80.145ZM38.0322 87.0006C38.3587 88.0208 39.5421 88.2248 40.4398 88.4289C40.4398 86.6742 40.4398 84.9603 40.4398 83.2056C38.3587 82.9199 37.1752 85.2867 38.0322 87.0006ZM43.2555 83.2464C43.2555 84.9603 43.2555 86.715 43.2555 88.4289C44.3573 88.3473 45.6223 87.8984 45.8263 86.6742C46.3976 84.9195 45.1326 83.0015 43.2555 83.2464ZM40.3582 79.5329C41.3376 79.5329 42.3169 79.5329 43.2963 79.5737C43.2963 80.1042 43.2555 80.6347 43.2555 81.1244C44.3573 81.1652 45.5407 81.1244 46.5201 81.6957C49.1317 82.9607 49.6214 86.919 47.7035 89.0002C46.5609 90.2244 44.8062 90.51 43.2147 90.5916C43.2147 90.9181 43.2555 91.571 43.2555 91.8975C42.2761 91.8975 41.256 91.8975 40.2766 91.8975C40.2766 91.571 40.3174 90.9181 40.3582 90.5916C39.0524 90.4692 37.6649 90.3468 36.5631 89.5715C33.9923 87.8168 34.1963 83.3688 36.8896 81.8181C37.9098 81.1652 39.134 81.1652 40.3174 81.1652C40.399 80.5939 40.3582 80.0634 40.3582 79.5329ZM44.4389 60.1088C45.1734 59.415 46.0712 60.3128 45.8671 61.1289C45.7855 63.3733 46.4384 66.1074 44.5613 67.8213C43.2963 68.8007 42.0313 69.8616 40.6438 70.637C39.7869 70.9226 39.5829 69.78 39.5829 69.1679C39.6237 67.046 39.1748 64.5567 40.7663 62.8428C41.9089 61.8227 43.1739 60.9657 44.4389 60.1088ZM28.8506 60.1088C29.4627 59.4558 30.2789 60.272 30.8093 60.6393C32.2784 61.8227 34.3188 62.7612 34.7268 64.8016C34.9309 66.6379 34.9717 68.515 34.686 70.3513C33.9515 71.1675 33.0945 70.2289 32.4416 69.8208C30.8502 68.6374 28.6874 67.454 28.6058 65.2096C28.6874 63.4957 28.3609 61.7002 28.8506 60.1088ZM50.968 56.2321C52.029 55.4568 53.0084 54.4366 54.355 54.1917C54.4774 56.2729 55.1304 59.007 53.2532 60.476C52.1922 61.2105 51.2537 62.2715 49.9071 62.4348C49.9071 60.3944 49.1317 57.7419 50.968 56.2321ZM20.1587 54.559C20.2811 54.4774 20.526 54.3142 20.6076 54.2325C22.1174 55.1711 24.0762 56.1097 24.6067 57.9868C24.7699 59.2926 24.7291 60.6392 24.6475 61.9451C24.3618 62.6796 23.5457 62.3123 23.1376 61.9451C21.8726 60.9657 20.1995 60.1088 19.9955 58.3949C19.9547 57.1298 19.7098 55.7424 20.1587 54.559ZM60.3129 50.4375C61.0474 49.6213 61.9859 48.9684 63.0469 48.642C63.0877 49.6621 63.1285 50.6415 63.0469 51.6617C62.8021 52.6003 61.9043 53.1716 61.1698 53.702C60.8025 53.9061 60.3129 54.3958 59.9456 53.9469C59.8232 52.7635 59.6599 51.4577 60.3129 50.4375ZM11.5076 48.6012C12.5686 49.0092 13.548 49.6621 14.2417 50.5191C14.813 51.6617 14.5273 52.9267 14.5273 54.1509C13.3847 53.8653 12.3645 53.1716 11.6708 52.233C11.1811 51.0904 11.426 49.7846 11.5076 48.6012ZM44.8878 47.0097C45.4999 46.3976 46.5609 46.7648 46.6017 47.6218C46.6425 49.7438 46.7241 51.8657 46.5609 53.9469C46.1528 56.3545 43.8676 57.5379 42.0721 58.8845C41.2151 59.415 39.8685 60.9657 39.0116 59.6599C38.6851 57.946 38.9299 56.1097 38.8483 54.355C38.7667 52.5186 39.7053 50.7231 41.1743 49.6621C42.4394 48.8052 43.6228 47.8258 44.8878 47.0097ZM28.4017 46.8056C29.0954 46.3976 29.7892 47.1729 30.3605 47.4994C32.2376 49.05 34.89 50.1926 35.4613 52.8043C35.747 54.763 35.543 56.8034 35.5838 58.8029C35.7062 59.5375 35.1349 60.3944 34.2779 60.1496C32.8089 59.3334 31.5847 58.1908 30.1972 57.2523C28.6874 56.2729 27.7896 54.559 27.7896 52.7635C27.7896 51.2944 27.7896 49.8254 27.7896 48.3155C27.8712 47.8258 27.8304 47.0505 28.4017 46.8056ZM53.2532 41.7048C53.7837 41.2967 54.8039 40.603 55.1304 41.6232C55.2936 43.3371 55.2528 45.0509 55.1712 46.7648C54.9671 48.5195 53.4165 49.5805 52.0698 50.5191C51.1721 51.0904 50.2743 52.233 49.0501 51.7433C49.0093 49.8662 48.8053 47.9482 49.1317 46.0711C49.5806 43.9083 51.7434 42.9698 53.2532 41.7048ZM19.5874 41.1743C20.4443 40.9294 21.0973 41.7048 21.7502 42.1128C23.1376 43.2146 24.9739 44.1532 25.3412 46.0303C25.586 47.7442 25.5044 49.4581 25.4228 51.172C25.3412 52.1922 24.1578 51.9881 23.6681 51.4577C21.9134 50.0702 19.3834 48.9276 19.2609 46.3976C19.3426 44.6837 18.8529 42.7658 19.5874 41.1743ZM62.8021 35.7061C63.2918 35.2572 63.9855 35.8285 63.8631 36.3998C63.8223 38.1545 64.3119 40.3989 62.7205 41.664C61.6595 42.3985 60.7209 43.5003 59.4151 43.6635C58.8438 42.5209 59.1702 41.1743 59.1294 39.9501C59.1294 37.8281 61.2922 36.7671 62.8021 35.7061ZM10.7323 35.5021C12.0789 35.6653 13.0583 36.7263 14.1193 37.4608C15.9964 38.9707 15.221 41.664 15.1802 43.7043C13.8336 43.5003 12.8542 42.4393 11.7933 41.7048C9.95693 40.1949 10.7731 37.5424 10.7323 35.5021ZM40.0725 37.7465C42.1129 36.2366 44.0308 34.5227 46.316 33.3393C46.8057 33.7066 47.4586 34.0738 47.377 34.7676C47.4586 36.7671 47.377 38.7667 47.4178 40.7662C47.4994 43.0106 46.1936 45.1326 44.3165 46.3568C42.725 47.4178 41.2968 48.8052 39.5421 49.6621C38.3178 49.907 37.9914 48.5195 38.073 47.581C38.1954 44.2756 37.2977 40.2765 40.0725 37.7465ZM27.6264 33.7474C28.2385 33.2169 28.9322 33.7474 29.4627 34.0738C30.8502 35.0532 32.1968 36.1142 33.5842 37.0936C35.4205 38.3586 36.4815 40.5622 36.3999 42.8066C36.3591 44.6837 36.4815 46.5608 36.3591 48.3971C36.3999 49.2133 35.5838 49.9886 34.7676 49.6213C33.7066 49.0908 32.8497 48.3155 31.9111 47.6218C30.4013 46.4792 28.6058 45.5406 27.7896 43.7451C26.6878 41.7456 27.1367 39.3788 27.0143 37.1752C27.0959 36.0326 26.7286 34.6043 27.6264 33.7474ZM54.3958 28.1568C55.1304 27.5855 56.1505 28.2792 56.0281 29.177C55.9057 32.1151 56.8034 35.7469 54.3142 37.9913C52.7227 39.1339 51.2537 40.5214 49.499 41.3783C48.1932 41.664 48.2748 40.0317 48.2748 39.1747C48.3972 36.6855 47.7443 33.7474 49.6622 31.7478C51.0905 30.442 52.7635 29.2994 54.3958 28.1568ZM18.8529 28.1976L19.1385 27.9528C20.6892 28.0752 21.6686 29.4626 22.9336 30.1972C24.5659 31.2174 26.0757 32.7272 26.1981 34.7268C26.2798 36.6039 26.2798 38.5218 26.1981 40.3989C26.239 41.3375 25.0555 41.664 24.4026 41.0927C22.852 39.9909 21.2197 38.8891 19.8322 37.6241C18.1592 35.9102 18.404 33.3801 18.4448 31.1765C18.5672 30.238 18.1592 29.0138 18.8529 28.1976ZM36.1143 25.5044C38.6851 24.729 40.6847 26.8918 42.6026 28.1568C43.582 28.973 45.0918 29.5035 45.3367 30.8501C45.4591 32.4824 43.6636 33.0945 42.6026 33.9514C40.8479 35.0124 39.2972 36.8895 37.0528 36.6855C34.9717 36.7671 33.5842 34.9716 31.9111 34.033C30.9318 33.2169 29.2587 32.6864 29.1363 31.2174C28.973 29.7483 30.5237 29.1362 31.5031 28.4017C33.0537 27.4631 34.3596 26.0757 36.1143 25.5044ZM63.2102 22.6071C63.9447 21.995 64.8016 22.7703 64.5976 23.6272C64.516 25.9532 65.2097 28.8505 63.1285 30.5236C61.8227 31.4622 60.5985 32.6456 59.0886 33.2577C58.9662 33.1761 58.6806 33.0129 58.5582 32.8904C58.1501 31.5846 58.3949 30.1564 58.3541 28.8097C58.2725 27.3407 58.8438 25.8308 60.0272 24.9331C61.0882 24.1169 62.1492 23.3416 63.2102 22.6071ZM9.83451 24.0353C9.7529 23.3008 9.99774 21.995 11.0179 22.4438C12.9767 23.9537 15.9556 25.1779 16.0372 27.9936C15.9148 29.7483 16.4861 31.7478 15.5067 33.3393C13.9152 32.564 12.5278 31.4214 11.1403 30.3196C9.38564 28.7689 9.91613 26.1573 9.83451 24.0353ZM45.6631 19.7914C47.8667 19.016 49.6214 20.7707 51.2537 21.8725C52.1514 22.5662 53.5389 23.0967 53.6205 24.4026C53.3756 25.6676 52.0698 26.1165 51.1721 26.851C49.7846 27.7487 48.4788 29.177 46.6833 29.0954C44.847 29.0138 43.5411 27.5039 42.0721 26.6062C41.2968 25.994 40.1134 25.5452 40.0317 24.4026C39.9909 23.3416 41.0519 22.8111 41.7456 22.2806C43.0515 21.4645 44.2349 20.4035 45.6631 19.7914ZM26.4838 19.7914C29.0954 18.8936 31.0134 21.3012 33.0129 22.4846C34.0331 23.0151 35.0533 24.321 34.0739 25.3411C32.7681 26.4837 31.299 27.3407 29.9116 28.3609C28.6466 29.3402 26.7694 29.3402 25.5452 28.4017C24.1986 27.4631 22.852 26.5653 21.5461 25.586C20.6076 24.9739 20.8116 23.5048 21.7094 22.9743C23.26 21.9133 24.7699 20.6891 26.4838 19.7914ZM55.1712 14.0784C57.2523 13.1806 58.9662 15.0986 60.5577 16.1187C61.333 16.5268 62.3124 17.5878 61.4555 18.4447C60.1904 19.5057 58.8438 20.4851 57.4156 21.2604C55.1712 22.0358 53.4981 19.9546 51.7842 18.9344C50.968 18.5672 50.56 17.3429 51.3761 16.7308C52.6003 15.7923 53.8653 14.8537 55.1712 14.0784ZM36.0326 14.1192C38.3178 13.1398 40.1134 15.3842 41.9089 16.4452C42.8882 16.9349 42.929 18.3631 41.9089 18.8528C40.195 19.873 38.5627 21.9541 36.3183 21.342C34.89 20.6483 33.6658 19.6281 32.4008 18.7304C31.6663 18.3223 31.5847 17.2205 32.2376 16.7308C33.4618 15.7923 34.7268 14.8945 36.0326 14.1192ZM16.8533 14.1192C17.9143 13.5887 19.2201 13.8743 20.1587 14.6089C21.3013 15.4658 22.6479 16.1187 23.5457 17.2613C23.8313 18.4039 22.6071 18.9752 21.8726 19.5465C20.4852 20.4851 19.0161 21.9541 17.139 21.342C15.7515 20.6483 14.5273 19.6689 13.2623 18.7304C12.4462 18.2815 12.5278 17.0573 13.2623 16.6084C14.4457 15.7107 15.6291 14.8537 16.8533 14.1192ZM46.0712 8.24297C47.6218 7.67167 48.8869 9.14072 50.0703 9.87525C50.764 10.2425 51.2945 11.2627 50.4375 11.7524C49.1725 12.5685 47.9483 14.0376 46.316 13.7927C44.9694 13.1806 43.7044 12.3237 42.6842 11.2219C42.9699 9.67122 44.8878 9.05911 46.0712 8.24297ZM26.8919 8.24297C28.5241 7.63086 29.8708 9.22234 31.1358 9.99767C31.9927 10.4057 31.9111 11.5891 31.0542 11.9564C29.7076 12.8134 28.1569 14.5681 26.4838 13.4663C25.5044 12.6909 23.9538 12.2013 23.5457 10.8954C24.2394 9.63041 25.7085 9.0183 26.8919 8.24297ZM36.6039 2.44836H37.869C38.5627 3.06047 40.2358 3.50935 39.8685 4.61114C39.0116 5.34567 37.9914 6.36584 36.808 6.08019C35.9102 5.63132 34.8492 5.10082 34.482 4.12145C35.0533 3.42773 35.8286 2.93805 36.6039 2.44836Z" fill="#BF3783"/>
</g>
</svg>
