<svg width="220" height="51" viewBox="0 0 220 51" fill="none" xmlns="http://www.w3.org/2000/svg">
<path fill-rule="evenodd" clip-rule="evenodd" d="M24.9747 25.4986C18.0761 27.3324 11.1775 27.1577 4.27887 25.062C3.75492 25.8479 3.40563 26.7211 3.05634 27.6817C2.70704 28.7296 2.53239 29.8648 2.53239 31C2.53239 34.231 3.92959 37.2 6.28733 39.3831C8.55776 41.5662 11.7887 42.8761 15.369 42.8761C18.862 42.8761 22.093 41.5662 24.4507 39.3831C26.7211 37.2 28.2057 34.3183 28.2057 31C28.2057 29.8648 28.031 28.7296 27.6817 27.6817C27.4197 26.7211 26.9831 25.8479 26.4592 25.062H26.3718H26.1972L26.0226 25.1493L25.7606 25.2366H25.6732L25.4113 25.3239H25.3239L24.9747 25.4986ZM15.2817 45.4958C14.4958 48.5521 11.7014 50.4732 8.55776 50.5606C8.47044 50.5606 8.47043 50.5606 8.47043 50.4732V50.3859C8.90705 47.2423 10.0423 44.9718 12.7493 44.0986C9.86761 43.5747 7.33522 42.2648 5.32677 40.431C2.70705 37.9859 1.13523 34.6676 1.13523 31C1.13523 29.6901 1.30986 28.4676 1.74648 27.2451C2.09577 26.1099 2.61973 25.062 3.231 24.0141L4.97748 15.0197C3.66762 14.8451 2.53239 14.2338 1.65915 13.3606C0.611262 12.3127 0 10.8282 0 9.25634C0 7.59719 0.698592 6.11268 1.74648 5.06479C2.79437 4.0169 4.27889 3.31831 5.93804 3.31831C6.98593 3.31831 7.94648 3.58028 8.73239 4.0169C9.08169 4.19155 9.34367 4.3662 9.69296 4.62817C9.95494 3.49296 10.4789 2.53239 11.2648 1.74648C12.3127 0.698592 13.7972 0 15.4563 0C17.1155 0 18.6 0.698592 19.6479 1.74648C20.4338 2.53239 20.9578 3.49296 21.2197 4.62817C21.4817 4.3662 21.831 4.19155 22.1803 4.0169C23.0535 3.58028 24.0141 3.31831 25.062 3.31831C26.7211 3.31831 28.2056 4.0169 29.2535 5.06479C30.3014 6.11268 31 7.59719 31 9.25634C31 10.8282 30.3014 12.3127 29.2535 13.4479C28.3803 14.3211 27.2451 14.9324 26.0226 15.107L27.769 24.1014C28.3803 25.062 28.9042 26.1972 29.2535 27.3324C29.6028 28.5549 29.8648 29.7775 29.8648 31.0873C29.8648 34.7549 28.293 38.0732 25.6732 40.5183C23.6648 42.3521 21.1324 43.662 18.2507 44.1859C20.9577 45.0592 22.093 47.3296 22.5296 50.4732C22.5296 50.5606 22.5296 50.5606 22.5296 50.5606L22.4423 50.6479C18.9493 50.4732 16.0676 48.5521 15.2817 45.4958ZM13.2733 27.769C13.9718 27.769 14.5831 28.3803 14.5831 29.0789C14.5831 29.7775 13.9718 30.3887 13.2733 30.3887C12.5747 30.3887 11.9634 29.7775 11.9634 29.0789C11.9634 28.3803 12.5747 27.769 13.2733 27.769ZM17.2902 27.769C17.9887 27.769 18.6 28.3803 18.6 29.0789C18.6 29.7775 17.9887 30.3887 17.2902 30.3887C16.5916 30.3887 15.9803 29.7775 15.9803 29.0789C15.9803 28.3803 16.5916 27.769 17.2902 27.769ZM15.2817 37.2873C14.1465 38.0732 8.47042 38.5972 7.33521 38.2479C7.24788 38.2479 7.2479 38.1606 7.2479 38.0732C7.77185 35.6282 10.7408 33.1831 13.0113 32.3972C13.0986 32.3972 13.1859 32.3972 13.1859 32.4845C13.1859 32.5718 13.1859 32.5718 13.1859 32.6592C12.8366 33.0958 12.5746 33.5324 12.5746 34.0563C12.5746 35.2789 14.3211 35.7155 15.2817 35.7155C16.2423 35.7155 17.9887 35.2789 17.9887 34.0563C17.9887 33.4451 17.7268 33.0084 17.3775 32.6592C17.2901 32.5718 17.2901 32.5718 17.3775 32.4845C17.3775 32.3972 17.4648 32.3972 17.5521 32.3972C19.8225 33.1831 22.7916 35.6282 23.3155 38.0732C23.3155 38.1606 23.3155 38.2479 23.2282 38.2479C22.0056 38.6845 16.5042 38.1606 15.2817 37.2873ZM14.5831 15.9803C14.5831 15.5437 14.9324 15.2817 15.2817 15.2817C15.7183 15.2817 15.9803 15.631 15.9803 15.9803V21.307C15.9803 21.7437 15.631 22.0056 15.2817 22.0056C14.8451 22.0056 14.5831 21.6563 14.5831 21.307V15.9803ZM10.1296 15.893C10.1296 15.4563 10.4789 15.1944 10.9155 15.1944C11.3521 15.1944 11.6141 15.5437 11.6141 15.9803L11.1775 21.2197C11.1775 21.6563 10.8282 21.9183 10.3915 21.9183C9.95492 21.9183 9.69296 21.569 9.69296 21.1324L10.1296 15.893ZM19.0366 16.0676C19.0366 15.631 19.2986 15.2817 19.7352 15.2817C20.1718 15.2817 20.5211 15.5437 20.5211 15.9803L20.9577 21.2197C20.9577 21.6563 20.6958 22.0056 20.2592 22.0056C19.8225 22.0056 19.4733 21.7437 19.4733 21.307L19.0366 16.0676ZM4.71549 23.7521C11.7887 25.8479 18.862 25.8479 25.8479 23.7521L24.1014 14.5831C24.0141 14.2338 24.2761 13.7972 24.7127 13.7099C24.8 13.7099 24.8 13.7099 24.8873 13.7099C26.1099 13.7099 27.1577 13.1859 27.9437 12.4C28.7296 11.6141 29.2535 10.4789 29.2535 9.25634C29.2535 8.0338 28.7296 6.89859 27.9437 6.11268C27.1577 5.32676 26.0225 4.80282 24.8 4.80282C24.0141 4.80282 23.3155 4.97747 22.7042 5.32676C22.0056 5.67606 21.4817 6.2 21.1324 6.81127C20.9578 7.16056 20.4338 7.24789 20.1718 7.07324C19.9099 6.89859 19.8225 6.63662 19.8225 6.37465V6.2V6.02535C19.8225 4.80282 19.2986 3.6676 18.5127 2.88169C17.7268 2.09577 16.5916 1.57183 15.369 1.57183C14.1465 1.57183 13.0113 2.09577 12.2254 2.88169C11.4394 3.6676 10.9155 4.80282 10.9155 6.02535V6.2V6.37465C10.9155 6.81127 10.6535 7.16056 10.2169 7.16056C9.95494 7.16056 9.60563 6.98592 9.5183 6.81127C9.08169 6.2 8.55775 5.67606 7.94648 5.32676C7.33522 4.97747 6.63663 4.80282 5.85072 4.80282C4.62818 4.80282 3.49296 5.32676 2.70705 6.11268C1.92113 6.89859 1.39719 8.0338 1.39719 9.25634C1.39719 10.4789 1.92113 11.6141 2.70705 12.4C3.49296 13.1859 4.62817 13.7099 5.76339 13.7099H5.85072C6.20001 13.7099 6.5493 14.0592 6.5493 14.4085V14.4958L4.71549 23.7521Z" fill="#C91216"/>
<path fill-rule="evenodd" clip-rule="evenodd" d="M197.237 42.0415H198.68V43.4851H197.237V42.0415ZM197.57 41.1532L197.126 36.4895V36.1563H198.68V36.4895L198.236 41.1532H197.57ZM191.573 40.2649H194.461C194.461 39.8207 194.238 39.4876 194.016 39.1545C193.794 38.9324 193.461 38.7103 193.017 38.7103C192.573 38.7103 192.351 38.8213 192.018 39.1545C191.796 39.4876 191.684 39.8207 191.573 40.2649ZM193.239 43.5961C192.462 43.5961 191.684 43.374 191.129 42.8188C190.574 42.2636 190.241 41.5974 190.241 40.709C190.241 39.9317 190.463 39.1545 191.018 38.5992C191.573 38.044 192.24 37.7109 193.017 37.7109C193.905 37.7109 194.572 38.044 195.016 38.5992C195.46 39.1545 195.682 39.9317 195.682 40.709C195.682 40.8201 195.682 41.0422 195.682 41.0422H191.573C191.684 41.4863 191.796 41.8194 192.129 42.0415C192.462 42.2636 192.795 42.3747 193.239 42.3747C193.794 42.3747 194.349 42.1526 194.794 41.7084L195.571 42.3747C195.016 43.263 194.238 43.5961 193.239 43.5961ZM187.243 43.5961C186.354 43.5961 185.688 43.263 185.133 42.7078C184.578 42.1526 184.245 41.4863 184.245 40.598C184.245 39.8207 184.578 39.1545 185.133 38.4882C185.688 37.933 186.354 37.5999 187.243 37.5999C188.131 37.5999 188.908 37.933 189.464 38.5992L188.686 39.4876C188.242 39.0434 187.798 38.8213 187.243 38.8213C186.799 38.8213 186.354 39.0434 186.132 39.3765C185.799 39.7097 185.688 40.1538 185.688 40.598C185.688 41.1532 185.799 41.4863 186.132 41.9305C186.466 42.2636 186.91 42.4857 187.354 42.4857C187.909 42.4857 188.353 42.2636 188.797 41.8194L189.575 42.5967C189.242 42.9299 188.908 43.1519 188.575 43.374C188.131 43.4851 187.687 43.5961 187.243 43.5961ZM179.47 40.1538H180.802C181.025 40.1538 181.247 40.0428 181.469 39.9317C181.58 39.8207 181.691 39.5986 181.691 39.3765C181.691 39.1544 181.58 39.0434 181.469 38.9324C181.358 38.8213 181.136 38.7103 180.802 38.7103H179.47V40.1538ZM179.47 42.4857H180.913C181.247 42.4857 181.469 42.3747 181.58 42.2636C181.802 42.1526 181.802 41.9305 181.802 41.7084C181.802 41.4863 181.691 41.3753 181.58 41.2642C181.358 41.1532 181.136 41.0422 180.802 41.0422H179.359V42.4857H179.47ZM178.248 43.4851V37.933H181.136C181.691 37.933 182.135 38.044 182.468 38.2661C182.801 38.4882 183.023 38.8213 183.023 39.2655C183.023 39.8207 182.69 40.2649 182.135 40.598C182.912 40.8201 183.356 41.2642 183.356 42.0415C183.356 42.4857 183.134 42.9299 182.801 43.1519C182.468 43.374 181.913 43.5961 181.247 43.5961H178.248V43.4851ZM169.476 40.2649H172.363C172.363 39.8207 172.141 39.4876 171.919 39.1545C171.697 38.9324 171.364 38.7103 170.92 38.7103C170.476 38.7103 170.142 38.8213 169.92 39.1545C169.698 39.4876 169.587 39.8207 169.476 40.2649ZM171.142 43.5961C170.253 43.5961 169.587 43.374 169.032 42.8188C168.477 42.2636 168.255 41.5974 168.255 40.709C168.255 39.9317 168.477 39.1545 169.032 38.5992C169.587 38.044 170.253 37.7109 171.031 37.7109C171.919 37.7109 172.585 38.044 173.03 38.5992C173.474 39.1545 173.696 39.9317 173.696 40.709C173.696 40.8201 173.696 41.0422 173.696 41.0422H169.587C169.698 41.4863 169.809 41.8194 170.142 42.0415C170.476 42.2636 170.809 42.3747 171.253 42.3747C171.808 42.3747 172.363 42.1526 172.807 41.7084L173.585 42.3747C172.918 43.263 172.141 43.5961 171.142 43.5961ZM160.815 43.4851V37.933H162.147L163.924 40.4869L165.701 37.933H167.033V43.4851H165.701V39.7097L163.924 42.2636L162.147 39.8207V43.4851H160.815ZM156.484 42.4857C156.929 42.4857 157.373 42.3747 157.595 42.0415C157.928 41.7084 158.039 41.2642 158.039 40.709C158.039 40.1538 157.928 39.7097 157.595 39.3765C157.262 39.0434 156.929 38.9324 156.484 38.9324C156.04 38.9324 155.596 39.1545 155.374 39.4876C155.041 39.8207 154.93 40.2649 154.93 40.8201C154.93 41.3753 155.041 41.8194 155.374 42.1526C155.707 42.2636 156.04 42.4857 156.484 42.4857ZM153.597 45.1507V37.822H154.93V38.7103C155.374 38.044 156.04 37.7109 156.817 37.7109C157.484 37.7109 158.15 37.933 158.705 38.4882C159.26 39.0434 159.482 39.7097 159.482 40.598C159.482 41.4863 159.26 42.1526 158.705 42.7078C158.15 43.263 157.595 43.4851 156.817 43.4851C156.04 43.4851 155.374 43.1519 154.93 42.4857V45.0396H153.597V45.1507ZM148.378 45.1507C147.934 45.1507 147.49 45.0396 147.046 44.8176L147.49 43.8182C147.712 43.9292 148.045 44.0403 148.267 44.0403C148.489 44.0403 148.6 44.0403 148.711 43.9292C148.823 43.8182 148.934 43.7072 149.045 43.374L146.713 37.822H148.045L149.6 41.9305L151.043 37.822H152.376L150.155 43.5961C149.933 44.1513 149.711 44.5955 149.378 44.8176C149.267 45.0396 148.822 45.1507 148.378 45.1507ZM144.381 41.4863V41.1532C144.048 41.0422 143.604 40.9311 143.048 40.9311C142.604 40.9311 142.271 41.0422 142.049 41.1532C141.827 41.2642 141.716 41.4863 141.716 41.8194C141.716 42.0415 141.827 42.2636 142.049 42.3747C142.271 42.4857 142.493 42.5967 142.826 42.5967C143.27 42.5967 143.604 42.4857 143.937 42.2636C144.27 42.0415 144.381 41.8194 144.381 41.4863ZM145.713 43.4851H144.381V42.8188C143.937 43.374 143.27 43.5961 142.493 43.5961C141.938 43.5961 141.494 43.4851 141.05 43.1519C140.605 42.8188 140.494 42.3747 140.494 41.8194C140.494 41.2642 140.716 40.709 141.161 40.4869C141.605 40.1538 142.16 40.0428 142.826 40.0428C143.381 40.0428 143.937 40.1538 144.381 40.2649V40.1538C144.381 39.8207 144.27 39.4876 144.048 39.2655C143.826 39.0434 143.493 38.9324 143.048 38.9324C142.493 38.9324 142.049 39.0434 141.383 39.2655L141.05 38.2661C141.716 37.933 142.493 37.822 143.159 37.822C143.937 37.822 144.603 38.044 145.047 38.4882C145.491 38.9324 145.713 39.4876 145.713 40.2649V43.4851ZM131.278 43.4851V37.933H132.61V42.3747H134.72V37.933H136.053V42.3747H138.163V37.933H139.495V43.4851H131.278ZM123.727 42.4857C124.282 42.4857 124.615 42.2636 124.949 41.9305C125.282 41.5974 125.393 41.1532 125.393 40.598C125.393 40.0428 125.282 39.7097 124.949 39.2655C124.615 38.9324 124.171 38.7103 123.727 38.7103C123.172 38.7103 122.839 38.9324 122.506 39.2655C122.173 39.5986 122.062 40.0428 122.062 40.598C122.062 41.0422 122.173 41.4863 122.506 41.8194C122.839 42.2636 123.172 42.4857 123.727 42.4857ZM123.727 43.5961C122.839 43.5961 122.173 43.263 121.617 42.7078C121.062 42.1526 120.729 41.4863 120.729 40.598C120.729 39.8207 121.062 39.0434 121.617 38.4882C122.173 37.933 122.95 37.5999 123.727 37.5999C124.615 37.5999 125.282 37.933 125.837 38.4882C126.392 39.0434 126.725 39.7097 126.725 40.598C126.725 41.3753 126.392 42.0415 125.837 42.7078C125.282 43.263 124.504 43.5961 123.727 43.5961ZM109.958 43.4851V37.933H111.291L113.067 40.4869L114.844 37.933H116.176V43.4851H114.844V39.7097L113.067 42.2636L111.291 39.8207V43.4851H109.958ZM104.517 40.2649H107.404C107.404 39.8207 107.182 39.4876 106.96 39.1545C106.738 38.9324 106.405 38.7103 105.961 38.7103C105.516 38.7103 105.183 38.8213 104.961 39.1545C104.739 39.4876 104.517 39.8207 104.517 40.2649ZM106.183 43.5961C105.294 43.5961 104.628 43.374 104.073 42.8188C103.518 42.2636 103.296 41.5974 103.296 40.709C103.296 39.9317 103.518 39.1545 104.073 38.5992C104.628 38.044 105.294 37.7109 106.072 37.7109C106.96 37.7109 107.626 38.044 108.07 38.5992C108.514 39.1545 108.737 39.9317 108.737 40.709C108.737 40.8201 108.737 41.0422 108.737 41.0422H104.628C104.739 41.4863 104.85 41.8194 105.183 42.0415C105.516 42.2636 105.849 42.3747 106.294 42.3747C106.849 42.3747 107.404 42.1526 107.848 41.7084L108.626 42.3747C107.848 43.263 107.071 43.5961 106.183 43.5961ZM100.742 41.4863V41.1532C100.408 41.0422 99.9643 40.9311 99.4091 40.9311C98.9649 40.9311 98.6318 41.0422 98.4097 41.1532C98.1876 41.2642 98.0766 41.4863 98.0766 41.8194C98.0766 42.0415 98.1876 42.2636 98.4097 42.3747C98.6318 42.4857 98.8539 42.5967 99.187 42.5967C99.6312 42.5967 99.9643 42.4857 100.297 42.2636C100.631 42.0415 100.742 41.8194 100.742 41.4863ZM101.963 43.4851H100.631V42.8188C100.186 43.374 99.5201 43.5961 98.7428 43.5961C98.1876 43.5961 97.7434 43.4851 97.2993 43.1519C96.8551 42.8188 96.7441 42.3747 96.7441 41.8194C96.7441 41.2642 96.9662 40.709 97.4103 40.4869C97.8545 40.1538 98.4097 40.0428 99.0759 40.0428C99.6312 40.0428 100.186 40.1538 100.631 40.2649V40.1538C100.631 39.8207 100.519 39.4876 100.297 39.2655C100.075 39.0434 99.7422 38.9324 99.298 38.9324C98.7428 38.9324 98.2987 39.0434 97.6324 39.2655L97.2993 38.2661C97.9655 37.933 98.7428 37.822 99.4091 37.822C100.186 37.822 100.853 38.044 101.297 38.4882C101.741 38.9324 101.963 39.4876 101.963 40.2649V43.4851ZM90.5257 43.4851V37.933H91.8583V40.1538H94.4122V37.933H95.7447V43.4851H94.4122V41.2642H91.8583V43.4851H90.5257ZM86.8614 43.5961C85.862 43.5961 85.0847 43.263 84.4185 42.7078L85.0847 41.8194C85.6399 42.2636 86.1951 42.4857 86.8614 42.4857C87.1945 42.4857 87.4166 42.3747 87.6387 42.2636C87.8608 42.1526 87.9718 41.9305 87.9718 41.7084C87.9718 41.4863 87.8608 41.3753 87.6387 41.1532C87.4166 41.0422 87.1945 40.9311 86.7503 40.9311H86.0841V40.0428H86.7503C87.0835 40.0428 87.3056 39.9317 87.5276 39.8207C87.7497 39.7097 87.7497 39.4876 87.7497 39.2655C87.7497 39.0434 87.6387 38.9324 87.5276 38.8213C87.3056 38.7103 87.0835 38.5992 86.8614 38.5992C86.1951 38.5992 85.6399 38.8213 85.3068 39.1545L84.7516 38.3772C85.4179 37.822 86.1952 37.5999 87.0835 37.5999C87.7497 37.5999 88.1939 37.7109 88.6381 38.044C89.0822 38.3772 89.1933 38.7103 89.1933 39.1545C89.1933 39.7097 88.8601 40.1538 88.3049 40.3759C88.9712 40.598 89.3043 41.0422 89.3043 41.7084C89.3043 42.1526 89.0822 42.5967 88.6381 42.9299C88.0829 43.4851 87.5276 43.5961 86.8614 43.5961ZM78.8664 37.822H80.1989V43.374H78.8664V37.822ZM74.5358 42.3747H75.6462C75.9793 42.3747 76.2014 42.2636 76.4235 42.1526C76.6456 42.0415 76.6456 41.8194 76.6456 41.4863C76.6456 41.2642 76.5345 41.0422 76.4235 40.9311C76.2014 40.8201 75.9793 40.709 75.6462 40.709H74.5358V42.3747ZM73.2033 43.4851V37.933H74.5358V39.9317H75.7572C76.4235 39.9317 76.9787 40.0428 77.4229 40.3759C77.867 40.709 78.0891 41.1532 78.0891 41.7084C78.0891 42.2636 77.867 42.7078 77.5339 43.0409C77.2008 43.374 76.6456 43.4851 75.9793 43.4851H73.2033ZM64.0979 43.4851V36.0453H65.5414L67.8733 39.5986L70.2052 36.0453H71.6487V43.4851H70.3162V38.1551L67.9843 41.7084L65.6525 38.2661V43.5961H64.0979V43.4851Z" fill="#C91216"/>
<path fill-rule="evenodd" clip-rule="evenodd" d="M212.671 22.9424C212.671 22.4982 212.56 21.943 212.56 21.4988C212.449 21.0547 212.338 20.6105 212.116 20.1664C211.894 19.8332 211.672 19.5001 211.339 19.278C211.006 19.0559 210.673 18.9449 210.339 18.9449C209.673 18.9449 209.229 19.278 208.674 19.9443C208.23 20.6105 208.008 21.4988 208.008 22.7203C208.008 23.3865 208.008 23.9418 208.119 24.3859C208.23 24.9411 208.341 25.3853 208.563 25.7184C208.785 26.1626 209.007 26.3847 209.34 26.6067C209.673 26.8288 210.006 26.9399 210.339 26.9399C211.006 26.9399 211.561 26.6068 212.005 25.8295C212.56 25.1632 212.671 24.2749 212.671 22.9424ZM200.235 30.9374V26.7178H201.567V10.7278H200.235V6.39722H208.119V15.8357C208.341 15.6137 208.563 15.3916 208.896 15.2805C209.229 15.0584 209.562 14.9474 210.006 14.8364C210.45 14.7253 210.784 14.6143 211.228 14.5032C211.672 14.3922 212.116 14.3922 212.449 14.3922C213.671 14.3922 214.781 14.6143 215.78 15.0584C216.669 15.5026 217.446 16.1689 218.112 16.9461C218.779 17.7234 219.223 18.6118 219.556 19.7222C219.889 20.7216 220 21.832 220 22.9424C220 24.1638 219.778 25.3853 219.445 26.3847C219.112 27.384 218.556 28.2724 217.89 29.0497C217.224 29.827 216.447 30.3822 215.558 30.7153C214.67 31.1595 213.56 31.2705 212.449 31.2705C211.783 31.2705 211.339 31.2705 210.895 31.1595C210.45 31.0484 210.117 30.9374 209.784 30.8263C209.451 30.7153 209.118 30.4932 208.896 30.3822C208.674 30.1601 208.452 30.049 208.23 29.827L207.785 30.9374H200.235ZM188.02 27.384C188.575 27.384 188.908 27.273 189.353 27.0509C189.686 26.8288 190.019 26.6068 190.13 26.3847V25.1632C190.13 25.1632 190.019 25.0522 190.019 24.9411C189.908 24.8301 189.797 24.719 189.686 24.608C189.575 24.497 189.353 24.3859 189.131 24.2749C188.908 24.1638 188.575 24.1638 188.242 24.1638C187.576 24.1638 187.132 24.2749 186.799 24.608C186.466 24.9411 186.354 25.3853 186.354 25.8295C186.354 26.2736 186.466 26.6068 186.799 26.9399C187.132 27.162 187.465 27.384 188.02 27.384ZM180.802 15.9468C181.136 15.7247 181.58 15.5026 182.024 15.2805C182.579 15.0584 183.134 14.7253 183.689 14.5032C184.356 14.2812 185.022 14.0591 185.688 13.837C186.354 13.726 187.132 13.6149 187.909 13.6149C188.908 13.6149 189.908 13.7259 190.907 13.948C191.907 14.1701 192.906 14.5032 193.794 15.0584C194.683 15.6137 195.349 16.2799 195.904 17.1682C196.459 18.0566 196.792 19.167 196.792 20.3884V26.7178H198.791V30.9374H191.796L191.018 29.4938C190.685 29.938 190.352 30.2711 190.019 30.4932C189.686 30.7153 189.242 30.9374 188.797 31.1595C188.353 31.2705 188.02 31.3815 187.576 31.4926C187.132 31.6036 186.799 31.6036 186.577 31.6036C185.799 31.6036 185.022 31.4926 184.245 31.2705C183.467 31.0484 182.801 30.7153 182.135 30.2711C181.58 29.827 181.024 29.2717 180.691 28.6055C180.358 27.9392 180.136 27.0509 180.136 26.1626C180.136 25.2743 180.358 24.3859 180.691 23.7197C181.024 22.9424 181.58 22.3872 182.135 21.832C182.801 21.2768 183.467 20.9436 184.356 20.6105C185.133 20.2774 186.021 20.1664 187.021 20.1664C187.465 20.1664 187.909 20.1664 188.353 20.2774C188.686 20.3884 189.019 20.4995 189.353 20.6105C189.686 20.7216 189.797 20.8326 190.019 21.0547C190.13 21.1657 190.241 21.2768 190.352 21.2768V20.1664C190.352 19.3891 190.019 18.9449 189.464 18.7228C188.908 18.5007 188.131 18.3897 187.243 18.3897C186.243 18.3897 185.355 18.5007 184.578 18.8339C183.801 19.167 183.023 19.5001 182.357 19.8332L180.802 15.9468ZM171.697 22.9424C171.697 22.4982 171.586 21.943 171.586 21.4988C171.475 21.0547 171.364 20.6105 171.142 20.1664C170.92 19.8332 170.698 19.5001 170.365 19.278C170.031 19.0559 169.698 18.9449 169.365 18.9449C168.699 18.9449 168.255 19.278 167.699 19.9443C167.255 20.6105 167.033 21.4988 167.033 22.7203C167.033 23.3865 167.144 23.9418 167.144 24.3859C167.255 24.9411 167.366 25.3853 167.588 25.7184C167.811 26.1626 168.033 26.3847 168.366 26.6067C168.699 26.8288 169.032 26.9399 169.365 26.9399C170.031 26.9399 170.587 26.6068 171.031 25.8295C171.475 25.1632 171.697 24.2749 171.697 22.9424ZM159.149 30.9374V26.7178H160.482V10.7278H159.149V6.39722H167.033V15.8357C167.255 15.6137 167.477 15.3916 167.811 15.2805C168.144 15.0584 168.477 14.9474 168.921 14.8364C169.365 14.7253 169.698 14.6143 170.142 14.5032C170.587 14.3922 171.031 14.3922 171.364 14.3922C172.585 14.3922 173.696 14.6143 174.695 15.0584C175.583 15.5026 176.361 16.1689 177.027 16.9461C177.693 17.7234 178.137 18.6118 178.471 19.7222C178.804 20.7216 178.915 21.832 178.915 22.9424C178.915 24.1638 178.693 25.3853 178.359 26.3847C178.026 27.384 177.471 28.2724 176.805 29.0497C176.139 29.827 175.361 30.3822 174.473 30.7153C173.585 31.1595 172.474 31.2705 171.364 31.2705C170.698 31.2705 170.142 31.2705 169.809 31.1595C169.365 31.0484 169.032 30.9374 168.699 30.8263C168.366 30.7153 168.033 30.4932 167.811 30.3822C167.588 30.1601 167.366 30.049 167.144 29.827L166.7 30.9374H159.149ZM149.6 18.6118C149.045 18.6118 148.711 18.7228 148.378 18.9449C148.045 19.167 147.823 19.3891 147.601 19.6111C147.379 19.8332 147.268 20.1663 147.157 20.4995C147.046 20.8326 147.046 21.0547 147.046 21.2768H151.932C151.932 20.9436 151.932 20.6105 151.821 20.3884C151.71 20.0553 151.599 19.8332 151.487 19.5001C151.376 19.278 151.043 19.0559 150.821 18.9449C150.488 18.6118 150.044 18.6118 149.6 18.6118ZM157.595 28.7165C156.373 29.7159 155.041 30.4932 153.708 30.9374C152.376 31.3815 150.821 31.6036 149.156 31.6036C148.156 31.6036 147.157 31.3815 146.046 31.0484C145.047 30.7153 144.048 30.1601 143.27 29.4938C142.493 28.8276 141.827 27.8282 141.272 26.7178C140.716 25.6074 140.494 24.2749 140.494 22.7203C140.494 21.3878 140.716 20.1664 141.161 19.167C141.605 18.0566 142.271 17.1682 143.048 16.502C143.826 15.7247 144.714 15.1695 145.824 14.8364C146.935 14.5032 148.045 14.2812 149.267 14.2812C150.599 14.2812 151.821 14.5032 152.82 14.8364C153.819 15.2805 154.708 15.7247 155.374 16.502C156.04 17.1682 156.595 18.0566 156.928 18.9449C157.262 19.9443 157.484 20.9436 157.484 22.0541C157.484 22.4982 157.484 22.9424 157.373 23.3866C157.262 23.8307 157.262 24.1638 157.04 24.608H146.713C146.713 24.8301 146.824 25.0522 146.935 25.3853C147.046 25.7184 147.157 25.9405 147.49 26.2736C147.712 26.6068 148.045 26.8288 148.489 26.9399C148.934 27.162 149.489 27.273 150.155 27.273C150.488 27.273 150.71 27.273 151.043 27.273C151.376 27.273 151.71 27.162 152.154 27.0509C152.598 26.9399 152.931 26.8288 153.375 26.6067C153.819 26.3847 154.264 26.1626 154.708 25.7184L157.595 28.7165ZM124.838 12.2824H123.061V17.6124L129.168 12.2824H126.836V8.06284H137.718V12.2824H135.831L131.056 16.3909L137.607 26.7178H139.495V30.9374H126.836V26.7178H129.057L125.504 21.1657L123.061 23.2755V26.7178H124.838V30.9374H114.622V26.7178H116.398V12.2824H114.622V8.06284H124.949V12.2824H124.838ZM95.3005 30.9374H85.1957V26.6067H86.5282V18.8339H85.1957V14.6143H92.1913L92.9686 16.613C93.5238 15.8357 94.1901 15.1695 94.9674 14.7253C95.7447 14.2812 96.633 13.948 97.6324 13.948C98.8538 13.948 99.9642 14.1701 100.742 14.6143C101.519 15.0584 102.074 15.6137 102.518 16.2799C102.962 16.9462 103.184 17.7234 103.407 18.6118C103.518 19.5001 103.629 20.2774 103.629 21.1657V26.6067H105.183V30.9374H96.8551V22.0541C96.8551 21.7209 96.8551 21.4988 96.8551 21.0547C96.8551 20.7216 96.744 20.3884 96.633 20.0553C96.5219 19.7222 96.2999 19.5001 96.0778 19.278C95.8557 19.0559 95.4115 18.9449 94.9674 18.9449C94.5232 18.9449 94.1901 19.0559 93.968 19.278C93.7459 19.5001 93.5238 19.7222 93.3017 19.9443C93.1907 20.2774 93.0797 20.6105 92.9686 20.9436C92.8576 21.2768 92.8576 21.6099 92.8576 22.0541V26.7178H95.1895V30.9374H95.3005ZM75.202 27.162C75.5351 27.162 75.8682 27.0509 76.0903 26.8288C76.3124 26.6068 76.6455 26.2736 76.7566 25.9405C76.9787 25.4963 77.0897 25.0522 77.2007 24.497C77.3118 23.9418 77.3118 23.3866 77.3118 22.8313C77.3118 22.1651 77.3118 21.6099 77.2007 21.1657C77.0897 20.6105 76.9787 20.1664 76.7566 19.7222C76.5345 19.278 76.3124 19.0559 75.9793 18.8339C75.6462 18.6118 75.313 18.5007 74.9799 18.5007C74.6468 18.5007 74.3137 18.6118 74.0916 18.8339C73.8695 19.0559 73.5364 19.3891 73.4253 19.7222C73.2033 20.1664 73.0922 20.6105 72.9812 21.0547C72.8701 21.6099 72.7591 22.1651 72.7591 22.7203C72.7591 24.0528 72.9812 25.1632 73.4253 25.9405C73.8695 26.8288 74.4247 27.162 75.202 27.162ZM75.202 31.3815C73.9806 31.3815 72.8701 31.1595 71.7597 30.8263C70.6493 30.4932 69.6499 29.938 68.8726 29.1607C67.9843 28.4945 67.3181 27.4951 66.8739 26.4957C66.3187 25.3853 66.0966 24.1638 66.0966 22.7203C66.0966 21.3878 66.3187 20.1664 66.8739 19.0559C67.4291 17.9455 68.0953 17.0572 68.8726 16.3909C69.761 15.7247 70.6493 15.1695 71.7597 14.7253C72.8701 14.3922 73.9805 14.1701 75.091 14.1701C76.4235 14.1701 77.5339 14.3922 78.6443 14.7253C79.7547 15.1695 80.7541 15.7247 81.5314 16.502C82.3087 17.2793 82.9749 18.1676 83.4191 19.278C83.8632 20.3884 84.0853 21.6099 84.0853 22.9424C84.0853 24.2749 83.8632 25.4963 83.4191 26.4957C82.9749 27.4951 82.3087 28.3834 81.5314 29.1607C80.7541 29.827 79.7547 30.3822 78.7553 30.8263C77.5339 31.1595 76.4235 31.3815 75.202 31.3815ZM57.8795 19.278C57.8795 18.3897 57.7685 17.6124 57.5464 16.7241C57.3243 15.9468 57.1022 15.1695 56.6581 14.5032C56.2139 13.837 55.7698 13.3928 55.1035 12.9487C54.4373 12.6155 53.771 12.3935 52.8827 12.3935H51.6612V26.6067H52.8827C53.771 26.6067 54.5483 26.3847 55.1035 26.0515C55.7698 25.6074 56.2139 25.1632 56.6581 24.497C57.1022 23.8307 57.3243 23.0534 57.5464 22.1651C57.7685 21.1657 57.8795 20.2774 57.8795 19.278ZM43 30.9374V26.6067H44.9987V12.3935H43V8.06284H52.9937C54.9925 8.06284 56.7691 8.39596 58.3237 8.95117C59.8783 9.50638 61.2108 10.2837 62.2102 11.283C63.2095 12.2824 64.0979 13.3928 64.6531 14.8364C65.2083 16.1689 65.5414 17.6124 65.5414 19.167C65.5414 22.9424 64.431 25.8295 62.3212 27.8282C60.2114 29.827 57.1023 30.9374 52.9937 30.9374H43Z" fill="#C91216"/>
<path fill-rule="evenodd" clip-rule="evenodd" d="M71.7598 8.39594C72.9812 8.39594 73.9806 9.39531 73.9806 10.6168C73.9806 11.8382 72.9812 12.8376 71.7598 12.8376C70.5383 12.8376 69.5389 11.8382 69.5389 10.6168C69.5389 9.39531 70.5383 8.39594 71.7598 8.39594Z" fill="#C91216"/>
<path fill-rule="evenodd" clip-rule="evenodd" d="M78.5333 8.39594C79.7548 8.39594 80.7542 9.39531 80.7542 10.6168C80.7542 11.8382 79.7548 12.8376 78.5333 12.8376C77.3119 12.8376 76.3125 11.8382 76.3125 10.6168C76.3125 9.39531 77.3119 8.39594 78.5333 8.39594Z" fill="#C91216"/>
<path fill-rule="evenodd" clip-rule="evenodd" d="M192.018 36.0453C192.351 36.0453 192.573 36.2674 192.573 36.6005C192.573 36.9336 192.351 37.1557 192.018 37.1557C191.684 37.1557 191.462 36.9336 191.462 36.6005C191.462 36.2674 191.684 36.0453 192.018 36.0453Z" fill="#C91216"/>
<path fill-rule="evenodd" clip-rule="evenodd" d="M194.016 36.0453C194.349 36.0453 194.571 36.2674 194.571 36.6005C194.571 36.9336 194.349 37.1557 194.016 37.1557C193.683 37.1557 193.461 36.9336 193.461 36.6005C193.461 36.2674 193.794 36.0453 194.016 36.0453Z" fill="#C91216"/>
</svg>
