<svg width="560" height="173" viewBox="0 0 560 173" fill="none" xmlns="http://www.w3.org/2000/svg">
<g filter="url(#filter0_f)">
<path d="M141.506 85.7528C141.506 87.159 141.179 88.4835 140.525 89.7262C139.904 90.9689 139.087 92.0807 138.073 93.0618C137.092 94.0102 135.947 94.7787 134.639 95.3673C133.331 95.9233 131.974 96.2012 130.568 96.2012H100.792V102.284C100.792 106.993 103.13 109.348 107.807 109.348H141.506V117H104.128C102.721 117 101.381 116.722 100.105 116.166C98.8298 115.577 97.6689 114.825 96.6224 113.91C95.5759 112.961 94.7257 111.849 94.0716 110.574C93.4503 109.299 93.1396 107.99 93.1396 106.65V79.3268C93.1396 77.9206 93.4503 76.5961 94.0716 75.3534C94.7257 74.1107 95.5759 73.0152 96.6224 72.0668C97.6689 71.0858 98.8298 70.3173 100.105 69.7613C101.381 69.1727 102.721 68.8784 104.128 68.8784H130.568C131.974 68.8784 133.331 69.1727 134.639 69.7613C135.947 70.3173 137.092 71.0858 138.073 72.0668C139.087 73.0152 139.904 74.1107 140.525 75.3534C141.179 76.5961 141.506 77.9206 141.506 79.3268V85.7528ZM127.821 88.5489C128.638 88.5489 129.407 88.4017 130.126 88.1074C130.878 87.7804 131.532 87.3389 132.088 86.7829C132.644 86.227 133.069 85.5893 133.364 84.8699C133.691 84.1504 133.854 83.3655 133.854 82.5153C133.854 81.6977 133.691 80.9292 133.364 80.2098C133.069 79.4576 132.644 78.8199 132.088 78.2967C131.532 77.7407 130.878 77.3156 130.126 77.0213C129.407 76.6942 128.638 76.5307 127.821 76.5307H107.807C103.13 76.5307 100.792 78.918 100.792 83.6926V88.5489H127.821ZM199.684 117H192.032V83.6926C192.032 78.918 189.644 76.5307 184.87 76.5307H165.984C161.308 76.5307 158.97 78.918 158.97 83.6926V117H151.317V79.3268C151.317 77.9206 151.628 76.5961 152.249 75.3534C152.903 74.1107 153.754 73.0152 154.8 72.0668C155.847 71.0858 157.007 70.3173 158.283 69.7613C159.558 69.1727 160.899 68.8784 162.305 68.8784H188.745C190.151 68.8784 191.492 69.1727 192.768 69.7613C194.043 70.3173 195.188 71.0858 196.201 72.0668C197.248 73.0152 198.082 74.1107 198.703 75.3534C199.357 76.5961 199.684 77.9206 199.684 79.3268V117ZM224.162 76.5307C219.485 76.5307 217.147 78.918 217.147 83.6926V102.284C217.147 106.993 219.485 109.348 224.162 109.348H243.048C247.822 109.348 250.209 106.993 250.209 102.284V83.6926C250.209 78.918 247.822 76.5307 243.048 76.5307H224.162ZM211.8 133.678V126.026H243.048C247.822 126.026 250.209 123.671 250.209 118.962V117H220.483C219.077 117 217.736 116.722 216.46 116.166C215.185 115.577 214.024 114.825 212.978 113.91C211.931 112.961 211.081 111.849 210.427 110.574C209.806 109.299 209.495 107.99 209.495 106.65V79.3268C209.495 77.9206 209.806 76.5961 210.427 75.3534C211.081 74.1107 211.931 73.0152 212.978 72.0668C214.024 71.0858 215.185 70.3173 216.46 69.7613C217.736 69.1727 219.077 68.8784 220.483 68.8784H246.923C248.329 68.8784 249.67 69.1727 250.945 69.7613C252.221 70.3173 253.365 71.0858 254.379 72.0668C255.425 73.0152 256.259 74.1107 256.881 75.3534C257.535 76.5961 257.862 77.9206 257.862 79.3268V123.328C257.862 124.669 257.535 125.977 256.881 127.252C256.259 128.528 255.425 129.623 254.379 130.539C253.365 131.487 252.221 132.239 250.945 132.795C249.67 133.384 248.329 133.678 246.923 133.678H211.8ZM267.673 106.601V52.8869H275.325V102.284C275.325 106.96 277.696 109.299 282.438 109.299H285.97V116.951H278.661C277.254 116.951 275.914 116.673 274.638 116.117C273.363 115.528 272.202 114.776 271.155 113.861C270.109 112.912 269.259 111.8 268.605 110.525C267.983 109.25 267.673 107.941 267.673 106.601ZM295.878 68.8784H303.629V117H295.878V68.8784ZM295.29 58.2828C295.29 57.6614 295.404 57.0728 295.633 56.5168C295.862 55.9609 296.173 55.4867 296.565 55.0943C296.99 54.6691 297.464 54.3421 297.988 54.1132C298.544 53.8843 299.132 53.7698 299.754 53.7698C300.375 53.7698 300.964 53.8843 301.52 54.1132C302.075 54.3421 302.55 54.6691 302.942 55.0943C303.367 55.4867 303.694 55.9609 303.923 56.5168C304.152 57.0728 304.267 57.6614 304.267 58.2828C304.267 58.9041 304.152 59.4928 303.923 60.0487C303.694 60.5719 303.367 61.0461 302.942 61.4713C302.55 61.8637 302.075 62.1744 301.52 62.4033C300.964 62.6322 300.375 62.7467 299.754 62.7467C298.511 62.7467 297.448 62.3215 296.565 61.4713C295.715 60.5883 295.29 59.5255 295.29 58.2828ZM352.879 88.5489C354.285 88.5489 355.626 88.8432 356.901 89.4318C358.177 89.9878 359.321 90.7399 360.335 91.6883C361.381 92.604 362.215 93.6995 362.837 94.9749C363.491 96.2503 363.818 97.5911 363.818 98.9973V106.65C363.818 107.99 363.491 109.299 362.837 110.574C362.215 111.849 361.381 112.961 360.335 113.91C359.321 114.825 358.177 115.577 356.901 116.166C355.626 116.722 354.285 117 352.879 117H317.658V109.348H349.543C350.459 109.348 351.309 109.184 352.094 108.857C352.911 108.497 353.615 108.023 354.203 107.435C354.825 106.846 355.299 106.159 355.626 105.374C355.985 104.557 356.165 103.69 356.165 102.774C356.165 101.859 355.985 101.009 355.626 100.224C355.299 99.4061 354.825 98.703 354.203 98.1143C353.615 97.5257 352.911 97.0679 352.094 96.7408C351.309 96.3811 350.459 96.2012 349.543 96.2012H326.439C325.033 96.2012 323.692 95.9396 322.416 95.4164C321.141 94.8604 319.98 94.1083 318.934 93.1599C317.887 92.1788 317.037 91.067 316.383 89.8243C315.761 88.5816 315.451 87.2571 315.451 85.8509V79.2287C315.451 77.8225 315.761 76.5144 316.383 75.3044C317.037 74.0944 317.887 73.0152 318.934 72.0668C319.98 71.0858 321.141 70.3173 322.416 69.7613C323.692 69.1727 325.033 68.8784 326.439 68.8784H361.61V76.5307H329.137C328.286 76.5307 327.502 76.6942 326.782 77.0213C326.063 77.3156 325.425 77.7407 324.869 78.2967C324.313 78.8199 323.872 79.4576 323.545 80.2098C323.25 80.9292 323.103 81.6977 323.103 82.5153C323.103 83.3655 323.25 84.1504 323.545 84.8699C323.872 85.5893 324.313 86.227 324.869 86.7829C325.425 87.3389 326.063 87.7804 326.782 88.1074C327.502 88.4017 328.286 88.5489 329.137 88.5489H352.879ZM411.056 68.8784C412.463 68.8784 413.803 69.1727 415.079 69.7613C416.354 70.3173 417.499 71.0858 418.513 72.0668C419.559 73.0152 420.393 74.1107 421.014 75.3534C421.668 76.5961 421.995 77.9206 421.995 79.3268V117H414.343V83.6926C414.343 78.918 411.956 76.5307 407.181 76.5307H381.281V117H373.628V52.8869H381.281V68.8784H411.056Z" fill="url(#paint0_linear)"/>
<path d="M433.414 68.9521H441.165V117.074H433.414V68.9521ZM432.826 58.3565C432.826 57.7352 432.94 57.1465 433.169 56.5906C433.398 56.0346 433.709 55.5604 434.101 55.168C434.526 54.7429 435 54.4159 435.524 54.1869C436.08 53.958 436.668 53.8436 437.29 53.8436C437.911 53.8436 438.5 53.958 439.055 54.1869C439.611 54.4159 440.086 54.7429 440.478 55.168C440.903 55.5604 441.23 56.0346 441.459 56.5906C441.688 57.1465 441.802 57.7352 441.802 58.3565C441.802 58.9778 441.688 59.5665 441.459 60.1224C441.23 60.6457 440.903 61.1199 440.478 61.545C440.086 61.9374 439.611 62.2481 439.055 62.477C438.5 62.7059 437.911 62.8204 437.29 62.8204C436.047 62.8204 434.984 62.3952 434.101 61.545C433.251 60.662 432.826 59.5992 432.826 58.3565ZM452.987 117.074V52.9606H460.737V68.9521H471.431V76.6045H460.737V117.074H452.987Z" fill="white"/>
<path d="M30.4111 86.2906C33.5505 86.2906 36.1231 85.3095 38.1288 83.3474C40.1346 81.3416 41.1375 78.7909 41.1375 75.695V40.5726C41.1375 33.5961 44.6039 30.1078 51.5368 30.1078H61.6092V36.6483H61.4784C57.4669 36.6483 54.7853 37.2369 53.4336 38.4142C52.0819 39.5479 51.406 41.8153 51.406 45.2163V74.4523C51.406 77.679 50.534 80.4042 48.7898 82.6279C47.0893 84.8517 44.8437 86.0726 42.0531 86.2906C44.8437 86.5522 47.0893 87.7949 48.7898 90.0187C50.534 92.2425 51.406 94.9241 51.406 98.0635V127.299C51.406 130.701 52.0819 132.946 53.4336 134.036C54.7853 135.17 57.4669 135.737 61.4784 135.737H61.6092V142.408H51.5368C44.6039 142.408 41.1375 138.942 41.1375 132.009V96.9516C41.1375 93.943 40.1346 91.414 38.1288 89.3646C36.1231 87.3153 33.5505 86.2906 30.4111 86.2906Z" fill="url(#paint1_linear)"/>
<path d="M529.589 86.2906C526.45 86.2906 523.877 85.3095 521.871 83.3474C519.865 81.3416 518.863 78.7909 518.863 75.695V40.5726C518.863 33.5961 515.396 30.1078 508.463 30.1078H498.391V36.6483H498.522C502.533 36.6483 505.215 37.2369 506.566 38.4142C507.918 39.5479 508.594 41.8153 508.594 45.2163V74.4523C508.594 77.679 509.466 80.4042 511.21 82.6279C512.911 84.8517 515.156 86.0726 517.947 86.2906C515.156 86.5522 512.911 87.7949 511.21 90.0187C509.466 92.2425 508.594 94.9241 508.594 98.0635V127.299C508.594 130.701 507.918 132.946 506.566 134.036C505.215 135.17 502.533 135.737 498.522 135.737H498.391V142.408H508.463C515.396 142.408 518.863 138.942 518.863 132.009V96.9516C518.863 93.943 519.865 91.414 521.871 89.3646C523.877 87.3153 526.45 86.2906 529.589 86.2906Z" fill="url(#paint2_linear)"/>
</g>
<path d="M140.506 85.7528C140.506 87.159 140.179 88.4835 139.525 89.7262C138.904 90.9689 138.087 92.0807 137.073 93.0618C136.092 94.0102 134.947 94.7787 133.639 95.3673C132.331 95.9233 130.974 96.2012 129.568 96.2012H99.792V102.284C99.792 106.993 102.13 109.348 106.807 109.348H140.506V117H103.128C101.721 117 100.381 116.722 99.1052 116.166C97.8298 115.577 96.6689 114.825 95.6224 113.91C94.5759 112.961 93.7257 111.849 93.0716 110.574C92.4503 109.299 92.1396 107.99 92.1396 106.65V79.3268C92.1396 77.9206 92.4503 76.5961 93.0716 75.3534C93.7257 74.1107 94.5759 73.0152 95.6224 72.0668C96.6689 71.0858 97.8298 70.3173 99.1052 69.7613C100.381 69.1727 101.721 68.8784 103.128 68.8784H129.568C130.974 68.8784 132.331 69.1727 133.639 69.7613C134.947 70.3173 136.092 71.0858 137.073 72.0668C138.087 73.0152 138.904 74.1107 139.525 75.3534C140.179 76.5961 140.506 77.9206 140.506 79.3268V85.7528ZM126.821 88.5489C127.638 88.5489 128.407 88.4017 129.126 88.1074C129.878 87.7804 130.532 87.3389 131.088 86.7829C131.644 86.227 132.069 85.5893 132.364 84.8699C132.691 84.1504 132.854 83.3655 132.854 82.5153C132.854 81.6977 132.691 80.9292 132.364 80.2098C132.069 79.4576 131.644 78.8199 131.088 78.2967C130.532 77.7407 129.878 77.3156 129.126 77.0213C128.407 76.6942 127.638 76.5307 126.821 76.5307H106.807C102.13 76.5307 99.792 78.918 99.792 83.6926V88.5489H126.821ZM198.684 117H191.032V83.6926C191.032 78.918 188.644 76.5307 183.87 76.5307H164.984C160.308 76.5307 157.97 78.918 157.97 83.6926V117H150.317V79.3268C150.317 77.9206 150.628 76.5961 151.249 75.3534C151.903 74.1107 152.754 73.0152 153.8 72.0668C154.847 71.0858 156.007 70.3173 157.283 69.7613C158.558 69.1727 159.899 68.8784 161.305 68.8784H187.745C189.151 68.8784 190.492 69.1727 191.768 69.7613C193.043 70.3173 194.188 71.0858 195.201 72.0668C196.248 73.0152 197.082 74.1107 197.703 75.3534C198.357 76.5961 198.684 77.9206 198.684 79.3268V117ZM223.162 76.5307C218.485 76.5307 216.147 78.918 216.147 83.6926V102.284C216.147 106.993 218.485 109.348 223.162 109.348H242.048C246.822 109.348 249.209 106.993 249.209 102.284V83.6926C249.209 78.918 246.822 76.5307 242.048 76.5307H223.162ZM210.8 133.678V126.026H242.048C246.822 126.026 249.209 123.671 249.209 118.962V117H219.483C218.077 117 216.736 116.722 215.46 116.166C214.185 115.577 213.024 114.825 211.978 113.91C210.931 112.961 210.081 111.849 209.427 110.574C208.806 109.299 208.495 107.99 208.495 106.65V79.3268C208.495 77.9206 208.806 76.5961 209.427 75.3534C210.081 74.1107 210.931 73.0152 211.978 72.0668C213.024 71.0858 214.185 70.3173 215.46 69.7613C216.736 69.1727 218.077 68.8784 219.483 68.8784H245.923C247.329 68.8784 248.67 69.1727 249.945 69.7613C251.221 70.3173 252.365 71.0858 253.379 72.0668C254.425 73.0152 255.259 74.1107 255.881 75.3534C256.535 76.5961 256.862 77.9206 256.862 79.3268V123.328C256.862 124.669 256.535 125.977 255.881 127.252C255.259 128.528 254.425 129.623 253.379 130.539C252.365 131.487 251.221 132.239 249.945 132.795C248.67 133.384 247.329 133.678 245.923 133.678H210.8ZM266.673 106.601V52.8869H274.325V102.284C274.325 106.96 276.696 109.299 281.438 109.299H284.97V116.951H277.661C276.254 116.951 274.914 116.673 273.638 116.117C272.363 115.528 271.202 114.776 270.155 113.861C269.109 112.912 268.259 111.8 267.605 110.525C266.983 109.25 266.673 107.941 266.673 106.601ZM294.878 68.8784H302.629V117H294.878V68.8784ZM294.29 58.2828C294.29 57.6614 294.404 57.0728 294.633 56.5168C294.862 55.9609 295.173 55.4867 295.565 55.0943C295.99 54.6691 296.464 54.3421 296.988 54.1132C297.544 53.8843 298.132 53.7698 298.754 53.7698C299.375 53.7698 299.964 53.8843 300.52 54.1132C301.075 54.3421 301.55 54.6691 301.942 55.0943C302.367 55.4867 302.694 55.9609 302.923 56.5168C303.152 57.0728 303.267 57.6614 303.267 58.2828C303.267 58.9041 303.152 59.4928 302.923 60.0487C302.694 60.5719 302.367 61.0461 301.942 61.4713C301.55 61.8637 301.075 62.1744 300.52 62.4033C299.964 62.6322 299.375 62.7467 298.754 62.7467C297.511 62.7467 296.448 62.3215 295.565 61.4713C294.715 60.5883 294.29 59.5255 294.29 58.2828ZM351.879 88.5489C353.285 88.5489 354.626 88.8432 355.901 89.4318C357.177 89.9878 358.321 90.7399 359.335 91.6883C360.381 92.604 361.215 93.6995 361.837 94.9749C362.491 96.2503 362.818 97.5911 362.818 98.9973V106.65C362.818 107.99 362.491 109.299 361.837 110.574C361.215 111.849 360.381 112.961 359.335 113.91C358.321 114.825 357.177 115.577 355.901 116.166C354.626 116.722 353.285 117 351.879 117H316.658V109.348H348.543C349.459 109.348 350.309 109.184 351.094 108.857C351.911 108.497 352.615 108.023 353.203 107.435C353.825 106.846 354.299 106.159 354.626 105.374C354.985 104.557 355.165 103.69 355.165 102.774C355.165 101.859 354.985 101.009 354.626 100.224C354.299 99.4061 353.825 98.703 353.203 98.1143C352.615 97.5257 351.911 97.0679 351.094 96.7408C350.309 96.3811 349.459 96.2012 348.543 96.2012H325.439C324.033 96.2012 322.692 95.9396 321.416 95.4164C320.141 94.8604 318.98 94.1083 317.934 93.1599C316.887 92.1788 316.037 91.067 315.383 89.8243C314.761 88.5816 314.451 87.2571 314.451 85.8509V79.2287C314.451 77.8225 314.761 76.5144 315.383 75.3044C316.037 74.0944 316.887 73.0152 317.934 72.0668C318.98 71.0858 320.141 70.3173 321.416 69.7613C322.692 69.1727 324.033 68.8784 325.439 68.8784H360.61V76.5307H328.137C327.286 76.5307 326.502 76.6942 325.782 77.0213C325.063 77.3156 324.425 77.7407 323.869 78.2967C323.313 78.8199 322.872 79.4576 322.545 80.2098C322.25 80.9292 322.103 81.6977 322.103 82.5153C322.103 83.3655 322.25 84.1504 322.545 84.8699C322.872 85.5893 323.313 86.227 323.869 86.7829C324.425 87.3389 325.063 87.7804 325.782 88.1074C326.502 88.4017 327.286 88.5489 328.137 88.5489H351.879ZM410.056 68.8784C411.463 68.8784 412.803 69.1727 414.079 69.7613C415.354 70.3173 416.499 71.0858 417.513 72.0668C418.559 73.0152 419.393 74.1107 420.014 75.3534C420.668 76.5961 420.995 77.9206 420.995 79.3268V117H413.343V83.6926C413.343 78.918 410.956 76.5307 406.181 76.5307H380.281V117H372.628V52.8869H380.281V68.8784H410.056Z" fill="url(#paint3_linear)"/>
<path d="M432.414 68.9521H440.165V117.074H432.414V68.9521ZM431.826 58.3565C431.826 57.7352 431.94 57.1465 432.169 56.5906C432.398 56.0346 432.709 55.5604 433.101 55.168C433.526 54.7429 434 54.4159 434.524 54.1869C435.08 53.958 435.668 53.8436 436.29 53.8436C436.911 53.8436 437.5 53.958 438.055 54.1869C438.611 54.4159 439.086 54.7429 439.478 55.168C439.903 55.5604 440.23 56.0346 440.459 56.5906C440.688 57.1465 440.802 57.7352 440.802 58.3565C440.802 58.9778 440.688 59.5665 440.459 60.1224C440.23 60.6457 439.903 61.1199 439.478 61.545C439.086 61.9374 438.611 62.2481 438.055 62.477C437.5 62.7059 436.911 62.8204 436.29 62.8204C435.047 62.8204 433.984 62.3952 433.101 61.545C432.251 60.662 431.826 59.5992 431.826 58.3565ZM451.987 117.074V52.9606H459.737V68.9521H470.431V76.6045H459.737V117.074H451.987Z" fill="white"/>
<path d="M29.4111 86.2906C32.5505 86.2906 35.1231 85.3095 37.1288 83.3474C39.1346 81.3416 40.1375 78.7909 40.1375 75.695V40.5726C40.1375 33.5961 43.6039 30.1078 50.5368 30.1078H60.6092V36.6483H60.4784C56.4669 36.6483 53.7853 37.2369 52.4336 38.4142C51.0819 39.5479 50.406 41.8153 50.406 45.2163V74.4523C50.406 77.679 49.534 80.4042 47.7898 82.6279C46.0893 84.8517 43.8437 86.0726 41.0531 86.2906C43.8437 86.5522 46.0893 87.7949 47.7898 90.0187C49.534 92.2425 50.406 94.9241 50.406 98.0635V127.299C50.406 130.701 51.0819 132.946 52.4336 134.036C53.7853 135.17 56.4669 135.737 60.4784 135.737H60.6092V142.408H50.5368C43.6039 142.408 40.1375 138.942 40.1375 132.009V96.9516C40.1375 93.943 39.1346 91.414 37.1288 89.3646C35.1231 87.3153 32.5505 86.2906 29.4111 86.2906Z" fill="url(#paint4_linear)"/>
<path d="M528.589 86.2906C525.45 86.2906 522.877 85.3095 520.871 83.3474C518.865 81.3416 517.863 78.7909 517.863 75.695V40.5726C517.863 33.5961 514.396 30.1078 507.463 30.1078H497.391V36.6483H497.522C501.533 36.6483 504.215 37.2369 505.566 38.4142C506.918 39.5479 507.594 41.8153 507.594 45.2163V74.4523C507.594 77.679 508.466 80.4042 510.21 82.6279C511.911 84.8517 514.156 86.0726 516.947 86.2906C514.156 86.5522 511.911 87.7949 510.21 90.0187C508.466 92.2425 507.594 94.9241 507.594 98.0635V127.299C507.594 130.701 506.918 132.946 505.566 134.036C504.215 135.17 501.533 135.737 497.522 135.737H497.391V142.408H507.463C514.396 142.408 517.863 138.942 517.863 132.009V96.9516C517.863 93.943 518.865 91.414 520.871 89.3646C522.877 87.3153 525.45 86.2906 528.589 86.2906Z" fill="url(#paint5_linear)"/>
<defs>
<filter id="filter0_f" x="0.411072" y="0.10791" width="559.178" height="172.3" filterUnits="userSpaceOnUse" color-interpolation-filters="sRGB">
<feFlood flood-opacity="0" result="BackgroundImageFix"/>
<feBlend mode="normal" in="SourceGraphic" in2="BackgroundImageFix" result="shape"/>
<feGaussianBlur stdDeviation="15" result="effect1_foregroundBlur"/>
</filter>
<linearGradient id="paint0_linear" x1="86" y1="83.8961" x2="426.901" y2="83.8961" gradientUnits="userSpaceOnUse">
<stop stop-color="#1CB86D"/>
<stop offset="1" stop-color="#00B6EF"/>
</linearGradient>
<linearGradient id="paint1_linear" x1="22" y1="84.6397" x2="65.5335" y2="84.6397" gradientUnits="userSpaceOnUse">
<stop stop-color="#1CB86D"/>
<stop offset="1" stop-color="#00B6EF"/>
</linearGradient>
<linearGradient id="paint2_linear" x1="538" y1="84.6397" x2="494.467" y2="84.6397" gradientUnits="userSpaceOnUse">
<stop stop-color="#1CB86D"/>
<stop offset="1" stop-color="#00B6EF"/>
</linearGradient>
<linearGradient id="paint3_linear" x1="85" y1="83.8961" x2="425.901" y2="83.8961" gradientUnits="userSpaceOnUse">
<stop stop-color="#1CB86D"/>
<stop offset="1" stop-color="#00B6EF"/>
</linearGradient>
<linearGradient id="paint4_linear" x1="21" y1="84.6397" x2="64.5335" y2="84.6397" gradientUnits="userSpaceOnUse">
<stop stop-color="#1CB86D"/>
<stop offset="1" stop-color="#00B6EF"/>
</linearGradient>
<linearGradient id="paint5_linear" x1="537" y1="84.6397" x2="493.467" y2="84.6397" gradientUnits="userSpaceOnUse">
<stop stop-color="#1CB86D"/>
<stop offset="1" stop-color="#00B6EF"/>
</linearGradient>
</defs>
</svg>
