<svg width="64" height="64" viewBox="0 0 64 64" fill="none" xmlns="http://www.w3.org/2000/svg">
<path fill-rule="evenodd" clip-rule="evenodd" d="M7.78357 20.5601C8.68016 20.5601 9.40699 21.3051 9.40699 22.2241V30.5441H21.7855V22.2241C21.7855 21.3051 22.5123 20.5601 23.4089 20.5601C24.3055 20.5601 25.0324 21.3051 25.0324 22.2241V30.5441H37.4109V22.2241C37.4109 21.3051 38.1377 20.5601 39.0343 20.5601C39.9309 20.5601 40.6577 21.3051 40.6577 22.2241V30.5441H52.8333V22.2241C52.8333 21.3051 53.5602 20.5601 54.4567 20.5601C55.3533 20.5601 56.0802 21.3051 56.0802 22.2241V31.3761C56.0802 32.7546 54.9899 33.8721 53.645 33.8721H40.6577V41.7761C40.6577 42.6951 39.9309 43.4401 39.0343 43.4401C38.1377 43.4401 37.4109 42.6951 37.4109 41.7761V33.8721H25.0324V41.7761C25.0324 42.6951 24.3055 43.4401 23.4089 43.4401C22.5123 43.4401 21.7855 42.6951 21.7855 41.7761V33.8721H8.59528C7.2504 33.8721 6.16016 32.7546 6.16016 31.3761V22.2241C6.16016 21.3051 6.88698 20.5601 7.78357 20.5601Z" fill="#D11919"/>
<path fill-rule="evenodd" clip-rule="evenodd" d="M23.8396 18.48C27.2859 18.48 30.0796 15.6863 30.0796 12.24C30.0796 8.79374 27.2859 6 23.8396 6C20.3934 6 17.5996 8.79374 17.5996 12.24C17.5996 15.6863 20.3934 18.48 23.8396 18.48ZM23.5455 15.984H25.0519V8.85675H23.8136L21.5175 10.6849L22.2439 11.5916L23.0629 10.9335C23.1604 10.8555 23.3342 10.6914 23.5845 10.4411L23.5601 11.1821L23.5455 11.8597V15.984Z" fill="#D11919"/>
<path fill-rule="evenodd" clip-rule="evenodd" d="M8.24 18.48C11.6863 18.48 14.48 15.6863 14.48 12.24C14.48 8.79374 11.6863 6 8.24 6C4.79374 6 2 8.79374 2 12.24C2 15.6863 4.79374 18.48 8.24 18.48ZM8.22375 12.0206H7.73625V10.095H8.1945C8.682 10.095 9.04112 10.1665 9.27187 10.3095C9.50587 10.4525 9.62287 10.693 9.62287 11.031C9.62287 11.3722 9.50912 11.6225 9.28162 11.7817C9.05412 11.941 8.7015 12.0206 8.22375 12.0206ZM7.73625 15.984V13.2491H8.54062L10.242 15.984H11.919C11.594 15.516 10.8952 14.4809 9.82275 12.8786C10.2452 12.6934 10.5719 12.4382 10.8026 12.1132C11.0334 11.785 11.1487 11.4112 11.1487 10.992C11.1487 10.2737 10.9164 9.73912 10.4516 9.38812C9.98687 9.03387 9.27025 8.85675 8.30175 8.85675H6.225V15.984H7.73625Z" fill="#D11919"/>
<path fill-rule="evenodd" clip-rule="evenodd" d="M39.4402 18.48C42.8865 18.48 45.6802 15.6863 45.6802 12.24C45.6802 8.79374 42.8865 6 39.4402 6C35.9939 6 33.2002 8.79374 33.2002 12.24C33.2002 15.6863 35.9939 18.48 39.4402 18.48ZM41.2277 11.5867C41.4974 11.2747 41.6323 10.8961 41.6323 10.4509C41.6323 9.91787 41.4178 9.50187 40.9888 9.20287C40.5631 8.90387 39.9813 8.75437 39.2436 8.75437C38.3433 8.75437 37.5682 8.98837 36.9182 9.45637L37.6153 10.4947C37.9111 10.303 38.1792 10.1681 38.4197 10.0901C38.6634 10.0121 38.9023 9.97312 39.1363 9.97312C39.8123 9.97312 40.1503 10.2429 40.1503 10.7824C40.1503 11.1334 40.0219 11.382 39.7652 11.5282C39.5117 11.6712 39.1087 11.7427 38.5562 11.7427H38.0053V12.8981H38.5464C39.1444 12.8981 39.5799 12.968 39.8529 13.1077C40.1259 13.2475 40.2624 13.4847 40.2624 13.8195C40.2624 14.1932 40.1438 14.4646 39.9066 14.6336C39.6693 14.8026 39.3021 14.8871 38.8048 14.8871C38.4798 14.8871 38.1516 14.8432 37.8201 14.7555C37.4886 14.6677 37.1847 14.554 36.9084 14.4142V15.6964C37.5064 15.9531 38.1922 16.0815 38.9657 16.0815C39.8887 16.0815 40.5988 15.8914 41.0961 15.5111C41.5933 15.1276 41.8419 14.593 41.8419 13.9072C41.8419 13.436 41.6941 13.0622 41.3983 12.786C41.1026 12.5065 40.6671 12.331 40.0918 12.2595V12.2302C40.5793 12.1132 40.9579 11.8987 41.2277 11.5867Z" fill="#D11919"/>
<path fill-rule="evenodd" clip-rule="evenodd" d="M55.0398 18.48C58.4861 18.48 61.2798 15.6863 61.2798 12.24C61.2798 8.79374 58.4861 6 55.0398 6C51.5935 6 48.7998 8.79374 48.7998 12.24C48.7998 15.6863 51.5935 18.48 55.0398 18.48ZM56.7639 12.0109C56.3577 11.6241 55.8101 11.4307 55.1211 11.4307C54.8286 11.4307 54.5832 11.4535 54.3849 11.499L54.2143 11.5331L54.3459 10.134H56.8907V8.85675H53.0248L52.7567 12.4886L53.3563 12.8104C53.4863 12.7714 53.6553 12.7356 53.8633 12.7031C54.0713 12.6674 54.2614 12.6495 54.4337 12.6495C55.3859 12.6495 55.8621 13.0086 55.8621 13.7269C55.8621 14.4809 55.4022 14.8579 54.4824 14.8579C54.1769 14.8579 53.8536 14.8156 53.5123 14.7311C53.1711 14.6434 52.8721 14.5312 52.6153 14.3947V15.6964C53.1028 15.9531 53.7431 16.0815 54.5361 16.0815C55.4493 16.0815 56.1513 15.867 56.6421 15.438C57.1328 15.009 57.3782 14.3964 57.3782 13.6001C57.3782 12.9274 57.1734 12.3976 56.7639 12.0109Z" fill="#D11919"/>
<path fill-rule="evenodd" clip-rule="evenodd" d="M38.9202 58C42.0793 58 44.6402 55.2063 44.6402 51.76C44.6402 48.3138 42.0793 45.52 38.9202 45.52C35.7611 45.52 33.2002 48.3138 33.2002 51.76C33.2002 55.2063 35.7611 58 38.9202 58ZM40.5453 54.0269H41.3318V52.8569H40.5453V48.3768H39.2717L36.4073 52.9788V54.0269H39.1958V55.504H40.5453V54.0269ZM39.1958 51.6479V52.8569H37.6228L38.8204 50.8825C38.9753 50.629 39.1079 50.369 39.2181 50.1025H39.2539C39.2449 50.1643 39.233 50.3869 39.2181 50.7704C39.2032 51.1539 39.1958 51.4464 39.1958 51.6479Z" fill="#D11919"/>
<path fill-rule="evenodd" clip-rule="evenodd" d="M23.8396 58C27.2859 58 30.0796 55.2063 30.0796 51.76C30.0796 48.3138 27.2859 45.52 23.8396 45.52C20.3934 45.52 17.5996 48.3138 17.5996 51.76C17.5996 55.2063 20.3934 58 23.8396 58ZM21.3274 55.504H26.3096V54.2365H23.2042V54.1683L24.1207 53.3054C24.7317 52.7464 25.1575 52.3158 25.398 52.0135C25.6417 51.7113 25.8205 51.4171 25.9342 51.1311C26.0512 50.8419 26.1097 50.5331 26.1097 50.2049C26.1097 49.8279 26.0155 49.4931 25.827 49.2006C25.6385 48.9081 25.3736 48.6806 25.0324 48.5181C24.6911 48.3556 24.2979 48.2744 23.8526 48.2744C23.5146 48.2744 23.2091 48.3085 22.9361 48.3768C22.6631 48.4418 22.4112 48.536 22.1805 48.6595C21.9497 48.783 21.6589 48.9943 21.3079 49.2933L22.1269 50.2634C22.4096 50.0294 22.681 49.849 22.941 49.7223C23.201 49.5955 23.4691 49.5321 23.7454 49.5321C24.0086 49.5321 24.2182 49.602 24.3742 49.7418C24.5335 49.8815 24.6131 50.0944 24.6131 50.3804C24.6131 50.5721 24.5774 50.7574 24.5059 50.9361C24.4344 51.1149 24.3174 51.3099 24.1549 51.5211C23.9924 51.7291 23.6462 52.1045 23.1165 52.6473L21.3274 54.4559V55.504Z" fill="#D11919"/>
</svg>
