<svg width="53" height="45" viewBox="0 0 53 45" fill="none" xmlns="http://www.w3.org/2000/svg">
<path fill-rule="evenodd" clip-rule="evenodd" d="M27.2555 0.00221881C26.8329 0.0629292 26.5435 0.496625 26.0971 0.464433C25.4819 1.07689 24.9743 1.80004 24.3978 2.44754C24.2524 2.69898 24.1738 3.16854 23.7631 3.04018C23.0497 3.07197 22.3572 2.60437 21.6495 2.86756C21.1709 3.01046 20.9241 3.4678 20.6157 3.81117C20.2216 4.0701 19.5575 3.87684 19.3269 4.40188C19.1459 4.67931 19.1148 5.04776 19.2271 5.34932C18.761 6.03505 18.7095 6.89741 18.3564 7.63354C18.2705 7.99079 18.5998 8.51667 18.1819 8.73633C17.8589 8.88056 17.4173 9.03585 17.3591 9.45555C17.2462 9.86205 17.1711 10.4966 16.6207 10.5027C16.23 10.5476 15.8131 10.4672 15.4508 10.6542C15.5365 11.1872 14.8544 11.4127 14.8064 11.9181C14.5731 12.2601 14.453 12.6586 14.488 13.0708C14.4896 13.5144 14.743 14.0734 14.2962 14.3941C13.9139 14.7636 14.0053 15.3412 13.7151 15.7674C13.4982 16.2286 12.9899 16.647 12.4627 16.4194C12.121 16.3227 11.7689 16.5774 11.7627 16.9392C11.7156 17.2357 11.4389 17.3855 11.1605 17.3362C10.6922 17.2793 10.1713 17.3256 9.84478 17.7044C9.57658 17.9539 9.47682 18.3689 9.47463 18.6941C8.82925 18.5735 8.38499 19.2456 7.77537 19.2599C7.57158 18.9157 7.17602 18.7234 6.77614 18.7535C6.5552 18.7478 6.34465 18.8754 6.1605 18.9434C5.29001 18.6934 4.30837 19.2703 3.50996 18.7286C3.02019 18.6012 2.64974 19.1656 2.77732 19.6032C2.79572 20.5882 3.14734 21.536 3.18296 22.5205C3.4782 23.6848 3.82857 24.8416 4.17931 25.984C4.40553 26.3882 4.24658 26.869 4.27454 27.2969C4.39816 27.7201 4.4185 28.1618 4.32513 28.5844C4.38157 29.17 4.56692 29.9839 3.97793 30.3607C3.28711 30.7197 2.33735 30.589 1.8107 31.2486C1.09082 31.9573 0.478288 32.8005 0.0193807 33.694C-0.122479 34.4401 0.53731 35.1316 1.25067 35.2187C1.72313 35.4844 2.15775 35.8527 2.46279 36.2927C2.54349 36.7147 2.15417 37.0539 2.16743 37.478C2.11316 37.9035 1.92334 38.3039 1.78001 38.6882C1.65608 39.4602 1.36897 40.425 1.98331 41.0664C2.38131 41.4806 3.16239 41.4472 3.43516 40.9072C3.55877 40.828 3.6583 40.4304 3.77463 40.5102C4.17801 41.0487 5.01584 40.9574 5.45087 40.5025C5.92146 39.9686 6.73 39.7821 7.00629 39.0794C7.09202 38.7961 7.11462 38.4414 7.44932 38.3276C7.92096 38.0981 8.39494 38.4574 8.88391 38.412C9.76169 38.4613 10.6356 38.2694 11.4597 38.0092C12.0591 38.1547 12.6539 38.4137 13.2855 38.3219C13.9854 38.3538 14.7112 38.278 15.3741 38.5309C15.6456 38.5969 15.9676 38.4754 16.1547 38.7495C16.3557 38.982 16.6558 39.1192 16.9621 39.0737C17.5368 39.1316 17.997 39.5799 18.5942 39.4918C19.122 39.4944 19.6327 39.5922 20.0576 39.9137C20.4865 40.127 21.0153 40.2458 21.4673 40.0422C21.773 40.6289 22.1128 41.421 22.8654 41.4921C23.3198 41.5244 23.8061 41.4007 24.2348 41.4193C24.0211 42.1638 24.9771 42.9476 25.6444 42.4914C25.8547 42.0439 26.3506 41.6424 26.8681 41.8048C27.2093 41.7995 27.5894 41.6272 27.8961 41.6532C28.1965 42.1892 29.0327 42.1311 29.3939 41.7012C29.6237 42.3116 29.9856 43.0649 30.7134 43.1454C31.3136 43.1788 31.5677 42.4224 31.3694 41.9467C31.2462 41.7856 31.2269 41.539 31.4518 41.4557C31.6488 41.3386 31.8295 41.4991 31.9486 41.6264C32.2328 41.7334 32.665 41.6335 32.7618 42.0157C33.0401 42.4772 33.2133 43.1131 33.7341 43.3487C34.2065 43.4564 34.7239 43.3281 35.1419 43.1147C35.3752 42.9335 35.4978 42.6546 35.6041 42.3859C36.1824 42.9949 37.1522 42.7875 37.7809 42.3763C38.3022 42.0874 38.8726 42.583 38.9719 43.0974C39.2539 43.8014 40.0557 44.3378 40.8265 44.2041C41.3797 44.0285 41.6424 43.4149 41.7644 42.898C41.8005 42.2677 41.4023 41.7214 41.3233 41.1066C41.29 40.8991 41.1353 40.6721 41.1065 40.4968C41.7873 40.0152 41.4916 38.9848 42.122 38.4719C42.579 37.983 42.9967 37.4077 43.6017 37.1097C43.941 37.0357 44.3137 37.2532 44.6374 37.0426C44.9522 36.9519 44.9544 36.4823 45.3125 36.4864C46.0638 36.4949 47.0092 36.7778 47.6025 36.1527C47.9337 35.4782 47.3664 34.8244 47.1786 34.2003C47.0438 33.9596 46.6692 33.9248 46.7049 33.5866C46.5805 33.0247 46.6593 32.4288 46.7586 31.8835C46.6665 31.5345 46.3008 31.2878 46.2005 30.9763C46.6173 30.1956 46.2957 29.0688 45.4583 28.7209C45.0878 28.4781 44.8991 27.9954 45.0939 27.5797C45.1458 27.2185 45.4999 26.7381 45.9128 26.9832C46.2282 27.2016 46.4527 27.5982 46.8833 27.62C47.6792 27.7989 48.6033 27.9176 49.3132 27.4339C49.9685 27.0667 50.4837 26.4938 50.8552 25.8498C51.164 25.4234 51.8482 25.4901 52.0769 25.002C52.2184 24.5067 52.093 23.9738 52.0232 23.4773C51.915 23.0007 51.3994 22.7805 50.9588 22.7389C50.5723 22.6388 50.6761 22.1746 50.7593 21.895C50.916 21.2852 50.2476 20.8837 49.7429 20.775C49.0871 20.6725 48.5996 20.1429 47.9266 20.098C47.6152 20.1163 47.285 19.9626 47.2247 19.6281C47.1733 19.2916 47.3045 18.9173 47.123 18.5886C46.8532 17.876 46.0124 17.7419 45.3931 17.4839C45.0107 17.3213 44.6646 17.0736 44.3919 16.7704C44.2475 16.5261 44.3994 16.2125 44.2346 15.9649C44.0124 15.5336 43.7844 15.1095 43.4867 14.7259C43.3018 14.313 43.7303 13.8208 43.4119 13.4237C43.2556 13.1033 42.8636 13.173 42.6044 13.0152C42.4377 12.7361 42.2146 12.4929 41.9236 12.3477C41.5664 12.0072 41.6929 11.4039 42.0713 11.1318C42.3819 10.8498 42.6721 10.4372 42.5124 9.99639C42.4951 9.39081 42.3195 8.75853 41.8564 8.34892C41.6358 7.92841 41.8512 7.45359 42.0463 7.08311C42.0243 6.62029 41.8 6.16957 41.9255 5.70413C41.955 5.19615 41.6673 4.56018 41.0874 4.55915C40.3938 4.4235 39.9747 3.80172 39.5204 3.31827C39.0515 2.90351 38.4199 2.80023 37.8538 2.58371C37.428 2.47424 37.022 2.71159 36.5899 2.62015C36.0585 2.56963 35.6112 2.86817 35.2512 3.22237C34.888 3.53967 34.5557 3.91059 34.1925 4.22543C34.4224 3.58419 34.7693 2.75929 34.3057 2.14068C33.8852 1.64485 33.1326 1.72862 32.6716 1.28529C32.1668 0.996958 31.5599 1.14879 31.0779 1.39461C30.7348 1.44477 30.4607 1.15992 30.3433 0.867192C29.8246 0.325659 29.0067 0.564606 28.3602 0.625536C27.9465 0.519645 27.7393 -0.0395011 27.2555 0.00221881ZM27.1212 1.44256C27.5189 1.55987 27.6208 2.11257 28.0648 2.16753C28.4328 2.31298 28.7715 2.04175 29.0909 1.93546C29.5169 1.96046 29.6684 2.43675 29.7986 2.76208C30.2108 3.32816 31.2542 3.29319 31.5094 2.60481C31.9257 2.17684 32.6467 2.52879 32.8826 2.98072C33.0718 3.35156 32.7126 3.69957 32.8538 4.06817C33.0225 4.68003 33.5612 5.18361 34.1561 5.36083C34.5588 5.40983 34.8411 5.07201 35.0306 4.77395C35.3993 4.44156 36.0791 4.71034 36.3252 4.20242C36.4333 4.07519 36.4777 3.81399 36.5535 3.73829C36.8092 4.07959 37.2804 4.10475 37.6486 3.97994C38.1484 3.8863 38.5532 4.23634 38.85 4.59722C39.3691 5.12467 39.8212 5.73731 40.4506 6.12991C40.7651 6.44707 40.6263 6.94106 40.3893 7.25572C40.0235 7.76482 40.2071 8.44623 40.606 8.87251C40.8777 9.16877 41.2185 9.51106 41.0413 9.94845C40.9579 10.3954 40.5437 10.6831 40.4219 11.0992C40.4256 11.4127 40.3032 11.6826 40.184 11.9603C39.9914 12.5283 40.3975 13.1578 40.9742 13.2645C41.337 13.3055 41.3536 13.6863 41.5112 13.93C41.7571 14.1875 42.0296 14.4723 42.1 14.8237C41.5843 15.128 40.9597 15.1636 40.3835 15.0731C39.9104 15.2151 39.5897 15.6253 39.1886 15.8882C38.9132 15.4492 38.2858 15.4752 37.873 15.683C37.4513 15.5833 37.0324 15.7596 36.657 15.9227C36.3057 15.8791 35.9308 15.8824 35.6463 16.1145C35.2974 16.2299 34.7827 16.2746 34.5492 15.9457C34.4662 15.2188 35.1859 14.549 34.8484 13.8264C34.5863 13.3985 33.918 13.3968 33.5999 13.7516C33.1393 13.1885 32.2612 13.1658 31.6839 13.5445C31.3631 13.5458 30.979 13.5369 30.7096 13.6653C30.462 13.057 29.655 13.002 29.1352 13.2768C28.7855 13.4545 28.3724 13.484 28.0188 13.299C27.3646 13.1115 26.7143 13.7022 26.0683 13.4045C25.5995 13.2189 25.8219 12.4838 25.3088 12.3401C24.4383 12.0355 23.9926 11.1522 23.458 10.472C22.9764 9.92641 22.1684 10.0702 21.5652 10.2826C21.1375 10.4271 20.4367 10.3587 20.3875 9.79502C20.3278 9.16515 21.2585 9.12766 21.287 8.52728C21.4193 8.00089 21.0024 7.45605 20.4719 7.41874C20.0139 7.19835 20.0567 6.59756 20.2264 6.20471C20.3384 5.7138 20.6549 5.24326 21.17 5.12685C21.651 4.82694 21.8919 4.26993 22.1922 3.815C22.4226 4.44254 23.1699 4.55817 23.7531 4.46642C24.2938 4.56688 25.0892 4.61732 25.3548 4.01447C25.4553 3.48622 25.5717 2.87174 26.0779 2.58179C26.4116 2.19734 26.6105 1.62629 27.1212 1.44256ZM17.7811 11.383C17.8995 12.3122 18.7023 12.9635 18.8954 13.8686C18.9472 14.0856 19.1329 14.3351 19.1639 14.5073C18.8879 14.58 18.8547 14.8932 18.9184 15.1268C18.8806 15.5903 18.5967 15.9873 18.5175 16.4386C18.4238 16.7002 18.1496 16.952 17.8616 16.8049C17.1155 16.7458 16.5402 17.3453 16.0645 17.8022C15.9686 17.5242 16.0916 17.1843 15.8785 16.9411C15.6269 16.4454 15.0594 15.9261 15.2916 15.3262C15.5348 15.0017 15.9536 14.6987 15.8574 14.2312C15.9005 13.7488 15.7434 13.2184 15.8785 12.7639C16.2668 12.5213 16.0433 11.8207 16.5653 11.7304C16.9652 11.5873 17.3813 11.489 17.7753 11.3332L17.781 11.383H17.7811ZM18.9203 11.4061C19.5869 11.487 20.2599 11.8306 20.9398 11.6228C21.4082 11.7361 21.9062 11.825 22.3725 11.6937C22.8227 11.8086 22.9404 12.445 23.4427 12.482C23.5709 12.5057 23.7296 12.4387 23.6748 12.6335C23.7648 13.0569 24.1613 13.3225 24.5359 13.4582C24.6687 14.3879 25.7424 14.8692 26.5957 14.6684C26.989 14.6688 27.4489 14.5316 27.7906 14.5476C27.8461 15.1505 28.6708 15.6557 29.1638 15.1958C29.4668 14.7407 30.1111 15.0214 30.5274 15.1229C30.9425 15.2444 31.4077 15.1137 31.6935 14.7931C32.1996 14.5293 32.7797 14.8378 33.1952 15.1229C33.4643 15.3605 33.5261 15.7887 33.2911 16.0665C33.0942 16.5763 33.0283 17.1732 33.1877 17.6961C33.4205 18.0189 33.5487 18.4449 33.3237 18.8091C33.1187 19.1853 33.0228 19.6133 33.1338 20.0308C33.1812 20.7953 33.321 21.5631 33.6171 22.2652C33.0954 21.7357 32.0542 21.7477 31.6839 22.4474C31.6328 22.5722 31.6122 22.7395 31.4269 22.6584C30.8315 22.5985 30.2326 22.3324 29.6318 22.4743C29.3315 22.6131 29.1918 22.9631 29.1408 23.2433C28.2771 23.4806 27.9902 24.552 28.2317 25.3319C28.0658 25.4404 27.9492 25.1362 27.7714 25.1401C27.0326 24.9043 26.2203 25.9091 26.7645 26.5402C27.2022 27.2123 28.1473 27.2435 28.6287 27.8559C28.7419 28.2544 28.4423 28.6505 28.5558 29.0507C28.4515 29.6662 27.7724 29.9363 27.5221 30.4776C27.793 30.9607 28.4852 31.3484 28.272 31.989C28.1732 32.3379 27.686 32.5724 27.4243 32.2517C26.7752 31.8071 25.8011 32.1844 25.5746 32.9299C25.5025 33.0243 25.3681 33.5006 25.3491 33.3161C25.3164 32.6978 24.9838 31.9588 24.2866 31.8988C23.7637 31.8329 23.2842 32.1283 22.8616 32.3744C23.0645 31.8399 23.0497 31.0307 22.4492 30.7673C22.2127 30.7269 22.0331 30.5652 21.987 30.3281C21.768 29.9405 21.2579 29.7859 20.8478 29.931C20.4225 29.3387 19.5659 29.1393 19.325 28.4063C19.3958 28.0461 19.5954 27.6161 19.3019 27.2959C19.1511 27.0005 18.8273 26.7944 18.6384 26.5805C18.8899 26.2398 18.8742 25.7977 18.8436 25.3914C19.4016 25.4568 19.9273 24.8419 19.6695 24.3125C19.5519 23.5956 19.519 22.7471 18.9529 22.2249C18.3176 21.8485 18.2239 20.8335 18.8397 20.3914C19.335 20.095 19.43 19.2072 18.88 18.9204C18.4137 18.8051 18.273 18.0872 18.7438 17.877C19.1219 17.6737 19.427 17.3677 19.5745 16.9531C19.8023 16.4451 20.0437 15.9102 20.1938 15.3799C20.1723 15.0807 20.364 14.8197 20.5773 14.6511C20.7901 14.1071 20.4369 13.5042 19.9559 13.2492C19.8327 13.0234 19.9888 12.7124 19.7661 12.5108C19.5091 12.1138 18.9261 11.9463 18.8014 11.4808C18.822 11.4352 18.8775 11.4122 18.9203 11.4061ZM41.9811 16.2392C42.3661 16.2625 43.0143 16.2157 43.1031 16.7167C42.9854 17.3698 43.5308 17.9288 44.1023 18.1417C44.5914 18.7536 45.6325 18.653 45.9703 19.4152C46.1066 20.0243 45.3928 20.6119 45.7517 21.2161C46.2263 21.7725 47.0808 21.7978 47.683 21.4501C48.1337 21.3864 48.6109 21.6128 48.9527 21.897C49.2154 22.2729 49.0645 22.8016 49.3938 23.1513C49.8118 23.7144 50.4937 23.971 51.0931 24.2924C50.5205 24.2726 49.7077 24.3328 49.5242 24.9944C49.5825 25.3738 49.4008 25.7365 49.0754 25.9265C48.6838 26.3451 48.074 26.5526 47.5258 26.404C47.1558 26.2889 47.0998 25.8052 46.7145 25.7232C46.0009 25.4631 45.2107 25.6203 44.4821 25.7136C44.1844 25.7941 44.0543 26.2852 43.7015 26.1163C43.2176 25.9324 43.1376 25.3718 42.8614 25.002C42.3853 24.551 41.6742 24.9128 41.1276 24.9867C40.4978 24.9882 39.8083 24.6661 39.204 25.0078C38.9492 25.1387 38.7081 25.3472 38.4886 25.4949C38.0303 24.8288 37.1749 24.6372 36.4173 24.6146C35.6297 24.4843 35.029 25.4797 35.4008 26.1489C35.3797 26.6401 34.6924 26.847 34.7756 27.3783C34.8049 27.798 34.5714 28.3302 34.0813 28.3008C33.5793 28.31 32.9357 27.9608 32.5316 28.4178C32.2998 28.7254 31.9632 28.9692 31.5842 29.0085C31.2427 29.2577 31.1807 29.7913 30.748 29.9291C30.3503 30.3205 29.8598 30.7328 29.3402 30.8804C29.4783 29.8387 30.0406 28.8885 30.0994 27.8406C30.1038 27.2915 29.9241 26.7678 29.6586 26.3005C29.6312 25.9241 29.8214 25.4906 29.5378 25.1651C29.4301 24.9786 29.2942 24.8117 29.1676 24.6396C29.686 24.3249 30.1998 24.0176 30.6674 23.6346C30.7302 24.2756 31.6425 24.6469 32.0886 24.1505C32.2514 23.9296 32.3734 23.6667 32.6544 23.5675C32.8477 23.3839 32.9748 23.1316 33.2604 23.0573C33.5181 22.9347 33.8067 22.8486 34.0429 22.7351C34.1907 22.5185 34.4816 22.4596 34.626 22.2326C34.9969 21.8467 35.2053 21.1025 34.6928 20.7403C34.1459 20.3383 34.3263 19.5623 34.555 19.0335C34.7384 18.5196 34.6229 17.9312 34.9098 17.4455C35.6101 17.3239 36.3612 17.3395 36.9831 17.6987C37.4718 17.7357 37.7779 17.0416 38.2719 17.2595C38.7438 17.3221 39.2216 17.2925 39.6892 17.3726C40.2712 17.3734 40.7032 16.825 40.7709 16.3063C41.1685 16.4836 41.5839 16.2577 41.9811 16.2392ZM13.0247 17.5587C13.1828 17.7814 13.1816 18.1067 13.368 18.3278C13.827 19.0159 14.8039 18.9354 15.4685 18.6307C15.7082 18.5896 15.92 18.205 16.1432 18.4524C16.5759 18.7489 16.8606 19.2271 17.0791 19.6971C17.1913 19.9951 16.9966 20.2681 16.8681 20.5027C16.7998 21.1334 17.0305 21.7529 17.2536 22.3247C17.5752 22.8345 18.3415 23.111 18.295 23.8091C18.3392 24.1894 18.0199 24.7068 17.5835 24.5169C16.8147 24.3106 16.0036 24.4116 15.2475 24.1352C14.9059 24.001 14.4525 23.9567 14.2138 24.2963C13.6907 25.0219 13.1095 25.8696 13.2817 26.8202C13.2833 27.1257 13.3012 27.5616 13.2452 27.7811C13.1113 27.5068 12.6489 27.5286 12.6372 27.8712C12.5304 28.2013 12.1337 28.1796 11.895 28.3622C11.4517 28.6013 11.1365 28.0864 10.7999 27.8885C10.5344 27.6777 10.1848 27.6693 9.87739 27.7619C9.33215 27.7532 8.57776 27.6198 8.25101 28.1762C8.0449 28.5705 7.97541 29.254 7.40905 29.2732C6.92045 29.341 6.46229 28.7595 5.98788 29.0277C5.60604 29.044 5.48451 28.5244 5.63307 28.2439C5.86499 27.7826 5.51129 27.3353 5.57745 26.8662C5.61587 26.5797 5.73076 26.2891 5.57745 26.0051C5.38053 25.5207 5.08395 25.0694 5.0209 24.5372C4.66177 23.2408 4.1558 21.918 4.30205 20.5506C4.66241 19.9887 5.44777 20.1911 6.01664 20.1491C6.47893 20.1396 6.91849 20.32 7.27671 20.5966C7.88868 20.8552 8.56232 20.5365 8.99132 20.1037C9.49445 19.9079 10.1411 20.2987 10.5736 19.8697C10.8955 19.6338 11.05 19.1938 10.9533 18.8053C11.8376 18.9453 12.5864 18.2444 13.0247 17.5587ZM15.3357 25.3971C15.9761 25.5478 16.647 25.5039 17.2824 25.6752C16.8524 26.2501 17.1704 27.022 17.5682 27.5183C17.7307 27.7061 17.6573 27.9441 17.5106 28.109C17.3398 28.4357 17.5186 28.7835 17.6717 29.0661C17.5915 29.3412 17.5216 29.6433 17.6947 29.9061C17.8977 30.3323 18.4651 30.5541 18.8704 30.2705C19.4149 30.1457 19.7421 30.7097 20.1708 30.8996C20.441 31.0216 20.8666 31.0777 21.0108 31.3254C20.8302 31.9979 20.9272 32.7581 21.3925 33.295C21.5308 33.6996 21.6598 34.137 22.0388 34.3825C22.5057 34.8178 23.2128 35.061 23.4772 35.6771C23.5228 36.0916 23.4324 36.5201 23.5942 36.918C23.6633 37.5333 23.3991 38.115 23.3219 38.7131C23.2656 38.9435 23.1927 39.165 23.0898 39.3767C22.5905 38.6843 21.6072 38.5952 20.842 38.8167C20.2322 38.7389 19.7343 38.3183 19.1217 38.2413C18.6161 38.1452 18.1833 37.7549 17.6391 37.8385C17.3969 37.803 17.0163 37.9633 16.9122 37.6659C16.4995 37.1453 15.748 37.3765 15.1938 37.1615C14.4969 36.978 13.7693 37.1821 13.0726 37.0982C12.2656 36.9307 11.3842 36.521 10.5808 36.9228C9.84813 37.2115 9.05205 37.2644 8.28169 37.1213C7.56059 37.0378 6.6293 37.0455 6.21273 37.75C5.92942 38.281 5.66626 38.9112 5.08839 39.1696C4.90981 39.403 4.5657 39.4451 4.34808 39.2501C3.97766 39.1035 3.51128 39.1445 3.16282 39.1446C3.54482 38.382 3.21804 37.4282 3.70558 36.7051C3.90656 35.7642 3.18643 34.9472 2.50306 34.4093C2.1341 34.188 1.64749 34.1451 1.35424 33.8033C1.92774 32.9921 2.49553 31.9603 3.55599 31.7492C4.4511 31.836 5.06832 31.0587 5.6676 30.5294C6.39236 30.1083 7.21631 30.5664 7.94798 30.7251C8.30478 30.7998 8.84261 30.7395 8.94145 30.33C8.79892 29.8612 8.9926 29.1983 9.55518 29.1505C10.0447 29.08 10.4922 29.441 10.6426 29.8889C11.0237 30.3289 11.6128 29.8688 12.0753 30.0691C12.4287 30.2066 12.8854 30.0779 13.0016 29.6817C13.2703 29.1284 13.6132 28.6234 14.0546 28.1973C14.5077 27.6377 14.6482 26.9042 14.653 26.1988C14.7058 25.8451 14.9001 25.3654 15.3357 25.3971ZM39.9021 26.1221C40.2847 26.1848 40.6593 26.4574 41.0586 26.2813C41.5542 26.1903 42.3411 26.1907 42.4644 26.8068C42.5083 27.1141 42.6685 27.4185 42.9823 27.5126C43.2597 27.6761 43.3849 27.9894 43.4656 28.2721C43.7911 28.5387 43.9459 28.9311 44.1157 29.3001C44.3365 29.6487 44.7829 29.7801 45.0267 30.0883C44.9996 30.3853 44.6113 30.5942 44.741 30.9322C44.8031 31.3746 45.3093 31.6444 45.1974 32.1309C45.2722 32.7602 45.5292 33.3785 45.3815 34.02C45.3565 34.3742 45.578 34.678 45.7651 34.9425C45.8429 35.1374 45.6635 35.3536 45.4525 35.259C44.9226 35.222 44.3986 35.4036 43.9776 35.7173C43.3485 35.581 42.5106 35.5206 42.0885 36.0952C41.9275 36.8864 41.2193 37.3652 40.8438 38.0399C40.6488 38.3183 40.4088 38.5861 40.4717 38.9394C40.3507 39.4977 39.9273 39.9399 39.8865 40.5254C39.7733 40.9465 39.6885 41.4505 39.5684 41.8239C39.2551 41.1777 38.4626 40.7856 37.7713 41.0568C37.2745 41.2118 36.672 41.4621 36.2082 41.1028C35.5461 40.8605 35.0231 41.4975 34.4323 41.6417C33.9781 41.5393 33.9649 40.9687 33.7552 40.6368C33.5012 40.0641 32.7982 39.6893 32.2017 39.9751C31.847 40.0842 31.6903 40.4936 31.3118 40.5217C30.9588 40.6672 30.5347 40.8571 30.1956 40.5907C29.6982 40.3949 29.0746 40.5754 28.621 40.397C28.6745 39.748 27.7066 39.4632 27.336 39.9636C27.1453 40.2929 26.6888 40.5288 26.3541 40.2513C25.909 39.9001 25.2963 40.2035 24.8325 40.3742C24.6609 40.4518 24.4728 40.497 24.2942 40.56C24.8955 40.0482 25.0265 39.1232 24.6951 38.4312C24.6017 38.1108 24.7287 37.7893 24.9617 37.572C25.1968 37.1807 25.0538 36.6913 24.7737 36.3694C24.5304 35.8066 24.8601 35.2254 25.1381 34.7603C25.15 34.4997 24.7197 34.4151 24.9041 34.1159C25.0065 33.8341 25.3492 33.7483 25.6022 33.8877C26.0942 34.0225 26.5842 33.8637 27.0407 33.6959C27.7063 33.645 28.4891 33.8474 29.0295 33.3353C29.4506 32.9712 29.6144 32.3459 29.4745 31.8163C30.3139 31.7488 31.3084 31.6367 31.8316 30.89C32.1386 30.7409 32.3435 30.4721 32.5033 30.1846C32.7698 29.8227 33.2845 29.3838 33.7437 29.6817C34.3973 29.9223 34.9237 29.2069 35.5811 29.3672C36.0825 29.4598 36.5125 29.0067 36.5017 28.5214C36.5397 28.1559 36.2502 27.8136 36.4614 27.4754C36.6035 27.1561 36.6436 26.8039 36.7433 26.4788C36.9581 26.1144 37.6188 26.101 37.7464 26.5421C38.1128 26.9709 38.78 26.8081 39.2232 26.5997C39.463 26.4636 39.6381 26.2197 39.9021 26.1221Z" fill="#F5F7FB"/>
</svg>
