<svg width="20" height="15" viewBox="0 0 20 15" fill="none" xmlns="http://www.w3.org/2000/svg">
<path d="M11.6172 7.57614L18.82 0.37334C18.3815 0.126447 17.8242 0 17.1437 0H2.85789C2.17766 0 1.62009 0.126447 1.18164 0.37334L8.38488 7.57614C9.49579 8.68638 10.5069 8.68638 11.6172 7.57614Z" fill="#DA251D"/>
<path d="M19.6275 1.18143L13.666 7.14331L19.6275 13.105C19.8744 12.6661 20.0008 12.1085 20.0008 11.4289V2.85724C20.0008 2.17745 19.8746 1.6201 19.6275 1.18143Z" fill="#DA251D"/>
<path d="M12.4254 8.38414C11.6481 9.16149 10.8327 9.55571 10.0011 9.55571C9.16979 9.55571 8.35422 9.16149 7.57687 8.38414L7.14375 7.95102L1.18164 13.9129C1.62054 14.1596 2.1781 14.286 2.85789 14.286H17.1439C17.8237 14.286 18.3811 14.1598 18.8202 13.9129L12.8581 7.95124L12.4254 8.38414Z" fill="#DA251D"/>
<path d="M0.373118 1.18143C0.126225 1.61988 0 2.17767 0 2.85724V11.4287C0 12.1085 0.126225 12.6661 0.373118 13.1048L6.335 7.14309L0.373118 1.18143Z" fill="#DA251D"/>
</svg>
