<svg width="41" height="24" viewBox="0 0 41 24" fill="none" xmlns="http://www.w3.org/2000/svg">
<path d="M7.03246 0.67041L23.2955 14.3564L39.5586 0.67041H7.03246ZM5.59106 1.89342V5.79539H0.859196C0.288995 5.79539 -0.00837949 6.3048 0.000179687 6.7272C0.00907851 7.16638 0.250333 7.65902 0.931994 7.65902H12.4486L5.59106 1.89342ZM41 1.89342L28.6098 12.3181L41 22.7428V1.89342ZM14.5015 9.39161C14.3674 9.47317 14.1934 9.52264 13.9774 9.52264H2.32972C1.78937 9.52264 1.38421 10.0523 1.3979 10.4981C1.41289 10.9864 1.84122 11.3863 2.32972 11.3863H10.2501C10.7905 11.3863 11.1956 11.9159 11.1819 12.3618C11.167 12.85 10.7386 13.2499 10.2501 13.2499H4.19334C3.65324 13.2499 3.25098 13.7758 3.26153 14.2254C3.27159 14.6544 3.70485 15.1135 4.19334 15.1135H5.59106H6.98879C7.52889 15.1135 7.93115 15.6395 7.9206 16.089C7.91054 16.518 7.47728 16.9772 6.98879 16.9772H5.59106V19.7726V22.7428L17.9813 12.3181L14.5015 9.39161ZM27.1684 13.5265L23.8925 16.2929C23.5608 16.5695 23.0303 16.5695 22.6986 16.2929L19.4227 13.5411L7.03246 23.9658H39.5586L27.1684 13.5265Z" fill="white"/>
</svg>
