<svg width="102" height="96" viewBox="0 0 102 96" fill="none" xmlns="http://www.w3.org/2000/svg">
<path d="M0.778978 39.5876C-2.26193 29.04 3.86991 18.0376 14.4748 15.0131L64.3997 0.774768C75.0047 -2.24971 86.0668 3.84899 89.1077 14.3966L101.221 56.4124C104.262 66.96 98.1301 77.9624 87.5252 80.9869L37.6003 95.2252C26.9953 98.2497 15.9332 92.151 12.8923 81.6034L0.778978 39.5876Z" fill="#E4EEE7"/>
<rect x="12" y="13" width="78" height="70" rx="8" fill="white"/>
<path d="M53.0332 45.4298V62.2065C52.2437 61.5251 51.2359 61.126 50.1782 61.0757C49.1206 61.0254 48.077 61.3271 47.2221 61.9304C46.3671 62.5336 45.7525 63.4019 45.4809 64.3901C45.2093 65.3782 45.2972 66.4265 45.7299 67.3596C46.1626 68.2927 46.9139 69.0542 47.8582 69.5168C48.8026 69.9794 49.8828 70.1151 50.9183 69.9013C51.9538 69.6874 52.882 69.1369 53.5477 68.3418C54.2133 67.5467 54.5762 66.5551 54.5756 65.5327V50.4012L68.4572 45.0404V57.7392C67.6678 57.0578 66.66 56.6586 65.6023 56.6084C64.5446 56.5581 63.5011 56.8598 62.6461 57.4631C61.7912 58.0663 61.1765 58.9346 60.9049 59.9227C60.6333 60.9109 60.7212 61.9591 61.1539 62.8923C61.5866 63.8254 62.3379 64.5869 63.2823 65.0495C64.2266 65.5121 65.3068 65.6478 66.3424 65.434C67.3779 65.2201 68.306 64.6696 68.9717 63.8745C69.6374 63.0794 70.0002 62.0878 69.9996 61.0654V39.4734C69.9996 39.3518 69.9688 39.232 69.9097 39.1245C69.8506 39.017 69.7652 38.9251 69.6608 38.8569C69.5564 38.7887 69.4364 38.7462 69.3111 38.7332C69.1858 38.7201 69.059 38.7369 68.942 38.7821L53.518 44.7385C53.3749 44.7938 53.2522 44.8892 53.1658 45.0124C53.0794 45.1356 53.0332 45.281 53.0332 45.4298ZM49.9484 68.5109C49.3383 68.5109 48.7418 68.3362 48.2345 68.009C47.7273 67.6817 47.3319 67.2166 47.0984 66.6724C46.8649 66.1282 46.8038 65.5294 46.9228 64.9517C47.0419 64.374 47.3357 63.8433 47.7671 63.4268C48.1985 63.0103 48.7482 62.7267 49.3466 62.6117C49.945 62.4968 50.5652 62.5558 51.1289 62.7812C51.6926 63.0066 52.1743 63.3883 52.5133 63.8781C52.8523 64.3679 53.0332 64.9437 53.0332 65.5327C53.0323 66.3223 52.707 67.0793 52.1287 67.6376C51.5503 68.196 50.7662 68.51 49.9484 68.5109ZM65.3724 64.0436C64.7623 64.0436 64.1659 63.8689 63.6586 63.5417C63.1513 63.2144 62.7559 62.7493 62.5224 62.2051C62.289 61.6609 62.2279 61.0621 62.3469 60.4844C62.4659 59.9067 62.7597 59.376 63.1911 58.9595C63.6226 58.543 64.1722 58.2593 64.7706 58.1444C65.369 58.0295 65.9893 58.0885 66.5529 58.3139C67.1166 58.5393 67.5984 58.921 67.9374 59.4108C68.2763 59.9006 68.4572 60.4764 68.4572 61.0654C68.4563 61.855 68.131 62.612 67.5527 63.1703C66.9744 63.7287 66.1903 64.0427 65.3724 64.0436ZM68.4572 40.5731V43.4367L54.5756 48.7975V45.9339L68.4572 40.5731Z" fill="#69AD7D"/>
<path d="M47.9476 34.0158C44.3279 31.7427 40.364 25.4295 40.3247 25.366C40.2373 25.2256 40.1033 25.1163 39.9434 25.0549C39.7835 24.9934 39.6066 24.9833 39.4399 25.026C39.2733 25.0687 39.1262 25.1619 39.0213 25.2912C38.9165 25.4204 38.8598 25.5786 38.8599 25.7413V43.1768C38.0547 42.4987 37.027 42.1015 35.9483 42.0515C34.8696 42.0015 33.8054 42.3017 32.9335 42.902C32.0616 43.5023 31.4347 44.3663 31.1578 45.3496C30.8808 46.333 30.9704 47.3761 31.4117 48.3046C31.853 49.2332 32.6192 49.991 33.5823 50.4513C34.5453 50.9117 35.647 51.0467 36.703 50.8339C37.7591 50.6211 38.7057 50.0733 39.3845 49.2821C40.0634 48.4908 40.4334 47.5041 40.4328 46.4867V28.2805C41.984 30.4434 44.5495 33.6625 47.075 35.2486C48.7478 36.2992 49.4935 37.6658 49.2929 39.3099C49.1794 40.13 48.8863 40.9189 48.4323 41.6267L48.4316 41.6278L48.4299 41.6303C48.3711 41.7112 48.3298 41.8023 48.3086 41.8984C48.2874 41.9944 48.2867 42.0935 48.3065 42.1898C48.3262 42.2861 48.3661 42.3778 48.4238 42.4594C48.4814 42.5411 48.5558 42.6112 48.6424 42.6656C48.7291 42.7201 48.8263 42.7577 48.9286 42.7764C49.0308 42.7952 49.1359 42.7946 49.2379 42.7747C49.3399 42.7548 49.4367 42.7161 49.5226 42.6607C49.6086 42.6053 49.682 42.5344 49.7387 42.4521C50.3221 41.5658 50.7 40.5733 50.8478 39.5398C51.0548 37.9807 50.7195 35.7566 47.9476 34.0158ZM35.7139 49.4503C35.0917 49.4503 34.4834 49.2765 33.9661 48.9509C33.4487 48.6252 33.0455 48.1624 32.8074 47.6208C32.5692 47.0793 32.5069 46.4834 32.6283 45.9085C32.7497 45.3337 33.0493 44.8056 33.4893 44.3911C33.9293 43.9766 34.4899 43.6944 35.1001 43.58C35.7104 43.4657 36.3429 43.5244 36.9178 43.7487C37.4926 43.973 37.984 44.3528 38.3297 44.8402C38.6753 45.3276 38.8599 45.9006 38.8599 46.4867C38.8589 47.2724 38.5272 48.0257 37.9374 48.5813C37.3476 49.1369 36.5479 49.4495 35.7139 49.4503Z" fill="#69AD7D"/>
</svg>
