<svg width="12" height="20" viewBox="0 0 12 20" fill="none" xmlns="http://www.w3.org/2000/svg">
<path d="M5.83702 10.281C8.42719 10.2802 10.5252 8.18117 10.5244 5.59369C10.5236 3.00537 8.42301 0.908833 5.83368 0.909668C3.24434 0.910503 1.14547 3.00955 1.14631 5.59703C1.14965 8.18368 3.24852 10.2794 5.83702 10.281ZM5.83702 3.65662C6.90985 3.65662 7.77964 4.5258 7.77964 5.59786C7.77964 6.66993 6.90985 7.53827 5.83702 7.53827C4.76419 7.53827 3.89439 6.66909 3.89439 5.59703C3.89606 4.5258 4.76502 3.65746 5.83702 3.65662ZM7.73285 14.1042C8.6979 13.8855 9.61866 13.5039 10.4567 12.9771C11.0951 12.5654 11.2789 11.7155 10.867 11.0776C10.4617 10.4497 9.62786 10.2602 8.99117 10.6518C7.06025 11.8583 4.60878 11.8583 2.67785 10.6518C2.03699 10.2502 1.19059 10.4422 0.787028 11.0818C0.381793 11.7222 0.572295 12.5705 1.21399 12.9754L1.21566 12.9762C2.05287 13.5023 2.97363 13.8838 3.93784 14.1034L1.31592 16.7235C0.793713 17.2745 0.817943 18.1445 1.37023 18.6664C1.9008 19.1673 2.72965 19.1673 3.26022 18.6664L5.83535 16.0914L8.41215 18.6664C8.94856 19.2016 9.81669 19.2016 10.3531 18.6664C10.8887 18.1303 10.8887 17.2628 10.3531 16.7268L7.73285 14.1042Z" fill="white"/>
</svg>
