<svg width="11" height="19" viewBox="0 0 11 19" fill="none" xmlns="http://www.w3.org/2000/svg">
<path d="M5.50681 9.80589C8.21707 9.80501 10.4124 7.60865 10.4115 4.9012C10.4106 2.19287 8.2127 -0.000873393 5.50332 2.60857e-07C2.79393 0.000873914 0.597742 2.19724 0.598616 4.90469C0.602113 7.61127 2.7983 9.80414 5.50681 9.80589ZM5.50681 2.87432C6.62939 2.87432 7.53951 3.78379 7.53951 4.90556C7.53951 6.02734 6.62939 6.93594 5.50681 6.93594C4.38424 6.93594 3.47412 6.02646 3.47412 4.90469C3.47586 3.78379 4.38511 2.87519 5.50681 2.87432ZM7.49055 13.8063C8.50034 13.5775 9.46379 13.1782 10.3407 12.6269C11.0086 12.1962 11.201 11.3068 10.77 10.6394C10.3459 9.98237 9.47341 9.78405 8.80721 10.1938C6.78676 11.4562 4.22162 11.4562 2.20117 10.1938C1.5306 9.77356 0.644953 9.9745 0.222677 10.6437C-0.201348 11.3138 -0.00201287 12.2014 0.669433 12.6252C0.670307 12.6252 0.671181 12.626 0.671181 12.626C1.54721 13.1764 2.51066 13.5757 3.51958 13.8055L0.776095 16.547C0.229671 17.1236 0.255025 18.034 0.832923 18.58C1.38809 19.1042 2.25537 19.1042 2.81054 18.58L5.50506 15.8856L8.20134 18.58C8.76262 19.14 9.671 19.14 10.2323 18.58C10.7927 18.0191 10.7927 17.1114 10.2323 16.5505L7.49055 13.8063Z" fill="#202020"/>
</svg>
