<svg width="60" height="61" viewBox="0 0 60 61" fill="none" xmlns="http://www.w3.org/2000/svg">
<g filter="url(#filter0_d)">
<circle cx="30" cy="25.5791" r="20" fill="#87BB4E"/>
</g>
<path fill-rule="evenodd" clip-rule="evenodd" d="M23.4335 22.6738C22.5899 20.3631 23.0961 18.8414 23.9397 18.0524C24.7833 17.2634 25.0645 17.6015 25.6269 18.0524C26.1893 18.5596 27.9889 20.3067 27.9889 20.3067C27.9889 20.3067 28.5513 20.7012 28.0451 21.3775C27.5952 22.1102 26.4142 22.6174 27.314 23.6882C28.7763 25.4353 30.126 26.8443 31.9256 28.2532C32.9942 29.155 33.5003 28.0278 34.1752 27.5206C34.8501 27.0134 35.3 27.5769 35.3 27.5769C35.3 27.5769 37.0434 29.3804 37.4933 29.944C37.9432 30.5076 38.3369 30.8457 37.5496 31.6911C36.7622 32.4801 35.1875 32.9873 32.8817 32.1419C30.0135 31.0711 24.5583 25.6044 23.4335 22.6738ZM29.6198 20.0249C28.8325 20.0249 28.8887 18.8978 29.6198 18.8978C33.5003 18.8414 36.706 22.0538 36.706 25.9989C36.706 26.7316 35.5812 26.7316 35.5812 25.9989C35.5812 22.6738 32.8817 19.9686 29.6198 20.0249ZM30.5759 22.6174C29.8448 22.6174 29.8448 21.4903 30.5759 21.4903C32.488 21.4903 34.0627 23.0683 34.0627 24.9845C34.0627 25.7171 32.938 25.7171 32.938 24.9845C32.938 23.6882 31.8694 22.6174 30.5759 22.6174Z" fill="white"/>
<defs>
<filter id="filter0_d" x="0" y="0.579102" width="60" height="60" filterUnits="userSpaceOnUse" color-interpolation-filters="sRGB">
<feFlood flood-opacity="0" result="BackgroundImageFix"/>
<feColorMatrix in="SourceAlpha" type="matrix" values="0 0 0 0 0 0 0 0 0 0 0 0 0 0 0 0 0 0 127 0"/>
<feOffset dy="5"/>
<feGaussianBlur stdDeviation="5"/>
<feColorMatrix type="matrix" values="0 0 0 0 0.529412 0 0 0 0 0.733333 0 0 0 0 0.305882 0 0 0 0.5 0"/>
<feBlend mode="normal" in2="BackgroundImageFix" result="effect1_dropShadow"/>
<feBlend mode="normal" in="SourceGraphic" in2="effect1_dropShadow" result="shape"/>
</filter>
</defs>
</svg>
