<svg width="44" height="44" viewBox="0 0 44 44" fill="none" xmlns="http://www.w3.org/2000/svg">
<circle cx="22" cy="22" r="22" fill="#359BDA"/>
<path fill-rule="evenodd" clip-rule="evenodd" d="M13.5888 19.1368C12.5846 16.3863 13.1871 14.575 14.1913 13.6358C15.1955 12.6966 15.5302 13.0992 16.1996 13.6358C16.869 14.2396 19.0112 16.3193 19.0112 16.3193C19.0112 16.3193 19.6807 16.7888 19.0782 17.5939C18.5426 18.466 17.1368 19.0697 18.2079 20.3444C19.9484 22.424 21.5551 24.1011 23.6973 25.7783C24.9692 26.8516 25.5717 25.5099 26.375 24.9062C27.1784 24.3024 27.7139 24.9733 27.7139 24.9733C27.7139 24.9733 29.7892 27.12 30.3247 27.7908C30.8603 28.4617 31.3289 28.8642 30.3917 29.8705C29.4544 30.8097 27.58 31.4134 24.8353 30.4072C21.4212 29.1325 14.9277 22.6253 13.5888 19.1368ZM20.9526 15.9838C20.0154 15.9838 20.0823 14.6421 20.9526 14.6421C25.5717 14.575 29.3875 18.3989 29.3875 23.0949C29.3875 23.967 28.0486 23.967 28.0486 23.0949C28.0486 19.1368 24.8353 15.9167 20.9526 15.9838ZM22.0906 19.0697C21.2204 19.0697 21.2204 17.728 22.0906 17.728C24.3667 17.728 26.2411 19.6064 26.2411 21.8873C26.2411 22.7594 24.9023 22.7594 24.9023 21.8873C24.9023 20.3444 23.6303 19.0697 22.0906 19.0697Z" fill="white"/>
</svg>
