<svg width="14" height="13" viewBox="0 0 14 13" fill="none" xmlns="http://www.w3.org/2000/svg">
<path fill-rule="evenodd" clip-rule="evenodd" d="M13.6419 10.1245L11.7661 8.37756C11.4171 8.05254 10.8937 7.97129 10.5883 8.25568L9.41051 9.35259C7.84009 8.58069 6.92402 8.01192 5.96433 7.11814C5.09188 6.34623 4.56841 5.69621 3.91407 4.27428L5.09188 3.17737C5.39723 2.89298 5.30999 2.40547 4.96101 2.03983L3.08524 0.333516C2.69264 -0.0321226 2.08192 -0.113376 1.77656 0.17101C1.47121 0.496021 1.12223 0.780407 0.816869 1.06479C-3.24003 4.72117 8.93066 16.0153 12.8567 12.2371C13.162 11.9121 13.4674 11.6277 13.8164 11.3027C14.1217 11.0183 14.0345 10.4901 13.6419 10.1245Z" fill="#3C4196"/>
</svg>
