<svg width="40" height="40" viewBox="0 0 40 40" fill="none" xmlns="http://www.w3.org/2000/svg">
<circle cx="20" cy="20" r="19.5" stroke="#BEC2C3"/>
<path d="M16.3414 18.6999C16.3719 18.3032 16.7179 18.0042 16.8831 17.883C16.9278 17.8502 16.9327 17.7865 16.8936 17.7471C16.44 17.2902 14.102 14.9347 13.6505 14.481C13.6109 14.4413 13.5445 14.4466 13.5126 14.4927C13.4451 14.5904 13.3825 14.692 13.325 14.7987C12.8367 15.7057 13.0435 17.0912 13.0435 17.0912C13.5261 20.3086 16.7436 23.2848 16.7436 23.2848C16.7436 23.2848 19.7197 26.5022 22.9372 26.9848C22.9372 26.9848 24.3226 27.1917 25.2296 26.7033C25.3363 26.6458 25.4379 26.5832 25.5356 26.5157C25.5817 26.4838 25.5871 26.4174 25.5473 26.3779C25.0936 25.9263 22.7382 23.5883 22.2812 23.1347C22.2418 23.0956 22.1781 23.1005 22.1453 23.1453C22.0241 23.3105 21.7251 23.6564 21.3284 23.6869C20.6022 23.7428 19.4055 23.1314 18.1512 21.8771C17.0771 20.803 16.2855 19.4261 16.3414 18.6999Z" fill="#8D9293"/>
<path d="M13.9002 14.0483L17.3219 17.47C17.3574 17.5055 17.4146 17.5058 17.4502 17.4704C17.6338 17.2878 18.1473 16.7754 18.1473 16.7754C18.4828 16.44 18.523 15.9362 18.1875 15.6007L15.8365 13.2497C15.5296 12.9429 15.0421 12.9163 14.7005 13.1839C14.3934 13.4244 14.1243 13.6623 13.8953 13.923C13.8636 13.9592 13.8662 14.0143 13.9002 14.0483Z" fill="#8D9293"/>
<path d="M26.105 26.1337C26.3657 25.9047 26.6036 25.6356 26.8442 25.3285C27.1118 24.9869 27.0851 24.4994 26.7783 24.1925L24.4273 21.8415C24.0918 21.506 23.5881 21.5463 23.2526 21.8818C23.2526 21.8818 22.7402 22.3952 22.5576 22.5788C22.5222 22.6144 22.5226 22.6716 22.5581 22.7071L25.9797 26.1288C26.0137 26.1628 26.0689 26.1654 26.105 26.1337Z" fill="#8D9293"/>
</svg>
