<svg width="159" height="23" viewBox="0 0 159 23" fill="none" xmlns="http://www.w3.org/2000/svg">
<path d="M13.4219 7.83594C13.4219 9.85938 12.7292 11.418 11.3438 12.5117C9.96745 13.5964 7.99414 14.1387 5.42383 14.1387H3.07227V22H0.748047V2.01172H5.92969C10.9245 2.01172 13.4219 3.95312 13.4219 7.83594ZM3.07227 12.1426H5.16406C7.22396 12.1426 8.71419 11.8099 9.63477 11.1445C10.5553 10.4792 11.0156 9.41276 11.0156 7.94531C11.0156 6.6237 10.5827 5.63932 9.7168 4.99219C8.85091 4.34505 7.50195 4.02148 5.66992 4.02148H3.07227V12.1426ZM30.2109 14.4941C30.2109 16.9368 29.5957 18.8464 28.3652 20.2227C27.1348 21.5898 25.4349 22.2734 23.2656 22.2734C21.9258 22.2734 20.7363 21.959 19.6973 21.3301C18.6582 20.7012 17.8561 19.7988 17.291 18.623C16.7259 17.4473 16.4434 16.071 16.4434 14.4941C16.4434 12.0514 17.054 10.151 18.2754 8.79297C19.4967 7.42578 21.1921 6.74219 23.3613 6.74219C25.4577 6.74219 27.1211 7.43945 28.3516 8.83398C29.5911 10.2285 30.2109 12.1152 30.2109 14.4941ZM18.7949 14.4941C18.7949 16.4082 19.1777 17.8665 19.9434 18.8691C20.709 19.8717 21.8346 20.373 23.3203 20.373C24.806 20.373 25.9316 19.8763 26.6973 18.8828C27.472 17.8802 27.8594 16.4173 27.8594 14.4941C27.8594 12.5892 27.472 11.1445 26.6973 10.1602C25.9316 9.16667 24.7969 8.66992 23.293 8.66992C21.8073 8.66992 20.6862 9.15755 19.9297 10.1328C19.1732 11.1081 18.7949 12.5618 18.7949 14.4941ZM36.4727 22H34.2031V0.726562H36.4727V22ZM54.2188 14.4941C54.2188 16.9368 53.6035 18.8464 52.373 20.2227C51.1426 21.5898 49.4427 22.2734 47.2734 22.2734C45.9336 22.2734 44.7441 21.959 43.7051 21.3301C42.666 20.7012 41.8639 19.7988 41.2988 18.623C40.7337 17.4473 40.4512 16.071 40.4512 14.4941C40.4512 12.0514 41.0618 10.151 42.2832 8.79297C43.5046 7.42578 45.1999 6.74219 47.3691 6.74219C49.4655 6.74219 51.1289 7.43945 52.3594 8.83398C53.599 10.2285 54.2188 12.1152 54.2188 14.4941ZM42.8027 14.4941C42.8027 16.4082 43.1855 17.8665 43.9512 18.8691C44.7168 19.8717 45.8424 20.373 47.3281 20.373C48.8138 20.373 49.9395 19.8763 50.7051 18.8828C51.4798 17.8802 51.8672 16.4173 51.8672 14.4941C51.8672 12.5892 51.4798 11.1445 50.7051 10.1602C49.9395 9.16667 48.8047 8.66992 47.3008 8.66992C45.8151 8.66992 44.694 9.15755 43.9375 10.1328C43.181 11.1081 42.8027 12.5618 42.8027 14.4941ZM68.4648 22V12.3066C68.4648 11.0853 68.1868 10.1738 67.6309 9.57227C67.0749 8.9707 66.2044 8.66992 65.0195 8.66992C63.4518 8.66992 62.3034 9.09375 61.5742 9.94141C60.8451 10.7891 60.4805 12.1882 60.4805 14.1387V22H58.2109V7.01562H60.0566L60.4258 9.06641H60.5352C61 8.32812 61.6517 7.75846 62.4902 7.35742C63.3288 6.94727 64.263 6.74219 65.293 6.74219C67.0977 6.74219 68.4557 7.17969 69.3672 8.05469C70.2786 8.92057 70.7344 10.3105 70.7344 12.2246V22H68.4648ZM77.6797 22H75.4102V7.01562H77.6797V22ZM75.2188 2.95508C75.2188 2.43555 75.3464 2.05729 75.6016 1.82031C75.8568 1.57422 76.1758 1.45117 76.5586 1.45117C76.9232 1.45117 77.2376 1.57422 77.502 1.82031C77.7663 2.06641 77.8984 2.44466 77.8984 2.95508C77.8984 3.46549 77.7663 3.84831 77.502 4.10352C77.2376 4.34961 76.9232 4.47266 76.5586 4.47266C76.1758 4.47266 75.8568 4.34961 75.6016 4.10352C75.3464 3.84831 75.2188 3.46549 75.2188 2.95508ZM84.7344 14.3301C85.1263 13.7741 85.7233 13.0449 86.5254 12.1426L91.3652 7.01562H94.0586L87.9883 13.4004L94.4824 22H91.7344L86.4434 14.918L84.7344 16.3945V22H82.4922V0.726562H84.7344V12.0059C84.7344 12.5072 84.6979 13.2819 84.625 14.3301H84.7344ZM106.418 22L105.967 19.8672H105.857C105.11 20.806 104.363 21.444 103.615 21.7812C102.877 22.1094 101.952 22.2734 100.84 22.2734C99.3542 22.2734 98.1875 21.8906 97.3398 21.125C96.5013 20.3594 96.082 19.2702 96.082 17.8574C96.082 14.8314 98.502 13.2454 103.342 13.0996L105.885 13.0176V12.0879C105.885 10.9121 105.63 10.0462 105.119 9.49023C104.618 8.92513 103.811 8.64258 102.699 8.64258C101.451 8.64258 100.038 9.02539 98.4609 9.79102L97.7637 8.05469C98.502 7.65365 99.3086 7.33919 100.184 7.11133C101.068 6.88346 101.952 6.76953 102.836 6.76953C104.622 6.76953 105.944 7.16602 106.801 7.95898C107.667 8.75195 108.1 10.0234 108.1 11.7734V22H106.418ZM101.291 20.4004C102.704 20.4004 103.811 20.013 104.613 19.2383C105.424 18.4635 105.83 17.3789 105.83 15.9844V14.6309L103.561 14.7266C101.756 14.7904 100.452 15.0729 99.6504 15.5742C98.8574 16.0664 98.4609 16.8366 98.4609 17.8848C98.4609 18.7051 98.707 19.3294 99.1992 19.7578C99.7005 20.1862 100.398 20.4004 101.291 20.4004Z" fill="#333333"/>
<path d="M113.021 2.01172H118.955C121.708 2.01172 123.695 2.41276 124.916 3.21484C126.146 4.01693 126.762 5.28385 126.762 7.01562C126.762 8.18229 126.461 9.15299 125.859 9.92773C125.258 10.7025 124.392 11.1901 123.262 11.3906V11.5273C124.665 11.7917 125.695 12.3158 126.352 13.0996C127.017 13.8743 127.35 14.9271 127.35 16.2578C127.35 18.0534 126.721 19.4616 125.463 20.4824C124.214 21.4941 122.473 22 120.24 22H113.021V2.01172ZM116.289 10.2695H119.434C120.801 10.2695 121.799 10.0553 122.428 9.62695C123.057 9.18945 123.371 8.45117 123.371 7.41211C123.371 6.47331 123.029 5.79427 122.346 5.375C121.671 4.95573 120.596 4.74609 119.119 4.74609H116.289V10.2695ZM116.289 12.9219V19.252H119.762C121.129 19.252 122.159 18.9922 122.852 18.4727C123.553 17.944 123.904 17.1146 123.904 15.9844C123.904 14.9453 123.549 14.1751 122.838 13.6738C122.127 13.1725 121.047 12.9219 119.598 12.9219H116.289ZM142.812 22H131.506V2.01172H142.812V4.77344H134.773V10.2148H142.307V12.9492H134.773V19.2246H142.812V22ZM147.146 22V2.01172H150.414V19.1973H158.877V22H147.146Z" fill="#FB0015"/>
</svg>
