<svg width="32" height="26" viewBox="0 0 32 26" fill="none" xmlns="http://www.w3.org/2000/svg">
<path d="M17.0183 25.3252C16.6383 25.3252 16.4483 25.0719 16.4483 24.5652C16.4483 24.0586 16.4483 23.6786 16.4483 23.4252C17.0817 22.4119 17.7783 21.3986 18.5383 20.3852C19.2983 19.3719 19.9317 18.4219 20.4383 17.5352C20.945 16.5219 21.5783 15.0019 22.3383 12.9752C23.0983 10.9486 23.4783 9.04857 23.4783 7.27524C23.4783 5.37524 22.9083 3.98191 21.7683 3.09524C21.6417 2.84191 21.4517 2.58858 21.1983 2.33524C20.945 2.08191 20.8183 1.82857 20.8183 1.57524C20.8183 0.688573 21.705 0.24524 23.4783 0.24524C24.1117 0.24524 24.935 0.308572 25.9483 0.435238C26.9617 0.561906 27.785 0.751908 28.4183 1.00524C30.6983 1.89191 31.8383 3.15857 31.8383 4.80524C31.8383 5.18524 31.7117 5.75524 31.4583 6.51524C30.065 9.30191 28.2283 12.4686 25.9483 16.0152C23.6683 19.4352 21.2617 22.2219 18.7283 24.3752C17.9683 25.0086 17.3983 25.3252 17.0183 25.3252ZM0.868321 25.3252C0.488321 25.3252 0.298321 25.0719 0.298321 24.5652C0.298321 24.0586 0.298321 23.6786 0.298321 23.4252C0.931655 22.4119 1.62832 21.3986 2.38832 20.3852C3.14832 19.3719 3.78165 18.4219 4.28832 17.5352C4.79499 16.5219 5.42832 15.0019 6.18832 12.9752C6.94832 10.9486 7.32832 9.04857 7.32832 7.27524C7.32832 5.37524 6.75832 3.98191 5.61832 3.09524C5.49166 2.84191 5.30165 2.58858 5.04832 2.33524C4.79499 2.08191 4.66832 1.82857 4.66832 1.57524C4.66832 0.688573 5.55499 0.24524 7.32832 0.24524C7.96165 0.24524 8.78499 0.308572 9.79832 0.435238C10.8117 0.561906 11.635 0.751908 12.2683 1.00524C14.5483 1.89191 15.6883 3.15857 15.6883 4.80524C15.6883 5.18524 15.5617 5.75524 15.3083 6.51524C13.915 9.30191 12.0783 12.4686 9.79832 16.0152C7.51832 19.4352 5.11165 22.2219 2.57832 24.3752C1.81832 25.0086 1.24832 25.3252 0.868321 25.3252Z" fill="#58595A"/>
</svg>
