<svg width="23" height="24" viewBox="0 0 23 24" fill="none" xmlns="http://www.w3.org/2000/svg">
<path d="M21.8996 12.0095C21.8039 11.8176 21.8039 11.5976 21.8996 11.4058L22.7868 9.6276C23.2807 8.63752 22.8894 7.45745 21.8958 6.94094L20.1113 6.01327C19.9188 5.91322 19.7868 5.73515 19.7491 5.5249L19.4001 3.57538C19.2057 2.48994 18.1809 1.76054 17.0675 1.9149L15.0672 2.19211C14.8514 2.22197 14.6379 2.15396 14.4813 2.00553L13.0294 0.629402C12.2209 -0.136861 10.9544 -0.136907 10.1461 0.629402L8.69411 2.00566C8.53745 2.15414 8.32397 2.22201 8.10812 2.19224L6.10791 1.91503C4.99405 1.76059 3.96962 2.49007 3.77528 3.57551L3.42628 5.52495C3.3886 5.73524 3.25661 5.91327 3.06413 6.01336L1.27963 6.94104C0.286052 7.45749 -0.105321 8.63766 0.388634 9.62774L1.27577 11.4059C1.37148 11.5977 1.37148 11.8178 1.27577 12.0096L0.388588 13.7877C-0.105367 14.7778 0.286006 15.9579 1.27958 16.4744L3.06408 17.4021C3.25661 17.5021 3.3886 17.6802 3.42628 17.8904L3.77528 19.84C3.9522 20.8281 4.81699 21.5211 5.81089 21.521C5.90878 21.521 6.00811 21.5142 6.10795 21.5004L8.10816 21.2232C8.32387 21.1932 8.53749 21.2613 8.69415 21.4098L10.1461 22.7859C10.5503 23.1691 11.0689 23.3606 11.5877 23.3606C12.1063 23.3605 12.6252 23.169 13.0293 22.7859L14.4813 21.4098C14.6379 21.2613 14.8514 21.1935 15.0672 21.2232L17.0675 21.5004C18.1815 21.6548 19.2057 20.9254 19.4001 19.8399L19.7491 17.8905C19.7868 17.6802 19.9188 17.5022 20.1113 17.4021L21.8958 16.4744C22.8894 15.9579 23.2807 14.7778 22.7868 13.7877L21.8996 12.0095ZM8.84375 5.65886C10.2307 5.65886 11.359 6.76438 11.359 8.1232C11.359 9.48203 10.2307 10.5875 8.84375 10.5875C7.45685 10.5875 6.3285 9.48203 6.3285 8.1232C6.3285 6.76438 7.45685 5.65886 8.84375 5.65886ZM7.5455 16.6184C7.41155 16.7496 7.23598 16.8153 7.06046 16.8153C6.88494 16.8153 6.70932 16.7497 6.57543 16.6184C6.30754 16.356 6.30754 15.9304 6.57543 15.6679L15.6298 6.79683C15.8977 6.53437 16.3321 6.53437 16.5999 6.79683C16.8678 7.05929 16.8678 7.48485 16.5999 7.74731L7.5455 16.6184ZM14.3315 17.7565C12.9446 17.7565 11.8163 16.651 11.8163 15.2921C11.8163 13.9333 12.9446 12.8278 14.3315 12.8278C15.7184 12.8278 16.8468 13.9333 16.8468 15.2921C16.8468 16.651 15.7184 17.7565 14.3315 17.7565Z" fill="#4597DE"/>
<path d="M14.3318 14.172C13.7014 14.172 13.1885 14.6745 13.1885 15.2921C13.1885 15.9098 13.7013 16.4122 14.3318 16.4122C14.9622 16.4122 15.4751 15.9098 15.4751 15.2921C15.4751 14.6745 14.9622 14.172 14.3318 14.172Z" fill="#4597DE"/>
<path d="M8.84346 7.00305C8.21306 7.00305 7.7002 7.50553 7.7002 8.12318C7.7002 8.74082 8.21306 9.24335 8.84346 9.24335C9.47387 9.24335 9.98678 8.74087 9.98678 8.12318C9.98673 7.50558 9.47387 7.00305 8.84346 7.00305Z" fill="#4597DE"/>
</svg>
