<svg width="13" height="12" viewBox="0 0 13 12" fill="none" xmlns="http://www.w3.org/2000/svg">
<path d="M5.099 10.1846C6.23359 10.1846 7.2881 9.79755 8.14238 9.17019L10.9722 12L12.0133 10.9588L9.18354 8.14238C9.8109 7.2881 10.198 6.24694 10.198 5.099C10.198 2.28254 7.91546 0 5.11235 0C2.30923 0 0 2.29588 0 5.099C0 7.90211 2.29588 10.1846 5.099 10.1846ZM5.099 1.4683C7.10122 1.4683 8.71635 3.08343 8.71635 5.08565C8.71635 7.08787 7.10122 8.71635 5.099 8.71635C3.09677 8.71635 1.4683 7.10122 1.4683 5.099C1.4683 3.09677 3.11012 1.4683 5.099 1.4683Z" fill="white"/>
</svg>
