<svg width="16" height="16" viewBox="0 0 16 16" fill="none" xmlns="http://www.w3.org/2000/svg">
<path d="M12.5817 11.1342C12.4883 11.0409 12.3774 10.9669 12.2554 10.9164C12.1334 10.8659 12.0026 10.84 11.8705 10.8401C11.7385 10.8402 11.6077 10.8663 11.4858 10.917C11.3638 10.9676 11.253 11.0418 11.1598 11.1353L11.1453 11.1497C11.0518 11.2428 10.9775 11.3534 10.9268 11.4753C10.8761 11.5972 10.85 11.7278 10.8499 11.8598C10.8498 11.9918 10.8757 12.1225 10.9262 12.2445C10.9768 12.3664 11.0509 12.4772 11.1443 12.5704L13.5121 14.936C13.699 15.1227 13.9512 15.2293 14.2154 15.2333C14.4795 15.2374 14.7348 15.1385 14.9274 14.9576C15.0251 14.8597 15.1024 14.7433 15.1549 14.6153C15.2074 14.4873 15.2341 14.3501 15.2333 14.2118C15.2325 14.0734 15.2044 13.9365 15.1504 13.8091C15.0965 13.6817 15.0179 13.5662 14.9191 13.4693L12.5817 11.1342Z" fill="#004DB1"/>
<path d="M6.18377 12.3562C7.40545 12.3551 8.59937 11.9918 9.61461 11.3123C10.6298 10.6327 11.4208 9.66745 11.8876 8.53845C12.3543 7.40945 12.4758 6.16742 12.2368 4.96936C11.9978 3.77129 11.4089 2.67099 10.5447 1.80753C9.68045 0.944071 8.5796 0.356225 7.38132 0.1183C6.18304 -0.119625 4.94112 0.00305205 3.81255 0.470825C2.68397 0.938597 1.71942 1.73046 1.04081 2.74633C0.362198 3.76219 5.13017e-07 4.95644 0 6.17811C0.00261246 7.81683 0.655135 9.3876 1.81441 10.5458C2.97369 11.704 4.54506 12.3551 6.18377 12.3562ZM6.18377 2.03116C7.0038 2.03191 7.8052 2.27577 8.48666 2.73189C9.16812 3.18802 9.69906 3.83595 10.0123 4.59377C10.3256 5.3516 10.4072 6.18529 10.2468 6.98947C10.0863 7.79365 9.69108 8.53221 9.11097 9.11179C8.53086 9.69137 7.79193 10.086 6.98761 10.2457C6.18328 10.4054 5.34966 10.323 4.59213 10.009C3.83459 9.69505 3.18715 9.16352 2.73165 8.48164C2.27614 7.79976 2.03302 6.99814 2.03302 6.17811C2.03476 5.07815 2.47275 4.02379 3.2509 3.24635C4.02905 2.46891 5.08381 2.03189 6.18377 2.03116Z" fill="#004DB1"/>
</svg>
