<svg width="15" height="15" viewBox="0 0 15 15" fill="none" xmlns="http://www.w3.org/2000/svg">
<g clip-path="url(#clip0_29_137)">
<path d="M10.3795 8.901C12.1801 6.35841 11.5779 2.83767 9.03528 1.03751C6.49269 -0.762644 2.97195 -0.16087 1.17179 2.38215C-0.628366 4.92474 -0.0265928 8.44505 2.51643 10.2452C4.33121 11.5301 6.73056 11.629 8.6447 10.4986L12.8038 14.6327C13.2529 15.1054 14 15.1243 14.4727 14.6753C14.9455 14.2266 14.9644 13.4795 14.5158 13.0067C14.5016 12.9917 14.4878 12.9779 14.4727 12.9637L10.3795 8.901ZM5.77219 9.28641C3.76299 9.28684 2.13403 7.65917 2.13274 5.64996C2.13231 3.64075 3.75998 2.01179 5.76961 2.01093C7.77624 2.01007 9.40434 3.63516 9.40821 5.64179C9.41165 7.65143 7.78484 9.28297 5.77478 9.28641C5.77392 9.28641 5.77349 9.28641 5.77219 9.28641Z" fill="black"/>
</g>
<defs>
<clipPath id="clip0_29_137">
<rect width="15" height="15" fill="white"/>
</clipPath>
</defs>
</svg>
