<svg width="34" height="33" viewBox="0 0 34 33" fill="none" xmlns="http://www.w3.org/2000/svg">
<circle cx="16.7626" cy="17" r="13" fill="white"/>
<path d="M18.6811 15.465L16.4634 14.9728C15.6198 14.7806 14.6488 14.5266 14.6488 13.7313C14.6488 12.9343 15.3299 12.3774 16.5596 12.3774C19.0379 12.3774 18.8115 14.0805 20.0419 14.0805C20.6893 14.0805 21.256 13.6998 21.256 13.0452C21.256 11.5178 18.8115 10.3716 16.7378 10.3716C14.4866 10.3716 12.0893 11.3276 12.0893 13.8738C12.0893 15.1 12.5273 16.4045 14.9404 17.0096L17.9367 17.7577C18.8435 17.9811 19.0704 18.4912 19.0704 18.9514C19.0704 19.7167 18.3102 20.4643 16.9331 20.4643C14.2432 20.4643 14.6165 18.3943 13.175 18.3943C12.5273 18.3943 12.0573 18.8404 12.0573 19.477C12.0573 20.7183 13.5643 22.3746 16.9331 22.3746C20.1383 22.3746 21.7265 20.8297 21.7265 18.7607C21.7265 17.4247 21.1106 16.0063 18.6811 15.465Z" fill="#03A9F4"/>
<path d="M16.8897 0.486328C7.98435 0.486328 0.762634 7.70804 0.762634 16.6134C0.762634 25.5188 7.98435 32.7406 16.8897 32.7406C25.7951 32.7406 33.0169 25.5188 33.0169 16.6134C33.0169 7.70804 25.7951 0.486328 16.8897 0.486328ZM25.2862 24.9861C24.2259 26.0469 22.8168 26.6299 21.3177 26.6299C20.3467 26.6299 19.3958 26.3774 18.556 25.9022C18.0109 25.9989 17.4525 26.0499 16.8954 26.0499C15.6153 26.0499 14.3731 25.7989 13.2044 25.3035C12.0744 24.8271 11.0608 24.1428 10.1895 23.2719C9.31909 22.4012 8.63548 21.3876 8.15833 20.2581C7.66322 19.0888 7.41271 17.8473 7.41271 16.5669C7.41271 16.0187 7.46192 15.4697 7.55543 14.9325C7.09452 14.1034 6.84918 13.1654 6.84918 12.2108C6.84918 10.7115 7.43338 9.30166 8.49324 8.24155C9.5536 7.18094 10.9634 6.59699 12.4628 6.59699C13.3811 6.59699 14.2887 6.82609 15.0953 7.25501C15.0968 7.25476 15.0985 7.25476 15.0998 7.25427C15.6879 7.14157 16.292 7.08472 16.8954 7.08472C18.1753 7.08472 19.4172 7.33548 20.5859 7.82985C21.7146 8.3075 22.7295 8.99111 23.5996 9.86174C24.471 10.7326 25.1543 11.7467 25.632 12.876C26.1271 14.0451 26.3776 15.2868 26.3776 16.5669C26.3776 17.144 26.3232 17.7215 26.2196 18.2858C26.6837 19.118 26.9306 20.0593 26.9306 21.017C26.9303 22.5164 26.3469 23.9265 25.2862 24.9861Z" fill="#03A9F4"/>
</svg>
