<svg width="46" height="46" viewBox="0 0 46 46" fill="none" xmlns="http://www.w3.org/2000/svg">
<path d="M25.554 21.3617L22.3912 20.6598C21.1882 20.3857 19.8033 20.0235 19.8033 18.8892C19.8033 17.7525 20.7747 16.9583 22.5284 16.9583C26.0629 16.9583 25.74 19.3872 27.4948 19.3872C28.4181 19.3872 29.2264 18.8443 29.2264 17.9108C29.2264 15.7324 25.74 14.0977 22.7825 14.0977C19.572 14.0977 16.153 15.4611 16.153 19.0924C16.153 20.8412 16.7777 22.7016 20.2192 23.5646L24.4924 24.6315C25.7856 24.9501 26.1092 25.6777 26.1092 26.334C26.1092 27.4254 25.0251 28.4916 23.0612 28.4916C19.2249 28.4916 19.7573 25.5394 17.7014 25.5394C16.7777 25.5394 16.1074 26.1757 16.1074 27.0836C16.1074 28.8538 18.2567 31.216 23.0612 31.216C27.6323 31.216 29.8974 29.0128 29.8974 26.062C29.8974 24.1566 29.019 22.1338 25.554 21.3617Z" fill="#03A9F4"/>
<path d="M23 0C10.2994 0 0 10.2994 0 23C0 35.7006 10.2994 46 23 46C35.7006 46 46 35.7006 46 23C46 10.2994 35.7006 0 23 0ZM34.9748 34.9408C33.4626 36.4538 31.453 37.2852 29.315 37.2852C27.9302 37.2852 26.5741 36.9251 25.3763 36.2474C24.5989 36.3853 23.8026 36.458 23.0081 36.458C21.1824 36.458 19.4108 36.1 17.7441 35.3935C16.1326 34.7141 14.687 33.7381 13.4443 32.4961C12.203 31.2544 11.228 29.8088 10.5475 28.198C9.8414 26.5302 9.48413 24.7597 9.48413 22.9337C9.48413 22.1517 9.55432 21.3688 9.68768 20.6026C9.03035 19.4203 8.68045 18.0825 8.68045 16.7211C8.68045 14.5828 9.51361 12.5722 11.0252 11.0603C12.5374 9.54765 14.548 8.71484 16.6864 8.71484C17.9961 8.71484 19.2904 9.04158 20.4409 9.65329C20.443 9.65294 20.4454 9.65294 20.4472 9.65224C21.2859 9.4915 22.1475 9.41043 23.0081 9.41043C24.8334 9.41043 26.6046 9.76805 28.2713 10.4731C29.8811 11.1543 31.3284 12.1293 32.5694 13.3709C33.8121 14.6129 34.7867 16.0592 35.4679 17.6697C36.174 19.3371 36.5313 21.108 36.5313 22.9337C36.5313 23.7567 36.4538 24.5803 36.306 25.3851C36.9679 26.572 37.3199 27.9144 37.3199 29.2803C37.3195 31.4186 36.4874 33.4296 34.9748 34.9408Z" fill="#03A9F4"/>
</svg>
