<svg width="102" height="96" viewBox="0 0 102 96" fill="none" xmlns="http://www.w3.org/2000/svg">
<path d="M0.778978 39.5876C-2.26193 29.04 3.86991 18.0376 14.4748 15.0131L64.3997 0.774768C75.0047 -2.24971 86.0668 3.84899 89.1077 14.3966L101.221 56.4124C104.262 66.96 98.1301 77.9624 87.5252 80.9869L37.6003 95.2252C26.9953 98.2497 15.9332 92.151 12.8923 81.6034L0.778978 39.5876Z" fill="#8FC19D"/>
<rect x="12" y="13" width="78" height="70" rx="8" fill="white"/>
<path d="M48.5 43C52.6267 43 56 39.6176 56 35.4797C56 31.3417 52.6267 28 48.5 28C44.3733 28 41 31.3359 41 35.4797C41 39.6234 44.3733 43 48.5 43ZM48.5 29.3367C51.8733 29.3367 54.6727 32.0972 54.6727 35.4797C54.6727 38.8621 51.9196 41.6691 48.5 41.6691C45.0804 41.6691 42.3273 38.8679 42.3273 35.4797C42.3273 32.0914 45.0804 29.3367 48.5 29.3367Z" fill="#69AD7D"/>
<path d="M69.2645 58.1415H67.2017V47.6437C67.2017 47.4589 67.1538 47.2801 67.0163 47.1847L65.3242 45.3605C65.8743 44.3113 65.5992 42.9879 64.6844 42.213L62.8069 40.6154C62.2568 40.1563 61.5692 39.9298 60.8815 40.0192C60.1939 40.0669 59.5541 40.3829 59.0937 40.9313C58.1789 42.0282 58.3164 43.7152 59.4166 44.6273L61.2941 46.2249C61.7964 46.6363 62.3943 46.8628 62.9863 46.8628C63.4885 46.8628 63.9908 46.7257 64.4034 46.4515L65.8205 47.9597V58.1415H61.9279C61.7426 50.9761 55.835 45.2234 48.6479 45.2234C41.4129 45.2234 35.5053 50.9761 35.3678 58.1415H33.6876C33.3229 58.1415 33 58.4634 33 58.8271V66.3145C33 66.6781 33.3229 67 33.6876 67H69.3124C69.6771 67 70 66.6781 70 66.3145V58.8271C69.9522 58.4634 69.6353 58.1415 69.2645 58.1415ZM62.1671 45.1757L60.2896 43.5781C59.7395 43.1191 59.6917 42.3441 60.1521 41.7957C60.3793 41.5215 60.6543 41.3844 61.025 41.3367C61.0729 41.3367 61.1147 41.3367 61.1147 41.3367C61.3898 41.3367 61.7127 41.4261 61.9399 41.6586L63.8174 43.2562C64.3675 43.7152 64.4153 44.4902 63.9549 45.0386C63.4945 45.5453 62.7172 45.6348 62.1671 45.1757ZM48.618 46.5468C55.0756 46.5468 60.3853 51.7033 60.5228 58.0998H36.7072C36.8925 51.7033 42.1603 46.5468 48.618 46.5468ZM68.5829 65.6289H34.3274V59.5126H68.5769V65.6289H68.5829Z" fill="#69AD7D"/>
</svg>
