<svg width="18" height="17" viewBox="0 0 18 17" fill="none" xmlns="http://www.w3.org/2000/svg">
<path d="M7.89517 0.927051C8.19452 0.0057404 9.49793 0.0057404 9.79729 0.927051L11.1259 5.01613C11.2598 5.42816 11.6437 5.70712 12.077 5.70712H16.3765C17.3452 5.70712 17.748 6.94673 16.9643 7.51614L13.4859 10.0433C13.1354 10.298 12.9887 10.7493 13.1226 11.1614L14.4512 15.2504C14.7506 16.1718 13.6961 16.9379 12.9124 16.3685L9.43401 13.8413C9.08353 13.5866 8.60893 13.5866 8.25844 13.8413L4.78006 16.3685C3.99635 16.9379 2.94187 16.1718 3.24122 15.2504L4.56984 11.1614C4.70372 10.7493 4.55706 10.298 4.20657 10.0433L0.728189 7.51614C-0.0555246 6.94673 0.347251 5.70712 1.31597 5.70712H5.61549C6.04872 5.70712 6.43267 5.42816 6.56655 5.01614L7.89517 0.927051Z" fill="#F2F2F2"/>
</svg>
