<svg width="18" height="17" viewBox="0 0 18 17" fill="none" xmlns="http://www.w3.org/2000/svg">
<path d="M8.20279 0.927051C8.50214 0.0057404 9.80555 0.0057404 10.1049 0.927051L11.4335 5.01613C11.5674 5.42816 11.9514 5.70712 12.3846 5.70712H16.6841C17.6528 5.70712 18.0556 6.94673 17.2719 7.51614L13.7935 10.0433C13.443 10.298 13.2964 10.7493 13.4302 11.1614L14.7589 15.2504C15.0582 16.1718 14.0037 16.9379 13.22 16.3685L9.74163 13.8413C9.39114 13.5866 8.91655 13.5866 8.56606 13.8413L5.08768 16.3685C4.30396 16.9379 3.24948 16.1718 3.54884 15.2504L4.87746 11.1614C5.01133 10.7493 4.86468 10.298 4.51419 10.0433L1.03581 7.51614C0.252093 6.94673 0.654868 5.70712 1.62359 5.70712H5.92311C6.35633 5.70712 6.74029 5.42816 6.87417 5.01614L8.20279 0.927051Z" fill="#BD8E4C"/>
</svg>
