<svg width="51" height="48" viewBox="0 0 51 48" fill="none" xmlns="http://www.w3.org/2000/svg">
<path d="M24.5876 0.927047C24.887 0.00573659 26.1904 0.00574064 26.4897 0.927051L31.7042 16.9754C31.838 17.3875 32.222 17.6664 32.6552 17.6664H49.5295C50.4982 17.6664 50.901 18.906 50.1173 19.4754L36.4657 29.3939C36.1152 29.6485 35.9686 30.0999 36.1024 30.5119L41.3169 46.5603C41.6162 47.4816 40.5617 48.2477 39.778 47.6783L26.1264 37.7599C25.776 37.5052 25.3014 37.5052 24.9509 37.7599L11.2993 47.6783C10.5156 48.2477 9.46111 47.4816 9.76046 46.5603L14.9749 30.5119C15.1088 30.0999 14.9621 29.6485 14.6116 29.3939L0.960048 19.4754C0.176334 18.906 0.579114 17.6664 1.54784 17.6664H18.4221C18.8553 17.6664 19.2393 17.3875 19.3732 16.9754L24.5876 0.927047Z" fill="#E0E0E0"/>
</svg>
