<svg width="18" height="18" viewBox="0 0 18 18" fill="none" xmlns="http://www.w3.org/2000/svg">
<path d="M6.59455 4.42443L4.26469 0.359414C4.19026 0.229539 4.07693 0.126306 3.9407 0.0642731C3.80447 0.00224017 3.6522 -0.0154626 3.50536 0.0136612L1.52494 0.406462C1.323 0.445028 1.13408 0.534008 0.975736 0.665136C0.817392 0.796264 0.694757 0.965286 0.619226 1.1565C-0.87853 5.05382 0.365272 10.1559 4.08425 13.8858C4.08911 13.8907 4.10922 13.9109 4.11415 13.9158C7.84414 17.6347 12.9461 18.8785 16.8435 17.3808C17.0347 17.3052 17.2037 17.1826 17.3348 17.0243C17.466 16.8659 17.555 16.677 17.5935 16.4751L17.9863 14.4946C18.0155 14.3478 17.9978 14.1955 17.9357 14.0593C17.8737 13.923 17.7704 13.8097 17.6406 13.7353L13.5755 11.4054C13.4396 11.3273 13.2818 11.2961 13.1263 11.3167C12.9709 11.3372 12.8266 11.4084 12.7156 11.5191C11.9522 12.2812 10.3224 13.9081 10.3216 13.9079C8.86051 13.4451 7.53416 12.6333 6.45732 11.5427C5.36671 10.4658 4.55489 9.13948 4.09208 7.67837C4.09184 7.67763 5.71875 6.04783 6.48089 5.28439C6.59164 5.17342 6.66278 5.02908 6.68332 4.87365C6.70386 4.71822 6.67267 4.56036 6.59455 4.42443Z" fill="#DA251D"/>
</svg>
