<svg width="41" height="41" viewBox="0 0 41 41" fill="none" xmlns="http://www.w3.org/2000/svg">
<path opacity="0.4" d="M40.5819 20.1278C40.5819 31.2485 31.5746 40.2557 20.454 40.2557C9.33338 40.2557 0.326172 31.2485 0.326172 20.1278C0.326172 9.00721 9.33338 0 20.454 0C31.5746 0 40.5819 9.00721 40.5819 20.1278Z" fill="#F2F2F2"/>
<path d="M27.5903 11.7869C27.3368 11.7981 27.1005 11.8719 26.8926 11.956C26.6978 12.0343 25.9535 12.3536 24.7812 12.8563C23.6078 13.3595 22.0542 14.0265 20.3969 14.7392C17.0822 16.1646 13.3557 17.7691 11.447 18.5903C11.3752 18.6212 11.1248 18.7012 10.859 18.9087C10.5932 19.1162 10.3105 19.5462 10.3105 20.0253C10.3105 20.4117 10.4947 20.7955 10.7264 21.0247C10.9582 21.2538 11.2034 21.367 11.4135 21.4528C12.1756 21.7637 14.5394 22.7311 14.9858 22.9137C15.1429 23.3949 15.9985 26.0121 16.1969 26.6536C16.3277 27.0769 16.4522 27.342 16.6143 27.5524C16.6954 27.6576 16.7896 27.7498 16.9038 27.822C16.9494 27.8509 16.9994 27.8731 17.05 27.8936L17.053 27.8951C17.0647 27.8998 17.0747 27.9078 17.0866 27.9119C17.1089 27.9197 17.1238 27.9206 17.1536 27.9271C17.2724 27.9655 17.3923 27.9896 17.4994 27.9896C17.9558 27.9896 18.2352 27.7382 18.2352 27.7382L18.252 27.726L20.5995 25.6954L23.4467 28.3887C23.4868 28.4454 23.8607 28.9585 24.6852 28.9585C25.1748 28.9585 25.5632 28.7128 25.8125 28.4512C26.0618 28.1896 26.2172 27.9147 26.2832 27.5691V27.5676C26.345 27.2411 28.969 13.7703 28.969 13.7703L28.9644 13.7886C29.0412 13.438 29.0613 13.1115 28.9766 12.7893C28.8918 12.467 28.6685 12.1585 28.3916 11.9925C28.1147 11.8266 27.8438 11.7757 27.5903 11.7869ZM27.4441 13.4169C27.4403 13.4397 27.4469 13.4282 27.441 13.455L27.4395 13.4641L27.438 13.4733C27.438 13.4733 24.8465 26.7717 24.7507 27.2782C24.7577 27.2399 24.7257 27.316 24.6928 27.362C24.6464 27.3299 24.5511 27.2888 24.5511 27.2888L24.5359 27.2721L20.6467 23.5931L17.897 25.9696L18.7151 22.6943C18.7151 22.6943 23.8287 17.4009 24.1368 17.0928C24.3848 16.8464 24.4369 16.7604 24.4369 16.6754C24.4369 16.5615 24.3775 16.4789 24.2449 16.4789C24.1256 16.4789 23.9651 16.5949 23.8793 16.6495C22.7616 17.3621 17.8543 20.2221 15.6546 21.5015C15.305 21.3584 12.8764 20.3643 12.0533 20.0284C12.0595 20.0257 12.0575 20.0266 12.064 20.0238C13.9732 19.2024 17.6982 17.5979 21.0123 16.1727C22.6694 15.4601 24.2242 14.7926 25.3966 14.2898C26.551 13.7948 27.3531 13.4541 27.4441 13.4169Z" fill="#4F4F4F"/>
</svg>
