<svg width="33" height="33" viewBox="0 0 33 33" fill="none" xmlns="http://www.w3.org/2000/svg">
<path d="M32.2542 16.1271C32.2542 25.0373 25.0373 32.2542 16.1271 32.2542C7.21688 32.2542 0 25.0373 0 16.1271C0 7.21688 7.21688 0 16.1271 0C25.0373 0 32.2542 7.21688 32.2542 16.1271Z" fill="url(#paint0_linear)"/>
<path d="M13.1703 22.8176C12.6462 22.8176 12.7402 22.616 12.5521 22.1187L11.02 17.0655L20.535 11.1254L21.6505 11.4211L20.7232 13.9476L13.1703 22.8176Z" fill="#C8DAEA"/>
<path d="M13.1704 22.8175C13.5736 22.8175 13.7483 22.6293 13.9768 22.4143C14.3262 22.0783 18.8149 17.7106 18.8149 17.7106L16.0599 17.0386L13.5064 18.6513L13.1704 22.6831V22.8175Z" fill="#A9C9DD"/>
<path d="M13.4391 18.705L19.9437 23.5028C20.6829 23.906 21.2204 23.7044 21.4086 22.8174L24.0561 10.3458C24.3249 9.25718 23.6395 8.77336 22.9272 9.09591L7.39144 15.0898C6.32974 15.5199 6.34318 16.1112 7.20329 16.3665L11.1948 17.6164L20.4275 11.7972C20.8576 11.5284 21.2608 11.6762 20.9382 11.9719L13.4391 18.705Z" fill="url(#paint1_linear)"/>
<defs>
<linearGradient id="paint0_linear" x1="20.8537" y1="5.09751" x2="12.7901" y2="23.9122" gradientUnits="userSpaceOnUse">
<stop stop-color="#37AEE2"/>
<stop offset="1" stop-color="#1E96C8"/>
</linearGradient>
<linearGradient id="paint1_linear" x1="17.3353" y1="15.9304" x2="20.6951" y2="21.3062" gradientUnits="userSpaceOnUse">
<stop stop-color="#EFF7FC"/>
<stop offset="1" stop-color="white"/>
</linearGradient>
</defs>
</svg>
