<svg width="46" height="46" viewBox="0 0 46 46" fill="none" xmlns="http://www.w3.org/2000/svg">
<path d="M46 23C46 35.7075 35.7075 46 23 46C10.2925 46 0 35.7075 0 23C0 10.2925 10.2925 0 23 0C35.7075 0 46 10.2925 46 23Z" fill="url(#paint0_linear)"/>
<path d="M18.7835 32.5418C18.036 32.5418 18.1701 32.2543 17.9018 31.5451L15.7168 24.3385L29.2868 15.8668L30.8776 16.2885L29.5551 19.8918L18.7835 32.5418Z" fill="#C8DAEA"/>
<path d="M18.7834 32.5418C19.3584 32.5418 19.6076 32.2734 19.9334 31.9668C20.4318 31.4876 26.8334 25.2584 26.8334 25.2584L22.9043 24.3001L19.2626 26.6001L18.7834 32.3501V32.5418Z" fill="#A9C9DD"/>
<path d="M19.1668 26.6766L28.4435 33.5191C29.4976 34.0941 30.2643 33.8066 30.5326 32.5416L34.3085 14.7549C34.6918 13.2024 33.7143 12.5124 32.6985 12.9724L10.5418 21.5208C9.02763 22.1341 9.04679 22.9774 10.2735 23.3416L15.966 25.1241L29.1335 16.8249C29.7468 16.4416 30.3218 16.6524 29.8618 17.0741L19.1668 26.6766Z" fill="url(#paint1_linear)"/>
<defs>
<linearGradient id="paint0_linear" x1="29.7409" y1="7.26992" x2="18.2409" y2="34.1029" gradientUnits="userSpaceOnUse">
<stop stop-color="#37AEE2"/>
<stop offset="1" stop-color="#1E96C8"/>
</linearGradient>
<linearGradient id="paint1_linear" x1="24.7234" y1="22.7196" x2="29.5151" y2="30.3863" gradientUnits="userSpaceOnUse">
<stop stop-color="#EFF7FC"/>
<stop offset="1" stop-color="white"/>
</linearGradient>
</defs>
</svg>
