<svg width="30" height="30" viewBox="0 0 30 30" fill="none" xmlns="http://www.w3.org/2000/svg">
<path d="M30 15C30 23.2875 23.2875 30 15 30C6.7125 30 0 23.2875 0 15C0 6.7125 6.7125 0 15 0C23.2875 0 30 6.7125 30 15Z" fill="#37474F"/>
<path d="M12.25 21.2229C11.7625 21.2229 11.85 21.0354 11.675 20.5729L10.25 15.8729L19.1 10.3479L20.1375 10.6229L19.275 12.9729L12.25 21.2229Z" fill="#878787"/>
<path d="M12.25 21.2229C12.625 21.2229 12.7875 21.0479 13 20.8479C13.325 20.5354 17.5 16.4729 17.5 16.4729L14.9375 15.8479L12.5625 17.3479L12.25 21.0979V21.2229Z" fill="white"/>
<path d="M12.4994 17.3978L18.5494 21.8603C19.2369 22.2353 19.7369 22.0478 19.9119 21.2228L22.3744 9.62277C22.6244 8.61027 21.9869 8.16027 21.3244 8.46027L6.87443 14.0353C5.88693 14.4353 5.89943 14.9853 6.69943 15.2228L10.4119 16.3853L18.9994 10.9728C19.3994 10.7228 19.7744 10.8603 19.4744 11.1353L12.4994 17.3978Z" fill="#FEFFFF"/>
</svg>
