<svg width="14" height="13" viewBox="0 0 14 13" fill="none" xmlns="http://www.w3.org/2000/svg">
<path d="M12.9221 0.0011034C12.7325 0.00946819 12.5559 0.064694 12.4004 0.127556C12.2547 0.186155 11.6981 0.424876 10.8214 0.800832C9.94395 1.17712 8.78211 1.67593 7.54274 2.2089C5.064 3.27485 2.27724 4.47473 0.849854 5.08884C0.79618 5.11192 0.608896 5.17175 0.410117 5.32693C0.211339 5.48212 0 5.80368 0 6.16198C0 6.4509 0.137693 6.73793 0.311006 6.9093C0.484318 7.08067 0.667706 7.16533 0.824792 7.22942C1.39475 7.46198 3.16244 8.18536 3.49625 8.32193C3.61373 8.6818 4.25355 10.639 4.40193 11.1187C4.49974 11.4352 4.59285 11.6335 4.71407 11.7908C4.77468 11.8695 4.84514 11.9385 4.93052 11.9925C4.96465 12.0141 5.00207 12.0307 5.03989 12.046L5.04217 12.0472C5.05088 12.0507 5.05839 12.0566 5.06723 12.0597C5.0839 12.0655 5.09505 12.0662 5.11735 12.0711C5.2062 12.0998 5.2959 12.1178 5.37596 12.1178C5.71727 12.1178 5.9262 11.9298 5.9262 11.9298L5.93873 11.9207L7.69426 10.4021L9.82345 12.4163C9.85343 12.4587 10.133 12.8423 10.7496 12.8423C11.1158 12.8423 11.4062 12.6586 11.5927 12.463C11.7791 12.2673 11.8953 12.0618 11.9447 11.8034V11.8022C11.9909 11.558 13.9531 1.48436 13.9531 1.48436L13.9497 1.49803C14.0071 1.23584 14.0222 0.991664 13.9588 0.750707C13.8954 0.509749 13.7284 0.279044 13.5213 0.154897C13.3143 0.030778 13.1117 -0.00726145 12.9221 0.0011034ZM12.8128 1.22006C12.81 1.23709 12.8148 1.22853 12.8105 1.24854L12.8093 1.25538L12.8082 1.26221C12.8082 1.26221 10.8703 11.207 10.7986 11.5858C10.8039 11.5572 10.7799 11.614 10.7553 11.6484C10.7206 11.6245 10.6494 11.5938 10.6494 11.5938L10.638 11.5812L7.72957 8.83002L5.67329 10.6072L6.28505 8.15788C6.28505 8.15788 10.1091 4.19938 10.3395 3.96899C10.525 3.78467 10.5639 3.72042 10.5639 3.65684C10.5639 3.57169 10.5196 3.50989 10.4204 3.50989C10.3312 3.50989 10.2111 3.59665 10.147 3.63748C9.31109 4.17033 5.64136 6.30912 3.99637 7.26588C3.73495 7.15889 1.91879 6.41547 1.30326 6.16426C1.30792 6.16222 1.30639 6.16294 1.31124 6.16084C2.739 5.54657 5.52459 4.3467 8.00299 3.2809C9.24218 2.74801 10.4049 2.24881 11.2816 1.87283C12.1449 1.50264 12.7447 1.24787 12.8128 1.22006Z" fill="white"/>
</svg>
