<svg width="31" height="30" viewBox="0 0 31 30" fill="none" xmlns="http://www.w3.org/2000/svg">
<path d="M30.0412 14.7604C30.0412 22.9154 23.436 29.5207 15.2809 29.5207C7.12576 29.5207 0.520508 22.9154 0.520508 14.7604C0.520508 6.60526 7.12576 0 15.2809 0C23.436 0 30.0412 6.60526 30.0412 14.7604Z" fill="url(#paint0_linear)"/>
<path d="M12.5755 20.8838C12.0958 20.8838 12.1819 20.6993 12.0097 20.2442L10.6074 15.6193L19.316 10.1826L20.337 10.4532L19.4882 12.7656L12.5755 20.8838Z" fill="#C8DAEA"/>
<path d="M12.5752 20.8838C12.9442 20.8838 13.1041 20.7116 13.3132 20.5148C13.633 20.2072 17.7413 16.2096 17.7413 16.2096L15.2198 15.5946L12.8827 17.0707L12.5752 20.7608V20.8838Z" fill="#A9C9DD"/>
<path d="M12.8213 17.1198L18.7746 21.511C19.4511 21.88 19.9431 21.6955 20.1153 20.8837L22.5385 9.46898C22.7845 8.47265 22.1572 8.02984 21.5053 8.32505L7.28613 13.811C6.31441 14.2046 6.32671 14.7458 7.11393 14.9795L10.7671 16.1234L19.2174 10.7974C19.611 10.5514 19.98 10.6867 19.6848 10.9573L12.8213 17.1198Z" fill="url(#paint1_linear)"/>
<defs>
<linearGradient id="paint0_linear" x1="19.6069" y1="4.6655" x2="12.2267" y2="21.8857" gradientUnits="userSpaceOnUse">
<stop stop-color="#37AEE2"/>
<stop offset="1" stop-color="#1E96C8"/>
</linearGradient>
<linearGradient id="paint1_linear" x1="16.3872" y1="14.5804" x2="19.4623" y2="19.5005" gradientUnits="userSpaceOnUse">
<stop stop-color="#EFF7FC"/>
<stop offset="1" stop-color="white"/>
</linearGradient>
</defs>
</svg>
