<svg width="40" height="40" viewBox="0 0 40 40" fill="none" xmlns="http://www.w3.org/2000/svg">
<path d="M25.5655 13.0876L12.3629 18.1787C11.4619 18.5406 11.4671 19.0433 12.1976 19.2674L15.5873 20.3248L23.4299 15.3766C23.8007 15.151 24.1395 15.2724 23.861 15.5196L17.507 21.2541H17.5055L17.507 21.2549L17.2731 24.7488C17.6157 24.7488 17.7668 24.5916 17.959 24.4062L19.6054 22.8052L23.03 25.3348C23.6615 25.6826 24.115 25.5038 24.2721 24.7503L26.5202 14.1554C26.7503 13.2328 26.168 12.815 25.5655 13.0876Z" fill="url(#paint0_linear)"/>
<circle cx="20" cy="20" r="19.5" stroke="url(#paint1_linear)"/>
<defs>
<linearGradient id="paint0_linear" x1="11.667" y1="19.2554" x2="26.5716" y2="19.2554" gradientUnits="userSpaceOnUse">
<stop stop-color="#1CB86D"/>
<stop offset="1" stop-color="#00B6EF"/>
</linearGradient>
<linearGradient id="paint1_linear" x1="-2.23517e-07" y1="20" x2="40" y2="20" gradientUnits="userSpaceOnUse">
<stop stop-color="#1CB86D"/>
<stop offset="1" stop-color="#00B6EF"/>
</linearGradient>
</defs>
</svg>
