<svg width="10" height="16" viewBox="0 0 10 16" fill="none" xmlns="http://www.w3.org/2000/svg">
<path d="M5.09715 7.84471C7.32606 7.84401 9.13148 6.08692 9.13076 3.92095C9.13004 1.7543 7.32247 -0.000698714 5.09427 2.08686e-07C2.86608 0.000699131 1.05994 1.75779 1.06066 3.92375C1.06354 6.08901 2.86967 7.84331 5.09715 7.84471ZM5.09715 2.29945C6.02035 2.29945 6.76883 3.02703 6.76883 3.92445C6.76883 4.82187 6.02035 5.54875 5.09715 5.54875C4.17395 5.54875 3.42546 4.82117 3.42546 3.92375C3.4269 3.02703 4.17467 2.30015 5.09715 2.29945ZM6.72857 11.0451C7.55902 10.862 8.35136 10.5425 9.07252 10.1015C9.62184 9.75696 9.78002 9.04545 9.42555 8.51148C9.07684 7.98589 8.35927 7.82723 7.81139 8.15503C6.14977 9.16497 4.04021 9.16497 2.37859 8.15503C1.82712 7.81885 1.09877 7.9796 0.751488 8.51497C0.402771 9.05105 0.566704 9.76115 1.1189 10.1001C1.11962 10.1001 1.12034 10.1008 1.12034 10.1008C1.84078 10.5411 2.63312 10.8606 3.46285 11.0444L1.20662 13.2376C0.75724 13.6989 0.778091 14.4272 1.25335 14.864C1.70992 15.2833 2.42317 15.2833 2.87974 14.864L5.09571 12.7085L7.31312 14.864C7.77472 15.312 8.52177 15.312 8.98337 14.864C9.44425 14.4153 9.44425 13.6891 8.98337 13.2404L6.72857 11.0451Z" fill="white"/>
</svg>
