<svg width="25" height="25" viewBox="0 0 25 25" fill="none" xmlns="http://www.w3.org/2000/svg">
<circle cx="12.5" cy="12.5" r="12.5" fill="#E0E0E0"/>
<path d="M14.6021 7.50222V7.5H15.1882L15.4024 7.54218C15.5452 7.56956 15.6748 7.60544 15.7913 7.64983C15.9077 7.69423 16.0204 7.74603 16.1294 7.80522C16.2384 7.86441 16.3372 7.92472 16.4258 7.98613C16.5138 8.0468 16.5927 8.11118 16.6625 8.17925C16.7317 8.24806 16.8395 8.26582 16.986 8.23252C17.1326 8.19922 17.2903 8.15297 17.4594 8.09378C17.6285 8.03459 17.7957 7.968 17.961 7.89401C18.1263 7.82001 18.227 7.77303 18.2631 7.75305C18.2984 7.73234 18.3172 7.72124 18.3194 7.71976L18.3217 7.71643L18.333 7.71088L18.3442 7.70533L18.3555 7.69978L18.3668 7.69423L18.369 7.6909L18.3724 7.68868L18.3758 7.68646L18.378 7.68313L18.3893 7.6798L18.4006 7.67758L18.3983 7.69423L18.3949 7.71088L18.3893 7.72752L18.3837 7.74417L18.378 7.75527L18.3724 7.76637L18.3668 7.78302C18.363 7.79412 18.3593 7.80891 18.3555 7.82741C18.3517 7.84592 18.316 7.9199 18.2484 8.04939C18.1808 8.17888 18.0963 8.31021 17.9948 8.4434C17.8934 8.57658 17.8025 8.6772 17.7221 8.74528C17.6409 8.8141 17.5872 8.86219 17.5609 8.88957C17.5346 8.91768 17.5026 8.94357 17.4651 8.96726L17.4087 9.00388L17.3974 9.00943L17.3862 9.01498L17.3839 9.01831L17.3805 9.02053L17.3771 9.02275L17.3749 9.02608L17.3636 9.03163L17.3523 9.03718L17.3501 9.04051L17.3467 9.04273L17.3433 9.04495L17.3411 9.04828L17.3388 9.05161L17.3354 9.05383L17.3321 9.05605L17.3298 9.05938H17.3862L17.7018 8.99279C17.9122 8.94839 18.1132 8.89475 18.3048 8.83185L18.6091 8.73196L18.6429 8.72087L18.6598 8.71532L18.6711 8.70977L18.6824 8.70422L18.6936 8.69867L18.7049 8.69312L18.7275 8.68979L18.75 8.68757V8.70977L18.7444 8.71199L18.7387 8.71532L18.7365 8.71865L18.7331 8.72087L18.7297 8.72309L18.7275 8.72642L18.7252 8.72974L18.7218 8.73196L18.7184 8.73418L18.7162 8.73751L18.7139 8.74084L18.7105 8.74306L18.7049 8.75416L18.6993 8.76526L18.6959 8.76748C18.6944 8.7697 18.6467 8.83259 18.5527 8.95616C18.4588 9.08047 18.4081 9.14335 18.4006 9.14484C18.3931 9.14706 18.3825 9.15816 18.369 9.17814C18.3563 9.19885 18.2766 9.28135 18.1301 9.42564C17.9835 9.56992 17.84 9.69829 17.6995 9.81077C17.5582 9.92397 17.4869 10.0631 17.4854 10.2281C17.4831 10.3923 17.4745 10.5781 17.4594 10.7852C17.4444 10.9924 17.4162 11.2162 17.3749 11.4567C17.3336 11.6972 17.2697 11.9691 17.1833 12.2725C17.0969 12.5758 16.9917 12.8718 16.8677 13.1604C16.7437 13.4489 16.6141 13.7079 16.4788 13.9373C16.3436 14.1667 16.2196 14.3609 16.1069 14.52C15.9941 14.6791 15.8796 14.8289 15.7631 14.9695C15.6466 15.1101 15.4993 15.2684 15.3212 15.4445C15.1424 15.6199 15.0447 15.7161 15.0282 15.7331C15.0109 15.7494 14.9373 15.81 14.8073 15.9151C14.678 16.0209 14.539 16.1267 14.3902 16.2325C14.2422 16.3376 14.1062 16.4253 13.9822 16.4956C13.8582 16.5658 13.7087 16.6461 13.5336 16.7364C13.3593 16.8274 13.1706 16.9118 12.9678 16.9895C12.7649 17.0671 12.5507 17.1393 12.3253 17.2059C12.0999 17.2725 11.882 17.3243 11.6716 17.3613C11.4612 17.3983 11.2226 17.4297 10.9558 17.4556L10.5557 17.4945V17.5H9.82304V17.4945L9.72723 17.4889C9.66337 17.4852 9.61076 17.4815 9.56943 17.4778C9.52811 17.4741 9.37218 17.4538 9.10167 17.4168C8.83115 17.3798 8.61888 17.3428 8.46483 17.3058C8.3108 17.2688 8.0816 17.1985 7.77728 17.0949C7.47295 16.9913 7.21258 16.8866 6.99617 16.7808C6.78051 16.6757 6.64525 16.6091 6.5904 16.581C6.53629 16.5536 6.47543 16.5196 6.4078 16.4789L6.30636 16.4179L6.30411 16.4145L6.30072 16.4123L6.29734 16.4101L6.29509 16.4068L6.28381 16.4012L6.27254 16.3957L6.2703 16.3923L6.26691 16.3901L6.26353 16.3879L6.26127 16.3846L6.25903 16.3812L6.25564 16.379H6.25V16.3568L6.26127 16.359L6.27254 16.3624L6.32326 16.3679C6.35708 16.3716 6.44913 16.3772 6.59941 16.3846C6.74971 16.392 6.90938 16.392 7.07845 16.3846C7.24752 16.3772 7.42036 16.3605 7.59693 16.3346C7.77352 16.3087 7.98204 16.2643 8.2225 16.2014C8.46296 16.1385 8.68388 16.0638 8.88527 15.9772C9.0859 15.8899 9.22866 15.8248 9.31358 15.7819C9.39773 15.7397 9.52623 15.6613 9.69905 15.5466L9.9583 15.3746L9.96055 15.3713L9.96393 15.369L9.96732 15.3668L9.96957 15.3635L9.97182 15.3602L9.9752 15.3579L9.9786 15.3557L9.98084 15.3524L9.99211 15.3491L10.0034 15.3468L10.0056 15.3357L10.009 15.3246L10.0124 15.3224L10.0147 15.3191L9.92448 15.3135C9.86437 15.3098 9.80613 15.3061 9.74977 15.3024C9.69342 15.2987 9.60513 15.2821 9.4849 15.2525C9.36468 15.2229 9.23505 15.1785 9.09603 15.1193C8.95702 15.0601 8.82176 14.9898 8.69026 14.9084C8.55877 14.827 8.46371 14.7593 8.40509 14.7053C8.34724 14.652 8.27209 14.5766 8.17967 14.4789C8.088 14.3805 8.00834 14.2795 7.94071 14.1759C7.87308 14.0723 7.80846 13.9528 7.74686 13.8174L7.65329 13.6154L7.64766 13.5988L7.64202 13.5821L7.63864 13.571L7.63638 13.5599L7.65329 13.5622L7.6702 13.5655L7.79418 13.5821C7.87685 13.5932 8.00647 13.5969 8.18305 13.5932C8.35964 13.5895 8.48174 13.5821 8.54937 13.571C8.617 13.5599 8.65833 13.5525 8.67335 13.5488L8.6959 13.5433L8.72408 13.5377L8.75225 13.5322L8.75451 13.5289L8.75789 13.5266L8.76128 13.5244L8.76353 13.5211L8.74098 13.5155L8.71844 13.51L8.6959 13.5044L8.67335 13.4989L8.65081 13.4933C8.63579 13.4896 8.60949 13.4822 8.57191 13.4711C8.53434 13.46 8.4329 13.4193 8.26758 13.3491C8.10228 13.2788 7.97077 13.2103 7.87308 13.1437C7.77515 13.0769 7.68177 13.0039 7.59355 12.9251C7.50564 12.8452 7.40908 12.7423 7.30388 12.6165C7.19868 12.4908 7.10476 12.3446 7.02209 12.1781C6.93944 12.0117 6.87745 11.8526 6.83611 11.7009C6.79495 11.5501 6.76779 11.3959 6.75497 11.2403L6.73467 11.0072L6.74594 11.0094L6.75721 11.0128L6.76849 11.0183L6.77976 11.0239L6.79103 11.0294L6.8023 11.035L6.97701 11.1127C7.09349 11.1645 7.23813 11.2088 7.41096 11.2458C7.58379 11.2828 7.68711 11.3032 7.72092 11.3069L7.77164 11.3124H7.87308L7.87084 11.3091L7.86745 11.3069L7.86407 11.3047L7.86181 11.3013L7.85957 11.298L7.85618 11.2958L7.8528 11.2936L7.85054 11.2902L7.83927 11.2847L7.828 11.2791L7.82576 11.2758L7.82236 11.2736L7.81898 11.2714L7.81673 11.268L7.80546 11.2625L7.79418 11.2569L7.79194 11.2536C7.78969 11.2521 7.75737 11.2284 7.695 11.1826C7.63337 11.136 7.56876 11.0757 7.50113 11.0017C7.4335 10.9277 7.36587 10.85 7.29824 10.7686C7.23049 10.687 7.17014 10.5997 7.1179 10.5078C7.06531 10.4153 7.00969 10.2976 6.95108 10.1548C6.89323 10.0128 6.84927 9.86959 6.81921 9.72531C6.78916 9.58102 6.77225 9.43859 6.76849 9.298C6.76473 9.15741 6.76849 9.03718 6.77976 8.93729C6.79103 8.8374 6.81357 8.72456 6.84738 8.59878C6.8812 8.473 6.93005 8.33981 6.99391 8.19922L7.08972 7.98835L7.09536 7.9717L7.10099 7.95505L7.10438 7.95283L7.10663 7.9495L7.10888 7.94617L7.11226 7.94395L7.11566 7.94617L7.1179 7.9495L7.12015 7.95283L7.12353 7.95505L7.12693 7.95727L7.12917 7.9606L7.13142 7.96393L7.13481 7.96615L7.14044 7.97725L7.14608 7.98835L7.14947 7.99057L7.15171 7.9939L7.30388 8.16038C7.40532 8.27137 7.52555 8.39531 7.66456 8.53219C7.80358 8.66907 7.8806 8.7401 7.89563 8.74528C7.91066 8.7512 7.92944 8.76821 7.95198 8.79634C7.97453 8.82372 8.04967 8.8892 8.17741 8.99279C8.30516 9.09637 8.47235 9.21661 8.67899 9.3535C8.88564 9.49038 9.11482 9.62542 9.36655 9.7586C9.61828 9.89179 9.8888 10.012 10.1781 10.1193C10.4674 10.2266 10.6703 10.2969 10.7867 10.3302C10.9032 10.3635 11.1023 10.406 11.3841 10.4578C11.6659 10.5096 11.8782 10.5429 12.021 10.5577C12.1637 10.5725 12.2614 10.581 12.314 10.5832L12.3929 10.5855L12.3907 10.5688L12.3873 10.5522L12.3647 10.4134C12.3497 10.3209 12.3422 10.1915 12.3422 10.025C12.3422 9.85849 12.3554 9.70496 12.3816 9.56437C12.408 9.42378 12.4474 9.28135 12.5 9.13707C12.5526 8.99279 12.6041 8.87698 12.6544 8.78968C12.7055 8.70311 12.7724 8.60433 12.855 8.49334C12.9377 8.38235 13.0448 8.26767 13.1763 8.14928C13.3078 8.03089 13.4581 7.92545 13.6271 7.83296C13.7962 7.74048 13.9521 7.67018 14.0949 7.62209C14.2377 7.574 14.3579 7.54254 14.4556 7.52775C14.5533 7.51295 14.6021 7.50444 14.6021 7.50222Z" fill="#333333"/>
</svg>
