<svg width="11" height="14" viewBox="0 0 11 14" fill="none" xmlns="http://www.w3.org/2000/svg">
<rect x="0.5" y="5.60156" width="10" height="7.10526" rx="0.5" fill="#9D9D9D" stroke="#9D9D9D"/>
<path fill-rule="evenodd" clip-rule="evenodd" d="M3.48362 2.12459C3.18054 2.8784 3.17286 3.91853 3.17286 5.10182H2.17286C2.17286 5.08038 2.17286 5.05888 2.17286 5.03733C2.17271 3.93592 2.17254 2.70477 2.55581 1.75154C2.75911 1.24593 3.07765 0.79447 3.57281 0.475235C4.0646 0.158174 4.68644 0 5.44856 0C6.21062 0 6.83242 0.158179 7.32419 0.47524C7.81932 0.794472 8.13787 1.24592 8.34118 1.75153C8.72458 2.70497 8.72439 3.93645 8.72423 5.03809C8.72423 5.05938 8.72423 5.08063 8.72423 5.10183L7.72423 5.10181C7.72425 3.91856 7.7165 2.87842 7.41338 2.12461C7.26973 1.76737 7.06784 1.49979 6.78231 1.3157C6.49342 1.12944 6.07434 1 5.44856 1C4.82269 1 4.40358 1.12944 4.11467 1.3157C3.82914 1.49979 3.62726 1.76737 3.48362 2.12459Z" fill="#9D9D9D"/>
</svg>
