<svg width="24" height="20" viewBox="0 0 24 20" fill="none" xmlns="http://www.w3.org/2000/svg">
<path d="M23.4825 0.616165C23.4376 0.502708 23.3343 0.422871 23.2132 0.408058C23.0924 0.3933 22.9727 0.445896 22.9019 0.545206C22.4813 1.13491 21.9293 1.33147 21.29 1.55911C20.7745 1.74275 20.2413 1.93249 19.6652 2.34615C18.8503 2.93114 18.4776 3.72856 18.6635 4.48437L18.6436 4.50983C18.3034 4.01623 17.9331 3.55968 17.5424 3.15201C15.7145 1.2447 13.1604 0.0980339 10.5347 0.00610288C10.419 0.00205281 10.3014 0 10.1852 0C7.25333 0 4.44702 1.31067 2.48596 3.59585C0.535156 5.86922 -0.329506 8.82859 0.113782 11.7152C0.150843 11.9565 0.197225 12.2002 0.251762 12.4399C0.972785 15.6135 2.81435 18.0277 5.30431 19.0633C5.91809 19.3187 6.53719 19.448 7.1442 19.448C8.65233 19.448 9.9696 18.6414 10.7584 17.235C11.0582 16.6998 11.2516 16.1464 11.3331 15.5899C11.3812 15.2615 11.3483 14.9333 11.3165 14.6153C11.2837 14.288 11.2527 13.9786 11.3023 13.6672C11.4159 12.9532 11.9146 12.5269 12.6364 12.5269C12.8418 12.5269 13.0516 12.5606 13.2611 12.6274C13.0158 13.0773 12.793 13.507 12.5983 13.9052C12.1857 14.7492 11.9011 15.4481 11.7521 15.9824C11.6603 16.3119 11.4164 17.1875 12.0112 17.6004C12.2001 17.7315 12.4396 17.7778 12.6889 17.7314C12.9136 17.6897 13.5971 17.5627 15.5394 15.3515C16.0607 14.7582 16.6224 14.0715 17.2096 13.3102C18.7169 12.8025 19.8898 11.5392 20.2001 10.0875C20.2778 9.7246 20.3102 9.33624 20.2964 8.93284C20.8607 8.06069 21.3557 7.2469 21.8538 6.37209C21.8634 6.35522 21.8728 6.33725 21.8821 6.31883C22.6051 6.12082 23.2277 5.55819 23.5933 4.77142C24.1269 3.62315 24.0875 2.14737 23.4825 0.616165ZM15.3339 6.05352C15.0725 6.46879 14.623 6.71673 14.1315 6.71673C13.8647 6.71673 13.6036 6.64122 13.3767 6.49831C13.0559 6.29625 12.8328 5.9814 12.7489 5.61173C12.6649 5.24206 12.7297 4.86175 12.9319 4.5409C13.1934 4.12563 13.6429 3.87769 14.1344 3.87769C14.4013 3.87769 14.6623 3.9532 14.8892 4.09617C15.2099 4.29812 15.433 4.61297 15.517 4.98269C15.6009 5.35242 15.5359 5.73268 15.3339 6.05352ZM17.1763 8.6252C17.8939 7.56791 18.6527 6.51695 19.3735 5.5821C19.4904 5.68763 19.621 5.79071 19.7626 5.88891C19.9971 6.05163 20.2423 6.17746 20.4929 6.26362C19.8843 7.30433 19.23 8.33537 18.4377 9.50229C17.136 11.4203 15.7825 13.2019 14.6265 14.5191C13.9808 15.2547 13.4158 15.8227 12.9804 16.1745C13.1484 15.6369 13.4696 14.8991 13.9166 14.0249C14.7159 12.4616 15.8735 10.544 17.1763 8.6252ZM4.57746 8.6161C4.31054 8.6161 4.04951 8.5406 3.82254 8.39762C3.50175 8.19562 3.27877 7.88088 3.19477 7.5111C3.11078 7.14138 3.1758 6.76106 3.37792 6.44022C3.63928 6.025 4.08879 5.77706 4.58023 5.77706C4.8472 5.77706 5.10824 5.85257 5.33515 5.99554C5.99737 6.41265 6.19687 7.29073 5.78005 7.95284C5.5184 8.36816 5.06885 8.6161 4.57746 8.6161ZM3.08958 11.7416C3.35106 11.3263 3.80051 11.0783 4.29201 11.0783C4.55887 11.0783 4.81985 11.1539 5.04688 11.2968C5.36766 11.4988 5.59064 11.8136 5.67464 12.1833C5.75869 12.5529 5.69367 12.9332 5.4915 13.2542C5.23013 13.6693 4.78063 13.9173 4.28918 13.9173C4.02226 13.9173 3.76117 13.8418 3.53415 13.6988C3.21336 13.4968 2.99044 13.182 2.9065 12.8123C2.82261 12.4427 2.88769 12.0624 3.08958 11.7416ZM7.6352 3.31168C7.89668 2.89641 8.34618 2.64847 8.83763 2.64847C9.10443 2.64847 9.36547 2.72398 9.59239 2.86689C10.2547 3.28388 10.4542 4.16203 10.0373 4.82424C9.77569 5.23957 9.32619 5.48751 8.83475 5.48751C8.56788 5.48751 8.30685 5.412 8.07994 5.26903C7.7592 5.06708 7.53628 4.75228 7.45228 4.38251C7.36818 4.01284 7.4332 3.63258 7.6352 3.31168Z" fill="#BDBDBD"/>
</svg>
