<svg width="23" height="13" viewBox="0 0 23 13" fill="none" xmlns="http://www.w3.org/2000/svg">
<path d="M21.9956 11.3938C21.9689 11.3361 21.9439 11.2883 21.9207 11.2499C21.5371 10.559 20.8039 9.71084 19.7217 8.70533L19.6988 8.6823L19.6874 8.67101L19.6758 8.65944H19.6642C19.173 8.19123 18.862 7.87641 18.7318 7.71523C18.4934 7.40819 18.4401 7.09741 18.5703 6.78251C18.6623 6.54459 19.008 6.04214 19.6065 5.27447C19.9213 4.86763 20.1706 4.54156 20.3548 4.2959C21.6827 2.53047 22.2584 1.40233 22.0818 0.91105L22.0132 0.796245C21.9671 0.727127 21.8482 0.663897 21.6565 0.606232C21.4644 0.548688 21.2189 0.539172 20.9194 0.577521L17.6038 0.600426C17.55 0.581392 17.4733 0.583166 17.3734 0.606232C17.2736 0.629298 17.2237 0.640872 17.2237 0.640872L17.166 0.669704L17.1202 0.704343C17.0818 0.727248 17.0396 0.767533 16.9935 0.825118C16.9476 0.8825 16.9093 0.949843 16.8786 1.02658C16.5176 1.95531 16.1072 2.81879 15.6466 3.61699C15.3626 4.09294 15.1017 4.50543 14.8635 4.85468C14.6257 5.20382 14.4261 5.46105 14.265 5.62594C14.1037 5.79099 13.9582 5.92322 13.8274 6.0231C13.6969 6.12303 13.5972 6.16525 13.5283 6.14981C13.4591 6.13436 13.394 6.11904 13.3323 6.10371C13.2249 6.0346 13.1386 5.9406 13.0734 5.82164C13.008 5.70268 12.964 5.55295 12.941 5.37258C12.9181 5.19208 12.9045 5.03683 12.9006 4.9063C12.897 4.77593 12.8987 4.59152 12.9065 4.3536C12.9145 4.11557 12.9181 3.95451 12.9181 3.87007C12.9181 3.57835 12.9237 3.26176 12.9352 2.92021C12.9468 2.57865 12.9562 2.30803 12.964 2.10867C12.9718 1.9091 12.9755 1.69795 12.9755 1.47536C12.9755 1.25277 12.9619 1.0782 12.9352 0.951496C12.9087 0.824956 12.8681 0.702126 12.8146 0.583046C12.7607 0.464087 12.682 0.372065 12.5786 0.306738C12.475 0.241492 12.3462 0.189714 12.1929 0.151244C11.786 0.0591821 11.268 0.00938058 10.6385 0.00163816C9.21093 -0.0136854 8.29365 0.0784977 7.88685 0.278067C7.72567 0.362386 7.57982 0.477595 7.4494 0.62333C7.31121 0.792252 7.29193 0.884436 7.3917 0.899598C7.85229 0.968594 8.17836 1.13364 8.37027 1.39459L8.43943 1.53286C8.49322 1.63263 8.54693 1.80925 8.60069 2.06249C8.65436 2.31574 8.689 2.59587 8.70424 2.90275C8.74255 3.46315 8.74255 3.94285 8.70424 4.34191C8.66581 4.74113 8.62952 5.05191 8.59488 5.27451C8.56024 5.4971 8.50846 5.67748 8.43943 5.81559C8.37027 5.95375 8.32426 6.03819 8.30119 6.06883C8.27817 6.09948 8.25897 6.1188 8.24373 6.12638C8.14396 6.16461 8.04021 6.18408 7.93282 6.18408C7.82527 6.18408 7.69486 6.13029 7.54139 6.02278C7.38795 5.91528 7.2287 5.7676 7.06365 5.57953C6.8986 5.39141 6.71246 5.12853 6.50515 4.79085C6.298 4.45317 6.08307 4.05407 5.86047 3.59356L5.67631 3.25958C5.56118 3.04473 5.40391 2.73189 5.20434 2.32134C5.00465 1.91063 4.82815 1.51335 4.67471 1.12957C4.61338 0.968392 4.52124 0.845683 4.39845 0.761243L4.34082 0.726603C4.30251 0.695956 4.24102 0.663413 4.15666 0.628734C4.07218 0.594094 3.98403 0.569254 3.89184 0.553971L0.737249 0.576876C0.41489 0.576876 0.196166 0.649904 0.0809979 0.79576L0.0349063 0.864757C0.0118807 0.903186 0.000267029 0.964561 0.000267029 1.04904C0.000267029 1.13348 0.0232927 1.23712 0.0693843 1.35983C0.529897 2.44215 1.03069 3.48597 1.57178 4.49144C2.11286 5.4969 2.58305 6.30683 2.98207 6.9205C3.38116 7.53461 3.78796 8.1142 4.20247 8.659C4.61697 9.20399 4.89134 9.55325 5.02558 9.70668C5.15999 9.8604 5.26556 9.97533 5.3423 10.0521L5.63018 10.3283C5.81438 10.5126 6.08488 10.7332 6.4418 10.9903C6.7988 11.2475 7.19403 11.5008 7.62768 11.7504C8.06142 11.9997 8.56601 12.2031 9.14173 12.3604C9.71737 12.5179 10.2776 12.5811 10.8226 12.5506H12.1467C12.4152 12.5274 12.6186 12.4429 12.7569 12.2972L12.8027 12.2395C12.8335 12.1937 12.8624 12.1225 12.889 12.0267C12.9159 11.9308 12.9293 11.8251 12.9293 11.7102C12.9214 11.3802 12.9466 11.0828 13.004 10.818C13.0614 10.5533 13.1268 10.3537 13.1999 10.2193C13.273 10.0851 13.3555 9.97174 13.4474 9.87988C13.5394 9.78782 13.605 9.73205 13.6434 9.71285C13.6817 9.69354 13.7122 9.68043 13.7352 9.67257C13.9194 9.61119 14.1362 9.67063 14.3859 9.85117C14.6354 10.0315 14.8694 10.2543 15.0883 10.519C15.307 10.7839 15.5699 11.0811 15.8768 11.4111C16.184 11.7412 16.4526 11.9866 16.6827 12.148L16.9129 12.2862C17.0666 12.3783 17.2662 12.4628 17.5119 12.5395C17.7571 12.6162 17.9719 12.6354 18.1564 12.5971L21.1036 12.5511C21.3952 12.5511 21.622 12.5028 21.7829 12.4071C21.9441 12.3111 22.0399 12.2054 22.0708 12.0905C22.1016 11.9754 22.1032 11.8448 22.0766 11.6988C22.0493 11.5532 22.0224 11.4514 21.9956 11.3938Z" fill="#828282"/>
</svg>
