<svg width="22" height="23" viewBox="0 0 22 23" fill="none" xmlns="http://www.w3.org/2000/svg">
<path d="M21.817 11.0025C21.817 16.8504 17.0394 21.5912 11.1447 21.5912C9.27403 21.5912 7.51681 21.1127 5.98713 20.2749L0.0789261 22.1512L2.00485 16.4684C1.03374 14.8735 0.47446 13.0007 0.47446 11.0018C0.475169 5.15382 5.25135 0.413086 11.1461 0.413086C17.0401 0.414504 21.817 5.15453 21.817 11.0025ZM11.144 2.10155C6.19695 2.10155 2.17285 6.09517 2.17285 11.0046C2.17285 12.9525 2.80797 14.7558 3.88187 16.2231L2.76189 19.5284L6.20829 18.4333C7.62597 19.3633 9.32223 19.9048 11.144 19.9048C16.091 19.9048 20.1165 15.9119 20.1165 11.0025C20.1179 6.09517 16.0917 2.10155 11.144 2.10155ZM16.534 13.4416C16.4674 13.3346 16.293 13.2694 16.0321 13.1389C15.772 13.0085 14.484 12.3812 14.2451 12.2961C14.0041 12.2089 13.8298 12.165 13.6554 12.4251C13.4831 12.6853 12.9813 13.2694 12.8275 13.4437C12.6751 13.6174 12.5227 13.6394 12.2611 13.5111C11.9995 13.3792 11.156 13.107 10.1565 12.2231C9.37894 11.5341 8.85369 10.6856 8.70199 10.4255C8.54818 10.166 8.6864 10.0257 8.81612 9.89669C8.93308 9.77973 9.07768 9.59331 9.20882 9.4409C9.33995 9.28992 9.38319 9.18289 9.47038 9.00922C9.55615 8.83555 9.51291 8.68457 9.44841 8.55343C9.38319 8.42301 8.86078 7.14709 8.64174 6.62751C8.42413 6.10864 8.20651 6.19441 8.0534 6.19441C7.901 6.19441 7.72663 6.17314 7.55225 6.17314C7.37788 6.17314 7.09434 6.23623 6.85546 6.49637C6.61658 6.75652 5.94034 7.38384 5.94034 8.66118C5.94034 9.93993 6.87673 11.1726 7.00786 11.3456C7.13971 11.5178 8.81825 14.2249 11.4771 15.264C14.1374 16.3025 14.1374 15.9559 14.6166 15.9119C15.0972 15.868 16.1647 15.2846 16.3816 14.6792C16.5999 14.0711 16.5999 13.5501 16.534 13.4416Z" fill="#828282"/>
</svg>
