<svg width="13" height="16" viewBox="0 0 13 16" fill="none" xmlns="http://www.w3.org/2000/svg">
<path d="M9.10785 7.25095L6.34003 6.63669C5.2872 6.39683 4.07528 6.07987 4.07528 5.08724C4.07528 4.09246 4.9254 3.39743 6.46011 3.39743C9.55319 3.39743 9.27063 5.52305 10.8063 5.52305C11.6143 5.52305 12.3216 5.04793 12.3216 4.23097C12.3216 2.32464 9.27063 0.894043 6.68247 0.894043C3.87288 0.894043 0.880854 2.08723 0.880854 5.26507C0.880854 6.79548 1.42754 8.42356 4.43922 9.17878L8.17879 10.1124C9.31056 10.3913 9.59373 11.028 9.59373 11.6023C9.59373 12.5575 8.64501 13.4905 6.92633 13.4905C3.56913 13.4905 4.03504 10.907 2.2359 10.907C1.42754 10.907 0.840927 11.4638 0.840927 12.2583C0.840927 13.8075 2.72177 15.8748 6.92633 15.8748C10.9267 15.8748 12.9089 13.9466 12.9089 11.3643C12.9089 9.6969 12.1401 7.92663 9.10785 7.25095Z" fill="#828282"/>
</svg>
