<svg width="11" height="19" viewBox="0 0 11 19" fill="none" xmlns="http://www.w3.org/2000/svg">
<path d="M5.50709 9.80589C8.21735 9.80501 10.4127 7.60865 10.4118 4.9012C10.4109 2.19287 8.21298 -0.000873393 5.50359 2.60857e-07C2.7942 0.000873914 0.598017 2.19724 0.598891 4.90469C0.602388 7.61127 2.79857 9.80414 5.50709 9.80589ZM5.50709 2.87432C6.62966 2.87432 7.53978 3.78379 7.53978 4.90556C7.53978 6.02734 6.62966 6.93594 5.50709 6.93594C4.38451 6.93594 3.47439 6.02646 3.47439 4.90469C3.47614 3.78379 4.38539 2.87519 5.50709 2.87432ZM7.49082 13.8063C8.50062 13.5775 9.46407 13.1782 10.341 12.6269C11.0089 12.1962 11.2013 11.3068 10.7702 10.6394C10.3462 9.98237 9.47369 9.78405 8.80749 10.1938C6.78703 11.4562 4.2219 11.4562 2.20144 10.1938C1.53087 9.77356 0.645227 9.9745 0.222951 10.6437C-0.201074 11.3138 -0.00173821 12.2014 0.669707 12.6252C0.670582 12.6252 0.671456 12.626 0.671456 12.626C1.54748 13.1764 2.51094 13.5757 3.51985 13.8055L0.776369 16.547C0.229946 17.1236 0.2553 18.034 0.833197 18.58C1.38836 19.1042 2.25565 19.1042 2.81081 18.58L5.50534 15.8856L8.20161 18.58C8.7629 19.14 9.67127 19.14 10.2326 18.58C10.793 18.0191 10.793 17.1114 10.2326 16.5505L7.49082 13.8063Z" fill="#828282"/>
</svg>
