<svg width="28" height="28" viewBox="0 0 28 28" fill="none" xmlns="http://www.w3.org/2000/svg">
<path d="M25.1381 4.53391L14.4194 0.0836103C14.1509 -0.0278428 13.8491 -0.0278975 13.5806 0.0836103L2.86185 4.53391C2.45361 4.70345 2.1875 5.10201 2.1875 5.54405V10.954C2.1875 18.4032 6.68987 25.1038 13.5867 27.9189C13.8516 28.027 14.1484 28.027 14.4133 27.9189C21.31 25.1039 25.8125 18.4032 25.8125 10.954V5.54405C25.8125 5.10201 25.5464 4.70345 25.1381 4.53391ZM23.625 10.954C23.625 17.2865 19.9062 23.1161 14 25.7182C8.25158 23.1856 4.375 17.4582 4.375 10.954V6.27423L14 2.278L23.625 6.27423V10.954ZM12.7911 14.6407L17.4922 9.93961C17.9193 9.5125 18.6119 9.51245 19.039 9.93961C19.4662 10.3668 19.4661 11.0593 19.039 11.4864L13.5645 16.9609C13.1372 17.3881 12.4447 17.3879 12.0177 16.9609L8.96098 13.9042C8.53382 13.477 8.53382 12.7845 8.96098 12.3574C9.38815 11.9303 10.0807 11.9302 10.5078 12.3574L12.7911 14.6407Z" fill="black"/>
</svg>
