<svg width="39" height="39" viewBox="0 0 39 39" fill="none" xmlns="http://www.w3.org/2000/svg">
<circle cx="19.118" cy="19.118" r="19.118" fill="#F9FAFE" fill-opacity="0.1"/>
<path d="M24.5666 18.0796C24.5867 15.7841 22.5789 13.6796 20.091 13.3886C20.0415 13.3829 19.9876 13.3742 19.9305 13.365C19.8074 13.3451 19.68 13.3247 19.5515 13.3247C19.0416 13.3247 18.9053 13.6735 18.8694 13.8815C18.8345 14.0838 18.8678 14.2536 18.9681 14.3866C19.137 14.6102 19.4341 14.6499 19.6728 14.6817C19.7427 14.6911 19.8087 14.6998 19.864 14.7119C22.0993 15.1983 22.852 15.963 23.2198 18.1213C23.2288 18.174 23.2329 18.239 23.2372 18.3079C23.2532 18.5659 23.2866 19.1026 23.8792 19.1026H23.8793C23.9286 19.1026 23.9816 19.0985 24.0368 19.0903C24.5887 19.0086 24.5714 18.518 24.5631 18.2823C24.5607 18.2159 24.5585 18.1531 24.5642 18.1113C24.5658 18.1008 24.5666 18.0902 24.5666 18.0796Z" fill="white"/>
<path d="M19.4062 12.5467C19.4725 12.5514 19.5351 12.5558 19.5873 12.5636C23.2579 13.1133 24.946 14.8069 25.4138 18.4093C25.4218 18.4705 25.423 18.5452 25.4243 18.6243C25.429 18.9057 25.4386 19.4912 26.0843 19.5033L26.1043 19.5035C26.3069 19.5035 26.4679 19.4441 26.5832 19.3267C26.7842 19.1219 26.7701 18.8178 26.7588 18.5733C26.7561 18.5134 26.7534 18.4569 26.7541 18.4074C26.8008 14.7231 23.5258 11.3822 19.7457 11.258C19.73 11.2575 19.7151 11.2583 19.6999 11.2603C19.6925 11.2614 19.6788 11.2627 19.6552 11.2627C19.6175 11.2627 19.5711 11.2595 19.5219 11.2563C19.4625 11.2524 19.3951 11.2478 19.3267 11.2478C18.7248 11.2478 18.6103 11.6645 18.5957 11.9128C18.5619 12.4869 19.1322 12.5273 19.4062 12.5467Z" fill="white"/>
<path d="M25.2374 23.0653C25.1593 23.0073 25.0786 22.9472 25.0031 22.888C24.6023 22.5739 24.1759 22.2844 23.7636 22.0044C23.678 21.9464 23.5924 21.8883 23.5072 21.83C22.979 21.4687 22.5041 21.2932 22.0555 21.2932C21.4512 21.2932 20.9243 21.6183 20.4895 22.2594C20.2969 22.5437 20.0631 22.6819 19.7751 22.6819C19.6048 22.6819 19.4113 22.6345 19.2 22.5411C17.4951 21.7883 16.2777 20.634 15.5815 19.1103C15.2449 18.3738 15.354 17.8924 15.9463 17.5007C16.2826 17.2784 16.9087 16.8645 16.8643 16.0721C16.8141 15.1722 14.7751 12.4644 13.9159 12.1569C13.5522 12.0266 13.17 12.0254 12.778 12.1538C11.7903 12.4772 11.0816 13.045 10.7282 13.7958C10.3866 14.5212 10.4021 15.3731 10.7728 16.2592C11.8444 18.8211 13.3511 21.0548 15.2512 22.8981C17.111 24.7025 19.3968 26.1805 22.0452 27.291C22.2839 27.391 22.5343 27.4455 22.7171 27.4853C22.7794 27.499 22.8332 27.5106 22.8724 27.5211C22.894 27.5268 22.9162 27.5299 22.9385 27.5301L22.9594 27.5302C22.9594 27.5302 22.9594 27.5302 22.9595 27.5302C24.2051 27.5302 25.7007 26.4218 26.1601 25.1582C26.5625 24.0517 25.8278 23.5048 25.2374 23.0653Z" fill="white"/>
<path d="M19.9588 15.4731C19.7455 15.4784 19.3017 15.4891 19.146 15.9293C19.0731 16.135 19.0819 16.3135 19.1719 16.4601C19.3042 16.6751 19.5574 16.741 19.7878 16.7771C20.6234 16.9077 21.0525 17.3576 21.1384 18.193C21.1782 18.5825 21.4476 18.8545 21.7934 18.8545H21.7935C21.819 18.8545 21.8451 18.853 21.8711 18.8499C22.2871 18.8017 22.4887 18.5042 22.4705 17.9655C22.4771 17.4034 22.175 16.7652 21.6612 16.2569C21.1456 15.747 20.5241 15.4598 19.9588 15.4731Z" fill="white"/>
</svg>
