<svg width="46" height="46" viewBox="0 0 46 46" fill="none" xmlns="http://www.w3.org/2000/svg">
<circle cx="23" cy="23" r="23" fill="#7B519D"/>
<path d="M29.5558 21.751C29.58 18.9893 27.1645 16.4575 24.1714 16.1074C24.1118 16.1005 24.047 16.0901 23.9783 16.079C23.8301 16.0551 23.6769 16.0305 23.5223 16.0305C22.9088 16.0305 22.7449 16.4501 22.7017 16.7004C22.6597 16.9437 22.6997 17.1481 22.8205 17.308C23.0237 17.577 23.3811 17.6248 23.6682 17.663C23.7524 17.6744 23.8318 17.6849 23.8982 17.6994C26.5875 18.2846 27.493 19.2046 27.9355 21.801C27.9463 21.8645 27.9512 21.9427 27.9564 22.0256C27.9757 22.3359 28.0159 22.9817 28.7288 22.9817H28.7289C28.7882 22.9817 28.852 22.9767 28.9184 22.9668C29.5823 22.8686 29.5615 22.2783 29.5515 21.9947C29.5487 21.9149 29.546 21.8393 29.5529 21.7891C29.5548 21.7764 29.5557 21.7637 29.5558 21.751Z" fill="white"/>
<path d="M23.348 15.0942C23.4276 15.0998 23.503 15.1051 23.5658 15.1145C27.9818 15.7758 30.0126 17.8132 30.5754 22.1471C30.585 22.2208 30.5865 22.3106 30.5881 22.4058C30.5937 22.7444 30.6052 23.4488 31.3821 23.4634L31.4062 23.4636C31.6498 23.4636 31.8436 23.3921 31.9822 23.2508C32.224 23.0045 32.2072 22.6386 32.1935 22.3445C32.1902 22.2724 32.187 22.2044 32.1879 22.1449C32.244 17.7125 28.304 13.6932 23.7564 13.5437C23.7375 13.5431 23.7195 13.5441 23.7013 13.5466C23.6924 13.5479 23.6758 13.5494 23.6475 13.5494C23.6021 13.5494 23.5463 13.5456 23.4872 13.5417C23.4156 13.537 23.3346 13.5315 23.2523 13.5315C22.5281 13.5315 22.3904 14.0328 22.3728 14.3316C22.3322 15.0222 23.0183 15.0708 23.348 15.0942Z" fill="white"/>
<path d="M30.3617 27.7489C30.2678 27.679 30.1708 27.6068 30.0799 27.5355C29.5977 27.1576 29.0848 26.8094 28.5887 26.4725C28.4858 26.4027 28.3828 26.3328 28.2802 26.2627C27.6448 25.8281 27.0735 25.6168 26.5337 25.6168C25.8068 25.6168 25.1729 26.008 24.6498 26.7793C24.4181 27.1213 24.1369 27.2875 23.7904 27.2875C23.5855 27.2875 23.3526 27.2306 23.0984 27.1182C21.0473 26.2125 19.5827 24.8238 18.7452 22.9907C18.3403 22.1047 18.4716 21.5256 19.1841 21.0542C19.5887 20.7868 20.3419 20.289 20.2885 19.3356C20.2281 18.2529 17.775 14.9954 16.7414 14.6254C16.3038 14.4687 15.8441 14.4672 15.3724 14.6217C14.1842 15.0107 13.3316 15.6938 12.9064 16.597C12.4955 17.4698 12.5141 18.4946 12.96 19.5607C14.2493 22.6428 16.062 25.3301 18.3478 27.5476C20.5852 29.7184 23.3353 31.4966 26.5214 32.8325C26.8085 32.9528 27.1098 33.0185 27.3297 33.0664C27.4047 33.0828 27.4694 33.0968 27.5166 33.1094C27.5425 33.1162 27.5693 33.12 27.5961 33.1202L27.6212 33.1203C27.6213 33.1203 27.6212 33.1203 27.6214 33.1203C29.1199 33.1203 30.9192 31.7869 31.4718 30.2666C31.956 28.9355 31.072 28.2775 30.3617 27.7489Z" fill="white"/>
<path d="M24.0112 18.615C23.7546 18.6214 23.2207 18.6343 23.0333 19.1638C22.9457 19.4113 22.9562 19.6261 23.0646 19.8024C23.2236 20.0611 23.5284 20.1404 23.8055 20.1839C24.8107 20.3409 25.327 20.8822 25.4303 21.8872C25.4782 22.3558 25.8023 22.683 26.2183 22.683H26.2184C26.2491 22.683 26.2805 22.6812 26.3118 22.6775C26.8122 22.6196 27.0548 22.2616 27.0329 21.6136C27.0409 20.9373 26.6774 20.1695 26.0593 19.5579C25.439 18.9445 24.6913 18.599 24.0112 18.615Z" fill="white"/>
</svg>
