<svg width="17" height="17" viewBox="0 0 17 17" fill="none" xmlns="http://www.w3.org/2000/svg">
<path d="M14.2686 1.65421C13.8471 1.26533 12.144 0.0289702 8.35044 0.0121732C8.35044 0.0121732 3.87684 -0.257597 1.69602 1.74278C0.482055 2.957 0.0550029 4.73366 0.00995632 6.93637C-0.0350903 9.13907 -0.0933709 13.2671 3.88574 14.3864H3.88956L3.88702 16.0943C3.88702 16.0943 3.86157 16.7858 4.31687 16.9268C4.86761 17.0978 5.19082 16.5723 5.71662 16.0057C6.00522 15.6947 6.40377 15.2379 6.70408 14.8887C9.42546 15.1178 11.5185 14.5943 11.7562 14.5169C12.3056 14.3388 15.4149 13.9402 15.9206 9.81273C16.4425 5.55825 15.6681 2.86716 14.2686 1.65421ZM14.7298 9.50758C14.303 12.954 11.7811 13.1706 11.3161 13.3197C11.1184 13.3834 9.28014 13.8407 6.96851 13.6898C6.96851 13.6898 5.24605 15.7678 4.70803 16.3081C4.62405 16.3926 4.5253 16.4267 4.45939 16.4099C4.36675 16.3872 4.3413 16.2776 4.34232 16.1172C4.34384 15.8882 4.35708 13.279 4.35708 13.279C4.35708 13.279 4.35504 13.279 4.35708 13.279C0.991056 12.3445 1.18728 8.83112 1.22545 6.99134C1.26363 5.15156 1.60924 3.6444 2.63589 2.63073C4.48051 0.959933 8.28046 1.2096 8.28046 1.2096C11.4895 1.2236 13.0271 2.18993 13.3837 2.51366C14.5676 3.52733 15.1708 5.95298 14.7298 9.50657V9.50758Z" fill="#7360F2"/>
<path fill-rule="evenodd" clip-rule="evenodd" d="M8.41558 5.50318C8.42175 5.38485 8.52268 5.29393 8.64101 5.3001C9.08372 5.3232 9.45205 5.4572 9.71437 5.72844C9.9757 5.99863 10.1038 6.37609 10.1263 6.82942C10.1322 6.94776 10.041 7.04846 9.92264 7.05433C9.80429 7.0602 9.7036 6.96902 9.69773 6.85068C9.67848 6.46262 9.57201 6.19845 9.40594 6.02674C9.24088 5.85608 8.98899 5.74793 8.61865 5.72861C8.50033 5.72243 8.40941 5.6215 8.41558 5.50318Z" fill="#7360F2"/>
<path fill-rule="evenodd" clip-rule="evenodd" d="M8.09043 4.34782C8.09907 4.22965 8.20188 4.14086 8.32006 4.14951C9.22101 4.21544 9.94619 4.52329 10.4744 5.09989L10.4745 5.09997C10.997 5.6709 11.2453 6.38114 11.2273 7.2142C11.2247 7.33266 11.1266 7.42662 11.0081 7.42405C10.8897 7.42149 10.7957 7.32338 10.7983 7.20491C10.8142 6.47026 10.5982 5.87066 10.158 5.38966C9.71909 4.91064 9.10561 4.63723 8.28874 4.57745C8.17056 4.5688 8.08178 4.46599 8.09043 4.34782Z" fill="#7360F2"/>
<path fill-rule="evenodd" clip-rule="evenodd" d="M7.71168 3.24869C7.7125 3.13021 7.80922 3.03482 7.92771 3.03565C9.17278 3.04432 10.2252 3.45882 11.0702 4.28253C11.9222 5.11314 12.3436 6.24393 12.3543 7.64836C12.3552 7.76685 12.2598 7.86363 12.1414 7.86453C12.0229 7.86543 11.9261 7.77011 11.9252 7.65162C11.9152 6.33561 11.5237 5.32385 10.7707 4.58979C10.0106 3.84884 9.06686 3.47268 7.92472 3.46473C7.80623 3.4639 7.71085 3.36718 7.71168 3.24869Z" fill="#7360F2"/>
<path d="M8.67238 9.71396C8.67238 9.71396 8.97396 9.73941 9.13633 9.53937L9.45293 9.14108C9.60563 8.94359 9.97415 8.81761 10.335 9.01867C10.6055 9.1729 10.868 9.34057 11.1217 9.52105C11.3612 9.69716 11.8516 10.1064 11.8531 10.1064C12.0868 10.3036 12.1407 10.5933 11.9816 10.8987C11.9816 10.9004 11.9804 10.9035 11.9804 10.905C11.8052 11.2087 11.5828 11.4826 11.3215 11.7164C11.3184 11.7179 11.3184 11.7194 11.3156 11.721C11.0886 11.9106 10.8656 12.0185 10.6465 12.0444C10.6143 12.0501 10.5815 12.0521 10.5488 12.0505C10.4522 12.0515 10.3561 12.0367 10.2643 12.0068L10.2572 11.9963C9.91969 11.9011 9.35622 11.6629 8.41788 11.1453C7.87488 10.8492 7.35792 10.5078 6.87255 10.1245C6.62927 9.93247 6.39721 9.72666 6.17751 9.50807L6.1541 9.48466L6.13068 9.46124L6.10727 9.43783C6.09938 9.43019 6.09175 9.4223 6.08386 9.41441C5.86526 9.19472 5.65946 8.96265 5.46746 8.71937C5.08423 8.23406 4.74274 7.71719 4.44666 7.1743C3.929 6.2357 3.69079 5.67275 3.59561 5.33477L3.58517 5.32765C3.55534 5.23579 3.54064 5.13969 3.54165 5.04311C3.53987 5.01042 3.54183 4.97763 3.54751 4.94539C3.57482 4.72669 3.68281 4.50349 3.87148 4.2758C3.87301 4.273 3.87454 4.273 3.87607 4.26994C4.10977 4.00865 4.38366 3.78631 4.68741 3.6113C4.68894 3.6113 4.69199 3.60977 4.69378 3.60977C4.99918 3.45071 5.2888 3.50466 5.48578 3.73702C5.48731 3.73855 5.89578 4.22897 6.07113 4.46845C6.25163 4.72238 6.4193 4.98518 6.57352 5.25588C6.77457 5.6165 6.64859 5.98578 6.4511 6.13798L6.05281 6.45457C5.85175 6.61695 5.87822 6.91853 5.87822 6.91853C5.87822 6.91853 6.46815 9.15126 8.67238 9.71396Z" fill="#7360F2"/>
</svg>
