<svg width="30" height="30" viewBox="0 0 30 30" fill="none" xmlns="http://www.w3.org/2000/svg">
<circle cx="15" cy="15" r="15" fill="#37474F"/>
<path d="M19.2755 14.1854C19.2913 12.3842 17.716 10.7331 15.7639 10.5048C15.7251 10.5003 15.6828 10.4935 15.638 10.4862C15.5414 10.4706 15.4415 10.4546 15.3406 10.4546C14.9405 10.4546 14.8336 10.7283 14.8054 10.8915C14.7781 11.0502 14.8042 11.1835 14.8829 11.2878C15.0154 11.4632 15.2486 11.4944 15.4358 11.5193C15.4907 11.5267 15.5425 11.5336 15.5858 11.543C17.3397 11.9247 17.9302 12.5246 18.2188 14.218C18.2259 14.2594 18.229 14.3104 18.2324 14.3644C18.245 14.5669 18.2712 14.988 18.7362 14.988H18.7362C18.7749 14.988 18.8165 14.9847 18.8598 14.9783C19.2928 14.9142 19.2792 14.5293 19.2727 14.3443C19.2709 14.2922 19.2691 14.243 19.2737 14.2102C19.2749 14.2019 19.2755 14.1936 19.2755 14.1854Z" fill="white"/>
<path d="M15.2269 9.84397C15.2789 9.84762 15.3281 9.85111 15.369 9.85722C18.249 10.2885 19.5735 11.6173 19.9405 14.4437C19.9467 14.4918 19.9477 14.5504 19.9487 14.6124C19.9524 14.8332 19.9599 15.2926 20.4666 15.3021L20.4823 15.3023C20.6412 15.3023 20.7676 15.2556 20.858 15.1635C21.0157 15.0029 21.0047 14.7642 20.9958 14.5725C20.9936 14.5254 20.9916 14.4811 20.9921 14.4423C21.0287 11.5516 18.4591 8.93028 15.4933 8.8328C15.481 8.83241 15.4692 8.83304 15.4574 8.83467C15.4516 8.8355 15.4408 8.83653 15.4223 8.83653C15.3927 8.83653 15.3563 8.83403 15.3177 8.83149C15.2711 8.8284 15.2182 8.82483 15.1646 8.82483C14.6923 8.82483 14.6025 9.15174 14.591 9.34662C14.5645 9.797 15.0119 9.8287 15.2269 9.84397Z" fill="white"/>
<path d="M19.801 18.097C19.7397 18.0515 19.6764 18.0043 19.6171 17.9578C19.3027 17.7114 18.9682 17.4843 18.6446 17.2646C18.5775 17.2191 18.5104 17.1735 18.4435 17.1278C18.029 16.8443 17.6565 16.7066 17.3044 16.7066C16.8303 16.7066 16.417 16.9617 16.0758 17.4647C15.9246 17.6877 15.7413 17.7961 15.5153 17.7961C15.3816 17.7961 15.2298 17.759 15.064 17.6857C13.7264 17.095 12.7712 16.1893 12.2249 14.9938C11.9609 14.416 12.0465 14.0383 12.5112 13.7309C12.7751 13.5565 13.2663 13.2319 13.2315 12.6101C13.1921 11.904 11.5922 9.77951 10.9182 9.53822C10.6328 9.43602 10.3329 9.43506 10.0253 9.53584C9.25041 9.78951 8.69432 10.235 8.41704 10.8241C8.14908 11.3933 8.16118 12.0616 8.45203 12.7569C9.29286 14.767 10.475 16.5195 11.9658 17.9658C13.425 19.3815 15.2185 20.5412 17.2964 21.4124C17.4837 21.4909 17.6801 21.5337 17.8236 21.5649C17.8725 21.5757 17.9147 21.5848 17.9454 21.593C17.9623 21.5975 17.9798 21.5999 17.9973 21.6001L18.0137 21.6001C18.0137 21.6001 18.0137 21.6001 18.0138 21.6001C18.9911 21.6001 20.1645 20.7305 20.5249 19.739C20.8407 18.8709 20.2642 18.4418 19.801 18.097Z" fill="white"/>
<path d="M15.6604 12.1402C15.4931 12.1443 15.1449 12.1527 15.0227 12.4981C14.9655 12.6595 14.9724 12.7996 15.043 12.9146C15.1468 13.0833 15.3455 13.135 15.5263 13.1633C16.1819 13.2658 16.5185 13.6188 16.5859 14.2742C16.6172 14.5798 16.8285 14.7932 17.0998 14.7932H17.0999C17.1199 14.7932 17.1404 14.7921 17.1608 14.7896C17.4872 14.7518 17.6454 14.5183 17.6311 14.0957C17.6363 13.6547 17.3993 13.154 16.9961 12.7551C16.5916 12.3551 16.104 12.1297 15.6604 12.1402Z" fill="white"/>
</svg>
