<svg width="30" height="30" viewBox="0 0 30 30" fill="none" xmlns="http://www.w3.org/2000/svg">
<circle cx="14.7604" cy="14.7604" r="14.7604" fill="#7B519D"/>
<path d="M18.9676 13.9585C18.9831 12.1861 17.433 10.5614 15.5121 10.3367C15.4739 10.3323 15.4323 10.3256 15.3882 10.3185C15.2931 10.3031 15.1948 10.2874 15.0956 10.2874C14.7019 10.2874 14.5967 10.5567 14.5689 10.7173C14.542 10.8734 14.5677 11.0046 14.6452 11.1072C14.7756 11.2798 15.005 11.3105 15.1892 11.335C15.2432 11.3423 15.2942 11.349 15.3368 11.3584C17.0627 11.7339 17.6438 12.3243 17.9278 13.9906C17.9347 14.0313 17.9378 14.0815 17.9412 14.1347C17.9536 14.3339 17.9794 14.7483 18.4369 14.7483H18.4369C18.475 14.7483 18.516 14.7451 18.5586 14.7388C18.9846 14.6757 18.9713 14.2969 18.9649 14.1149C18.963 14.0637 18.9613 14.0152 18.9658 13.9829C18.967 13.9748 18.9676 13.9666 18.9676 13.9585Z" fill="white"/>
<path d="M14.9824 9.68673C15.0335 9.69032 15.0819 9.69376 15.1222 9.69977C17.9562 10.1242 19.2595 11.4317 19.6206 14.213C19.6268 14.2603 19.6277 14.3179 19.6287 14.379C19.6323 14.5963 19.6398 15.0483 20.1383 15.0577L20.1538 15.0579C20.3101 15.0579 20.4345 15.0119 20.5234 14.9213C20.6786 14.7632 20.6678 14.5284 20.6591 14.3397C20.6569 14.2934 20.6549 14.2498 20.6554 14.2116C20.6915 11.367 18.1629 8.78764 15.2445 8.69172C15.2324 8.69133 15.2208 8.69195 15.2091 8.69355C15.2034 8.69437 15.1928 8.69539 15.1746 8.69539C15.1455 8.69539 15.1097 8.69293 15.0717 8.69043C15.0258 8.68738 14.9738 8.68387 14.921 8.68387C14.4562 8.68387 14.3679 9.00556 14.3566 9.19732C14.3305 9.6405 14.7708 9.6717 14.9824 9.68673Z" fill="white"/>
<path d="M19.4852 17.8079C19.4249 17.7631 19.3626 17.7167 19.3043 17.671C18.9948 17.4285 18.6657 17.205 18.3473 16.9888C18.2812 16.944 18.2152 16.8991 18.1493 16.8542C17.7415 16.5752 17.3749 16.4397 17.0285 16.4397C16.562 16.4397 16.1552 16.6907 15.8195 17.1857C15.6708 17.4051 15.4903 17.5118 15.2679 17.5118C15.1364 17.5118 14.987 17.4753 14.8239 17.4032C13.5076 16.8219 12.5677 15.9307 12.0302 14.7543C11.7703 14.1857 11.8546 13.8141 12.3119 13.5116C12.5715 13.34 13.0549 13.0205 13.0206 12.4086C12.9818 11.7139 11.4076 9.6233 10.7443 9.38586C10.4634 9.28529 10.1684 9.28435 9.86568 9.38352C9.10316 9.63314 8.55596 10.0715 8.2831 10.6512C8.01943 11.2113 8.03133 11.869 8.31754 12.5531C9.14493 14.5311 10.3082 16.2556 11.7752 17.6788C13.211 19.0719 14.9759 20.213 17.0206 21.0704C17.2049 21.1476 17.3982 21.1897 17.5394 21.2204C17.5875 21.231 17.629 21.24 17.6593 21.248C17.6759 21.2525 17.6931 21.2548 17.7103 21.255L17.7264 21.2551C17.7265 21.2551 17.7264 21.2551 17.7265 21.2551C18.6882 21.2551 19.8429 20.3993 20.1976 19.4237C20.5083 18.5694 19.941 18.1472 19.4852 17.8079Z" fill="white"/>
<path d="M15.4094 11.9462C15.2447 11.9503 14.9021 11.9585 14.7818 12.2984C14.7256 12.4572 14.7323 12.5951 14.8019 12.7082C14.9039 12.8742 15.0995 12.9251 15.2774 12.953C15.9225 13.0538 16.2538 13.4012 16.3201 14.0461C16.3509 14.3469 16.5588 14.5568 16.8258 14.5568H16.8259C16.8456 14.5568 16.8657 14.5557 16.8858 14.5533C17.207 14.5161 17.3626 14.2864 17.3486 13.8705C17.3537 13.4365 17.1204 12.9438 16.7237 12.5513C16.3257 12.1576 15.8458 11.9359 15.4094 11.9462Z" fill="white"/>
</svg>
