<svg width="25" height="25" viewBox="0 0 25 25" fill="none" xmlns="http://www.w3.org/2000/svg">
<circle cx="12.0374" cy="12.0371" r="12.0374" fill="#7B519D"/>
<path d="M15.468 11.3835C15.4806 9.93815 14.2164 8.61312 12.6499 8.42989C12.6188 8.42629 12.5848 8.42082 12.5489 8.41502C12.4714 8.40251 12.3912 8.38965 12.3102 8.38965C11.9892 8.38965 11.9034 8.60927 11.8808 8.74025C11.8588 8.8676 11.8797 8.97454 11.9429 9.05825C12.0493 9.19903 12.2363 9.22403 12.3866 9.24405C12.4307 9.24997 12.4722 9.25548 12.507 9.26309C13.9144 9.56934 14.3884 10.0508 14.62 11.4097C14.6256 11.4429 14.6282 11.4839 14.6309 11.5272C14.641 11.6897 14.662 12.0276 15.0352 12.0276H15.0352C15.0662 12.0276 15.0996 12.025 15.1344 12.0199C15.4818 11.9685 15.4709 11.6595 15.4657 11.5111C15.4642 11.4693 15.4628 11.4298 15.4665 11.4035C15.4674 11.3968 15.4679 11.3902 15.468 11.3835Z" fill="white"/>
<path d="M12.2191 7.89964C12.2607 7.90257 12.3002 7.90537 12.3331 7.91027C14.6442 8.25638 15.7071 9.3227 16.0017 11.5909C16.0067 11.6295 16.0074 11.6765 16.0083 11.7263C16.0112 11.9035 16.0173 12.2721 16.4238 12.2798L16.4364 12.2799C16.5639 12.2799 16.6654 12.2425 16.7379 12.1685C16.8645 12.0396 16.8556 11.8481 16.8485 11.6942C16.8468 11.6565 16.8451 11.6209 16.8455 11.5898C16.8749 9.26998 14.8129 7.16641 12.4328 7.08819C12.4229 7.08787 12.4135 7.08838 12.404 7.08968C12.3993 7.09035 12.3906 7.09118 12.3758 7.09118C12.3521 7.09118 12.3229 7.08917 12.2919 7.08714C12.2545 7.08465 12.212 7.08179 12.169 7.08179C11.79 7.08179 11.7179 7.34413 11.7087 7.50052C11.6874 7.86194 12.0465 7.88738 12.2191 7.89964Z" fill="white"/>
<path d="M15.8903 14.5227C15.8412 14.4861 15.7904 14.4483 15.7428 14.411C15.4905 14.2133 15.222 14.031 14.9624 13.8547C14.9085 13.8182 14.8546 13.7816 14.801 13.7449C14.4684 13.5174 14.1694 13.4069 13.8869 13.4069C13.5064 13.4069 13.1747 13.6116 12.9009 14.0153C12.7796 14.1942 12.6325 14.2812 12.4511 14.2812C12.3439 14.2812 12.222 14.2514 12.089 14.1926C11.0155 13.7186 10.249 12.9918 9.81064 12.0324C9.59875 11.5687 9.66744 11.2656 10.0404 11.019C10.2521 10.879 10.6463 10.6184 10.6184 10.1195C10.5868 9.55285 9.30289 7.84796 8.76196 7.65433C8.53293 7.57231 8.2923 7.57155 8.04545 7.65242C7.4236 7.85599 6.97735 8.2135 6.75482 8.68623C6.53979 9.143 6.5495 9.67935 6.78291 10.2373C7.45766 11.8504 8.40634 13.2568 9.60267 14.4174C10.7737 15.5535 12.2129 16.4841 13.8804 17.1833C14.0307 17.2463 14.1884 17.2806 14.3035 17.3057C14.3427 17.3143 14.3766 17.3216 14.4013 17.3282C14.4149 17.3318 14.4289 17.3337 14.4429 17.3339L14.4561 17.3339C14.4561 17.3339 14.4561 17.3339 14.4561 17.3339C15.2404 17.3339 16.1821 16.636 16.4713 15.8404C16.7247 15.1437 16.2621 14.7994 15.8903 14.5227Z" fill="white"/>
<path d="M12.5667 9.74247C12.4324 9.74578 12.153 9.75253 12.0549 10.0297C12.009 10.1592 12.0145 10.2716 12.0713 10.3639C12.1545 10.4993 12.314 10.5408 12.459 10.5635C12.9851 10.6457 13.2553 10.929 13.3094 11.455C13.3345 11.7002 13.5041 11.8715 13.7218 11.8715H13.7219C13.7379 11.8715 13.7544 11.8706 13.7708 11.8686C14.0326 11.8383 14.1596 11.6509 14.1481 11.3118C14.1523 10.9578 13.9621 10.556 13.6386 10.236C13.314 9.9149 12.9226 9.73409 12.5667 9.74247Z" fill="white"/>
</svg>
