<svg width="45" height="45" viewBox="0 0 45 45" fill="none" xmlns="http://www.w3.org/2000/svg">
<circle opacity="0.5" cx="22.3204" cy="22.3204" r="22.3204" fill="#F2F2F2"/>
<path d="M34.3685 28.7861C34.3386 28.7217 34.3108 28.6683 34.2849 28.6255C33.8568 27.8543 33.0385 26.9078 31.8308 25.7857L31.8053 25.76L31.7925 25.7474L31.7796 25.7344H31.7666C31.2185 25.2119 30.8713 24.8606 30.726 24.6807C30.46 24.338 30.4004 23.9912 30.5458 23.6397C30.6485 23.3742 31.0343 22.8135 31.7022 21.9567C32.0535 21.5027 32.3318 21.1388 32.5373 20.8646C34.0193 18.8944 34.6618 17.6353 34.4647 17.0871L34.3882 16.9589C34.3367 16.8818 34.204 16.8112 33.9901 16.7469C33.7757 16.6827 33.5016 16.672 33.1675 16.7148L29.4671 16.7404C29.4071 16.7192 29.3215 16.7211 29.21 16.7469C29.0986 16.7726 29.0429 16.7855 29.0429 16.7855L28.9785 16.8177L28.9274 16.8564C28.8846 16.8819 28.8374 16.9269 28.786 16.9912C28.7348 17.0552 28.692 17.1304 28.6578 17.216C28.255 18.2525 27.7969 19.2161 27.2828 20.1069C26.9659 20.6381 26.6748 21.0985 26.4089 21.4882C26.1435 21.8779 25.9207 22.165 25.741 22.349C25.561 22.5332 25.3985 22.6808 25.2526 22.7922C25.1069 22.9038 24.9957 22.9509 24.9187 22.9336C24.8416 22.9164 24.7689 22.8993 24.7001 22.8822C24.5802 22.8051 24.4838 22.7002 24.4111 22.5674C24.3381 22.4346 24.289 22.2675 24.2633 22.0662C24.2377 21.8648 24.2226 21.6915 24.2183 21.5459C24.2143 21.4004 24.2161 21.1946 24.2248 20.929C24.2337 20.6634 24.2377 20.4836 24.2377 20.3894C24.2377 20.0638 24.2441 19.7105 24.2568 19.3293C24.2698 18.9481 24.2803 18.6461 24.289 18.4236C24.2978 18.2009 24.3018 17.9653 24.3018 17.7168C24.3018 17.4684 24.2867 17.2736 24.2568 17.1322C24.2273 16.991 24.182 16.8539 24.1223 16.721C24.0622 16.5882 23.9742 16.4855 23.8589 16.4126C23.7432 16.3398 23.5995 16.282 23.4284 16.2391C22.9744 16.1364 22.3962 16.0808 21.6937 16.0721C20.1005 16.055 19.0768 16.1579 18.6228 16.3806C18.4429 16.4747 18.2802 16.6033 18.1346 16.766C17.9804 16.9545 17.9589 17.0574 18.0702 17.0743C18.5842 17.1513 18.9481 17.3355 19.1623 17.6267L19.2395 17.781C19.2995 17.8924 19.3595 18.0895 19.4195 18.3721C19.4794 18.6547 19.518 18.9674 19.535 19.3098C19.5778 19.9353 19.5778 20.4706 19.535 20.916C19.4921 21.3615 19.4516 21.7084 19.413 21.9568C19.3743 22.2052 19.3165 22.4065 19.2395 22.5606C19.1623 22.7148 19.111 22.8091 19.0852 22.8433C19.0595 22.8775 19.0381 22.899 19.0211 22.9075C18.9098 22.9501 18.794 22.9719 18.6741 22.9719C18.5541 22.9719 18.4085 22.9119 18.2373 22.7919C18.066 22.6719 17.8883 22.5071 17.7041 22.2972C17.5199 22.0872 17.3122 21.7939 17.0808 21.417C16.8496 21.0401 16.6097 20.5947 16.3613 20.0808L16.1558 19.7081C16.0273 19.4683 15.8518 19.1192 15.6291 18.661C15.4062 18.2026 15.2092 17.7592 15.038 17.3309C14.9695 17.1511 14.8667 17.0141 14.7297 16.9199L14.6654 16.8812C14.6226 16.847 14.554 16.8107 14.4598 16.772C14.3655 16.7333 14.2672 16.7056 14.1643 16.6886L10.6437 16.7141C10.2839 16.7141 10.0398 16.7956 9.9113 16.9584L9.85986 17.0354C9.83417 17.0783 9.82121 17.1468 9.82121 17.2411C9.82121 17.3353 9.8469 17.451 9.89834 17.5879C10.4123 18.7958 10.9712 19.9607 11.575 21.0829C12.1789 22.205 12.7036 23.1089 13.149 23.7937C13.5944 24.4791 14.0484 25.1259 14.511 25.7339C14.9735 26.3422 15.2798 26.7319 15.4296 26.9032C15.5796 27.0747 15.6974 27.203 15.783 27.2886L16.1043 27.597C16.3099 27.8026 16.6118 28.0488 17.0101 28.3357C17.4085 28.6228 17.8496 28.9054 18.3336 29.1841C18.8176 29.4622 19.3808 29.6892 20.0233 29.8648C20.6657 30.0405 21.291 30.1111 21.8992 30.077H23.3769C23.6765 30.0512 23.9036 29.9569 24.0579 29.7943L24.109 29.7299C24.1434 29.6787 24.1756 29.5993 24.2053 29.4924C24.2354 29.3854 24.2503 29.2674 24.2503 29.1391C24.2415 28.7708 24.2696 28.4389 24.3336 28.1434C24.3977 27.848 24.4707 27.6253 24.5523 27.4753C24.6339 27.3255 24.726 27.199 24.8285 27.0965C24.9312 26.9937 25.0043 26.9315 25.0473 26.9101C25.0899 26.8885 25.124 26.8739 25.1497 26.8651C25.3553 26.7966 25.5972 26.863 25.8759 27.0644C26.1543 27.2657 26.4155 27.5143 26.6598 27.8097C26.9039 28.1054 27.1972 28.4371 27.5398 28.8054C27.8826 29.1738 28.1823 29.4476 28.4392 29.6278L28.6961 29.7819C28.8676 29.8848 29.0904 29.9791 29.3645 30.0647C29.6382 30.1503 29.878 30.1717 30.0839 30.1289L33.3731 30.0776C33.6984 30.0776 33.9515 30.0237 34.1311 29.9169C34.311 29.8098 34.4179 29.6918 34.4524 29.5635C34.4868 29.4351 34.4886 29.2894 34.4589 29.1265C34.4284 28.964 34.3984 28.8503 34.3685 28.7861Z" fill="#2787F5"/>
</svg>
