<svg width="30" height="30" viewBox="0 0 30 30" fill="none" xmlns="http://www.w3.org/2000/svg">
<circle cx="15" cy="15" r="15" fill="#2787F5"/>
<path d="M23.0966 19.3452C23.0765 19.3019 23.0578 19.266 23.0404 19.2372C22.7527 18.719 22.2028 18.0829 21.3912 17.3288L21.374 17.3115L21.3654 17.3031L21.3568 17.2944H21.348C20.9797 16.9432 20.7464 16.7071 20.6487 16.5862C20.47 16.3559 20.4299 16.1229 20.5276 15.8867C20.5966 15.7082 20.8559 15.3314 21.3048 14.7557C21.5409 14.4505 21.7279 14.206 21.866 14.0217C22.8619 12.6977 23.2937 11.8516 23.1613 11.4831L23.1098 11.397C23.0752 11.3452 22.986 11.2977 22.8423 11.2545C22.6982 11.2113 22.514 11.2042 22.2895 11.2329L19.8027 11.2501C19.7624 11.2358 19.7049 11.2372 19.63 11.2545C19.5551 11.2718 19.5177 11.2805 19.5177 11.2805L19.4744 11.3021L19.44 11.3281C19.4112 11.3452 19.3796 11.3755 19.345 11.4186C19.3106 11.4617 19.2819 11.5122 19.2589 11.5697C18.9881 12.2663 18.6803 12.9139 18.3348 13.5125C18.1218 13.8695 17.9262 14.1789 17.7476 14.4408C17.5691 14.7027 17.4195 14.8956 17.2987 15.0193C17.1777 15.143 17.0685 15.2422 16.9705 15.3171C16.8726 15.3921 16.7978 15.4237 16.7461 15.4122C16.6942 15.4006 16.6454 15.3891 16.5991 15.3776C16.5186 15.3258 16.4538 15.2553 16.405 15.166C16.3559 15.0768 16.3229 14.9645 16.3056 14.8292C16.2884 14.6939 16.2783 14.5774 16.2754 14.4795C16.2727 14.3818 16.2739 14.2434 16.2798 14.065C16.2857 13.8865 16.2884 13.7657 16.2884 13.7024C16.2884 13.4836 16.2927 13.2461 16.3013 12.99C16.31 12.7338 16.317 12.5308 16.3229 12.3813C16.3288 12.2316 16.3315 12.0733 16.3315 11.9063C16.3315 11.7394 16.3213 11.6085 16.3013 11.5134C16.2814 11.4185 16.251 11.3264 16.2108 11.2371C16.1705 11.1479 16.1114 11.0789 16.0338 11.0299C15.9561 10.9809 15.8595 10.9421 15.7446 10.9132C15.4394 10.8442 15.0509 10.8068 14.5788 10.801C13.5081 10.7895 12.8201 10.8587 12.515 11.0084C12.3942 11.0716 12.2848 11.158 12.187 11.2673C12.0833 11.394 12.0688 11.4631 12.1437 11.4745C12.4891 11.5263 12.7337 11.65 12.8776 11.8457L12.9295 11.9495C12.9698 12.0243 13.0101 12.1567 13.0504 12.3467C13.0907 12.5366 13.1166 12.7467 13.1281 12.9769C13.1568 13.3972 13.1568 13.7569 13.1281 14.0562C13.0993 14.3557 13.072 14.5887 13.0461 14.7557C13.0201 14.9226 12.9812 15.0579 12.9295 15.1615C12.8776 15.2651 12.8431 15.3284 12.8258 15.3514C12.8085 15.3744 12.7941 15.3889 12.7827 15.3946C12.7079 15.4233 12.6301 15.4379 12.5495 15.4379C12.4689 15.4379 12.371 15.3975 12.2559 15.3169C12.1409 15.2363 12.0214 15.1255 11.8976 14.9845C11.7738 14.8434 11.6342 14.6462 11.4788 14.3929C11.3234 14.1397 11.1622 13.8404 10.9953 13.495L10.8571 13.2445C10.7708 13.0834 10.6528 12.8487 10.5032 12.5408C10.3534 12.2328 10.221 11.9348 10.1059 11.647C10.0599 11.5261 9.99082 11.4341 9.89873 11.3707L9.85551 11.3448C9.82678 11.3218 9.78066 11.2974 9.71739 11.2714C9.65403 11.2454 9.58792 11.2267 9.51878 11.2153L7.15283 11.2325C6.91106 11.2325 6.74702 11.2872 6.66065 11.3966L6.62608 11.4484C6.60881 11.4772 6.6001 11.5232 6.6001 11.5866C6.6001 11.6499 6.61737 11.7276 6.65194 11.8197C6.99732 12.6314 7.37292 13.4143 7.77873 14.1684C8.18454 14.9225 8.53718 15.5299 8.83645 15.9902C9.13577 16.4508 9.44087 16.8855 9.75175 17.2941C10.0626 17.7028 10.2684 17.9647 10.3691 18.0798C10.4699 18.1951 10.5491 18.2813 10.6066 18.3389L10.8225 18.5461C10.9607 18.6842 11.1636 18.8497 11.4312 19.0425C11.699 19.2355 11.9954 19.4254 12.3207 19.6126C12.646 19.7996 13.0244 19.9521 13.4562 20.0701C13.8879 20.1882 14.3081 20.2356 14.7169 20.2127H15.7099C15.9113 20.1953 16.0639 20.132 16.1676 20.0227L16.2019 19.9794C16.225 19.9451 16.2467 19.8917 16.2666 19.8199C16.2868 19.7479 16.2969 19.6686 16.2969 19.5824C16.291 19.3349 16.3098 19.1119 16.3529 18.9133C16.3959 18.7148 16.445 18.5651 16.4998 18.4643C16.5547 18.3636 16.6166 18.2786 16.6854 18.2097C16.7544 18.1407 16.8036 18.0988 16.8325 18.0844C16.8611 18.07 16.884 18.0601 16.9013 18.0542C17.0395 18.0082 17.202 18.0528 17.3893 18.1882C17.5764 18.3235 17.7519 18.4905 17.9161 18.689C18.0802 18.8877 18.2773 19.1106 18.5075 19.3581C18.7379 19.6057 18.9393 19.7897 19.1119 19.9108L19.2846 20.0144C19.3999 20.0836 19.5495 20.1469 19.7338 20.2044C19.9177 20.262 20.0788 20.2764 20.2172 20.2476L22.4276 20.2131C22.6463 20.2131 22.8164 20.1769 22.9371 20.1051C23.058 20.0331 23.1298 19.9539 23.153 19.8677C23.1761 19.7813 23.1773 19.6834 23.1574 19.5739C23.1369 19.4647 23.1167 19.3883 23.0966 19.3452Z" fill="white"/>
</svg>
