<svg width="27" height="17" viewBox="0 0 27 17" fill="none" xmlns="http://www.w3.org/2000/svg">
<path d="M22.4052 9.74829C21.9686 9.15329 22.0935 8.88857 22.4052 8.35671C22.4108 8.35064 26.0143 2.97621 26.3855 1.15357L26.3878 1.15236C26.5723 0.488143 26.3878 0 25.4956 0H22.5435C21.792 0 21.4455 0.418929 21.2599 0.887643C21.2599 0.887643 19.7568 4.77093 17.6305 7.28814C16.9442 8.0155 16.627 8.24864 16.2523 8.24864C16.0678 8.24864 15.7809 8.0155 15.7809 7.35129V1.15236C15.7809 0.355786 15.5705 0 14.9484 0H10.3065C9.83509 0 9.55496 0.371572 9.55496 0.717643C9.55496 1.47293 10.6181 1.64657 10.7284 3.77157V8.38221C10.7284 9.3925 10.5585 9.57829 10.1816 9.57829C9.17807 9.57829 6.74236 5.67921 5.29893 1.21671C5.00755 0.350928 4.72291 0.0012142 3.96576 0.0012142H1.01254C0.169881 0.0012142 0 0.420143 0 0.888857C0 1.717 1.00353 5.83464 4.66666 11.2746C7.108 14.9879 10.5461 17 13.6737 17C15.5537 17 15.7832 16.5531 15.7832 15.7845C15.7832 12.2364 15.6133 11.9012 16.5549 11.9012C16.9915 11.9012 17.743 12.1344 19.4981 13.9254C21.504 16.0492 21.8336 17 22.9564 17H25.9085C26.7501 17 27.1764 16.5531 26.9312 15.6716C26.3698 13.8174 22.5762 10.0033 22.4052 9.74829Z" fill="#454545"/>
</svg>
