<svg width="41" height="41" viewBox="0 0 41 41" fill="none" xmlns="http://www.w3.org/2000/svg">
<circle cx="20.2498" cy="20.5001" r="20.2498" fill="#F8F8FA"/>
<path d="M17.0562 20.5554C17.0562 18.7624 18.5093 17.3086 20.3022 17.3086C22.0952 17.3086 23.549 18.7624 23.549 20.5554C23.549 22.3484 22.0952 23.8022 20.3022 23.8022C18.5093 23.8022 17.0562 22.3484 17.0562 20.5554ZM15.301 20.5554C15.301 23.3176 17.54 25.5566 20.3022 25.5566C23.0644 25.5566 25.3034 23.3176 25.3034 20.5554C25.3034 17.7932 23.0644 15.5542 20.3022 15.5542C17.54 15.5542 15.301 17.7932 15.301 20.5554ZM24.3327 15.3559C24.3326 15.587 24.401 15.813 24.5294 16.0053C24.6577 16.1975 24.8402 16.3474 25.0537 16.4359C25.2673 16.5245 25.5023 16.5477 25.729 16.5027C25.9557 16.4577 26.164 16.3465 26.3275 16.1831C26.4911 16.0197 26.6025 15.8115 26.6476 15.5848C26.6928 15.3581 26.6698 15.1231 26.5814 14.9095C26.493 14.6959 26.3433 14.5133 26.1512 14.3848C25.959 14.2563 25.7331 14.1877 25.5019 14.1876C25.192 14.1877 24.8945 14.3108 24.6753 14.5299C24.4562 14.7489 24.3329 15.046 24.3327 15.3559ZM16.3674 28.4833C15.4178 28.44 14.9017 28.2819 14.5587 28.1482C14.1039 27.9712 13.7795 27.7604 13.4384 27.4197C13.0972 27.0791 12.8861 26.7549 12.7098 26.3002C12.5761 25.9573 12.418 25.4411 12.3748 24.4915C12.3276 23.4648 12.3181 23.1564 12.3181 20.5555C12.3181 17.9545 12.3283 17.647 12.3748 16.6195C12.418 15.6699 12.5774 15.1546 12.7098 14.8107C12.8869 14.356 13.0977 14.0316 13.4384 13.6904C13.779 13.3493 14.1032 13.1382 14.5587 12.9619C14.9015 12.8282 15.4178 12.67 16.3674 12.6269C17.394 12.5797 17.7024 12.5702 20.3022 12.5702C22.902 12.5702 23.2107 12.5804 24.2382 12.6269C25.1878 12.6701 25.7031 12.8295 26.0469 12.9619C26.5017 13.1382 26.8261 13.3498 27.1672 13.6904C27.5084 14.0311 27.7187 14.356 27.8958 14.8107C28.0295 15.1536 28.1876 15.6699 28.2308 16.6195C28.278 17.647 28.2875 17.9545 28.2875 20.5555C28.2875 23.1564 28.278 23.464 28.2308 24.4915C28.1876 25.4411 28.0286 25.9572 27.8958 26.3002C27.7187 26.7549 27.5079 27.0794 27.1672 27.4197C26.8266 27.7601 26.5017 27.9712 26.0469 28.1482C25.7041 28.2819 25.1878 28.4401 24.2382 28.4833C23.2116 28.5305 22.9032 28.5399 20.3022 28.5399C17.7012 28.5399 17.3937 28.5305 16.3674 28.4833ZM16.2867 10.8747C15.2499 10.9219 14.5414 11.0863 13.9226 11.327C13.2818 11.5757 12.7394 11.9092 12.1973 12.4505C11.6552 12.9917 11.3225 13.535 11.0739 14.1758C10.8331 14.7949 10.6687 15.503 10.6215 16.5399C10.5735 17.5784 10.5625 17.9104 10.5625 20.5554C10.5625 23.2004 10.5735 23.5324 10.6215 24.5709C10.6687 25.6078 10.8331 26.3158 11.0739 26.935C11.3225 27.5754 11.6553 28.1193 12.1973 28.6603C12.7393 29.2013 13.2818 29.5344 13.9226 29.7837C14.5425 30.0245 15.2499 30.1889 16.2867 30.2361C17.3258 30.2833 17.6572 30.2951 20.3022 30.2951C22.9472 30.2951 23.2792 30.2841 24.3177 30.2361C25.3546 30.1889 26.0627 30.0245 26.6818 29.7837C27.3222 29.5344 27.8651 29.2015 28.4071 28.6603C28.9492 28.1191 29.2812 27.5754 29.5306 26.935C29.7713 26.3158 29.9365 25.6077 29.9829 24.5709C30.0302 23.5316 30.0412 23.2004 30.0412 20.5554C30.0412 17.9104 30.0302 17.5784 29.9829 16.5399C29.9357 15.503 29.7713 14.7945 29.5306 14.1758C29.2812 13.5354 28.9484 12.9925 28.4071 12.4505C27.8659 11.9084 27.3222 11.5757 26.6826 11.327C26.0627 11.0863 25.3546 10.9211 24.3185 10.8747C23.28 10.8274 22.948 10.8157 20.303 10.8157C17.658 10.8157 17.3258 10.8267 16.2867 10.8747Z" fill="#BD8E4C"/>
</svg>
