<svg width="40" height="40" viewBox="0 0 40 40" fill="none" xmlns="http://www.w3.org/2000/svg">
<circle cx="20" cy="20" r="20" fill="#4A76A8"/>
<path d="M30.7955 25.7935C30.7687 25.7358 30.7437 25.6879 30.7206 25.6496C30.3369 24.9586 29.6038 24.1105 28.5215 23.105L28.4987 23.082L28.4872 23.0707L28.4757 23.0591H28.464C27.9729 22.5909 27.6619 22.2761 27.5316 22.1149C27.2933 21.8078 27.2399 21.4971 27.3701 21.1822C27.4622 20.9442 27.8078 20.4418 28.4063 19.6741C28.7212 19.2673 28.9705 18.9412 29.1546 18.6956C30.4826 16.9301 31.0583 15.802 30.8817 15.3107L30.8131 15.1959C30.767 15.1268 30.648 15.0636 30.4563 15.0059C30.2642 14.9483 30.0187 14.9388 29.7193 14.9772L26.4036 15.0001C26.3499 14.9811 26.2732 14.9828 26.1733 15.0059C26.0735 15.029 26.0235 15.0405 26.0235 15.0405L25.9658 15.0694L25.92 15.104C25.8816 15.1269 25.8394 15.1672 25.7933 15.2248C25.7475 15.2822 25.7091 15.3495 25.6785 15.4262C25.3175 16.355 24.907 17.2184 24.4464 18.0166C24.1624 18.4926 23.9016 18.9051 23.6634 19.2543C23.4255 19.6035 23.2259 19.8607 23.0649 20.0256C22.9036 20.1907 22.758 20.3229 22.6273 20.4228C22.4967 20.5227 22.3971 20.5649 22.3281 20.5495C22.2589 20.534 22.1938 20.5187 22.1322 20.5034C22.0248 20.4343 21.9384 20.3403 21.8733 20.2213C21.8079 20.1023 21.7638 19.9526 21.7408 19.7722C21.7179 19.5917 21.7043 19.4365 21.7005 19.306C21.6969 19.1756 21.6985 18.9912 21.7063 18.7533C21.7143 18.5152 21.7179 18.3542 21.7179 18.2697C21.7179 17.978 21.7236 17.6614 21.735 17.3199C21.7466 16.9783 21.756 16.7077 21.7639 16.5083C21.7717 16.3088 21.7753 16.0976 21.7753 15.875C21.7753 15.6524 21.7618 15.4779 21.735 15.3512C21.7085 15.2246 21.6679 15.1018 21.6144 14.9827C21.5606 14.8637 21.4818 14.7717 21.3784 14.7064C21.2748 14.6412 21.146 14.5894 20.9927 14.5509C20.5859 14.4588 20.0678 14.409 19.4383 14.4013C18.0108 14.386 17.0935 14.4782 16.6867 14.6777C16.5255 14.762 16.3797 14.8773 16.2492 15.023C16.1111 15.1919 16.0918 15.2841 16.1915 15.2993C16.6521 15.3683 16.9782 15.5333 17.1701 15.7942L17.2393 15.9325C17.2931 16.0323 17.3468 16.2089 17.4005 16.4622C17.4542 16.7154 17.4888 16.9955 17.5041 17.3024C17.5424 17.8628 17.5424 18.3425 17.5041 18.7416C17.4657 19.1408 17.4294 19.4516 17.3947 19.6742C17.3601 19.8968 17.3083 20.0771 17.2393 20.2153C17.1701 20.3534 17.1241 20.4378 17.101 20.4685C17.078 20.4991 17.0588 20.5185 17.0436 20.526C16.9438 20.5643 16.84 20.5837 16.7327 20.5837C16.6251 20.5837 16.4947 20.5299 16.3412 20.4224C16.1878 20.3149 16.0285 20.1673 15.8635 19.9792C15.6984 19.7911 15.5123 19.5282 15.305 19.1905C15.0978 18.8528 14.8829 18.4537 14.6603 17.9932L14.4762 17.6592C14.361 17.4444 14.2038 17.1315 14.0042 16.721C13.8045 16.3103 13.628 15.913 13.4746 15.5292C13.4132 15.3681 13.3211 15.2453 13.1983 15.1609L13.1407 15.1263C13.1024 15.0956 13.0409 15.0631 12.9565 15.0284C12.872 14.9938 12.7839 14.9689 12.6917 14.9536L9.53709 14.9765C9.21473 14.9765 8.99601 15.0496 8.88084 15.1954L8.83475 15.2644C8.81172 15.3028 8.80011 15.3642 8.80011 15.4487C8.80011 15.5331 8.82314 15.6368 8.86923 15.7595C9.32974 16.8418 9.83054 17.8856 10.3716 18.8911C10.9127 19.8966 11.3829 20.7065 11.7819 21.3202C12.181 21.9343 12.5878 22.5139 13.0023 23.0587C13.4168 23.6036 13.6912 23.9529 13.8254 24.1063C13.9598 24.2601 14.0654 24.375 14.1421 24.4517L14.43 24.728C14.6142 24.9122 14.8847 25.1329 15.2416 25.39C15.5986 25.6472 15.9939 25.9004 16.4275 26.1501C16.8613 26.3993 17.3658 26.6027 17.9416 26.7601C18.5172 26.9175 19.0775 26.9807 19.6225 26.9502H20.9465C21.215 26.927 21.4185 26.8426 21.5568 26.6969L21.6026 26.6392C21.6334 26.5934 21.6622 26.5222 21.6888 26.4264C21.7158 26.3305 21.7291 26.2248 21.7291 26.1098C21.7213 25.7798 21.7464 25.4824 21.8038 25.2177C21.8612 24.953 21.9266 24.7534 21.9998 24.619C22.0729 24.4847 22.1554 24.3714 22.2472 24.2795C22.3392 24.1875 22.4048 24.1317 22.4433 24.1125C22.4815 24.0932 22.512 24.0801 22.535 24.0722C22.7193 24.0109 22.936 24.0703 23.1857 24.2508C23.4352 24.4312 23.6692 24.6539 23.8881 24.9186C24.1069 25.1835 24.3697 25.4808 24.6767 25.8108C24.9838 26.1409 25.2524 26.3862 25.4826 26.5477L25.7127 26.6858C25.8665 26.778 26.066 26.8624 26.3117 26.9392C26.5569 27.0159 26.7718 27.0351 26.9562 26.9967L29.9035 26.9508C30.195 26.9508 30.4218 26.9025 30.5827 26.8067C30.7439 26.7108 30.8397 26.6051 30.8706 26.4901C30.9014 26.375 30.9031 26.2445 30.8765 26.0985C30.8492 25.9529 30.8223 25.851 30.7955 25.7935Z" fill="white"/>
</svg>
