<svg width="43" height="43" viewBox="0 0 43 43" fill="none" xmlns="http://www.w3.org/2000/svg">
<circle cx="21.5" cy="21.5" r="21.5" fill="#F6F6F6"/>
<path d="M33.1081 27.125C33.0795 27.0634 33.0529 27.0122 33.0281 26.9713C32.6183 26.2332 31.8352 25.3273 30.6792 24.2532L30.6548 24.2286L30.6425 24.2165L30.6302 24.2042H30.6178C30.0931 23.7041 29.7609 23.3678 29.6217 23.1956C29.3672 22.8676 29.3101 22.5357 29.4493 22.1993C29.5476 21.9452 29.9168 21.4085 30.5561 20.5885C30.8924 20.1539 31.1587 19.8056 31.3554 19.5432C32.7739 17.6574 33.3888 16.4523 33.2002 15.9276L33.1269 15.8049C33.0777 15.7311 32.9506 15.6636 32.7459 15.602C32.5407 15.5405 32.2784 15.5303 31.9586 15.5713L28.4168 15.5958C28.3595 15.5754 28.2775 15.5773 28.1708 15.602C28.0642 15.6266 28.0109 15.639 28.0109 15.639L27.9492 15.6698L27.9003 15.7068C27.8593 15.7312 27.8142 15.7743 27.7649 15.8358C27.716 15.8971 27.675 15.969 27.6423 16.051C27.2567 17.043 26.8183 17.9654 26.3262 18.818C26.0229 19.3264 25.7443 19.767 25.4898 20.14C25.2357 20.513 25.0225 20.7878 24.8505 20.9639C24.6782 21.1402 24.5227 21.2814 24.3831 21.3881C24.2436 21.4949 24.1372 21.54 24.0635 21.5235C23.9896 21.507 23.9201 21.4906 23.8542 21.4742C23.7395 21.4004 23.6472 21.3 23.5777 21.1729C23.5078 21.0459 23.4608 20.8859 23.4362 20.6933C23.4117 20.5005 23.3972 20.3346 23.3931 20.1952C23.3893 20.0559 23.391 19.8589 23.3993 19.6048C23.4079 19.3505 23.4117 19.1785 23.4117 19.0883C23.4117 18.7767 23.4178 18.4385 23.43 18.0737C23.4424 17.7089 23.4524 17.4198 23.4608 17.2068C23.4692 16.9937 23.473 16.7681 23.473 16.5303C23.473 16.2926 23.4586 16.1061 23.43 15.9708C23.4017 15.8356 23.3583 15.7044 23.3012 15.5772C23.2437 15.4501 23.1595 15.3518 23.0491 15.2821C22.9384 15.2124 22.8008 15.1571 22.6371 15.116C22.2025 15.0176 21.6492 14.9644 20.9767 14.9562C19.4519 14.9398 18.472 15.0383 18.0375 15.2514C17.8653 15.3415 17.7095 15.4646 17.5702 15.6202C17.4226 15.8007 17.402 15.8991 17.5086 15.9153C18.0006 15.989 18.3489 16.1653 18.5539 16.4441L18.6278 16.5918C18.6852 16.6983 18.7426 16.887 18.8 17.1575C18.8573 17.428 18.8943 17.7273 18.9106 18.055C18.9515 18.6536 18.9515 19.1661 18.9106 19.5923C18.8696 20.0188 18.8308 20.3507 18.7938 20.5885C18.7568 20.8263 18.7015 21.0189 18.6278 21.1665C18.5539 21.314 18.5047 21.4042 18.4801 21.437C18.4555 21.4697 18.435 21.4903 18.4187 21.4984C18.3122 21.5393 18.2013 21.5601 18.0866 21.5601C17.9717 21.5601 17.8324 21.5026 17.6685 21.3878C17.5046 21.2729 17.3345 21.1152 17.1582 20.9143C16.9819 20.7134 16.7831 20.4326 16.5616 20.0719C16.3403 19.7112 16.1108 19.2849 15.873 18.7929L15.6763 18.4362C15.5533 18.2067 15.3853 17.8725 15.1721 17.434C14.9588 16.9953 14.7703 16.5709 14.6064 16.161C14.5409 15.9888 14.4425 15.8577 14.3113 15.7675L14.2497 15.7305C14.2088 15.6978 14.1431 15.6631 14.053 15.626C13.9628 15.589 13.8686 15.5625 13.7702 15.5461L10.4005 15.5706C10.0562 15.5706 9.82254 15.6486 9.69952 15.8044L9.65028 15.8781C9.62569 15.9192 9.61328 15.9847 9.61328 16.075C9.61328 16.1652 9.63788 16.2759 9.68711 16.4069C10.179 17.5631 10.714 18.678 11.2919 19.752C11.8699 20.826 12.3721 21.6912 12.7984 22.3467C13.2247 23.0027 13.6592 23.6218 14.102 24.2037C14.5447 24.7859 14.8378 25.1589 14.9812 25.3228C15.1248 25.487 15.2375 25.6098 15.3195 25.6917L15.627 25.9869C15.8238 26.1837 16.1127 26.4194 16.4939 26.694C16.8753 26.9687 17.2975 27.2392 17.7607 27.5059C18.224 27.7721 18.763 27.9894 19.3779 28.1574C19.9928 28.3256 20.5913 28.3931 21.1734 28.3606H22.5877C22.8746 28.3358 23.0919 28.2456 23.2396 28.0899L23.2885 28.0283C23.3214 27.9794 23.3522 27.9034 23.3806 27.801C23.4094 27.6986 23.4237 27.5857 23.4237 27.4629C23.4153 27.1104 23.4422 26.7927 23.5035 26.5099C23.5648 26.2272 23.6347 26.014 23.7128 25.8704C23.7909 25.727 23.879 25.6059 23.9771 25.5078C24.0754 25.4095 24.1454 25.3499 24.1865 25.3294C24.2274 25.3088 24.26 25.2948 24.2846 25.2864C24.4813 25.2208 24.7129 25.2843 24.9796 25.4772C25.2461 25.6698 25.4961 25.9077 25.7299 26.1905C25.9635 26.4735 26.2443 26.791 26.5722 27.1434C26.9003 27.496 27.1872 27.7581 27.433 27.9306L27.6789 28.0781C27.8431 28.1766 28.0563 28.2668 28.3187 28.3488C28.5806 28.4307 28.8101 28.4512 29.0072 28.4102L32.1553 28.3611C32.4667 28.3611 32.709 28.3096 32.8809 28.2073C33.0531 28.1048 33.1554 27.9919 33.1884 27.8691C33.2213 27.7462 33.223 27.6067 33.1946 27.4508C33.1655 27.2952 33.1367 27.1865 33.1081 27.125Z" fill="#4A76A8"/>
</svg>
