<svg width="23" height="13" viewBox="0 0 23 13" fill="none" xmlns="http://www.w3.org/2000/svg">
<path d="M21.9954 11.3938C21.9686 11.3361 21.9436 11.2883 21.9205 11.2499C21.5368 10.559 20.8036 9.71084 19.7214 8.70533L19.6986 8.6823L19.6871 8.67101L19.6756 8.65944H19.6639C19.1728 8.19123 18.8617 7.87641 18.7315 7.71523C18.4932 7.40819 18.4398 7.09741 18.57 6.78251C18.6621 6.54459 19.0077 6.04214 19.6062 5.27447C19.921 4.86763 20.1704 4.54156 20.3545 4.2959C21.6824 2.53047 22.2582 1.40233 22.0815 0.91105L22.013 0.796245C21.9669 0.727127 21.8479 0.663897 21.6562 0.606232C21.4641 0.548688 21.2186 0.539172 20.9192 0.577521L17.6035 0.600426C17.5498 0.581392 17.4731 0.583166 17.3731 0.606232C17.2733 0.629298 17.2234 0.640872 17.2234 0.640872L17.1657 0.669704L17.1199 0.704343C17.0815 0.727248 17.0393 0.767533 16.9932 0.825118C16.9474 0.8825 16.909 0.949843 16.8784 1.02658C16.5174 1.95531 16.1069 2.81879 15.6463 3.61699C15.3623 4.09294 15.1015 4.50543 14.8633 4.85468C14.6254 5.20382 14.4258 5.46105 14.2648 5.62594C14.1035 5.79099 13.9579 5.92322 13.8272 6.0231C13.6966 6.12303 13.597 6.16525 13.528 6.14981C13.4588 6.13436 13.3937 6.11904 13.332 6.10371C13.2247 6.0346 13.1383 5.9406 13.0732 5.82164C13.0078 5.70268 12.9637 5.55295 12.9407 5.37258C12.9178 5.19208 12.9042 5.03683 12.9004 4.9063C12.8968 4.77593 12.8984 4.59152 12.9062 4.3536C12.9142 4.11557 12.9178 3.95451 12.9178 3.87007C12.9178 3.57835 12.9235 3.26176 12.9349 2.92021C12.9465 2.57865 12.9559 2.30803 12.9638 2.10867C12.9716 1.9091 12.9752 1.69795 12.9752 1.47536C12.9752 1.25277 12.9617 1.0782 12.9349 0.951496C12.9084 0.824956 12.8678 0.702126 12.8143 0.583046C12.7605 0.464087 12.6817 0.372065 12.5783 0.306738C12.4747 0.241492 12.3459 0.189714 12.1926 0.151244C11.7858 0.0591821 11.2677 0.00938058 10.6382 0.00163816C9.21066 -0.0136854 8.29338 0.0784977 7.88658 0.278067C7.7254 0.362386 7.57955 0.477595 7.44914 0.62333C7.31094 0.792252 7.29167 0.884436 7.39143 0.899598C7.85203 0.968594 8.17809 1.13364 8.37 1.39459L8.43916 1.53286C8.49295 1.63263 8.54667 1.80925 8.60042 2.06249C8.65409 2.31574 8.68873 2.59587 8.70397 2.90275C8.74228 3.46315 8.74228 3.94285 8.70397 4.34191C8.66554 4.74113 8.62925 5.05191 8.59461 5.27451C8.55997 5.4971 8.5082 5.67748 8.43916 5.81559C8.37 5.95375 8.32399 6.03819 8.30092 6.06883C8.2779 6.09948 8.2587 6.1188 8.24346 6.12638C8.1437 6.16461 8.03994 6.18408 7.93255 6.18408C7.82501 6.18408 7.6946 6.13029 7.54112 6.02278C7.38768 5.91528 7.22844 5.7676 7.06339 5.57953C6.89834 5.39141 6.7122 5.12853 6.50488 4.79085C6.29773 4.45317 6.0828 4.05407 5.86021 3.59356L5.67604 3.25958C5.56091 3.04473 5.40365 2.73189 5.20408 2.32134C5.00439 1.91063 4.82788 1.51335 4.67445 1.12957C4.61311 0.968392 4.52097 0.845683 4.39818 0.761243L4.34055 0.726603C4.30225 0.695956 4.24075 0.663413 4.15639 0.628734C4.07191 0.594094 3.98376 0.569254 3.89157 0.553971L0.736982 0.576876C0.414623 0.576876 0.195899 0.649904 0.0807309 0.79576L0.0346393 0.864757C0.0116136 0.903186 0 0.964561 0 1.04904C0 1.13348 0.0230256 1.23712 0.0691172 1.35983C0.52963 2.44215 1.03043 3.48597 1.57151 4.49144C2.11259 5.4969 2.58278 6.30683 2.9818 6.9205C3.3809 7.53461 3.7877 8.1142 4.2022 8.659C4.6167 9.20399 4.89107 9.55325 5.02532 9.70668C5.15972 9.8604 5.26529 9.97533 5.34203 10.0521L5.62991 10.3283C5.81412 10.5126 6.08462 10.7332 6.44153 10.9903C6.79853 11.2475 7.19376 11.5008 7.62741 11.7504C8.06115 11.9997 8.56574 12.2031 9.14146 12.3604C9.7171 12.5179 10.2774 12.5811 10.8224 12.5506H12.1464C12.4149 12.5274 12.6184 12.4429 12.7566 12.2972L12.8025 12.2395C12.8333 12.1937 12.8621 12.1225 12.8887 12.0267C12.9156 11.9308 12.929 11.8251 12.929 11.7102C12.9212 11.3802 12.9463 11.0828 13.0037 10.818C13.0611 10.5533 13.1265 10.3537 13.1997 10.2193C13.2728 10.0851 13.3553 9.97174 13.4471 9.87988C13.5391 9.78782 13.6047 9.73205 13.6432 9.71285C13.6814 9.69354 13.7119 9.68043 13.7349 9.67257C13.9191 9.61119 14.1359 9.67063 14.3856 9.85117C14.6351 10.0315 14.8691 10.2543 15.088 10.519C15.3068 10.7839 15.5696 11.0811 15.8766 11.4111C16.1837 11.7412 16.4523 11.9866 16.6825 12.148L16.9126 12.2862C17.0664 12.3783 17.2659 12.4628 17.5116 12.5395C17.7568 12.6162 17.9717 12.6354 18.1561 12.5971L21.1034 12.5511C21.3949 12.5511 21.6217 12.5028 21.7826 12.4071C21.9438 12.3111 22.0396 12.2054 22.0705 12.0905C22.1013 11.9754 22.103 11.8448 22.0763 11.6988C22.049 11.5532 22.0221 11.4514 21.9954 11.3938Z" fill="#202020"/>
</svg>
