<svg width="19" height="11" viewBox="0 0 19 11" fill="none" xmlns="http://www.w3.org/2000/svg">
<path d="M18.6026 9.31502C18.5806 9.26886 18.5601 9.23056 18.541 9.19988C18.2255 8.64711 17.6225 7.96861 16.7325 7.16421L16.7137 7.14579L16.7043 7.13676L16.6948 7.1275H16.6852C16.2813 6.75293 16.0255 6.50107 15.9184 6.37213C15.7224 6.1265 15.6785 5.87787 15.7856 5.62595C15.8613 5.43562 16.1456 5.03366 16.6378 4.41952C16.8967 4.09405 17.1017 3.8332 17.2532 3.63667C18.3453 2.22432 18.8187 1.32182 18.6735 0.928791L18.6171 0.836946C18.5792 0.781653 18.4813 0.731069 18.3237 0.684937C18.1657 0.638902 17.9638 0.631289 17.7176 0.661968L14.9907 0.680291C14.9466 0.665065 14.8835 0.666484 14.8013 0.684937C14.7192 0.703389 14.6782 0.712648 14.6782 0.712648L14.6307 0.735714L14.593 0.763425C14.5615 0.781749 14.5267 0.813977 14.4888 0.860045C14.4511 0.905951 14.4196 0.959825 14.3944 1.02122C14.0975 1.7642 13.76 2.45498 13.3812 3.09354C13.1476 3.4743 12.9331 3.80429 12.7372 4.0837C12.5416 4.363 12.3774 4.56879 12.245 4.7007C12.1123 4.83274 11.9926 4.93852 11.8851 5.01843C11.7777 5.09837 11.6958 5.13215 11.6391 5.11979C11.5822 5.10744 11.5286 5.09518 11.4779 5.08292C11.3896 5.02763 11.3186 4.95243 11.265 4.85726C11.2112 4.76209 11.175 4.64231 11.1561 4.49801C11.1372 4.35362 11.1261 4.22941 11.1229 4.12499C11.12 4.02069 11.1213 3.87317 11.1277 3.68283C11.1343 3.4924 11.1372 3.36355 11.1372 3.296C11.1372 3.06263 11.1419 2.80936 11.1513 2.53612C11.1608 2.26287 11.1686 2.04638 11.175 1.88688C11.1815 1.72723 11.1845 1.55831 11.1845 1.38024C11.1845 1.20216 11.1733 1.06251 11.1513 0.961147C11.1295 0.859915 11.0961 0.761651 11.0521 0.666387C11.0079 0.57122 10.9431 0.497603 10.858 0.445341C10.7728 0.393145 10.6669 0.351723 10.5409 0.320947C10.2063 0.247297 9.78022 0.207456 9.26251 0.201262C8.0885 0.189003 7.33413 0.262749 6.99958 0.422404C6.86703 0.48986 6.74707 0.582027 6.63982 0.698615C6.52617 0.833752 6.51032 0.907499 6.59237 0.919629C6.97116 0.974826 7.23932 1.10687 7.39714 1.31562L7.45402 1.42624C7.49826 1.50605 7.54243 1.64735 7.58664 1.84994C7.63078 2.05254 7.65926 2.27665 7.6718 2.52215C7.7033 2.97047 7.7033 3.35423 7.6718 3.67348C7.64019 3.99285 7.61035 4.24148 7.58186 4.41956C7.55337 4.59763 7.51079 4.74193 7.45402 4.85242C7.39714 4.96294 7.3593 5.0305 7.34033 5.05501C7.3214 5.07953 7.30561 5.09498 7.29307 5.10105C7.21103 5.13163 7.1257 5.14721 7.03739 5.14721C6.94894 5.14721 6.84169 5.10418 6.71547 5.01817C6.58928 4.93217 6.45832 4.81403 6.32258 4.66357C6.18685 4.51308 6.03377 4.30277 5.86327 4.03263C5.69291 3.76248 5.51615 3.4432 5.33309 3.0748L5.18164 2.80762C5.08695 2.63574 4.95762 2.38546 4.79349 2.05702C4.62927 1.72845 4.48411 1.41063 4.35793 1.10361C4.30748 0.974664 4.23171 0.876497 4.13072 0.808945L4.08333 0.781233C4.05183 0.756715 4.00125 0.730681 3.93188 0.702938C3.8624 0.675226 3.7899 0.655354 3.71409 0.643128L1.11976 0.661451C0.854657 0.661451 0.674779 0.719874 0.580065 0.836559L0.542159 0.891756C0.523223 0.9225 0.513672 0.9716 0.513672 1.03918C0.513672 1.10674 0.532608 1.18965 0.570514 1.28781C0.949238 2.15367 1.36109 2.98872 1.80608 3.7931C2.25106 4.59747 2.63775 5.24541 2.9659 5.73635C3.29411 6.22763 3.62867 6.69131 3.96955 7.12714C4.31044 7.56314 4.53608 7.84254 4.64648 7.96529C4.75701 8.08827 4.84383 8.18021 4.90694 8.2416L5.1437 8.46261C5.29519 8.61001 5.51765 8.78654 5.81117 8.99219C6.10477 9.19798 6.4298 9.40057 6.78644 9.6003C7.14314 9.7997 7.55812 9.96241 8.03159 10.0883C8.50499 10.2142 8.96576 10.2648 9.41397 10.2404H10.5028C10.7237 10.2219 10.891 10.1543 11.0047 10.0377L11.0424 9.99155C11.0677 9.9549 11.0914 9.89796 11.1133 9.82134C11.1355 9.7446 11.1465 9.66004 11.1465 9.56807C11.14 9.30408 11.1607 9.06617 11.2079 8.85435C11.2551 8.64259 11.3089 8.48294 11.369 8.37541C11.4292 8.26799 11.497 8.17734 11.5725 8.10385C11.6482 8.0302 11.7021 7.98558 11.7338 7.97023C11.7652 7.95477 11.7903 7.94429 11.8092 7.938C11.9607 7.8889 12.139 7.93645 12.3444 8.08088C12.5496 8.22518 12.742 8.40335 12.922 8.61511C13.1019 8.82705 13.3181 9.06484 13.5705 9.32883C13.8231 9.59291 14.044 9.78921 14.2333 9.91835L14.4226 10.0289C14.549 10.1026 14.7131 10.1702 14.9152 10.2316C15.1168 10.2929 15.2935 10.3083 15.4452 10.2776L17.869 10.2408C18.1088 10.2408 18.2953 10.2022 18.4276 10.1256C18.5602 10.0488 18.639 9.96429 18.6644 9.87231C18.6897 9.78024 18.6911 9.67578 18.6692 9.559C18.6468 9.44251 18.6246 9.36106 18.6026 9.31502Z" fill="white"/>
</svg>
