<svg width="46" height="46" viewBox="0 0 46 46" fill="none" xmlns="http://www.w3.org/2000/svg">
<circle cx="23" cy="23" r="23" fill="#4A76A8"/>
<path d="M35.4138 29.663C35.383 29.5966 35.3543 29.5416 35.3277 29.4975C34.8865 28.7029 34.0433 27.7275 32.7988 26.5712L32.7725 26.5447L32.7593 26.5317L32.746 26.5184H32.7327C32.1678 25.98 31.8102 25.6179 31.6604 25.4326C31.3863 25.0795 31.3249 24.7221 31.4747 24.3599C31.5805 24.0863 31.978 23.5085 32.6663 22.6257C33.0283 22.1578 33.3151 21.7829 33.5268 21.5003C35.054 19.4701 35.716 18.1727 35.5129 17.6078L35.434 17.4757C35.381 17.3963 35.2442 17.3235 35.0238 17.2572C34.8029 17.1911 34.5205 17.1801 34.1762 17.2242L30.3631 17.2505C30.3014 17.2287 30.2132 17.2307 30.0983 17.2572C29.9835 17.2838 29.9261 17.2971 29.9261 17.2971L29.8597 17.3302L29.807 17.3701C29.7629 17.3964 29.7143 17.4427 29.6613 17.5089C29.6086 17.5749 29.5645 17.6524 29.5293 17.7406C29.1141 18.8087 28.6421 19.8017 28.1124 20.7196C27.7858 21.2669 27.4858 21.7413 27.2119 22.1429C26.9383 22.5445 26.7088 22.8403 26.5236 23.0299C26.3381 23.2197 26.1707 23.3718 26.0204 23.4866C25.8703 23.6015 25.7557 23.6501 25.6763 23.6323C25.5968 23.6146 25.5219 23.597 25.451 23.5793C25.3275 23.4998 25.2282 23.3917 25.1533 23.2549C25.0781 23.1181 25.0274 22.946 25.0009 22.7385C24.9746 22.531 24.959 22.3524 24.9546 22.2023C24.9504 22.0524 24.9523 21.8403 24.9613 21.5667C24.9705 21.293 24.9746 21.1077 24.9746 21.0106C24.9746 20.6752 24.9811 20.3111 24.9943 19.9183C25.0076 19.5255 25.0184 19.2143 25.0275 18.985C25.0365 18.7555 25.0406 18.5127 25.0406 18.2567C25.0406 18.0007 25.0251 17.8 24.9943 17.6543C24.9638 17.5088 24.9171 17.3675 24.8556 17.2306C24.7937 17.0938 24.7031 16.9879 24.5842 16.9128C24.465 16.8378 24.3169 16.7782 24.1407 16.734C23.6728 16.6281 23.077 16.5708 22.3531 16.5619C20.7114 16.5443 19.6565 16.6503 19.1887 16.8798C19.0034 16.9768 18.8356 17.1093 18.6856 17.2769C18.5267 17.4711 18.5046 17.5772 18.6193 17.5946C19.149 17.6739 19.5239 17.8637 19.7446 18.1638L19.8242 18.3229C19.886 18.4376 19.9478 18.6407 20.0096 18.9319C20.0713 19.2232 20.1112 19.5453 20.1287 19.8982C20.1728 20.5427 20.1728 21.0943 20.1287 21.5533C20.0845 22.0124 20.0428 22.3698 20.0029 22.6257C19.9631 22.8817 19.9036 23.0892 19.8242 23.248C19.7446 23.4069 19.6917 23.504 19.6652 23.5392C19.6387 23.5745 19.6166 23.5967 19.5991 23.6054C19.4844 23.6494 19.3651 23.6718 19.2416 23.6718C19.1179 23.6718 18.9679 23.6099 18.7914 23.4863C18.615 23.3626 18.4318 23.1928 18.242 22.9765C18.0522 22.7602 17.8382 22.4579 17.5998 22.0695C17.3615 21.6812 17.1144 21.2222 16.8584 20.6926L16.6466 20.3086C16.5142 20.0615 16.3333 19.7017 16.1038 19.2296C15.8742 18.7573 15.6712 18.3004 15.4948 17.8591C15.4242 17.6737 15.3183 17.5326 15.177 17.4355L15.1108 17.3957C15.0667 17.3604 14.996 17.323 14.899 17.2831C14.8018 17.2433 14.7005 17.2147 14.5945 17.1971L10.9667 17.2235C10.596 17.2235 10.3444 17.3074 10.212 17.4752L10.159 17.5545C10.1325 17.5987 10.1191 17.6693 10.1191 17.7665C10.1191 17.8636 10.1456 17.9827 10.1986 18.1239C10.7282 19.3685 11.3041 20.5689 11.9264 21.7252C12.5486 22.8815 13.0893 23.8129 13.5482 24.5186C14.0072 25.2249 14.475 25.8914 14.9517 26.5179C15.4283 27.1446 15.7439 27.5463 15.8983 27.7227C16.0528 27.8995 16.1742 28.0317 16.2625 28.1199L16.5935 28.4376C16.8054 28.6495 17.1164 28.9033 17.5269 29.1989C17.9375 29.4947 18.392 29.786 18.8907 30.0731C19.3895 30.3597 19.9697 30.5936 20.6318 30.7745C21.2938 30.9556 21.9381 31.0283 22.5649 30.9932H24.0875C24.3963 30.9665 24.6303 30.8694 24.7893 30.7018L24.842 30.6355C24.8774 30.5828 24.9106 30.501 24.9412 30.3908C24.9721 30.2805 24.9875 30.1589 24.9875 30.0267C24.9785 29.6473 25.0074 29.3053 25.0734 29.0008C25.1394 28.6964 25.2146 28.4669 25.2987 28.3123C25.3828 28.1579 25.4777 28.0276 25.5833 27.9219C25.6891 27.816 25.7645 27.7519 25.8088 27.7298C25.8527 27.7076 25.8878 27.6926 25.9143 27.6835C26.1262 27.6129 26.3755 27.6813 26.6626 27.8889C26.9495 28.0963 27.2186 28.3525 27.4703 28.6569C27.7219 28.9615 28.0242 29.3034 28.3772 29.6828C28.7304 30.0624 29.0393 30.3446 29.304 30.5303L29.5687 30.6891C29.7454 30.7952 29.975 30.8923 30.2575 30.9805C30.5395 31.0687 30.7865 31.0908 30.9987 31.0467L34.388 30.9938C34.7233 30.9938 34.9841 30.9383 35.1691 30.8282C35.3546 30.7178 35.4647 30.5963 35.5002 30.4641C35.5356 30.3317 35.5375 30.1816 35.5069 30.0137C35.4755 29.8462 35.4446 29.7292 35.4138 29.663Z" fill="white"/>
</svg>
