<svg width="22" height="13" viewBox="0 0 22 13" fill="none" xmlns="http://www.w3.org/2000/svg">
<path d="M21.8728 11.5467C21.8472 11.4915 21.8233 11.4458 21.8012 11.4091C21.4345 10.7488 20.7339 9.93826 19.6996 8.9773L19.6778 8.9553L19.6668 8.94451L19.6558 8.93345H19.6447C19.1753 8.48598 18.878 8.18511 18.7535 8.03107C18.5258 7.73764 18.4748 7.44063 18.5992 7.13968C18.6872 6.91231 19.0175 6.43212 19.5895 5.69847C19.8904 5.30965 20.1287 4.99803 20.3046 4.76326C21.5737 3.07605 22.1239 1.99791 21.9551 1.5284L21.8896 1.41868C21.8455 1.35262 21.7319 1.29219 21.5487 1.23708C21.3651 1.18209 21.1304 1.173 20.8443 1.20965L17.6755 1.23154C17.6242 1.21335 17.5509 1.21504 17.4554 1.23708C17.36 1.25913 17.3123 1.27019 17.3123 1.27019L17.2571 1.29774L17.2134 1.33085C17.1767 1.35274 17.1363 1.39124 17.0923 1.44627C17.0485 1.50111 17.0118 1.56547 16.9825 1.63881C16.6375 2.52638 16.2453 3.3516 15.8051 4.11443C15.5336 4.5693 15.2844 4.9635 15.0567 5.29728C14.8294 5.63095 14.6387 5.87678 14.4847 6.03437C14.3306 6.1921 14.1915 6.31847 14.0665 6.41393C13.9418 6.50943 13.8465 6.54978 13.7806 6.53502C13.7145 6.52026 13.6523 6.50561 13.5933 6.49097C13.4907 6.42491 13.4082 6.33508 13.3459 6.22139C13.2834 6.10771 13.2413 5.96461 13.2193 5.79223C13.1974 5.61973 13.1845 5.47136 13.1808 5.34661C13.1774 5.22202 13.1789 5.04578 13.1864 4.81841C13.194 4.59092 13.1974 4.43699 13.1974 4.3563C13.1974 4.07751 13.2029 3.77495 13.2138 3.44853C13.2249 3.12211 13.2339 2.86348 13.2414 2.67294C13.2488 2.48222 13.2523 2.28043 13.2523 2.0677C13.2523 1.85497 13.2394 1.68814 13.2138 1.56705C13.1885 1.44612 13.1497 1.32873 13.0986 1.21493C13.0471 1.10124 12.9718 1.01329 12.873 0.950861C12.774 0.888506 12.6509 0.839023 12.5044 0.802257C12.1156 0.714274 11.6205 0.66668 11.0189 0.65928C9.65458 0.644636 8.77795 0.732734 8.38917 0.92346C8.23514 1.00404 8.09574 1.11415 7.97111 1.25342C7.83904 1.41486 7.82062 1.50296 7.91596 1.51745C8.35615 1.58339 8.66777 1.74113 8.85117 1.99051L8.91726 2.12266C8.96867 2.218 9.02001 2.3868 9.07138 2.62882C9.12267 2.87084 9.15578 3.13856 9.17034 3.43184C9.20696 3.96741 9.20696 4.42586 9.17034 4.80723C9.13362 5.18876 9.09893 5.48577 9.06583 5.69851C9.03272 5.91124 8.98324 6.08362 8.91726 6.21561C8.85117 6.34764 8.8072 6.42834 8.78515 6.45763C8.76315 6.48692 8.7448 6.50538 8.73024 6.51263C8.63489 6.54916 8.53573 6.56778 8.43311 6.56778C8.33033 6.56778 8.20569 6.51637 8.05902 6.41362C7.91238 6.31088 7.76019 6.16975 7.60245 5.99001C7.44472 5.81023 7.26682 5.559 7.0687 5.23628C6.87073 4.91356 6.66532 4.53215 6.45259 4.09204L6.27658 3.77286C6.16656 3.56753 6.01626 3.26855 5.82553 2.87619C5.63469 2.48368 5.46601 2.104 5.31937 1.73723C5.26075 1.5832 5.17269 1.46593 5.05534 1.38523L5.00027 1.35212C4.96366 1.32283 4.90489 1.29173 4.82427 1.25859C4.74353 1.22548 4.65929 1.20174 4.57119 1.18714L1.55638 1.20903C1.2483 1.20903 1.03927 1.27882 0.929204 1.41821L0.885155 1.48415C0.86315 1.52088 0.852051 1.57954 0.852051 1.66027C0.852051 1.74097 0.874056 1.84002 0.918105 1.95729C1.35821 2.99165 1.83682 3.98922 2.35393 4.95013C2.87103 5.91104 3.32039 6.68509 3.70172 7.27156C4.08314 7.85846 4.47191 8.41237 4.86805 8.93302C5.26418 9.45387 5.5264 9.78765 5.65469 9.93429C5.78314 10.0812 5.88403 10.191 5.95737 10.2644L6.23249 10.5284C6.40854 10.7045 6.66705 10.9154 7.00815 11.161C7.34933 11.4069 7.72705 11.6489 8.14149 11.8875C8.55601 12.1257 9.03824 12.3201 9.58845 12.4704C10.1386 12.6209 10.674 12.6813 11.1949 12.6522H12.4602C12.7169 12.63 12.9113 12.5493 13.0434 12.41L13.0872 12.3549C13.1167 12.3111 13.1442 12.2431 13.1697 12.1515C13.1954 12.0599 13.2082 11.9589 13.2082 11.849C13.2007 11.5336 13.2247 11.2494 13.2796 10.9964C13.3344 10.7434 13.3969 10.5527 13.4668 10.4242C13.5367 10.2959 13.6155 10.1876 13.7033 10.0998C13.7912 10.0118 13.8539 9.95853 13.8907 9.94018C13.9272 9.92172 13.9564 9.9092 13.9784 9.90168C14.1544 9.84303 14.3616 9.89983 14.6002 10.0724C14.8387 10.2447 15.0623 10.4576 15.2715 10.7106C15.4806 10.9638 15.7318 11.2478 16.0251 11.5632C16.3187 11.8787 16.5753 12.1132 16.7953 12.2674L17.0153 12.3995C17.1622 12.4876 17.3529 12.5683 17.5877 12.6416C17.822 12.7149 18.0274 12.7332 18.2037 12.6966L21.0203 12.6527C21.2989 12.6527 21.5157 12.6065 21.6695 12.515C21.8235 12.4233 21.9151 12.3223 21.9446 12.2124C21.974 12.1024 21.9756 11.9777 21.9502 11.8382C21.9241 11.699 21.8984 11.6017 21.8728 11.5467Z" fill="white"/>
</svg>
