<svg width="39" height="39" viewBox="0 0 39 39" fill="none" xmlns="http://www.w3.org/2000/svg">
<circle cx="19.3538" cy="19.118" r="19.118" fill="#F9FAFE" fill-opacity="0.1"/>
<path d="M30.0595 18.4702C30.0595 24.0248 25.5216 28.5276 19.9227 28.5276C18.1459 28.5276 16.4768 28.0732 15.0239 27.2774L9.41211 29.0595L11.2414 23.6619C10.319 22.147 9.7878 20.3682 9.7878 18.4695C9.78847 12.915 14.325 8.41211 19.924 8.41211C25.5223 8.41346 30.0595 12.9157 30.0595 18.4702ZM19.922 10.0159C15.2232 10.0159 11.401 13.8091 11.401 18.4722C11.401 20.3224 12.0042 22.0352 13.0242 23.4289L11.9605 26.5684L15.2339 25.5282C16.5805 26.4115 18.1917 26.9259 19.922 26.9259C24.6208 26.9259 28.4443 23.1333 28.4443 18.4702C28.4457 13.8091 24.6215 10.0159 19.922 10.0159ZM25.0416 20.787C24.9783 20.6853 24.8127 20.6234 24.5649 20.4995C24.3178 20.3756 23.0945 19.7797 22.8676 19.6989C22.6387 19.6161 22.473 19.5744 22.3074 19.8215C22.1438 20.0686 21.6671 20.6234 21.521 20.789C21.3763 20.9539 21.2315 20.9748 20.9831 20.8529C20.7346 20.7277 19.9334 20.4692 18.9841 19.6296C18.2455 18.9752 17.7466 18.1693 17.6025 17.9222C17.4564 17.6757 17.5877 17.5424 17.7109 17.4199C17.822 17.3088 17.9594 17.1317 18.0839 16.987C18.2085 16.8436 18.2496 16.7419 18.3324 16.577C18.4138 16.412 18.3728 16.2686 18.3115 16.144C18.2496 16.0202 17.7534 14.8083 17.5453 14.3147C17.3386 13.8219 17.1319 13.9034 16.9865 13.9034C16.8417 13.9034 16.6761 13.8832 16.5105 13.8832C16.3449 13.8832 16.0755 13.9431 15.8486 14.1902C15.6218 14.4373 14.9794 15.0331 14.9794 16.2464C14.9794 17.461 15.8688 18.6318 15.9934 18.7961C16.1186 18.9597 17.713 21.5309 20.2384 22.518C22.7652 23.5043 22.7652 23.1751 23.2204 23.1333C23.6769 23.0916 24.6908 22.5375 24.8968 21.9625C25.1042 21.3848 25.1042 20.89 25.0416 20.787Z" fill="white"/>
</svg>
