<svg width="18" height="17" viewBox="0 0 18 17" fill="none" xmlns="http://www.w3.org/2000/svg">
<path d="M17.0842 8.28131C17.0842 12.8546 13.348 16.5621 8.73806 16.5621C7.27515 16.5621 5.90094 16.1879 4.70467 15.5327L0.0842285 17L1.59038 12.5558C0.830927 11.3086 0.393551 9.844 0.393551 8.28076C0.394106 3.70744 4.12926 0 8.73917 0C13.3485 0.00110868 17.0842 3.70799 17.0842 8.28131ZM8.7375 1.32044C4.86875 1.32044 1.72175 4.4436 1.72175 8.28298C1.72175 9.80631 2.21844 11.2166 3.05827 12.364L2.18241 14.9489L4.87762 14.0925C5.98631 14.8198 7.31285 15.2433 8.7375 15.2433C12.6063 15.2433 15.7544 12.1207 15.7544 8.28131C15.7555 4.4436 12.6068 1.32044 8.7375 1.32044ZM12.9527 10.1888C12.9006 10.1051 12.7642 10.0541 12.5602 9.9521C12.3568 9.8501 11.3496 9.35951 11.1628 9.29299C10.9743 9.2248 10.8379 9.19043 10.7015 9.39388C10.5668 9.59732 10.1744 10.0541 10.0541 10.1905C9.93488 10.3263 9.8157 10.3435 9.61115 10.2431C9.4066 10.14 8.74693 9.92715 7.96531 9.23589C7.35719 8.69707 6.94643 8.03352 6.8278 7.83008C6.7075 7.62719 6.8156 7.51743 6.91705 7.41654C7.00851 7.32507 7.1216 7.17928 7.22415 7.0601C7.3267 6.94202 7.36052 6.85832 7.4287 6.7225C7.49578 6.58669 7.46196 6.46861 7.41152 6.36606C7.36052 6.26406 6.95197 5.26625 6.78068 4.85991C6.6105 4.45414 6.44031 4.52121 6.32057 4.52121C6.20139 4.52121 6.06502 4.50458 5.92865 4.50458C5.79229 4.50458 5.57055 4.55392 5.38374 4.75736C5.19692 4.9608 4.66808 5.4514 4.66808 6.45032C4.66808 7.45035 5.40037 8.41435 5.50292 8.54961C5.60603 8.68432 6.91871 10.8014 8.99804 11.614C11.0785 12.4261 11.0785 12.1551 11.4532 12.1207C11.8291 12.0863 12.6639 11.6301 12.8335 11.1567C13.0043 10.6811 13.0043 10.2736 12.9527 10.1888Z" fill="#29AD1C"/>
</svg>
