<svg width="33" height="33" viewBox="0 0 33 33" fill="none" xmlns="http://www.w3.org/2000/svg">
<circle cx="16.1271" cy="16.1271" r="16.1271" fill="#29AD1C"/>
<path d="M25.1585 15.5809C25.1585 20.2665 21.3305 24.0649 16.6075 24.0649C15.1086 24.0649 13.7007 23.6816 12.4751 23.0102L7.74121 24.5136L9.28433 19.9604C8.50624 18.6825 8.05813 17.1819 8.05813 15.5803C8.05869 10.8948 11.8855 7.09631 16.6086 7.09631C21.3311 7.09745 25.1585 10.8953 25.1585 15.5809ZM16.6069 8.44917C12.6432 8.44917 9.41893 11.649 9.41893 15.5826C9.41893 17.1433 9.92781 18.5882 10.7883 19.7638L9.8909 22.4122L12.6523 21.5347C13.7882 22.2799 15.1473 22.7138 16.6069 22.7138C20.5706 22.7138 23.796 19.5145 23.796 15.5809C23.7971 11.649 20.5712 8.44917 16.6069 8.44917ZM20.9256 17.5352C20.8722 17.4495 20.7325 17.3972 20.5235 17.2927C20.315 17.1882 19.2831 16.6856 19.0917 16.6174C18.8986 16.5475 18.7588 16.5123 18.6191 16.7208C18.4811 16.9292 18.079 17.3972 17.9558 17.5369C17.8337 17.6761 17.7116 17.6937 17.502 17.5909C17.2924 17.4852 16.6165 17.2671 15.8157 16.5589C15.1927 16.0069 14.7718 15.327 14.6503 15.1186C14.5271 14.9107 14.6378 14.7983 14.7417 14.6949C14.8355 14.6012 14.9513 14.4518 15.0564 14.3297C15.1615 14.2087 15.1961 14.123 15.266 13.9838C15.3347 13.8447 15.3 13.7237 15.2484 13.6186C15.1961 13.5141 14.7775 12.4918 14.602 12.0755C14.4277 11.6598 14.2533 11.7285 14.1306 11.7285C14.0085 11.7285 13.8688 11.7115 13.7291 11.7115C13.5894 11.7115 13.3622 11.762 13.1708 11.9704C12.9794 12.1789 12.4376 12.6815 12.4376 13.705C12.4376 14.7295 13.1878 15.7172 13.2929 15.8558C13.3985 15.9938 14.7435 18.1628 16.8738 18.9954C19.0053 19.8275 19.0053 19.5497 19.3893 19.5145C19.7743 19.4793 20.6297 19.0119 20.8035 18.5268C20.9784 18.0395 20.9784 17.6221 20.9256 17.5352Z" fill="white"/>
</svg>
