<svg width="46" height="46" viewBox="0 0 46 46" fill="none" xmlns="http://www.w3.org/2000/svg">
<circle cx="23" cy="23" r="23" fill="#29AD1C"/>
<path d="M35.8791 22.2206C35.8791 28.903 30.4197 34.3202 23.6838 34.3202C21.5463 34.3202 19.5383 33.7735 17.7903 32.8161L11.0391 34.9601L13.2398 28.4664C12.1301 26.6439 11.491 24.5039 11.491 22.2198C11.4918 15.5373 16.9496 10.1201 23.6855 10.1201C30.4205 10.1217 35.8791 15.5381 35.8791 22.2206ZM23.683 12.0495C18.0301 12.0495 13.4318 16.613 13.4318 22.223C13.4318 24.4489 14.1575 26.5095 15.3847 28.1862L14.1049 31.9632L18.0431 30.7117C19.663 31.7744 21.6013 32.3933 23.683 32.3933C29.336 32.3933 33.9359 27.8306 33.9359 22.2206C33.9375 16.613 29.3368 12.0495 23.683 12.0495ZM29.8422 25.0078C29.7661 24.8854 29.5668 24.8109 29.2687 24.6619C28.9715 24.5129 27.4997 23.796 27.2267 23.6988C26.9513 23.5992 26.7521 23.549 26.5528 23.8462C26.356 24.1435 25.7825 24.8109 25.6068 25.0102C25.4326 25.2086 25.2585 25.2337 24.9596 25.0871C24.6607 24.9365 23.6968 24.6254 22.5547 23.6154C21.6661 22.8281 21.0659 21.8585 20.8926 21.5612C20.7168 21.2648 20.8748 21.1044 21.023 20.957C21.1567 20.8233 21.3219 20.6103 21.4717 20.4362C21.6216 20.2636 21.671 20.1413 21.7706 19.9429C21.8686 19.7444 21.8192 19.5719 21.7455 19.4221C21.671 19.273 21.074 17.815 20.8238 17.2213C20.5751 16.6284 20.3264 16.7264 20.1515 16.7264C19.9773 16.7264 19.7781 16.7021 19.5788 16.7021C19.3795 16.7021 19.0555 16.7742 18.7826 17.0715C18.5096 17.3687 17.7369 18.0856 17.7369 19.5452C17.7369 21.0064 18.8069 22.415 18.9567 22.6126C19.1074 22.8094 21.0254 25.9028 24.0637 27.0902C27.1036 28.2769 27.1036 27.8808 27.6512 27.8306C28.2003 27.7804 29.4202 27.1137 29.6681 26.422C29.9175 25.727 29.9175 25.1317 29.8422 25.0078Z" fill="white"/>
</svg>
