<svg width="30" height="30" viewBox="0 0 30 30" fill="none" xmlns="http://www.w3.org/2000/svg">
<circle cx="15" cy="15" r="15" fill="#37474F"/>
<path d="M23.3992 14.4917C23.3992 18.8498 19.8388 22.3827 15.4458 22.3827C14.0517 22.3827 12.7422 22.0262 11.6022 21.4018L7.19922 22.8001L8.63449 18.565C7.91078 17.3765 7.49399 15.9808 7.49399 14.4911C7.49451 10.133 11.0539 6.60007 15.4469 6.60007C19.8393 6.60112 23.3992 10.1336 23.3992 14.4917ZM15.4453 7.85837C11.7586 7.85837 8.75968 10.8346 8.75968 14.4933C8.75968 15.9449 9.233 17.2888 10.0333 18.3823L9.19866 20.8455L11.767 20.0294C12.8236 20.7224 14.0877 21.126 15.4453 21.126C19.132 21.126 22.1319 18.1504 22.1319 14.4917C22.133 10.8346 19.1325 7.85837 15.4453 7.85837ZM19.4621 16.3094C19.4125 16.2296 19.2825 16.181 19.0881 16.0838C18.8943 15.9866 17.9344 15.5191 17.7564 15.4557C17.5768 15.3908 17.4468 15.358 17.3169 15.5519C17.1885 15.7457 16.8145 16.181 16.6999 16.311C16.5863 16.4404 16.4727 16.4568 16.2778 16.3612C16.0829 16.2629 15.4543 16.0601 14.7094 15.4013C14.1299 14.8879 13.7385 14.2555 13.6254 14.0617C13.5108 13.8683 13.6138 13.7637 13.7105 13.6676C13.7977 13.5804 13.9054 13.4415 14.0031 13.3279C14.1009 13.2154 14.1331 13.1356 14.1981 13.0062C14.262 12.8768 14.2298 12.7643 14.1817 12.6665C14.1331 12.5694 13.7438 11.6185 13.5805 11.2313C13.4184 10.8446 13.2562 10.9085 13.1421 10.9085C13.0285 10.9085 12.8986 10.8927 12.7686 10.8927C12.6387 10.8927 12.4274 10.9397 12.2493 11.1336C12.0713 11.3274 11.5674 11.7949 11.5674 12.7468C11.5674 13.6998 12.2652 14.6185 12.3629 14.7473C12.4612 14.8757 13.7121 16.8931 15.6936 17.6675C17.6761 18.4414 17.6761 18.1831 18.0332 18.1504C18.3914 18.1176 19.1869 17.6829 19.3486 17.2317C19.5113 16.7785 19.5113 16.3902 19.4621 16.3094Z" fill="white"/>
</svg>
