<svg width="46" height="46" viewBox="0 0 46 46" fill="none" xmlns="http://www.w3.org/2000/svg">
<circle cx="23" cy="23" r="23" fill="#29AD1C"/>
<path d="M35.88 22.2205C35.88 28.9029 30.4207 34.3201 23.6848 34.3201C21.5472 34.3201 19.5393 33.7734 17.7913 32.8159L11.04 34.96L13.2408 28.4663C12.1311 26.6438 11.492 24.5038 11.492 22.2196C11.4928 15.5372 16.9505 10.12 23.6864 10.12C30.4215 10.1216 35.88 15.538 35.88 22.2205ZM23.684 12.0494C18.0311 12.0494 13.4328 16.6129 13.4328 22.2229C13.4328 24.4487 14.1585 26.5094 15.3856 28.186L14.1059 31.963L18.044 30.7116C19.664 31.7743 21.6023 32.3931 23.684 32.3931C29.3369 32.3931 33.9369 27.8305 33.9369 22.2205C33.9385 16.6129 29.3377 12.0494 23.684 12.0494ZM29.8432 25.0076C29.767 24.8853 29.5678 24.8108 29.2697 24.6618C28.9724 24.5127 27.5007 23.7959 27.2277 23.6987C26.9523 23.5991 26.7531 23.5488 26.5538 23.8461C26.357 24.1434 25.7835 24.8108 25.6077 25.0101C25.4336 25.2085 25.2594 25.2336 24.9605 25.087C24.6617 24.9364 23.6978 24.6253 22.5557 23.6153C21.6671 22.8279 21.0669 21.8584 20.8936 21.5611C20.7178 21.2647 20.8758 21.1043 21.024 20.9569C21.1576 20.8232 21.3229 20.6102 21.4727 20.436C21.6226 20.2635 21.672 20.1412 21.7716 19.9428C21.8696 19.7443 21.8202 19.5718 21.7465 19.4219C21.672 19.2729 21.075 17.8149 20.8247 17.2212C20.5761 16.6283 20.3274 16.7263 20.1524 16.7263C19.9783 16.7263 19.779 16.702 19.5798 16.702C19.3805 16.702 19.0565 16.7741 18.7836 17.0713C18.5106 17.3686 17.7379 18.0854 17.7379 19.5451C17.7379 21.0063 18.8079 22.4149 18.9577 22.6125C19.1084 22.8093 21.0264 25.9027 24.0647 27.0901C27.1046 28.2768 27.1046 27.8807 27.6521 27.8305C28.2013 27.7802 29.4212 27.1136 29.669 26.4219C29.9185 25.7269 29.9185 25.1316 29.8432 25.0076Z" fill="white"/>
</svg>
