<svg width="25" height="25" viewBox="0 0 25 25" fill="none" xmlns="http://www.w3.org/2000/svg">
<circle cx="12.1122" cy="12.0371" r="12.0374" fill="#29AD1C"/>
<path d="M18.8531 11.6291C18.8531 15.1264 15.9958 17.9616 12.4705 17.9616C11.3518 17.9616 10.3009 17.6755 9.38607 17.1744L5.85269 18.2965L7.00448 14.8979C6.42371 13.9441 6.08924 12.8241 6.08924 11.6287C6.08966 8.13132 8.94604 5.29614 12.4714 5.29614C15.9963 5.29699 18.8531 8.13175 18.8531 11.6291ZM12.4701 6.30592C9.51155 6.30592 7.10495 8.69429 7.10495 11.6304C7.10495 12.7953 7.48479 13.8738 8.12703 14.7513L7.45723 16.728L9.51833 16.0731C10.3662 16.6292 11.3806 16.9531 12.4701 16.9531C15.4286 16.9531 17.8361 14.5652 17.8361 11.6291C17.8369 8.69429 15.4291 6.30592 12.4701 6.30592ZM15.6936 13.0878C15.6537 13.0238 15.5495 12.9848 15.3935 12.9068C15.2379 12.8288 14.4676 12.4536 14.3247 12.4027C14.1806 12.3506 14.0763 12.3243 13.972 12.4799C13.869 12.6355 13.5689 12.9848 13.4769 13.0891C13.3858 13.1929 13.2946 13.2061 13.1382 13.1294C12.9818 13.0505 12.4773 12.8877 11.8796 12.3591C11.4145 11.947 11.1004 11.4396 11.0097 11.284C10.9177 11.1289 11.0004 11.0449 11.0779 10.9678C11.1479 10.8978 11.2344 10.7863 11.3128 10.6952C11.3912 10.6049 11.4171 10.5409 11.4692 10.437C11.5205 10.3332 11.4947 10.2429 11.4561 10.1644C11.4171 10.0864 11.1046 9.32339 10.9737 9.01266C10.8435 8.70235 10.7134 8.75364 10.6218 8.75364C10.5307 8.75364 10.4264 8.74092 10.3221 8.74092C10.2178 8.74092 10.0482 8.77865 9.90537 8.93423C9.76251 9.08981 9.35809 9.46498 9.35809 10.2289C9.35809 10.9936 9.91809 11.7308 9.99652 11.8343C10.0754 11.9373 11.0792 13.5562 12.6693 14.1777C14.2603 14.7987 14.2603 14.5915 14.5469 14.5652C14.8343 14.5389 15.4727 14.19 15.6024 13.828C15.733 13.4642 15.733 13.1527 15.6936 13.0878Z" fill="white"/>
</svg>
