<svg width="41" height="41" viewBox="0 0 41 41" fill="none" xmlns="http://www.w3.org/2000/svg">
<circle opacity="0.4" cx="20.2919" cy="20.1278" r="20.1278" fill="#F2F2F2"/>
<path d="M31.5642 19.4459C31.5642 25.2939 26.7866 30.0346 20.8919 30.0346C19.0213 30.0346 17.2641 29.5561 15.7344 28.7183L9.82617 30.5946L11.7521 24.9118C10.781 23.3169 10.2217 21.4441 10.2217 19.4452C10.2224 13.5972 14.9986 8.85651 20.8933 8.85651C26.7874 8.85792 31.5642 13.598 31.5642 19.4459ZM20.8912 10.545C15.9442 10.545 11.9201 14.5386 11.9201 19.448C11.9201 21.3959 12.5552 23.1992 13.6291 24.6665L12.5091 27.9719L15.9555 26.8767C17.3732 27.8067 19.0695 28.3483 20.8912 28.3483C25.8382 28.3483 29.8637 24.3553 29.8637 19.4459C29.8651 14.5386 25.8389 10.545 20.8912 10.545ZM26.2812 21.885C26.2146 21.778 26.0402 21.7128 25.7794 21.5824C25.5192 21.4519 24.2313 20.8246 23.9924 20.7395C23.7514 20.6524 23.577 20.6084 23.4026 20.8686C23.2304 21.1287 22.7285 21.7128 22.5747 21.8872C22.4223 22.0608 22.2699 22.0828 22.0083 21.9545C21.7468 21.8227 20.9033 21.5505 19.9038 20.6665C19.1262 19.9775 18.6009 19.1291 18.4492 18.8689C18.2954 18.6095 18.4336 18.4691 18.5634 18.3401C18.6803 18.2232 18.8249 18.0367 18.9561 17.8843C19.0872 17.7333 19.1304 17.6263 19.2176 17.4526C19.3034 17.279 19.2602 17.128 19.1957 16.9969C19.1304 16.8664 18.608 15.5905 18.389 15.0709C18.1714 14.5521 17.9538 14.6378 17.8007 14.6378C17.6482 14.6378 17.4739 14.6166 17.2995 14.6166C17.1251 14.6166 16.8416 14.6796 16.6027 14.9398C16.3638 15.1999 15.6876 15.8273 15.6876 17.1046C15.6876 18.3833 16.624 19.616 16.7551 19.789C16.887 19.9612 18.5655 22.6683 21.2244 23.7075C23.8846 24.7459 23.8846 24.3993 24.3638 24.3553C24.8444 24.3114 25.9119 23.728 26.1288 23.1227C26.3472 22.5145 26.3472 21.9935 26.2812 21.885Z" fill="#4F4F4F"/>
</svg>
