<svg width="211" height="55" viewBox="0 0 211 55" fill="none" xmlns="http://www.w3.org/2000/svg">
<path d="M27.46 39.14L28.0025 39.98L28.0086 39.9761L28.0147 39.9721L27.46 39.14ZM1.84 41H0.84V42H1.84V41ZM1.84 11.96V10.96H0.84V11.96H1.84ZM23.5 12.44L23.2991 13.4196L23.3133 13.4225L23.3276 13.425L23.5 12.44ZM26.92 13.94L26.193 14.6266L26.2028 14.637L26.2129 14.6471L26.92 13.94ZM28.3 16.1L27.3365 16.3676L27.3365 16.3676L28.3 16.1ZM23.26 25.22L23.0431 24.2438L22.26 24.4178V25.22H23.26ZM23.26 25.46H22.26V26.3045L23.0926 26.4459L23.26 25.46ZM28.36 27.56L27.7294 28.3361L27.7426 28.3468L27.7561 28.3571L28.36 27.56ZM20.02 18.56L19.172 19.09L19.172 19.09L20.02 18.56ZM18.4 17.72L18.1369 18.6848V18.6848L18.4 17.72ZM10.6 17.36V16.36H9.6V17.36H10.6ZM10.6 23.3H9.6V24.3H10.6V23.3ZM19.24 22.64L18.7186 21.7867L18.7076 21.7934L18.6967 21.8004L19.24 22.64ZM10.6 28.64V27.64H9.6V28.64H10.6ZM10.6 35.6H9.6V36.6H10.6V35.6ZM20.2 34.88L20.6327 35.7815L20.6472 35.7746L20.6614 35.7672L20.2 34.88ZM29.34 31.58V33.32H31.34V31.58H29.34ZM29.34 33.32C29.34 35.6353 28.5082 37.2394 26.9053 38.3079L28.0147 39.9721C30.2518 38.4806 31.34 36.2047 31.34 33.32H29.34ZM26.9175 38.3C25.2541 39.3742 22.2655 40 17.74 40V42C22.3345 42 25.8259 41.3858 28.0025 39.98L26.9175 38.3ZM17.74 40H1.84V42H17.74V40ZM2.84 41V11.96H0.84V41H2.84ZM1.84 12.96H17.32V10.96H1.84V12.96ZM17.32 12.96C19.8479 12.96 21.8326 13.1188 23.2991 13.4196L23.7009 11.4604C22.0474 11.1212 19.9121 10.96 17.32 10.96V12.96ZM23.3276 13.425C24.8398 13.6897 25.7289 14.1352 26.193 14.6266L27.647 13.2534C26.7511 12.3048 25.3602 11.7503 23.6724 11.455L23.3276 13.425ZM26.2129 14.6471C26.8533 15.2875 27.1964 15.8633 27.3365 16.3676L29.2635 15.8324C29.0036 14.8967 28.4267 14.0325 27.6271 13.2329L26.2129 14.6471ZM27.3365 16.3676C27.5016 16.9621 27.6 17.8394 27.6 19.04H29.6C29.6 17.7606 29.4984 16.6779 29.2635 15.8324L27.3365 16.3676ZM27.6 19.04V20.06H29.6V19.04H27.6ZM27.6 20.06C27.6 21.4879 27.2111 22.3043 26.6468 22.766L27.9132 24.314C29.1089 23.3357 29.6 21.8321 29.6 20.06H27.6ZM26.6468 22.766C25.9405 23.3439 24.7747 23.859 23.0431 24.2438L23.4769 26.1962C25.3453 25.781 26.8595 25.1761 27.9132 24.314L26.6468 22.766ZM22.26 25.22V25.46H24.26V25.22H22.26ZM23.0926 26.4459C25.0929 26.7856 26.6178 27.4329 27.7294 28.3361L28.9906 26.7839C27.5422 25.6071 25.6671 24.8544 23.4274 24.4741L23.0926 26.4459ZM27.7561 28.3571C28.8224 29.1648 29.34 30.2077 29.34 31.58H31.34C31.34 29.5923 30.5376 27.9552 28.9639 26.7629L27.7561 28.3571ZM21.32 20.3V19.94H19.32V20.3H21.32ZM21.32 19.94C21.32 19.2533 21.2098 18.5769 20.868 18.03L19.172 19.09C19.2302 19.1831 19.32 19.4267 19.32 19.94H21.32ZM20.868 18.03C20.6318 17.652 20.2666 17.3992 19.9253 17.2222C19.5697 17.0379 19.1411 16.8856 18.6631 16.7552L18.1369 18.6848C18.5389 18.7944 18.8203 18.9021 19.0047 18.9978C19.2034 19.1008 19.2082 19.148 19.172 19.09L20.868 18.03ZM18.6631 16.7552C17.6522 16.4795 16.2452 16.36 14.5 16.36V18.36C16.1948 18.36 17.3878 18.4805 18.1369 18.6848L18.6631 16.7552ZM14.5 16.36H10.6V18.36H14.5V16.36ZM9.6 17.36V23.3H11.6V17.36H9.6ZM10.6 24.3H14.68V22.3H10.6V24.3ZM14.68 24.3C15.8854 24.3 16.9078 24.2442 17.7332 24.1247C18.5306 24.0093 19.2569 23.8202 19.7833 23.4796L18.6967 21.8004C18.5431 21.8998 18.1695 22.0407 17.4468 22.1453C16.7522 22.2458 15.8346 22.3 14.68 22.3V24.3ZM19.7614 23.4933C20.8741 22.8133 21.32 21.6397 21.32 20.3H19.32C19.32 21.2003 19.0459 21.5867 18.7186 21.7867L19.7614 23.4933ZM22.7 32.48V31.4H20.7V32.48H22.7ZM22.7 31.4C22.7 30.7059 22.5572 30.0449 22.2043 29.4771C21.8454 28.8998 21.3172 28.4964 20.6844 28.2488L19.9556 30.1112C20.2428 30.2236 20.4046 30.3702 20.5057 30.5329C20.6128 30.7051 20.7 30.9741 20.7 31.4H22.7ZM20.6844 28.2488C19.568 27.8119 17.6913 27.64 15.22 27.64V29.64C17.7087 29.64 19.232 29.8281 19.9556 30.1112L20.6844 28.2488ZM15.22 27.64H10.6V29.64H15.22V27.64ZM9.6 28.64V35.6H11.6V28.64H9.6ZM10.6 36.6H14.92V34.6H10.6V36.6ZM14.92 36.6C17.4459 36.6 19.4101 36.3684 20.6327 35.7815L19.7673 33.9785C18.9899 34.3516 17.4341 34.6 14.92 34.6V36.6ZM20.6614 35.7672C21.2888 35.4409 21.8114 34.9986 22.173 34.42C22.5361 33.8391 22.7 33.1797 22.7 32.48H20.7C20.7 32.8603 20.6139 33.1409 20.477 33.36C20.3386 33.5814 20.1112 33.7991 19.7386 33.9928L20.6614 35.7672ZM45.7033 8.54V9.54H46.7033V8.54H45.7033ZM36.9433 8.54H35.9433V9.54H36.9433V8.54ZM36.9433 1.46V0.459997H35.9433V1.46H36.9433ZM45.7033 1.46H46.7033V0.459997H45.7033V1.46ZM45.7033 41V42H46.7033V41H45.7033ZM36.9433 41H35.9433V42H36.9433V41ZM36.9433 11.96V10.96H35.9433V11.96H36.9433ZM45.7033 11.96H46.7033V10.96H45.7033V11.96ZM45.7033 7.54H36.9433V9.54H45.7033V7.54ZM37.9433 8.54V1.46H35.9433V8.54H37.9433ZM36.9433 2.46H45.7033V0.459997H36.9433V2.46ZM44.7033 1.46V8.54H46.7033V1.46H44.7033ZM45.7033 40H36.9433V42H45.7033V40ZM37.9433 41V11.96H35.9433V41H37.9433ZM36.9433 12.96H45.7033V10.96H36.9433V12.96ZM44.7033 11.96V41H46.7033V11.96H44.7033ZM57.8369 11.96V10.96H56.8369V11.96H57.8369ZM80.6369 11.96H81.6369V10.96H80.6369V11.96ZM80.6369 35.6H79.6369V36.6H80.6369V35.6ZM83.2769 35.6H84.2769V34.6H83.2769V35.6ZM83.2769 49.04V50.04H84.2769V49.04H83.2769ZM75.2969 49.04H74.2969V50.04H75.2969V49.04ZM75.2969 41H76.2969V40H75.2969V41ZM58.4969 41V40H57.4969V41H58.4969ZM58.4969 49.04V50.04H59.4969V49.04H58.4969ZM50.5169 49.04H49.5169V50.04H50.5169V49.04ZM50.5169 35.6V34.6H49.5169V35.6H50.5169ZM52.6769 35.6V36.6H53.2166L53.5128 36.1488L52.6769 35.6ZM71.9969 17.36H72.9969V16.36H71.9969V17.36ZM66.0569 17.36V16.36H65.0569V17.36H66.0569ZM64.9769 27.5L65.9525 27.7195L65.9531 27.7169L64.9769 27.5ZM62.0369 35.6L61.1657 35.109L60.3253 36.6H62.0369V35.6ZM71.9969 35.6V36.6H72.9969V35.6H71.9969ZM57.8369 12.96H80.6369V10.96H57.8369V12.96ZM79.6369 11.96V35.6H81.6369V11.96H79.6369ZM80.6369 36.6H83.2769V34.6H80.6369V36.6ZM82.2769 35.6V49.04H84.2769V35.6H82.2769ZM83.2769 48.04H75.2969V50.04H83.2769V48.04ZM76.2969 49.04V41H74.2969V49.04H76.2969ZM75.2969 40H58.4969V42H75.2969V40ZM57.4969 41V49.04H59.4969V41H57.4969ZM58.4969 48.04H50.5169V50.04H58.4969V48.04ZM51.5169 49.04V35.6H49.5169V49.04H51.5169ZM50.5169 36.6H52.6769V34.6H50.5169V36.6ZM53.5128 36.1488C57.0823 30.7116 58.8369 24.0296 58.8369 16.16H56.8369C56.8369 23.7304 55.1514 30.0084 51.8409 35.0512L53.5128 36.1488ZM58.8369 16.16V11.96H56.8369V16.16H58.8369ZM71.9969 16.36H66.0569V18.36H71.9969V16.36ZM65.0569 17.36V18.92H67.0569V17.36H65.0569ZM65.0569 18.92C65.0569 21.3073 64.7098 24.092 64.0007 27.2831L65.9531 27.7169C66.6839 24.428 67.0569 21.4927 67.0569 18.92H65.0569ZM64.0013 27.2805C63.2966 30.4121 62.346 33.0149 61.1657 35.109L62.908 36.091C64.2077 33.7851 65.2171 30.9879 65.9525 27.7195L64.0013 27.2805ZM62.0369 36.6H71.9969V34.6H62.0369V36.6ZM72.9969 35.6V17.36H70.9969V35.6H72.9969ZM108.762 17.36V18.36H109.762V17.36H108.762ZM98.0219 17.36V16.36H97.0219V17.36H98.0219ZM98.0219 41V42H99.0219V41H98.0219ZM89.2619 41H88.2619V42H89.2619V41ZM89.2619 11.96V10.96H88.2619V11.96H89.2619ZM108.762 11.96H109.762V10.96H108.762V11.96ZM108.762 16.36H98.0219V18.36H108.762V16.36ZM97.0219 17.36V41H99.0219V17.36H97.0219ZM98.0219 40H89.2619V42H98.0219V40ZM90.2619 41V11.96H88.2619V41H90.2619ZM89.2619 12.96H108.762V10.96H89.2619V12.96ZM107.762 11.96V17.36H109.762V11.96H107.762ZM141.298 11.96L142.232 12.3176L142.752 10.96H141.298V11.96ZM125.398 53.48V54.48H126.086L126.332 53.8376L125.398 53.48ZM116.518 53.48L115.595 53.0966L115.02 54.48H116.518V53.48ZM121.798 40.76L122.722 41.1434L122.879 40.766L122.726 40.3869L121.798 40.76ZM110.218 11.96V10.96H108.738L109.29 12.3331L110.218 11.96ZM119.758 11.96L120.711 11.6563L120.489 10.96H119.758V11.96ZM126.298 32.48L125.346 32.7837L126.344 35.9175L127.259 32.7581L126.298 32.48ZM132.238 11.96V10.96H131.487L131.278 11.6819L132.238 11.96ZM140.364 11.6024L124.464 53.1224L126.332 53.8376L142.232 12.3176L140.364 11.6024ZM125.398 52.48H116.518V54.48H125.398V52.48ZM117.442 53.8634L122.722 41.1434L120.875 40.3766L115.595 53.0966L117.442 53.8634ZM122.726 40.3869L111.146 11.5869L109.29 12.3331L120.87 41.1331L122.726 40.3869ZM110.218 12.96H119.758V10.96H110.218V12.96ZM118.806 12.2637L125.346 32.7837L127.251 32.1763L120.711 11.6563L118.806 12.2637ZM127.259 32.7581L133.199 12.2381L131.278 11.6819L125.338 32.2019L127.259 32.7581ZM132.238 12.96H141.298V10.96H132.238V12.96ZM145.629 41H144.629V42H145.629V41ZM145.629 11.96V10.96H144.629V11.96H145.629ZM154.389 11.96H155.389V10.96H154.389V11.96ZM154.389 23.6H153.389V24.6H154.389V23.6ZM156.189 23.36L155.783 22.4462L155.762 22.4554L155.742 22.4656L156.189 23.36ZM157.329 22.1L156.476 21.579L156.471 21.586L156.467 21.593L157.329 22.1ZM160.149 17.48L161.003 18.001L161.005 17.9963L160.149 17.48ZM163.989 12.68L163.527 11.7934L163.526 11.7934L163.989 12.68ZM173.649 11.96H174.649V10.96H173.649V11.96ZM173.649 17.36V18.36H174.649V17.36H173.649ZM169.389 17.84L169.77 18.7647L169.783 18.7594L169.795 18.7538L169.389 17.84ZM167.409 19.64L168.228 20.2135L168.23 20.2111L167.409 19.64ZM165.729 22.04L164.91 21.4665L164.904 21.4753L165.729 22.04ZM162.789 25.04L162.326 24.1534L160.433 25.1415L162.404 25.9631L162.789 25.04ZM168.549 30.26L169.365 29.6813L169.362 29.6776L168.549 30.26ZM176.169 41V42H178.105L176.985 40.4213L176.169 41ZM166.089 41L165.263 41.5631L165.56 42H166.089V41ZM160.569 32.9L161.395 32.3369L161.395 32.3367L160.569 32.9ZM157.689 29.6L158.211 28.7467V28.7467L157.689 29.6ZM154.389 28.94V27.94H153.389V28.94H154.389ZM154.389 41V42H155.389V41H154.389ZM146.629 41V11.96H144.629V41H146.629ZM145.629 12.96H154.389V10.96H145.629V12.96ZM153.389 11.96V23.6H155.389V11.96H153.389ZM154.389 24.6C154.855 24.6 155.273 24.579 155.631 24.5312C155.976 24.4853 156.332 24.4065 156.636 24.2544L155.742 22.4656C155.742 22.4653 155.735 22.4689 155.718 22.4751C155.701 22.4811 155.677 22.4888 155.644 22.4974C155.578 22.5147 155.487 22.5328 155.367 22.5488C155.125 22.581 154.803 22.6 154.389 22.6V24.6ZM156.595 24.2738C157.259 23.9786 157.773 23.3169 158.191 22.607L156.467 21.593C156.085 22.2431 155.839 22.4214 155.783 22.4462L156.595 24.2738ZM158.183 22.621L161.003 18.001L159.296 16.959L156.476 21.579L158.183 22.621ZM161.005 17.9963C161.814 16.656 162.518 15.617 163.12 14.8647C163.741 14.0879 164.184 13.706 164.452 13.5666L163.526 11.7934C162.874 12.1339 162.217 12.7921 161.558 13.6153C160.88 14.463 160.125 15.584 159.293 16.9637L161.005 17.9963ZM164.452 13.5666C164.731 13.4207 165.361 13.2532 166.48 13.1344C167.561 13.0196 168.987 12.96 170.769 12.96V10.96C168.952 10.96 167.448 11.0204 166.268 11.1456C165.127 11.2668 164.167 11.4593 163.527 11.7934L164.452 13.5666ZM170.769 12.96H173.649V10.96H170.769V12.96ZM172.649 11.96V17.36H174.649V11.96H172.649ZM173.649 16.36H172.689V18.36H173.649V16.36ZM172.689 16.36C171.171 16.36 169.899 16.519 168.983 16.9262L169.795 18.7538C170.319 18.521 171.247 18.36 172.689 18.36V16.36ZM169.008 16.9153C168.08 17.2974 167.284 18.068 166.588 19.0689L168.23 20.2111C168.814 19.372 169.338 18.9426 169.77 18.7647L169.008 16.9153ZM166.59 19.0665L164.91 21.4665L166.548 22.6135L168.228 20.2135L166.59 19.0665ZM164.904 21.4753C163.895 22.9499 163.028 23.7874 162.326 24.1534L163.252 25.9266C164.39 25.3326 165.483 24.1701 166.554 22.6047L164.904 21.4753ZM162.404 25.9631C164.08 26.6612 165.867 28.233 167.736 30.8424L169.362 29.6776C167.391 26.927 165.338 25.0188 163.174 24.1169L162.404 25.9631ZM167.733 30.8386L175.353 41.5787L176.985 40.4213L169.365 29.6814L167.733 30.8386ZM176.169 40H166.089V42H176.169V40ZM166.915 40.4369L161.395 32.3369L159.743 33.4631L165.263 41.5631L166.915 40.4369ZM161.395 32.3367C160.782 31.4373 160.217 30.6875 159.702 30.0975C159.197 29.5181 158.698 29.0448 158.211 28.7467L157.168 30.4533C157.4 30.5952 157.741 30.8919 158.196 31.4125C158.641 31.9225 159.156 32.6027 159.743 33.4633L161.395 32.3367ZM158.211 28.7467C157.255 28.1629 155.932 27.94 154.389 27.94V29.94C155.806 29.94 156.683 30.1571 157.168 30.4533L158.211 28.7467ZM153.389 28.94V41H155.389V28.94H153.389ZM154.389 40H145.629V42H154.389V40ZM188.872 41V42H189.434L189.726 41.5199L188.872 41ZM178.852 41H177.852V42H178.852V41ZM178.852 11.96V10.96H177.852V11.96H178.852ZM186.952 11.96H187.952V10.96H186.952V11.96ZM186.952 32.42H185.952V35.9085L187.8 32.9498L186.952 32.42ZM199.732 11.96V10.96H199.177L198.884 11.4302L199.732 11.96ZM209.752 11.96H210.752V10.96H209.752V11.96ZM209.752 41V42H210.752V41H209.752ZM201.652 41H200.652V42H201.652V41ZM201.652 20H202.652V16.4332L200.797 19.4801L201.652 20ZM188.872 40H178.852V42H188.872V40ZM179.852 41V11.96H177.852V41H179.852ZM178.852 12.96H186.952V10.96H178.852V12.96ZM185.952 11.96V32.42H187.952V11.96H185.952ZM187.8 32.9498L200.58 12.4898L198.884 11.4302L186.104 31.8902L187.8 32.9498ZM199.732 12.96H209.752V10.96H199.732V12.96ZM208.752 11.96V41H210.752V11.96H208.752ZM209.752 40H201.652V42H209.752V40ZM202.652 41V20H200.652V41H202.652ZM200.797 19.4801L188.017 40.4801L189.726 41.5199L202.506 20.5199L200.797 19.4801Z" fill="url(#paint0_linear)"/>
<defs>
<linearGradient id="paint0_linear" x1="-2" y1="20" x2="214" y2="20" gradientUnits="userSpaceOnUse">
<stop stop-color="#1CB86D"/>
<stop offset="1" stop-color="#00B6EF"/>
</linearGradient>
</defs>
</svg>
