<svg width="209" height="53" viewBox="0 0 209 53" fill="none" xmlns="http://www.w3.org/2000/svg">
<path d="M29.34 30.58V32.32C29.34 34.92 28.38 36.86 26.46 38.14C24.54 39.38 21.3 40 16.74 40H0.84V10.96H16.32C18.88 10.96 20.94 11.12 22.5 11.44C24.1 11.72 25.24 12.22 25.92 12.94C26.64 13.66 27.1 14.38 27.3 15.1C27.5 15.82 27.6 16.8 27.6 18.04V19.06C27.6 20.66 27.16 21.82 26.28 22.54C25.4 23.26 24.06 23.82 22.26 24.22V24.46C24.38 24.82 26.08 25.52 27.36 26.56C28.68 27.56 29.34 28.9 29.34 30.58ZM19.32 19.3V18.94C19.32 18.34 19.22 17.88 19.02 17.56C18.82 17.24 18.28 16.96 17.4 16.72C16.52 16.48 15.22 16.36 13.5 16.36H9.6V22.3H13.68C16.04 22.3 17.56 22.08 18.24 21.64C18.96 21.2 19.32 20.42 19.32 19.3ZM20.7 31.48V30.4C20.7 29.28 20.24 28.54 19.32 28.18C18.4 27.82 16.7 27.64 14.22 27.64H9.6V34.6H13.92C16.44 34.6 18.2 34.36 19.2 33.88C20.2 33.36 20.7 32.56 20.7 31.48ZM44.7033 7.54H35.9433V0.459998H44.7033V7.54ZM44.7033 40H35.9433V10.96H44.7033V40ZM56.8369 10.96H79.6369V34.6H82.2769V48.04H74.2969V40H57.4969V48.04H49.5169V34.6H51.6769C55.1169 29.36 56.8369 22.88 56.8369 15.16V10.96ZM70.9969 16.36H65.0569V17.92C65.0569 20.4 64.6969 23.26 63.9769 26.5C63.2569 29.7 62.2769 32.4 61.0369 34.6H70.9969V16.36ZM107.762 16.36H97.0219V40H88.2619V10.96H107.762V16.36ZM140.298 10.96L124.398 52.48H115.518L120.798 39.76L109.218 10.96H118.758L125.298 31.48L131.238 10.96H140.298ZM144.629 40V10.96H153.389V22.6C154.269 22.6 154.869 22.52 155.189 22.36C155.549 22.2 155.929 21.78 156.329 21.1L159.149 16.48C160.789 13.76 162.069 12.16 162.989 11.68C163.909 11.2 166.169 10.96 169.769 10.96H172.649V16.36H171.689C170.209 16.36 169.109 16.52 168.389 16.84C167.709 17.12 167.049 17.72 166.409 18.64L164.729 21.04C163.689 22.56 162.709 23.56 161.789 24.04C163.709 24.84 165.629 26.58 167.549 29.26L175.169 40H165.089L159.569 31.9C158.369 30.14 157.409 29.04 156.689 28.6C155.969 28.16 154.869 27.94 153.389 27.94V40H144.629ZM187.872 40H177.852V10.96H185.952V31.42L198.732 10.96H208.752V40H200.652V19L187.872 40Z" fill="white"/>
</svg>
