<svg width="102" height="96" viewBox="0 0 102 96" fill="none" xmlns="http://www.w3.org/2000/svg">
<path d="M0.778978 39.5876C-2.26193 29.04 3.86991 18.0376 14.4748 15.0131L64.3997 0.774768C75.0047 -2.24971 86.0668 3.84899 89.1077 14.3966L101.221 56.4124C104.262 66.96 98.1301 77.9624 87.5252 80.9869L37.6003 95.2252C26.9953 98.2497 15.9332 92.151 12.8923 81.6034L0.778978 39.5876Z" fill="#E4EEE7"/>
<rect x="12" y="13" width="78" height="70" rx="8" fill="white"/>
<path d="M57 33C54.2449 33 52 35.2449 52 38C52 40.7551 54.2449 43 57 43C59.7551 43 62 40.7551 62 38C62 35.2449 59.7551 33 57 33ZM57 41.8961C54.8571 41.8961 53.1132 40.1521 53.1132 38.0093C53.1132 35.8664 54.8571 34.1224 57 34.1224C59.1429 34.1224 60.8868 35.8664 60.8868 38.0093C60.8868 40.1521 59.1429 41.8961 57 41.8961Z" fill="#69AD7D"/>
<path d="M68.4015 35.512H67.2004C66.9475 34.4644 66.5321 33.471 65.9722 32.5498L66.8211 31.7009C67.4442 31.0778 67.4442 30.0573 66.8211 29.4342L65.5658 28.1789C65.2678 27.8809 64.8614 27.7093 64.437 27.7093C64.0125 27.7093 63.6061 27.8718 63.3081 28.1789L62.4592 29.0278C61.538 28.4679 60.5446 28.0524 59.497 27.7996V26.5985C59.497 25.7134 58.7836 25 57.8986 25H56.1195C55.2345 25 54.521 25.7134 54.521 26.5985V27.7996C53.4734 28.0524 52.48 28.4679 51.5589 29.0278L50.71 28.1789C50.4119 27.8809 50.0056 27.7093 49.5811 27.7093C49.1567 27.7093 48.7503 27.8718 48.4522 28.1789L47.1789 29.4342C46.5557 30.0573 46.5557 31.0688 47.1789 31.7009L48.0278 32.5498C47.4679 33.471 47.0524 34.4644 46.7996 35.512H45.5985C44.7134 35.512 44 36.2254 44 37.1105V38.8895C44 39.7746 44.7134 40.488 45.5985 40.488H46.7996C47.0524 41.5356 47.4679 42.529 48.0278 43.4502L47.1789 44.2991C46.5557 44.9222 46.5557 45.9427 47.1789 46.5658L48.4342 47.8211C48.7322 48.1191 49.1386 48.2907 49.563 48.2907C49.9875 48.2907 50.3939 48.1282 50.6919 47.8211L51.5408 46.9722C52.462 47.5321 53.4554 47.9476 54.503 48.2004V49.4015C54.503 50.2866 55.2164 51 56.1014 51H57.8805C58.7655 51 59.479 50.2866 59.479 49.4015V48.2004C60.5266 47.9476 61.52 47.5321 62.4411 46.9722L63.29 47.8211C63.588 48.1191 63.9944 48.2907 64.4189 48.2907C64.8433 48.2907 65.2497 48.1282 65.5478 47.8211L66.8031 46.5658C67.4262 45.9427 67.4262 44.9312 66.8031 44.2991L65.9541 43.4502C66.5141 42.529 66.9295 41.5356 67.1824 40.488H68.4015C69.2866 40.488 70 39.7746 70 38.8895V37.1105C70 36.2254 69.2866 35.512 68.4015 35.512ZM68.9163 38.8895C68.9163 39.1785 68.6815 39.4043 68.4015 39.4043H66.7669C66.505 39.4043 66.2883 39.5849 66.2341 39.8378C65.9903 41.0479 65.5207 42.1858 64.8343 43.2244C64.6898 43.4411 64.7169 43.7301 64.8975 43.9107L66.0535 45.0667C66.2522 45.2654 66.2522 45.5995 66.0535 45.7982L64.7982 47.0535C64.6989 47.1528 64.5724 47.207 64.437 47.207C64.3015 47.207 64.166 47.1528 64.0757 47.0535L62.9107 45.8975C62.7301 45.7169 62.4411 45.6898 62.2244 45.8343C61.1949 46.5207 60.057 46.9993 58.8378 47.2341C58.5849 47.2883 58.4043 47.505 58.4043 47.7669V49.4015C58.4043 49.6905 58.1695 49.9163 57.8895 49.9163H56.1105C55.8215 49.9163 55.5957 49.6815 55.5957 49.4015V47.7669C55.5957 47.505 55.4151 47.2883 55.1622 47.2341C53.9521 46.9903 52.8142 46.5207 51.7756 45.8343C51.6853 45.7711 51.5769 45.744 51.4776 45.744C51.3421 45.744 51.1976 45.7982 51.0983 45.9066L49.9423 47.0625C49.843 47.1619 49.7166 47.216 49.5811 47.216C49.4456 47.216 49.3102 47.1619 49.2199 47.0625L47.9646 45.8072C47.7659 45.6085 47.7659 45.2744 47.9646 45.0757L49.1205 43.9198C49.3011 43.7391 49.3282 43.4502 49.1837 43.2334C48.4974 42.2039 48.0188 41.066 47.784 39.8468C47.7298 39.594 47.513 39.4133 47.2511 39.4133H45.6165C45.3275 39.4133 45.1018 39.1785 45.1018 38.8986V37.1195C45.1018 36.8305 45.3366 36.6047 45.6165 36.6047H47.2511C47.513 36.6047 47.7298 36.4241 47.784 36.1712C48.0278 34.9611 48.4974 33.8232 49.1837 32.7846C49.3282 32.5679 49.3011 32.2789 49.1205 32.0983L47.9646 30.9423C47.7659 30.7437 47.7659 30.4095 47.9646 30.2108L49.2199 28.9555C49.3192 28.8562 49.4456 28.802 49.5811 28.802C49.7166 28.802 49.852 28.8562 49.9423 28.9555L51.0983 30.1115C51.2789 30.2921 51.5679 30.3192 51.7846 30.1747C52.8142 29.4884 53.9521 29.0097 55.1712 28.7749C55.4241 28.7207 55.6047 28.504 55.6047 28.2421V26.5985C55.6047 26.3095 55.8395 26.0837 56.1195 26.0837H57.8986C58.1876 26.0837 58.4133 26.3185 58.4133 26.5985V28.2331C58.4133 28.495 58.594 28.7117 58.8468 28.7659C60.057 29.0097 61.1949 29.4793 62.2334 30.1657C62.4502 30.3102 62.7391 30.2831 62.9198 30.1025L64.0667 28.9465C64.166 28.8472 64.2925 28.793 64.4279 28.793C64.5634 28.793 64.6989 28.8472 64.7892 28.9465L66.0445 30.2018C66.2431 30.4005 66.2431 30.7346 66.0445 30.9333L64.8885 32.0893C64.7079 32.2699 64.6808 32.5589 64.8253 32.7756C65.5116 33.8051 65.9903 34.943 66.2251 36.1622C66.2793 36.4151 66.496 36.5957 66.7579 36.5957H68.4015C68.6905 36.5957 68.9163 36.8305 68.9163 37.1105V38.8895Z" fill="#69AD7D"/>
<path d="M63.6219 51.0215C63.3419 50.9254 63.0348 51.0887 62.9354 51.3864C62.2128 53.7301 60.9121 55.8528 59.1958 57.5337C59.0874 57.6394 59.0242 57.793 59.0242 57.9563V69.8378H43.3343V66.0246C43.3343 65.8613 43.262 65.698 43.1446 65.5923C43.0272 65.4867 42.8646 65.4387 42.711 65.4579L38.6553 66.1014C37.3275 66.0822 36.2526 64.92 36.2526 63.508V57.9275C36.2526 57.6105 36.0087 57.3512 35.7107 57.3512H34.3557C33.7957 57.3512 33.3802 57.1687 33.1905 56.8421C33.0008 56.5156 33.046 56.0353 33.3079 55.507L36.1984 49.6383C36.2436 49.5519 36.2617 49.4654 36.2617 49.3694V46.8625C36.2617 41.2435 39.3599 36.0856 44.1563 33.7227C44.6079 33.4922 45.0867 33.2905 45.5564 33.1176C45.8364 33.012 45.9899 32.6854 45.8906 32.3876C45.7912 32.0899 45.4841 31.9266 45.2041 32.0322C44.6892 32.2243 44.1834 32.4453 43.6956 32.6854C41.1845 33.9244 39.0618 35.8839 37.5533 38.3524C35.9997 40.8881 35.1777 43.8369 35.1777 46.8721V49.2349L32.3505 54.9787C31.9169 55.872 31.8808 56.7653 32.2692 57.4472C32.6576 58.1388 33.4073 58.5134 34.3648 58.5134H35.1777V63.5177C35.1777 65.5827 36.7585 67.2636 38.7005 67.2636C38.7276 67.2636 38.7547 67.2636 38.7818 67.254L42.2504 66.7065V70.4237C42.2504 70.7407 42.4943 71 42.7923 71H59.5662C59.8643 71 60.1082 70.7407 60.1082 70.4237V58.2157C61.8786 56.4291 63.2154 54.2007 63.9742 51.7514C64.0645 51.4537 63.9109 51.1271 63.6219 51.0215Z" fill="#69AD7D"/>
</svg>
