<svg width="25" height="25" viewBox="0 0 25 25" fill="none" xmlns="http://www.w3.org/2000/svg">
<circle cx="12.5" cy="12.5" r="12.5" fill="#E0E0E0"/>
<path d="M11.4269 17.4876C9.04636 17.4377 8.23328 17.3928 7.73351 17.2755C7.39539 17.1976 7.10155 17.0245 6.88611 16.7736C6.7196 16.5836 6.58717 16.2938 6.48444 15.8918C6.39631 15.5568 6.36199 15.2781 6.31305 14.5974C6.23815 13.061 6.22029 11.8049 6.31305 10.4013C6.38959 9.62628 6.42669 8.70618 6.93504 8.1694C7.17507 7.91818 7.45429 7.75651 7.76783 7.68967C8.25763 7.58374 10.3444 7.5 12.5046 7.5C14.66 7.5 16.7514 7.58374 17.2416 7.68967C17.6333 7.77341 18.0007 8.02437 18.2164 8.34797C18.6802 9.17904 18.6883 10.2125 18.7354 11.0208C18.7549 11.406 18.7549 13.593 18.7354 13.9782C18.6621 15.2557 18.6032 15.7077 18.4367 16.1763C18.3337 16.4722 18.2458 16.6283 18.0937 16.8013C17.8551 17.0676 17.5509 17.2447 17.2217 17.309C15.1616 17.4855 13.4123 17.5238 11.4269 17.4876ZM14.5816 12.3543C13.4355 11.6567 12.3381 11.0097 11.2164 10.3401V14.3464C12.3968 13.6155 13.6412 12.9458 14.5865 12.3488L14.5816 12.3543Z" fill="#333333"/>
</svg>
