<svg width="30" height="30" viewBox="0 0 30 30" fill="none" xmlns="http://www.w3.org/2000/svg">
<circle cx="15" cy="15" r="15" fill="#F40000"/>
<path d="M21.5351 14.1847C21.5351 13.8938 21.4866 13.5544 21.4866 13.1665C21.4381 12.7787 21.3896 12.3908 21.3412 12.0514C21.2442 11.6635 21.0987 11.3726 20.8078 11.1302C20.5654 10.8878 20.226 10.7423 19.8866 10.6938C18.7715 10.5484 17.123 10.4999 14.8927 10.4999C12.6624 10.4999 10.9654 10.5484 9.89873 10.6938C9.55933 10.7423 9.21994 10.8878 8.97752 11.1302C8.73509 11.3726 8.54115 11.6635 8.44418 12.0514C8.34721 12.3908 8.29873 12.7302 8.29873 13.1665C8.25025 13.5544 8.25024 13.8938 8.25024 14.1847C8.25024 14.4756 8.25024 14.815 8.25024 15.2999C8.25024 15.7847 8.25024 16.1726 8.25024 16.415C8.25024 16.7059 8.29873 17.0453 8.29873 17.4332C8.34722 17.8211 8.3957 18.209 8.44418 18.5484C8.54115 18.9362 8.68661 19.2272 8.97752 19.4696C9.21994 19.712 9.55933 19.8575 9.89873 19.9059C11.0139 20.0514 12.6624 20.0999 14.8927 20.0999C17.123 20.0999 18.8199 20.0514 19.8866 19.9059C20.226 19.8575 20.5654 19.712 20.8078 19.4696C21.0502 19.2272 21.2442 18.9362 21.3412 18.5484C21.4381 18.209 21.4866 17.8696 21.4866 17.4332C21.5351 17.0453 21.5351 16.7059 21.5351 16.415C21.5351 16.1241 21.5351 15.7847 21.5351 15.2999C21.5351 14.815 21.5351 14.4271 21.5351 14.1847ZM17.4624 15.6878L13.6321 18.0635C13.5836 18.112 13.4866 18.1605 13.3896 18.1605C13.2927 18.1605 13.2442 18.1605 13.1472 18.112C13.0018 18.015 12.9048 17.8696 12.9048 17.6756V12.8756C12.9048 12.6817 13.0018 12.5362 13.1472 12.4393C13.2927 12.3423 13.4866 12.3423 13.6321 12.4393L17.4624 14.815C17.6078 14.912 17.7048 15.0575 17.7048 15.2029C17.7048 15.3484 17.6078 15.5908 17.4624 15.6878Z" fill="white"/>
</svg>
