<svg width="40" height="40" viewBox="0 0 40 40" fill="none" xmlns="http://www.w3.org/2000/svg">
<circle cx="20" cy="20" r="19.5" stroke="url(#paint0_linear)"/>
<path d="M28.3848 15.7832C28.2851 15.4122 28.0898 15.0738 27.8184 14.802C27.5469 14.5302 27.2088 14.3345 26.8379 14.2344C25.4727 13.8672 20 13.8672 20 13.8672C20 13.8672 14.5273 13.8672 13.1621 14.2324C12.7911 14.3322 12.4528 14.5278 12.1813 14.7997C11.9097 15.0716 11.7145 15.4101 11.6152 15.7812C11.25 17.1484 11.25 20 11.25 20C11.25 20 11.25 22.8516 11.6152 24.2168C11.8164 24.9707 12.4102 25.5645 13.1621 25.7656C14.5273 26.1328 20 26.1328 20 26.1328C20 26.1328 25.4727 26.1328 26.8379 25.7656C27.5918 25.5645 28.1836 24.9707 28.3848 24.2168C28.75 22.8516 28.75 20 28.75 20C28.75 20 28.75 17.1484 28.3848 15.7832ZM18.2617 22.6172V17.3828L22.793 19.9805L18.2617 22.6172Z" fill="url(#paint1_linear)"/>
<defs>
<linearGradient id="paint0_linear" x1="-2.23517e-07" y1="20" x2="40" y2="20" gradientUnits="userSpaceOnUse">
<stop stop-color="#1CB86D"/>
<stop offset="1" stop-color="#00B6EF"/>
</linearGradient>
<linearGradient id="paint1_linear" x1="11.25" y1="20" x2="28.75" y2="20" gradientUnits="userSpaceOnUse">
<stop stop-color="#1CB86D"/>
<stop offset="1" stop-color="#00B6EF"/>
</linearGradient>
</defs>
</svg>
