<svg width="275" height="43" viewBox="0 0 275 43" fill="none" xmlns="http://www.w3.org/2000/svg">
<path d="M29.76 30H21V6.36H9.6V30H0.84V0.959998H29.76V30ZM67.1611 10.14V19.68C67.1611 24 66.2011 26.9 64.2811 28.38C62.3611 29.86 59.2411 30.6 54.9211 30.6C52.2011 30.6 50.1611 30.38 48.8011 29.94C47.4811 29.5 46.6211 28.54 46.2211 27.06V42.48H37.4611V0.959998H45.7411V3.84C46.2611 2.56 47.2811 1.66 48.8011 1.14C50.3611 0.619999 52.6211 0.359999 55.5811 0.359999C58.0611 0.359999 60.0811 0.559999 61.6411 0.959998C63.2011 1.36 64.3811 2.02 65.1811 2.94C65.9811 3.82 66.5011 4.8 66.7411 5.88C67.0211 6.96 67.1611 8.38 67.1611 10.14ZM58.4011 20.82V10.08C58.4011 8.2 58.0411 7.02 57.3211 6.54C56.6411 6.02 54.9211 5.76 52.1611 5.76C49.6811 5.76 48.0611 6.08 47.3011 6.72C46.5811 7.36 46.2211 8.48 46.2211 10.08V20.82C46.2211 22.54 46.5811 23.7 47.3011 24.3C48.0211 24.86 49.6611 25.14 52.2211 25.14C54.7811 25.14 56.4411 24.86 57.2011 24.3C58.0011 23.7 58.4011 22.54 58.4011 20.82ZM102.704 11.46V20.04C102.704 21.92 102.404 23.54 101.804 24.9C101.204 26.22 100.464 27.26 99.5836 28.02C98.7036 28.74 97.5436 29.3 96.1036 29.7C94.7036 30.1 93.4036 30.34 92.2036 30.42C91.0436 30.54 89.6236 30.6 87.9436 30.6C86.2636 30.6 84.8236 30.54 83.6236 30.42C82.4636 30.34 81.1636 30.1 79.7236 29.7C78.3236 29.3 77.1836 28.74 76.3036 28.02C75.4236 27.26 74.6836 26.22 74.0836 24.9C73.4836 23.54 73.1836 21.92 73.1836 20.04V11.46C73.1836 9.46 73.4836 7.76 74.0836 6.36C74.7236 4.92 75.4836 3.82 76.3636 3.06C77.2836 2.3 78.4636 1.72 79.9036 1.32C81.3436 0.879999 82.6236 0.619999 83.7436 0.539998C84.9036 0.419999 86.3036 0.359999 87.9436 0.359999C89.5836 0.359999 90.9636 0.419999 92.0836 0.539998C93.2436 0.619999 94.5436 0.879999 95.9836 1.32C97.4236 1.72 98.5836 2.3 99.4636 3.06C100.384 3.82 101.144 4.92 101.744 6.36C102.384 7.76 102.704 9.46 102.704 11.46ZM93.9436 21.06V10.08C93.9436 8.52 93.5436 7.42 92.7436 6.78C91.9436 6.1 90.3436 5.76 87.9436 5.76C85.5436 5.76 83.9436 6.1 83.1436 6.78C82.3436 7.42 81.9436 8.52 81.9436 10.08V21.06C81.9436 22.58 82.3236 23.64 83.0836 24.24C83.8836 24.84 85.5036 25.14 87.9436 25.14C90.3836 25.14 91.9836 24.84 92.7436 24.24C93.5436 23.64 93.9436 22.58 93.9436 21.06ZM129.031 6.36H118.291V30H109.531V0.959998H129.031V6.36ZM163.548 10.14V19.68C163.548 24 162.588 26.9 160.668 28.38C158.748 29.86 155.628 30.6 151.308 30.6C148.588 30.6 146.548 30.38 145.188 29.94C143.868 29.5 143.008 28.54 142.608 27.06V42.48H133.848V0.959998H142.128V3.84C142.648 2.56 143.668 1.66 145.188 1.14C146.748 0.619999 149.008 0.359999 151.968 0.359999C154.448 0.359999 156.468 0.559999 158.028 0.959998C159.588 1.36 160.768 2.02 161.568 2.94C162.368 3.82 162.888 4.8 163.128 5.88C163.408 6.96 163.548 8.38 163.548 10.14ZM154.788 20.82V10.08C154.788 8.2 154.428 7.02 153.708 6.54C153.028 6.02 151.308 5.76 148.548 5.76C146.068 5.76 144.448 6.08 143.688 6.72C142.968 7.36 142.608 8.48 142.608 10.08V20.82C142.608 22.54 142.968 23.7 143.688 24.3C144.408 24.86 146.048 25.14 148.608 25.14C151.168 25.14 152.828 24.86 153.588 24.3C154.388 23.7 154.788 22.54 154.788 20.82ZM196.57 30H187.99V27.36C187.35 28.52 186.43 29.36 185.23 29.88C184.03 30.36 181.83 30.6 178.63 30.6C174.71 30.6 172.11 30 170.83 28.8C169.55 27.6 168.91 25.1 168.91 21.3C168.91 17.86 169.57 15.48 170.89 14.16C172.21 12.8 174.57 12.12 177.97 12.12H187.81V10.14C187.81 8.38 187.39 7.22 186.55 6.66C185.75 6.06 184.03 5.76 181.39 5.76C178.91 5.76 175.51 6 171.19 6.48V0.959998C174.51 0.559999 178.21 0.359999 182.29 0.359999C187.65 0.359999 191.37 1.02 193.45 2.34C195.53 3.62 196.57 6.18 196.57 10.02V30ZM187.81 22.56V16.92H181.81C179.89 16.92 178.69 17.14 178.21 17.58C177.73 18.02 177.49 19.2 177.49 21.12C177.49 23 177.73 24.14 178.21 24.54C178.73 24.94 180.01 25.14 182.05 25.14C183.05 25.14 183.79 25.14 184.27 25.14C184.75 25.1 185.27 25.04 185.83 24.96C186.39 24.88 186.77 24.76 186.97 24.6C187.21 24.4 187.41 24.14 187.57 23.82C187.73 23.5 187.81 23.08 187.81 22.56ZM240.698 30H232.718V10.2H232.418L225.458 30H219.038L212.318 10.2H212.018V30H204.278V0.959998H216.218L222.578 20.52L229.358 0.959998H240.698V30ZM274.559 30H265.979V27.36C265.339 28.52 264.419 29.36 263.219 29.88C262.019 30.36 259.819 30.6 256.619 30.6C252.699 30.6 250.099 30 248.819 28.8C247.539 27.6 246.899 25.1 246.899 21.3C246.899 17.86 247.559 15.48 248.879 14.16C250.199 12.8 252.559 12.12 255.959 12.12H265.799V10.14C265.799 8.38 265.379 7.22 264.539 6.66C263.739 6.06 262.019 5.76 259.379 5.76C256.899 5.76 253.499 6 249.179 6.48V0.959998C252.499 0.559999 256.199 0.359999 260.279 0.359999C265.639 0.359999 269.359 1.02 271.439 2.34C273.519 3.62 274.559 6.18 274.559 10.02V30ZM265.799 22.56V16.92H259.799C257.879 16.92 256.679 17.14 256.199 17.58C255.719 18.02 255.479 19.2 255.479 21.12C255.479 23 255.719 24.14 256.199 24.54C256.719 24.94 257.999 25.14 260.039 25.14C261.039 25.14 261.779 25.14 262.259 25.14C262.739 25.1 263.259 25.04 263.819 24.96C264.379 24.88 264.759 24.76 264.959 24.6C265.199 24.4 265.399 24.14 265.559 23.82C265.719 23.5 265.799 23.08 265.799 22.56Z" fill="white"/>
</svg>
