<svg width="241" height="45" viewBox="0 0 241 45" fill="none" xmlns="http://www.w3.org/2000/svg">
<path d="M28.66 29.38L29.2705 30.172L28.66 29.38ZM13.18 30.94L12.8638 31.8887L12.8722 31.8914L13.18 30.94ZM10.6 28.06L11.5654 27.7991L9.6 28.06H10.6ZM10.6 43.48V44.48H11.6V43.48H10.6ZM1.84 43.48H0.84V44.48H1.84V43.48ZM1.84 1.96V0.959999H0.84V1.96H1.84ZM10.12 1.96H11.12V0.959999H10.12V1.96ZM10.12 4.84H9.12L11.0465 5.21638L10.12 4.84ZM13.18 2.14L12.8638 1.19128L12.8563 1.19383L13.18 2.14ZM26.02 1.96L25.7716 2.92866L26.02 1.96ZM29.56 3.94L28.8054 4.59618L28.8126 4.6045L28.8201 4.61267L29.56 3.94ZM31.12 6.88L30.1438 7.09693L30.1476 7.11402L30.152 7.13096L31.12 6.88ZM21.7 7.54L21.0926 8.33435L21.1183 8.35406L21.1453 8.37205L21.7 7.54ZM11.68 7.72L11.0359 6.95509L11.0256 6.9637L11.0156 6.97259L11.68 7.72ZM11.68 25.3L11.0398 26.0682L11.0528 26.079L11.0661 26.0894L11.68 25.3ZM21.58 25.3L22.1732 26.1051L22.18 26.1L21.58 25.3ZM30.54 11.14V20.68H32.54V11.14H30.54ZM30.54 20.68C30.54 24.9218 29.5853 27.4042 28.0495 28.588L29.2705 30.172C31.5747 28.3958 32.54 25.0782 32.54 20.68H30.54ZM28.0495 28.588C26.3959 29.8627 23.5522 30.6 19.3 30.6V32.6C23.6878 32.6 27.0841 31.8573 29.2705 30.172L28.0495 28.588ZM19.3 30.6C16.6081 30.6 14.6952 30.3792 13.4878 29.9886L12.8722 31.8914C14.3848 32.3808 16.5519 32.6 19.3 32.6V30.6ZM13.4962 29.9913C12.5306 29.6694 11.8884 28.9944 11.5654 27.7991L9.63464 28.3209C10.1116 30.0856 11.1894 31.3306 12.8638 31.8887L13.4962 29.9913ZM9.6 28.06V43.48H11.6V28.06H9.6ZM10.6 42.48H1.84V44.48H10.6V42.48ZM2.84 43.48V1.96H0.84V43.48H2.84ZM1.84 2.96H10.12V0.959999H1.84V2.96ZM9.12 1.96V4.84H11.12V1.96H9.12ZM11.0465 5.21638C11.4393 4.2494 12.2083 3.52932 13.5037 3.08616L12.8563 1.19383C11.1117 1.79068 9.8407 2.8706 9.19353 4.46362L11.0465 5.21638ZM13.4962 3.08868C14.9034 2.61963 17.036 2.36 19.96 2.36V0.360001C16.964 0.360001 14.5766 0.620365 12.8638 1.19131L13.4962 3.08868ZM19.96 2.36C22.3961 2.36 24.324 2.55747 25.7716 2.92866L26.2684 0.991333C24.596 0.562531 22.4839 0.360001 19.96 0.360001V2.36ZM25.7716 2.92866C27.1973 3.29423 28.1752 3.87151 28.8054 4.59618L30.3146 3.28382C29.3448 2.16849 27.9627 1.42577 26.2684 0.991333L25.7716 2.92866ZM28.8201 4.61267C29.5121 5.37387 29.9444 6.1995 30.1438 7.09693L32.0962 6.66307C31.8156 5.4005 31.2079 4.26612 30.2999 3.26733L28.8201 4.61267ZM30.152 7.13096C30.4022 8.096 30.54 9.42198 30.54 11.14H32.54C32.54 9.33801 32.3978 7.824 32.088 6.62904L30.152 7.13096ZM23.78 21.82V11.08H21.78V21.82H23.78ZM23.78 11.08C23.78 10.0872 23.6862 9.21354 23.4665 8.49319C23.2472 7.77432 22.8743 7.12105 22.2547 6.70795L21.1453 8.37205C21.2457 8.43895 21.4128 8.61568 21.5535 9.07681C21.6938 9.53646 21.78 10.1928 21.78 11.08H23.78ZM22.3075 6.74564C21.7545 6.32283 20.9374 6.10045 20.0495 5.96623C19.12 5.82573 17.9447 5.76 16.54 5.76V7.76C17.8953 7.76 18.96 7.82426 19.7505 7.94377C20.5826 8.06955 20.9655 8.23717 21.0926 8.33435L22.3075 6.74564ZM16.54 5.76C15.2639 5.76 14.1682 5.84177 13.2712 6.01896C12.3924 6.19254 11.6043 6.47638 11.0359 6.95509L12.3241 8.48491C12.5157 8.32362 12.9176 8.12746 13.6588 7.98104C14.3818 7.83823 15.3361 7.76 16.54 7.76V5.76ZM11.0156 6.97259C9.97605 7.89667 9.6 9.37644 9.6 11.08H11.6C11.6 9.58356 11.944 8.82333 12.3444 8.46741L11.0156 6.97259ZM9.6 11.08V21.82H11.6V11.08H9.6ZM9.6 21.82C9.6 23.606 9.95989 25.1683 11.0398 26.0682L12.3202 24.5318C11.9601 24.2317 11.6 23.474 11.6 21.82H9.6ZM11.0661 26.0894C11.6239 26.5232 12.4127 26.7674 13.2817 26.9157C14.1785 27.0688 15.2902 27.14 16.6 27.14V25.14C15.3498 25.14 14.3615 25.0712 13.6183 24.9443C12.8473 24.8126 12.4561 24.6368 12.2939 24.5106L11.0661 26.0894ZM16.6 27.14C17.9102 27.14 19.0259 27.0688 19.9313 26.9161C20.8127 26.7674 21.6036 26.5248 22.1732 26.1051L20.9868 24.4949C20.7964 24.6352 20.3773 24.8126 19.5987 24.9439C18.8441 25.0712 17.8498 25.14 16.6 25.14V27.14ZM22.18 26.1C23.3677 25.2093 23.78 23.6334 23.78 21.82H21.78C21.78 23.4466 21.3923 24.1907 20.98 24.5L22.18 26.1ZM66.1825 25.9L67.0929 26.3138L67.0974 26.3036L66.1825 25.9ZM63.9625 29.02L64.5957 29.794L64.606 29.7855L64.6161 29.7768L63.9625 29.02ZM60.4825 30.7L60.2149 29.7365L60.2078 29.7385L60.4825 30.7ZM56.5825 31.42L56.516 30.4222L56.4978 30.4234L56.4796 30.4253L56.5825 31.42ZM48.0025 31.42L48.102 30.425L48.0867 30.4234L48.0713 30.4224L48.0025 31.42ZM44.1025 30.7L43.8278 31.6616L43.8349 31.6635L44.1025 30.7ZM40.6825 29.02L40.0289 29.7768L40.039 29.7855L40.0493 29.794L40.6825 29.02ZM38.4625 25.9L37.5475 26.3037L37.5521 26.3138L38.4625 25.9ZM38.4625 7.36L37.5486 6.95382L37.5434 6.96608L38.4625 7.36ZM40.7425 4.06L40.1056 3.28904L40.0972 3.29601L40.0889 3.30318L40.7425 4.06ZM44.2825 2.32L44.5501 3.28352L44.5625 3.28009L44.5747 3.27635L44.2825 2.32ZM48.1225 1.54L48.1937 2.53746L48.2096 2.53632L48.2254 2.53469L48.1225 1.54ZM56.4625 1.54L56.356 2.53431L56.3748 2.53633L56.3937 2.53763L56.4625 1.54ZM60.3625 2.32L60.0703 3.27635L60.0825 3.28009L60.0949 3.28352L60.3625 2.32ZM63.8425 4.06L63.1889 4.81682L63.1972 4.82398L63.2056 4.83096L63.8425 4.06ZM66.1225 7.36L65.1994 7.74461L65.206 7.7603L65.213 7.77576L66.1225 7.36ZM57.1225 7.78L56.4749 8.54194L56.4862 8.55157L56.4978 8.56087L57.1225 7.78ZM47.5225 7.78L48.1472 8.56087L48.1588 8.55157L48.1701 8.54194L47.5225 7.78ZM47.4625 25.24L46.8429 26.0249L46.8526 26.0326L46.8625 26.04L47.4625 25.24ZM57.1225 25.24L56.5225 24.44L56.5126 24.4474L56.5029 24.4551L57.1225 25.24ZM66.0825 12.46V21.04H68.0825V12.46H66.0825ZM66.0825 21.04C66.0825 22.8165 65.7987 24.2924 65.2676 25.4964L67.0974 26.3036C67.7663 24.7876 68.0825 23.0235 68.0825 21.04H66.0825ZM65.2721 25.4862C64.7176 26.7062 64.056 27.6179 63.3089 28.2632L64.6161 29.7768C65.629 28.9021 66.4474 27.7338 67.0929 26.3138L65.2721 25.4862ZM63.3293 28.246C62.5847 28.8552 61.5612 29.3625 60.2149 29.7365L60.7501 31.6635C62.2838 31.2375 63.5803 30.6248 64.5957 29.794L63.3293 28.246ZM60.2078 29.7385C58.862 30.123 57.6326 30.3478 56.516 30.4222L56.649 32.4178C57.9324 32.3322 59.303 32.077 60.7572 31.6615L60.2078 29.7385ZM56.4796 30.4253C55.365 30.5406 53.9817 30.6 52.3225 30.6V32.6C54.0233 32.6 55.48 32.5394 56.6854 32.4147L56.4796 30.4253ZM52.3225 30.6C50.6639 30.6 49.259 30.5407 48.102 30.425L47.903 32.415C49.146 32.5393 50.6211 32.6 52.3225 32.6V30.6ZM48.0713 30.4224C46.9944 30.3481 45.7625 30.1233 44.3701 29.7365L43.8349 31.6635C45.3225 32.0767 46.6906 32.3319 47.9337 32.4176L48.0713 30.4224ZM44.3772 29.7385C43.073 29.3658 42.0651 28.8592 41.3157 28.246L40.0493 29.794C41.0599 30.6208 42.332 31.2342 43.8278 31.6615L44.3772 29.7385ZM41.3361 28.2632C40.589 27.6179 39.9274 26.7062 39.3729 25.4862L37.5521 26.3138C38.1976 27.7338 39.016 28.9021 40.0289 29.7768L41.3361 28.2632ZM39.3774 25.4964C38.8463 24.2924 38.5625 22.8165 38.5625 21.04H36.5625C36.5625 23.0235 36.8787 24.7876 37.5476 26.3036L39.3774 25.4964ZM38.5625 21.04V12.46H36.5625V21.04H38.5625ZM38.5625 12.46C38.5625 10.5551 38.8489 8.99705 39.3816 7.75392L37.5434 6.96608C36.8761 8.52295 36.5625 10.3649 36.5625 12.46H38.5625ZM39.3763 7.76614C39.9766 6.41549 40.6599 5.45267 41.3961 4.81682L40.0889 3.30318C39.0651 4.18732 38.2284 5.42451 37.5487 6.95386L39.3763 7.76614ZM41.3794 4.83096C42.1675 4.17989 43.2123 3.65514 44.5501 3.28352L44.0149 1.35648C42.4727 1.78485 41.1575 2.4201 40.1056 3.28904L41.3794 4.83096ZM44.5747 3.27635C45.9655 2.85138 47.1692 2.61064 48.1937 2.53746L48.0513 0.542542C46.8358 0.629356 45.4795 0.908615 43.9903 1.36365L44.5747 3.27635ZM48.2254 2.53469C49.3406 2.41932 50.7043 2.36 52.3225 2.36V0.360001C50.6607 0.360001 49.2244 0.420673 48.0196 0.545307L48.2254 2.53469ZM52.3225 2.36C53.9414 2.36 55.2833 2.41938 56.356 2.53431L56.569 0.545689C55.4017 0.42062 53.9836 0.360001 52.3225 0.360001V2.36ZM56.3937 2.53763C57.4595 2.61113 58.6829 2.85242 60.0703 3.27635L60.6547 1.36365C59.1621 0.907578 57.7855 0.628864 56.5313 0.54237L56.3937 2.53763ZM60.0949 3.28352C61.4317 3.65486 62.4478 4.17683 63.1889 4.81682L64.4961 3.30317C63.4772 2.42316 62.1733 1.78514 60.6301 1.35648L60.0949 3.28352ZM63.2056 4.83096C63.9676 5.46045 64.6434 6.41018 65.1994 7.74461L67.0456 6.97538C66.4016 5.42982 65.5574 4.17955 64.4794 3.28904L63.2056 4.83096ZM65.213 7.77576C65.7784 9.0124 66.0825 10.5623 66.0825 12.46H68.0825C68.0825 10.3577 67.7467 8.5076 67.032 6.94424L65.213 7.77576ZM59.3225 22.06V11.08H57.3225V22.06H59.3225ZM59.3225 11.08C59.3225 9.37796 58.8871 7.91101 57.7472 6.99913L56.4978 8.56087C56.958 8.92898 57.3225 9.66204 57.3225 11.08H59.3225ZM57.7701 7.01806C57.1924 6.52694 56.4105 6.22387 55.5304 6.03684C54.6384 5.8473 53.5632 5.76 52.3225 5.76V7.76C53.4818 7.76 54.4066 7.8427 55.1146 7.99316C55.8345 8.14613 56.2526 8.35305 56.4749 8.54194L57.7701 7.01806ZM52.3225 5.76C51.0818 5.76 50.0066 5.8473 49.1146 6.03684C48.2345 6.22387 47.4526 6.52694 46.8749 7.01806L48.1701 8.54194C48.3924 8.35305 48.8105 8.14613 49.5304 7.99316C50.2384 7.8427 51.1632 7.76 52.3225 7.76V5.76ZM46.8978 6.99913C45.7579 7.91101 45.3225 9.37796 45.3225 11.08H47.3225C47.3225 9.66204 47.687 8.92898 48.1472 8.56087L46.8978 6.99913ZM45.3225 11.08V22.06H47.3225V11.08H45.3225ZM45.3225 22.06C45.3225 23.7103 45.7321 25.148 46.8429 26.0249L48.0821 24.4551C47.6729 24.132 47.3225 23.4497 47.3225 22.06H45.3225ZM46.8625 26.04C47.4408 26.4738 48.2203 26.7362 49.0954 26.8983C49.9866 27.0633 51.0676 27.14 52.3225 27.14V25.14C51.1374 25.14 50.1884 25.0667 49.4596 24.9317C48.7147 24.7938 48.2842 24.6062 48.0625 24.44L46.8625 26.04ZM52.3225 27.14C53.577 27.14 54.654 27.0634 55.5368 26.8979C56.4008 26.7359 57.1764 26.4715 57.7421 26.0249L56.5029 24.4551C56.3086 24.6085 55.9042 24.7941 55.1682 24.9321C54.451 25.0666 53.508 25.14 52.3225 25.14V27.14ZM57.7225 26.04C58.8841 25.1688 59.3225 23.726 59.3225 22.06H57.3225C57.3225 23.434 56.9609 24.1112 56.5225 24.44L57.7225 26.04ZM95.8703 29.92L95.4474 29.0138L95.4416 29.0166L95.8703 29.92ZM72.1703 30.7H71.1703V31.5696L72.0315 31.6903L72.1703 30.7ZM72.1703 24.58L72.3694 23.6L71.1703 23.3565V24.58H72.1703ZM89.4503 25.54L89.0204 24.6371L89.0117 24.6413L89.0031 24.6456L89.4503 25.54ZM89.0903 19.12L88.7006 20.041L88.713 20.0461L89.0903 19.12ZM77.7503 18.46H76.7503V19.46H77.7503V18.46ZM77.7503 13V12H76.7503V13H77.7503ZM88.0703 7.36L87.6231 8.25443L87.6494 8.26757L87.6764 8.27914L88.0703 7.36ZM72.7703 7.48H71.7703V8.61278L72.8943 8.47228L72.7703 7.48ZM72.7703 1.9L72.6527 0.906937L71.7703 1.01143V1.9H72.7703ZM94.9103 2.8L94.4704 3.69809L94.4776 3.70152L94.9103 2.8ZM96.7703 13.36L96.0453 12.6712L96.0444 12.6723L96.7703 13.36ZM94.1903 14.92L93.9207 13.957L90.9237 14.7962L93.8486 15.8598L94.1903 14.92ZM98.4703 20.62V23.38H100.47V20.62H98.4703ZM98.4703 23.38C98.4703 24.8808 98.192 26.0585 97.6943 26.9628C97.2033 27.8547 96.4684 28.5374 95.4474 29.0138L96.2932 30.8262C97.6723 30.1826 98.7373 29.2153 99.4464 27.9272C100.149 26.6515 100.47 25.1192 100.47 23.38H98.4703ZM95.4416 29.0166C93.2909 30.0372 89.7377 30.6 84.6503 30.6V32.6C89.8029 32.6 93.7297 32.0428 96.2991 30.8234L95.4416 29.0166ZM84.6503 30.6C80.6599 30.6 76.5463 30.3037 72.3091 29.7097L72.0315 31.6903C76.3543 32.2963 80.5608 32.6 84.6503 32.6V30.6ZM73.1703 30.7V24.58H71.1703V30.7H73.1703ZM71.9713 25.56C77.1222 26.6063 81.3756 27.14 84.7103 27.14V25.14C81.565 25.14 77.4584 24.6337 72.3694 23.6L71.9713 25.56ZM84.7103 27.14C85.9144 27.14 86.9446 27.0892 87.7909 26.9821C88.6197 26.8772 89.3469 26.7098 89.8975 26.4344L89.0031 24.6456C88.7538 24.7702 88.2909 24.9028 87.5397 24.9979C86.806 25.0908 85.8663 25.14 84.7103 25.14V27.14ZM89.8802 26.4429C91.2098 25.8097 91.7103 24.4796 91.7103 22.96H89.7103C89.7103 24.0804 89.3708 24.4703 89.0204 24.6371L89.8802 26.4429ZM91.7103 22.96V21.46H89.7103V22.96H91.7103ZM91.7103 21.46C91.7103 20.7342 91.533 20.0515 91.1275 19.4658C90.724 18.883 90.146 18.4703 89.4676 18.1939L88.713 20.0461C89.1146 20.2097 89.3466 20.407 89.4831 20.6042C89.6176 20.7985 89.7103 21.0658 89.7103 21.46H91.7103ZM89.4799 18.199C88.2482 17.6779 86.4614 17.46 84.2303 17.46V19.46C86.3992 19.46 87.8524 19.6821 88.7007 20.041L89.4799 18.199ZM84.2303 17.46H77.7503V19.46H84.2303V17.46ZM78.7503 18.46V13H76.7503V18.46H78.7503ZM77.7503 14H84.2303V12H77.7503V14ZM84.2303 14C85.9997 14 87.4948 13.7352 88.5772 13.073C89.7397 12.3619 90.3303 11.2497 90.3303 9.88H88.3303C88.3303 10.5903 88.071 11.0381 87.5335 11.367C86.9159 11.7448 85.8609 12 84.2303 12V14ZM90.3303 9.88V9.64H88.3303V9.88H90.3303ZM90.3303 9.64C90.3303 8.94552 90.2053 8.28585 89.8906 7.71631C89.5671 7.131 89.0771 6.70352 88.4642 6.44085L87.6764 8.27914C87.9035 8.37648 88.0435 8.509 88.1401 8.68369C88.2453 8.87415 88.3303 9.17448 88.3303 9.64H90.3303ZM88.5175 6.46557C87.9608 6.18723 87.2077 6.02113 86.3449 5.91718C85.4608 5.81065 84.3724 5.76 83.0903 5.76V7.76C84.3282 7.76 85.3299 7.80935 86.1057 7.90282C86.9029 7.99887 87.3798 8.13277 87.6231 8.25443L88.5175 6.46557ZM83.0903 5.76C79.9995 5.76 76.5169 6.00389 72.6463 6.48772L72.8943 8.47228C76.7037 7.99611 80.1012 7.76 83.0903 7.76V5.76ZM73.7703 7.48V1.9H71.7703V7.48H73.7703ZM72.8879 2.89306C75.8755 2.53926 79.5934 2.36 84.0503 2.36V0.360001C79.5472 0.360001 75.7451 0.540737 72.6527 0.906937L72.8879 2.89306ZM84.0503 2.36C86.6639 2.36 88.8419 2.47902 90.5939 2.71132C92.3586 2.94532 93.6311 3.28695 94.4704 3.69806L95.3502 1.90194C94.2295 1.35305 92.712 0.974674 90.8568 0.728676C88.9887 0.480976 86.7167 0.360001 84.0503 0.360001V2.36ZM94.4776 3.70152C95.3123 4.10221 95.9012 4.64817 96.2909 5.33401C96.6855 6.02857 96.9103 6.92814 96.9103 8.08H98.9103C98.9103 6.67186 98.6351 5.41143 98.0298 4.34599C97.4194 3.27183 96.5083 2.45779 95.343 1.89848L94.4776 3.70152ZM96.9103 8.08V10.3H98.9103V8.08H96.9103ZM96.9103 10.3C96.9103 11.318 96.6064 12.0806 96.0453 12.6712L97.4953 14.0487C98.4542 13.0394 98.9103 11.762 98.9103 10.3H96.9103ZM96.0444 12.6723C95.4477 13.3021 94.745 13.7262 93.9207 13.957L94.4599 15.883C95.6356 15.5538 96.6529 14.9379 97.4963 14.0477L96.0444 12.6723ZM93.8486 15.8598C97.2012 17.0789 98.4703 18.72 98.4703 20.62H100.47C100.47 17.48 98.2194 15.3211 94.5321 13.9802L93.8486 15.8598ZM105.903 31H104.903V32H105.903V31ZM105.903 1.96V0.959999H104.903V1.96H105.903ZM114.662 1.96H115.662V0.959999H114.662V1.96ZM114.662 13.6H113.662V14.6H114.662V13.6ZM116.463 13.36L116.056 12.4462L116.036 12.4554L116.015 12.4656L116.463 13.36ZM117.603 12.1L116.749 11.579L116.745 11.586L116.741 11.593L117.603 12.1ZM120.423 7.48L121.276 8.00101L121.279 7.99635L120.423 7.48ZM124.262 2.68L123.8 1.79341V1.79342L124.262 2.68ZM133.923 1.96H134.923V0.959999H133.923V1.96ZM133.923 7.36V8.36H134.923V7.36H133.923ZM129.663 7.84L130.043 8.76468L130.056 8.75942L130.069 8.75381L129.663 7.84ZM127.682 9.64L128.502 10.2135L128.503 10.2111L127.682 9.64ZM126.003 12.04L125.183 11.4665L125.177 11.4753L126.003 12.04ZM123.062 15.04L122.6 14.1534L120.706 15.1415L122.678 15.9631L123.062 15.04ZM128.822 20.26L129.638 19.6813L129.635 19.6776L128.822 20.26ZM136.443 31V32H138.378L137.258 30.4213L136.443 31ZM126.363 31L125.536 31.5631L125.834 32H126.363V31ZM120.842 22.9L121.669 22.3369L121.669 22.3367L120.842 22.9ZM117.963 19.6L118.484 18.7467V18.7467L117.963 19.6ZM114.662 18.94V17.94H113.662V18.94H114.662ZM114.662 31V32H115.662V31H114.662ZM106.903 31V1.96H104.903V31H106.903ZM105.903 2.96H114.662V0.959999H105.903V2.96ZM113.662 1.96V13.6H115.662V1.96H113.662ZM114.662 14.6C115.129 14.6 115.546 14.579 115.905 14.5312C116.249 14.4853 116.606 14.4065 116.91 14.2544L116.015 12.4656C116.016 12.4653 116.009 12.4689 115.992 12.4751C115.975 12.4811 115.95 12.4888 115.918 12.4974C115.851 12.5147 115.76 12.5328 115.64 12.5488C115.399 12.581 115.076 12.6 114.662 12.6V14.6ZM116.869 14.2738C117.533 13.9786 118.047 13.3169 118.464 12.607L116.741 11.593C116.358 12.2431 116.112 12.4214 116.056 12.4462L116.869 14.2738ZM118.456 12.621L121.276 8.001L119.569 6.959L116.749 11.579L118.456 12.621ZM121.279 7.99635C122.087 6.65599 122.792 5.61699 123.393 4.86469C124.015 4.08791 124.458 3.70605 124.725 3.56658L123.8 1.79342C123.147 2.13395 122.49 2.79208 121.832 3.6153C121.153 4.46301 120.398 5.58401 119.566 6.96365L121.279 7.99635ZM124.725 3.56658C125.005 3.42066 125.635 3.25317 126.753 3.13441C127.834 3.01963 129.26 2.96 131.042 2.96V0.959999C129.225 0.959999 127.721 1.02037 126.542 1.14559C125.4 1.26683 124.44 1.45934 123.8 1.79341L124.725 3.56658ZM131.042 2.96H133.923V0.959999H131.042V2.96ZM132.923 1.96V7.36H134.923V1.96H132.923ZM133.923 6.36H132.963V8.36H133.923V6.36ZM132.963 6.36C131.444 6.36 130.172 6.51904 129.256 6.92619L130.069 8.75381C130.593 8.52096 131.521 8.36 132.963 8.36V6.36ZM129.282 6.91532C128.354 7.29739 127.558 8.06802 126.862 9.06894L128.503 10.2111C129.087 9.37198 129.611 8.94261 130.043 8.76468L129.282 6.91532ZM126.863 9.06654L125.183 11.4665L126.822 12.6135L128.502 10.2135L126.863 9.06654ZM125.177 11.4753C124.168 12.9499 123.301 13.7874 122.6 14.1534L123.525 15.9266C124.664 15.3326 125.757 14.1701 126.828 12.6047L125.177 11.4753ZM122.678 15.9631C124.353 16.6612 126.14 18.233 128.01 20.8424L129.635 19.6776C127.665 16.927 125.612 15.0188 123.447 14.1169L122.678 15.9631ZM128.007 20.8386L135.627 31.5787L137.258 30.4213L129.638 19.6814L128.007 20.8386ZM136.443 30H126.363V32H136.443V30ZM127.189 30.4369L121.669 22.3369L120.016 23.4631L125.536 31.5631L127.189 30.4369ZM121.669 22.3367C121.056 21.4373 120.491 20.6875 119.976 20.0975C119.47 19.5181 118.972 19.0448 118.484 18.7467L117.441 20.4533C117.673 20.5952 118.015 20.8919 118.469 21.4125C118.914 21.9225 119.429 22.6027 120.016 23.4633L121.669 22.3367ZM118.484 18.7467C117.529 18.1629 116.206 17.94 114.662 17.94V19.94C116.079 19.94 116.956 20.1571 117.441 20.4533L118.484 18.7467ZM113.662 18.94V31H115.662V18.94H113.662ZM114.662 30H105.903V32H114.662V30ZM136.005 31.12H135.005V31.9398L135.809 32.1006L136.005 31.12ZM136.005 25.78L136.273 24.8165L135.005 24.4644V25.78H136.005ZM140.265 25.06L139.433 24.5052L139.426 24.5167L140.265 25.06ZM140.985 1.96V0.959999H139.985V1.96H140.985ZM168.105 1.96H169.105V0.959999H168.105V1.96ZM168.105 31V32H169.105V31H168.105ZM159.405 31H158.405V32H159.405V31ZM159.405 7.36H160.405V6.36H159.405V7.36ZM149.745 7.36V6.36H148.745V7.36H149.745ZM149.205 26.62L148.253 26.314L148.25 26.3249L148.246 26.3359L149.205 26.62ZM147.945 29.2L148.701 29.8549L148.711 29.8429L148.721 29.8306L147.945 29.2ZM145.785 30.64L146.114 31.5845L146.132 31.5782L146.15 31.5712L145.785 30.64ZM143.025 31.24L142.939 30.2438L142.914 30.2459L142.89 30.2492L143.025 31.24ZM137.005 31.12V25.78H135.005V31.12H137.005ZM135.738 26.7435C136.518 26.9602 137.25 27.08 137.925 27.08V25.08C137.48 25.08 136.933 24.9998 136.273 24.8165L135.738 26.7435ZM137.925 27.08C139.242 27.08 140.414 26.6701 141.105 25.6033L139.426 24.5167C139.236 24.8099 138.849 25.08 137.925 25.08V27.08ZM141.097 25.6147C141.445 25.0937 141.658 24.4275 141.789 23.6913C141.923 22.9439 141.985 22.0557 141.985 21.04H139.985C139.985 21.9843 139.927 22.7461 139.821 23.3387C139.713 23.9425 139.566 24.3063 139.433 24.5053L141.097 25.6147ZM141.985 21.04V1.96H139.985V21.04H141.985ZM140.985 2.96H168.105V0.959999H140.985V2.96ZM167.105 1.96V31H169.105V1.96H167.105ZM168.105 30H159.405V32H168.105V30ZM160.405 31V7.36H158.405V31H160.405ZM159.405 6.36H149.745V8.36H159.405V6.36ZM148.745 7.36V22.54H150.745V7.36H148.745ZM148.745 22.54C148.745 24.0709 148.572 25.3213 148.253 26.314L150.157 26.926C150.558 25.6787 150.745 24.2091 150.745 22.54H148.745ZM148.246 26.3359C147.951 27.3329 147.581 28.0618 147.169 28.5694L148.721 29.8306C149.349 29.0582 149.819 28.0671 150.164 26.9041L148.246 26.3359ZM147.189 28.5451C146.798 28.9963 146.226 29.3936 145.421 29.7088L146.15 31.5712C147.184 31.1664 148.052 30.6037 148.701 29.8549L147.189 28.5451ZM145.457 29.6955C144.611 29.9898 143.772 30.1713 142.939 30.2438L143.112 32.2362C144.119 32.1487 145.12 31.9302 146.114 31.5845L145.457 29.6955ZM142.89 30.2492C142.072 30.3608 141.001 30.42 139.665 30.42V32.42C141.049 32.42 142.219 32.3592 143.16 32.2308L142.89 30.2492ZM139.665 30.42C138.266 30.42 137.116 30.3224 136.201 30.1394L135.809 32.1006C136.894 32.3176 138.184 32.42 139.665 32.42V30.42ZM201.965 31V32H202.965V31H201.965ZM193.385 31H192.385V32H193.385V31ZM193.385 28.36H194.385L192.509 27.8769L193.385 28.36ZM190.625 30.88L190.996 31.8085L191.009 31.8032L191.022 31.7976L190.625 30.88ZM176.225 29.8L175.541 30.5295L176.225 29.8ZM176.285 15.16L176.992 15.8671L176.997 15.8618L177.002 15.8565L176.285 15.16ZM193.205 13.12V14.12H194.205V13.12H193.205ZM191.945 7.66L191.345 8.46L191.367 8.47665L191.39 8.49205L191.945 7.66ZM176.585 7.48H175.585V8.59726L176.695 8.47388L176.585 7.48ZM176.585 1.96L176.465 0.967178L175.585 1.07325V1.96H176.585ZM198.845 3.34L198.309 4.18441L198.321 4.19166L198.845 3.34ZM193.205 17.92H194.205V16.92H193.205V17.92ZM183.605 18.58L182.929 17.8428L183.605 18.58ZM183.605 25.54L182.965 26.3082L182.98 26.3207L182.995 26.3326L183.605 25.54ZM189.665 26.14V27.14H189.706L189.748 27.1365L189.665 26.14ZM191.225 25.96L191.083 24.9701L191.225 25.96ZM192.365 25.6L192.99 26.3809L192.997 26.3746L193.005 26.3682L192.365 25.6ZM192.965 24.82L193.859 25.2672L192.965 24.82ZM201.965 30H193.385V32H201.965V30ZM194.385 31V28.36H192.385V31H194.385ZM192.509 27.8769C191.975 28.8459 191.221 29.5316 190.227 29.9624L191.022 31.7976C192.428 31.1884 193.515 30.1941 194.26 28.8431L192.509 27.8769ZM190.253 29.9515C189.253 30.3519 187.232 30.6 184.025 30.6V32.6C187.218 32.6 189.597 32.3681 190.996 31.8085L190.253 29.9515ZM184.025 30.6C182.109 30.6 180.56 30.4527 179.36 30.1756C178.149 29.8962 177.37 29.5027 176.909 29.0705L175.541 30.5295C176.36 31.2973 177.521 31.8037 178.91 32.1244C180.309 32.4473 182.021 32.6 184.025 32.6V30.6ZM176.909 29.0705C176.458 28.6482 176.047 27.9243 175.754 26.777C175.462 25.6364 175.305 24.1518 175.305 22.3H173.305C173.305 24.2482 173.468 25.9136 173.816 27.273C174.162 28.6257 174.711 29.7518 175.541 30.5295L176.909 29.0705ZM175.305 22.3C175.305 18.9233 175.965 16.8936 176.992 15.8671L175.578 14.4529C173.964 16.0664 173.305 18.7967 173.305 22.3H175.305ZM177.002 15.8565C178.031 14.7969 180.038 14.12 183.365 14.12V12.12C179.892 12.12 177.179 12.8031 175.567 14.4635L177.002 15.8565ZM183.365 14.12H193.205V12.12H183.365V14.12ZM194.205 13.12V11.14H192.205V13.12H194.205ZM194.205 11.14C194.205 9.29193 193.774 7.67757 192.5 6.82795L191.39 8.49205C191.796 8.76242 192.205 9.46807 192.205 11.14H194.205ZM192.545 6.86C191.957 6.41916 191.142 6.15956 190.227 5.99987C189.289 5.83633 188.136 5.76 186.785 5.76V7.76C188.073 7.76 189.101 7.83367 189.883 7.97013C190.687 8.11043 191.133 8.30083 191.345 8.46L192.545 6.86ZM186.785 5.76C184.25 5.76 180.808 6.00458 176.474 6.48611L176.695 8.47388C181.001 7.99542 184.359 7.76 186.785 7.76V5.76ZM177.585 7.48V1.96H175.585V7.48H177.585ZM176.704 2.95282C179.977 2.55851 183.636 2.36 187.685 2.36V0.360001C183.573 0.360001 179.832 0.561493 176.465 0.967178L176.704 2.95282ZM187.685 2.36C193.031 2.36 196.491 3.03088 198.309 4.18433L199.381 2.49567C197.038 1.00911 193.059 0.360001 187.685 0.360001V2.36ZM198.321 4.19166C199.962 5.20184 200.965 7.31794 200.965 11.02H202.965C202.965 7.04206 201.887 4.03815 199.369 2.48834L198.321 4.19166ZM200.965 11.02V31H202.965V11.02H200.965ZM194.205 23.56V17.92H192.205V23.56H194.205ZM193.205 16.92H187.205V18.92H193.205V16.92ZM187.205 16.92C186.215 16.92 185.368 16.9761 184.685 17.1014C184.037 17.2202 183.383 17.4264 182.929 17.8428L184.281 19.3172C184.28 19.3178 184.291 19.3073 184.322 19.2891C184.354 19.2709 184.4 19.2478 184.465 19.222C184.599 19.1696 184.788 19.1158 185.045 19.0686C185.562 18.9739 186.275 18.92 187.205 18.92V16.92ZM182.929 17.8428C182.449 18.2832 182.216 18.9509 182.085 19.5957C181.946 20.2781 181.885 21.1275 181.885 22.12H183.885C183.885 21.1925 183.944 20.4919 184.045 19.9943C184.154 19.4591 184.281 19.3168 184.281 19.3172L182.929 17.8428ZM181.885 22.12C181.885 23.0926 181.946 23.925 182.086 24.591C182.218 25.2155 182.456 25.8842 182.965 26.3082L184.245 24.7718C184.274 24.7958 184.152 24.6945 184.043 24.179C183.944 23.705 183.885 23.0274 183.885 22.12H181.885ZM182.995 26.3326C183.464 26.6935 184.127 26.8728 184.8 26.978C185.512 27.0892 186.399 27.14 187.445 27.14V25.14C186.451 25.14 185.678 25.0908 185.109 25.002C184.503 24.9072 184.265 24.7865 184.215 24.7474L182.995 26.3326ZM187.445 27.14C187.447 27.14 187.449 27.14 187.451 27.14C187.453 27.14 187.455 27.14 187.457 27.14C187.458 27.14 187.46 27.14 187.462 27.14C187.464 27.14 187.466 27.14 187.468 27.14C187.47 27.14 187.472 27.14 187.474 27.14C187.476 27.14 187.478 27.14 187.48 27.14C187.482 27.14 187.484 27.14 187.486 27.14C187.488 27.14 187.49 27.14 187.492 27.14C187.493 27.14 187.495 27.14 187.497 27.14C187.499 27.14 187.501 27.14 187.503 27.14C187.505 27.14 187.507 27.14 187.509 27.14C187.511 27.14 187.513 27.14 187.515 27.14C187.517 27.14 187.519 27.14 187.521 27.14C187.522 27.14 187.524 27.14 187.526 27.14C187.528 27.14 187.53 27.14 187.532 27.14C187.534 27.14 187.536 27.14 187.538 27.14C187.54 27.14 187.542 27.14 187.544 27.14C187.546 27.14 187.547 27.14 187.549 27.14C187.551 27.14 187.553 27.14 187.555 27.14C187.557 27.14 187.559 27.14 187.561 27.14C187.563 27.14 187.565 27.14 187.567 27.14C187.568 27.14 187.57 27.14 187.572 27.14C187.574 27.14 187.576 27.14 187.578 27.14C187.58 27.14 187.582 27.14 187.584 27.14C187.586 27.14 187.588 27.14 187.589 27.14C187.591 27.14 187.593 27.14 187.595 27.14C187.597 27.14 187.599 27.14 187.601 27.14C187.603 27.14 187.605 27.14 187.607 27.14C187.608 27.14 187.61 27.14 187.612 27.14C187.614 27.14 187.616 27.14 187.618 27.14C187.62 27.14 187.622 27.14 187.624 27.14C187.626 27.14 187.627 27.14 187.629 27.14C187.631 27.14 187.633 27.14 187.635 27.14C187.637 27.14 187.639 27.14 187.641 27.14C187.643 27.14 187.644 27.14 187.646 27.14C187.648 27.14 187.65 27.14 187.652 27.14C187.654 27.14 187.656 27.14 187.658 27.14C187.659 27.14 187.661 27.14 187.663 27.14C187.665 27.14 187.667 27.14 187.669 27.14C187.671 27.14 187.673 27.14 187.674 27.14C187.676 27.14 187.678 27.14 187.68 27.14C187.682 27.14 187.684 27.14 187.686 27.14C187.688 27.14 187.689 27.14 187.691 27.14C187.693 27.14 187.695 27.14 187.697 27.14C187.699 27.14 187.701 27.14 187.702 27.14C187.704 27.14 187.706 27.14 187.708 27.14C187.71 27.14 187.712 27.14 187.714 27.14C187.716 27.14 187.717 27.14 187.719 27.14C187.721 27.14 187.723 27.14 187.725 27.14C187.727 27.14 187.729 27.14 187.73 27.14C187.732 27.14 187.734 27.14 187.736 27.14C187.738 27.14 187.74 27.14 187.741 27.14C187.743 27.14 187.745 27.14 187.747 27.14C187.749 27.14 187.751 27.14 187.753 27.14C187.754 27.14 187.756 27.14 187.758 27.14C187.76 27.14 187.762 27.14 187.764 27.14C187.765 27.14 187.767 27.14 187.769 27.14C187.771 27.14 187.773 27.14 187.775 27.14C187.777 27.14 187.778 27.14 187.78 27.14C187.782 27.14 187.784 27.14 187.786 27.14C187.788 27.14 187.789 27.14 187.791 27.14C187.793 27.14 187.795 27.14 187.797 27.14C187.799 27.14 187.8 27.14 187.802 27.14C187.804 27.14 187.806 27.14 187.808 27.14C187.809 27.14 187.811 27.14 187.813 27.14C187.815 27.14 187.817 27.14 187.819 27.14C187.82 27.14 187.822 27.14 187.824 27.14C187.826 27.14 187.828 27.14 187.83 27.14C187.831 27.14 187.833 27.14 187.835 27.14C187.837 27.14 187.839 27.14 187.84 27.14C187.842 27.14 187.844 27.14 187.846 27.14C187.848 27.14 187.849 27.14 187.851 27.14C187.853 27.14 187.855 27.14 187.857 27.14C187.859 27.14 187.86 27.14 187.862 27.14C187.864 27.14 187.866 27.14 187.868 27.14C187.869 27.14 187.871 27.14 187.873 27.14C187.875 27.14 187.877 27.14 187.878 27.14C187.88 27.14 187.882 27.14 187.884 27.14C187.886 27.14 187.887 27.14 187.889 27.14C187.891 27.14 187.893 27.14 187.895 27.14C187.896 27.14 187.898 27.14 187.9 27.14C187.902 27.14 187.904 27.14 187.905 27.14C187.907 27.14 187.909 27.14 187.911 27.14C187.912 27.14 187.914 27.14 187.916 27.14C187.918 27.14 187.92 27.14 187.921 27.14C187.923 27.14 187.925 27.14 187.927 27.14C187.929 27.14 187.93 27.14 187.932 27.14C187.934 27.14 187.936 27.14 187.937 27.14C187.939 27.14 187.941 27.14 187.943 27.14C187.945 27.14 187.946 27.14 187.948 27.14C187.95 27.14 187.952 27.14 187.953 27.14C187.955 27.14 187.957 27.14 187.959 27.14C187.96 27.14 187.962 27.14 187.964 27.14C187.966 27.14 187.968 27.14 187.969 27.14C187.971 27.14 187.973 27.14 187.975 27.14C187.976 27.14 187.978 27.14 187.98 27.14C187.982 27.14 187.983 27.14 187.985 27.14C187.987 27.14 187.989 27.14 187.99 27.14C187.992 27.14 187.994 27.14 187.996 27.14C187.998 27.14 187.999 27.14 188.001 27.14C188.003 27.14 188.005 27.14 188.006 27.14C188.008 27.14 188.01 27.14 188.012 27.14C188.013 27.14 188.015 27.14 188.017 27.14C188.019 27.14 188.02 27.14 188.022 27.14C188.024 27.14 188.026 27.14 188.027 27.14C188.029 27.14 188.031 27.14 188.033 27.14C188.034 27.14 188.036 27.14 188.038 27.14C188.039 27.14 188.041 27.14 188.043 27.14C188.045 27.14 188.046 27.14 188.048 27.14C188.05 27.14 188.052 27.14 188.053 27.14C188.055 27.14 188.057 27.14 188.059 27.14C188.06 27.14 188.062 27.14 188.064 27.14C188.066 27.14 188.067 27.14 188.069 27.14C188.071 27.14 188.072 27.14 188.074 27.14C188.076 27.14 188.078 27.14 188.079 27.14C188.081 27.14 188.083 27.14 188.084 27.14C188.086 27.14 188.088 27.14 188.09 27.14C188.091 27.14 188.093 27.14 188.095 27.14C188.097 27.14 188.098 27.14 188.1 27.14C188.102 27.14 188.103 27.14 188.105 27.14C188.107 27.14 188.109 27.14 188.11 27.14C188.112 27.14 188.114 27.14 188.115 27.14C188.117 27.14 188.119 27.14 188.121 27.14C188.122 27.14 188.124 27.14 188.126 27.14C188.127 27.14 188.129 27.14 188.131 27.14C188.132 27.14 188.134 27.14 188.136 27.14C188.138 27.14 188.139 27.14 188.141 27.14C188.143 27.14 188.144 27.14 188.146 27.14C188.148 27.14 188.149 27.14 188.151 27.14C188.153 27.14 188.155 27.14 188.156 27.14C188.158 27.14 188.16 27.14 188.161 27.14C188.163 27.14 188.165 27.14 188.166 27.14C188.168 27.14 188.17 27.14 188.172 27.14C188.173 27.14 188.175 27.14 188.177 27.14C188.178 27.14 188.18 27.14 188.182 27.14C188.183 27.14 188.185 27.14 188.187 27.14C188.188 27.14 188.19 27.14 188.192 27.14C188.193 27.14 188.195 27.14 188.197 27.14C188.198 27.14 188.2 27.14 188.202 27.14C188.203 27.14 188.205 27.14 188.207 27.14C188.209 27.14 188.21 27.14 188.212 27.14C188.214 27.14 188.215 27.14 188.217 27.14C188.219 27.14 188.22 27.14 188.222 27.14C188.224 27.14 188.225 27.14 188.227 27.14C188.229 27.14 188.23 27.14 188.232 27.14C188.234 27.14 188.235 27.14 188.237 27.14C188.239 27.14 188.24 27.14 188.242 27.14C188.244 27.14 188.245 27.14 188.247 27.14C188.249 27.14 188.25 27.14 188.252 27.14C188.253 27.14 188.255 27.14 188.257 27.14C188.258 27.14 188.26 27.14 188.262 27.14C188.263 27.14 188.265 27.14 188.267 27.14C188.268 27.14 188.27 27.14 188.272 27.14C188.273 27.14 188.275 27.14 188.277 27.14C188.278 27.14 188.28 27.14 188.282 27.14C188.283 27.14 188.285 27.14 188.286 27.14C188.288 27.14 188.29 27.14 188.291 27.14C188.293 27.14 188.295 27.14 188.296 27.14C188.298 27.14 188.3 27.14 188.301 27.14C188.303 27.14 188.305 27.14 188.306 27.14C188.308 27.14 188.309 27.14 188.311 27.14C188.313 27.14 188.314 27.14 188.316 27.14C188.318 27.14 188.319 27.14 188.321 27.14C188.322 27.14 188.324 27.14 188.326 27.14C188.327 27.14 188.329 27.14 188.331 27.14C188.332 27.14 188.334 27.14 188.336 27.14C188.337 27.14 188.339 27.14 188.34 27.14C188.342 27.14 188.344 27.14 188.345 27.14C188.347 27.14 188.348 27.14 188.35 27.14C188.352 27.14 188.353 27.14 188.355 27.14C188.357 27.14 188.358 27.14 188.36 27.14C188.361 27.14 188.363 27.14 188.365 27.14C188.366 27.14 188.368 27.14 188.369 27.14C188.371 27.14 188.373 27.14 188.374 27.14C188.376 27.14 188.378 27.14 188.379 27.14C188.381 27.14 188.382 27.14 188.384 27.14C188.386 27.14 188.387 27.14 188.389 27.14C188.39 27.14 188.392 27.14 188.394 27.14C188.395 27.14 188.397 27.14 188.398 27.14C188.4 27.14 188.402 27.14 188.403 27.14C188.405 27.14 188.406 27.14 188.408 27.14C188.41 27.14 188.411 27.14 188.413 27.14C188.414 27.14 188.416 27.14 188.417 27.14C188.419 27.14 188.421 27.14 188.422 27.14C188.424 27.14 188.425 27.14 188.427 27.14C188.429 27.14 188.43 27.14 188.432 27.14C188.433 27.14 188.435 27.14 188.436 27.14C188.438 27.14 188.44 27.14 188.441 27.14C188.443 27.14 188.444 27.14 188.446 27.14C188.448 27.14 188.449 27.14 188.451 27.14C188.452 27.14 188.454 27.14 188.455 27.14C188.457 27.14 188.459 27.14 188.46 27.14C188.462 27.14 188.463 27.14 188.465 27.14C188.466 27.14 188.468 27.14 188.47 27.14C188.471 27.14 188.473 27.14 188.474 27.14C188.476 27.14 188.477 27.14 188.479 27.14C188.481 27.14 188.482 27.14 188.484 27.14C188.485 27.14 188.487 27.14 188.488 27.14C188.49 27.14 188.491 27.14 188.493 27.14C188.495 27.14 188.496 27.14 188.498 27.14C188.499 27.14 188.501 27.14 188.502 27.14C188.504 27.14 188.505 27.14 188.507 27.14C188.509 27.14 188.51 27.14 188.512 27.14C188.513 27.14 188.515 27.14 188.516 27.14C188.518 27.14 188.519 27.14 188.521 27.14C188.523 27.14 188.524 27.14 188.526 27.14C188.527 27.14 188.529 27.14 188.53 27.14C188.532 27.14 188.533 27.14 188.535 27.14C188.536 27.14 188.538 27.14 188.539 27.14C188.541 27.14 188.543 27.14 188.544 27.14C188.546 27.14 188.547 27.14 188.549 27.14C188.55 27.14 188.552 27.14 188.553 27.14C188.555 27.14 188.556 27.14 188.558 27.14C188.559 27.14 188.561 27.14 188.562 27.14C188.564 27.14 188.566 27.14 188.567 27.14C188.569 27.14 188.57 27.14 188.572 27.14C188.573 27.14 188.575 27.14 188.576 27.14C188.578 27.14 188.579 27.14 188.581 27.14C188.582 27.14 188.584 27.14 188.585 27.14C188.587 27.14 188.588 27.14 188.59 27.14C188.591 27.14 188.593 27.14 188.594 27.14C188.596 27.14 188.597 27.14 188.599 27.14C188.6 27.14 188.602 27.14 188.604 27.14C188.605 27.14 188.607 27.14 188.608 27.14C188.61 27.14 188.611 27.14 188.613 27.14C188.614 27.14 188.616 27.14 188.617 27.14C188.619 27.14 188.62 27.14 188.622 27.14C188.623 27.14 188.625 27.14 188.626 27.14C188.628 27.14 188.629 27.14 188.631 27.14C188.632 27.14 188.634 27.14 188.635 27.14C188.637 27.14 188.638 27.14 188.64 27.14C188.641 27.14 188.643 27.14 188.644 27.14C188.646 27.14 188.647 27.14 188.649 27.14C188.65 27.14 188.652 27.14 188.653 27.14C188.655 27.14 188.656 27.14 188.657 27.14C188.659 27.14 188.66 27.14 188.662 27.14C188.663 27.14 188.665 27.14 188.666 27.14C188.668 27.14 188.669 27.14 188.671 27.14C188.672 27.14 188.674 27.14 188.675 27.14C188.677 27.14 188.678 27.14 188.68 27.14C188.681 27.14 188.683 27.14 188.684 27.14C188.686 27.14 188.687 27.14 188.689 27.14C188.69 27.14 188.691 27.14 188.693 27.14C188.694 27.14 188.696 27.14 188.697 27.14C188.699 27.14 188.7 27.14 188.702 27.14C188.703 27.14 188.705 27.14 188.706 27.14C188.708 27.14 188.709 27.14 188.711 27.14C188.712 27.14 188.714 27.14 188.715 27.14C188.716 27.14 188.718 27.14 188.719 27.14C188.721 27.14 188.722 27.14 188.724 27.14C188.725 27.14 188.727 27.14 188.728 27.14C188.73 27.14 188.731 27.14 188.732 27.14C188.734 27.14 188.735 27.14 188.737 27.14C188.738 27.14 188.74 27.14 188.741 27.14C188.743 27.14 188.744 27.14 188.745 27.14C188.747 27.14 188.748 27.14 188.75 27.14C188.751 27.14 188.753 27.14 188.754 27.14C188.756 27.14 188.757 27.14 188.758 27.14C188.76 27.14 188.761 27.14 188.763 27.14C188.764 27.14 188.766 27.14 188.767 27.14C188.769 27.14 188.77 27.14 188.771 27.14C188.773 27.14 188.774 27.14 188.776 27.14C188.777 27.14 188.779 27.14 188.78 27.14C188.781 27.14 188.783 27.14 188.784 27.14C188.786 27.14 188.787 27.14 188.789 27.14C188.79 27.14 188.791 27.14 188.793 27.14C188.794 27.14 188.796 27.14 188.797 27.14C188.799 27.14 188.8 27.14 188.801 27.14C188.803 27.14 188.804 27.14 188.806 27.14C188.807 27.14 188.809 27.14 188.81 27.14C188.811 27.14 188.813 27.14 188.814 27.14C188.816 27.14 188.817 27.14 188.818 27.14C188.82 27.14 188.821 27.14 188.823 27.14C188.824 27.14 188.826 27.14 188.827 27.14C188.828 27.14 188.83 27.14 188.831 27.14C188.833 27.14 188.834 27.14 188.835 27.14C188.837 27.14 188.838 27.14 188.84 27.14C188.841 27.14 188.842 27.14 188.844 27.14C188.845 27.14 188.847 27.14 188.848 27.14C188.849 27.14 188.851 27.14 188.852 27.14C188.854 27.14 188.855 27.14 188.856 27.14C188.858 27.14 188.859 27.14 188.861 27.14C188.862 27.14 188.863 27.14 188.865 27.14C188.866 27.14 188.868 27.14 188.869 27.14C188.87 27.14 188.872 27.14 188.873 27.14C188.874 27.14 188.876 27.14 188.877 27.14C188.879 27.14 188.88 27.14 188.881 27.14C188.883 27.14 188.884 27.14 188.886 27.14C188.887 27.14 188.888 27.14 188.89 27.14C188.891 27.14 188.892 27.14 188.894 27.14C188.895 27.14 188.897 27.14 188.898 27.14C188.899 27.14 188.901 27.14 188.902 27.14C188.903 27.14 188.905 27.14 188.906 27.14C188.908 27.14 188.909 27.14 188.91 27.14C188.912 27.14 188.913 27.14 188.914 27.14C188.916 27.14 188.917 27.14 188.919 27.14C188.92 27.14 188.921 27.14 188.923 27.14C188.924 27.14 188.925 27.14 188.927 27.14C188.928 27.14 188.929 27.14 188.931 27.14C188.932 27.14 188.934 27.14 188.935 27.14C188.936 27.14 188.938 27.14 188.939 27.14C188.94 27.14 188.942 27.14 188.943 27.14C188.944 27.14 188.946 27.14 188.947 27.14C188.948 27.14 188.95 27.14 188.951 27.14C188.952 27.14 188.954 27.14 188.955 27.14C188.957 27.14 188.958 27.14 188.959 27.14C188.961 27.14 188.962 27.14 188.963 27.14C188.965 27.14 188.966 27.14 188.967 27.14C188.969 27.14 188.97 27.14 188.971 27.14C188.973 27.14 188.974 27.14 188.975 27.14C188.977 27.14 188.978 27.14 188.979 27.14C188.981 27.14 188.982 27.14 188.983 27.14C188.985 27.14 188.986 27.14 188.987 27.14C188.989 27.14 188.99 27.14 188.991 27.14C188.993 27.14 188.994 27.14 188.995 27.14C188.997 27.14 188.998 27.14 188.999 27.14C189.001 27.14 189.002 27.14 189.003 27.14C189.005 27.14 189.006 27.14 189.007 27.14C189.009 27.14 189.01 27.14 189.011 27.14C189.013 27.14 189.014 27.14 189.015 27.14C189.016 27.14 189.018 27.14 189.019 27.14C189.02 27.14 189.022 27.14 189.023 27.14C189.024 27.14 189.026 27.14 189.027 27.14C189.028 27.14 189.03 27.14 189.031 27.14C189.032 27.14 189.034 27.14 189.035 27.14C189.036 27.14 189.037 27.14 189.039 27.14C189.04 27.14 189.041 27.14 189.043 27.14C189.044 27.14 189.045 27.14 189.047 27.14C189.048 27.14 189.049 27.14 189.051 27.14C189.052 27.14 189.053 27.14 189.054 27.14C189.056 27.14 189.057 27.14 189.058 27.14C189.06 27.14 189.061 27.14 189.062 27.14C189.063 27.14 189.065 27.14 189.066 27.14C189.067 27.14 189.069 27.14 189.07 27.14C189.071 27.14 189.073 27.14 189.074 27.14C189.075 27.14 189.076 27.14 189.078 27.14C189.079 27.14 189.08 27.14 189.082 27.14C189.083 27.14 189.084 27.14 189.085 27.14C189.087 27.14 189.088 27.14 189.089 27.14C189.091 27.14 189.092 27.14 189.093 27.14C189.094 27.14 189.096 27.14 189.097 27.14C189.098 27.14 189.099 27.14 189.101 27.14C189.102 27.14 189.103 27.14 189.105 27.14C189.106 27.14 189.107 27.14 189.108 27.14C189.11 27.14 189.111 27.14 189.112 27.14C189.113 27.14 189.115 27.14 189.116 27.14C189.117 27.14 189.119 27.14 189.12 27.14C189.121 27.14 189.122 27.14 189.124 27.14C189.125 27.14 189.126 27.14 189.127 27.14C189.129 27.14 189.13 27.14 189.131 27.14C189.132 27.14 189.134 27.14 189.135 27.14C189.136 27.14 189.137 27.14 189.139 27.14C189.14 27.14 189.141 27.14 189.142 27.14C189.144 27.14 189.145 27.14 189.146 27.14C189.147 27.14 189.149 27.14 189.15 27.14C189.151 27.14 189.152 27.14 189.154 27.14C189.155 27.14 189.156 27.14 189.157 27.14C189.159 27.14 189.16 27.14 189.161 27.14C189.162 27.14 189.164 27.14 189.165 27.14C189.166 27.14 189.167 27.14 189.169 27.14C189.17 27.14 189.171 27.14 189.172 27.14C189.174 27.14 189.175 27.14 189.176 27.14C189.177 27.14 189.178 27.14 189.18 27.14C189.181 27.14 189.182 27.14 189.183 27.14C189.185 27.14 189.186 27.14 189.187 27.14C189.188 27.14 189.19 27.14 189.191 27.14C189.192 27.14 189.193 27.14 189.194 27.14C189.196 27.14 189.197 27.14 189.198 27.14C189.199 27.14 189.201 27.14 189.202 27.14C189.203 27.14 189.204 27.14 189.205 27.14C189.207 27.14 189.208 27.14 189.209 27.14C189.21 27.14 189.212 27.14 189.213 27.14C189.214 27.14 189.215 27.14 189.216 27.14C189.218 27.14 189.219 27.14 189.22 27.14C189.221 27.14 189.222 27.14 189.224 27.14C189.225 27.14 189.226 27.14 189.227 27.14C189.229 27.14 189.23 27.14 189.231 27.14C189.232 27.14 189.233 27.14 189.235 27.14C189.236 27.14 189.237 27.14 189.238 27.14C189.239 27.14 189.241 27.14 189.242 27.14C189.243 27.14 189.244 27.14 189.245 27.14C189.247 27.14 189.248 27.14 189.249 27.14C189.25 27.14 189.251 27.14 189.253 27.14C189.254 27.14 189.255 27.14 189.256 27.14C189.257 27.14 189.258 27.14 189.26 27.14C189.261 27.14 189.262 27.14 189.263 27.14C189.264 27.14 189.266 27.14 189.267 27.14C189.268 27.14 189.269 27.14 189.27 27.14C189.272 27.14 189.273 27.14 189.274 27.14C189.275 27.14 189.276 27.14 189.277 27.14C189.279 27.14 189.28 27.14 189.281 27.14C189.282 27.14 189.283 27.14 189.285 27.14C189.286 27.14 189.287 27.14 189.288 27.14C189.289 27.14 189.29 27.14 189.292 27.14C189.293 27.14 189.294 27.14 189.295 27.14C189.296 27.14 189.297 27.14 189.299 27.14C189.3 27.14 189.301 27.14 189.302 27.14C189.303 27.14 189.304 27.14 189.306 27.14C189.307 27.14 189.308 27.14 189.309 27.14C189.31 27.14 189.311 27.14 189.313 27.14C189.314 27.14 189.315 27.14 189.316 27.14C189.317 27.14 189.318 27.14 189.319 27.14C189.321 27.14 189.322 27.14 189.323 27.14C189.324 27.14 189.325 27.14 189.326 27.14C189.328 27.14 189.329 27.14 189.33 27.14C189.331 27.14 189.332 27.14 189.333 27.14C189.334 27.14 189.336 27.14 189.337 27.14C189.338 27.14 189.339 27.14 189.34 27.14C189.341 27.14 189.342 27.14 189.344 27.14C189.345 27.14 189.346 27.14 189.347 27.14C189.348 27.14 189.349 27.14 189.35 27.14C189.352 27.14 189.353 27.14 189.354 27.14C189.355 27.14 189.356 27.14 189.357 27.14C189.358 27.14 189.36 27.14 189.361 27.14C189.362 27.14 189.363 27.14 189.364 27.14C189.365 27.14 189.366 27.14 189.367 27.14C189.369 27.14 189.37 27.14 189.371 27.14C189.372 27.14 189.373 27.14 189.374 27.14C189.375 27.14 189.376 27.14 189.378 27.14C189.379 27.14 189.38 27.14 189.381 27.14C189.382 27.14 189.383 27.14 189.384 27.14C189.385 27.14 189.387 27.14 189.388 27.14C189.389 27.14 189.39 27.14 189.391 27.14C189.392 27.14 189.393 27.14 189.394 27.14C189.395 27.14 189.397 27.14 189.398 27.14C189.399 27.14 189.4 27.14 189.401 27.14C189.402 27.14 189.403 27.14 189.404 27.14C189.405 27.14 189.406 27.14 189.408 27.14C189.409 27.14 189.41 27.14 189.411 27.14C189.412 27.14 189.413 27.14 189.414 27.14C189.415 27.14 189.416 27.14 189.418 27.14C189.419 27.14 189.42 27.14 189.421 27.14C189.422 27.14 189.423 27.14 189.424 27.14C189.425 27.14 189.426 27.14 189.427 27.14C189.428 27.14 189.43 27.14 189.431 27.14C189.432 27.14 189.433 27.14 189.434 27.14C189.435 27.14 189.436 27.14 189.437 27.14C189.438 27.14 189.439 27.14 189.44 27.14C189.442 27.14 189.443 27.14 189.444 27.14C189.445 27.14 189.446 27.14 189.447 27.14C189.448 27.14 189.449 27.14 189.45 27.14C189.451 27.14 189.452 27.14 189.453 27.14C189.454 27.14 189.456 27.14 189.457 27.14C189.458 27.14 189.459 27.14 189.46 27.14C189.461 27.14 189.462 27.14 189.463 27.14C189.464 27.14 189.465 27.14 189.466 27.14C189.467 27.14 189.468 27.14 189.469 27.14C189.471 27.14 189.472 27.14 189.473 27.14C189.474 27.14 189.475 27.14 189.476 27.14C189.477 27.14 189.478 27.14 189.479 27.14C189.48 27.14 189.481 27.14 189.482 27.14C189.483 27.14 189.484 27.14 189.485 27.14C189.486 27.14 189.487 27.14 189.489 27.14C189.49 27.14 189.491 27.14 189.492 27.14C189.493 27.14 189.494 27.14 189.495 27.14C189.496 27.14 189.497 27.14 189.498 27.14C189.499 27.14 189.5 27.14 189.501 27.14C189.502 27.14 189.503 27.14 189.504 27.14C189.505 27.14 189.506 27.14 189.507 27.14C189.508 27.14 189.51 27.14 189.511 27.14C189.512 27.14 189.513 27.14 189.514 27.14C189.515 27.14 189.516 27.14 189.517 27.14C189.518 27.14 189.519 27.14 189.52 27.14C189.521 27.14 189.522 27.14 189.523 27.14C189.524 27.14 189.525 27.14 189.526 27.14C189.527 27.14 189.528 27.14 189.529 27.14C189.53 27.14 189.531 27.14 189.532 27.14C189.533 27.14 189.534 27.14 189.535 27.14C189.536 27.14 189.537 27.14 189.538 27.14C189.539 27.14 189.54 27.14 189.541 27.14C189.542 27.14 189.544 27.14 189.545 27.14C189.546 27.14 189.547 27.14 189.548 27.14C189.549 27.14 189.55 27.14 189.551 27.14C189.552 27.14 189.553 27.14 189.554 27.14C189.555 27.14 189.556 27.14 189.557 27.14C189.558 27.14 189.559 27.14 189.56 27.14C189.561 27.14 189.562 27.14 189.563 27.14C189.564 27.14 189.565 27.14 189.566 27.14C189.567 27.14 189.568 27.14 189.569 27.14C189.57 27.14 189.571 27.14 189.572 27.14C189.573 27.14 189.574 27.14 189.575 27.14C189.576 27.14 189.577 27.14 189.578 27.14C189.579 27.14 189.58 27.14 189.581 27.14C189.582 27.14 189.583 27.14 189.584 27.14C189.585 27.14 189.586 27.14 189.587 27.14C189.588 27.14 189.589 27.14 189.59 27.14C189.591 27.14 189.592 27.14 189.593 27.14C189.594 27.14 189.595 27.14 189.596 27.14C189.597 27.14 189.598 27.14 189.599 27.14C189.6 27.14 189.601 27.14 189.602 27.14C189.603 27.14 189.603 27.14 189.604 27.14C189.605 27.14 189.606 27.14 189.607 27.14C189.608 27.14 189.609 27.14 189.61 27.14C189.611 27.14 189.612 27.14 189.613 27.14C189.614 27.14 189.615 27.14 189.616 27.14C189.617 27.14 189.618 27.14 189.619 27.14C189.62 27.14 189.621 27.14 189.622 27.14C189.623 27.14 189.624 27.14 189.625 27.14C189.626 27.14 189.627 27.14 189.628 27.14C189.629 27.14 189.63 27.14 189.631 27.14C189.632 27.14 189.633 27.14 189.634 27.14C189.635 27.14 189.635 27.14 189.636 27.14C189.637 27.14 189.638 27.14 189.639 27.14C189.64 27.14 189.641 27.14 189.642 27.14C189.643 27.14 189.644 27.14 189.645 27.14C189.646 27.14 189.647 27.14 189.648 27.14C189.649 27.14 189.65 27.14 189.651 27.14C189.652 27.14 189.653 27.14 189.654 27.14C189.654 27.14 189.655 27.14 189.656 27.14C189.657 27.14 189.658 27.14 189.659 27.14C189.66 27.14 189.661 27.14 189.662 27.14C189.663 27.14 189.664 27.14 189.665 27.14V25.14C189.664 25.14 189.663 25.14 189.662 25.14C189.661 25.14 189.66 25.14 189.659 25.14C189.658 25.14 189.657 25.14 189.656 25.14C189.655 25.14 189.654 25.14 189.654 25.14C189.653 25.14 189.652 25.14 189.651 25.14C189.65 25.14 189.649 25.14 189.648 25.14C189.647 25.14 189.646 25.14 189.645 25.14C189.644 25.14 189.643 25.14 189.642 25.14C189.641 25.14 189.64 25.14 189.639 25.14C189.638 25.14 189.637 25.14 189.636 25.14C189.635 25.14 189.635 25.14 189.634 25.14C189.633 25.14 189.632 25.14 189.631 25.14C189.63 25.14 189.629 25.14 189.628 25.14C189.627 25.14 189.626 25.14 189.625 25.14C189.624 25.14 189.623 25.14 189.622 25.14C189.621 25.14 189.62 25.14 189.619 25.14C189.618 25.14 189.617 25.14 189.616 25.14C189.615 25.14 189.614 25.14 189.613 25.14C189.612 25.14 189.611 25.14 189.61 25.14C189.609 25.14 189.608 25.14 189.607 25.14C189.606 25.14 189.605 25.14 189.604 25.14C189.603 25.14 189.603 25.14 189.602 25.14C189.601 25.14 189.6 25.14 189.599 25.14C189.598 25.14 189.597 25.14 189.596 25.14C189.595 25.14 189.594 25.14 189.593 25.14C189.592 25.14 189.591 25.14 189.59 25.14C189.589 25.14 189.588 25.14 189.587 25.14C189.586 25.14 189.585 25.14 189.584 25.14C189.583 25.14 189.582 25.14 189.581 25.14C189.58 25.14 189.579 25.14 189.578 25.14C189.577 25.14 189.576 25.14 189.575 25.14C189.574 25.14 189.573 25.14 189.572 25.14C189.571 25.14 189.57 25.14 189.569 25.14C189.568 25.14 189.567 25.14 189.566 25.14C189.565 25.14 189.564 25.14 189.563 25.14C189.562 25.14 189.561 25.14 189.56 25.14C189.559 25.14 189.558 25.14 189.557 25.14C189.556 25.14 189.555 25.14 189.554 25.14C189.553 25.14 189.552 25.14 189.551 25.14C189.55 25.14 189.549 25.14 189.548 25.14C189.547 25.14 189.546 25.14 189.545 25.14C189.544 25.14 189.542 25.14 189.541 25.14C189.54 25.14 189.539 25.14 189.538 25.14C189.537 25.14 189.536 25.14 189.535 25.14C189.534 25.14 189.533 25.14 189.532 25.14C189.531 25.14 189.53 25.14 189.529 25.14C189.528 25.14 189.527 25.14 189.526 25.14C189.525 25.14 189.524 25.14 189.523 25.14C189.522 25.14 189.521 25.14 189.52 25.14C189.519 25.14 189.518 25.14 189.517 25.14C189.516 25.14 189.515 25.14 189.514 25.14C189.513 25.14 189.512 25.14 189.511 25.14C189.51 25.14 189.508 25.14 189.507 25.14C189.506 25.14 189.505 25.14 189.504 25.14C189.503 25.14 189.502 25.14 189.501 25.14C189.5 25.14 189.499 25.14 189.498 25.14C189.497 25.14 189.496 25.14 189.495 25.14C189.494 25.14 189.493 25.14 189.492 25.14C189.491 25.14 189.49 25.14 189.489 25.14C189.487 25.14 189.486 25.14 189.485 25.14C189.484 25.14 189.483 25.14 189.482 25.14C189.481 25.14 189.48 25.14 189.479 25.14C189.478 25.14 189.477 25.14 189.476 25.14C189.475 25.14 189.474 25.14 189.473 25.14C189.472 25.14 189.471 25.14 189.469 25.14C189.468 25.14 189.467 25.14 189.466 25.14C189.465 25.14 189.464 25.14 189.463 25.14C189.462 25.14 189.461 25.14 189.46 25.14C189.459 25.14 189.458 25.14 189.457 25.14C189.456 25.14 189.454 25.14 189.453 25.14C189.452 25.14 189.451 25.14 189.45 25.14C189.449 25.14 189.448 25.14 189.447 25.14C189.446 25.14 189.445 25.14 189.444 25.14C189.443 25.14 189.442 25.14 189.44 25.14C189.439 25.14 189.438 25.14 189.437 25.14C189.436 25.14 189.435 25.14 189.434 25.14C189.433 25.14 189.432 25.14 189.431 25.14C189.43 25.14 189.428 25.14 189.427 25.14C189.426 25.14 189.425 25.14 189.424 25.14C189.423 25.14 189.422 25.14 189.421 25.14C189.42 25.14 189.419 25.14 189.418 25.14C189.416 25.14 189.415 25.14 189.414 25.14C189.413 25.14 189.412 25.14 189.411 25.14C189.41 25.14 189.409 25.14 189.408 25.14C189.406 25.14 189.405 25.14 189.404 25.14C189.403 25.14 189.402 25.14 189.401 25.14C189.4 25.14 189.399 25.14 189.398 25.14C189.397 25.14 189.395 25.14 189.394 25.14C189.393 25.14 189.392 25.14 189.391 25.14C189.39 25.14 189.389 25.14 189.388 25.14C189.387 25.14 189.385 25.14 189.384 25.14C189.383 25.14 189.382 25.14 189.381 25.14C189.38 25.14 189.379 25.14 189.378 25.14C189.376 25.14 189.375 25.14 189.374 25.14C189.373 25.14 189.372 25.14 189.371 25.14C189.37 25.14 189.369 25.14 189.367 25.14C189.366 25.14 189.365 25.14 189.364 25.14C189.363 25.14 189.362 25.14 189.361 25.14C189.36 25.14 189.358 25.14 189.357 25.14C189.356 25.14 189.355 25.14 189.354 25.14C189.353 25.14 189.352 25.14 189.35 25.14C189.349 25.14 189.348 25.14 189.347 25.14C189.346 25.14 189.345 25.14 189.344 25.14C189.342 25.14 189.341 25.14 189.34 25.14C189.339 25.14 189.338 25.14 189.337 25.14C189.336 25.14 189.334 25.14 189.333 25.14C189.332 25.14 189.331 25.14 189.33 25.14C189.329 25.14 189.328 25.14 189.326 25.14C189.325 25.14 189.324 25.14 189.323 25.14C189.322 25.14 189.321 25.14 189.319 25.14C189.318 25.14 189.317 25.14 189.316 25.14C189.315 25.14 189.314 25.14 189.313 25.14C189.311 25.14 189.31 25.14 189.309 25.14C189.308 25.14 189.307 25.14 189.306 25.14C189.304 25.14 189.303 25.14 189.302 25.14C189.301 25.14 189.3 25.14 189.299 25.14C189.297 25.14 189.296 25.14 189.295 25.14C189.294 25.14 189.293 25.14 189.292 25.14C189.29 25.14 189.289 25.14 189.288 25.14C189.287 25.14 189.286 25.14 189.285 25.14C189.283 25.14 189.282 25.14 189.281 25.14C189.28 25.14 189.279 25.14 189.277 25.14C189.276 25.14 189.275 25.14 189.274 25.14C189.273 25.14 189.272 25.14 189.27 25.14C189.269 25.14 189.268 25.14 189.267 25.14C189.266 25.14 189.264 25.14 189.263 25.14C189.262 25.14 189.261 25.14 189.26 25.14C189.258 25.14 189.257 25.14 189.256 25.14C189.255 25.14 189.254 25.14 189.253 25.14C189.251 25.14 189.25 25.14 189.249 25.14C189.248 25.14 189.247 25.14 189.245 25.14C189.244 25.14 189.243 25.14 189.242 25.14C189.241 25.14 189.239 25.14 189.238 25.14C189.237 25.14 189.236 25.14 189.235 25.14C189.233 25.14 189.232 25.14 189.231 25.14C189.23 25.14 189.229 25.14 189.227 25.14C189.226 25.14 189.225 25.14 189.224 25.14C189.222 25.14 189.221 25.14 189.22 25.14C189.219 25.14 189.218 25.14 189.216 25.14C189.215 25.14 189.214 25.14 189.213 25.14C189.212 25.14 189.21 25.14 189.209 25.14C189.208 25.14 189.207 25.14 189.205 25.14C189.204 25.14 189.203 25.14 189.202 25.14C189.201 25.14 189.199 25.14 189.198 25.14C189.197 25.14 189.196 25.14 189.194 25.14C189.193 25.14 189.192 25.14 189.191 25.14C189.19 25.14 189.188 25.14 189.187 25.14C189.186 25.14 189.185 25.14 189.183 25.14C189.182 25.14 189.181 25.14 189.18 25.14C189.178 25.14 189.177 25.14 189.176 25.14C189.175 25.14 189.174 25.14 189.172 25.14C189.171 25.14 189.17 25.14 189.169 25.14C189.167 25.14 189.166 25.14 189.165 25.14C189.164 25.14 189.162 25.14 189.161 25.14C189.16 25.14 189.159 25.14 189.157 25.14C189.156 25.14 189.155 25.14 189.154 25.14C189.152 25.14 189.151 25.14 189.15 25.14C189.149 25.14 189.147 25.14 189.146 25.14C189.145 25.14 189.144 25.14 189.142 25.14C189.141 25.14 189.14 25.14 189.139 25.14C189.137 25.14 189.136 25.14 189.135 25.14C189.134 25.14 189.132 25.14 189.131 25.14C189.13 25.14 189.129 25.14 189.127 25.14C189.126 25.14 189.125 25.14 189.124 25.14C189.122 25.14 189.121 25.14 189.12 25.14C189.119 25.14 189.117 25.14 189.116 25.14C189.115 25.14 189.113 25.14 189.112 25.14C189.111 25.14 189.11 25.14 189.108 25.14C189.107 25.14 189.106 25.14 189.105 25.14C189.103 25.14 189.102 25.14 189.101 25.14C189.099 25.14 189.098 25.14 189.097 25.14C189.096 25.14 189.094 25.14 189.093 25.14C189.092 25.14 189.091 25.14 189.089 25.14C189.088 25.14 189.087 25.14 189.085 25.14C189.084 25.14 189.083 25.14 189.082 25.14C189.08 25.14 189.079 25.14 189.078 25.14C189.076 25.14 189.075 25.14 189.074 25.14C189.073 25.14 189.071 25.14 189.07 25.14C189.069 25.14 189.067 25.14 189.066 25.14C189.065 25.14 189.063 25.14 189.062 25.14C189.061 25.14 189.06 25.14 189.058 25.14C189.057 25.14 189.056 25.14 189.054 25.14C189.053 25.14 189.052 25.14 189.051 25.14C189.049 25.14 189.048 25.14 189.047 25.14C189.045 25.14 189.044 25.14 189.043 25.14C189.041 25.14 189.04 25.14 189.039 25.14C189.037 25.14 189.036 25.14 189.035 25.14C189.034 25.14 189.032 25.14 189.031 25.14C189.03 25.14 189.028 25.14 189.027 25.14C189.026 25.14 189.024 25.14 189.023 25.14C189.022 25.14 189.02 25.14 189.019 25.14C189.018 25.14 189.016 25.14 189.015 25.14C189.014 25.14 189.013 25.14 189.011 25.14C189.01 25.14 189.009 25.14 189.007 25.14C189.006 25.14 189.005 25.14 189.003 25.14C189.002 25.14 189.001 25.14 188.999 25.14C188.998 25.14 188.997 25.14 188.995 25.14C188.994 25.14 188.993 25.14 188.991 25.14C188.99 25.14 188.989 25.14 188.987 25.14C188.986 25.14 188.985 25.14 188.983 25.14C188.982 25.14 188.981 25.14 188.979 25.14C188.978 25.14 188.977 25.14 188.975 25.14C188.974 25.14 188.973 25.14 188.971 25.14C188.97 25.14 188.969 25.14 188.967 25.14C188.966 25.14 188.965 25.14 188.963 25.14C188.962 25.14 188.961 25.14 188.959 25.14C188.958 25.14 188.957 25.14 188.955 25.14C188.954 25.14 188.952 25.14 188.951 25.14C188.95 25.14 188.948 25.14 188.947 25.14C188.946 25.14 188.944 25.14 188.943 25.14C188.942 25.14 188.94 25.14 188.939 25.14C188.938 25.14 188.936 25.14 188.935 25.14C188.934 25.14 188.932 25.14 188.931 25.14C188.929 25.14 188.928 25.14 188.927 25.14C188.925 25.14 188.924 25.14 188.923 25.14C188.921 25.14 188.92 25.14 188.919 25.14C188.917 25.14 188.916 25.14 188.914 25.14C188.913 25.14 188.912 25.14 188.91 25.14C188.909 25.14 188.908 25.14 188.906 25.14C188.905 25.14 188.903 25.14 188.902 25.14C188.901 25.14 188.899 25.14 188.898 25.14C188.897 25.14 188.895 25.14 188.894 25.14C188.892 25.14 188.891 25.14 188.89 25.14C188.888 25.14 188.887 25.14 188.886 25.14C188.884 25.14 188.883 25.14 188.881 25.14C188.88 25.14 188.879 25.14 188.877 25.14C188.876 25.14 188.874 25.14 188.873 25.14C188.872 25.14 188.87 25.14 188.869 25.14C188.868 25.14 188.866 25.14 188.865 25.14C188.863 25.14 188.862 25.14 188.861 25.14C188.859 25.14 188.858 25.14 188.856 25.14C188.855 25.14 188.854 25.14 188.852 25.14C188.851 25.14 188.849 25.14 188.848 25.14C188.847 25.14 188.845 25.14 188.844 25.14C188.842 25.14 188.841 25.14 188.84 25.14C188.838 25.14 188.837 25.14 188.835 25.14C188.834 25.14 188.833 25.14 188.831 25.14C188.83 25.14 188.828 25.14 188.827 25.14C188.826 25.14 188.824 25.14 188.823 25.14C188.821 25.14 188.82 25.14 188.818 25.14C188.817 25.14 188.816 25.14 188.814 25.14C188.813 25.14 188.811 25.14 188.81 25.14C188.809 25.14 188.807 25.14 188.806 25.14C188.804 25.14 188.803 25.14 188.801 25.14C188.8 25.14 188.799 25.14 188.797 25.14C188.796 25.14 188.794 25.14 188.793 25.14C188.791 25.14 188.79 25.14 188.789 25.14C188.787 25.14 188.786 25.14 188.784 25.14C188.783 25.14 188.781 25.14 188.78 25.14C188.779 25.14 188.777 25.14 188.776 25.14C188.774 25.14 188.773 25.14 188.771 25.14C188.77 25.14 188.769 25.14 188.767 25.14C188.766 25.14 188.764 25.14 188.763 25.14C188.761 25.14 188.76 25.14 188.758 25.14C188.757 25.14 188.756 25.14 188.754 25.14C188.753 25.14 188.751 25.14 188.75 25.14C188.748 25.14 188.747 25.14 188.745 25.14C188.744 25.14 188.743 25.14 188.741 25.14C188.74 25.14 188.738 25.14 188.737 25.14C188.735 25.14 188.734 25.14 188.732 25.14C188.731 25.14 188.73 25.14 188.728 25.14C188.727 25.14 188.725 25.14 188.724 25.14C188.722 25.14 188.721 25.14 188.719 25.14C188.718 25.14 188.716 25.14 188.715 25.14C188.714 25.14 188.712 25.14 188.711 25.14C188.709 25.14 188.708 25.14 188.706 25.14C188.705 25.14 188.703 25.14 188.702 25.14C188.7 25.14 188.699 25.14 188.697 25.14C188.696 25.14 188.694 25.14 188.693 25.14C188.691 25.14 188.69 25.14 188.689 25.14C188.687 25.14 188.686 25.14 188.684 25.14C188.683 25.14 188.681 25.14 188.68 25.14C188.678 25.14 188.677 25.14 188.675 25.14C188.674 25.14 188.672 25.14 188.671 25.14C188.669 25.14 188.668 25.14 188.666 25.14C188.665 25.14 188.663 25.14 188.662 25.14C188.66 25.14 188.659 25.14 188.657 25.14C188.656 25.14 188.655 25.14 188.653 25.14C188.652 25.14 188.65 25.14 188.649 25.14C188.647 25.14 188.646 25.14 188.644 25.14C188.643 25.14 188.641 25.14 188.64 25.14C188.638 25.14 188.637 25.14 188.635 25.14C188.634 25.14 188.632 25.14 188.631 25.14C188.629 25.14 188.628 25.14 188.626 25.14C188.625 25.14 188.623 25.14 188.622 25.14C188.62 25.14 188.619 25.14 188.617 25.14C188.616 25.14 188.614 25.14 188.613 25.14C188.611 25.14 188.61 25.14 188.608 25.14C188.607 25.14 188.605 25.14 188.604 25.14C188.602 25.14 188.6 25.14 188.599 25.14C188.597 25.14 188.596 25.14 188.594 25.14C188.593 25.14 188.591 25.14 188.59 25.14C188.588 25.14 188.587 25.14 188.585 25.14C188.584 25.14 188.582 25.14 188.581 25.14C188.579 25.14 188.578 25.14 188.576 25.14C188.575 25.14 188.573 25.14 188.572 25.14C188.57 25.14 188.569 25.14 188.567 25.14C188.566 25.14 188.564 25.14 188.562 25.14C188.561 25.14 188.559 25.14 188.558 25.14C188.556 25.14 188.555 25.14 188.553 25.14C188.552 25.14 188.55 25.14 188.549 25.14C188.547 25.14 188.546 25.14 188.544 25.14C188.543 25.14 188.541 25.14 188.539 25.14C188.538 25.14 188.536 25.14 188.535 25.14C188.533 25.14 188.532 25.14 188.53 25.14C188.529 25.14 188.527 25.14 188.526 25.14C188.524 25.14 188.523 25.14 188.521 25.14C188.519 25.14 188.518 25.14 188.516 25.14C188.515 25.14 188.513 25.14 188.512 25.14C188.51 25.14 188.509 25.14 188.507 25.14C188.505 25.14 188.504 25.14 188.502 25.14C188.501 25.14 188.499 25.14 188.498 25.14C188.496 25.14 188.495 25.14 188.493 25.14C188.491 25.14 188.49 25.14 188.488 25.14C188.487 25.14 188.485 25.14 188.484 25.14C188.482 25.14 188.481 25.14 188.479 25.14C188.477 25.14 188.476 25.14 188.474 25.14C188.473 25.14 188.471 25.14 188.47 25.14C188.468 25.14 188.466 25.14 188.465 25.14C188.463 25.14 188.462 25.14 188.46 25.14C188.459 25.14 188.457 25.14 188.455 25.14C188.454 25.14 188.452 25.14 188.451 25.14C188.449 25.14 188.448 25.14 188.446 25.14C188.444 25.14 188.443 25.14 188.441 25.14C188.44 25.14 188.438 25.14 188.436 25.14C188.435 25.14 188.433 25.14 188.432 25.14C188.43 25.14 188.429 25.14 188.427 25.14C188.425 25.14 188.424 25.14 188.422 25.14C188.421 25.14 188.419 25.14 188.417 25.14C188.416 25.14 188.414 25.14 188.413 25.14C188.411 25.14 188.41 25.14 188.408 25.14C188.406 25.14 188.405 25.14 188.403 25.14C188.402 25.14 188.4 25.14 188.398 25.14C188.397 25.14 188.395 25.14 188.394 25.14C188.392 25.14 188.39 25.14 188.389 25.14C188.387 25.14 188.386 25.14 188.384 25.14C188.382 25.14 188.381 25.14 188.379 25.14C188.378 25.14 188.376 25.14 188.374 25.14C188.373 25.14 188.371 25.14 188.369 25.14C188.368 25.14 188.366 25.14 188.365 25.14C188.363 25.14 188.361 25.14 188.36 25.14C188.358 25.14 188.357 25.14 188.355 25.14C188.353 25.14 188.352 25.14 188.35 25.14C188.348 25.14 188.347 25.14 188.345 25.14C188.344 25.14 188.342 25.14 188.34 25.14C188.339 25.14 188.337 25.14 188.336 25.14C188.334 25.14 188.332 25.14 188.331 25.14C188.329 25.14 188.327 25.14 188.326 25.14C188.324 25.14 188.322 25.14 188.321 25.14C188.319 25.14 188.318 25.14 188.316 25.14C188.314 25.14 188.313 25.14 188.311 25.14C188.309 25.14 188.308 25.14 188.306 25.14C188.305 25.14 188.303 25.14 188.301 25.14C188.3 25.14 188.298 25.14 188.296 25.14C188.295 25.14 188.293 25.14 188.291 25.14C188.29 25.14 188.288 25.14 188.286 25.14C188.285 25.14 188.283 25.14 188.282 25.14C188.28 25.14 188.278 25.14 188.277 25.14C188.275 25.14 188.273 25.14 188.272 25.14C188.27 25.14 188.268 25.14 188.267 25.14C188.265 25.14 188.263 25.14 188.262 25.14C188.26 25.14 188.258 25.14 188.257 25.14C188.255 25.14 188.253 25.14 188.252 25.14C188.25 25.14 188.249 25.14 188.247 25.14C188.245 25.14 188.244 25.14 188.242 25.14C188.24 25.14 188.239 25.14 188.237 25.14C188.235 25.14 188.234 25.14 188.232 25.14C188.23 25.14 188.229 25.14 188.227 25.14C188.225 25.14 188.224 25.14 188.222 25.14C188.22 25.14 188.219 25.14 188.217 25.14C188.215 25.14 188.214 25.14 188.212 25.14C188.21 25.14 188.209 25.14 188.207 25.14C188.205 25.14 188.203 25.14 188.202 25.14C188.2 25.14 188.198 25.14 188.197 25.14C188.195 25.14 188.193 25.14 188.192 25.14C188.19 25.14 188.188 25.14 188.187 25.14C188.185 25.14 188.183 25.14 188.182 25.14C188.18 25.14 188.178 25.14 188.177 25.14C188.175 25.14 188.173 25.14 188.172 25.14C188.17 25.14 188.168 25.14 188.166 25.14C188.165 25.14 188.163 25.14 188.161 25.14C188.16 25.14 188.158 25.14 188.156 25.14C188.155 25.14 188.153 25.14 188.151 25.14C188.149 25.14 188.148 25.14 188.146 25.14C188.144 25.14 188.143 25.14 188.141 25.14C188.139 25.14 188.138 25.14 188.136 25.14C188.134 25.14 188.132 25.14 188.131 25.14C188.129 25.14 188.127 25.14 188.126 25.14C188.124 25.14 188.122 25.14 188.121 25.14C188.119 25.14 188.117 25.14 188.115 25.14C188.114 25.14 188.112 25.14 188.11 25.14C188.109 25.14 188.107 25.14 188.105 25.14C188.103 25.14 188.102 25.14 188.1 25.14C188.098 25.14 188.097 25.14 188.095 25.14C188.093 25.14 188.091 25.14 188.09 25.14C188.088 25.14 188.086 25.14 188.084 25.14C188.083 25.14 188.081 25.14 188.079 25.14C188.078 25.14 188.076 25.14 188.074 25.14C188.072 25.14 188.071 25.14 188.069 25.14C188.067 25.14 188.066 25.14 188.064 25.14C188.062 25.14 188.06 25.14 188.059 25.14C188.057 25.14 188.055 25.14 188.053 25.14C188.052 25.14 188.05 25.14 188.048 25.14C188.046 25.14 188.045 25.14 188.043 25.14C188.041 25.14 188.039 25.14 188.038 25.14C188.036 25.14 188.034 25.14 188.033 25.14C188.031 25.14 188.029 25.14 188.027 25.14C188.026 25.14 188.024 25.14 188.022 25.14C188.02 25.14 188.019 25.14 188.017 25.14C188.015 25.14 188.013 25.14 188.012 25.14C188.01 25.14 188.008 25.14 188.006 25.14C188.005 25.14 188.003 25.14 188.001 25.14C187.999 25.14 187.998 25.14 187.996 25.14C187.994 25.14 187.992 25.14 187.99 25.14C187.989 25.14 187.987 25.14 187.985 25.14C187.983 25.14 187.982 25.14 187.98 25.14C187.978 25.14 187.976 25.14 187.975 25.14C187.973 25.14 187.971 25.14 187.969 25.14C187.968 25.14 187.966 25.14 187.964 25.14C187.962 25.14 187.96 25.14 187.959 25.14C187.957 25.14 187.955 25.14 187.953 25.14C187.952 25.14 187.95 25.14 187.948 25.14C187.946 25.14 187.945 25.14 187.943 25.14C187.941 25.14 187.939 25.14 187.937 25.14C187.936 25.14 187.934 25.14 187.932 25.14C187.93 25.14 187.929 25.14 187.927 25.14C187.925 25.14 187.923 25.14 187.921 25.14C187.92 25.14 187.918 25.14 187.916 25.14C187.914 25.14 187.912 25.14 187.911 25.14C187.909 25.14 187.907 25.14 187.905 25.14C187.904 25.14 187.902 25.14 187.9 25.14C187.898 25.14 187.896 25.14 187.895 25.14C187.893 25.14 187.891 25.14 187.889 25.14C187.887 25.14 187.886 25.14 187.884 25.14C187.882 25.14 187.88 25.14 187.878 25.14C187.877 25.14 187.875 25.14 187.873 25.14C187.871 25.14 187.869 25.14 187.868 25.14C187.866 25.14 187.864 25.14 187.862 25.14C187.86 25.14 187.859 25.14 187.857 25.14C187.855 25.14 187.853 25.14 187.851 25.14C187.849 25.14 187.848 25.14 187.846 25.14C187.844 25.14 187.842 25.14 187.84 25.14C187.839 25.14 187.837 25.14 187.835 25.14C187.833 25.14 187.831 25.14 187.83 25.14C187.828 25.14 187.826 25.14 187.824 25.14C187.822 25.14 187.82 25.14 187.819 25.14C187.817 25.14 187.815 25.14 187.813 25.14C187.811 25.14 187.809 25.14 187.808 25.14C187.806 25.14 187.804 25.14 187.802 25.14C187.8 25.14 187.799 25.14 187.797 25.14C187.795 25.14 187.793 25.14 187.791 25.14C187.789 25.14 187.788 25.14 187.786 25.14C187.784 25.14 187.782 25.14 187.78 25.14C187.778 25.14 187.777 25.14 187.775 25.14C187.773 25.14 187.771 25.14 187.769 25.14C187.767 25.14 187.765 25.14 187.764 25.14C187.762 25.14 187.76 25.14 187.758 25.14C187.756 25.14 187.754 25.14 187.753 25.14C187.751 25.14 187.749 25.14 187.747 25.14C187.745 25.14 187.743 25.14 187.741 25.14C187.74 25.14 187.738 25.14 187.736 25.14C187.734 25.14 187.732 25.14 187.73 25.14C187.729 25.14 187.727 25.14 187.725 25.14C187.723 25.14 187.721 25.14 187.719 25.14C187.717 25.14 187.716 25.14 187.714 25.14C187.712 25.14 187.71 25.14 187.708 25.14C187.706 25.14 187.704 25.14 187.702 25.14C187.701 25.14 187.699 25.14 187.697 25.14C187.695 25.14 187.693 25.14 187.691 25.14C187.689 25.14 187.688 25.14 187.686 25.14C187.684 25.14 187.682 25.14 187.68 25.14C187.678 25.14 187.676 25.14 187.674 25.14C187.673 25.14 187.671 25.14 187.669 25.14C187.667 25.14 187.665 25.14 187.663 25.14C187.661 25.14 187.659 25.14 187.658 25.14C187.656 25.14 187.654 25.14 187.652 25.14C187.65 25.14 187.648 25.14 187.646 25.14C187.644 25.14 187.643 25.14 187.641 25.14C187.639 25.14 187.637 25.14 187.635 25.14C187.633 25.14 187.631 25.14 187.629 25.14C187.627 25.14 187.626 25.14 187.624 25.14C187.622 25.14 187.62 25.14 187.618 25.14C187.616 25.14 187.614 25.14 187.612 25.14C187.61 25.14 187.608 25.14 187.607 25.14C187.605 25.14 187.603 25.14 187.601 25.14C187.599 25.14 187.597 25.14 187.595 25.14C187.593 25.14 187.591 25.14 187.589 25.14C187.588 25.14 187.586 25.14 187.584 25.14C187.582 25.14 187.58 25.14 187.578 25.14C187.576 25.14 187.574 25.14 187.572 25.14C187.57 25.14 187.568 25.14 187.567 25.14C187.565 25.14 187.563 25.14 187.561 25.14C187.559 25.14 187.557 25.14 187.555 25.14C187.553 25.14 187.551 25.14 187.549 25.14C187.547 25.14 187.546 25.14 187.544 25.14C187.542 25.14 187.54 25.14 187.538 25.14C187.536 25.14 187.534 25.14 187.532 25.14C187.53 25.14 187.528 25.14 187.526 25.14C187.524 25.14 187.522 25.14 187.521 25.14C187.519 25.14 187.517 25.14 187.515 25.14C187.513 25.14 187.511 25.14 187.509 25.14C187.507 25.14 187.505 25.14 187.503 25.14C187.501 25.14 187.499 25.14 187.497 25.14C187.495 25.14 187.493 25.14 187.492 25.14C187.49 25.14 187.488 25.14 187.486 25.14C187.484 25.14 187.482 25.14 187.48 25.14C187.478 25.14 187.476 25.14 187.474 25.14C187.472 25.14 187.47 25.14 187.468 25.14C187.466 25.14 187.464 25.14 187.462 25.14C187.46 25.14 187.458 25.14 187.457 25.14C187.455 25.14 187.453 25.14 187.451 25.14C187.449 25.14 187.447 25.14 187.445 25.14V27.14ZM189.748 27.1365C190.25 27.0947 190.79 27.0323 191.366 26.9499L191.083 24.9701C190.54 25.0477 190.039 25.1053 189.582 25.1435L189.748 27.1365ZM191.366 26.9499C191.937 26.8684 192.56 26.7242 192.99 26.3809L191.74 24.8191C191.775 24.7915 191.759 24.8152 191.629 24.8564C191.507 24.8947 191.33 24.9349 191.083 24.9701L191.366 26.9499ZM193.005 26.3682C193.365 26.068 193.646 25.6928 193.859 25.2672L192.07 24.3728C191.963 24.5872 191.844 24.732 191.725 24.8318L193.005 26.3682ZM193.859 25.2672C194.113 24.7599 194.205 24.17 194.205 23.56H192.205C192.205 23.99 192.137 24.2401 192.07 24.3728L193.859 25.2672ZM213.872 1.96V0.959999H212.872V1.96H213.872ZM236.672 1.96H237.672V0.959999H236.672V1.96ZM236.672 25.6H235.672V26.6H236.672V25.6ZM239.312 25.6H240.312V24.6H239.312V25.6ZM239.312 39.04V40.04H240.312V39.04H239.312ZM231.332 39.04H230.332V40.04H231.332V39.04ZM231.332 31H232.332V30H231.332V31ZM214.532 31V30H213.532V31H214.532ZM214.532 39.04V40.04H215.532V39.04H214.532ZM206.552 39.04H205.552V40.04H206.552V39.04ZM206.552 25.6V24.6H205.552V25.6H206.552ZM208.712 25.6V26.6H209.252L209.548 26.1488L208.712 25.6ZM228.032 7.36H229.032V6.36H228.032V7.36ZM222.092 7.36V6.36H221.092V7.36H222.092ZM221.012 17.5L221.988 17.7195L221.988 17.7169L221.012 17.5ZM218.072 25.6L217.201 25.109L216.36 26.6H218.072V25.6ZM228.032 25.6V26.6H229.032V25.6H228.032ZM213.872 2.96H236.672V0.959999H213.872V2.96ZM235.672 1.96V25.6H237.672V1.96H235.672ZM236.672 26.6H239.312V24.6H236.672V26.6ZM238.312 25.6V39.04H240.312V25.6H238.312ZM239.312 38.04H231.332V40.04H239.312V38.04ZM232.332 39.04V31H230.332V39.04H232.332ZM231.332 30H214.532V32H231.332V30ZM213.532 31V39.04H215.532V31H213.532ZM214.532 38.04H206.552V40.04H214.532V38.04ZM207.552 39.04V25.6H205.552V39.04H207.552ZM206.552 26.6H208.712V24.6H206.552V26.6ZM209.548 26.1488C213.117 20.7116 214.872 14.0296 214.872 6.16H212.872C212.872 13.7304 211.187 20.0084 207.876 25.0512L209.548 26.1488ZM214.872 6.16V1.96H212.872V6.16H214.872ZM228.032 6.36H222.092V8.36H228.032V6.36ZM221.092 7.36V8.92H223.092V7.36H221.092ZM221.092 8.92C221.092 11.3073 220.745 14.092 220.036 17.2831L221.988 17.7169C222.719 14.428 223.092 11.4927 223.092 8.92H221.092ZM220.036 17.2805C219.332 20.4121 218.381 23.0149 217.201 25.109L218.943 26.091C220.243 23.7851 221.252 20.9879 221.988 17.7195L220.036 17.2805ZM218.072 26.6H228.032V24.6H218.072V26.6ZM229.032 25.6V7.36H227.032V25.6H229.032Z" fill="url(#paint0_linear)"/>
<defs>
<linearGradient id="paint0_linear" x1="-2" y1="10" x2="242" y2="9.99999" gradientUnits="userSpaceOnUse">
<stop stop-color="#1CB86D"/>
<stop offset="1" stop-color="#00B6EF"/>
</linearGradient>
</defs>
</svg>
