<svg width="239" height="43" viewBox="0 0 239 43" fill="none" xmlns="http://www.w3.org/2000/svg">
<path d="M30.54 10.14V19.68C30.54 24 29.58 26.9 27.66 28.38C25.74 29.86 22.62 30.6 18.3 30.6C15.58 30.6 13.54 30.38 12.18 29.94C10.86 29.5 10 28.54 9.6 27.06V42.48H0.84V0.959998H9.12V3.84C9.64 2.56 10.66 1.66 12.18 1.14C13.74 0.619999 16 0.359999 18.96 0.359999C21.44 0.359999 23.46 0.559999 25.02 0.959998C26.58 1.36 27.76 2.02 28.56 2.94C29.36 3.82 29.88 4.8 30.12 5.88C30.4 6.96 30.54 8.38 30.54 10.14ZM21.78 20.82V10.08C21.78 8.2 21.42 7.02 20.7 6.54C20.02 6.02 18.3 5.76 15.54 5.76C13.06 5.76 11.44 6.08 10.68 6.72C9.96 7.36 9.6 8.48 9.6 10.08V20.82C9.6 22.54 9.96 23.7 10.68 24.3C11.4 24.86 13.04 25.14 15.6 25.14C18.16 25.14 19.82 24.86 20.58 24.3C21.38 23.7 21.78 22.54 21.78 20.82ZM66.0825 11.46V20.04C66.0825 21.92 65.7825 23.54 65.1825 24.9C64.5825 26.22 63.8425 27.26 62.9625 28.02C62.0825 28.74 60.9225 29.3 59.4825 29.7C58.0825 30.1 56.7825 30.34 55.5825 30.42C54.4225 30.54 53.0025 30.6 51.3225 30.6C49.6425 30.6 48.2025 30.54 47.0025 30.42C45.8425 30.34 44.5425 30.1 43.1025 29.7C41.7025 29.3 40.5625 28.74 39.6825 28.02C38.8025 27.26 38.0625 26.22 37.4625 24.9C36.8625 23.54 36.5625 21.92 36.5625 20.04V11.46C36.5625 9.46 36.8625 7.76 37.4625 6.36C38.1025 4.92 38.8625 3.82 39.7425 3.06C40.6625 2.3 41.8425 1.72 43.2825 1.32C44.7225 0.879999 46.0025 0.619999 47.1225 0.539998C48.2825 0.419999 49.6825 0.359999 51.3225 0.359999C52.9625 0.359999 54.3425 0.419999 55.4625 0.539998C56.6225 0.619999 57.9225 0.879999 59.3625 1.32C60.8025 1.72 61.9625 2.3 62.8425 3.06C63.7625 3.82 64.5225 4.92 65.1225 6.36C65.7625 7.76 66.0825 9.46 66.0825 11.46ZM57.3225 21.06V10.08C57.3225 8.52 56.9225 7.42 56.1225 6.78C55.3225 6.1 53.7225 5.76 51.3225 5.76C48.9225 5.76 47.3225 6.1 46.5225 6.78C45.7225 7.42 45.3225 8.52 45.3225 10.08V21.06C45.3225 22.58 45.7025 23.64 46.4625 24.24C47.2625 24.84 48.8825 25.14 51.3225 25.14C53.7625 25.14 55.3625 24.84 56.1225 24.24C56.9225 23.64 57.3225 22.58 57.3225 21.06ZM98.4703 19.62V22.38C98.4703 25.62 97.2703 27.8 94.8703 28.92C92.5103 30.04 88.7703 30.6 83.6503 30.6C79.6103 30.6 75.4503 30.3 71.1703 29.7V23.58C76.2903 24.62 80.4703 25.14 83.7103 25.14C86.0703 25.14 87.6503 24.94 88.4503 24.54C89.2903 24.14 89.7103 23.28 89.7103 21.96V20.46C89.7103 19.34 89.1703 18.56 88.0903 18.12C87.0503 17.68 85.4303 17.46 83.2303 17.46H76.7503V12H83.2303C86.6303 12 88.3303 10.96 88.3303 8.88V8.64C88.3303 7.48 87.9103 6.72 87.0703 6.36C86.2703 5.96 84.6103 5.76 82.0903 5.76C79.0503 5.76 75.6103 6 71.7703 6.48V0.899999C74.8103 0.539999 78.5703 0.359999 83.0503 0.359999C88.3303 0.359999 91.9503 0.839999 93.9103 1.8C95.9103 2.76 96.9103 4.52 96.9103 7.08V9.3C96.9103 10.54 96.5303 11.56 95.7703 12.36C95.0503 13.12 94.1903 13.64 93.1903 13.92C96.7103 15.2 98.4703 17.1 98.4703 19.62ZM104.903 30V0.959998H113.663V12.6C114.543 12.6 115.143 12.52 115.463 12.36C115.823 12.2 116.203 11.78 116.603 11.1L119.423 6.48C121.063 3.76 122.343 2.16 123.263 1.68C124.183 1.2 126.443 0.959998 130.043 0.959998H132.923V6.36H131.963C130.483 6.36 129.383 6.52 128.663 6.84C127.983 7.12 127.323 7.72 126.683 8.64L125.003 11.04C123.963 12.56 122.983 13.56 122.063 14.04C123.983 14.84 125.903 16.58 127.823 19.26L135.443 30H125.363L119.843 21.9C118.643 20.14 117.683 19.04 116.963 18.6C116.243 18.16 115.143 17.94 113.663 17.94V30H104.903ZM135.005 30.12V24.78C135.725 24.98 136.365 25.08 136.925 25.08C138.045 25.08 138.825 24.74 139.265 24.06C139.745 23.34 139.985 22 139.985 20.04V0.959998H167.105V30H158.405V6.36H148.745V21.54C148.745 23.14 148.565 24.5 148.205 25.62C147.885 26.7 147.465 27.56 146.945 28.2C146.425 28.8 145.705 29.28 144.785 29.64C143.865 29.96 142.945 30.16 142.025 30.24C141.145 30.36 140.025 30.42 138.665 30.42C137.225 30.42 136.005 30.32 135.005 30.12ZM200.965 30H192.385V27.36C191.745 28.52 190.825 29.36 189.625 29.88C188.425 30.36 186.225 30.6 183.025 30.6C179.105 30.6 176.505 30 175.225 28.8C173.945 27.6 173.305 25.1 173.305 21.3C173.305 17.86 173.965 15.48 175.285 14.16C176.605 12.8 178.965 12.12 182.365 12.12H192.205V10.14C192.205 8.38 191.785 7.22 190.945 6.66C190.145 6.06 188.425 5.76 185.785 5.76C183.305 5.76 179.905 6 175.585 6.48V0.959998C178.905 0.559999 182.605 0.359999 186.685 0.359999C192.045 0.359999 195.765 1.02 197.845 2.34C199.925 3.62 200.965 6.18 200.965 10.02V30ZM192.205 22.56V16.92H186.205C184.285 16.92 183.085 17.14 182.605 17.58C182.125 18.02 181.885 19.2 181.885 21.12C181.885 23 182.125 24.14 182.605 24.54C183.125 24.94 184.405 25.14 186.445 25.14C187.445 25.14 188.185 25.14 188.665 25.14C189.145 25.1 189.665 25.04 190.225 24.96C190.785 24.88 191.165 24.76 191.365 24.6C191.605 24.4 191.805 24.14 191.965 23.82C192.125 23.5 192.205 23.08 192.205 22.56ZM212.872 0.959998H235.672V24.6H238.312V38.04H230.332V30H213.532V38.04H205.552V24.6H207.712C211.152 19.36 212.872 12.88 212.872 5.16V0.959998ZM227.032 6.36H221.092V7.92C221.092 10.4 220.732 13.26 220.012 16.5C219.292 19.7 218.312 22.4 217.072 24.6H227.032V6.36Z" fill="white"/>
</svg>
