<svg width="25" height="25" viewBox="0 0 25 25" fill="none" xmlns="http://www.w3.org/2000/svg">
<circle cx="12.5" cy="12.5" r="12.5" fill="#E0E0E0"/>
<path d="M17.5 9.15803C17.5 8.2772 16.7228 7.5 15.842 7.5H9.15803C8.2772 7.5 7.5 8.2772 7.5 9.15803V15.842C7.5 16.7228 8.2772 17.5 9.15803 17.5H12.5259V13.7176H11.2824V12.0596H12.5259V11.386C12.5259 10.2461 13.3549 9.26165 14.3912 9.26165H15.7383V10.9197H14.3912C14.2358 10.9197 14.0803 11.0751 14.0803 11.386V12.0596H15.7383V13.7176H14.0803V17.5H15.842C16.7228 17.5 17.5 16.7228 17.5 15.842V9.15803Z" fill="#333333"/>
</svg>
