<svg width="80" height="80" viewBox="0 0 80 80" fill="none" xmlns="http://www.w3.org/2000/svg">
<rect width="80" height="80" rx="40" fill="#EDFEF5"/>
<path d="M40.3125 23.0002C29.1068 23.0002 20 32.8686 20 45.0054V55.1616C20 55.6105 20.1783 56.0411 20.4958 56.3585C20.8132 56.676 21.2438 56.8543 21.6927 56.8543H28.4635C28.9125 56.8543 29.343 56.676 29.6605 56.3585C29.9779 56.0411 30.1562 55.6105 30.1562 55.1616V45.0054C30.1562 44.5564 29.9779 44.1259 29.6605 43.8084C29.343 43.491 28.9125 43.3127 28.4635 43.3127H23.4701C23.8029 38.8734 25.6631 34.6864 28.7344 31.4637H51.8906C54.9928 34.6742 56.8835 38.8625 57.2396 43.3127H52.1615C51.7125 43.3127 51.282 43.491 50.9645 43.8084C50.6471 44.1259 50.4688 44.5564 50.4688 45.0054V55.1616C50.4688 55.6105 50.6471 56.0411 50.9645 56.3585C51.282 56.676 51.7125 56.8543 52.1615 56.8543H58.9323C59.3812 56.8543 59.8118 56.676 60.1292 56.3585C60.4467 56.0411 60.625 55.6105 60.625 55.1616V45.0054C60.625 32.8686 51.5182 23.0002 40.3125 23.0002ZM33.3047 28.0783C35.4732 26.9658 37.8753 26.3856 40.3125 26.3856C42.7497 26.3856 45.1518 26.9658 47.3203 28.0783H33.3047Z" fill="#33CBA0"/>
<path d="M47.0833 45.0054C46.6344 45.0054 46.2039 45.1837 45.8864 45.5011C45.569 45.8186 45.3906 46.2491 45.3906 46.6981V53.4689C45.3906 53.9178 45.569 54.3484 45.8864 54.6658C46.2039 54.9833 46.6344 55.1616 47.0833 55.1616C47.5323 55.1616 47.9628 54.9833 48.2803 54.6658C48.5977 54.3484 48.776 53.9178 48.776 53.4689V46.6981C48.776 46.2491 48.5977 45.8186 48.2803 45.5011C47.9628 45.1837 47.5323 45.0054 47.0833 45.0054Z" fill="#33CBA0"/>
<path d="M33.5418 45.0054C33.0929 45.0054 32.6623 45.1837 32.3449 45.5011C32.0275 45.8186 31.8491 46.2491 31.8491 46.6981V53.4689C31.8491 53.9178 32.0275 54.3484 32.3449 54.6658C32.6623 54.9833 33.0929 55.1616 33.5418 55.1616C33.9908 55.1616 34.4213 54.9833 34.7388 54.6658C35.0562 54.3484 35.2345 53.9178 35.2345 53.4689V46.6981C35.2345 46.2491 35.0562 45.8186 34.7388 45.5011C34.4213 45.1837 33.9908 45.0054 33.5418 45.0054Z" fill="#33CBA0"/>
</svg>
