<svg width="80" height="80" viewBox="0 0 80 80" fill="none" xmlns="http://www.w3.org/2000/svg">
<rect width="80" height="80" rx="40" fill="#33CBA0"/>
<path d="M64.452 36.3666H56.591C56.2007 36.3666 55.8662 36.7011 55.8662 37.0914V52.4231C55.8662 52.8134 56.2007 53.1479 56.591 53.1479H64.452C64.8423 53.1479 65.1768 52.8134 65.1768 52.4231V37.1471C65.1768 36.7011 64.8423 36.3666 64.452 36.3666ZM60.4936 52.8134C60.1591 52.8134 59.9361 52.5347 59.9361 52.2559C59.9361 51.9214 60.2149 51.6984 60.4936 51.6984C60.8281 51.6984 61.0511 51.9771 61.0511 52.2559C61.0511 52.5904 60.8281 52.8134 60.4936 52.8134ZM61.7202 37.4816H59.2671C59.1556 37.4816 59.0998 37.3701 59.0998 37.3144C59.0998 37.2586 59.2113 37.1471 59.2671 37.1471H61.7202C61.8317 37.1471 61.8874 37.2586 61.8874 37.3144C61.8874 37.3701 61.8317 37.4816 61.7202 37.4816Z" fill="white"/>
<path d="M50.0122 29.2858V28.2265C50.0122 27.5575 49.4547 27 48.7857 27H16.2265C15.5575 27 15 27.5575 15 28.2265V45.2866C15 45.9557 15.5575 46.5132 16.2265 46.5132H30.5548L30.2203 48.0742C29.9415 48.2972 29.6628 48.576 29.4397 48.8548L27.1539 52.0884C26.9867 52.3671 27.1539 52.7574 27.4884 52.7574H37.5795C37.914 52.7574 38.0813 52.3671 37.914 52.0884L35.6282 48.8548C35.4052 48.5202 35.1264 48.2972 34.8477 48.0742L34.5132 46.5132H42.43V29.8991C42.43 29.5646 42.7087 29.3416 42.9875 29.3416L50.0122 29.2858ZM32.5061 44.5061C32.0601 44.5061 31.7256 44.1716 31.7256 43.7256C31.7256 43.2796 32.0601 42.9451 32.5061 42.9451C32.9521 42.9451 33.2866 43.2796 33.2866 43.7256C33.2866 44.1716 32.9521 44.5061 32.5061 44.5061Z" fill="white"/>
<path d="M59.2112 34.8612H59.4342V31.3488C59.4342 31.0143 59.1554 30.7356 58.8209 30.7356H44.4927C44.1582 30.7356 43.8794 31.0143 43.8794 31.3488V52.5346C43.8794 52.8691 44.1582 53.1479 44.4927 53.1479H52.6882H54.4723V35.4745C54.4723 35.14 54.751 34.917 55.0298 34.917L59.2112 34.8612ZM51.6847 52.4231C51.3502 52.4231 51.0714 52.1443 51.0714 51.8098C51.0714 51.4753 51.3502 51.1965 51.6847 51.1965C52.0192 51.1965 52.2979 51.4753 52.2979 51.8098C52.2979 52.1443 52.0192 52.4231 51.6847 52.4231Z" fill="white"/>
</svg>
