<svg width="80" height="80" viewBox="0 0 80 80" fill="none" xmlns="http://www.w3.org/2000/svg">
<rect width="80" height="80" rx="40" fill="#33CBA0"/>
<path d="M37.2501 32.125L37.2501 30.5L58.375 30.5C58.806 30.5 59.2193 30.3288 59.5241 30.024C59.8288 29.7193 60 29.306 60 28.875C60 28.444 59.8288 28.0307 59.5241 27.726C59.2193 27.4212 58.806 27.25 58.375 27.25L37.2501 27.25L37.2501 25.625C37.2501 25.194 37.0789 24.7807 36.7742 24.476C36.4694 24.1712 36.0561 24 35.6251 24L29.1252 24C28.6942 24 28.2809 24.1712 27.9761 24.476C27.6714 24.7807 27.5002 25.194 27.5002 25.625L27.5002 27.25L22.6252 27.25C22.1942 27.25 21.7809 27.4212 21.4761 27.726C21.1714 28.0307 21.0002 28.444 21.0002 28.875C21.0002 29.306 21.1714 29.7193 21.4761 30.024C21.7809 30.3288 22.1942 30.5 22.6252 30.5L27.5002 30.5L27.5002 32.125C27.5002 32.556 27.6714 32.9693 27.9761 33.274C28.2809 33.5788 28.6942 33.75 29.1252 33.75L35.6251 33.75C36.0561 33.75 36.4694 33.5788 36.7742 33.274C37.0789 32.9693 37.2501 32.556 37.2501 32.125Z" fill="white"/>
<path d="M53.5 43.4999L53.5 41.8749L58.375 41.8749C58.806 41.8749 59.2193 41.7037 59.5241 41.399C59.8288 41.0942 60 40.6809 60 40.2499C60 39.819 59.8288 39.4056 59.5241 39.1009C59.2193 38.7961 58.806 38.6249 58.375 38.6249L53.5 38.6249L53.5 36.9999C53.5 36.569 53.3288 36.1556 53.0241 35.8509C52.7193 35.5462 52.306 35.375 51.875 35.375L45.3751 35.375C44.9441 35.375 44.5308 35.5462 44.226 35.8509C43.9213 36.1556 43.7501 36.569 43.7501 36.9999L43.7501 38.6249L22.6252 38.6249C22.1942 38.6249 21.7809 38.7961 21.4761 39.1009C21.1714 39.4056 21.0002 39.819 21.0002 40.2499C21.0002 40.6809 21.1714 41.0942 21.4761 41.399C21.7809 41.7037 22.1942 41.8749 22.6252 41.8749L43.7501 41.8749L43.7501 43.4999C43.7501 43.9309 43.9213 44.3442 44.226 44.649C44.5308 44.9537 44.9441 45.1249 45.3751 45.1249L51.875 45.1249C52.306 45.1249 52.7193 44.9537 53.0241 44.649C53.3288 44.3442 53.5 43.9309 53.5 43.4999Z" fill="white"/>
<path d="M43.7501 54.8749L43.7501 53.2499L58.375 53.2499C58.806 53.2499 59.2193 53.0787 59.5241 52.7739C59.8288 52.4692 60 52.0559 60 51.6249C60 51.1939 59.8288 50.7806 59.5241 50.4759C59.2193 50.1711 58.806 49.9999 58.375 49.9999L43.7501 49.9999L43.7501 48.3749C43.7501 47.9439 43.5789 47.5306 43.2741 47.2259C42.9694 46.9211 42.5561 46.7499 42.1251 46.7499L35.6251 46.7499C35.1941 46.7499 34.7808 46.9211 34.4761 47.2259C34.1713 47.5306 34.0001 47.9439 34.0001 48.3749L34.0001 49.9999L22.6252 49.9999C22.1942 49.9999 21.7809 50.1711 21.4761 50.4759C21.1714 50.7806 21.0002 51.1939 21.0002 51.6249C21.0002 52.0559 21.1714 52.4692 21.4761 52.7739C21.7809 53.0787 22.1942 53.2499 22.6252 53.2499L34.0001 53.2499L34.0001 54.8749C34.0001 55.3059 34.1713 55.7192 34.4761 56.0239C34.7808 56.3287 35.1941 56.4999 35.6251 56.4999L42.1251 56.4999C42.5561 56.4999 42.9694 56.3287 43.2741 56.0239C43.5789 55.7192 43.7501 55.3059 43.7501 54.8749Z" fill="white"/>
</svg>
