<svg width="80" height="80" viewBox="0 0 80 80" fill="none" xmlns="http://www.w3.org/2000/svg">
<rect width="80" height="80" rx="40" fill="#EDFEF5"/>
<path d="M47.6607 36.9865C52.0753 36.9865 55.654 33.4078 55.654 28.9932C55.654 24.5787 52.0753 21 47.6607 21C43.2462 21 39.6675 24.5787 39.6675 28.9932C39.6675 33.4078 43.2462 36.9865 47.6607 36.9865Z" fill="#33CBA0"/>
<path d="M33.7548 50.3352C32.6937 50.3352 31.6959 50.7485 30.9455 51.4989L29.9652 52.4792C29.4174 53.027 28.5259 53.027 27.9778 52.4792C27.43 51.9313 27.43 51.0399 27.9778 50.4919L29.0612 49.4083C30.0029 49.7444 31.0842 49.5995 31.9185 48.9486L44.551 39.0909C42.923 38.5917 41.4313 37.6992 40.1932 36.4609C38.9548 35.2226 38.0622 33.7309 37.563 32.1027L27.7051 44.7353C27.0541 45.5695 26.9093 46.651 27.2453 47.5927L26.1619 48.6762C24.6127 50.2254 24.6127 52.7459 26.1619 54.2952C27.7114 55.8443 30.2319 55.8443 31.7809 54.2952L32.7612 53.3149C33.3091 52.7671 34.2004 52.767 34.7485 53.3149C35.2963 53.8628 35.2963 54.7543 34.7485 55.3022L31.8666 58.184L33.6825 59.9999L36.5643 57.118C38.1135 55.5689 38.1135 53.0483 36.5643 51.4991C35.8139 50.7485 34.8161 50.3352 33.7548 50.3352Z" fill="#33CBA0"/>
</svg>
