<?xml version="1.0" standalone="no"?>
<!DOCTYPE svg PUBLIC "-//W3C//DTD SVG 1.1//EN" "http://www.w3.org/Graphics/SVG/1.1/DTD/svg11.dtd" >
<svg xmlns="http://www.w3.org/2000/svg" xmlns:xlink="http://www.w3.org/1999/xlink" version="1.1">
<metadata>
Created by FontForge 20170731 at Tue Mar 23 16:41:12 2021
 By Aleksey,,,
Copyright (c) 2011-2012 by Jovanny Lemonad. All rights reserved.
</metadata>
<defs>
<font id="YesevaOne" horiz-adv-x="1146" >
  <font-face 
    font-family="Yeseva One"
    font-weight="400"
    font-stretch="normal"
    units-per-em="2048"
    panose-1="2 0 5 3 9 0 0 2 0 3"
    ascent="1638"
    descent="-410"
    x-height="1024"
    cap-height="1434"
    bbox="-266 -635 2611 1925"
    underline-thickness="102"
    underline-position="-307"
    unicode-range="U+0020-2122"
  />
<missing-glyph horiz-adv-x="583" 
 />
    <glyph glyph-name=".notdef" horiz-adv-x="583" 
 />
    <glyph glyph-name=".null" horiz-adv-x="0" 
 />
    <glyph glyph-name="nonmarkingreturn" horiz-adv-x="682" 
 />
    <glyph glyph-name="space" unicode=" " horiz-adv-x="573" 
 />
    <glyph glyph-name="exclam" unicode="!" horiz-adv-x="634" 
d="M512 1229l-164 -789h-61l-164 789q0 104 57.5 169.5t136.5 65.5t137 -65.5t58 -169.5zM471 143q0 -68 -46 -115.5t-108 -47.5t-107.5 47.5t-45.5 115.5t45.5 116t107.5 48t108 -48t46 -116z" />
    <glyph glyph-name="quotedbl" unicode="&#x22;" horiz-adv-x="757" 
d="M215 1454q55 0 89 -37.5t34 -105.5l-82 -400h-82l-82 400q0 68 34 105.5t89 37.5zM543 1454q55 0 89 -37.5t34 -105.5l-82 -400h-82l-82 400q0 68 34 105.5t89 37.5z" />
    <glyph glyph-name="numbersign" unicode="#" horiz-adv-x="1331" 
d="M666 1434l-99 -379h369l98 379h123l-98 -379h231v-103h-258l-121 -471h277v-102h-303l-97 -379h-122l96 379h-369l-96 -379h-123l96 379h-229v102h256l121 471h-275v103h301l99 379h123zM541 952l-121 -471h368l121 471h-368z" />
    <glyph glyph-name="dollar" unicode="$" horiz-adv-x="1218" 
d="M655 1597v-137q46 -5 92 -20t78 -33t57 -35.5t38 -29.5l12 -11q18 32 46 60.5t47 40.5l19 12h52v-389h-82q-2 7 -6 19.5t-18.5 49t-32.5 69.5t-48.5 74t-65 70.5t-84 50.5t-104.5 23v-504q36 -23 94 -57t100.5 -59.5t95 -60.5t88.5 -71t68.5 -79.5t49 -97t16.5 -113.5
q0 -78 -32 -146.5t-94 -123t-161.5 -88.5t-224.5 -40v-135h-61v133q-64 1 -124.5 15t-101 33.5t-72 38.5t-46.5 32l-14 14q-18 -32 -46.5 -60t-47.5 -40l-19 -12h-51v389h82q2 -8 6 -20.5t20 -50t35.5 -71.5t53.5 -75.5t74 -71t97.5 -50t122.5 -20.5q16 0 31 3v524
q-23 14 -64.5 38t-68 39.5t-66 40.5t-66 45t-60 48.5t-55.5 54.5t-45 60t-36.5 68.5t-22 77t-8.5 87.5q0 153 127 254t365 104v133h61zM819 276q0 69 -43 124t-121 108v-473q76 25 120 88.5t44 152.5zM451 1188q0 -131 143 -238v455q-62 -19 -102.5 -77.5t-40.5 -139.5z" />
    <glyph glyph-name="percent" unicode="%" horiz-adv-x="1536" 
d="M1239 1434h113l-1055 -1434h-113zM1249 338q0 91 -10 156.5t-27 98.5t-35.5 47.5t-39.5 14.5t-39.5 -14.5t-36 -47.5t-27.5 -98.5t-10 -156.5t10 -156.5t27.5 -99t36 -48t39.5 -14.5t39.5 14.5t35.5 48t27 99t10 156.5zM1475 338q0 -160 -95 -259t-243 -99t-243 99
t-95 259t95 259t243 99t243 -99t95 -259zM512 1096q0 91 -10 156.5t-27.5 98.5t-36 47.5t-39.5 14.5t-39.5 -14.5t-35.5 -47.5t-27 -98.5t-10 -156.5t10 -156.5t27 -99t35.5 -48t39.5 -14.5t39.5 14.5t36 48t27.5 99t10 156.5zM737 1096q0 -160 -95 -259.5t-243 -99.5
t-243 99.5t-95 259.5t95 259t243 99t243 -99t95 -259z" />
    <glyph glyph-name="ampersand" unicode="&#x26;" horiz-adv-x="1413" 
d="M614 20q37 0 74 12.5t63.5 31t47 36.5t31.5 30l10 13l-369 523q-3 -3 -8.5 -9.5t-20 -33t-25 -61t-19.5 -97.5t-9 -137q0 -147 64 -227.5t161 -80.5zM1311 768l-164 -61q0 -73 -22 -152.5t-44 -122.5l-22 -43l231 -328l103 -30v-31h-287q-82 0 -143 27.5t-93 74.5
q-4 -5 -12 -14t-36 -32t-60 -40.5t-83 -32t-106 -14.5q-532 0 -532 359q0 63 22 117.5t57 92t77.5 68.5t85.5 49t78 30.5t57 16.5l22 5l-112 163q-103 151 -103 277q0 137 110.5 227t309.5 90q49 0 96.5 -13.5t80.5 -33t59 -39.5t39 -34l12 -13q18 32 46 60.5t47 40.5l19 12
h52v-389h-82q-2 7 -6 20t-18 50.5t-31 71t-45 75t-59.5 71t-76 50t-92.5 20.5q-64 0 -109 -51t-45 -133q0 -105 127 -277l365 -512q8 13 20 36t32 93t20 138l-164 61v31h379v-31z" />
    <glyph glyph-name="quotesingle" unicode="'" horiz-adv-x="430" 
d="M215 1454q55 0 89 -37.5t34 -105.5l-82 -400h-82l-82 400q0 68 34 105.5t89 37.5z" />
    <glyph glyph-name="parenleft" unicode="(" horiz-adv-x="727" 
d="M451 543q0 -322 62 -584t183 -420l-20 -31q-120 80 -220 182t-181.5 230.5t-127 288.5t-45.5 334t45.5 334t127 288t181.5 230t220 182l20 -31q-121 -158 -183 -419.5t-62 -583.5z" />
    <glyph glyph-name="parenright" unicode=")" horiz-adv-x="727" 
d="M276 543q0 322 -62 583.5t-183 419.5l20 31q120 -80 220 -182t181.5 -230t127 -288t45.5 -334t-45.5 -334t-127 -288.5t-181.5 -230.5t-220 -182l-20 31q121 158 183 420t62 584z" />
    <glyph glyph-name="asterisk" unicode="*" horiz-adv-x="798" 
d="M399 758q-38 0 -65 27t-27 65l62 205l-144 -154q-33 -21 -74.5 -12t-58.5 43t-5 69t46 54l205 51l-205 51q-34 19 -46 54t5 69t58.5 43t74.5 -12l144 -154l-62 205q0 38 27 65t65 27t65.5 -27t27.5 -65l-62 -205l143 154q33 21 75 12t59 -43t5 -69t-46 -54l-205 -51
l205 -51q34 -19 46 -54t-5 -69t-59 -43t-75 12l-143 154l62 -205q0 -38 -27.5 -65t-65.5 -27z" />
    <glyph glyph-name="plus" unicode="+" horiz-adv-x="1054" 
d="M573 195h-92v440h-409v92h409v440h92v-440h410v-92h-410v-440z" />
    <glyph glyph-name="comma" unicode="," horiz-adv-x="501" 
d="M164 -266l-21 51q7 2 18 6.5t41 22.5t54.5 41.5t48.5 64.5t33 90q-41 -30 -92 -30q-62 0 -108 46t-46 107t46 107.5t108 46.5q70 0 117 -51t47 -134t-25.5 -151.5t-61.5 -107t-72 -65t-61 -35.5z" />
    <glyph glyph-name="hyphen" unicode="-" horiz-adv-x="962" 
d="M72 707h819v-93h-819v93z" />
    <glyph glyph-name="period" unicode="." horiz-adv-x="491" 
d="M399 133q0 -61 -45.5 -107t-107.5 -46t-108 46t-46 107t46 107.5t108 46.5q61 0 107 -46t46 -108z" />
    <glyph glyph-name="slash" unicode="/" horiz-adv-x="716" 
d="M666 1536h92l-707 -1638h-92z" />
    <glyph glyph-name="zero" unicode="0" horiz-adv-x="1372" 
d="M686 -31q-124 0 -231.5 50t-188.5 143t-127.5 236t-46.5 319t46.5 319t127.5 235.5t188.5 142.5t231.5 50t231.5 -50t188.5 -142.5t127.5 -235.5t46.5 -319t-46.5 -319t-127.5 -236t-188.5 -143t-231.5 -50zM686 10q236 0 236 707q0 706 -236 706q-235 0 -235 -706
q0 -707 235 -707z" />
    <glyph glyph-name="one" unicode="1" horiz-adv-x="849" 
d="M625 1434v-1362l143 -41v-31h-625v31l144 41v1124l-215 -152l-41 52l372 338h222z" />
    <glyph glyph-name="two" unicode="2" horiz-adv-x="1177" 
d="M1063 1044q0 -79 -27 -146t-74 -116.5t-108 -92.5t-131.5 -79.5t-142.5 -71.5t-142.5 -73.5t-129.5 -80.5t-105.5 -98.5t-69.5 -121.5h758q6 46 20.5 88t31.5 69.5t33.5 48.5t27.5 30l10 10h61v-410h-1014v92q0 80 22.5 153.5t60 131.5t87 112.5t103.5 102.5t108 95
t103.5 96.5t87 100.5t60 113t22.5 129q0 134 -66.5 210.5t-169.5 76.5q-45 0 -86 -7.5t-59 -15.5l-19 -8v-327q-41 -11 -82 -11q-69 0 -111 42.5t-42 111.5q0 48 28 94t80 85t138.5 63t193.5 24q276 0 409.5 -110.5t133.5 -309.5z" />
    <glyph glyph-name="three" unicode="3" horiz-adv-x="1198" 
d="M492 -31q-107 0 -193.5 24t-139 63.5t-80.5 85.5t-28 94q0 69 42.5 111t111.5 42q18 0 38.5 -2.5t32.5 -4.5l11 -3v-328q62 -31 164 -31q141 0 219 88t78 261q0 178 -74.5 268t-202.5 90h-102v51h102q91 0 153 82.5t62 235.5q0 154 -63.5 235.5t-161.5 81.5
q-36 0 -72 -7.5t-54 -15.5l-18 -8v-327q-40 -11 -81 -11q-69 0 -111.5 42.5t-42.5 111.5q0 47 27.5 93.5t78.5 85.5t133 63t181 24q130 0 233.5 -30t167.5 -81t97.5 -117t33.5 -140q0 -67 -24.5 -122t-63 -89t-85.5 -59.5t-94 -38t-85.5 -19.5t-63.5 -8l-24 -2
q10 0 28.5 -1.5t70.5 -10t99.5 -22t105.5 -43.5t99.5 -69t70 -102.5t28.5 -140.5q0 -87 -34.5 -158t-105.5 -126t-189 -85.5t-275 -30.5z" />
    <glyph glyph-name="four" unicode="4" horiz-adv-x="1228" 
d="M963 72l143 -41v-31h-625v31l144 41v307h-584l-41 61l768 1014h195v-983h215v-92h-215v-307zM113 471h512v676z" />
    <glyph glyph-name="five" unicode="5" horiz-adv-x="1167" 
d="M471 20q123 0 194.5 100.5t71.5 319.5q0 215 -73.5 312.5t-212.5 97.5q-43 0 -88.5 -13.5t-79.5 -33t-62 -39.5t-43 -34l-14 -13l-41 31l82 686h604q6 46 20.5 88t31.5 69.5t33.5 48t27.5 30.5l10 9h61v-399h-743l-55 -471q5 4 14.5 10t40 22t63 28t81.5 22t98 10
q298 0 445.5 -123t147.5 -338q0 -221 -144 -346t-429 -125q-207 0 -323.5 82t-116.5 185q0 69 42 111t111 42q18 0 38.5 -2.5t32.5 -4.5l11 -3v-328q62 -31 164 -31z" />
    <glyph glyph-name="six" unicode="6" horiz-adv-x="1269" 
d="M655 10q29 0 58 22t56 67t43.5 128.5t16.5 192.5q0 110 -17 192.5t-44.5 128t-58.5 67t-64 21.5q-83 0 -133.5 -81.5t-50.5 -255.5q0 -136 17 -234.5t46 -150t61.5 -74.5t69.5 -23zM748 1413q-59 0 -102 -16t-81.5 -58.5t-62.5 -115t-37.5 -189t-13.5 -276.5
q3 5 8.5 13.5t27 29.5t46 37t66 29.5t87.5 13.5q226 0 359 -123t133 -318q0 -218 -136.5 -344.5t-386.5 -126.5q-125 0 -225 44t-174 133.5t-114 234t-40 336.5q0 368 160.5 557.5t444.5 189.5q180 0 289.5 -82.5t109.5 -183.5q0 -69 -42.5 -111.5t-111.5 -42.5
q-18 0 -38.5 3t-31.5 5l-12 3v327q-61 31 -122 31z" />
    <glyph glyph-name="seven" unicode="7" horiz-adv-x="1085" 
d="M61 1434h973v-93q0 -92 -28 -188.5t-70 -177t-91.5 -186t-91.5 -211.5t-70 -258t-28 -320h-358q0 142 30 268t81 221.5t113 180t130.5 159.5t129 143.5t113.5 148.5t79 159h-727q-6 -46 -20.5 -88t-31.5 -69.5t-33.5 -48.5t-26.5 -30l-11 -10h-62v400z" />
    <glyph glyph-name="eight" unicode="8" horiz-adv-x="1259" 
d="M1096 1137q0 -97 -83.5 -186.5t-193.5 -121.5q185 -80 282 -194t97 -277q0 -79 -36 -147.5t-106.5 -123.5t-186.5 -86.5t-265 -31.5q-257 0 -389.5 103t-132.5 266q0 113 98.5 217.5t239.5 151.5q-134 75 -205.5 167t-71.5 222q0 163 133 265.5t390 102.5
q191 0 310.5 -98.5t119.5 -228.5zM860 297q0 99 -98 199.5t-260 169.5q-114 -41 -180 -122.5t-66 -205.5q0 -131 95.5 -224.5t232.5 -93.5q130 0 203 73t73 204zM481 1157q0 -164 277 -287q77 34 125.5 100.5t48.5 166.5q0 113 -75.5 194.5t-170.5 81.5q-88 0 -146.5 -68.5
t-58.5 -187.5z" />
    <glyph glyph-name="nine" unicode="9" horiz-adv-x="1269" 
d="M614 1423q-29 0 -58 -21.5t-56 -66.5t-43.5 -128.5t-16.5 -192.5q0 -110 17 -193t45 -128t59 -67t64 -22q83 0 133.5 82t50.5 256q0 110 -11.5 195.5t-30.5 138t-45 87t-52.5 47.5t-55.5 13zM522 20q59 0 102 16t81.5 59t62.5 115.5t37.5 189t13.5 276.5
q-3 -5 -8.5 -13.5t-27 -29.5t-46 -37t-66 -29.5t-87.5 -13.5q-227 0 -359.5 122.5t-132.5 317.5q0 219 136 345t386 126q257 0 405 -185t148 -562q0 -368 -160 -558t-444 -190q-180 0 -289.5 83t-109.5 184q0 69 42 111t111 42q18 0 38.5 -2.5t32.5 -4.5l11 -3v-328
q62 -31 123 -31z" />
    <glyph glyph-name="colon" unicode=":" horiz-adv-x="491" 
d="M399 133q0 -61 -45.5 -107t-107.5 -46t-108 46t-46 107t46 107.5t108 46.5q61 0 107 -46t46 -108zM399 891q0 -62 -46 -108t-107 -46q-62 0 -108 46.5t-46 107.5t46 107t108 46t107.5 -46t45.5 -107z" />
    <glyph glyph-name="semicolon" unicode=";" horiz-adv-x="501" 
d="M164 -266l-21 51q7 2 18 6.5t41 22.5t54.5 41.5t48.5 64.5t33 90q-41 -30 -92 -30q-62 0 -108 46t-46 107t46 107.5t108 46.5q70 0 117 -51t47 -134t-25.5 -151.5t-61.5 -107t-72 -65t-61 -35.5zM399 891q0 -62 -46 -108t-107 -46q-62 0 -108 46.5t-46 107.5t46 107
t108 46t107.5 -46t45.5 -107z" />
    <glyph glyph-name="less" unicode="&#x3c;" horiz-adv-x="1034" 
d="M51 512l912 512v-113l-707 -399l707 -399v-113z" />
    <glyph glyph-name="equal" unicode="=" horiz-adv-x="942" 
d="M72 881h798v-93h-798v93zM72 573h798v-92h-798v92z" />
    <glyph glyph-name="greater" unicode="&#x3e;" horiz-adv-x="1034" 
d="M72 1024l911 -512l-911 -512v113l706 399l-706 399v113z" />
    <glyph glyph-name="question" unicode="?" 
d="M430 1413q-45 0 -86 -7.5t-60 -15.5l-18 -8v-327q-41 -11 -82 -11q-69 0 -111 42.5t-42 111.5q0 48 28 94t80 85t138.5 63t193.5 24q153 0 270.5 -32t189.5 -89.5t108 -133t36 -165.5q0 -173 -128.5 -288t-383.5 -152l-10 -164h-82l-10 195q83 33 136 78.5t86.5 128.5
t33.5 202q0 195 -71.5 282t-215.5 87zM655 143q0 -68 -45.5 -115.5t-107.5 -47.5t-108 47.5t-46 115.5t46 116t108 48t107.5 -48t45.5 -116z" />
    <glyph glyph-name="at" unicode="@" horiz-adv-x="1720" 
d="M707 532q0 -112 18.5 -183.5t44.5 -97.5t59 -26q32 0 57.5 30.5t35.5 61.5l10 31v625q-225 0 -225 -441zM154 594q0 -154 56 -291.5t151 -235t225 -154t274 -56.5q63 0 126 12.5t108.5 30.5t82 36.5t54.5 31.5l18 12l31 -52q-7 -5 -20 -14t-56.5 -32t-89.5 -40.5
t-115.5 -32t-138.5 -14.5q-159 0 -302.5 62t-248 168t-166 254.5t-61.5 314.5t61.5 314.5t166 254.5t248 168t302.5 62t302.5 -62t248 -168t166 -254.5t61.5 -314.5q0 -199 -100.5 -319.5t-237.5 -120.5q-63 0 -114.5 9t-84.5 23.5t-58.5 32t-38 34.5t-20 31.5t-9.5 23.5
l-2 9q-2 -7 -5.5 -18t-20.5 -39t-40 -49.5t-65 -39t-94 -17.5q-149 0 -243.5 102t-94.5 276q0 232 135.5 362t386.5 130h297v-666q0 -73 32 -113t80 -40q36 0 74.5 25.5t73 72t56.5 123.5t22 168q0 154 -56 291.5t-151 235t-225.5 154t-274.5 56.5t-274 -56.5t-225 -154
t-151 -235t-56 -291.5z" />
    <glyph glyph-name="A" unicode="A" horiz-adv-x="1392" 
d="M184 92l154 -61v-31h-379v31l164 61l563 1362h62l583 -1393l103 -30v-31h-246q-201 0 -275 174l-104 246h-490zM563 1010l-223 -539h448z" />
    <glyph glyph-name="B" unicode="B" horiz-adv-x="1392" 
d="M225 1372l-123 31v31h553q160 0 279.5 -28t189 -78.5t103 -113.5t33.5 -139q0 -51 -16.5 -94.5t-44.5 -73.5t-64 -55t-76 -40t-80 -26t-76 -16t-64 -8t-45 -4h-16q12 0 31.5 -1t77 -8t110 -19.5t116 -40.5t109.5 -65.5t77.5 -98.5t31.5 -136q0 -389 -635 -389h-594v31
l123 30v1311zM696 727h-133v-676h133q126 0 206.5 90.5t80.5 247.5t-80.5 247.5t-206.5 90.5zM563 1382v-604h92q103 0 179.5 85t76.5 212q0 134 -76.5 220.5t-179.5 86.5h-92z" />
    <glyph glyph-name="C" unicode="C" horiz-adv-x="1331" 
d="M739 1464q54 0 107.5 -13.5t91 -33t67.5 -39.5t45 -34l15 -13q18 32 46.5 60.5t47.5 40.5l19 12h51v-389h-82q-2 7 -6 20t-19 50.5t-33.5 71t-49.5 75t-67 71t-87 50t-107 20.5q-52 0 -97.5 -21t-88.5 -71.5t-73.5 -128t-49 -199.5t-18.5 -276q0 -697 378 -697
q147 0 263 118.5t116 271.5h52q0 -179 -137.5 -310t-334.5 -131q-326 0 -511 195.5t-185 552.5q0 353 177.5 550t469.5 197z" />
    <glyph glyph-name="D" unicode="D" horiz-adv-x="1464" 
d="M102 1434h523q366 0 561.5 -188t195.5 -529t-195.5 -529t-561.5 -188h-523v31l123 30v1311l-123 31v31zM625 1382h-62v-1331h62q92 0 162.5 34t125 110t83 207t28.5 315t-28.5 315t-83 206.5t-125 109.5t-162.5 34z" />
    <glyph glyph-name="E" unicode="E" horiz-adv-x="1320" 
d="M563 737h236q9 50 32 101.5t41 77.5l19 26h61v-461h-61q-8 10 -20.5 28.5t-37.5 72.5t-34 104h-236v-635h481q0 60 14 115t33.5 90.5t39 62t33.5 38.5l14 12h61v-369h-1137v31l123 30v1311l-123 31v31h1096v-369h-61q-5 4 -14 12t-32 37.5t-40.5 63t-32 89t-14.5 115.5
h-441v-645z" />
    <glyph glyph-name="F" unicode="F" horiz-adv-x="1249" 
d="M563 737h236q9 50 32 101.5t41 77.5l19 26h61v-461h-61q-8 10 -20.5 28.5t-37.5 72.5t-34 104h-236v-625l123 -30v-31h-584v31l123 30v1311l-123 31v31h1096v-369h-61q-5 4 -14 12t-32 37.5t-40.5 63t-32 89t-14.5 115.5h-441v-645z" />
    <glyph glyph-name="G" unicode="G" horiz-adv-x="1433" 
d="M748 41q34 0 66 17t52.5 41t36 48t22.5 41l7 17v471l-123 31v30h584v-30l-123 -31v-686h-31q-66 0 -119 17t-81 41t-46.5 48t-24.5 41l-5 17q-3 -8 -10 -20t-32.5 -44t-56.5 -56.5t-84.5 -44.5t-113.5 -20q-116 0 -219.5 50t-182.5 142.5t-125.5 236.5t-46.5 319
q0 353 177.5 550t469.5 197q54 0 107.5 -13.5t91 -33t67.5 -39.5t45 -34l15 -13q18 32 46.5 60.5t47.5 40.5l19 12h51v-389h-82q-2 7 -6 20t-19 50.5t-33.5 71t-49.5 75t-67 71t-87 50t-107 20.5q-52 0 -97.5 -21t-88.5 -71.5t-73.5 -128t-49 -199.5t-18.5 -276
q0 -155 16.5 -274.5t43.5 -194t66 -122.5t80.5 -66.5t90.5 -18.5z" />
    <glyph glyph-name="H" unicode="H" horiz-adv-x="1566" 
d="M225 1372l-123 31v31h584v-31l-123 -31v-635h441v635l-123 31v31h583v-31l-123 -31v-1311l123 -30v-31h-583v31l123 30v625h-441v-625l123 -30v-31h-584v31l123 30v1311z" />
    <glyph glyph-name="I" unicode="I" horiz-adv-x="788" 
d="M225 1372l-123 31v31h584v-31l-123 -31v-1311l123 -30v-31h-584v31l123 30v1311z" />
    <glyph glyph-name="J" unicode="J" horiz-adv-x="1126" 
d="M338 10q246 0 246 400v962l-123 31v31h583v-31l-122 -31v-962q0 -213 -133 -327t-410 -114q-187 0 -283 66t-96 160q0 69 42.5 111t111.5 42q18 0 38.5 -2.5t31.5 -5.5l12 -2v-307q41 -21 102 -21z" />
    <glyph glyph-name="K" unicode="K" horiz-adv-x="1413" 
d="M1331 61l103 -30v-31h-287q-162 0 -277 174l-307 471v-584l123 -30v-31h-584v31l123 30v1311l-123 31v31h584v-31l-123 -31v-643l502 612l-154 62v31h389v-31l-163 -62l-359 -440z" />
    <glyph glyph-name="L" unicode="L" horiz-adv-x="1249" 
d="M102 1434h584v-31l-123 -31v-1321h441q0 60 13.5 115t33 90.5t39.5 62t34 38.5l13 12h61v-369h-1096v31l123 30v1311l-123 31v31z" />
    <glyph glyph-name="M" unicode="M" horiz-adv-x="2017" 
d="M1700 1434h215v-31l-123 -31v-1311l123 -30v-31h-584v31l123 30v1117l-481 -1198h-62l-624 1198v-1086l164 -61v-31h-390v31l164 61v1280l-123 31v31h256q108 0 170.5 -44.5t106.5 -129.5l446 -854l342 854q24 61 53.5 96.5t84 56.5t139.5 21z" />
    <glyph glyph-name="N" unicode="N" horiz-adv-x="1515" 
d="M1239 522v819l-164 62v31h389v-31l-164 -62v-1372h-61l-952 1116v-993l164 -61v-31h-390v31l164 61v1270l-143 41v31h215q58 0 105 -12.5t82.5 -38t54.5 -44t45 -49.5z" />
    <glyph glyph-name="O" unicode="O" horiz-adv-x="1515" 
d="M1065 717q0 157 -18.5 281.5t-48.5 202.5t-70.5 129.5t-82.5 72t-87 20.5t-87 -20.5t-82.5 -72t-70.5 -129.5t-48.5 -202.5t-18.5 -281.5t18.5 -281.5t48.5 -202.5t70.5 -129.5t82.5 -72.5t87 -21t87 21t82.5 72.5t70.5 129.5t48.5 202.5t18.5 281.5zM1423 717
q0 -355 -180 -551.5t-485 -196.5t-485.5 196.5t-180.5 551.5t180.5 551t485.5 196t485 -196t180 -551z" />
    <glyph glyph-name="P" unicode="P" horiz-adv-x="1382" 
d="M563 604h113q129 0 208 98.5t79 290.5t-79 290.5t-208 98.5h-113v-778zM676 553h-113v-492l123 -30v-31h-584v31l123 30v1311l-123 31v31h574q174 0 297.5 -29.5t197 -88t107 -137.5t33.5 -186t-33.5 -186t-107 -137t-197 -87.5t-297.5 -29.5z" />
    <glyph glyph-name="Q" unicode="Q" horiz-adv-x="1515" 
d="M1423 717q0 -303 -133.5 -491t-367.5 -236q0 -277 102 -277q18 0 33.5 5.5t21.5 10.5l6 5l21 -51q-41 -31 -143 -31q-167 0 -268 95t-101 243q-234 47 -368 235.5t-134 491.5q0 355 180.5 551t485.5 196t485 -196t180 -551zM1065 717q0 157 -18.5 281.5t-48.5 202.5
t-70.5 129.5t-82.5 72t-87 20.5t-87 -20.5t-82.5 -72t-70.5 -129.5t-48.5 -202.5t-18.5 -281.5t18.5 -281.5t48.5 -202.5t70.5 -129.5t82.5 -72.5t87 -21t87 21t82.5 72.5t70.5 129.5t48.5 202.5t18.5 281.5z" />
    <glyph glyph-name="R" unicode="R" horiz-adv-x="1433" 
d="M901 174l-205 461h-133v-574l144 -30v-31h-605v31l123 30v1311l-123 31v31h543q145 0 257 -19t186.5 -53.5t122.5 -85t68.5 -110t20.5 -132.5q0 -77 -27 -140t-70.5 -101.5t-96 -66.5t-104.5 -41t-95.5 -20.5t-70.5 -8.5l-27 -1q10 0 28 -1t66.5 -11t90 -27.5t86 -55
t67.5 -89.5l184 -410l103 -30v-31h-287q-169 0 -246 174zM563 686h82q141 0 224 91t83 257t-83 257t-224 91h-82v-696z" />
    <glyph glyph-name="S" unicode="S" horiz-adv-x="1218" 
d="M563 20q115 0 185.5 70t70.5 186q0 50 -25 95t-67 81t-96.5 70.5t-114.5 68.5t-120.5 70.5t-115 81.5t-96.5 96t-67 119.5t-25 147.5q0 155 130 256.5t372 101.5q55 0 108.5 -13.5t91.5 -33t68 -39.5t45 -34l15 -13q18 32 46 60.5t47 40.5l19 12h51v-389h-81q-2 7 -6 20
t-19 50.5t-33.5 71t-49.5 75t-67 71t-87 50t-107 20.5q-79 0 -137 -64t-58 -161q0 -56 25 -105t67 -87t96.5 -74t115 -70.5t120.5 -70t114.5 -77.5t96.5 -89.5t67 -110.5t25 -135q0 -171 -146 -285.5t-417 -114.5q-66 0 -128.5 13.5t-104 33t-73.5 39.5t-47 33l-15 14
q-18 -32 -46.5 -60t-47.5 -40l-19 -12h-51v389h82q2 -8 6 -20.5t20 -50t35.5 -71.5t53.5 -75.5t74 -71t97.5 -50t122.5 -20.5z" />
    <glyph glyph-name="T" unicode="T" horiz-adv-x="1300" 
d="M942 0h-584v31l123 30v1321h-235q0 -60 -13.5 -115t-33 -90t-39.5 -61.5t-34 -38.5l-13 -12h-62v369h1198v-369h-61q-5 4 -14 12t-32 37.5t-40.5 63t-32 89t-14.5 115.5h-236v-1321l123 -30v-31z" />
    <glyph glyph-name="U" unicode="U" horiz-adv-x="1454" 
d="M1219 512v829l-164 62v31h389v-31l-164 -62v-829q0 -248 -133.5 -395.5t-337.5 -147.5q-302 0 -458 142.5t-156 400.5v860l-123 31v31h583v-31l-123 -31v-860q0 -265 81.5 -378.5t236.5 -113.5q69 0 135 34.5t118.5 96t84 156t31.5 205.5z" />
    <glyph glyph-name="V" unicode="V" horiz-adv-x="1361" 
d="M844 434l334 907l-154 62v31h379v-31l-164 -62l-502 -1361h-61l-615 1392l-102 31v31h246q198 0 276 -174z" />
    <glyph glyph-name="W" unicode="W" horiz-adv-x="2017" 
d="M625 -20l-553 1402l-113 21v31h246q108 0 177.5 -49t98.5 -125l310 -789l180 528l-152 383l-112 21v31h245q108 0 177 -49t100 -125l309 -789l295 870l-154 62v31h379v-31l-164 -62l-460 -1361h-62l-368 935l-318 -935h-61z" />
    <glyph glyph-name="X" unicode="X" horiz-adv-x="1361" 
d="M195 92l348 514l-451 766l-102 31v31h297q100 0 162.5 -44t113.5 -130l197 -336l284 417l-153 62v31h389v-31l-164 -62l-321 -473l475 -807l102 -30v-31h-297q-100 0 -162.5 44t-113.5 130l-221 375l-312 -457l154 -61v-31h-389v31z" />
    <glyph glyph-name="Y" unicode="Y" horiz-adv-x="1361" 
d="M522 532l-420 840l-102 31v31h256q108 0 171 -44.5t105 -129.5l304 -605l311 686l-154 62v31h389v-31l-163 -62l-359 -788v-492l123 -30v-31h-584v31l123 30v471z" />
    <glyph glyph-name="Z" unicode="Z" horiz-adv-x="1300" 
d="M461 51h553q0 60 13.5 115t33 90.5t39.5 62t34 38.5l13 12h61v-369h-1126v51l760 1331h-535q0 -60 -13.5 -115t-33.5 -90t-39.5 -61.5t-32.5 -38.5l-14 -12h-61v369h1106v-52z" />
    <glyph glyph-name="bracketleft" unicode="[" horiz-adv-x="716" 
d="M174 1475h522v-52h-194v-1822h194v-52h-522v1926z" />
    <glyph glyph-name="backslash" unicode="\" horiz-adv-x="716" 
d="M-41 1536h92l707 -1638h-92z" />
    <glyph glyph-name="bracketright" unicode="]" horiz-adv-x="716" 
d="M20 1475h523v-1926h-523v52h195v1822h-195v52z" />
    <glyph glyph-name="asciicircum" unicode="^" horiz-adv-x="983" 
d="M61 881l431 594l430 -594h-123l-307 419l-308 -419h-123z" />
    <glyph glyph-name="underscore" unicode="_" horiz-adv-x="798" 
d="M0 -113h799v-92h-799v92z" />
    <glyph glyph-name="grave" unicode="`" horiz-adv-x="450" 
d="M41 1434h266l82 -308h-72z" />
    <glyph glyph-name="a" unicode="a" horiz-adv-x="1239" 
d="M481 481q-41 -92 -41 -215q0 -114 36 -169.5t87 -55.5q34 0 66 17t52.5 41t36.5 48t23 41l7 17v297q-55 0 -121.5 -5t-106.5 -11zM563 1055q241 0 376.5 -122t135.5 -319v-553l123 -30v-31h-184q-55 0 -99 16t-68.5 38.5t-41 45t-21.5 38.5l-6 16q-3 -8 -10 -20
t-32.5 -44t-56.5 -56.5t-84.5 -44.5t-113.5 -20q-184 0 -281.5 77.5t-97.5 199.5q0 55 18 111t36 85l18 29q33 8 90.5 20.5t209 35t274.5 26.5v61q0 117 -14.5 196t-45 123t-70.5 62.5t-96 18.5q-27 0 -52.5 -5t-37.5 -11l-12 -5v-307q-41 -10 -82 -10q-69 0 -111.5 42
t-42.5 111q0 94 96 160t283 66z" />
    <glyph glyph-name="b" unicode="b" horiz-adv-x="1259" 
d="M492 911v-706q2 -7 7 -18t22.5 -39t37 -50t51.5 -39.5t66 -17.5q153 0 153 471q0 144 -14 242.5t-40.5 148.5t-57 70t-72.5 20q-36 0 -74.5 -20.5t-58.5 -40.5zM41 1434h266q185 0 185 -185v-276q4 3 11 8.5t30.5 20t49 25t65 19.5t79.5 9q205 0 328 -140.5t123 -402.5
q0 -259 -117.5 -401t-302.5 -142q-60 0 -113 19t-85 46t-56 54.5t-34 46.5l-9 19q-2 -7 -6 -18t-24 -39t-47.5 -50t-80.5 -39.5t-119 -17.5h-20v1382l-123 31v31z" />
    <glyph glyph-name="c" unicode="c" horiz-adv-x="1085" 
d="M676 1014q-57 0 -99.5 -23t-76.5 -77.5t-52 -155.5t-18 -246q0 -142 18 -240.5t52 -152t76.5 -76.5t99.5 -23q120 0 208.5 82.5t88.5 184.5h51q0 -128 -109 -223t-280 -95q-260 0 -406.5 144.5t-146.5 398.5t146.5 398.5t406.5 144.5q187 0 283 -66t96 -160
q0 -69 -42.5 -111t-111.5 -42q-18 0 -38.5 2.5t-31.5 5.5l-12 2v307q-41 21 -102 21z" />
    <glyph glyph-name="d" unicode="d" horiz-adv-x="1269" 
d="M768 205v706l-8.5 8.5t-22 20t-34 25t-42 19.5t-47.5 9q-42 0 -72.5 -20t-57 -70t-40.5 -148.5t-14 -242.5q0 -471 154 -471q34 0 66 17t52.5 41t36 48t22.5 41zM645 1434h266q185 0 185 -185v-1188l123 -30v-31h-185q-55 0 -99 16t-68.5 38.5t-40.5 45t-22 38.5l-5 16
q-3 -8 -10 -20t-32.5 -44t-56.5 -56.5t-84.5 -44.5t-113.5 -20q-185 0 -302.5 142t-117.5 401q0 262 122.5 402.5t327.5 140.5q40 0 79 -8.5t66 -20.5t48.5 -24t32.5 -20l10 -9v399l-123 31v31z" />
    <glyph glyph-name="e" unicode="e" 
d="M430 512q82 0 153.5 5t102.5 10l31 5q20 72 20 154q0 170 -45 249t-108 79q-154 0 -154 -502zM635 -31q-260 0 -406.5 144.5t-146.5 398.5q0 251 138 397t364 146q224 0 357.5 -118t133.5 -292q0 -32 -5 -63t-10 -46l-5 -14q-33 -7 -91.5 -17t-223 -27t-310.5 -17
q0 -123 18 -211t52 -137t77 -71t99 -22q120 0 208.5 82.5t88.5 184.5h51q0 -128 -109 -223t-280 -95z" />
    <glyph glyph-name="f" unicode="f" horiz-adv-x="870" 
d="M195 932h-144v51h144v102q0 165 117 272t313 107q160 0 249 -66.5t89 -158.5q0 -69 -42.5 -111.5t-111.5 -42.5q-18 0 -38.5 2.5t-32.5 5.5l-11 3v317q-30 10 -61 10q-33 0 -57.5 -14.5t-45 -50.5t-31 -104.5t-10.5 -168.5v-102h328v-51h-328v-871l123 -30v-31h-573v31
l123 30v871z" />
    <glyph glyph-name="g" unicode="g" horiz-adv-x="1239" 
d="M573 1034q97 0 179 -19.5t129 -51.5q2 5 6.5 13t21 29t36.5 37.5t55 29.5t75 13q70 0 117 -49t47 -125q0 -60 -33 -96.5t-80 -36.5q-18 0 -36 2.5t-26 5.5l-9 2v246q-41 0 -74 -25.5t-46 -50.5l-13 -26q102 -86 102 -236q0 -153 -114.5 -245.5t-336.5 -92.5
q-145 0 -266 52q-3 -1 -8.5 -3.5t-20 -10t-25 -15.5t-19.5 -20t-9 -23q0 -34 35.5 -53t128.5 -19h389q154 0 241 -88.5t87 -249.5q0 -164 -136 -266t-407 -102q-112 0 -202 13.5t-147 36t-94.5 52.5t-53 60.5t-15.5 62.5q0 69 42.5 111.5t111.5 42.5q22 0 42.5 -2.5
t30.5 -5.5l9 -3v-286q123 -41 256 -41q129 0 225.5 20.5t150.5 56t79.5 77.5t25.5 91q0 60 -58.5 97t-187.5 37h-389q-154 0 -235.5 63.5t-81.5 161.5q0 46 20 86t48.5 64.5t57 42t48.5 24.5l20 8q-143 86 -143 266q0 153 114 245.5t336 92.5zM573 399q44 0 74.5 24t50 92
t19.5 181t-19.5 181t-50 92t-74.5 24t-74 -24t-49.5 -92t-19.5 -181t19.5 -181t49.5 -92t74 -24z" />
    <glyph glyph-name="h" unicode="h" horiz-adv-x="1361" 
d="M870 184v533q0 128 -46.5 197t-106.5 69q-34 0 -66 -17t-52.5 -41t-36.5 -48t-23 -41l-7 -17v-758l123 -30v-31h-573v31l123 30v1311l-123 31v31h266q184 0 184 -185v-327q3 5 10 14t31 32t52.5 40.5t75 32t98.5 14.5q172 0 285.5 -101.5t113.5 -236.5v-656l123 -30v-31
h-266q-185 0 -185 184z" />
    <glyph glyph-name="i" unicode="i" horiz-adv-x="696" 
d="M195 1280q0 69 52.5 121.5t121.5 52.5t121.5 -52.5t52.5 -121.5t-52.5 -121.5t-121.5 -52.5t-121.5 52.5t-52.5 121.5zM82 1024h266q184 0 184 -184v-779l123 -30v-31h-573v31l123 30v902l-123 30v31z" />
    <glyph glyph-name="j" unicode="j" horiz-adv-x="675" 
d="M184 1280q0 69 52.5 121.5t121.5 52.5t121.5 -52.5t52.5 -121.5t-52.5 -121.5t-121.5 -52.5t-121.5 52.5t-52.5 121.5zM10 -102v-287q21 -10 41 -10q63 0 103.5 77.5t40.5 260.5v1024l-123 30v31h266q184 0 184 -184v-901q0 -166 -120 -272.5t-330 -106.5
q-154 0 -225.5 52t-71.5 142q0 69 42 111.5t111 42.5q18 0 38.5 -2.5t31.5 -5.5z" />
    <glyph glyph-name="k" unicode="k" horiz-adv-x="1228" 
d="M82 1434h266q184 0 184 -185v-717l379 400l-153 61v31h389v-31l-164 -61l-235 -246l399 -625l102 -30v-31h-266q-99 0 -161 44t-115 130l-175 277v-390l123 -30v-31h-573v31l123 30v1311l-123 31v31z" />
    <glyph glyph-name="l" unicode="l" horiz-adv-x="696" 
d="M82 1434h266q184 0 184 -185v-1188l123 -30v-31h-573v31l123 30v1311l-123 31v31z" />
    <glyph glyph-name="m" unicode="m" horiz-adv-x="1945" 
d="M1454 184v533q0 134 -40 200t-93 66q-45 0 -86 -41t-59 -82l-19 -41v-758l123 -30v-31h-573v31l122 30v656q0 134 -40 200t-93 66q-45 0 -86 -41t-60 -82l-18 -41v-758l123 -30v-31h-573v31l123 30v902l-123 30v31h184q55 0 99 -16t68.5 -38.5t41 -45t21.5 -38.5l6 -16
q3 8 10 20t31.5 44t53.5 56.5t77.5 44.5t103.5 20q119 0 209.5 -53.5t138.5 -141.5q3 8 10 21t31.5 46.5t53.5 59.5t78 47t104 21q166 0 272.5 -98.5t106.5 -239.5v-656l123 -30v-31h-267q-184 0 -184 184z" />
    <glyph glyph-name="n" unicode="n" horiz-adv-x="1361" 
d="M870 184v533q0 128 -46.5 197t-106.5 69q-34 0 -66 -17t-52.5 -41t-36.5 -48t-23 -41l-7 -17v-758l123 -30v-31h-573v31l123 30v902l-123 30v31h184q55 0 99 -16t68.5 -38.5t41 -45t21.5 -38.5l6 -16q3 8 10 20t32.5 44t56.5 56.5t84.5 44.5t113.5 20q172 0 285.5 -101.5
t113.5 -236.5v-656l123 -30v-31h-266q-185 0 -185 184z" />
    <glyph glyph-name="o" unicode="o" horiz-adv-x="1249" 
d="M625 10q38 0 70 23.5t61 77t46 156t17 245.5t-17 245.5t-46 156t-61 77t-70 23.5t-70 -23.5t-61.5 -77t-46.5 -156t-17 -245.5t17 -245.5t46.5 -156t61.5 -77t70 -23.5zM625 1055q253 0 397.5 -144.5t144.5 -398.5t-144.5 -398.5t-397.5 -144.5t-398 144.5t-145 398.5
t145 398.5t398 144.5z" />
    <glyph glyph-name="p" unicode="p" horiz-adv-x="1280" 
d="M512 819v-706l8.5 -8.5t22 -20t34 -25t42 -19.5t47.5 -9q42 0 72.5 20t57 70t40.5 148.5t14 242.5q0 471 -154 471q-34 0 -66 -17t-52.5 -41t-36 -48t-22.5 -41zM184 -348v1311l-123 30v31h185q55 0 99 -16t68.5 -38.5t40.5 -45t22 -38.5l5 -16q3 8 10 20t32.5 44
t56.5 56.5t84.5 44.5t113.5 20q185 0 302.5 -142t117.5 -401q0 -262 -122.5 -402.5t-327.5 -140.5q-40 0 -79 8.5t-66 20.5t-48.5 24t-32.5 20l-10 9v-399l123 -31v-31h-574v31z" />
    <glyph glyph-name="q" unicode="q" horiz-adv-x="1259" 
d="M768 113v706q-2 7 -7 18t-22.5 39t-37 50t-51.5 39.5t-66 17.5q-154 0 -154 -471q0 -144 14 -242.5t40.5 -148.5t57 -70t72.5 -20q36 0 74.5 20.5t59.5 40.5zM768 -348v399q-4 -3 -11 -8.5t-31 -20t-49.5 -25t-65 -19.5t-79.5 -9q-205 0 -327.5 140.5t-122.5 402.5
q0 259 117.5 401t302.5 142q60 0 113 -19t85 -46.5t56 -54.5t34 -46l9 -19q2 7 6 18t23.5 39t47 50t80.5 39.5t119 17.5h21v-1382l123 -31v-31h-574v31z" />
    <glyph glyph-name="r" unicode="r" horiz-adv-x="1034" 
d="M788 696v287q-46 0 -89 -17t-72 -41t-51.5 -48t-33.5 -41l-10 -17v-758l123 -30v-31h-573v31l123 30v902l-123 30v31h184q55 0 99 -16t68.5 -38.5t41 -45t21.5 -38.5l6 -16q4 7 12 18t36.5 39t61 50t85.5 39.5t110 17.5q107 0 162 -50.5t55 -143.5q0 -69 -42.5 -111.5
t-111.5 -42.5q-18 0 -38.5 2.5t-31.5 5.5z" />
    <glyph glyph-name="s" unicode="s" horiz-adv-x="1105" 
d="M563 -31q-55 0 -106.5 11.5t-86.5 28t-62 33.5t-40 28l-12 12q-18 -27 -46.5 -50t-47.5 -32l-19 -10h-51v348h82q2 -7 6 -18.5t18.5 -44.5t32 -63t47 -66.5t63.5 -63t81.5 -44.5t99.5 -18q84 0 129 43.5t45 120.5q0 45 -33 85t-85 71t-115.5 62t-127 67.5t-115.5 77.5
t-85 100.5t-33 130.5q0 124 106 200.5t324 76.5q73 0 142.5 -28.5t103.5 -56.5l33 -28q18 27 46.5 50t47.5 32l19 10h51v-348h-82q-2 7 -6 18.5t-18 44.5t-31 63t-44.5 66.5t-58.5 63t-73.5 44.5t-88.5 18q-55 0 -94 -41.5t-39 -102.5q0 -50 33 -93t85 -75.5t115.5 -64.5
t127 -67.5t115.5 -75t85 -95.5t33 -123q0 -297 -471 -297z" />
    <glyph glyph-name="t" unicode="t" horiz-adv-x="921" 
d="M174 1024v102q0 185 184 185h144v-287h286v-51h-286v-625q0 -128 20 -202.5t51.5 -100t81.5 -25.5q74 0 129.5 71.5t55.5 195.5h51q0 -151 -75.5 -234.5t-201.5 -83.5q-202 0 -321 107t-119 272v625h-143v51h143z" />
    <glyph glyph-name="u" unicode="u" horiz-adv-x="1331" 
d="M51 1024h266q185 0 185 -184v-533q0 -128 46.5 -197t106.5 -69q34 0 66 17t52.5 41t36.5 48t23 41l7 17v758l-123 30v31h573v-31l-123 -30v-973h-20q-66 0 -119 17t-81 41t-47 48t-24 41l-6 17q-3 -8 -10 -20t-32.5 -44t-56.5 -56.5t-84.5 -44.5t-113.5 -20
q-172 0 -285.5 101.5t-113.5 236.5v656l-123 30v31z" />
    <glyph glyph-name="v" unicode="v" 
d="M735 377l228 555l-154 61v31h379v-31l-164 -61l-389 -952h-62l-512 983l-102 30v31h256q108 0 170.5 -44.5t106.5 -129.5z" />
    <glyph glyph-name="w" unicode="w" horiz-adv-x="1710" 
d="M532 -20l-471 983l-102 30v31h236q108 0 172 -45t104 -129l225 -471l117 299l-137 285l-103 30v31h236q108 0 172 -45t104 -129l226 -471l215 553l-154 61v31h379v-31l-164 -61l-379 -952h-61l-303 630l-250 -630h-62z" />
    <glyph glyph-name="x" unicode="x" horiz-adv-x="1136" 
d="M184 92l254 326l-346 545l-102 30v31h276q52 0 93.5 -12t74.5 -37.5t57.5 -54t51.5 -70.5l104 -166l193 248l-154 61v31h389v-31l-164 -61l-233 -297l366 -574l103 -30v-31h-277q-99 0 -159 43t-117 131l-123 193l-215 -275l154 -61v-31h-390v31z" />
    <glyph glyph-name="y" unicode="y" 
d="M748 377l215 555l-154 61v31h379v-31l-164 -61l-410 -1055q-65 -166 -139 -241.5t-168 -75.5q-92 0 -143 49.5t-51 134.5q0 76 41.5 120t111.5 44q18 0 38.5 -2.5t31.5 -5.5l12 -2v-277q56 8 103.5 65t101.5 191l41 103l-533 983l-102 30v31h256q107 0 169 -44t108 -130z
" />
    <glyph glyph-name="z" unicode="z" horiz-adv-x="1116" 
d="M666 973h-369q0 -55 -13.5 -106.5t-33 -86.5t-39.5 -62t-33 -40l-14 -12h-62v358h932v-51l-583 -922h389q0 55 13.5 106.5t33 86.5t39.5 62t34 40l13 12h61v-358h-952v51z" />
    <glyph glyph-name="braceleft" unicode="{" horiz-adv-x="757" 
d="M61 481v62q72 0 113 50.5t41 154.5v419q0 129 107 218.5t292 89.5h123v-52h-20q-79 0 -126.5 -55.5t-47.5 -159.5v-379q0 -63 -18 -114t-47 -83t-64 -56.5t-70 -36t-64 -18.5t-47 -8l-18 -1q7 0 18.5 -1t46 -8t65.5 -18.5t68.5 -36t65 -56.5t46 -83t18.5 -114v-379
q0 -104 47.5 -159.5t126.5 -55.5h20v-52h-123q-185 0 -292 89.5t-107 218.5v419q0 104 -41 154.5t-113 50.5z" />
    <glyph glyph-name="bar" unicode="|" horiz-adv-x="460" 
d="M174 1434h113v-1844h-113v1844z" />
    <glyph glyph-name="braceright" unicode="}" horiz-adv-x="757" 
d="M696 543v-62q-72 0 -112.5 -50.5t-40.5 -154.5v-419q0 -129 -107.5 -218.5t-292.5 -89.5h-123v52h21q79 0 126.5 55.5t47.5 159.5v379q0 63 18 114t47 83t64 56.5t70 36t64 18.5t47 8l18 1q-7 0 -18.5 1t-46 8t-65.5 18.5t-68.5 36t-65 56.5t-46 83t-18.5 114v379
q0 104 -47.5 159.5t-126.5 55.5h-21v52h123q185 0 292.5 -89.5t107.5 -218.5v-419q0 -104 40.5 -154.5t112.5 -50.5z" />
    <glyph glyph-name="asciitilde" unicode="~" horiz-adv-x="1054" 
d="M778 707q68 0 116 45.5t48 107.5h51q0 -193 -73 -286t-203 -93q-54 0 -103 16t-87.5 38.5t-75.5 45t-82 38.5t-93 16q-68 0 -115.5 -46t-47.5 -108h-52q0 192 74 285.5t203 93.5q65 0 127.5 -24t104 -52.5t98 -52.5t110.5 -24z" />
    <glyph glyph-name="nbspace" unicode="&#xa0;" horiz-adv-x="0" 
 />
    <glyph glyph-name="exclamdown" unicode="&#xa1;" horiz-adv-x="634" 
d="M348 584l164 -789q0 -104 -58 -169.5t-137 -65.5t-136.5 65.5t-57.5 169.5l164 789h61zM471 881q0 -68 -46 -116t-108 -48t-107.5 48t-45.5 116t45.5 115.5t107.5 47.5t108 -47.5t46 -115.5z" />
    <glyph glyph-name="cent" unicode="&#xa2;" horiz-adv-x="1085" 
d="M614 1188h62v-135q166 -7 252 -72t86 -152q0 -69 -42.5 -111t-111.5 -42q-18 0 -38.5 2.5t-31.5 5.5l-12 2v307q-41 21 -102 21v-994q120 0 208.5 82.5t88.5 184.5h51q0 -121 -97 -212.5t-251 -103.5v-135h-62v133q-253 6 -392.5 149.5t-139.5 393.5q0 249 140 393
t392 150v133zM430 512q0 -122 13 -211t38 -145t57.5 -86.5t75.5 -42.5v979q-58 -15 -97.5 -64.5t-63 -157t-23.5 -272.5z" />
    <glyph glyph-name="sterling" unicode="&#xa3;" horiz-adv-x="1228" 
d="M594 1044l-12 -266h360v-61h-362l-17 -369q-3 -60 -24 -106.5t-49 -69.5t-55.5 -37.5t-46.5 -18.5l-19 -3h604q6 46 20.5 88t31.5 69.5t33.5 48t27.5 29.5l10 10h61v-358h-1085v49q44 7 74.5 32.5t52 92t26.5 174.5l17 369h-150v61h152l12 266q9 196 130.5 308t340.5 112
q185 0 271.5 -64t86.5 -159q0 -69 -42 -111.5t-111 -42.5q-18 0 -38.5 2.5t-31.5 5.5l-12 3v307q-21 18 -82 18q-37 0 -64.5 -16.5t-51.5 -57.5t-38.5 -117t-19.5 -188z" />
    <glyph glyph-name="currency" unicode="&#xa4;" horiz-adv-x="1413" 
d="M102 379v61h154v113h-154v61h154v758l-123 31v31h574q174 0 297.5 -29.5t196.5 -88t106.5 -137.5t33.5 -186t-33.5 -186t-106.5 -137t-196.5 -87.5t-297.5 -29.5h-113v-113h450v-61h-450v-318l123 -30v-31h-584v31l123 30v318h-154zM594 614h113q129 0 207.5 97t78.5 282
q0 192 -78.5 290.5t-207.5 98.5h-113v-768z" />
    <glyph glyph-name="yen" unicode="&#xa5;" horiz-adv-x="1361" 
d="M266 389v62h256v81l-20 41h-236v62h205l-369 737l-102 31v31h256q108 0 171 -44.5t105 -129.5l304 -601l311 682l-154 62v31h389v-31l-163 -62l-324 -706h221v-62h-248l-8 -20v-102h256v-62h-256v-328l123 -30v-31h-584v31l123 30v328h-256z" />
    <glyph glyph-name="brokenbar" unicode="&#xa6;" horiz-adv-x="460" 
d="M174 1434h113v-738h-113v738zM287 -410h-113v738h113v-738z" />
    <glyph glyph-name="section" unicode="&#xa7;" horiz-adv-x="1064" 
d="M471 -430q-187 0 -283 66t-96 159q0 69 42.5 111.5t111.5 42.5q18 0 38.5 -2.5t31.5 -4.5l12 -3v-308q41 -20 102 -20q101 0 158 60.5t57 174.5q0 51 -24 95.5t-64 76t-90.5 64t-103 59.5t-103 62t-90.5 72t-64 90.5t-24 115.5q0 93 70 168t206 109q-52 35 -89.5 67.5
t-73 77t-54 101t-18.5 122.5q0 146 116.5 237t344.5 91q173 0 265.5 -66t92.5 -159q0 -69 -42.5 -111.5t-111.5 -42.5q-18 0 -38.5 2.5t-31.5 4.5l-11 3v318q-41 10 -82 10q-66 0 -115 -61.5t-49 -163.5q0 -60 29 -110.5t75 -87t101.5 -71t111 -70.5t101.5 -77t75 -99.5
t29 -129.5q0 -84 -69.5 -155.5t-206.5 -100.5q48 -27 83 -50t73.5 -58.5t63 -72.5t40.5 -88t16 -110q0 -156 -124 -247t-388 -91zM655 307q21 31 21 133q0 49 -27.5 96.5t-66.5 80.5t-78 59t-66 38l-28 13q-21 -31 -21 -133q0 -49 27.5 -96.5t66.5 -80.5t78 -59t67 -38z" />
    <glyph glyph-name="dieresis" unicode="&#xa8;" horiz-adv-x="747" 
d="M41 1290q0 62 41 103t102 41q62 0 103 -41t41 -103q0 -61 -41 -102t-103 -41t-102.5 40.5t-40.5 102.5zM420 1290q0 62 41 103t102 41t102.5 -41t41.5 -103q0 -61 -41 -102t-103 -41q-61 0 -102 40.5t-41 102.5z" />
    <glyph glyph-name="copyright" unicode="&#xa9;" horiz-adv-x="1720" 
d="M942 1116q-37 0 -69.5 -21.5t-61.5 -66t-46 -124.5t-17 -187q0 -200 59 -294.5t145 -94.5q99 0 167.5 66t68.5 159h51q0 -111 -93 -194t-235 -83q-214 0 -332 116.5t-118 324.5q0 207 116.5 323.5t323.5 116.5q158 0 243 -60.5t85 -144.5q0 -62 -35.5 -97.5t-97.5 -35.5
q-18 0 -38.5 2.5t-31.5 4.5l-12 3v277q-31 10 -72 10zM82 717q0 166 61.5 314.5t166 254.5t248 168t302.5 62t302.5 -62t248 -168t166 -254.5t61.5 -314.5t-61.5 -314.5t-166 -254.5t-248 -168t-302.5 -62t-302.5 62t-248 168t-166 254.5t-61.5 314.5zM1567 717
q0 158 -54.5 296t-149 234.5t-225 151.5t-278.5 55t-278.5 -55t-224.5 -151.5t-148.5 -234.5t-54.5 -296t54.5 -296t148.5 -234.5t224.5 -151.5t278.5 -55t278.5 55t225 151.5t149 234.5t54.5 296z" />
    <glyph glyph-name="ordfeminine" unicode="&#xaa;" horiz-adv-x="849" 
d="M317 1065q-30 -51 -30 -123q0 -71 29 -112.5t63 -41.5q27 0 52.5 27t37.5 55l12 27v178q-36 0 -77 -2.5t-64 -4.5zM399 1454q146 0 227 -80.5t81 -226.5v-338l81 -21v-30h-122q-40 0 -71.5 10.5t-48 25.5t-27.5 30t-14 26l-3 10q-2 -5 -5.5 -13.5t-18.5 -29.5t-34 -37
t-53 -29.5t-74 -13.5q-125 0 -190.5 52t-65.5 133q0 36 10.5 69.5t20.5 48.5l10 15q22 7 59.5 17t137.5 27t182 17v72q0 123 -32 174t-91 51q-17 0 -37.5 -2.5t-32.5 -4.5l-12 -3v-205q-30 -10 -71 -10q-46 0 -74.5 28t-28.5 74q0 69 73.5 116.5t223.5 47.5z" />
    <glyph glyph-name="guillemotleft" unicode="&#xab;" horiz-adv-x="901" 
d="M563 41l-532 471l532 471l51 -51l-378 -420l378 -420zM788 154l-389 358l389 358l52 -51l-246 -307l246 -307z" />
    <glyph glyph-name="logicalnot" unicode="&#xac;" horiz-adv-x="962" 
d="M809 451v204h-748v93h840v-297h-92z" />
    <glyph glyph-name="uni00AD" unicode="&#xad;" horiz-adv-x="942" 
d="M61 707h820v-93h-820v93z" />
    <glyph glyph-name="registered" unicode="&#xae;" horiz-adv-x="1720" 
d="M1352 287h-205q-71 0 -121.5 36t-73.5 87l-112 256h-41v-328l102 -21v-30h-471v30l102 21v758l-102 20v31h389q127 0 216.5 -18t140 -52t72.5 -77t22 -99q0 -57 -29.5 -100.5t-71.5 -64t-84.5 -33t-72.5 -15.5l-29 -2q6 0 16 -1.5t37.5 -9.5t51.5 -20t50 -36t40 -56
l102 -225l72 -21v-30zM819 1096h-20v-389h20q81 0 122.5 50.5t41.5 143.5q0 90 -46.5 142.5t-117.5 52.5zM82 717q0 166 61.5 314.5t166 254.5t248 168t302.5 62t302.5 -62t248 -168t166 -254.5t61.5 -314.5t-61.5 -314.5t-166 -254.5t-248 -168t-302.5 -62t-302.5 62
t-248 168t-166 254.5t-61.5 314.5zM1567 717q0 158 -54.5 296t-149 234.5t-225 151.5t-278.5 55t-278.5 -55t-224.5 -151.5t-148.5 -234.5t-54.5 -296t54.5 -296t148.5 -234.5t224.5 -151.5t278.5 -55t278.5 55t225 151.5t149 234.5t54.5 296z" />
    <glyph glyph-name="macron" unicode="&#xaf;" horiz-adv-x="614" 
d="M573 1341h-532v93h532v-93z" />
    <glyph glyph-name="degree" unicode="&#xb0;" horiz-adv-x="757" 
d="M696 1137q0 -134 -87 -226t-230 -92t-230.5 92t-87.5 226t87.5 225.5t230.5 91.5t230 -91.5t87 -225.5zM543 1137q0 103 -46 159t-118 56t-118 -56t-46 -159t46 -159t118 -56t118 56t46 159z" />
    <glyph glyph-name="plusminus" unicode="&#xb1;" horiz-adv-x="1034" 
d="M563 276h-92v379h-410v93h410v419h92v-419h410v-93h-410v-379zM82 195h870v-93h-870v93z" />
    <glyph glyph-name="twosuperior" unicode="&#xb2;" horiz-adv-x="706" 
d="M358 1454q140 0 213.5 -57.5t73.5 -147.5q0 -69 -41.5 -120t-107.5 -83.5t-135 -58.5t-137 -61t-101 -76h389q4 41 24.5 82t39.5 62l18 20h41v-256h-574v61q0 50 20 91.5t51.5 70.5t69.5 55.5t76.5 51.5t70 52.5t51.5 65.5t20 84q0 52 -31.5 87.5t-71.5 35.5
q-17 0 -37.5 -2.5t-31.5 -4.5l-12 -3v-205q-31 -10 -72 -10q-46 0 -74.5 28t-28.5 74q0 69 73.5 116.5t223.5 47.5z" />
    <glyph glyph-name="threesuperior" unicode="&#xb3;" horiz-adv-x="737" 
d="M358 737q-150 0 -223.5 47.5t-73.5 116.5q0 46 28.5 74.5t74.5 28.5q18 0 36 -3t27 -5l9 -3v-205q42 -10 81 -10q62 0 98 40t36 114q0 75 -33.5 114t-89.5 39h-54v41h54q34 0 63 39.5t29 104.5q0 64 -29 103.5t-63 39.5q-17 0 -37.5 -2.5t-32.5 -4.5l-12 -3v-205
q-31 -10 -72 -10q-46 0 -74 28t-28 74q0 69 73.5 116.5t223.5 47.5q130 0 203 -54.5t73 -129.5q0 -43 -23 -76t-56.5 -49t-66.5 -25.5t-56 -11.5l-23 -2q10 0 27.5 -2t61.5 -12.5t78 -27t61.5 -51.5t27.5 -81q0 -83 -79.5 -139t-238.5 -56z" />
    <glyph glyph-name="acute" unicode="&#xb4;" horiz-adv-x="450" 
d="M143 1434h267l-277 -308h-72z" />
    <glyph glyph-name="mu" unicode="&#xb5;" horiz-adv-x="1341" 
d="M328 -410h-267v31l123 31v1311l-123 30v31h267q184 0 184 -184v-512q0 -128 46.5 -197.5t107.5 -69.5q34 0 66 17t52.5 41t36 48t22.5 41l7 17v738l-123 30v31h573v-31l-122 -30v-973h-21q-66 0 -119 19t-81 46t-46.5 54t-24.5 46l-5 19q-2 -7 -7.5 -19.5t-24 -44.5
t-41 -56t-61 -44t-81.5 -20q-29 0 -55 7.5t-43.5 17.5t-30.5 20.5t-19 18.5l-6 7v-286q0 -185 -184 -185z" />
    <glyph glyph-name="mu" unicode="&#x3bc;" horiz-adv-x="1341" 
d="M328 -410h-267v31l123 31v1311l-123 30v31h267q184 0 184 -184v-512q0 -128 46.5 -197.5t107.5 -69.5q34 0 66 17t52.5 41t36 48t22.5 41l7 17v738l-123 30v31h573v-31l-122 -30v-973h-21q-66 0 -119 19t-81 46t-46.5 54t-24.5 46l-5 19q-2 -7 -7.5 -19.5t-24 -44.5
t-41 -56t-61 -44t-81.5 -20q-29 0 -55 7.5t-43.5 17.5t-30.5 20.5t-19 18.5l-6 7v-286q0 -185 -184 -185z" />
    <glyph glyph-name="paragraph" unicode="&#xb6;" horiz-adv-x="1208" 
d="M666 -410h-113v963q-235 0 -358 115t-123 325t123 325.5t358 115.5h604v-62h-164v-1782h-112v1782h-215v-1782z" />
    <glyph glyph-name="periodcentered" unicode="&#xb7;" horiz-adv-x="573" 
d="M440 717q0 -68 -45.5 -116t-107.5 -48t-108 48t-46 116t46 116t108 48t107.5 -48t45.5 -116z" />
    <glyph glyph-name="cedilla" unicode="&#xb8;" horiz-adv-x="411" 
d="M104 -154v154h72v-102q89 0 142 -45t53 -109q0 -65 -56.5 -109.5t-158.5 -44.5q-27 0 -56 3t-44 5l-15 3v61q33 -20 74 -20q46 0 74 28t28 74t-30 74t-83 28z" />
    <glyph glyph-name="onesuperior" unicode="&#xb9;" horiz-adv-x="583" 
d="M440 1434v-625l82 -21v-30h-389v30l82 21v461l-123 -92l-31 30l226 226h153z" />
    <glyph glyph-name="ordmasculine" unicode="&#xba;" horiz-adv-x="798" 
d="M512 1096q0 91 -10 156.5t-27.5 98.5t-36 47.5t-39.5 14.5t-39.5 -14.5t-35.5 -47.5t-27 -98.5t-10 -156.5t10 -156.5t27 -99t35.5 -48t39.5 -14.5t39.5 14.5t36 48t27.5 99t10 156.5zM737 1096q0 -160 -95 -259.5t-243 -99.5t-243 99.5t-95 259.5t95 259t243 99t243 -99
t95 -259z" />
    <glyph glyph-name="guillemotright" unicode="&#xbb;" horiz-adv-x="901" 
d="M870 512l-532 -471l-51 51l379 420l-379 420l51 51zM502 512l-389 -358l-52 51l246 307l-246 307l52 51z" />
    <glyph glyph-name="onequarter" unicode="&#xbc;" horiz-adv-x="1443" 
d="M1188 1434h112l-1054 -1434h-113zM420 1434v-625l82 -21v-30h-389v30l82 21v461l-123 -92l-31 30l225 226h154zM1096 696q140 0 213 -57t73 -147q0 -58 -30.5 -104.5t-77.5 -74.5t-107.5 -55.5t-116.5 -48t-109 -51.5t-81 -66h389q4 41 24.5 82t38.5 62l19 20h41v-256
h-573v61q0 68 37 120.5t89.5 88t105 69.5t89.5 82.5t37 110.5q0 52 -31 87.5t-71 35.5q-17 0 -37.5 -2.5t-32.5 -4.5l-12 -3v-205q-31 -10 -72 -10q-46 0 -74 28t-28 74q0 69 73.5 116.5t223.5 47.5z" />
    <glyph glyph-name="onehalf" unicode="&#xbd;" horiz-adv-x="1406" 
d="M1208 1434h113l-1055 -1434h-112zM420 1434v-625l82 -21v-30h-389v30l82 21v461l-123 -92l-31 30l225 226h154zM696 154l-30 51l430 471h123v-461h127v-61h-127v-103l81 -20v-31h-389v31l82 20v103h-297zM993 481l-245 -266h245v266z" />
    <glyph glyph-name="threequarters" unicode="&#xbe;" horiz-adv-x="1447" 
d="M737 154l-30 51l430 471h123v-461h126v-61h-126v-103l81 -20v-31h-389v31l82 20v103h-297zM1034 481l-246 -266h246v266zM1270 1434h112l-1054 -1434h-113zM358 737q-150 0 -223.5 47.5t-73.5 116.5q0 46 28.5 74.5t74.5 28.5q18 0 36 -3t27 -5l9 -3v-205q42 -10 81 -10
q62 0 98 40t36 114q0 75 -33.5 114t-89.5 39h-54v41h54q34 0 63 39.5t29 104.5q0 64 -29 103.5t-63 39.5q-17 0 -37.5 -2.5t-32.5 -4.5l-12 -3v-205q-31 -10 -72 -10q-46 0 -74 28t-28 74q0 69 73.5 116.5t223.5 47.5q130 0 203 -54.5t73 -129.5q0 -43 -23 -76t-56.5 -49
t-66.5 -25.5t-56 -11.5l-23 -2q10 0 27.5 -2t61.5 -12.5t78 -27t61.5 -51.5t27.5 -81q0 -83 -79.5 -139t-238.5 -56z" />
    <glyph glyph-name="questiondown" unicode="&#xbf;" 
d="M717 -389q45 0 86 7.5t59 15.5l19 8v327q41 11 82 11q69 0 111 -42.5t42 -111.5q0 -48 -28 -94t-80 -85t-138.5 -63t-193.5 -24q-153 0 -270.5 32t-189.5 89.5t-108 133t-36 165.5q0 173 128.5 288t383.5 152l10 164h82l10 -195q-83 -33 -136 -78.5t-86.5 -128.5
t-33.5 -202q0 -195 71.5 -282t215.5 -87zM492 881q0 68 45.5 115.5t107.5 47.5t108 -47.5t46 -115.5t-46 -116t-108 -48t-107.5 48t-45.5 116z" />
    <glyph glyph-name="Agrave" unicode="&#xc0;" horiz-adv-x="1392" 
d="M184 92l154 -61v-31h-379v31l164 61l563 1362h62l583 -1393l103 -30v-31h-246q-201 0 -275 174l-104 246h-490zM563 1010l-223 -539h448zM410 1843h266l82 -307h-72z" />
    <glyph glyph-name="Aacute" unicode="&#xc1;" horiz-adv-x="1392" 
d="M184 92l154 -61v-31h-379v31l164 61l563 1362h62l583 -1393l103 -30v-31h-246q-201 0 -275 174l-104 246h-490zM563 1010l-223 -539h448zM758 1843h266l-276 -307h-72z" />
    <glyph glyph-name="Acircumflex" unicode="&#xc2;" horiz-adv-x="1392" 
d="M184 92l154 -61v-31h-379v31l164 61l563 1362h62l583 -1393l103 -30v-31h-246q-201 0 -275 174l-104 246h-490zM563 1010l-223 -539h448zM430 1516l297 337l297 -337h-72l-225 143l-225 -143h-72z" />
    <glyph glyph-name="Atilde" unicode="&#xc3;" horiz-adv-x="1392" 
d="M184 92l154 -61v-31h-379v31l164 61l563 1362h62l583 -1393l103 -30v-31h-246q-201 0 -275 174l-104 246h-490zM563 1010l-223 -539h448zM823 1567q-41 0 -78.5 16t-59.5 35t-51 35t-56 16q-38 0 -65.5 -27t-27.5 -65h-41q0 119 48.5 177t136.5 58q41 0 78.5 -16
t59.5 -35t51 -35t56 -16q38 0 65.5 27t27.5 65h41q0 -119 -48.5 -177t-136.5 -58z" />
    <glyph glyph-name="Adieresis" unicode="&#xc4;" horiz-adv-x="1392" 
d="M184 92l154 -61v-31h-379v31l164 61l563 1362h62l583 -1393l103 -30v-31h-246q-201 0 -275 174l-104 246h-490zM563 1010l-223 -539h448zM393 1700q0 61 41 102t103 41q61 0 102 -40.5t41 -102.5t-41 -103t-102 -41t-102.5 41t-41.5 103zM772 1700q0 62 41 102.5
t102 40.5q62 0 103 -41t41 -102q0 -62 -41.5 -103t-102.5 -41t-102 41t-41 103z" />
    <glyph glyph-name="Aring" unicode="&#xc5;" horiz-adv-x="1392" 
d="M184 92l154 -61v-31h-379v31l164 61l536 1297q-71 19 -114 73.5t-43 124.5q0 85 62 145t153 60t153 -60t62 -145q0 -70 -44 -124.5t-114 -73.5l557 -1328l103 -30v-31h-246q-201 0 -275 174l-104 246h-490zM563 1010l-223 -539h448zM829 1587q0 60 -32.5 96.5t-79.5 36.5
t-80 -36.5t-33 -96.5t33 -96.5t80 -36.5t79.5 36.5t32.5 96.5z" />
    <glyph glyph-name="AE" unicode="&#xc6;" horiz-adv-x="2029" 
d="M952 61v482h-526l-250 -451l154 -61v-31h-391v31l163 61l750 1342h1053v-369h-62q-5 4 -14 12t-32 37.5t-40.5 63t-32 89t-14.5 115.5h-420v-645h215q9 50 32 101.5t41 77.5l19 26h62v-461h-62q-8 10 -20.5 28.5t-37.5 72.5t-34 104h-215v-635h461q0 60 13.5 115t33 90.5
t39.5 62t33 38.5l14 12h62v-369h-1117v31zM897 1382l-440 -788h495v788h-55z" />
    <glyph glyph-name="Ccedilla" unicode="&#xc7;" horiz-adv-x="1331" 
d="M739 1464q54 0 107.5 -13.5t91 -33t67.5 -39.5t45 -34l15 -13q18 32 46.5 60.5t47.5 40.5l19 12h51v-389h-82q-2 7 -6 20t-19 50.5t-33.5 71t-49.5 75t-67 71t-87 50t-107 20.5q-52 0 -97.5 -21t-88.5 -71.5t-73.5 -128t-49 -199.5t-18.5 -276q0 -697 378 -697
q147 0 263 118.5t116 271.5h52q0 -179 -137.5 -310t-334.5 -131h-24v-71q89 0 141.5 -45t52.5 -109q0 -65 -56.5 -109.5t-158.5 -44.5q-27 0 -55.5 3t-43.5 5l-15 3v61q32 -20 73 -20q46 0 74.5 28t28.5 74t-30 74t-83 28v129q-284 26 -442 219t-158 523q0 353 177.5 550
t469.5 197z" />
    <glyph glyph-name="Egrave" unicode="&#xc8;" horiz-adv-x="1320" 
d="M563 737h236q9 50 32 101.5t41 77.5l19 26h61v-461h-61q-8 10 -20.5 28.5t-37.5 72.5t-34 104h-236v-635h481q0 60 14 115t33.5 90.5t39 62t33.5 38.5l14 12h61v-369h-1137v31l123 30v1311l-123 31v31h1096v-369h-61q-5 4 -14 12t-32 37.5t-40.5 63t-32 89t-14.5 115.5
h-441v-645zM444 1843h267l82 -307h-72z" />
    <glyph glyph-name="Eacute" unicode="&#xc9;" horiz-adv-x="1320" 
d="M563 737h236q9 50 32 101.5t41 77.5l19 26h61v-461h-61q-8 10 -20.5 28.5t-37.5 72.5t-34 104h-236v-635h481q0 60 14 115t33.5 90.5t39 62t33.5 38.5l14 12h61v-369h-1137v31l123 30v1311l-123 31v31h1096v-369h-61q-5 4 -14 12t-32 37.5t-40.5 63t-32 89t-14.5 115.5
h-441v-645zM690 1843h266l-276 -307h-72z" />
    <glyph glyph-name="Ecircumflex" unicode="&#xca;" horiz-adv-x="1320" 
d="M563 737h236q9 50 32 101.5t41 77.5l19 26h61v-461h-61q-8 10 -20.5 28.5t-37.5 72.5t-34 104h-236v-635h481q0 60 14 115t33.5 90.5t39 62t33.5 38.5l14 12h61v-369h-1137v31l123 30v1311l-123 31v31h1096v-369h-61q-5 4 -14 12t-32 37.5t-40.5 63t-32 89t-14.5 115.5
h-441v-645zM403 1556l297 338l297 -338h-71l-226 144l-225 -144h-72z" />
    <glyph glyph-name="Edieresis" unicode="&#xcb;" horiz-adv-x="1320" 
d="M563 737h236q9 50 32 101.5t41 77.5l19 26h61v-461h-61q-8 10 -20.5 28.5t-37.5 72.5t-34 104h-236v-635h481q0 60 14 115t33.5 90.5t39 62t33.5 38.5l14 12h61v-369h-1137v31l123 30v1311l-123 31v31h1096v-369h-61q-5 4 -14 12t-32 37.5t-40.5 63t-32 89t-14.5 115.5
h-441v-645zM369 1720q0 62 41 103t102 41t102 -41t41 -103t-40.5 -102.5t-102.5 -40.5t-102.5 40.5t-40.5 102.5zM748 1720q0 62 41 103t102 41t102 -41t41 -103t-41 -102.5t-102 -40.5t-102 40.5t-41 102.5z" />
    <glyph glyph-name="Igrave" unicode="&#xcc;" horiz-adv-x="788" 
d="M225 1372l-123 31v31h584v-31l-123 -31v-1311l123 -30v-31h-584v31l123 30v1311zM96 1843h266l82 -307h-71z" />
    <glyph glyph-name="Iacute" unicode="&#xcd;" horiz-adv-x="788" 
d="M225 1372l-123 31v31h584v-31l-123 -31v-1311l123 -30v-31h-584v31l123 30v1311zM424 1843h266l-276 -307h-72z" />
    <glyph glyph-name="Icircumflex" unicode="&#xce;" horiz-adv-x="788" 
d="M225 1372l-123 31v31h584v-31l-123 -31v-1311l123 -30v-31h-584v31l123 30v1311zM96 1567l297 338l297 -338h-72l-225 143l-225 -143h-72z" />
    <glyph glyph-name="Idieresis" unicode="&#xcf;" horiz-adv-x="788" 
d="M225 1372l-123 31v31h584v-31l-123 -31v-1311l123 -30v-31h-584v31l123 30v1311zM61 1731q0 61 41 102t103 41q61 0 102 -41t41 -102q0 -62 -41 -103t-102 -41t-102.5 41.5t-41.5 102.5zM440 1731q0 61 41 102t103 41t102.5 -41t40.5 -102q0 -62 -41 -103t-102 -41
q-62 0 -103 41.5t-41 102.5z" />
    <glyph glyph-name="Eth" unicode="&#xd0;" horiz-adv-x="1464" 
d="M102 758h134v614l-123 31v31h522q366 0 562 -188t196 -529t-196 -529t-562 -188h-522v31l123 30v635h-134v62zM635 1382h-62v-624h246v-62h-246v-645h62q92 0 162.5 34t125 110t83 207t28.5 315t-28.5 315t-83 206.5t-125 109.5t-162.5 34z" />
    <glyph glyph-name="Ntilde" unicode="&#xd1;" horiz-adv-x="1515" 
d="M1239 522v819l-164 62v31h389v-31l-164 -62v-1372h-61l-952 1116v-993l164 -61v-31h-390v31l164 61v1270l-143 41v31h215q58 0 105 -12.5t82.5 -38t54.5 -44t45 -49.5zM901 1567q-41 0 -78.5 16t-60 35t-51.5 35t-56 16q-38 0 -65 -27t-27 -65h-41q0 119 48.5 177
t136.5 58q41 0 78.5 -16t59.5 -35t51 -35t56 -16q38 0 65 27t27 65h41q0 -119 -48 -177t-136 -58z" />
    <glyph glyph-name="Ograve" unicode="&#xd2;" horiz-adv-x="1515" 
d="M1065 717q0 157 -18.5 281.5t-48.5 202.5t-70.5 129.5t-82.5 72t-87 20.5t-87 -20.5t-82.5 -72t-70.5 -129.5t-48.5 -202.5t-18.5 -281.5t18.5 -281.5t48.5 -202.5t70.5 -129.5t82.5 -72.5t87 -21t87 21t82.5 72.5t70.5 129.5t48.5 202.5t18.5 281.5zM1423 717
q0 -355 -180 -551.5t-485 -196.5t-485.5 196.5t-180.5 551.5t180.5 551t485.5 196t485 -196t180 -551zM461 1843h266l82 -307h-72z" />
    <glyph glyph-name="Oacute" unicode="&#xd3;" horiz-adv-x="1515" 
d="M1065 717q0 157 -18.5 281.5t-48.5 202.5t-70.5 129.5t-82.5 72t-87 20.5t-87 -20.5t-82.5 -72t-70.5 -129.5t-48.5 -202.5t-18.5 -281.5t18.5 -281.5t48.5 -202.5t70.5 -129.5t82.5 -72.5t87 -21t87 21t82.5 72.5t70.5 129.5t48.5 202.5t18.5 281.5zM1423 717
q0 -355 -180 -551.5t-485 -196.5t-485.5 196.5t-180.5 551.5t180.5 551t485.5 196t485 -196t180 -551zM788 1843h267l-277 -307h-71z" />
    <glyph glyph-name="Ocircumflex" unicode="&#xd4;" horiz-adv-x="1515" 
d="M1065 717q0 157 -18.5 281.5t-48.5 202.5t-70.5 129.5t-82.5 72t-87 20.5t-87 -20.5t-82.5 -72t-70.5 -129.5t-48.5 -202.5t-18.5 -281.5t18.5 -281.5t48.5 -202.5t70.5 -129.5t82.5 -72.5t87 -21t87 21t82.5 72.5t70.5 129.5t48.5 202.5t18.5 281.5zM1423 717
q0 -355 -180 -551.5t-485 -196.5t-485.5 196.5t-180.5 551.5t180.5 551t485.5 196t485 -196t180 -551zM461 1567l297 338l297 -338h-72l-225 143l-226 -143h-71z" />
    <glyph glyph-name="Otilde" unicode="&#xd5;" horiz-adv-x="1515" 
d="M1065 717q0 157 -18.5 281.5t-48.5 202.5t-70.5 129.5t-82.5 72t-87 20.5t-87 -20.5t-82.5 -72t-70.5 -129.5t-48.5 -202.5t-18.5 -281.5t18.5 -281.5t48.5 -202.5t70.5 -129.5t82.5 -72.5t87 -21t87 21t82.5 72.5t70.5 129.5t48.5 202.5t18.5 281.5zM1423 717
q0 -355 -180 -551.5t-485 -196.5t-485.5 196.5t-180.5 551.5t180.5 551t485.5 196t485 -196t180 -551zM864 1587q-41 0 -78.5 16t-60 35.5t-51.5 35.5t-56 16q-38 0 -65 -27.5t-27 -65.5h-41q0 119 48.5 177.5t136.5 58.5q41 0 78.5 -16t59.5 -35t51 -35t56 -16
q38 0 65.5 27t27.5 65h41q0 -119 -48.5 -177.5t-136.5 -58.5z" />
    <glyph glyph-name="Odieresis" unicode="&#xd6;" horiz-adv-x="1515" 
d="M1065 717q0 157 -18.5 281.5t-48.5 202.5t-70.5 129.5t-82.5 72t-87 20.5t-87 -20.5t-82.5 -72t-70.5 -129.5t-48.5 -202.5t-18.5 -281.5t18.5 -281.5t48.5 -202.5t70.5 -129.5t82.5 -72.5t87 -21t87 21t82.5 72.5t70.5 129.5t48.5 202.5t18.5 281.5zM1423 717
q0 -355 -180 -551.5t-485 -196.5t-485.5 196.5t-180.5 551.5t180.5 551t485.5 196t485 -196t180 -551zM424 1731q0 61 41 102t102 41q62 0 103 -41t41 -102t-41.5 -102.5t-102.5 -41.5t-102 41t-41 103zM803 1731q0 61 40.5 102t102.5 41t103 -41t41 -102t-41 -102.5
t-103 -41.5q-61 0 -102 41t-41 103z" />
    <glyph glyph-name="multiply" unicode="&#xd7;" horiz-adv-x="831" 
d="M770 406l-65 -64l-289 289l-289 -289l-66 64l289 290l-289 289l66 66l289 -289l289 289l65 -66l-289 -289z" />
    <glyph glyph-name="Oslash" unicode="&#xd8;" horiz-adv-x="1515" 
d="M1423 717q0 -355 -180 -551.5t-485 -196.5q-255 0 -424 146l-88 -115h-72l117 154q-93 99 -146 242t-53 321q0 355 180.5 551t485.5 196q253 0 424 -145l88 115h71l-118 -156q200 -210 200 -561zM1065 717q0 164 -25 321l-551 -719q40 -161 112.5 -235t156.5 -74
q45 0 87 21t82.5 72.5t70.5 129.5t48.5 202.5t18.5 281.5zM451 717q0 -192 24 -324l549 719q-40 161 -112 236t-154 75q-45 0 -87 -20.5t-82.5 -72t-70.5 -129.5t-48.5 -202.5t-18.5 -281.5z" />
    <glyph glyph-name="Ugrave" unicode="&#xd9;" horiz-adv-x="1454" 
d="M1219 512v829l-164 62v31h389v-31l-164 -62v-829q0 -248 -133.5 -395.5t-337.5 -147.5q-302 0 -458 142.5t-156 400.5v860l-123 31v31h583v-31l-123 -31v-860q0 -265 81.5 -378.5t236.5 -113.5q69 0 135 34.5t118.5 96t84 156t31.5 205.5zM553 1843h266l82 -307h-72z" />
    <glyph glyph-name="Uacute" unicode="&#xda;" horiz-adv-x="1454" 
d="M1219 512v829l-164 62v31h389v-31l-164 -62v-829q0 -248 -133.5 -395.5t-337.5 -147.5q-302 0 -458 142.5t-156 400.5v860l-123 31v31h583v-31l-123 -31v-860q0 -265 81.5 -378.5t236.5 -113.5q69 0 135 34.5t118.5 96t84 156t31.5 205.5zM840 1843h266l-277 -307h-71z
" />
    <glyph glyph-name="Ucircumflex" unicode="&#xdb;" horiz-adv-x="1454" 
d="M1219 512v829l-164 62v31h389v-31l-164 -62v-829q0 -248 -133.5 -395.5t-337.5 -147.5q-302 0 -458 142.5t-156 400.5v860l-123 31v31h583v-31l-123 -31v-860q0 -265 81.5 -378.5t236.5 -113.5q69 0 135 34.5t118.5 96t84 156t31.5 205.5zM532 1556l297 338l297 -338h-71
l-226 144l-225 -144h-72z" />
    <glyph glyph-name="Udieresis" unicode="&#xdc;" horiz-adv-x="1454" 
d="M1219 512v829l-164 62v31h389v-31l-164 -62v-829q0 -248 -133.5 -395.5t-337.5 -147.5q-302 0 -458 142.5t-156 400.5v860l-123 31v31h583v-31l-123 -31v-860q0 -265 81.5 -378.5t236.5 -113.5q69 0 135 34.5t118.5 96t84 156t31.5 205.5zM475 1720q0 62 41 103t102 41
q62 0 103 -41t41 -103q0 -61 -41 -102t-103 -41t-102.5 40.5t-40.5 102.5zM854 1720q0 62 41 103t102 41t102.5 -41t41.5 -103q0 -61 -41 -102t-103 -41q-61 0 -102 40.5t-41 102.5z" />
    <glyph glyph-name="Yacute" unicode="&#xdd;" horiz-adv-x="1361" 
d="M522 532l-420 840l-102 31v31h256q108 0 171 -44.5t105 -129.5l304 -605l311 686l-154 62v31h389v-31l-163 -62l-359 -788v-492l123 -30v-31h-584v31l123 30v471zM731 1843h266l-276 -307h-72z" />
    <glyph glyph-name="Thorn" unicode="&#xde;" horiz-adv-x="1433" 
d="M563 1249h92q180 0 319 -39.5t225 -111.5t129.5 -168t43.5 -213t-43.5 -213t-129.5 -168t-225 -112t-319 -40h-92v-123l123 -30v-31h-584v31l123 30v1311l-123 31v31h584v-31l-123 -31v-123zM563 1198v-962h92q154 0 256.5 126.5t102.5 354.5t-102.5 354.5t-256.5 126.5
h-92z" />
    <glyph glyph-name="germandbls" unicode="&#xdf;" horiz-adv-x="1413" 
d="M963 20q34 0 57.5 36t23.5 108q0 54 -21.5 100t-56 80.5t-76 67.5t-82.5 67.5t-75.5 72.5t-56 91t-21.5 115t18 112.5t43.5 85.5t51 69t43.5 80.5t18 102.5q0 96 -44 150.5t-109 54.5q-37 0 -65 -17t-51.5 -58t-35.5 -120t-12 -194v-1024h-451v31l123 30v963
q0 195 132.5 317.5t359.5 122.5q92 0 173 -27.5t133.5 -71t83 -96t30.5 -102.5q0 -62 -12.5 -112t-31 -82t-36.5 -60t-30.5 -62t-12.5 -73q0 -41 21.5 -77t56 -64t76 -55.5t82.5 -58.5t75.5 -65.5t56 -84t21.5 -107.5q0 -135 -93 -216t-265 -81q-40 0 -76 9.5t-58.5 23
t-39.5 27t-24 23.5l-7 9q-18 -27 -46.5 -45t-47.5 -22l-19 -4h-51v348h82q2 -7 5.5 -18.5t16 -44.5t26.5 -63t36.5 -66.5t45.5 -63t54 -44.5t62 -18z" />
    <glyph glyph-name="agrave" unicode="&#xe0;" horiz-adv-x="1239" 
d="M481 481q-41 -92 -41 -215q0 -114 36 -169.5t87 -55.5q34 0 66 17t52.5 41t36.5 48t23 41l7 17v297q-55 0 -121.5 -5t-106.5 -11zM563 1055q241 0 376.5 -122t135.5 -319v-553l123 -30v-31h-184q-55 0 -99 16t-68.5 38.5t-41 45t-21.5 38.5l-6 16q-3 -8 -10 -20
t-32.5 -44t-56.5 -56.5t-84.5 -44.5t-113.5 -20q-184 0 -281.5 77.5t-97.5 199.5q0 55 18 111t36 85l18 29q33 8 90.5 20.5t209 35t274.5 26.5v61q0 117 -14.5 196t-45 123t-70.5 62.5t-96 18.5q-27 0 -52.5 -5t-37.5 -11l-12 -5v-307q-41 -10 -82 -10q-69 0 -111.5 42
t-42.5 111q0 94 96 160t283 66zM317 1454h267l82 -307h-72z" />
    <glyph glyph-name="aacute" unicode="&#xe1;" horiz-adv-x="1239" 
d="M481 481q-41 -92 -41 -215q0 -114 36 -169.5t87 -55.5q34 0 66 17t52.5 41t36.5 48t23 41l7 17v297q-55 0 -121.5 -5t-106.5 -11zM563 1055q241 0 376.5 -122t135.5 -319v-553l123 -30v-31h-184q-55 0 -99 16t-68.5 38.5t-41 45t-21.5 38.5l-6 16q-3 -8 -10 -20
t-32.5 -44t-56.5 -56.5t-84.5 -44.5t-113.5 -20q-184 0 -281.5 77.5t-97.5 199.5q0 55 18 111t36 85l18 29q33 8 90.5 20.5t209 35t274.5 26.5v61q0 117 -14.5 196t-45 123t-70.5 62.5t-96 18.5q-27 0 -52.5 -5t-37.5 -11l-12 -5v-307q-41 -10 -82 -10q-69 0 -111.5 42
t-42.5 111q0 94 96 160t283 66zM604 1454h266l-276 -307h-72z" />
    <glyph glyph-name="acircumflex" unicode="&#xe2;" horiz-adv-x="1239" 
d="M481 481q-41 -92 -41 -215q0 -114 36 -169.5t87 -55.5q34 0 66 17t52.5 41t36.5 48t23 41l7 17v297q-55 0 -121.5 -5t-106.5 -11zM563 1055q241 0 376.5 -122t135.5 -319v-553l123 -30v-31h-184q-55 0 -99 16t-68.5 38.5t-41 45t-21.5 38.5l-6 16q-3 -8 -10 -20
t-32.5 -44t-56.5 -56.5t-84.5 -44.5t-113.5 -20q-184 0 -281.5 77.5t-97.5 199.5q0 55 18 111t36 85l18 29q33 8 90.5 20.5t209 35t274.5 26.5v61q0 117 -14.5 196t-45 123t-70.5 62.5t-96 18.5q-27 0 -52.5 -5t-37.5 -11l-12 -5v-307q-41 -10 -82 -10q-69 0 -111.5 42
t-42.5 111q0 94 96 160t283 66zM317 1157l297 338l297 -338h-71l-226 143l-225 -143h-72z" />
    <glyph glyph-name="atilde" unicode="&#xe3;" horiz-adv-x="1239" 
d="M481 481q-41 -92 -41 -215q0 -114 36 -169.5t87 -55.5q34 0 66 17t52.5 41t36.5 48t23 41l7 17v297q-55 0 -121.5 -5t-106.5 -11zM563 1055q241 0 376.5 -122t135.5 -319v-553l123 -30v-31h-184q-55 0 -99 16t-68.5 38.5t-41 45t-21.5 38.5l-6 16q-3 -8 -10 -20
t-32.5 -44t-56.5 -56.5t-84.5 -44.5t-113.5 -20q-184 0 -281.5 77.5t-97.5 199.5q0 55 18 111t36 85l18 29q33 8 90.5 20.5t209 35t274.5 26.5v61q0 117 -14.5 196t-45 123t-70.5 62.5t-96 18.5q-27 0 -52.5 -5t-37.5 -11l-12 -5v-307q-41 -10 -82 -10q-69 0 -111.5 42
t-42.5 111q0 94 96 160t283 66zM711 1198q-41 0 -78.5 16t-60 35t-51.5 35t-56 16q-38 0 -65 -27t-27 -65h-41q0 120 48 178t136 58q41 0 78.5 -16t60 -35.5t51.5 -35.5t56 -16q38 0 65 27.5t27 65.5h41q0 -120 -48 -178t-136 -58z" />
    <glyph glyph-name="adieresis" unicode="&#xe4;" horiz-adv-x="1239" 
d="M481 481q-41 -92 -41 -215q0 -114 36 -169.5t87 -55.5q34 0 66 17t52.5 41t36.5 48t23 41l7 17v297q-55 0 -121.5 -5t-106.5 -11zM563 1055q241 0 376.5 -122t135.5 -319v-553l123 -30v-31h-184q-55 0 -99 16t-68.5 38.5t-41 45t-21.5 38.5l-6 16q-3 -8 -10 -20
t-32.5 -44t-56.5 -56.5t-84.5 -44.5t-113.5 -20q-184 0 -281.5 77.5t-97.5 199.5q0 55 18 111t36 85l18 29q33 8 90.5 20.5t209 35t274.5 26.5v61q0 117 -14.5 196t-45 123t-70.5 62.5t-96 18.5q-27 0 -52.5 -5t-37.5 -11l-12 -5v-307q-41 -10 -82 -10q-69 0 -111.5 42
t-42.5 111q0 94 96 160t283 66zM281 1321q0 61 40.5 102t102.5 41t102.5 -41t40.5 -102t-40.5 -102t-102.5 -41t-102.5 41t-40.5 102zM659 1321q0 61 41 102t103 41q61 0 102 -41t41 -102t-41 -102t-102 -41q-62 0 -103 41t-41 102z" />
    <glyph glyph-name="aring" unicode="&#xe5;" horiz-adv-x="1239" 
d="M481 481q-41 -92 -41 -215q0 -114 36 -169.5t87 -55.5q34 0 66 17t52.5 41t36.5 48t23 41l7 17v297q-55 0 -121.5 -5t-106.5 -11zM563 1055q241 0 376.5 -122t135.5 -319v-553l123 -30v-31h-184q-55 0 -99 16t-68.5 38.5t-41 45t-21.5 38.5l-6 16q-3 -8 -10 -20
t-32.5 -44t-56.5 -56.5t-84.5 -44.5t-113.5 -20q-184 0 -281.5 77.5t-97.5 199.5q0 55 18 111t36 85l18 29q33 8 90.5 20.5t209 35t274.5 26.5v61q0 117 -14.5 196t-45 123t-70.5 62.5t-96 18.5q-27 0 -52.5 -5t-37.5 -11l-12 -5v-307q-41 -10 -82 -10q-69 0 -111.5 42
t-42.5 111q0 94 96 160t283 66zM829 1362q0 -85 -62 -145t-153 -60t-153 60t-62 145t62 145t153 60t153 -60t62 -145zM727 1362q0 60 -33 96.5t-80 36.5t-79.5 -36.5t-32.5 -96.5t32.5 -96.5t79.5 -36.5t80 36.5t33 96.5z" />
    <glyph glyph-name="ae" unicode="&#xe6;" horiz-adv-x="1792" 
d="M1280 -31q-74 0 -138.5 20t-103 48.5t-66.5 57.5t-39 49l-11 20q-3 -4 -8.5 -11t-24.5 -27.5t-40.5 -38.5t-57 -40.5t-73.5 -39t-90 -27.5t-106 -11q-212 0 -316 76.5t-104 200.5q0 55 18 106t36 75l18 24q33 8 90.5 20t209 34.5t274.5 26.5v82q0 117 -14.5 196t-45 123
t-70.5 62.5t-96 18.5q-27 0 -52.5 -5t-37.5 -11l-12 -5v-307q-41 -10 -82 -10q-69 0 -111.5 42t-42.5 111q0 94 96 160t283 66q74 0 138.5 -19t103.5 -46.5t67 -54.5t39 -46l11 -19q2 4 5.5 10.5t18 26t31 37t44.5 38.5t59.5 36.5t76 26t92.5 10.5q210 0 340.5 -118.5
t130.5 -291.5q0 -27 -5 -52.5t-10 -37.5l-5 -12q-33 -7 -91.5 -17.5t-223 -27.5t-310.5 -17v-45q3 -226 67 -321t179 -95q120 0 208.5 82.5t88.5 184.5h51q0 -128 -109 -223t-280 -95zM1075 532q82 0 153.5 5t102.5 11l31 5q20 72 20 133q0 170 -45 249t-108 79
q-149 0 -154 -471v-11zM481 461q-41 -92 -41 -215q0 -114 36 -170t87 -56q29 0 55 11t44.5 28t33.5 37.5t24.5 41.5t16 38t9.5 28l2 11v266q-55 0 -121.5 -5t-106.5 -10z" />
    <glyph glyph-name="ccedilla" unicode="&#xe7;" horiz-adv-x="1085" 
d="M676 1014q-57 0 -99.5 -23t-76.5 -77.5t-52 -155.5t-18 -246q0 -142 18 -240.5t52 -152t76.5 -76.5t99.5 -23q120 0 208.5 82.5t88.5 184.5h51q0 -128 -109 -223t-280 -95h-10v-71q89 0 141.5 -45t52.5 -109q0 -65 -56.5 -109.5t-158.5 -44.5q-27 0 -56 3t-44 5l-15 3v61
q33 -20 74 -20q46 0 74.5 28t28.5 74t-30 74t-83 28v127q-222 20 -346.5 163.5t-124.5 375.5q0 254 146.5 398.5t406.5 144.5q187 0 283 -66t96 -160q0 -69 -42.5 -111t-111.5 -42q-18 0 -38.5 2.5t-31.5 5.5l-12 2v307q-41 21 -102 21z" />
    <glyph glyph-name="egrave" unicode="&#xe8;" 
d="M430 512q82 0 153.5 5t102.5 10l31 5q20 72 20 154q0 170 -45 249t-108 79q-154 0 -154 -502zM635 -31q-260 0 -406.5 144.5t-146.5 398.5q0 251 138 397t364 146q224 0 357.5 -118t133.5 -292q0 -32 -5 -63t-10 -46l-5 -14q-33 -7 -91.5 -17t-223 -27t-310.5 -17
q0 -123 18 -211t52 -137t77 -71t99 -22q120 0 208.5 82.5t88.5 184.5h51q0 -128 -109 -223t-280 -95zM287 1454h266l82 -307h-72z" />
    <glyph glyph-name="eacute" unicode="&#xe9;" 
d="M430 512q82 0 153.5 5t102.5 10l31 5q20 72 20 154q0 170 -45 249t-108 79q-154 0 -154 -502zM635 -31q-260 0 -406.5 144.5t-146.5 398.5q0 251 138 397t364 146q224 0 357.5 -118t133.5 -292q0 -32 -5 -63t-10 -46l-5 -14q-33 -7 -91.5 -17t-223 -27t-310.5 -17
q0 -123 18 -211t52 -137t77 -71t99 -22q120 0 208.5 82.5t88.5 184.5h51q0 -128 -109 -223t-280 -95zM594 1454h266l-276 -307h-72z" />
    <glyph glyph-name="ecircumflex" unicode="&#xea;" 
d="M430 512q82 0 153.5 5t102.5 10l31 5q20 72 20 154q0 170 -45 249t-108 79q-154 0 -154 -502zM635 -31q-260 0 -406.5 144.5t-146.5 398.5q0 251 138 397t364 146q224 0 357.5 -118t133.5 -292q0 -32 -5 -63t-10 -46l-5 -14q-33 -7 -91.5 -17t-223 -27t-310.5 -17
q0 -123 18 -211t52 -137t77 -71t99 -22q120 0 208.5 82.5t88.5 184.5h51q0 -128 -109 -223t-280 -95zM287 1157l297 338l297 -338h-72l-225 143l-226 -143h-71z" />
    <glyph glyph-name="edieresis" unicode="&#xeb;" 
d="M430 512q82 0 153.5 5t102.5 10l31 5q20 72 20 154q0 170 -45 249t-108 79q-154 0 -154 -502zM635 -31q-260 0 -406.5 144.5t-146.5 398.5q0 251 138 397t364 146q224 0 357.5 -118t133.5 -292q0 -32 -5 -63t-10 -46l-5 -14q-33 -7 -91.5 -17t-223 -27t-310.5 -17
q0 -123 18 -211t52 -137t77 -71t99 -22q120 0 208.5 82.5t88.5 184.5h51q0 -128 -109 -223t-280 -95zM250 1321q0 61 41 102t102 41q62 0 103 -41t41 -102t-41 -102t-103 -41q-61 0 -102 41t-41 102zM629 1321q0 61 40.5 102t102.5 41t102.5 -41t40.5 -102t-40.5 -102
t-102.5 -41t-102.5 41t-40.5 102z" />
    <glyph glyph-name="igrave" unicode="&#xec;" horiz-adv-x="696" 
d="M82 1024h266q184 0 184 -184v-779l123 -30v-31h-573v31l123 30v902l-123 30v31zM51 1434h266l82 -308h-71z" />
    <glyph glyph-name="iacute" unicode="&#xed;" horiz-adv-x="696" 
d="M82 1024h266q184 0 184 -184v-779l123 -30v-31h-573v31l123 30v902l-123 30v31zM358 1434h267l-277 -308h-72z" />
    <glyph glyph-name="icircumflex" unicode="&#xee;" horiz-adv-x="696" 
d="M82 1024h266q184 0 184 -184v-779l123 -30v-31h-573v31l123 30v902l-123 30v31zM51 1147l297 338l297 -338h-72l-225 143l-225 -143h-72z" />
    <glyph glyph-name="idieresis" unicode="&#xef;" horiz-adv-x="696" 
d="M82 1024h266q184 0 184 -184v-779l123 -30v-31h-573v31l123 30v902l-123 30v31zM-4 1311q0 61 41 102t102 41q62 0 103 -41t41 -102t-41.5 -102.5t-102.5 -41.5t-102 41t-41 103zM375 1311q0 61 40.5 102t102.5 41t103 -41t41 -102t-41 -102.5t-103 -41.5q-61 0 -102 41
t-41 103z" />
    <glyph glyph-name="eth" unicode="&#xf0;" horiz-adv-x="1239" 
d="M795 1493l-78 -143q211 -93 325.5 -294t114.5 -503q0 -280 -144 -432t-401 -152q-249 0 -394.5 138t-145.5 364q0 222 136 362t345 140q55 0 103.5 -16t78.5 -38.5t52.5 -45t32.5 -38.5l9 -16q-13 253 -174 420l-84 -154l-43 27l90 164q-142 117 -337 117v41
q213 0 389 -64l82 150zM420 471q0 -128 17 -222t46 -144t61 -72.5t68 -22.5q38 0 71 22.5t62.5 72.5t46.5 144t17 222v21q0 230 -60.5 335t-156.5 105q-29 0 -57 -23t-55 -72t-43.5 -144t-16.5 -222z" />
    <glyph glyph-name="ntilde" unicode="&#xf1;" horiz-adv-x="1361" 
d="M870 184v533q0 128 -46.5 197t-106.5 69q-34 0 -66 -17t-52.5 -41t-36.5 -48t-23 -41l-7 -17v-758l123 -30v-31h-573v31l123 30v902l-123 30v31h184q55 0 99 -16t68.5 -38.5t41 -45t21.5 -38.5l6 -16q3 8 10 20t32.5 44t56.5 56.5t84.5 44.5t113.5 20q172 0 285.5 -101.5
t113.5 -236.5v-656l123 -30v-31h-266q-185 0 -185 184zM799 1178q-41 0 -78.5 16t-60 35t-51.5 35t-56 16q-38 0 -65 -27t-27 -65h-41q0 119 48 177t136 58q41 0 78.5 -16t60 -35t51.5 -35t56 -16q38 0 65 27t27 65h41q0 -119 -48 -177t-136 -58z" />
    <glyph glyph-name="ograve" unicode="&#xf2;" horiz-adv-x="1249" 
d="M625 10q38 0 70 23.5t61 77t46 156t17 245.5t-17 245.5t-46 156t-61 77t-70 23.5t-70 -23.5t-61.5 -77t-46.5 -156t-17 -245.5t17 -245.5t46.5 -156t61.5 -77t70 -23.5zM625 1055q253 0 397.5 -144.5t144.5 -398.5t-144.5 -398.5t-397.5 -144.5t-398 144.5t-145 398.5
t145 398.5t398 144.5zM328 1454h266l82 -307h-72z" />
    <glyph glyph-name="oacute" unicode="&#xf3;" horiz-adv-x="1228" 
d="M614 10q38 0 70 23.5t61.5 77t46.5 156t17 245.5t-17 245.5t-46.5 156t-61.5 77t-70 23.5t-70 -23.5t-61 -77t-46 -156t-17 -245.5t17 -245.5t46 -156t61 -77t70 -23.5zM614 1055q254 0 398.5 -144.5t144.5 -398.5t-144.5 -398.5t-398.5 -144.5q-253 0 -397.5 144.5
t-144.5 398.5t144.5 398.5t397.5 144.5zM625 1454h266l-277 -307h-71z" />
    <glyph glyph-name="ocircumflex" unicode="&#xf4;" horiz-adv-x="1249" 
d="M625 10q38 0 70 23.5t61 77t46 156t17 245.5t-17 245.5t-46 156t-61 77t-70 23.5t-70 -23.5t-61.5 -77t-46.5 -156t-17 -245.5t17 -245.5t46.5 -156t61.5 -77t70 -23.5zM625 1055q253 0 397.5 -144.5t144.5 -398.5t-144.5 -398.5t-397.5 -144.5t-398 144.5t-145 398.5
t145 398.5t398 144.5zM328 1157l297 338l297 -338h-72l-225 143l-226 -143h-71z" />
    <glyph glyph-name="otilde" unicode="&#xf5;" horiz-adv-x="1249" 
d="M625 10q38 0 70 23.5t61 77t46 156t17 245.5t-17 245.5t-46 156t-61 77t-70 23.5t-70 -23.5t-61.5 -77t-46.5 -156t-17 -245.5t17 -245.5t46.5 -156t61.5 -77t70 -23.5zM625 1055q253 0 397.5 -144.5t144.5 -398.5t-144.5 -398.5t-397.5 -144.5t-398 144.5t-145 398.5
t145 398.5t398 144.5zM721 1178q-41 0 -78.5 16t-60 35t-51.5 35t-56 16q-38 0 -65 -27t-27 -65h-41q0 119 48 177t136 58q41 0 78.5 -16t60 -35t51.5 -35t56 -16q38 0 65 27t27 65h41q0 -119 -48 -177t-136 -58z" />
    <glyph glyph-name="odieresis" unicode="&#xf6;" horiz-adv-x="1249" 
d="M625 10q38 0 70 23.5t61 77t46 156t17 245.5t-17 245.5t-46 156t-61 77t-70 23.5t-70 -23.5t-61.5 -77t-46.5 -156t-17 -245.5t17 -245.5t46.5 -156t61.5 -77t70 -23.5zM625 1055q253 0 397.5 -144.5t144.5 -398.5t-144.5 -398.5t-397.5 -144.5t-398 144.5t-145 398.5
t145 398.5t398 144.5zM291 1321q0 61 40.5 102t102.5 41t103 -41t41 -102t-41 -102t-103 -41t-102.5 41t-40.5 102zM670 1321q0 61 41 102t102 41t102 -41t41 -102t-41 -102t-102 -41t-102 41t-41 102z" />
    <glyph glyph-name="divide" unicode="&#xf7;" horiz-adv-x="1024" 
d="M963 635h-902v92h902v-92zM666 307q0 -61 -46 -107t-108 -46t-108 46t-46 107t46 107.5t108 46.5t108 -46.5t46 -107.5zM666 1055q0 -61 -46 -107.5t-108 -46.5t-108 46.5t-46 107.5t46 107t108 46t108 -46t46 -107z" />
    <glyph glyph-name="oslash" unicode="&#xf8;" horiz-adv-x="1249" 
d="M1014 1024h71l-84 -102q78 -71 122 -176.5t44 -233.5q0 -254 -144.5 -398.5t-397.5 -144.5q-202 0 -334 97l-55 -66h-72l84 100q-78 73 -122 178.5t-44 233.5q0 254 145 398.5t398 144.5q195 0 333 -99zM625 10q38 0 70 23.5t61 77t46 156t17 245.5q0 78 -8 180
l-362 -436q43 -246 176 -246zM430 512q0 -111 8 -182l363 436q-24 132 -71.5 190t-104.5 58q-38 0 -70 -23.5t-61.5 -77t-46.5 -156t-17 -245.5z" />
    <glyph glyph-name="ugrave" unicode="&#xf9;" horiz-adv-x="1331" 
d="M51 1024h266q185 0 185 -184v-533q0 -128 46.5 -197t106.5 -69q34 0 66 17t52.5 41t36.5 48t23 41l7 17v758l-123 30v31h573v-31l-123 -30v-973h-20q-66 0 -119 17t-81 41t-47 48t-24 41l-6 17q-3 -8 -10 -20t-32.5 -44t-56.5 -56.5t-84.5 -44.5t-113.5 -20
q-172 0 -285.5 101.5t-113.5 236.5v656l-123 30v31zM358 1454h267l82 -307h-72z" />
    <glyph glyph-name="uacute" unicode="&#xfa;" horiz-adv-x="1331" 
d="M51 1024h266q185 0 185 -184v-533q0 -128 46.5 -197t106.5 -69q34 0 66 17t52.5 41t36.5 48t23 41l7 17v758l-123 30v31h573v-31l-123 -30v-973h-20q-66 0 -119 17t-81 41t-47 48t-24 41l-6 17q-3 -8 -10 -20t-32.5 -44t-56.5 -56.5t-84.5 -44.5t-113.5 -20
q-172 0 -285.5 101.5t-113.5 236.5v656l-123 30v31zM686 1434h266l-276 -308h-72z" />
    <glyph glyph-name="ucircumflex" unicode="&#xfb;" horiz-adv-x="1331" 
d="M51 1024h266q185 0 185 -184v-533q0 -128 46.5 -197t106.5 -69q34 0 66 17t52.5 41t36.5 48t23 41l7 17v758l-123 30v31h573v-31l-123 -30v-973h-20q-66 0 -119 17t-81 41t-47 48t-24 41l-6 17q-3 -8 -10 -20t-32.5 -44t-56.5 -56.5t-84.5 -44.5t-113.5 -20
q-172 0 -285.5 101.5t-113.5 236.5v656l-123 30v31zM379 1157l297 338l297 -338h-72l-225 143l-225 -143h-72z" />
    <glyph glyph-name="udieresis" unicode="&#xfc;" horiz-adv-x="1331" 
d="M51 1024h266q185 0 185 -184v-533q0 -128 46.5 -197t106.5 -69q34 0 66 17t52.5 41t36.5 48t23 41l7 17v758l-123 30v31h573v-31l-123 -30v-973h-20q-66 0 -119 17t-81 41t-47 48t-24 41l-6 17q-3 -8 -10 -20t-32.5 -44t-56.5 -56.5t-84.5 -44.5t-113.5 -20
q-172 0 -285.5 101.5t-113.5 236.5v656l-123 30v31zM342 1321q0 61 41 102t102 41q62 0 103 -41t41 -102t-41 -102t-103 -41q-61 0 -102 41t-41 102zM721 1321q0 61 40.5 102t102.5 41t103 -41t41 -102t-41 -102t-103 -41t-102.5 41t-40.5 102z" />
    <glyph glyph-name="yacute" unicode="&#xfd;" 
d="M748 377l215 555l-154 61v31h379v-31l-164 -61l-410 -1055q-65 -166 -139 -241.5t-168 -75.5q-92 0 -143 49.5t-51 134.5q0 76 41.5 120t111.5 44q18 0 38.5 -2.5t31.5 -5.5l12 -2v-277q56 8 103.5 65t101.5 191l41 103l-533 983l-102 30v31h256q107 0 169 -44t108 -130z
M649 1434h266l-276 -308h-72z" />
    <glyph glyph-name="thorn" unicode="&#xfe;" horiz-adv-x="1280" 
d="M61 1434h267q184 0 184 -185v-327q4 5 11 14t32.5 32t54 40.5t74 32t94.5 14.5q185 0 302.5 -142t117.5 -401q0 -262 -122.5 -402.5t-327.5 -140.5q-40 0 -79 8.5t-66 20.5t-48.5 24t-32.5 20l-10 9v-399l123 -31v-31h-574v31l123 31v1720l-123 31v31zM512 819v-706
l8.5 -8.5t22 -20t34 -25t42 -19.5t47.5 -9q42 0 72.5 20t57 70t40.5 148.5t14 242.5q0 471 -154 471q-32 0 -62.5 -17t-51.5 -41t-37.5 -48t-24.5 -41z" />
    <glyph glyph-name="ydieresis" unicode="&#xff;" 
d="M748 377l215 555l-154 61v31h379v-31l-164 -61l-410 -1055q-65 -166 -139 -241.5t-168 -75.5q-92 0 -143 49.5t-51 134.5q0 76 41.5 120t111.5 44q18 0 38.5 -2.5t31.5 -5.5l12 -2v-277q56 8 103.5 65t101.5 191l41 103l-533 983l-102 30v31h256q107 0 169 -44t108 -130z
M297 1321q0 61 40.5 102t102.5 41t103 -41t41 -102t-41 -102t-103 -41t-102.5 41t-40.5 102zM676 1321q0 61 41 102t102 41q62 0 103 -41t41 -102t-41 -102t-103 -41q-61 0 -102 41t-41 102z" />
    <glyph glyph-name="Amacron" unicode="&#x100;" horiz-adv-x="1392" 
d="M184 92l154 -61v-31h-379v31l164 61l563 1362h62l583 -1393l103 -30v-31h-246q-201 0 -275 174l-104 246h-490zM563 1010l-223 -539h448zM1004 1606h-533v92h533v-92z" />
    <glyph glyph-name="amacron" unicode="&#x101;" horiz-adv-x="1239" 
d="M481 481q-41 -92 -41 -215q0 -114 36 -169.5t87 -55.5q34 0 66 17t52.5 41t36.5 48t23 41l7 17v297q-55 0 -121.5 -5t-106.5 -11zM563 1055q241 0 376.5 -122t135.5 -319v-553l123 -30v-31h-184q-55 0 -99 16t-68.5 38.5t-41 45t-21.5 38.5l-6 16q-3 -8 -10 -20
t-32.5 -44t-56.5 -56.5t-84.5 -44.5t-113.5 -20q-184 0 -281.5 77.5t-97.5 199.5q0 55 18 111t36 85l18 29q33 8 90.5 20.5t209 35t274.5 26.5v61q0 117 -14.5 196t-45 123t-70.5 62.5t-96 18.5q-27 0 -52.5 -5t-37.5 -11l-12 -5v-307q-41 -10 -82 -10q-69 0 -111.5 42
t-42.5 111q0 94 96 160t283 66zM881 1229h-533v92h533v-92z" />
    <glyph glyph-name="Abreve" unicode="&#x102;" horiz-adv-x="1392" 
d="M184 92l154 -61v-31h-379v31l164 61l563 1362h62l583 -1393l103 -30v-31h-246q-201 0 -275 174l-104 246h-490zM563 1010l-223 -539h448zM717 1587q32 0 60 6t40 11l12 4v225q41 10 72 10q54 0 88.5 -34.5t34.5 -88.5q0 -76 -74.5 -125t-232.5 -49t-232.5 49t-74.5 125
q0 54 34 88.5t88 34.5q14 0 32 -2.5t29 -4.5l11 -3v-225l12 -4q12 -5 40.5 -11t60.5 -6z" />
    <glyph glyph-name="abreve" unicode="&#x103;" horiz-adv-x="1239" 
d="M481 481q-41 -92 -41 -215q0 -114 36 -169.5t87 -55.5q34 0 66 17t52.5 41t36.5 48t23 41l7 17v297q-55 0 -121.5 -5t-106.5 -11zM563 1055q241 0 376.5 -122t135.5 -319v-553l123 -30v-31h-184q-55 0 -99 16t-68.5 38.5t-41 45t-21.5 38.5l-6 16q-3 -8 -10 -20
t-32.5 -44t-56.5 -56.5t-84.5 -44.5t-113.5 -20q-184 0 -281.5 77.5t-97.5 199.5q0 55 18 111t36 85l18 29q33 8 90.5 20.5t209 35t274.5 26.5v61q0 117 -14.5 196t-45 123t-70.5 62.5t-96 18.5q-27 0 -52.5 -5t-37.5 -11l-12 -5v-307q-41 -10 -82 -10q-69 0 -111.5 42
t-42.5 111q0 94 96 160t283 66zM614 1219q32 0 60.5 5.5t40.5 9.5l12 5v225q41 11 72 11q54 0 88.5 -34.5t34.5 -88.5q0 -76 -75 -125t-233 -49t-232.5 49t-74.5 125q0 54 34.5 88.5t88.5 34.5q14 0 32 -2.5t29 -5.5l11 -3v-225l12 -5q12 -4 40 -9.5t60 -5.5z" />
    <glyph glyph-name="Aogonek" unicode="&#x104;" horiz-adv-x="1392" 
d="M184 92l154 -61v-31h-379v31l164 61l563 1362h62l583 -1393l103 -30v-31q-8 -3 -21 -9.5t-46.5 -30.5t-59.5 -51t-47 -71.5t-21 -93.5q0 -38 22 -60t60 -22q23 0 46 10t35 20l11 11v-61q-51 -31 -133 -31q-103 0 -159 44t-56 109q0 47 27 88t61.5 65.5t79.5 44.5t67 27
t39 11h-151q-201 0 -275 174l-104 246h-490zM563 1010l-223 -539h448z" />
    <glyph glyph-name="aogonek" unicode="&#x105;" horiz-adv-x="1239" 
d="M563 1055q241 0 376.5 -122t135.5 -319v-553l123 -30v-31q-8 -3 -21 -9.5t-46.5 -30.5t-59 -51t-46.5 -71.5t-21 -93.5q0 -38 21.5 -60t59.5 -22q23 0 46 10t35 20l12 11v-61q-52 -31 -134 -31q-103 0 -159 44t-56 109q0 39 18 74t48.5 60t61 44t65.5 31.5t52 18t30 8.5
h-90q-52 0 -95 15t-67.5 34t-42.5 44t-23 37.5t-8 21.5q-5 -11 -11.5 -22t-33 -43.5t-57.5 -55.5t-83.5 -42.5t-111.5 -19.5q-184 0 -281.5 77.5t-97.5 199.5q0 55 18 111t36 85l18 29q33 8 90.5 20.5t209 35t274.5 26.5v61q0 117 -14.5 196t-45 123t-70.5 62.5t-96 18.5
q-27 0 -52.5 -5t-37.5 -11l-12 -5v-307q-41 -10 -82 -10q-69 0 -111.5 42t-42.5 111q0 94 96 160t283 66zM481 481q-41 -92 -41 -215q0 -114 36 -169.5t87 -55.5q34 0 66 17t52.5 41t36.5 48t23 41l7 17v297q-55 0 -121.5 -5t-106.5 -11z" />
    <glyph glyph-name="Cacute" unicode="&#x106;" horiz-adv-x="1331" 
d="M739 1464q54 0 107.5 -13.5t91 -33t67.5 -39.5t45 -34l15 -13q18 32 46.5 60.5t47.5 40.5l19 12h51v-389h-82q-2 7 -6 20t-19 50.5t-33.5 71t-49.5 75t-67 71t-87 50t-107 20.5q-52 0 -97.5 -21t-88.5 -71.5t-73.5 -128t-49 -199.5t-18.5 -276q0 -697 378 -697
q147 0 263 118.5t116 271.5h52q0 -179 -137.5 -310t-334.5 -131q-326 0 -511 195.5t-185 552.5q0 353 177.5 550t469.5 197zM741 1843h267l-277 -307h-72z" />
    <glyph glyph-name="cacute" unicode="&#x107;" horiz-adv-x="1085" 
d="M676 1014q-57 0 -99.5 -23t-76.5 -77.5t-52 -155.5t-18 -246q0 -142 18 -240.5t52 -152t76.5 -76.5t99.5 -23q120 0 208.5 82.5t88.5 184.5h51q0 -128 -109 -223t-280 -95q-260 0 -406.5 144.5t-146.5 398.5t146.5 398.5t406.5 144.5q187 0 283 -66t96 -160
q0 -69 -42.5 -111t-111.5 -42q-18 0 -38.5 2.5t-31.5 5.5l-12 2v307q-41 21 -102 21zM604 1454h266l-276 -307h-72z" />
    <glyph glyph-name="Ccircumflex" unicode="&#x108;" horiz-adv-x="1331" 
d="M739 1464q54 0 107.5 -13.5t91 -33t67.5 -39.5t45 -34l15 -13q18 32 46.5 60.5t47.5 40.5l19 12h51v-389h-82q-2 7 -6 20t-19 50.5t-33.5 71t-49.5 75t-67 71t-87 50t-107 20.5q-52 0 -97.5 -21t-88.5 -71.5t-73.5 -128t-49 -199.5t-18.5 -276q0 -697 378 -697
q147 0 263 118.5t116 271.5h52q0 -179 -137.5 -310t-334.5 -131q-326 0 -511 195.5t-185 552.5q0 353 177.5 550t469.5 197zM414 1567l297 338l297 -338h-72l-225 143l-226 -143h-71z" />
    <glyph glyph-name="ccircumflex" unicode="&#x109;" horiz-adv-x="1085" 
d="M676 1014q-57 0 -99.5 -23t-76.5 -77.5t-52 -155.5t-18 -246q0 -142 18 -240.5t52 -152t76.5 -76.5t99.5 -23q120 0 208.5 82.5t88.5 184.5h51q0 -128 -109 -223t-280 -95q-260 0 -406.5 144.5t-146.5 398.5t146.5 398.5t406.5 144.5q187 0 283 -66t96 -160
q0 -69 -42.5 -111t-111.5 -42q-18 0 -38.5 2.5t-31.5 5.5l-12 2v307q-41 21 -102 21zM287 1157l297 338l297 -338h-72l-225 143l-226 -143h-71z" />
    <glyph glyph-name="Cdotaccent" unicode="&#x10a;" horiz-adv-x="1331" 
d="M739 1464q54 0 107.5 -13.5t91 -33t67.5 -39.5t45 -34l15 -13q18 32 46.5 60.5t47.5 40.5l19 12h51v-389h-82q-2 7 -6 20t-19 50.5t-33.5 71t-49.5 75t-67 71t-87 50t-107 20.5q-52 0 -97.5 -21t-88.5 -71.5t-73.5 -128t-49 -199.5t-18.5 -276q0 -697 378 -697
q147 0 263 118.5t116 271.5h52q0 -179 -137.5 -310t-334.5 -131q-326 0 -511 195.5t-185 552.5q0 353 177.5 550t469.5 197zM588 1731q0 61 41 102t102 41t102 -41t41 -102q0 -62 -41 -103t-102 -41t-102 41t-41 103z" />
    <glyph glyph-name="cdotaccent" unicode="&#x10b;" horiz-adv-x="1085" 
d="M676 1014q-57 0 -99.5 -23t-76.5 -77.5t-52 -155.5t-18 -246q0 -142 18 -240.5t52 -152t76.5 -76.5t99.5 -23q120 0 208.5 82.5t88.5 184.5h51q0 -128 -109 -223t-280 -95q-260 0 -406.5 144.5t-146.5 398.5t146.5 398.5t406.5 144.5q187 0 283 -66t96 -160
q0 -69 -42.5 -111t-111.5 -42q-18 0 -38.5 2.5t-31.5 5.5l-12 2v307q-41 21 -102 21zM461 1321q0 61 40.5 102t102.5 41t103 -41t41 -102t-41 -102t-103 -41t-102.5 41t-40.5 102z" />
    <glyph glyph-name="Ccaron" unicode="&#x10c;" horiz-adv-x="1331" 
d="M739 1464q54 0 107.5 -13.5t91 -33t67.5 -39.5t45 -34l15 -13q18 32 46.5 60.5t47.5 40.5l19 12h51v-389h-82q-2 7 -6 20t-19 50.5t-33.5 71t-49.5 75t-67 71t-87 50t-107 20.5q-52 0 -97.5 -21t-88.5 -71.5t-73.5 -128t-49 -199.5t-18.5 -276q0 -697 378 -697
q147 0 263 118.5t116 271.5h52q0 -179 -137.5 -310t-334.5 -131q-326 0 -511 195.5t-185 552.5q0 353 177.5 550t469.5 197zM1018 1874l-236 -307h-123l-235 307h72l225 -164l225 164h72z" />
    <glyph glyph-name="ccaron" unicode="&#x10d;" horiz-adv-x="1085" 
d="M676 1014q-57 0 -99.5 -23t-76.5 -77.5t-52 -155.5t-18 -246q0 -142 18 -240.5t52 -152t76.5 -76.5t99.5 -23q120 0 208.5 82.5t88.5 184.5h51q0 -128 -109 -223t-280 -95q-260 0 -406.5 144.5t-146.5 398.5t146.5 398.5t406.5 144.5q187 0 283 -66t96 -160
q0 -69 -42.5 -111t-111.5 -42q-18 0 -38.5 2.5t-31.5 5.5l-12 2v307q-41 21 -102 21zM860 1464l-235 -307h-123l-236 307h72l225 -164l225 164h72z" />
    <glyph glyph-name="Dcaron" unicode="&#x10e;" horiz-adv-x="1464" 
d="M102 1434h523q366 0 561.5 -188t195.5 -529t-195.5 -529t-561.5 -188h-523v31l123 30v1311l-123 31v31zM625 1382h-62v-1331h62q92 0 162.5 34t125 110t83 207t28.5 315t-28.5 315t-83 206.5t-125 109.5t-162.5 34zM987 1864l-235 -308h-123l-236 308h72l225 -164
l225 164h72z" />
    <glyph glyph-name="dcaron" unicode="&#x10f;" horiz-adv-x="1556" 
d="M768 205v706l-8.5 8.5t-22 20t-34 25t-42 19.5t-47.5 9q-42 0 -72.5 -20t-57 -70t-40.5 -148.5t-14 -242.5q0 -471 154 -471q34 0 66 17t52.5 41t36 48t22.5 41zM645 1434h266q185 0 185 -185v-1188l123 -30v-31h-185q-55 0 -99 16t-68.5 38.5t-40.5 45t-22 38.5l-5 16
q-3 -8 -10 -20t-32.5 -44t-56.5 -56.5t-84.5 -44.5t-113.5 -20q-185 0 -302.5 142t-117.5 401q0 262 122.5 402.5t327.5 140.5q40 0 79 -8.5t66 -20.5t48.5 -24t32.5 -20l10 -9v399l-123 31v31zM1280 922l-20 41q6 2 15.5 6.5t36 22t48.5 39.5t43.5 61.5t30.5 85.5
q-31 -31 -82 -31q-62 0 -103 41t-41 102q0 62 41 103t103 41q70 0 111.5 -45.5t41.5 -128.5q0 -54 -12.5 -102t-32.5 -81.5t-44 -61t-47.5 -44.5t-43.5 -28.5t-33 -16.5z" />
    <glyph glyph-name="Dcroat" unicode="&#x110;" horiz-adv-x="1474" 
d="M102 758h134v614l-123 31v31h522q366 0 562 -188t196 -529t-196 -529t-562 -188h-522v31l123 30v635h-134v62zM635 1382h-62v-624h246v-62h-246v-645h62q92 0 162.5 34t125 110t83 207t28.5 315t-28.5 315t-83 206.5t-125 109.5t-162.5 34z" />
    <glyph glyph-name="dcroat" unicode="&#x111;" horiz-adv-x="1280" 
d="M645 1434h266q185 0 185 -185v-41h133v-61h-133v-1086l123 -30v-31h-185q-55 0 -99 16t-68.5 38.5t-40.5 45t-22 38.5l-5 16q-3 -8 -10 -20t-32.5 -44t-56.5 -56.5t-84.5 -44.5t-113.5 -20q-184 0 -302 138.5t-118 384.5q0 248 123 385t327 137q40 0 79 -8.5t66 -20.5
t48.5 -24t32.5 -21l10 -8v215h-256v61h256v164l-123 31v31zM768 205v665l-8 8q-8 8 -23 20t-33 24.5t-42.5 21t-47.5 8.5q-33 0 -58.5 -11t-50 -42t-40.5 -81t-25.5 -132.5t-9.5 -193.5q0 -132 13.5 -225t37 -140t48.5 -66.5t55 -19.5q34 0 66 17t52.5 41t36 48t22.5 41z
" />
    <glyph glyph-name="Emacron" unicode="&#x112;" horiz-adv-x="1320" 
d="M563 737h236q9 50 32 101.5t41 77.5l19 26h61v-461h-61q-8 10 -20.5 28.5t-37.5 72.5t-34 104h-236v-635h481q0 60 14 115t33.5 90.5t39 62t33.5 38.5l14 12h61v-369h-1137v31l123 30v1311l-123 31v31h1096v-369h-61q-5 4 -14 12t-32 37.5t-40.5 63t-32 89t-14.5 115.5
h-441v-645zM987 1626h-532v92h532v-92z" />
    <glyph glyph-name="emacron" unicode="&#x113;" 
d="M430 512q82 0 153.5 5t102.5 10l31 5q20 72 20 154q0 170 -45 249t-108 79q-154 0 -154 -502zM635 -31q-260 0 -406.5 144.5t-146.5 398.5q0 251 138 397t364 146q224 0 357.5 -118t133.5 -292q0 -32 -5 -63t-10 -46l-5 -14q-33 -7 -91.5 -17t-223 -27t-310.5 -17
q0 -123 18 -211t52 -137t77 -71t99 -22q120 0 208.5 82.5t88.5 184.5h51q0 -128 -109 -223t-280 -95zM850 1229h-533v92h533v-92z" />
    <glyph glyph-name="Ebreve" unicode="&#x114;" horiz-adv-x="1320" 
d="M563 737h236q9 50 32 101.5t41 77.5l19 26h61v-461h-61q-8 10 -20.5 28.5t-37.5 72.5t-34 104h-236v-635h481q0 60 14 115t33.5 90.5t39 62t33.5 38.5l14 12h61v-369h-1137v31l123 30v1311l-123 31v31h1096v-369h-61q-5 4 -14 12t-32 37.5t-40.5 63t-32 89t-14.5 115.5
h-441v-645zM700 1618q32 0 60.5 5.5t40.5 10.5l12 4v226q41 10 72 10q54 0 88.5 -34.5t34.5 -88.5q0 -76 -75 -125t-233 -49t-232.5 49t-74.5 125q0 54 34.5 88.5t88.5 34.5q14 0 32 -2.5t29 -5.5l11 -2v-226l12 -4q12 -5 40 -10.5t60 -5.5z" />
    <glyph glyph-name="ebreve" unicode="&#x115;" 
d="M430 512q82 0 153.5 5t102.5 10l31 5q20 72 20 154q0 170 -45 249t-108 79q-154 0 -154 -502zM635 -31q-260 0 -406.5 144.5t-146.5 398.5q0 251 138 397t364 146q224 0 357.5 -118t133.5 -292q0 -32 -5 -63t-10 -46l-5 -14q-33 -7 -91.5 -17t-223 -27t-310.5 -17
q0 -123 18 -211t52 -137t77 -71t99 -22q120 0 208.5 82.5t88.5 184.5h51q0 -128 -109 -223t-280 -95zM573 1219q32 0 60.5 5.5t40.5 9.5l12 5v225q41 11 72 11q54 0 88.5 -34.5t34.5 -88.5q0 -76 -75 -125t-233 -49t-232.5 49t-74.5 125q0 54 34.5 88.5t88.5 34.5
q14 0 32 -2.5t29 -5.5l11 -3v-225l12 -5q12 -4 40 -9.5t60 -5.5z" />
    <glyph glyph-name="Edotaccent" unicode="&#x116;" horiz-adv-x="1320" 
d="M563 737h236q9 50 32 101.5t41 77.5l19 26h61v-461h-61q-8 10 -20.5 28.5t-37.5 72.5t-34 104h-236v-635h481q0 60 14 115t33.5 90.5t39 62t33.5 38.5l14 12h61v-369h-1137v31l123 30v1311l-123 31v31h1096v-369h-61q-5 4 -14 12t-32 37.5t-40.5 63t-32 89t-14.5 115.5
h-441v-645zM578 1720q0 62 41 103t102 41t102 -41t41 -103t-41 -102.5t-102 -40.5t-102 40.5t-41 102.5z" />
    <glyph glyph-name="edotaccent" unicode="&#x117;" 
d="M430 512q82 0 153.5 5t102.5 10l31 5q20 72 20 154q0 170 -45 249t-108 79q-154 0 -154 -502zM635 -31q-260 0 -406.5 144.5t-146.5 398.5q0 251 138 397t364 146q224 0 357.5 -118t133.5 -292q0 -32 -5 -63t-10 -46l-5 -14q-33 -7 -91.5 -17t-223 -27t-310.5 -17
q0 -123 18 -211t52 -137t77 -71t99 -22q120 0 208.5 82.5t88.5 184.5h51q0 -128 -109 -223t-280 -95zM440 1321q0 61 41 102t103 41t102.5 -41t40.5 -102t-40.5 -102t-102.5 -41t-103 41t-41 102z" />
    <glyph glyph-name="Eogonek" unicode="&#x118;" horiz-adv-x="1320" 
d="M225 1372l-123 31v31h1096v-369h-61q-5 4 -14 12t-32 37.5t-40.5 63t-32 89t-14.5 115.5h-441v-645h236q9 50 32 101.5t41 77.5l19 26h61v-461h-61q-8 10 -20.5 28.5t-37.5 72.5t-34 104h-236v-635h481q0 60 14 115t33.5 90.5t39 62t33.5 38.5l14 12h61v-369h-328
q-8 -3 -21 -9.5t-46.5 -30.5t-59 -51t-46.5 -71.5t-21 -93.5q0 -38 22 -60t60 -22q23 0 46 10t35 20l11 11v-61q-51 -31 -133 -31q-103 0 -159 44t-56 109q0 47 27 88t61.5 65.5t79.5 44.5t67 27t39 11h-715v31l123 30v1311z" />
    <glyph glyph-name="eogonek" unicode="&#x119;" 
d="M420 -236q0 50 30.5 93t68.5 68t85 44q-245 7 -383.5 151.5t-138.5 391.5q0 251 138 397t364 146q224 0 357.5 -118t133.5 -292q0 -36 -5 -67t-10 -44l-5 -12q-33 -7 -91.5 -17t-223 -27t-310.5 -17q0 -123 18 -211t52 -137t77 -71t99 -22q120 0 208.5 82.5t88.5 184.5
h51q0 -102 -72.5 -186.5t-193.5 -114.5q-164 -96 -164 -242q0 -38 22 -60t60 -22q23 0 46 10t34 20l12 11v-61q-51 -31 -133 -31q-103 0 -159 44t-56 109zM430 512q82 0 153.5 5t102.5 10l31 5q20 72 20 154q0 170 -45 249t-108 79q-154 0 -154 -502z" />
    <glyph glyph-name="Ecaron" unicode="&#x11a;" horiz-adv-x="1320" 
d="M563 737h236q9 50 32 101.5t41 77.5l19 26h61v-461h-61q-8 10 -20.5 28.5t-37.5 72.5t-34 104h-236v-635h481q0 60 14 115t33.5 90.5t39 62t33.5 38.5l14 12h61v-369h-1137v31l123 30v1311l-123 31v31h1096v-369h-61q-5 4 -14 12t-32 37.5t-40.5 63t-32 89t-14.5 115.5
h-441v-645zM1018 1864l-236 -308h-123l-235 308h72l225 -164l225 164h72z" />
    <glyph glyph-name="ecaron" unicode="&#x11b;" 
d="M430 512q82 0 153.5 5t102.5 10l31 5q20 72 20 154q0 170 -45 249t-108 79q-154 0 -154 -502zM635 -31q-260 0 -406.5 144.5t-146.5 398.5q0 251 138 397t364 146q224 0 357.5 -118t133.5 -292q0 -32 -5 -63t-10 -46l-5 -14q-33 -7 -91.5 -17t-223 -27t-310.5 -17
q0 -123 18 -211t52 -137t77 -71t99 -22q120 0 208.5 82.5t88.5 184.5h51q0 -128 -109 -223t-280 -95zM891 1464l-236 -307h-123l-235 307h72l225 -164l225 164h72z" />
    <glyph glyph-name="Gcircumflex" unicode="&#x11c;" horiz-adv-x="1433" 
d="M748 41q34 0 66 17t52.5 41t36 48t22.5 41l7 17v471l-123 31v30h584v-30l-123 -31v-686h-31q-66 0 -119 17t-81 41t-46.5 48t-24.5 41l-5 17q-3 -8 -10 -20t-32.5 -44t-56.5 -56.5t-84.5 -44.5t-113.5 -20q-116 0 -219.5 50t-182.5 142.5t-125.5 236.5t-46.5 319
q0 353 177.5 550t469.5 197q54 0 107.5 -13.5t91 -33t67.5 -39.5t45 -34l15 -13q18 32 46.5 60.5t47.5 40.5l19 12h51v-389h-82q-2 7 -6 20t-19 50.5t-33.5 71t-49.5 75t-67 71t-87 50t-107 20.5q-52 0 -97.5 -21t-88.5 -71.5t-73.5 -128t-49 -199.5t-18.5 -276
q0 -155 16.5 -274.5t43.5 -194t66 -122.5t80.5 -66.5t90.5 -18.5zM430 1577l297 338l297 -338h-72l-225 143l-225 -143h-72z" />
    <glyph glyph-name="gcircumflex" unicode="&#x11d;" horiz-adv-x="1239" 
d="M573 1034q97 0 179 -19.5t129 -51.5q2 5 6.5 13t21 29t36.5 37.5t55 29.5t75 13q70 0 117 -49t47 -125q0 -60 -33 -96.5t-80 -36.5q-18 0 -36 2.5t-26 5.5l-9 2v246q-41 0 -74 -25.5t-46 -50.5l-13 -26q102 -86 102 -236q0 -153 -114.5 -245.5t-336.5 -92.5
q-145 0 -266 52q-3 -1 -8.5 -3.5t-20 -10t-25 -15.5t-19.5 -20t-9 -23q0 -34 35.5 -53t128.5 -19h389q154 0 241 -88.5t87 -249.5q0 -164 -136 -266t-407 -102q-112 0 -202 13.5t-147 36t-94.5 52.5t-53 60.5t-15.5 62.5q0 69 42.5 111.5t111.5 42.5q22 0 42.5 -2.5
t30.5 -5.5l9 -3v-286q123 -41 256 -41q129 0 225.5 20.5t150.5 56t79.5 77.5t25.5 91q0 60 -58.5 97t-187.5 37h-389q-154 0 -235.5 63.5t-81.5 161.5q0 46 20 86t48.5 64.5t57 42t48.5 24.5l20 8q-143 86 -143 266q0 153 114 245.5t336 92.5zM573 399q44 0 74.5 24t50 92
t19.5 181t-19.5 181t-50 92t-74.5 24t-74 -24t-49.5 -92t-19.5 -181t19.5 -181t49.5 -92t74 -24zM297 1147l297 338l297 -338h-72l-225 143l-225 -143h-72z" />
    <glyph glyph-name="Gbreve" unicode="&#x11e;" horiz-adv-x="1433" 
d="M748 41q34 0 66 17t52.5 41t36 48t22.5 41l7 17v471l-123 31v30h584v-30l-123 -31v-686h-31q-66 0 -119 17t-81 41t-46.5 48t-24.5 41l-5 17q-3 -8 -10 -20t-32.5 -44t-56.5 -56.5t-84.5 -44.5t-113.5 -20q-116 0 -219.5 50t-182.5 142.5t-125.5 236.5t-46.5 319
q0 353 177.5 550t469.5 197q54 0 107.5 -13.5t91 -33t67.5 -39.5t45 -34l15 -13q18 32 46.5 60.5t47.5 40.5l19 12h51v-389h-82q-2 7 -6 20t-19 50.5t-33.5 71t-49.5 75t-67 71t-87 50t-107 20.5q-52 0 -97.5 -21t-88.5 -71.5t-73.5 -128t-49 -199.5t-18.5 -276
q0 -155 16.5 -274.5t43.5 -194t66 -122.5t80.5 -66.5t90.5 -18.5zM717 1618q32 0 60 5.5t40 10.5l12 4v226q41 10 72 10q54 0 88.5 -34.5t34.5 -88.5q0 -76 -74.5 -125t-232.5 -49t-232.5 49t-74.5 125q0 54 34 88.5t88 34.5q14 0 32 -2.5t29 -5.5l11 -2v-226l12 -4
q12 -5 40.5 -10.5t60.5 -5.5z" />
    <glyph glyph-name="gbreve" unicode="&#x11f;" horiz-adv-x="1239" 
d="M573 1034q97 0 179 -19.5t129 -51.5q2 5 6.5 13t21 29t36.5 37.5t55 29.5t75 13q70 0 117 -49t47 -125q0 -60 -33 -96.5t-80 -36.5q-18 0 -36 2.5t-26 5.5l-9 2v246q-41 0 -74 -25.5t-46 -50.5l-13 -26q102 -86 102 -236q0 -153 -114.5 -245.5t-336.5 -92.5
q-145 0 -266 52q-3 -1 -8.5 -3.5t-20 -10t-25 -15.5t-19.5 -20t-9 -23q0 -34 35.5 -53t128.5 -19h389q154 0 241 -88.5t87 -249.5q0 -164 -136 -266t-407 -102q-112 0 -202 13.5t-147 36t-94.5 52.5t-53 60.5t-15.5 62.5q0 69 42.5 111.5t111.5 42.5q22 0 42.5 -2.5
t30.5 -5.5l9 -3v-286q123 -41 256 -41q129 0 225.5 20.5t150.5 56t79.5 77.5t25.5 91q0 60 -58.5 97t-187.5 37h-389q-154 0 -235.5 63.5t-81.5 161.5q0 46 20 86t48.5 64.5t57 42t48.5 24.5l20 8q-143 86 -143 266q0 153 114 245.5t336 92.5zM573 399q44 0 74.5 24t50 92
t19.5 181t-19.5 181t-50 92t-74.5 24t-74 -24t-49.5 -92t-19.5 -181t19.5 -181t49.5 -92t74 -24zM573 1208q32 0 60.5 6t40.5 10l12 5v225q41 10 72 10q54 0 88.5 -34.5t34.5 -88.5q0 -76 -75 -125t-233 -49t-232.5 49t-74.5 125q0 54 34.5 88.5t88.5 34.5q14 0 32 -2.5
t29 -5.5l11 -2v-225l12 -5q12 -4 40 -10t60 -6z" />
    <glyph glyph-name="Gdotaccent" unicode="&#x120;" horiz-adv-x="1433" 
d="M748 41q34 0 66 17t52.5 41t36 48t22.5 41l7 17v471l-123 31v30h584v-30l-123 -31v-686h-31q-66 0 -119 17t-81 41t-46.5 48t-24.5 41l-5 17q-3 -8 -10 -20t-32.5 -44t-56.5 -56.5t-84.5 -44.5t-113.5 -20q-116 0 -219.5 50t-182.5 142.5t-125.5 236.5t-46.5 319
q0 353 177.5 550t469.5 197q54 0 107.5 -13.5t91 -33t67.5 -39.5t45 -34l15 -13q18 32 46.5 60.5t47.5 40.5l19 12h51v-389h-82q-2 7 -6 20t-19 50.5t-33.5 71t-49.5 75t-67 71t-87 50t-107 20.5q-52 0 -97.5 -21t-88.5 -71.5t-73.5 -128t-49 -199.5t-18.5 -276
q0 -155 16.5 -274.5t43.5 -194t66 -122.5t80.5 -66.5t90.5 -18.5zM584 1731q0 61 41 102t102 41t102 -41t41 -102q0 -62 -41 -103t-102 -41t-102 41t-41 103z" />
    <glyph glyph-name="gdotaccent" unicode="&#x121;" horiz-adv-x="1239" 
d="M573 1034q97 0 179 -19.5t129 -51.5q2 5 6.5 13t21 29t36.5 37.5t55 29.5t75 13q70 0 117 -49t47 -125q0 -60 -33 -96.5t-80 -36.5q-18 0 -36 2.5t-26 5.5l-9 2v246q-41 0 -74 -25.5t-46 -50.5l-13 -26q102 -86 102 -236q0 -153 -114.5 -245.5t-336.5 -92.5
q-145 0 -266 52q-3 -1 -8.5 -3.5t-20 -10t-25 -15.5t-19.5 -20t-9 -23q0 -34 35.5 -53t128.5 -19h389q154 0 241 -88.5t87 -249.5q0 -164 -136 -266t-407 -102q-112 0 -202 13.5t-147 36t-94.5 52.5t-53 60.5t-15.5 62.5q0 69 42.5 111.5t111.5 42.5q22 0 42.5 -2.5
t30.5 -5.5l9 -3v-286q123 -41 256 -41q129 0 225.5 20.5t150.5 56t79.5 77.5t25.5 91q0 60 -58.5 97t-187.5 37h-389q-154 0 -235.5 63.5t-81.5 161.5q0 46 20 86t48.5 64.5t57 42t48.5 24.5l20 8q-143 86 -143 266q0 153 114 245.5t336 92.5zM573 399q44 0 74.5 24t50 92
t19.5 181t-19.5 181t-50 92t-74.5 24t-74 -24t-49.5 -92t-19.5 -181t19.5 -181t49.5 -92t74 -24zM430 1311q0 61 41 102t102 41q62 0 103 -41t41 -102t-41.5 -102.5t-102.5 -41.5t-102 41t-41 103z" />
    <glyph glyph-name="Gcommaaccent" unicode="&#x122;" horiz-adv-x="1433" 
d="M748 41q34 0 66 17t52.5 41t36 48t22.5 41l7 17v471l-123 31v30h584v-30l-123 -31v-686h-31q-66 0 -119 17t-81 41t-46.5 48t-24.5 41l-5 17q-3 -8 -10 -20t-32.5 -44t-56.5 -56.5t-84.5 -44.5t-113.5 -20q-116 0 -219.5 50t-182.5 142.5t-125.5 236.5t-46.5 319
q0 353 177.5 550t469.5 197q54 0 107.5 -13.5t91 -33t67.5 -39.5t45 -34l15 -13q18 32 46.5 60.5t47.5 40.5l19 12h51v-389h-82q-2 7 -6 20t-19 50.5t-33.5 71t-49.5 75t-67 71t-87 50t-107 20.5q-52 0 -97.5 -21t-88.5 -71.5t-73.5 -128t-49 -199.5t-18.5 -276
q0 -155 16.5 -274.5t43.5 -194t66 -122.5t80.5 -66.5t90.5 -18.5zM649 -635l-20 41q6 2 15.5 6.5t36 22t48.5 39.5t43.5 61.5t30.5 85.5q-31 -31 -82 -31q-61 0 -102 41t-41 103t41 102.5t102 40.5q70 0 111.5 -45.5t41.5 -128.5q0 -54 -12.5 -102t-32.5 -81.5t-43.5 -61
t-47.5 -44.5t-44 -28.5t-32 -15.5z" />
    <glyph glyph-name="gcommaaccent" unicode="&#x123;" horiz-adv-x="1239" 
d="M573 1034q97 0 179 -19.5t129 -51.5q2 5 6.5 13t21 29t36.5 37.5t55 29.5t75 13q70 0 117 -49t47 -125q0 -60 -33 -96.5t-80 -36.5q-18 0 -36 2.5t-26 5.5l-9 2v246q-41 0 -74 -25.5t-46 -50.5l-13 -26q102 -86 102 -236q0 -153 -114.5 -245.5t-336.5 -92.5
q-145 0 -266 52q-3 -1 -8.5 -3.5t-20 -10t-25 -15.5t-19.5 -20t-9 -23q0 -34 35.5 -53t128.5 -19h389q154 0 241 -88.5t87 -249.5q0 -164 -136 -266t-407 -102q-112 0 -202 13.5t-147 36t-94.5 52.5t-53 60.5t-15.5 62.5q0 69 42.5 111.5t111.5 42.5q22 0 42.5 -2.5
t30.5 -5.5l9 -3v-286q123 -41 256 -41q129 0 225.5 20.5t150.5 56t79.5 77.5t25.5 91q0 60 -58.5 97t-187.5 37h-389q-154 0 -235.5 63.5t-81.5 161.5q0 46 20 86t48.5 64.5t57 42t48.5 24.5l20 8q-143 86 -143 266q0 153 114 245.5t336 92.5zM573 399q44 0 74.5 24t50 92
t19.5 181t-19.5 181t-50 92t-74.5 24t-74 -24t-49.5 -92t-19.5 -181t19.5 -181t49.5 -92t74 -24zM655 1679l21 -41q-6 -2 -15.5 -6.5t-36 -22t-48.5 -39.5t-43.5 -61.5t-30.5 -85.5q31 31 82 31q62 0 102.5 -41t40.5 -102q0 -62 -41 -103t-102 -41q-70 0 -112 45.5
t-42 128.5q0 54 12.5 102t32.5 81.5t43.5 61t47.5 44.5t44 28.5t32 15.5z" />
    <glyph glyph-name="Hcircumflex" unicode="&#x124;" horiz-adv-x="1566" 
d="M225 1372l-123 31v31h584v-31l-123 -31v-635h441v635l-123 31v31h583v-31l-123 -31v-1311l123 -30v-31h-583v31l123 30v625h-441v-625l123 -30v-31h-584v31l123 30v1311zM485 1567l297 338l297 -338h-71l-226 143l-225 -143h-72z" />
    <glyph glyph-name="hcircumflex" unicode="&#x125;" horiz-adv-x="1361" 
d="M870 184v533q0 128 -46.5 197t-106.5 69q-34 0 -66 -17t-52.5 -41t-36.5 -48t-23 -41l-7 -17v-758l123 -30v-31h-573v31l123 30v1311l-123 31v31h266q184 0 184 -185v-327q3 5 10 14t31 32t52.5 40.5t75 32t98.5 14.5q172 0 285.5 -101.5t113.5 -236.5v-656l123 -30v-31
h-266q-185 0 -185 184zM41 1516l297 337l297 -337h-72l-225 143l-225 -143h-72z" />
    <glyph glyph-name="hbar" unicode="&#x127;" horiz-adv-x="1372" 
d="M799 1116h-256v-256q3 5 10 14t31 32t52 40.5t74.5 32t98.5 14.5q172 0 285.5 -101.5t113.5 -236.5v-594l123 -30v-31h-266q-184 0 -184 184v471q0 128 -46.5 197.5t-107.5 69.5q-34 0 -66 -17t-52.5 -41t-36 -48t-22.5 -41l-7 -17v-697l123 -30v-31h-574v31l123 30v1055
h-133v51h133v205l-123 31v31h266q185 0 185 -185v-82h256v-51z" />
    <glyph glyph-name="Itilde" unicode="&#x128;" horiz-adv-x="768" 
d="M215 1372l-123 31v31h584v-31l-123 -31v-1311l123 -30v-31h-584v31l123 30v1311zM481 1587q-41 0 -78.5 16t-59.5 35.5t-51 35.5t-56 16q-38 0 -65.5 -27.5t-27.5 -65.5h-41q0 119 48.5 177.5t136.5 58.5q41 0 78.5 -16t59.5 -35t51 -35t56 -16q38 0 65.5 27t27.5 65h41
q0 -119 -48.5 -177.5t-136.5 -58.5z" />
    <glyph glyph-name="itilde" unicode="&#x129;" horiz-adv-x="702" 
d="M88 1024h266q185 0 185 -184v-779l123 -30v-31h-574v31l123 30v902l-123 30v31zM451 1178q-41 0 -78.5 16t-60 35t-51.5 35t-56 16q-38 0 -65 -27t-27 -65h-41q0 119 48 177t136 58q41 0 78.5 -16t60 -35t51.5 -35t56 -16q38 0 65 27t27 65h41q0 -119 -48 -177t-136 -58z
" />
    <glyph glyph-name="Imacron" unicode="&#x12a;" horiz-adv-x="788" 
d="M225 1372l-123 31v31h584v-31l-123 -31v-1311l123 -30v-31h-584v31l123 30v1311zM655 1597h-532v93h532v-93z" />
    <glyph glyph-name="imacron" unicode="&#x12b;" horiz-adv-x="696" 
d="M82 1024h266q184 0 184 -184v-779l123 -30v-31h-573v31l123 30v902l-123 30v31zM614 1229h-532v92h532v-92z" />
    <glyph glyph-name="Ibreve" unicode="&#x12c;" horiz-adv-x="788" 
d="M225 1372l-123 31v31h584v-31l-123 -31v-1311l123 -30v-31h-584v31l123 30v1311zM399 1608q32 0 60.5 5.5t40.5 10.5l12 4v225q41 11 72 11q54 0 88.5 -34.5t34.5 -88.5q0 -76 -75 -125t-233 -49t-232.5 49t-74.5 125q0 54 34.5 88.5t88.5 34.5q14 0 32 -3t29 -5l11 -3
v-225l12 -4q12 -5 40 -10.5t60 -5.5z" />
    <glyph glyph-name="ibreve" unicode="&#x12d;" horiz-adv-x="696" 
d="M82 1024h266q184 0 184 -184v-779l123 -30v-31h-573v31l123 30v902l-123 30v31zM348 1198q32 0 60.5 6t40.5 10l12 5v225q40 10 71 10q54 0 88.5 -34.5t34.5 -88.5q0 -76 -74.5 -125t-232.5 -49t-232.5 49t-74.5 125q0 54 34.5 88.5t88.5 34.5q14 0 32 -2.5t29 -5.5
l11 -2v-225l12 -5q12 -4 40 -10t60 -6z" />
    <glyph glyph-name="Iogonek" unicode="&#x12e;" horiz-adv-x="788" 
d="M225 1372l-123 31v31h584v-31l-123 -31v-1311l123 -30v-31h-123q-8 -3 -21 -9.5t-46.5 -30.5t-59 -51t-46.5 -71.5t-21 -93.5q0 -38 22 -60t60 -22q23 0 46 10t35 20l11 11v-61q-51 -31 -133 -31q-103 0 -159 44t-56 109q0 47 27 88t61.5 65.5t79.5 44.5t67 27t39 11
h-367v31l123 30v1311z" />
    <glyph glyph-name="iogonek" unicode="&#x12f;" horiz-adv-x="696" 
d="M82 1024h266q184 0 184 -184v-779l123 -30v-31h-123q-8 -3 -21 -9.5t-46.5 -30.5t-59 -51t-46.5 -71.5t-21 -93.5q0 -38 22 -60t60 -22q23 0 46 10t34 20l12 11v-61q-51 -31 -133 -31q-103 0 -159 44t-56 109q0 47 27 88t61.5 65.5t79.5 44.5t67 27t39 11h-356v31l123 30
v902l-123 30v31zM195 1280q0 69 52.5 121.5t121.5 52.5t121.5 -52.5t52.5 -121.5t-52.5 -121.5t-121.5 -52.5t-121.5 52.5t-52.5 121.5z" />
    <glyph glyph-name="Idotaccent" unicode="&#x130;" horiz-adv-x="788" 
d="M225 1372l-123 31v31h584v-31l-123 -31v-1311l123 -30v-31h-584v31l123 30v1311zM250 1720q0 62 41 103t102 41t102.5 -41t41.5 -103q0 -61 -41 -102t-103 -41q-61 0 -102 40.5t-41 102.5z" />
    <glyph glyph-name="dotlessi" unicode="&#x131;" horiz-adv-x="696" 
d="M82 1024h266q184 0 184 -184v-779l123 -30v-31h-573v31l123 30v902l-123 30v31z" />
    <glyph glyph-name="ij" unicode="&#x133;" horiz-adv-x="1310" 
d="M645 -102v-287q21 -10 41 -10q29 0 53 16t45 52.5t33 105t12 164.5v1034h-297v-912l123 -30v-31h-573v31l123 30v902l-123 30v31h891q184 0 184 -184v-901q0 -166 -120 -272.5t-330 -106.5q-154 0 -225.5 52t-71.5 142q0 69 42 111.5t111 42.5q18 0 38.5 -2.5t32.5 -5.5z
M819 1280q0 69 52.5 121.5t121.5 52.5t121.5 -52.5t52.5 -121.5t-52.5 -121.5t-121.5 -52.5t-121.5 52.5t-52.5 121.5zM195 1280q0 69 52.5 121.5t121.5 52.5t121.5 -52.5t52.5 -121.5t-52.5 -121.5t-121.5 -52.5t-121.5 52.5t-52.5 121.5z" />
    <glyph glyph-name="Jcircumflex" unicode="&#x134;" horiz-adv-x="1126" 
d="M338 10q246 0 246 400v962l-123 31v31h583v-31l-122 -31v-962q0 -213 -133 -327t-410 -114q-187 0 -283 66t-96 160q0 69 42.5 111t111.5 42q18 0 38.5 -2.5t31.5 -5.5l12 -2v-307q41 -21 102 -21zM444 1556l297 338l297 -338h-71l-226 144l-225 -144h-72z" />
    <glyph glyph-name="jcircumflex" unicode="&#x135;" horiz-adv-x="696" 
d="M10 -102v-287q21 -10 41 -10q63 0 103.5 77.5t40.5 260.5v1024l-123 30v31h266q184 0 184 -184v-901q0 -166 -120 -272.5t-330 -106.5q-154 0 -225.5 52t-71.5 142q0 69 42 111.5t111 42.5q18 0 38.5 -2.5t31.5 -5.5zM20 1157l297 338l297 -338h-71l-226 143l-225 -143
h-72z" />
    <glyph glyph-name="Kcommaaccent" unicode="&#x136;" horiz-adv-x="1413" 
d="M1331 61l103 -30v-31h-287q-162 0 -277 174l-307 471v-584l123 -30v-31h-584v31l123 30v1311l-123 31v31h584v-31l-123 -31v-643l502 612l-154 62v31h389v-31l-163 -62l-359 -440zM696 -584l-20 41q6 2 15.5 6.5t36 22t48.5 39.5t43.5 61.5t30.5 85.5q-31 -30 -82 -30
q-62 0 -102.5 41t-40.5 102t40.5 102t102.5 41q70 0 112 -45.5t42 -128.5q0 -74 -23.5 -136.5t-56.5 -98t-66 -60.5t-56 -34z" />
    <glyph glyph-name="kcommaaccent" unicode="&#x137;" horiz-adv-x="1228" 
d="M82 1434h266q184 0 184 -185v-717l379 400l-153 61v31h389v-31l-164 -61l-235 -246l399 -625l102 -30v-31h-266q-99 0 -161 44t-115 130l-175 277v-390l123 -30v-31h-573v31l123 30v1311l-123 31v31zM604 -604l-20 41q6 2 15.5 6.5t36 22t48.5 39.5t43.5 61.5t30.5 85.5
q-31 -31 -82 -31q-62 0 -103 41t-41 102q0 62 41 103t103 41q70 0 111.5 -45.5t41.5 -128.5q0 -54 -12.5 -102t-32.5 -81.5t-44 -61t-47.5 -44.5t-43.5 -28.5t-33 -16.5z" />
    <glyph glyph-name="kgreenlandic" unicode="&#x138;" horiz-adv-x="1228" 
d="M82 1024h266q184 0 184 -184v-308l379 400l-153 61v31h389v-31l-164 -61l-235 -246l399 -625l102 -30v-31h-266q-99 0 -161 44t-115 130l-175 277v-390l123 -30v-31h-573v31l123 30v902l-123 30v31z" />
    <glyph glyph-name="Lacute" unicode="&#x139;" horiz-adv-x="1249" 
d="M102 1434h584v-31l-123 -31v-1321h441q0 60 13.5 115t33 90.5t39.5 62t34 38.5l13 12h61v-369h-1096v31l123 30v1311l-123 31v31zM410 1843h266l-277 -307h-71z" />
    <glyph glyph-name="lacute" unicode="&#x13a;" horiz-adv-x="696" 
d="M82 1434h266q184 0 184 -185v-1188l123 -30v-31h-573v31l123 30v1311l-123 31v31zM362 1843h267l-277 -307h-71z" />
    <glyph glyph-name="Lcommaaccent" unicode="&#x13b;" horiz-adv-x="1249" 
d="M102 1434h584v-31l-123 -31v-1321h441q0 60 13.5 115t33 90.5t39.5 62t34 38.5l13 12h61v-369h-1096v31l123 30v1311l-123 31v31zM649 -625l-20 41q6 2 15.5 6.5t36 22t48.5 39.5t43.5 61.5t30.5 85.5q-31 -30 -82 -30q-61 0 -102 40.5t-41 102.5t41 102.5t102 40.5
q70 0 111.5 -45.5t41.5 -128.5q0 -54 -12.5 -102t-32.5 -81.5t-43.5 -61t-47.5 -44.5t-44 -28.5t-32 -15.5z" />
    <glyph glyph-name="lcommaaccent" unicode="&#x13c;" horiz-adv-x="696" 
d="M82 1434h266q184 0 184 -185v-1188l123 -30v-31h-573v31l123 30v1311l-123 31v31zM303 -625l-20 41q6 2 15.5 6.5t36 22t48.5 39.5t43.5 61.5t30.5 85.5q-31 -30 -82 -30q-62 0 -103 41t-41 102t41 102t103 41q70 0 111.5 -45.5t41.5 -128.5q0 -54 -12.5 -102
t-32.5 -81.5t-44 -61t-47.5 -44.5t-43.5 -28.5t-32 -15.5z" />
    <glyph glyph-name="Lcaron" unicode="&#x13d;" horiz-adv-x="1249" 
d="M102 1434h584v-31l-123 -31v-1321h441q0 60 13.5 115t33 90.5t39.5 62t34 38.5l13 12h61v-369h-1096v31l123 30v1311l-123 31v31zM823 920l-20 41q6 2 15.5 6.5t36 22t48.5 39.5t43.5 61.5t30.5 85.5q-31 -31 -82 -31q-61 0 -102 40.5t-41 102.5t41 103t102 41
q70 0 112 -46t42 -129q0 -74 -23.5 -136.5t-56.5 -98t-66 -60t-57 -33.5z" />
    <glyph glyph-name="lcaron" unicode="&#x13e;" horiz-adv-x="993" 
d="M82 1434h266q184 0 184 -185v-1188l123 -30v-31h-573v31l123 30v1311l-123 31v31zM717 922l-21 41q6 2 15.5 6.5t36 22t48.5 39.5t43.5 61.5t30.5 85.5q-31 -31 -82 -31q-62 0 -102.5 40.5t-40.5 102.5t41 103t102 41q70 0 112 -45.5t42 -128.5q0 -54 -12.5 -102
t-32.5 -81.5t-43.5 -61t-47.5 -44.5t-44 -28.5t-32 -16.5z" />
    <glyph glyph-name="Ldot" unicode="&#x13f;" horiz-adv-x="1249" 
d="M102 1434h584v-31l-123 -31v-1321h441q0 60 13.5 115t33 90.5t39.5 62t34 38.5l13 12h61v-369h-1096v31l123 30v1311l-123 31v31zM707 717q0 61 40.5 102t102.5 41t102.5 -41t40.5 -102q0 -62 -41 -103t-102 -41t-102 41t-41 103z" />
    <glyph glyph-name="ldot" unicode="&#x140;" horiz-adv-x="993" 
d="M82 1434h266q184 0 184 -185v-1188l123 -30v-31h-573v31l123 30v1311l-123 31v31zM645 717q0 61 40.5 102t102.5 41t103 -41t41 -102t-41 -102.5t-103 -41.5q-61 0 -102 41t-41 103z" />
    <glyph glyph-name="Lslash" unicode="&#x141;" horiz-adv-x="1269" 
d="M123 1434h584v-31l-123 -31v-448l164 100v-72l-164 -100v-801h440q0 60 13.5 115t33 90.5t39.5 62t34 38.5l13 12h62v-369h-1096v31l123 30v586l-174 -104v71l174 105v653l-123 31v31z" />
    <glyph glyph-name="lslash" unicode="&#x142;" horiz-adv-x="747" 
d="M92 1434h266q185 0 185 -185v-325l164 100v-72l-164 -100v-791l123 -30v-31h-574v31l123 30v588l-174 -106v71l174 107v651l-123 31v31z" />
    <glyph glyph-name="Nacute" unicode="&#x143;" horiz-adv-x="1515" 
d="M1239 522v819l-164 62v31h389v-31l-164 -62v-1372h-61l-952 1116v-993l164 -61v-31h-390v31l164 61v1270l-143 41v31h215q58 0 105 -12.5t82.5 -38t54.5 -44t45 -49.5zM772 1823h266l-276 -307h-72z" />
    <glyph glyph-name="nacute" unicode="&#x144;" horiz-adv-x="1361" 
d="M870 184v533q0 128 -46.5 197t-106.5 69q-34 0 -66 -17t-52.5 -41t-36.5 -48t-23 -41l-7 -17v-758l123 -30v-31h-573v31l123 30v902l-123 30v31h184q55 0 99 -16t68.5 -38.5t41 -45t21.5 -38.5l6 -16q3 8 10 20t32.5 44t56.5 56.5t84.5 44.5t113.5 20q172 0 285.5 -101.5
t113.5 -236.5v-656l123 -30v-31h-266q-185 0 -185 184zM711 1454h266l-277 -307h-71z" />
    <glyph glyph-name="Ncommaaccent" unicode="&#x145;" horiz-adv-x="1515" 
d="M1239 522v819l-164 62v31h389v-31l-164 -62v-1372h-61l-952 1116v-993l164 -61v-31h-390v31l164 61v1270l-143 41v31h215q58 0 105 -12.5t82.5 -38t54.5 -44t45 -49.5zM686 -502l-20 41q6 2 15.5 6.5t36 22t48.5 39.5t43.5 61.5t30.5 85.5q-31 -30 -82 -30q-62 0 -103 41
t-41 102t41 102t103 41q70 0 111.5 -45.5t41.5 -128.5q0 -54 -12.5 -102t-32.5 -81.5t-44 -61t-47.5 -44.5t-43.5 -28.5t-33 -16.5z" />
    <glyph glyph-name="ncommaaccent" unicode="&#x146;" horiz-adv-x="1361" 
d="M870 184v533q0 128 -46.5 197t-106.5 69q-34 0 -66 -17t-52.5 -41t-36.5 -48t-23 -41l-7 -17v-758l123 -30v-31h-573v31l123 30v902l-123 30v31h184q55 0 99 -16t68.5 -38.5t41 -45t21.5 -38.5l6 -16q3 8 10 20t32.5 44t56.5 56.5t84.5 44.5t113.5 20q172 0 285.5 -101.5
t113.5 -236.5v-656l123 -30v-31h-266q-185 0 -185 184zM666 -604l-21 41q6 2 15.5 6.5t36 22t48.5 39.5t43.5 61.5t30.5 85.5q-31 -31 -82 -31q-61 0 -102 40.5t-41 102.5t41 103t102 41q70 0 112 -45.5t42 -128.5q0 -54 -12.5 -102t-32.5 -81.5t-44 -61t-47.5 -44.5
t-43.5 -28.5t-33 -16.5z" />
    <glyph glyph-name="Ncaron" unicode="&#x147;" horiz-adv-x="1515" 
d="M1239 522v819l-164 62v31h389v-31l-164 -62v-1372h-61l-952 1116v-993l164 -61v-31h-390v31l164 61v1270l-143 41v31h215q58 0 105 -12.5t82.5 -38t54.5 -44t45 -49.5zM1079 1823l-235 -307h-123l-236 307h72l225 -164l226 164h71z" />
    <glyph glyph-name="ncaron" unicode="&#x148;" horiz-adv-x="1361" 
d="M870 184v533q0 128 -46.5 197t-106.5 69q-34 0 -66 -17t-52.5 -41t-36.5 -48t-23 -41l-7 -17v-758l123 -30v-31h-573v31l123 30v902l-123 30v31h184q55 0 99 -16t68.5 -38.5t41 -45t21.5 -38.5l6 -16q3 8 10 20t32.5 44t56.5 56.5t84.5 44.5t113.5 20q172 0 285.5 -101.5
t113.5 -236.5v-656l123 -30v-31h-266q-185 0 -185 184zM967 1464l-236 -307h-123l-235 307h71l226 -164l225 164h72z" />
    <glyph glyph-name="Omacron" unicode="&#x14c;" horiz-adv-x="1515" 
d="M1065 717q0 157 -18.5 281.5t-48.5 202.5t-70.5 129.5t-82.5 72t-87 20.5t-87 -20.5t-82.5 -72t-70.5 -129.5t-48.5 -202.5t-18.5 -281.5t18.5 -281.5t48.5 -202.5t70.5 -129.5t82.5 -72.5t87 -21t87 21t82.5 72.5t70.5 129.5t48.5 202.5t18.5 281.5zM1423 717
q0 -355 -180 -551.5t-485 -196.5t-485.5 196.5t-180.5 551.5t180.5 551t485.5 196t485 -196t180 -551zM1024 1628h-532v92h532v-92z" />
    <glyph glyph-name="omacron" unicode="&#x14d;" horiz-adv-x="1249" 
d="M625 10q38 0 70 23.5t61 77t46 156t17 245.5t-17 245.5t-46 156t-61 77t-70 23.5t-70 -23.5t-61.5 -77t-46.5 -156t-17 -245.5t17 -245.5t46.5 -156t61.5 -77t70 -23.5zM625 1055q253 0 397.5 -144.5t144.5 -398.5t-144.5 -398.5t-397.5 -144.5t-398 144.5t-145 398.5
t145 398.5t398 144.5zM891 1229h-533v92h533v-92z" />
    <glyph glyph-name="Obreve" unicode="&#x14e;" horiz-adv-x="1515" 
d="M1065 717q0 157 -18.5 281.5t-48.5 202.5t-70.5 129.5t-82.5 72t-87 20.5t-87 -20.5t-82.5 -72t-70.5 -129.5t-48.5 -202.5t-18.5 -281.5t18.5 -281.5t48.5 -202.5t70.5 -129.5t82.5 -72.5t87 -21t87 21t82.5 72.5t70.5 129.5t48.5 202.5t18.5 281.5zM1423 717
q0 -355 -180 -551.5t-485 -196.5t-485.5 196.5t-180.5 551.5t180.5 551t485.5 196t485 -196t180 -551zM758 1608q32 0 60 5.5t40 10.5l12 4v225q41 11 72 11q54 0 88.5 -34.5t34.5 -88.5q0 -76 -74.5 -125t-232.5 -49t-232.5 49t-74.5 125q0 54 34 88.5t88 34.5q14 0 32 -3
t29 -5l11 -3v-225l12 -4q12 -5 40.5 -10.5t60.5 -5.5z" />
    <glyph glyph-name="obreve" unicode="&#x14f;" horiz-adv-x="1249" 
d="M625 10q38 0 70 23.5t61 77t46 156t17 245.5t-17 245.5t-46 156t-61 77t-70 23.5t-70 -23.5t-61.5 -77t-46.5 -156t-17 -245.5t17 -245.5t46.5 -156t61.5 -77t70 -23.5zM625 1055q253 0 397.5 -144.5t144.5 -398.5t-144.5 -398.5t-397.5 -144.5t-398 144.5t-145 398.5
t145 398.5t398 144.5zM625 1219q32 0 60 5.5t40 9.5l12 5v225q41 11 72 11q54 0 88.5 -34.5t34.5 -88.5q0 -76 -74.5 -125t-232.5 -49t-233 49t-75 125q0 54 34.5 88.5t88.5 34.5q14 0 32 -2.5t29 -5.5l11 -3v-225l12 -5q12 -4 40.5 -9.5t60.5 -5.5z" />
    <glyph glyph-name="Ohungarumlaut" unicode="&#x150;" horiz-adv-x="1515" 
d="M1065 717q0 157 -18.5 281.5t-48.5 202.5t-70.5 129.5t-82.5 72t-87 20.5t-87 -20.5t-82.5 -72t-70.5 -129.5t-48.5 -202.5t-18.5 -281.5t18.5 -281.5t48.5 -202.5t70.5 -129.5t82.5 -72.5t87 -21t87 21t82.5 72.5t70.5 129.5t48.5 202.5t18.5 281.5zM1423 717
q0 -355 -180 -551.5t-485 -196.5t-485.5 196.5t-180.5 551.5t180.5 551t485.5 196t485 -196t180 -551zM670 1853h204l-225 -307h-71zM936 1853h205l-226 -307h-71z" />
    <glyph glyph-name="ohungarumlaut" unicode="&#x151;" horiz-adv-x="1249" 
d="M625 10q38 0 70 23.5t61 77t46 156t17 245.5t-17 245.5t-46 156t-61 77t-70 23.5t-70 -23.5t-61.5 -77t-46.5 -156t-17 -245.5t17 -245.5t46.5 -156t61.5 -77t70 -23.5zM625 1055q253 0 397.5 -144.5t144.5 -398.5t-144.5 -398.5t-397.5 -144.5t-398 144.5t-145 398.5
t145 398.5t398 144.5zM516 1454h205l-225 -307h-72zM782 1454h205l-225 -307h-72z" />
    <glyph glyph-name="OE" unicode="&#x152;" horiz-adv-x="2017" 
d="M850 1434h1044v-369h-61q-5 4 -14 12t-32 37.5t-40.5 63t-32 89t-14.5 115.5h-420v-645h215q9 50 32 101.5t41 77.5l19 26h62v-461h-62q-8 10 -20.5 28.5t-37.5 72.5t-34 104h-215v-635h461q0 60 13.5 115t33 90.5t39.5 62t33 38.5l14 12h61v-369h-1085q-366 0 -562 188
t-196 529t196 529t562 188zM942 1382h-92q-92 0 -162.5 -34t-125 -109.5t-83 -206.5t-28.5 -315t28.5 -315t83 -207t125 -110t162.5 -34h92v1331z" />
    <glyph glyph-name="oe" unicode="&#x153;" horiz-adv-x="1873" 
d="M1362 -31q-77 0 -144.5 19t-108.5 46t-71 54.5t-42 46.5l-13 19q-3 -8 -10.5 -20t-37.5 -44t-69 -56.5t-109 -44.5t-153 -20q-239 0 -380.5 145.5t-141.5 397.5t141.5 397.5t380.5 145.5q61 0 114.5 -10t91 -26.5t68.5 -36.5t50 -39.5t32 -36t18 -26.5l5 -10
q2 4 5.5 10.5t17 26t30.5 37t46.5 38.5t63 36.5t82.5 26t103 10.5q210 0 340.5 -118.5t130.5 -291.5q0 -36 -5 -67t-10 -44l-5 -12q-33 -7 -91.5 -17t-223 -27t-310.5 -17q0 -123 18 -211t52 -137t77 -71t99 -22q120 0 208.5 82.5t88.5 184.5h51q0 -128 -109 -223t-280 -95z
M625 10q38 0 70 23.5t61 77t46 156t17 245.5t-17 245.5t-46 156t-61 77t-70 23.5t-70 -23.5t-61.5 -77t-46.5 -156t-17 -245.5t17 -245.5t46.5 -156t61.5 -77t70 -23.5zM1157 512q82 0 153.5 5t102.5 10l31 5q20 72 20 154q0 170 -45 249t-108 79q-154 0 -154 -502z" />
    <glyph glyph-name="Racute" unicode="&#x154;" horiz-adv-x="1433" 
d="M901 174l-205 461h-133v-574l144 -30v-31h-605v31l123 30v1311l-123 31v31h543q145 0 257 -19t186.5 -53.5t122.5 -85t68.5 -110t20.5 -132.5q0 -77 -27 -140t-70.5 -101.5t-96 -66.5t-104.5 -41t-95.5 -20.5t-70.5 -8.5l-27 -1q10 0 28 -1t66.5 -11t90 -27.5t86 -55
t67.5 -89.5l184 -410l103 -30v-31h-287q-169 0 -246 174zM563 686h82q141 0 224 91t83 257t-83 257t-224 91h-82v-696zM711 1843h266l-277 -307h-71z" />
    <glyph glyph-name="racute" unicode="&#x155;" horiz-adv-x="1034" 
d="M788 696v287q-46 0 -89 -17t-72 -41t-51.5 -48t-33.5 -41l-10 -17v-758l123 -30v-31h-573v31l123 30v902l-123 30v31h184q55 0 99 -16t68.5 -38.5t41 -45t21.5 -38.5l6 -16q4 7 12 18t36.5 39t61 50t85.5 39.5t110 17.5q107 0 162 -50.5t55 -143.5q0 -69 -42.5 -111.5
t-111.5 -42.5q-18 0 -38.5 2.5t-31.5 5.5zM553 1454h266l-276 -307h-72z" />
    <glyph glyph-name="Rcommaaccent" unicode="&#x156;" horiz-adv-x="1433" 
d="M901 174l-205 461h-133v-574l144 -30v-31h-605v31l123 30v1311l-123 31v31h543q145 0 257 -19t186.5 -53.5t122.5 -85t68.5 -110t20.5 -132.5q0 -77 -27 -140t-70.5 -101.5t-96 -66.5t-104.5 -41t-95.5 -20.5t-70.5 -8.5l-27 -1q10 0 28 -1t66.5 -11t90 -27.5t86 -55
t67.5 -89.5l184 -410l103 -30v-31h-287q-169 0 -246 174zM563 686h82q141 0 224 91t83 257t-83 257t-224 91h-82v-696zM713 -584l-21 41q6 2 15.5 6.5t36 22t48.5 39.5t43.5 61.5t30.5 85.5q-31 -30 -82 -30q-62 0 -102.5 41t-40.5 102t40.5 102t102.5 41q70 0 112 -45.5
t42 -128.5q0 -54 -12.5 -102t-32.5 -81.5t-43.5 -61t-47.5 -44.5t-44 -28.5t-32 -16.5z" />
    <glyph glyph-name="rcommaaccent" unicode="&#x157;" horiz-adv-x="1034" 
d="M788 696v287q-46 0 -89 -17t-72 -41t-51.5 -48t-33.5 -41l-10 -17v-758l123 -30v-31h-573v31l123 30v902l-123 30v31h184q55 0 99 -16t68.5 -38.5t41 -45t21.5 -38.5l6 -16q4 7 12 18t36.5 39t61 50t85.5 39.5t110 17.5q107 0 162 -50.5t55 -143.5q0 -69 -42.5 -111.5
t-111.5 -42.5q-18 0 -38.5 2.5t-31.5 5.5zM293 -604l-21 41q6 2 15.5 6.5t36 22t48.5 39.5t43.5 61.5t30.5 85.5q-30 -31 -81 -31q-62 0 -103 41t-41 102q0 62 41.5 103t102.5 41q70 0 111.5 -45.5t41.5 -128.5q0 -54 -12.5 -102t-32.5 -81.5t-44 -61t-47.5 -44.5
t-43.5 -28.5t-32 -16.5z" />
    <glyph glyph-name="Rcaron" unicode="&#x158;" horiz-adv-x="1433" 
d="M901 174l-205 461h-133v-574l144 -30v-31h-605v31l123 30v1311l-123 31v31h543q145 0 257 -19t186.5 -53.5t122.5 -85t68.5 -110t20.5 -132.5q0 -77 -27 -140t-70.5 -101.5t-96 -66.5t-104.5 -41t-95.5 -20.5t-70.5 -8.5l-27 -1q10 0 28 -1t66.5 -11t90 -27.5t86 -55
t67.5 -89.5l184 -410l103 -30v-31h-287q-169 0 -246 174zM563 686h82q141 0 224 91t83 257t-83 257t-224 91h-82v-696zM1018 1864l-236 -308h-123l-235 308h72l225 -164l225 164h72z" />
    <glyph glyph-name="rcaron" unicode="&#x159;" horiz-adv-x="1034" 
d="M788 696v287q-46 0 -89 -17t-72 -41t-51.5 -48t-33.5 -41l-10 -17v-758l123 -30v-31h-573v31l123 30v902l-123 30v31h184q55 0 99 -16t68.5 -38.5t41 -45t21.5 -38.5l6 -16q4 7 12 18t36.5 39t61 50t85.5 39.5t110 17.5q107 0 162 -50.5t55 -143.5q0 -69 -42.5 -111.5
t-111.5 -42.5q-18 0 -38.5 2.5t-31.5 5.5zM850 1454l-236 -307h-122l-236 307h72l225 -164l225 164h72z" />
    <glyph glyph-name="Sacute" unicode="&#x15a;" horiz-adv-x="1218" 
d="M563 20q115 0 185.5 70t70.5 186q0 50 -25 95t-67 81t-96.5 70.5t-114.5 68.5t-120.5 70.5t-115 81.5t-96.5 96t-67 119.5t-25 147.5q0 155 130 256.5t372 101.5q55 0 108.5 -13.5t91.5 -33t68 -39.5t45 -34l15 -13q18 32 46 60.5t47 40.5l19 12h51v-389h-81q-2 7 -6 20
t-19 50.5t-33.5 71t-49.5 75t-67 71t-87 50t-107 20.5q-79 0 -137 -64t-58 -161q0 -56 25 -105t67 -87t96.5 -74t115 -70.5t120.5 -70t114.5 -77.5t96.5 -89.5t67 -110.5t25 -135q0 -171 -146 -285.5t-417 -114.5q-66 0 -128.5 13.5t-104 33t-73.5 39.5t-47 33l-15 14
q-18 -32 -46.5 -60t-47.5 -40l-19 -12h-51v389h82q2 -8 6 -20.5t20 -50t35.5 -71.5t53.5 -75.5t74 -71t97.5 -50t122.5 -20.5zM618 1843h267l-277 -307h-71z" />
    <glyph glyph-name="sacute" unicode="&#x15b;" horiz-adv-x="1105" 
d="M563 -31q-55 0 -106.5 11.5t-86.5 28t-62 33.5t-40 28l-12 12q-18 -27 -46.5 -50t-47.5 -32l-19 -10h-51v348h82q2 -7 6 -18.5t18.5 -44.5t32 -63t47 -66.5t63.5 -63t81.5 -44.5t99.5 -18q84 0 129 43.5t45 120.5q0 45 -33 85t-85 71t-115.5 62t-127 67.5t-115.5 77.5
t-85 100.5t-33 130.5q0 124 106 200.5t324 76.5q73 0 142.5 -28.5t103.5 -56.5l33 -28q18 27 46.5 50t47.5 32l19 10h51v-348h-82q-2 7 -6 18.5t-18 44.5t-31 63t-44.5 66.5t-58.5 63t-73.5 44.5t-88.5 18q-55 0 -94 -41.5t-39 -102.5q0 -50 33 -93t85 -75.5t115.5 -64.5
t127 -67.5t115.5 -75t85 -95.5t33 -123q0 -297 -471 -297zM506 1454h266l-276 -307h-72z" />
    <glyph glyph-name="Scircumflex" unicode="&#x15c;" horiz-adv-x="1218" 
d="M563 20q115 0 185.5 70t70.5 186q0 50 -25 95t-67 81t-96.5 70.5t-114.5 68.5t-120.5 70.5t-115 81.5t-96.5 96t-67 119.5t-25 147.5q0 155 130 256.5t372 101.5q55 0 108.5 -13.5t91.5 -33t68 -39.5t45 -34l15 -13q18 32 46 60.5t47 40.5l19 12h51v-389h-81q-2 7 -6 20
t-19 50.5t-33.5 71t-49.5 75t-67 71t-87 50t-107 20.5q-79 0 -137 -64t-58 -161q0 -56 25 -105t67 -87t96.5 -74t115 -70.5t120.5 -70t114.5 -77.5t96.5 -89.5t67 -110.5t25 -135q0 -171 -146 -285.5t-417 -114.5q-66 0 -128.5 13.5t-104 33t-73.5 39.5t-47 33l-15 14
q-18 -32 -46.5 -60t-47.5 -40l-19 -12h-51v389h82q2 -8 6 -20.5t20 -50t35.5 -71.5t53.5 -75.5t74 -71t97.5 -50t122.5 -20.5zM322 1587l296 338l297 -338h-71l-226 144l-225 -144h-71z" />
    <glyph glyph-name="scircumflex" unicode="&#x15d;" horiz-adv-x="1105" 
d="M563 -31q-55 0 -106.5 11.5t-86.5 28t-62 33.5t-40 28l-12 12q-18 -27 -46.5 -50t-47.5 -32l-19 -10h-51v348h82q2 -7 6 -18.5t18.5 -44.5t32 -63t47 -66.5t63.5 -63t81.5 -44.5t99.5 -18q84 0 129 43.5t45 120.5q0 45 -33 85t-85 71t-115.5 62t-127 67.5t-115.5 77.5
t-85 100.5t-33 130.5q0 124 106 200.5t324 76.5q73 0 142.5 -28.5t103.5 -56.5l33 -28q18 27 46.5 50t47.5 32l19 10h51v-348h-82q-2 7 -6 18.5t-18 44.5t-31 63t-44.5 66.5t-58.5 63t-73.5 44.5t-88.5 18q-55 0 -94 -41.5t-39 -102.5q0 -50 33 -93t85 -75.5t115.5 -64.5
t127 -67.5t115.5 -75t85 -95.5t33 -123q0 -297 -471 -297zM250 1157l297 338l297 -338h-72l-225 143l-225 -143h-72z" />
    <glyph glyph-name="Scedilla" unicode="&#x15e;" horiz-adv-x="1218" 
d="M563 20q115 0 185.5 70t70.5 186q0 64 -39.5 119.5t-103 98.5t-139.5 86t-152.5 93t-140 108t-103 141.5t-39.5 183.5q0 155 130 256.5t372 101.5q55 0 108.5 -13.5t91.5 -33t68 -39.5t45 -34l15 -13q18 32 46 60.5t47 40.5l19 12h52v-389h-82q-2 7 -6 20t-19 50.5
t-33.5 71t-49.5 75t-67 71t-87 50t-107 20.5q-79 0 -136.5 -64t-57.5 -161q0 -56 24.5 -105t66 -87t95 -74t113 -70.5t119 -70t113 -77.5t95 -89.5t66 -110.5t24.5 -135q0 -166 -136.5 -278.5t-389.5 -121.5v-71q89 0 142 -45t53 -109q0 -65 -56.5 -109.5t-158.5 -44.5
q-27 0 -56 3t-44 5l-15 3v61q33 -20 74 -20q46 0 74 28t28 74t-30 74t-83 28v125q-60 3 -116.5 18t-94 33.5t-66.5 36.5t-42 31l-14 12q-18 -32 -46.5 -60t-47.5 -40l-19 -12h-51v389h82q2 -8 6 -20.5t20 -50t35.5 -71.5t53.5 -75.5t74 -71t97.5 -50t122.5 -20.5z" />
    <glyph glyph-name="scedilla" unicode="&#x15f;" horiz-adv-x="1105" 
d="M498 -154v127q-44 6 -85 19t-68 28t-48 29t-31 23l-10 10q-18 -27 -46.5 -50t-47.5 -32l-19 -10h-51v348h82q2 -7 6 -18.5t18.5 -44.5t32 -63t47 -66.5t63.5 -63t81.5 -44.5t99.5 -18q84 0 129 43.5t45 120.5q0 40 -25 76t-66 63t-93.5 56.5t-107 55.5t-107 61.5
t-93.5 73.5t-66 92t-25 116q0 124 106 200.5t324 76.5q73 0 142.5 -28.5t102.5 -56.5l33 -28q18 27 46.5 50t47.5 32l19 10h51v-348h-82q-2 7 -6 18.5t-18 44.5t-30.5 63t-44.5 66.5t-58.5 63t-73 44.5t-88.5 18q-55 0 -94 -41.5t-39 -102.5q0 -50 32 -93t83.5 -75.5
t113.5 -64.5t124.5 -67.5t114 -75t83.5 -95.5t32 -123q0 -297 -465 -297v-71q89 0 142 -45t53 -109q0 -65 -56.5 -109.5t-158.5 -44.5q-27 0 -56 3t-44 5l-15 3v61q33 -20 74 -20q46 0 74 28t28 74q0 47 -29.5 74.5t-82.5 27.5z" />
    <glyph glyph-name="Scaron" unicode="&#x160;" horiz-adv-x="1218" 
d="M563 20q115 0 185.5 70t70.5 186q0 50 -25 95t-67 81t-96.5 70.5t-114.5 68.5t-120.5 70.5t-115 81.5t-96.5 96t-67 119.5t-25 147.5q0 155 130 256.5t372 101.5q55 0 108.5 -13.5t91.5 -33t68 -39.5t45 -34l15 -13q18 32 46 60.5t47 40.5l19 12h51v-389h-81q-2 7 -6 20
t-19 50.5t-33.5 71t-49.5 75t-67 71t-87 50t-107 20.5q-79 0 -137 -64t-58 -161q0 -56 25 -105t67 -87t96.5 -74t115 -70.5t120.5 -70t114.5 -77.5t96.5 -89.5t67 -110.5t25 -135q0 -171 -146 -285.5t-417 -114.5q-66 0 -128.5 13.5t-104 33t-73.5 39.5t-47 33l-15 14
q-18 -32 -46.5 -60t-47.5 -40l-19 -12h-51v389h82q2 -8 6 -20.5t20 -50t35.5 -71.5t53.5 -75.5t74 -71t97.5 -50t122.5 -20.5zM905 1874l-235 -307h-123l-236 307h72l225 -164l226 164h71z" />
    <glyph glyph-name="scaron" unicode="&#x161;" horiz-adv-x="1105" 
d="M563 -31q-55 0 -106.5 11.5t-86.5 28t-62 33.5t-40 28l-12 12q-18 -27 -46.5 -50t-47.5 -32l-19 -10h-51v348h82q2 -7 6 -18.5t18.5 -44.5t32 -63t47 -66.5t63.5 -63t81.5 -44.5t99.5 -18q84 0 129 43.5t45 120.5q0 45 -33 85t-85 71t-115.5 62t-127 67.5t-115.5 77.5
t-85 100.5t-33 130.5q0 124 106 200.5t324 76.5q73 0 142.5 -28.5t103.5 -56.5l33 -28q18 27 46.5 50t47.5 32l19 10h51v-348h-82q-2 7 -6 18.5t-18 44.5t-31 63t-44.5 66.5t-58.5 63t-73.5 44.5t-88.5 18q-55 0 -94 -41.5t-39 -102.5q0 -50 33 -93t85 -75.5t115.5 -64.5
t127 -67.5t115.5 -75t85 -95.5t33 -123q0 -297 -471 -297zM840 1464l-236 -307h-123l-235 307h71l226 -164l225 164h72z" />
    <glyph glyph-name="Tcommaaccent" unicode="&#x162;" horiz-adv-x="1300" 
d="M942 0h-584v31l123 30v1321h-235q0 -60 -13.5 -115t-33 -90t-39.5 -61.5t-34 -38.5l-13 -12h-62v369h1198v-369h-61q-5 4 -14 12t-32 37.5t-40.5 63t-32 89t-14.5 115.5h-236v-1321l123 -30v-31zM573 -625l-20 41q6 2 15.5 6.5t36 22t48.5 39.5t43.5 61.5t30.5 85.5
q-31 -30 -82 -30q-61 0 -102 40.5t-41 102.5t41 102.5t102 40.5q70 0 112 -45.5t42 -128.5q0 -74 -23.5 -136.5t-56.5 -98t-66 -60.5t-57 -34z" />
    <glyph glyph-name="tcommaaccent" unicode="&#x163;" horiz-adv-x="921" 
d="M174 1024v102q0 185 184 185h144v-287h286v-51h-286v-625q0 -128 20 -202.5t51.5 -100t81.5 -25.5q74 0 129.5 71.5t55.5 195.5h51q0 -151 -75.5 -234.5t-201.5 -83.5q-202 0 -321 107t-119 272v625h-143v51h143zM481 -635l-20 41q6 2 15.5 6.5t36 22t48.5 39.5
t43.5 61.5t30.5 85.5q-31 -31 -82 -31q-61 0 -102 41t-41 103t41 102.5t102 40.5q70 0 112 -45.5t42 -128.5q0 -74 -23.5 -136.5t-56.5 -98t-66 -60.5t-57 -34z" />
    <glyph glyph-name="Tcaron" unicode="&#x164;" horiz-adv-x="1300" 
d="M942 0h-584v31l123 30v1321h-235q0 -60 -13.5 -115t-33 -90t-39.5 -61.5t-34 -38.5l-13 -12h-62v369h1198v-369h-61q-5 4 -14 12t-32 37.5t-40.5 63t-32 89t-14.5 115.5h-236v-1321l123 -30v-31zM946 1864l-235 -308h-123l-236 308h72l225 -164l225 164h72z" />
    <glyph glyph-name="tcaron" unicode="&#x165;" horiz-adv-x="1116" 
d="M174 1024v102q0 185 184 185h144v-287h286v-51h-286v-625q0 -128 20 -202.5t51.5 -100t81.5 -25.5q74 0 129.5 71.5t55.5 195.5h51q0 -151 -75.5 -234.5t-201.5 -83.5q-202 0 -321 107t-119 272v625h-143v51h143zM860 799l-20 41q6 2 15.5 6.5t36 22t48.5 39.5t43.5 61.5
t30.5 85.5q-31 -31 -82 -31q-62 0 -103 41t-41 102t41 102.5t103 41.5q70 0 111.5 -45.5t41.5 -128.5q0 -54 -12.5 -102t-32.5 -81.5t-44 -61t-47.5 -44.5t-43.5 -28.5t-33 -15.5z" />
    <glyph glyph-name="Utilde" unicode="&#x168;" horiz-adv-x="1454" 
d="M1219 512v829l-164 62v31h389v-31l-164 -62v-829q0 -248 -133.5 -395.5t-337.5 -147.5q-302 0 -458 142.5t-156 400.5v860l-123 31v31h583v-31l-123 -31v-860q0 -265 81.5 -378.5t236.5 -113.5q69 0 135 34.5t118.5 96t84 156t31.5 205.5zM926 1567q-41 0 -78.5 16
t-60 35t-51.5 35t-56 16q-38 0 -65 -27t-27 -65h-41q0 119 48 177t136 58q41 0 78.5 -16t60 -35t51.5 -35t56 -16q38 0 65 27t27 65h41q0 -119 -48 -177t-136 -58z" />
    <glyph glyph-name="utilde" unicode="&#x169;" horiz-adv-x="1331" 
d="M51 1024h266q185 0 185 -184v-533q0 -128 46.5 -197t106.5 -69q34 0 66 17t52.5 41t36.5 48t23 41l7 17v758l-123 30v31h573v-31l-123 -30v-973h-20q-66 0 -119 17t-81 41t-47 48t-24 41l-6 17q-3 -8 -10 -20t-32.5 -44t-56.5 -56.5t-84.5 -44.5t-113.5 -20
q-172 0 -285.5 101.5t-113.5 236.5v656l-123 30v31zM772 1178q-41 0 -78.5 16t-60 35t-51.5 35t-56 16q-38 0 -65 -27t-27 -65h-41q0 119 48.5 177t136.5 58q41 0 78.5 -16t59.5 -35t51 -35t56 -16q38 0 65 27t27 65h41q0 -119 -48 -177t-136 -58z" />
    <glyph glyph-name="Umacron" unicode="&#x16a;" horiz-adv-x="1454" 
d="M1219 512v829l-164 62v31h389v-31l-164 -62v-829q0 -248 -133.5 -395.5t-337.5 -147.5q-302 0 -458 142.5t-156 400.5v860l-123 31v31h583v-31l-123 -31v-860q0 -265 81.5 -378.5t236.5 -113.5q69 0 135 34.5t118.5 96t84 156t31.5 205.5zM1096 1606h-533v92h533v-92z
" />
    <glyph glyph-name="umacron" unicode="&#x16b;" horiz-adv-x="1331" 
d="M51 1024h266q185 0 185 -184v-533q0 -128 46.5 -197t106.5 -69q34 0 66 17t52.5 41t36.5 48t23 41l7 17v758l-123 30v31h573v-31l-123 -30v-973h-20q-66 0 -119 17t-81 41t-47 48t-24 41l-6 17q-3 -8 -10 -20t-32.5 -44t-56.5 -56.5t-84.5 -44.5t-113.5 -20
q-172 0 -285.5 101.5t-113.5 236.5v656l-123 30v31zM922 1229h-533v92h533v-92z" />
    <glyph glyph-name="Ubreve" unicode="&#x16c;" horiz-adv-x="1454" 
d="M1219 512v829l-164 62v31h389v-31l-164 -62v-829q0 -248 -133.5 -395.5t-337.5 -147.5q-302 0 -458 142.5t-156 400.5v860l-123 31v31h583v-31l-123 -31v-860q0 -265 81.5 -378.5t236.5 -113.5q69 0 135 34.5t118.5 96t84 156t31.5 205.5zM819 1587q32 0 60.5 6t40.5 11
l12 4v225q41 10 72 10q54 0 88 -34.5t34 -88.5q0 -76 -74.5 -125t-232.5 -49t-232.5 49t-74.5 125q0 54 34.5 88.5t88.5 34.5q14 0 32 -2.5t29 -4.5l11 -3v-225l12 -4q12 -5 40 -11t60 -6z" />
    <glyph glyph-name="ubreve" unicode="&#x16d;" horiz-adv-x="1331" 
d="M51 1024h266q185 0 185 -184v-533q0 -128 46.5 -197t106.5 -69q34 0 66 17t52.5 41t36.5 48t23 41l7 17v758l-123 30v31h573v-31l-123 -30v-973h-20q-66 0 -119 17t-81 41t-47 48t-24 41l-6 17q-3 -8 -10 -20t-32.5 -44t-56.5 -56.5t-84.5 -44.5t-113.5 -20
q-172 0 -285.5 101.5t-113.5 236.5v656l-123 30v31zM655 1208q32 0 60.5 6t40.5 10l12 5v225q41 10 72 10q54 0 88.5 -34.5t34.5 -88.5q0 -76 -75 -125t-233 -49t-232.5 49t-74.5 125q0 54 34.5 88.5t88.5 34.5q14 0 32 -2.5t29 -5.5l11 -2v-225l12 -5q12 -4 40 -10t60 -6z
" />
    <glyph glyph-name="Uring" unicode="&#x16e;" horiz-adv-x="1454" 
d="M1219 512v829l-164 62v31h389v-31l-164 -62v-829q0 -248 -133.5 -395.5t-337.5 -147.5q-302 0 -458 142.5t-156 400.5v860l-123 31v31h583v-31l-123 -31v-860q0 -265 81.5 -378.5t236.5 -113.5q69 0 135 34.5t118.5 96t84 156t31.5 205.5zM1065 1700q0 -85 -62 -145
t-153 -60t-153 60t-62 145t62 145t153 60t153 -60t62 -145zM963 1700q0 60 -33 96.5t-80 36.5t-80 -36.5t-33 -96.5t33 -96.5t80 -36.5t80 36.5t33 96.5z" />
    <glyph glyph-name="uring" unicode="&#x16f;" horiz-adv-x="1331" 
d="M51 1024h266q185 0 185 -184v-533q0 -128 46.5 -197t106.5 -69q34 0 66 17t52.5 41t36.5 48t23 41l7 17v758l-123 30v31h573v-31l-123 -30v-973h-20q-66 0 -119 17t-81 41t-47 48t-24 41l-6 17q-3 -8 -10 -20t-32.5 -44t-56.5 -56.5t-84.5 -44.5t-113.5 -20
q-172 0 -285.5 101.5t-113.5 236.5v656l-123 30v31zM870 1341q0 -85 -61.5 -144.5t-153.5 -59.5t-153.5 59.5t-61.5 144.5t62 145t153 60t153 -60t62 -145zM768 1341q0 60 -33 97t-80 37t-79.5 -37t-32.5 -97t32.5 -96.5t79.5 -36.5t80 36.5t33 96.5z" />
    <glyph glyph-name="Uhungarumlaut" unicode="&#x170;" horiz-adv-x="1454" 
d="M1219 512v829l-164 62v31h389v-31l-164 -62v-829q0 -248 -133.5 -395.5t-337.5 -147.5q-302 0 -458 142.5t-156 400.5v860l-123 31v31h583v-31l-123 -31v-860q0 -265 81.5 -378.5t236.5 -113.5q69 0 135 34.5t118.5 96t84 156t31.5 205.5zM727 1853h205l-225 -307h-72z
M993 1853h205l-225 -307h-72z" />
    <glyph glyph-name="uhungarumlaut" unicode="&#x171;" horiz-adv-x="1331" 
d="M51 1024h266q185 0 185 -184v-533q0 -128 46.5 -197t106.5 -69q34 0 66 17t52.5 41t36.5 48t23 41l7 17v758l-123 30v31h573v-31l-123 -30v-973h-20q-66 0 -119 17t-81 41t-47 48t-24 41l-6 17q-3 -8 -10 -20t-32.5 -44t-56.5 -56.5t-84.5 -44.5t-113.5 -20
q-172 0 -285.5 101.5t-113.5 236.5v656l-123 30v31zM526 1454h205l-225 -307h-72zM793 1454h204l-225 -307h-72z" />
    <glyph glyph-name="Uogonek" unicode="&#x172;" horiz-adv-x="1454" 
d="M1219 512v829l-164 62v31h389v-31l-164 -62v-829q0 -201 -89.5 -338t-238.5 -182q-24 -13 -48 -30.5t-55.5 -48t-51 -75t-19.5 -94.5q0 -38 22 -60t60 -22q23 0 46 10t34 20l12 11v-61q-51 -31 -133 -31q-103 0 -159 44t-56 109q0 72 54 123t128 82q-292 6 -441.5 148
t-149.5 395v860l-123 31v31h583v-31l-123 -31v-860q0 -265 81.5 -378.5t236.5 -113.5q69 0 135 34.5t118.5 96t84 156t31.5 205.5z" />
    <glyph glyph-name="uogonek" unicode="&#x173;" horiz-adv-x="1331" 
d="M51 1024h266q185 0 185 -184v-533q0 -128 46.5 -197t106.5 -69q34 0 66 17t52.5 41t36.5 48t23 41l7 17v758l-123 30v31h573v-31l-123 -30v-963q-8 -3 -21 -9.5t-46.5 -30.5t-59 -51t-46.5 -71.5t-21 -93.5q0 -38 22 -60t60 -22q23 0 46 10t35 20l11 11v-61
q-51 -31 -133 -31q-103 0 -159 44t-56 109q0 54 32.5 100t81.5 74.5t85 44t65 23.5q-45 9 -81.5 27.5t-56.5 38.5t-33.5 39t-17.5 31l-4 12q-3 -8 -10 -20t-32.5 -44t-56.5 -56.5t-84.5 -44.5t-113.5 -20q-172 0 -285.5 101.5t-113.5 236.5v656l-123 30v31z" />
    <glyph glyph-name="Wcircumflex" unicode="&#x174;" horiz-adv-x="2017" 
d="M625 -20l-553 1402l-113 21v31h246q108 0 177.5 -49t98.5 -125l310 -789l180 528l-152 383l-112 21v31h245q108 0 177 -49t100 -125l309 -789l295 870l-154 62v31h379v-31l-164 -62l-460 -1361h-62l-368 935l-318 -935h-61zM721 1577l297 338l297 -338h-72l-225 143
l-225 -143h-72z" />
    <glyph glyph-name="wcircumflex" unicode="&#x175;" horiz-adv-x="1710" 
d="M532 -20l-471 983l-102 30v31h236q108 0 172 -45t104 -129l225 -471l117 299l-137 285l-103 30v31h236q108 0 172 -45t104 -129l226 -471l215 553l-154 61v31h379v-31l-164 -61l-379 -952h-61l-303 630l-250 -630h-62zM547 1157l297 338l297 -338h-72l-225 143l-226 -143
h-71z" />
    <glyph glyph-name="Ycircumflex" unicode="&#x176;" horiz-adv-x="1361" 
d="M522 532l-420 840l-102 31v31h256q108 0 171 -44.5t105 -129.5l304 -605l311 686l-154 62v31h389v-31l-163 -62l-359 -788v-492l123 -30v-31h-584v31l123 30v471zM424 1536l297 338l297 -338h-72l-225 143l-225 -143h-72z" />
    <glyph glyph-name="ycircumflex" unicode="&#x177;" 
d="M748 377l215 555l-154 61v31h379v-31l-164 -61l-410 -1055q-65 -166 -139 -241.5t-168 -75.5q-92 0 -143 49.5t-51 134.5q0 76 41.5 120t111.5 44q18 0 38.5 -2.5t31.5 -5.5l12 -2v-277q56 8 103.5 65t101.5 191l41 103l-533 983l-102 30v31h256q107 0 169 -44t108 -130z
M332 1147l297 338l297 -338h-72l-225 143l-226 -143h-71z" />
    <glyph glyph-name="Ydieresis" unicode="&#x178;" horiz-adv-x="1361" 
d="M522 532l-420 840l-102 31v31h256q108 0 171 -44.5t105 -129.5l304 -605l311 686l-154 62v31h389v-31l-163 -62l-359 -788v-492l123 -30v-31h-584v31l123 30v471zM389 1690q0 62 40.5 102.5t102.5 40.5t103 -41t41 -102q0 -62 -41 -103t-103 -41q-61 0 -102 41t-41 103z
M768 1690q0 62 41 102.5t102 40.5q62 0 103 -41t41 -102q0 -62 -41.5 -103t-102.5 -41t-102 41t-41 103z" />
    <glyph glyph-name="Zacute" unicode="&#x179;" horiz-adv-x="1300" 
d="M461 51h553q0 60 13.5 115t33 90.5t39.5 62t34 38.5l13 12h61v-369h-1126v51l760 1331h-535q0 -60 -13.5 -115t-33.5 -90t-39.5 -61.5t-32.5 -38.5l-14 -12h-61v369h1106v-52zM649 1843h266l-276 -307h-72z" />
    <glyph glyph-name="zacute" unicode="&#x17a;" horiz-adv-x="1116" 
d="M666 973h-369q0 -55 -13.5 -106.5t-33 -86.5t-39.5 -62t-33 -40l-14 -12h-62v358h932v-51l-583 -922h389q0 55 13.5 106.5t33 86.5t39.5 62t34 40l13 12h61v-358h-952v51zM578 1454h266l-277 -307h-71z" />
    <glyph glyph-name="Zdotaccent" unicode="&#x17b;" horiz-adv-x="1300" 
d="M461 51h553q0 60 13.5 115t33 90.5t39.5 62t34 38.5l13 12h61v-369h-1126v51l760 1331h-535q0 -60 -13.5 -115t-33.5 -90t-39.5 -61.5t-32.5 -38.5l-14 -12h-61v369h1106v-52zM516 1720q0 62 41 103t102 41t102.5 -41t41.5 -103q0 -61 -41 -102t-103 -41q-61 0 -102 40.5
t-41 102.5z" />
    <glyph glyph-name="zdotaccent" unicode="&#x17c;" horiz-adv-x="1116" 
d="M666 973h-369q0 -55 -13.5 -106.5t-33 -86.5t-39.5 -62t-33 -40l-14 -12h-62v358h932v-51l-583 -922h389q0 55 13.5 106.5t33 86.5t39.5 62t34 40l13 12h61v-358h-952v51zM424 1311q0 61 41 102t102 41q62 0 103 -41t41 -102t-41.5 -102.5t-102.5 -41.5t-102 41t-41 103z
" />
    <glyph glyph-name="Zcaron" unicode="&#x17d;" horiz-adv-x="1300" 
d="M461 51h553q0 60 13.5 115t33 90.5t39.5 62t34 38.5l13 12h61v-369h-1126v51l760 1331h-535q0 -60 -13.5 -115t-33.5 -90t-39.5 -61.5t-32.5 -38.5l-14 -12h-61v369h1106v-52zM936 1874l-236 -307h-122l-236 307h72l225 -164l225 164h72z" />
    <glyph glyph-name="zcaron" unicode="&#x17e;" horiz-adv-x="1116" 
d="M666 973h-369q0 -55 -13.5 -106.5t-33 -86.5t-39.5 -62t-33 -40l-14 -12h-62v358h932v-51l-583 -922h389q0 55 13.5 106.5t33 86.5t39.5 62t34 40l13 12h61v-358h-952v51zM850 1464l-236 -307h-122l-236 307h72l225 -164l225 164h72z" />
    <glyph glyph-name="florin" unicode="&#x192;" horiz-adv-x="921" 
d="M133 -61l154 993h-144l11 51h143l20 102q34 170 160 274.5t332 104.5q145 0 221 -55.5t76 -138.5q0 -84 -48.5 -134.5t-125.5 -50.5q-18 0 -38.5 2.5t-31.5 5.5l-12 3l51 317q-30 10 -61 10q-60 0 -109 -76t-86 -262l-20 -102h327l-10 -51h-328l-153 -993
q-26 -168 -148.5 -273.5t-322.5 -105.5q-118 0 -187 77t-69 220h51q0 -124 45 -185t119 -61q134 0 184 328z" />
    <glyph glyph-name="Oslashacute" unicode="&#x1fe;" horiz-adv-x="1515" 
d="M1423 717q0 -355 -180 -551.5t-485 -196.5q-255 0 -424 146l-88 -115h-72l117 154q-93 99 -146 242t-53 321q0 355 180.5 551t485.5 196q253 0 424 -145l88 115h71l-118 -156q200 -210 200 -561zM1065 717q0 164 -25 321l-551 -719q40 -161 112.5 -235t156.5 -74
q45 0 87 21t82.5 72.5t70.5 129.5t48.5 202.5t18.5 281.5zM451 717q0 -192 24 -324l549 719q-40 161 -112 236t-154 75q-45 0 -87 -20.5t-82.5 -72t-70.5 -129.5t-48.5 -202.5t-18.5 -281.5zM768 1843h266l-276 -307h-72z" />
    <glyph glyph-name="oslashacute" unicode="&#x1ff;" horiz-adv-x="1249" 
d="M1014 1024h71l-84 -102q78 -71 122 -176.5t44 -233.5q0 -254 -144.5 -398.5t-397.5 -144.5q-202 0 -334 97l-55 -66h-72l84 100q-78 73 -122 178.5t-44 233.5q0 254 145 398.5t398 144.5q195 0 333 -99zM625 10q38 0 70 23.5t61 77t46 156t17 245.5q0 78 -8 180
l-362 -436q43 -246 176 -246zM430 512q0 -111 8 -182l363 436q-24 132 -71.5 190t-104.5 58q-38 0 -70 -23.5t-61.5 -77t-46.5 -156t-17 -245.5zM614 1454h267l-277 -307h-72z" />
    <glyph glyph-name="Scommaaccent" unicode="&#x218;" horiz-adv-x="1218" 
d="M563 20q115 0 185.5 70t70.5 186q0 50 -25 95t-67 81t-96.5 70.5t-114.5 68.5t-120.5 70.5t-115 81.5t-96.5 96t-67 119.5t-25 147.5q0 155 130 256.5t372 101.5q55 0 108.5 -13.5t91.5 -33t68 -39.5t45 -34l15 -13q18 32 46 60.5t47 40.5l19 12h51v-389h-81q-2 7 -6 20
t-19 50.5t-33.5 71t-49.5 75t-67 71t-87 50t-107 20.5q-79 0 -137 -64t-58 -161q0 -56 25 -105t67 -87t96.5 -74t115 -70.5t120.5 -70t114.5 -77.5t96.5 -89.5t67 -110.5t25 -135q0 -171 -146 -285.5t-417 -114.5q-66 0 -128.5 13.5t-104 33t-73.5 39.5t-47 33l-15 14
q-18 -32 -46.5 -60t-47.5 -40l-19 -12h-51v389h82q2 -8 6 -20.5t20 -50t35.5 -71.5t53.5 -75.5t74 -71t97.5 -50t122.5 -20.5zM569 -625l-20 41q6 2 15.5 6.5t36 22t48.5 39.5t43.5 61.5t30.5 85.5q-31 -30 -82 -30q-61 0 -102 40.5t-41 102.5t41 102.5t102 40.5
q70 0 112 -45.5t42 -128.5q0 -74 -23.5 -136.5t-56.5 -98t-66 -60.5t-57 -34z" />
    <glyph glyph-name="scommaaccent" unicode="&#x219;" horiz-adv-x="1105" 
d="M563 -31q-55 0 -106.5 11.5t-86.5 28t-62 33.5t-40 28l-12 12q-18 -27 -46.5 -50t-47.5 -32l-19 -10h-51v348h82q2 -7 6 -18.5t18.5 -44.5t32 -63t47 -66.5t63.5 -63t81.5 -44.5t99.5 -18q84 0 129 43.5t45 120.5q0 45 -33 85t-85 71t-115.5 62t-127 67.5t-115.5 77.5
t-85 100.5t-33 130.5q0 124 106 200.5t324 76.5q73 0 142.5 -28.5t103.5 -56.5l33 -28q18 27 46.5 50t47.5 32l19 10h51v-348h-82q-2 7 -6 18.5t-18 44.5t-31 63t-44.5 66.5t-58.5 63t-73.5 44.5t-88.5 18q-55 0 -94 -41.5t-39 -102.5q0 -50 33 -93t85 -75.5t115.5 -64.5
t127 -67.5t115.5 -75t85 -95.5t33 -123q0 -297 -471 -297zM502 -625l-21 41q6 2 15.5 6.5t36 22t48.5 39.5t43.5 61.5t30.5 85.5q-31 -30 -82 -30q-61 0 -102 40.5t-41 102.5t41 102.5t102 40.5q70 0 112 -45.5t42 -128.5q0 -54 -12.5 -102t-32.5 -81.5t-44 -61t-47.5 -44.5
t-43.5 -28.5t-33 -15.5z" />
    <glyph glyph-name="circumflex" unicode="&#x2c6;" horiz-adv-x="675" 
d="M41 1126l297 338l297 -338h-72l-225 144l-225 -144h-72z" />
    <glyph glyph-name="caron" unicode="&#x2c7;" horiz-adv-x="675" 
d="M635 1761l-236 -307h-123l-235 307h72l225 -164l225 164h72z" />
    <glyph glyph-name="breve" unicode="&#x2d8;" horiz-adv-x="675" 
d="M338 1167q32 0 60.5 6t40.5 11l12 4v225q40 10 71 10q54 0 88.5 -34.5t34.5 -88.5q0 -76 -74.5 -125t-232.5 -49t-232.5 49t-74.5 125q0 54 34.5 88.5t88.5 34.5q14 0 31.5 -2.5t28.5 -4.5l11 -3v-225l12 -4q12 -5 40.5 -11t60.5 -6z" />
    <glyph glyph-name="dotaccent" unicode="&#x2d9;" horiz-adv-x="368" 
d="M41 1290q0 62 41 103t102 41q62 0 103 -41t41 -103q0 -61 -41 -102t-103 -41t-102.5 40.5t-40.5 102.5z" />
    <glyph glyph-name="ring" unicode="&#x2da;" horiz-adv-x="552" 
d="M492 1229q0 -85 -62 -145t-154 -60q-91 0 -153 60t-62 145t62 145t153 60q92 0 154 -60t62 -145zM389 1229q0 60 -33 96.5t-80 36.5t-79.5 -36.5t-32.5 -96.5t32.5 -96.5t79.5 -36.5t80 36.5t33 96.5z" />
    <glyph glyph-name="ogonek" unicode="&#x2db;" horiz-adv-x="450" 
d="M317 0h93q-8 -3 -21 -9.5t-46.5 -30.5t-59.5 -51t-47 -71.5t-21 -93.5q0 -38 22 -60t60 -22q23 0 46 10t35 20l11 11v-61q-51 -31 -133 -31q-103 0 -159 44t-56 109q0 49 28.5 91t69 67.5t81 44t68.5 25.5z" />
    <glyph glyph-name="tilde" unicode="&#x2dc;" horiz-adv-x="645" 
d="M420 1188q-41 0 -78.5 16t-60 35t-51.5 35t-56 16q-38 0 -65 -27t-27 -65h-41q0 120 48 178t136 58q41 0 78.5 -16t60 -35.5t51.5 -35.5t56 -16q38 0 65 27t27 65h41q0 -119 -48 -177t-136 -58z" />
    <glyph glyph-name="hungarumlaut" unicode="&#x2dd;" horiz-adv-x="645" 
d="M133 1434h205l-225 -308h-72zM399 1434h205l-225 -308h-72z" />
    <glyph glyph-name="afii10023" unicode="&#x401;" horiz-adv-x="1320" 
d="M369 1720q0 62 41 103t102 41t102 -41t41 -103t-40.5 -102.5t-102.5 -40.5t-102.5 40.5t-40.5 102.5zM748 1720q0 62 41 103t102 41t102 -41t41 -103t-41 -102.5t-102 -40.5t-102 40.5t-41 102.5zM563 737h236q9 50 32 101.5t41 77.5l19 26h61v-461h-61q-8 10 -20.5 28.5
t-37.5 72.5t-34 104h-236v-635h481q0 60 14 115t33.5 90.5t39 62t33.5 38.5l14 12h61v-369h-1137v31l123 30v1311l-123 31v31h1096v-369h-61q-5 4 -14 12t-32 37.5t-40.5 63t-32 89t-14.5 115.5h-441v-645z" />
    <glyph glyph-name="afii10051" unicode="&#x402;" horiz-adv-x="1576" 
d="M1157 184v348q0 164 -58 236t-177 72q-45 0 -91.5 -15.5t-70.5 -30.5l-23 -16v-717l123 -30v-31h-584v31l123 30v1321h-153q0 -60 -13.5 -115t-33 -90t-39.5 -61.5t-34 -38.5l-13 -12h-62v369h1055v-369h-62q-5 4 -14 12t-32 37.5t-40.5 63t-32 89t-14.5 115.5h-174v-553
q12 7 33.5 17.5t91 27.5t142.5 17q251 0 371 -95t120 -264v-348q0 -56 -22.5 -99t-73.5 -77t-142.5 -51.5t-222.5 -17.5v41q51 0 87 52t36 152z" />
    <glyph glyph-name="afii10052" unicode="&#x403;" horiz-adv-x="1249" 
d="M686 0h-584v31l123 30v1311l-123 31v31h1096v-369h-61q-5 4 -14 12t-32 37.5t-40.5 63t-32 89t-14.5 115.5h-441v-1321l123 -30v-31zM696 1851h267l-277 -307h-72z" />
    <glyph glyph-name="afii10053" unicode="&#x404;" horiz-adv-x="1331" 
d="M739 1464q54 0 107.5 -13.5t91 -33t67.5 -39.5t45 -34l15 -13q18 32 46.5 60.5t47.5 40.5l19 12h51v-389h-82q-2 7 -6 20t-19 50.5t-33.5 71t-49.5 75t-67 71t-87 50t-107 20.5q-51 0 -97 -20.5t-89 -70.5t-73.5 -125.5t-49 -193t-18.5 -266.5h266q9 50 32 101.5t41 77.5
l19 26h61v-461h-61q-8 10 -20.5 28.5t-37.5 72.5t-34 104h-266q3 -151 23 -266t52.5 -190t80 -122.5t101.5 -67.5t121 -20q147 0 263 118.5t116 271.5h52q0 -179 -137.5 -310t-334.5 -131q-326 0 -511 195.5t-185 552.5q0 353 177.5 550t469.5 197z" />
    <glyph glyph-name="afii10054" unicode="&#x405;" horiz-adv-x="1218" 
d="M563 20q115 0 185.5 70t70.5 186q0 50 -25 95t-67 81t-96.5 70.5t-114.5 68.5t-120.5 70.5t-115 81.5t-96.5 96t-67 119.5t-25 147.5q0 155 130 256.5t372 101.5q55 0 108.5 -13.5t91.5 -33t68 -39.5t45 -34l15 -13q18 32 46 60.5t47 40.5l19 12h51v-389h-81q-2 7 -6 20
t-19 50.5t-33.5 71t-49.5 75t-67 71t-87 50t-107 20.5q-79 0 -137 -64t-58 -161q0 -56 25 -105t67 -87t96.5 -74t115 -70.5t120.5 -70t114.5 -77.5t96.5 -89.5t67 -110.5t25 -135q0 -171 -146 -285.5t-417 -114.5q-66 0 -128.5 13.5t-104 33t-73.5 39.5t-47 33l-15 14
q-18 -32 -46.5 -60t-47.5 -40l-19 -12h-51v389h82q2 -8 6 -20.5t20 -50t35.5 -71.5t53.5 -75.5t74 -71t97.5 -50t122.5 -20.5z" />
    <glyph glyph-name="afii10055" unicode="&#x406;" horiz-adv-x="788" 
d="M225 1372l-123 31v31h584v-31l-123 -31v-1311l123 -30v-31h-584v31l123 30v1311z" />
    <glyph glyph-name="afii10056" unicode="&#x407;" horiz-adv-x="788" 
d="M225 1372l-123 31v31h584v-31l-123 -31v-1311l123 -30v-31h-584v31l123 30v1311zM61 1729q0 61 41 102t103 41q61 0 102 -41t41 -102q0 -62 -41 -103t-102 -41t-102.5 41.5t-41.5 102.5zM440 1729q0 61 41 102t103 41t102.5 -41t40.5 -102q0 -62 -41 -103t-102 -41
q-62 0 -103 41.5t-41 102.5z" />
    <glyph glyph-name="afii10057" unicode="&#x408;" horiz-adv-x="1126" 
d="M338 10q246 0 246 400v962l-123 31v31h583v-31l-122 -31v-962q0 -213 -133 -327t-410 -114q-187 0 -283 66t-96 160q0 69 42.5 111t111.5 42q18 0 38.5 -2.5t31.5 -5.5l12 -2v-307q41 -21 102 -21z" />
    <glyph glyph-name="afii10058" unicode="&#x409;" horiz-adv-x="2048" 
d="M184 -31q-90 0 -147 53.5t-57 131.5q0 76 46.5 125t116.5 49q18 0 38.5 -3t32.5 -5l11 -3v-286q31 9 56 32t51 72.5t43.5 145.5t23.5 231l41 850l-143 41v31h1055v-31l-123 -31v-512h133q173 0 297 -29.5t197.5 -86.5t107 -134t33.5 -180t-33.5 -180t-107 -134
t-197.5 -86.5t-297 -29.5h-594v31l123 30v1321h-389l-41 -870q-7 -152 -32.5 -261t-64.5 -169t-83 -86.5t-97 -26.5zM1362 809h-133v-758h133q129 0 208 97t79 282t-79 282t-208 97z" />
    <glyph glyph-name="afii10059" unicode="&#x40a;" horiz-adv-x="2160" 
d="M1341 819h134q173 0 297 -29t197 -84t106.5 -128t33.5 -168q0 -76 -20.5 -137.5t-67.5 -113t-119.5 -86.5t-180 -54t-246.5 -19h-594v31l123 30v707h-441v-707l123 -30v-31h-584v31l123 30v1311l-123 31v31h584v-31l-123 -31v-553h441v553l-123 31v31h583v-31l-123 -31
v-553zM1475 768h-134v-717h134q127 0 206.5 93.5t79.5 265.5t-79 265t-207 93z" />
    <glyph glyph-name="afii10060" unicode="&#x40b;" horiz-adv-x="1648" 
d="M737 778v-717l123 -30v-31h-584v31l123 30v1321h-153q0 -60 -13.5 -115t-33 -90t-39.5 -61.5t-34 -38.5l-13 -12h-62v369h1055v-369h-62q-5 4 -14 12t-32 37.5t-40.5 63t-32 89t-14.5 115.5h-174v-553q12 7 33.5 17.5t91 27.5t142.5 17q251 0 371 -95t120 -264v-471
l123 -30v-31h-584v31l123 30v471q0 164 -58 236t-177 72q-45 0 -91.5 -15.5t-70.5 -30.5z" />
    <glyph glyph-name="afii10061" unicode="&#x40c;" horiz-adv-x="1454" 
d="M799 778h51q248 0 307 -174l184 -543l103 -30v-31h-246q-109 0 -168 45t-88 129l-194 563h-185v-676l123 -30v-31h-584v31l123 30v1311l-123 31v31h584v-31l-123 -31v-584h103q75 0 127 50.5t77 144.5l72 266q25 94 82.5 149.5t132.5 55.5q91 0 148 -53t57 -131
q0 -76 -47 -125t-117 -49q-18 0 -38.5 2.5t-31.5 5.5l-12 2v287q-34 -8 -64.5 -46t-47.5 -98l-72 -266q-12 -46 -30 -84t-35.5 -59.5t-33 -36.5t-25.5 -20zM778 1810h266l-276 -307h-72z" />
    <glyph glyph-name="afii10062" unicode="&#x40e;" horiz-adv-x="1351" 
d="M707 287l-625 1085l-102 31v31h266q176 0 276 -174l346 -601l299 682l-153 62v31h379v-31l-164 -62l-461 -1054q-73 -167 -147 -242.5t-160 -75.5q-91 0 -148 53.5t-57 131.5q0 76 47 125t117 49q18 0 38.5 -3t31.5 -5l12 -3v-286q106 17 205 256zM727 1565
q32 0 60.5 5.5t40.5 9.5l12 5v225q40 11 71 11q54 0 88.5 -34.5t34.5 -88.5q0 -76 -74.5 -125t-232.5 -49t-232.5 49t-74.5 125q0 54 34.5 88.5t88.5 34.5q14 0 31.5 -2.5t28.5 -5.5l11 -3v-225l12 -5q12 -4 40.5 -9.5t60.5 -5.5z" />
    <glyph glyph-name="afii10145" unicode="&#x40f;" horiz-adv-x="1566" 
d="M676 0h-574v31l123 30v1311l-123 31v31h584v-31l-123 -31v-1321h441v1321l-123 31v31h583v-31l-123 -31v-1311l123 -30v-31h-573q0 -91 -18 -175.5t-36 -123.5l-18 -39h-71q-8 15 -20 42.5t-32 116t-20 179.5z" />
    <glyph glyph-name="afii10017" unicode="&#x410;" horiz-adv-x="1392" 
d="M184 92l154 -61v-31h-379v31l164 61l563 1362h62l583 -1393l103 -30v-31h-246q-201 0 -275 174l-104 246h-490zM563 1010l-223 -539h448z" />
    <glyph glyph-name="afii10018" unicode="&#x411;" horiz-adv-x="1372" 
d="M563 840h113q173 0 297.5 -29t197.5 -85.5t106.5 -131.5t33.5 -174t-33.5 -174t-106.5 -131.5t-197.5 -85.5t-297.5 -29h-574v31l123 30v1311l-123 31v31h1086v-369h-62q-5 4 -14 12t-32 37.5t-40.5 63t-32 89t-14.5 115.5h-430v-542zM676 788h-113v-737h113
q128 0 207.5 95.5t79.5 273.5t-79.5 273t-207.5 95z" />
    <glyph glyph-name="afii10019" unicode="&#x412;" horiz-adv-x="1392" 
d="M225 1372l-123 31v31h553q160 0 279.5 -28t189 -78.5t103 -113.5t33.5 -139q0 -51 -16.5 -94.5t-44.5 -73.5t-64 -55t-76 -40t-80 -26t-76 -16t-64 -8t-45 -4h-16q12 0 31.5 -1t77 -8t110 -19.5t116 -40.5t109.5 -65.5t77.5 -98.5t31.5 -136q0 -389 -635 -389h-594v31
l123 30v1311zM696 727h-133v-676h133q126 0 206.5 90.5t80.5 247.5t-80.5 247.5t-206.5 90.5zM563 1382v-604h92q103 0 179.5 85t76.5 212q0 134 -76.5 220.5t-179.5 86.5h-92z" />
    <glyph glyph-name="afii10020" unicode="&#x413;" horiz-adv-x="1249" 
d="M686 0h-584v31l123 30v1311l-123 31v31h1096v-369h-61q-5 4 -14 12t-32 37.5t-40.5 63t-32 89t-14.5 115.5h-441v-1321l123 -30v-31z" />
    <glyph glyph-name="afii10021" unicode="&#x414;" horiz-adv-x="1433" 
d="M461 1382l-41 -870q-4 -92 -27 -173t-52.5 -131.5t-58 -88t-48.5 -53.5l-19 -15h655v1331h-409zM-20 51h163q8 5 21.5 16t48.5 52t63 89t53 130t29 174l41 850l-143 41v31h1075v-31l-123 -31v-1321h195v-399h-62q-7 5 -19 14.5t-42 43t-52.5 71t-41.5 97t-19 122.5h-952
q0 -63 -18 -122t-43.5 -98.5t-51 -69.5t-43.5 -44l-18 -14h-61v399z" />
    <glyph glyph-name="afii10022" unicode="&#x415;" horiz-adv-x="1320" 
d="M563 737h236q9 50 32 101.5t41 77.5l19 26h61v-461h-61q-8 10 -20.5 28.5t-37.5 72.5t-34 104h-236v-635h481q0 60 14 115t33.5 90.5t39 62t33.5 38.5l14 12h61v-369h-1137v31l123 30v1311l-123 31v31h1096v-369h-61q-5 4 -14 12t-32 37.5t-40.5 63t-32 89t-14.5 115.5
h-441v-645z" />
    <glyph glyph-name="afii10024" unicode="&#x416;" horiz-adv-x="2099" 
d="M604 778h49q-5 2 -11.5 6.5t-23.5 20.5t-32.5 37t-33.5 58.5t-30 82.5l-71 266q-17 59 -48 97.5t-65 46.5v-287q-41 -10 -82 -10q-70 0 -117 49t-47 125q0 78 57 131t148 53q75 0 132.5 -55.5t82.5 -149.5l72 -266q25 -94 77 -144.5t127 -50.5h93v584l-123 31v31h583v-31
l-122 -31v-584h92q75 0 127.5 50.5t77.5 144.5l71 266q25 94 82.5 149.5t132.5 55.5q91 0 148 -53t57 -131q0 -76 -47 -125t-117 -49q-18 0 -38.5 2.5t-32.5 5.5l-11 2v287q-34 -8 -64.5 -46t-47.5 -98l-72 -266q-12 -46 -30 -84t-35.5 -59.5t-33 -36.5t-24.5 -20l-10 -5h51
q248 0 307 -174l185 -543l102 -30v-31h-246q-109 0 -168 45t-88 129l-194 563h-174v-676l122 -30v-31h-583v31l123 30v676h-174l-195 -563q-29 -84 -88 -129t-168 -45h-246v31l103 30l184 543q59 174 307 174z" />
    <glyph glyph-name="afii10025" unicode="&#x417;" horiz-adv-x="1259" 
d="M594 1464q130 0 235.5 -31.5t171 -84t101 -117.5t35.5 -135q0 -69 -26.5 -125t-69 -90t-94 -59.5t-103 -37t-94 -18.5t-68.5 -8h-27q11 0 30.5 -1t76 -8.5t108 -21t114 -42.5t107.5 -68.5t76 -104t31 -143.5q0 -83 -36.5 -153.5t-111 -126.5t-199 -88t-288.5 -32
q-112 0 -209 36t-162.5 96t-103 140.5t-37.5 168.5h51q0 -156 123 -273t297 -117q155 0 241.5 91t86.5 258q0 171 -79.5 264.5t-207.5 93.5h-164v51h144q112 0 178.5 81t66.5 237q0 155 -65 236t-170 81q-54 0 -103 -19.5t-84.5 -51.5t-65 -70t-48.5 -76t-32.5 -70
t-19.5 -52l-5 -19h-82v389h51q8 -5 21 -13.5t43 -38t48 -61.5q5 5 15.5 14t43.5 32t68 40.5t87 32t104 14.5z" />
    <glyph glyph-name="afii10026" unicode="&#x418;" horiz-adv-x="1607" 
d="M225 1372l-123 31v31h584v-31l-123 -31v-1034l481 881v153l-122 31v31h583v-31l-123 -31v-1311l123 -30v-31h-583v31l122 30v1035l-481 -881v-154l123 -30v-31h-584v31l123 30v1311z" />
    <glyph glyph-name="afii10027" unicode="&#x419;" horiz-adv-x="1607" 
d="M799 1618q32 0 60 5.5t40 10.5l12 4v226q41 10 72 10q54 0 88.5 -34.5t34.5 -88.5q0 -76 -74.5 -125t-232.5 -49t-232.5 49t-74.5 125q0 54 34 88.5t88 34.5q14 0 32 -2.5t29 -5.5l11 -2v-226l12 -4q12 -5 40.5 -10.5t60.5 -5.5zM225 1372l-123 31v31h584v-31l-123 -31
v-1034l481 881v153l-122 31v31h583v-31l-123 -31v-1311l123 -30v-31h-583v31l122 30v1035l-481 -881v-154l123 -30v-31h-584v31l123 30v1311z" />
    <glyph glyph-name="afii10028" unicode="&#x41a;" horiz-adv-x="1454" 
d="M799 778h51q248 0 307 -174l184 -543l103 -30v-31h-246q-109 0 -168 45t-88 129l-194 563h-185v-676l123 -30v-31h-584v31l123 30v1311l-123 31v31h584v-31l-123 -31v-584h103q75 0 127 50.5t77 144.5l72 266q25 94 82.5 149.5t132.5 55.5q91 0 148 -53t57 -131
q0 -76 -47 -125t-117 -49q-18 0 -38.5 2.5t-31.5 5.5l-12 2v287q-34 -8 -64.5 -46t-47.5 -98l-72 -266q-12 -46 -30 -84t-35.5 -59.5t-33 -36.5t-25.5 -20z" />
    <glyph glyph-name="afii10029" unicode="&#x41b;" horiz-adv-x="1454" 
d="M184 -31q-90 0 -147 53.5t-57 131.5q0 76 46.5 125t116.5 49q18 0 38.5 -3t32.5 -5l11 -3v-286q31 9 56 32t51 72.5t43.5 145.5t23.5 231l41 850l-143 41v31h1055v-31l-123 -31v-1311l123 -30v-31h-584v31l123 30v1321h-389l-41 -870q-7 -152 -32.5 -261t-64.5 -169
t-83 -86.5t-97 -26.5z" />
    <glyph glyph-name="afii10030" unicode="&#x41c;" horiz-adv-x="2017" 
d="M1700 1434h215v-31l-123 -31v-1311l123 -30v-31h-584v31l123 30v1117l-481 -1198h-62l-624 1198v-1086l164 -61v-31h-390v31l164 61v1280l-143 31v31h276q108 0 170.5 -44.5t106.5 -129.5l446 -854l342 854q24 61 53.5 96.5t84 56.5t139.5 21z" />
    <glyph glyph-name="afii10031" unicode="&#x41d;" horiz-adv-x="1566" 
d="M225 1372l-123 31v31h584v-31l-123 -31v-635h441v635l-123 31v31h583v-31l-123 -31v-1311l123 -30v-31h-583v31l123 30v625h-441v-625l123 -30v-31h-584v31l123 30v1311z" />
    <glyph glyph-name="afii10032" unicode="&#x41e;" horiz-adv-x="1515" 
d="M1065 717q0 157 -18.5 281.5t-48.5 202.5t-70.5 129.5t-82.5 72t-87 20.5t-87 -20.5t-82.5 -72t-70.5 -129.5t-48.5 -202.5t-18.5 -281.5t18.5 -281.5t48.5 -202.5t70.5 -129.5t82.5 -72.5t87 -21t87 21t82.5 72.5t70.5 129.5t48.5 202.5t18.5 281.5zM1423 717
q0 -355 -180 -551.5t-485 -196.5t-485.5 196.5t-180.5 551.5t180.5 551t485.5 196t485 -196t180 -551z" />
    <glyph glyph-name="afii10033" unicode="&#x41f;" horiz-adv-x="1566" 
d="M225 1372l-123 31v31h1362v-31l-123 -31v-1311l123 -30v-31h-583v31l123 30v1321h-441v-1321l123 -30v-31h-584v31l123 30v1311z" />
    <glyph glyph-name="afii10034" unicode="&#x420;" horiz-adv-x="1382" 
d="M563 604h113q129 0 208 98.5t79 290.5t-79 290.5t-208 98.5h-113v-778zM676 553h-113v-492l123 -30v-31h-584v31l123 30v1311l-123 31v31h574q174 0 297.5 -29.5t197 -88t107 -137.5t33.5 -186t-33.5 -186t-107 -137t-197 -87.5t-297.5 -29.5z" />
    <glyph glyph-name="afii10035" unicode="&#x421;" horiz-adv-x="1331" 
d="M739 1464q54 0 107.5 -13.5t91 -33t67.5 -39.5t45 -34l15 -13q18 32 46.5 60.5t47.5 40.5l19 12h51v-389h-82q-2 7 -6 20t-19 50.5t-33.5 71t-49.5 75t-67 71t-87 50t-107 20.5q-52 0 -97.5 -21t-88.5 -71.5t-73.5 -128t-49 -199.5t-18.5 -276q0 -697 378 -697
q147 0 263 118.5t116 271.5h52q0 -179 -137.5 -310t-334.5 -131q-326 0 -511 195.5t-185 552.5q0 353 177.5 550t469.5 197z" />
    <glyph glyph-name="afii10036" unicode="&#x422;" horiz-adv-x="1300" 
d="M942 0h-584v31l123 30v1321h-235q0 -60 -13.5 -115t-33 -90t-39.5 -61.5t-34 -38.5l-13 -12h-62v369h1198v-369h-61q-5 4 -14 12t-32 37.5t-40.5 63t-32 89t-14.5 115.5h-236v-1321l123 -30v-31z" />
    <glyph glyph-name="afii10037" unicode="&#x423;" horiz-adv-x="1351" 
d="M707 287l-625 1085l-102 31v31h266q176 0 276 -174l346 -601l299 682l-153 62v31h379v-31l-164 -62l-461 -1054q-73 -167 -147 -242.5t-160 -75.5q-91 0 -148 53.5t-57 131.5q0 76 47 125t117 49q18 0 38.5 -3t31.5 -5l12 -3v-286q106 17 205 256z" />
    <glyph glyph-name="afii10038" unicode="&#x424;" horiz-adv-x="1832" 
d="M748 61v113q-169 7 -304.5 54.5t-222.5 123.5t-133.5 174.5t-46.5 210.5t46.5 210.5t133.5 174.5t222.5 123.5t304.5 54.5v103l-123 31v30h583v-30l-123 -31v-103q169 -7 304.5 -54.5t222.5 -123.5t133.5 -174.5t46.5 -210.5t-46.5 -210.5t-133.5 -174.5t-222.5 -123.5
t-304.5 -54.5v-113l123 -30v-31h-583v31zM1085 1260v-1045q149 16 249 149.5t100 372.5q0 123 -28.5 221t-77.5 160.5t-110.5 98t-132.5 43.5zM748 215v1045q-71 -8 -132.5 -43.5t-110.5 -98t-77.5 -160.5t-28.5 -221q0 -239 100 -372.5t249 -149.5z" />
    <glyph glyph-name="afii10039" unicode="&#x425;" horiz-adv-x="1361" 
d="M195 92l348 514l-451 766l-102 31v31h297q100 0 162.5 -44t113.5 -130l197 -336l284 417l-153 62v31h389v-31l-164 -62l-321 -473l475 -807l102 -30v-31h-297q-100 0 -162.5 44t-113.5 130l-221 375l-312 -457l154 -61v-31h-389v31z" />
    <glyph glyph-name="afii10040" unicode="&#x426;" horiz-adv-x="1566" 
d="M1300 0h-1198v31l123 30v1311l-123 31v31h584v-31l-123 -31v-1321h441v1321l-123 31v31h583v-31l-123 -31v-1321h195v-399h-61q-7 5 -19 14.5t-42 43t-53 71t-42 97t-19 122.5z" />
    <glyph glyph-name="afii10041" unicode="&#x427;" horiz-adv-x="1484" 
d="M922 655v717l-123 31v31h583v-31l-122 -31v-1311l122 -30v-31h-583v31l123 30v543q-12 -7 -33.5 -17t-91 -27t-142.5 -17q-252 0 -371.5 94.5t-119.5 263.5v471l-123 31v31h584v-31l-123 -31v-471q0 -164 58 -235.5t177 -71.5q45 0 91.5 15t69.5 31z" />
    <glyph glyph-name="afii10042" unicode="&#x428;" horiz-adv-x="2222" 
d="M102 31l123 30v1311l-123 31v31h584v-31l-123 -31v-1321h379v1321l-123 31v31h584v-31l-123 -31v-1321h379v1321l-123 31v31h584v-31l-123 -31v-1311l123 -30v-31h-2018v31z" />
    <glyph glyph-name="afii10043" unicode="&#x429;" horiz-adv-x="2222" 
d="M1997 1372v-1321h194v-399h-61q-7 5 -19 14.5t-42 43t-52.5 71t-41.5 97t-19 122.5h-1854v31l123 30v1311l-123 31v31h584v-31l-123 -31v-1321h379v1321l-123 31v31h584v-31l-123 -31v-1321h379v1321l-123 31v31h584v-31z" />
    <glyph glyph-name="afii10044" unicode="&#x42a;" horiz-adv-x="1546" 
d="M410 1382h-164q0 -60 -13.5 -115t-33 -90t-39.5 -61.5t-34 -38.5l-13 -12h-62v369h819v-31l-122 -31v-512h112q173 0 297 -29.5t197.5 -86.5t107 -134t33.5 -180t-33.5 -180t-107 -134t-197.5 -86.5t-297 -29.5h-573v31l123 30v1321zM860 809h-112v-758h112q129 0 208 97
t79 282t-79 282t-208 97z" />
    <glyph glyph-name="afii10045" unicode="&#x42b;" horiz-adv-x="2078" 
d="M1516 1372l-123 31v31h583v-31l-123 -31v-1311l123 -30v-31h-583v31l123 30v1311zM563 860h133q173 0 297 -29.5t197.5 -86.5t107 -134t33.5 -180t-33.5 -180t-107 -134t-197.5 -86.5t-297 -29.5h-594v31l123 30v1311l-123 31v31h584v-31l-123 -31v-512zM696 809h-133
v-758h133q129 0 208 97t79 282t-79 282t-208 97z" />
    <glyph glyph-name="afii10046" unicode="&#x42c;" horiz-adv-x="1382" 
d="M563 860h133q173 0 297 -29.5t197.5 -86.5t107 -134t33.5 -180t-33.5 -180t-107 -134t-197.5 -86.5t-297 -29.5h-594v31l123 30v1311l-123 31v31h584v-31l-123 -31v-512zM696 809h-133v-758h133q129 0 208 97t79 282t-79 282t-208 97z" />
    <glyph glyph-name="afii10047" unicode="&#x42d;" horiz-adv-x="1331" 
d="M592 1464q292 0 469.5 -197t177.5 -550q0 -357 -185 -552.5t-511 -195.5q-197 0 -334 131t-137 310h51q0 -153 116 -271.5t263 -118.5q67 0 121.5 20t102 67.5t80 122.5t52.5 190.5t23 265.5h-267q-9 -50 -32 -101.5t-42 -77.5l-18 -26h-61v461h61q8 -10 20.5 -28.5
t37.5 -72.5t34 -104h267q0 149 -18.5 266.5t-49.5 193t-74 125.5t-89 70.5t-97 20.5q-56 0 -107 -19.5t-87 -51.5t-67 -70t-50 -76t-33 -70t-19 -52l-6 -19h-82v389h52q8 -5 21 -13.5t43 -38t48 -61.5q5 5 15.5 14t43.5 32t69 40.5t90 32t108 14.5z" />
    <glyph glyph-name="afii10048" unicode="&#x42e;" horiz-adv-x="2078" 
d="M1362 1464q135 0 249 -49.5t198 -143t131 -235.5t47 -319t-47 -319.5t-131 -235.5t-198 -143t-249 -50q-131 0 -243 48t-196 137t-133 226t-53 306h-174v-625l123 -30v-31h-584v31l123 30v1311l-123 31v31h584v-31l-123 -31v-635h174q4 173 51.5 311.5t130.5 229
t195.5 138.5t247.5 48zM1362 1423q-40 0 -75.5 -18.5t-71 -68.5t-61.5 -127t-42 -203t-16 -289t16 -289.5t42 -203.5t61.5 -126.5t71 -68.5t75.5 -19t75.5 19t71 68.5t61.5 126.5t42 203.5t16 289.5t-16 289t-42 203t-61.5 127t-71 68.5t-75.5 18.5z" />
    <glyph glyph-name="afii10049" unicode="&#x42f;" horiz-adv-x="1443" 
d="M737 635l-205 -461q-77 -174 -245 -174h-277v31l103 30l184 410q23 52 64 89.5t83.5 55t81.5 27.5t64 11l24 1q-10 0 -27 1t-66 8.5t-93.5 20.5t-98.5 41t-93 66.5t-66 101.5t-27 140q0 92 34 162.5t108.5 125.5t204 83.5t309.5 28.5h542v-31l-122 -31v-1311l122 -30v-31
h-604v31l144 30v574h-144zM799 686h82v696h-82q-141 0 -224 -91t-83 -257t83 -257t224 -91z" />
    <glyph glyph-name="afii10065" unicode="&#x430;" horiz-adv-x="1239" 
d="M481 481q-41 -92 -41 -215q0 -114 36 -169.5t87 -55.5q34 0 66 17t52.5 41t36.5 48t23 41l7 17v297q-55 0 -121.5 -5t-106.5 -11zM563 1055q241 0 376.5 -122t135.5 -319v-553l123 -30v-31h-184q-55 0 -99 16t-68.5 38.5t-41 45t-21.5 38.5l-6 16q-3 -8 -10 -20
t-32.5 -44t-56.5 -56.5t-84.5 -44.5t-113.5 -20q-184 0 -281.5 77.5t-97.5 199.5q0 55 18 111t36 85l18 29q33 8 90.5 20.5t209 35t274.5 26.5v61q0 117 -14.5 196t-45 123t-70.5 62.5t-96 18.5q-27 0 -52.5 -5t-37.5 -11l-12 -5v-307q-41 -10 -82 -10q-69 0 -111.5 42
t-42.5 111q0 94 96 160t283 66z" />
    <glyph glyph-name="afii10066" unicode="&#x431;" horiz-adv-x="1228" 
d="M625 891q-26 0 -49.5 -12t-47 -43t-40 -79.5t-27 -126.5t-10.5 -179q0 -125 15 -215t41.5 -137t55.5 -68t62 -21t62 21t55.5 68t41.5 137t15 215q0 101 -10.5 179t-27 126.5t-40 79.5t-47 43t-49.5 12zM174 614q16 56 54 110.5t94 102t135.5 76.5t167.5 29
q251 0 386.5 -128t135.5 -353q0 -226 -135.5 -354t-386.5 -128q-253 0 -388 134.5t-135 388.5v122q0 151 22 269t60.5 199t97.5 137.5t127 87t154 45.5l471 82l31 102h31v-184q0 -174 -174 -205l-471 -82q-52 -9 -100 -40.5t-88.5 -85t-64.5 -138t-24 -187.5z" />
    <glyph glyph-name="afii10067" unicode="&#x432;" horiz-adv-x="1239" 
d="M645 0h-563v31l123 30v902l-123 30v31h522q136 0 239 -22.5t160.5 -60t85 -81t27.5 -92.5q0 -66 -40 -114.5t-97.5 -71t-114.5 -35t-97 -13.5l-40 -2q9 0 25.5 -0.5t63.5 -5.5t89.5 -14t94.5 -28t89.5 -45t63 -68.5t25.5 -94.5q0 -45 -16.5 -84t-56.5 -75t-100 -61.5
t-152 -40.5t-208 -15zM645 502h-113v-451h113q87 0 141 60t54 165t-54 165.5t-141 60.5zM604 973h-72v-420h72q71 0 122.5 59.5t51.5 155.5q0 90 -51.5 147.5t-122.5 57.5z" />
    <glyph glyph-name="afii10068" unicode="&#x433;" horiz-adv-x="1085" 
d="M205 963l-123 30v31h952v-358h-61q-5 5 -14 13.5t-32 38.5t-40.5 63t-32 85t-14.5 107h-308v-912l123 -30v-31h-573v31l123 30v902z" />
    <glyph glyph-name="afii10069" unicode="&#x434;" horiz-adv-x="1259" 
d="M215 51h502v922h-318l-41 -625q-4 -57 -20 -109t-36.5 -84.5t-40 -57.5t-33.5 -35zM195 1024h972v-31l-123 -30v-912h185v-389h-62q-7 5 -19 14t-42 40.5t-52.5 67.5t-41.5 94.5t-19 121.5h-778q0 -63 -18 -121t-43.5 -95.5t-51 -66.5t-43.5 -42l-18 -13h-61v389h163
q6 4 15.5 11.5t34.5 34t44.5 58t37.5 84t22 109.5l41 604l-143 41v31z" />
    <glyph glyph-name="afii10070" unicode="&#x435;" 
d="M430 512q82 0 153.5 5t102.5 10l31 5q20 72 20 154q0 170 -45 249t-108 79q-154 0 -154 -502zM635 -31q-260 0 -406.5 144.5t-146.5 398.5q0 251 138 397t364 146q224 0 357.5 -118t133.5 -292q0 -32 -5 -63t-10 -46l-5 -14q-33 -7 -91.5 -17t-223 -27t-310.5 -17
q0 -123 18 -211t52 -137t77 -71t99 -22q120 0 208.5 82.5t88.5 184.5h51q0 -128 -109 -223t-280 -95z" />
    <glyph glyph-name="afii10072" unicode="&#x436;" horiz-adv-x="1802" 
d="M1239 553h61q121 0 191 -48.5t96 -125.5l103 -318l102 -30v-31h-215q-108 0 -174 49t-92 125l-113 338h-133v-451l123 -30v-31h-574v31l123 30v451h-133l-112 -338q-26 -76 -92.5 -125t-174.5 -49h-215v31l103 30l102 318q26 77 96 125.5t191 48.5h61q-3 1 -9 4t-21.5 14
t-29 25.5t-28.5 41t-24 58.5l-52 185q-23 88 -82 102v-276q-40 -11 -81 -11q-70 0 -112 44t-42 120q0 85 51 134.5t143 49.5q68 0 115.5 -42.5t69.5 -120.5l51 -185q16 -58 56 -95.5t98 -37.5h71v400l-123 30v31h574v-31l-123 -30v-400h61q59 0 103.5 38t60.5 95l51 185
q22 78 69.5 120.5t115.5 42.5q92 0 143 -49.5t51 -134.5q0 -76 -41.5 -120t-111.5 -44q-18 0 -38.5 3t-32.5 5l-11 3v276q-59 -14 -82 -102l-51 -185q-9 -32 -23.5 -58t-29.5 -41t-29 -25.5t-22 -14.5z" />
    <glyph glyph-name="afii10073" unicode="&#x437;" horiz-adv-x="1085" 
d="M451 20q115 0 175 60t60 176q0 113 -53.5 174.5t-140.5 61.5h-134v51h93q87 0 140.5 61.5t53.5 173.5q0 113 -53.5 174.5t-140.5 61.5q-32 0 -62.5 -5t-45.5 -11l-15 -5v-307q-41 -10 -82 -10q-69 0 -111.5 42t-42.5 111q0 94 99.5 160t300.5 66q129 0 226.5 -23
t154 -62.5t83.5 -87.5t27 -104q0 -52 -21.5 -94.5t-56 -68.5t-76 -45t-82.5 -28t-75.5 -14t-55.5 -6h-22q9 0 24.5 -0.5t60 -6t85.5 -14.5t90.5 -29t85 -47t60 -71t24.5 -98q0 -61 -28 -110.5t-87.5 -90.5t-165.5 -63.5t-251 -22.5q-198 0 -314.5 94t-116.5 224h52
q0 -105 95 -186t243 -81z" />
    <glyph glyph-name="afii10074" unicode="&#x438;" horiz-adv-x="1392" 
d="M860 963l-123 30v31h574v-31l-123 -30v-902l123 -30v-31h-574v31l123 30v676l-328 -563v-113l123 -30v-31h-573v31l123 30v902l-123 30v31h573v-31l-123 -30v-676l328 563v113z" />
    <glyph glyph-name="afii10075" unicode="&#x439;" horiz-adv-x="1392" 
d="M860 963l-123 30v31h574v-31l-123 -30v-902l123 -30v-31h-574v31l123 30v676l-328 -563v-113l123 -30v-31h-573v31l123 30v902l-123 30v31h573v-31l-123 -30v-676l328 563v113zM696 1208q32 0 60.5 6t40.5 10l12 5v225q41 10 72 10q54 0 88.5 -34.5t34.5 -88.5
q0 -76 -75 -125t-233 -49t-232.5 49t-74.5 125q0 54 34.5 88.5t88.5 34.5q14 0 32 -2.5t29 -5.5l11 -2v-225l12 -5q12 -4 40 -10t60 -6z" />
    <glyph glyph-name="afii10076" unicode="&#x43a;" horiz-adv-x="1280" 
d="M717 553h61q121 0 191 -48.5t96 -125.5l102 -318l103 -30v-31h-215q-108 0 -174.5 49t-92.5 125l-112 338h-144v-451l123 -30v-31h-573v31l123 30v902l-123 30v31h573v-31l-123 -30v-400h72q59 0 103.5 38t60.5 95l51 185q22 78 69.5 120.5t115.5 42.5q92 0 143 -49.5
t51 -134.5q0 -76 -42 -120t-112 -44q-18 0 -38.5 3t-31.5 5l-11 3v276q-59 -14 -82 -102l-52 -185q-9 -32 -23.5 -58t-29.5 -41t-28.5 -25.5t-21.5 -14.5z" />
    <glyph glyph-name="afii10077" unicode="&#x43b;" horiz-adv-x="1280" 
d="M348 348l41 604l-143 41v31h952v-31l-123 -30v-902l123 -30v-31h-573v31l123 30v912h-297l-41 -625q-13 -194 -78 -286.5t-158 -92.5q-91 0 -142.5 49.5t-51.5 135.5q0 68 45.5 115.5t107.5 47.5q18 0 38.5 -2.5t32.5 -4.5l11 -3v-276q115 45 133 317z" />
    <glyph glyph-name="afii10078" unicode="&#x43c;" horiz-adv-x="1658" 
d="M1372 1024h205v-31l-123 -30v-902l123 -30v-31h-573v31l122 30v717l-360 -798h-49l-451 798v-686l164 -61v-31h-389v31l164 61v871l-144 30v31h277q99 0 161 -43t105 -121l279 -493l223 493q38 83 97.5 123.5t168.5 40.5z" />
    <glyph glyph-name="afii10079" unicode="&#x43d;" horiz-adv-x="1372" 
d="M840 963l-123 30v31h573v-31l-123 -30v-902l123 -30v-31h-573v31l123 30v431h-308v-431l123 -30v-31h-573v31l123 30v902l-123 30v31h573v-31l-123 -30v-420h308v420z" />
    <glyph glyph-name="afii10080" unicode="&#x43e;" horiz-adv-x="1249" 
d="M625 10q38 0 70 23.5t61 77t46 156t17 245.5t-17 245.5t-46 156t-61 77t-70 23.5t-70 -23.5t-61.5 -77t-46.5 -156t-17 -245.5t17 -245.5t46.5 -156t61.5 -77t70 -23.5zM625 1055q253 0 397.5 -144.5t144.5 -398.5t-144.5 -398.5t-397.5 -144.5t-398 144.5t-145 398.5
t145 398.5t398 144.5z" />
    <glyph glyph-name="afii10081" unicode="&#x43f;" horiz-adv-x="1372" 
d="M82 993v31h1208v-31l-123 -30v-902l123 -30v-31h-573v31l123 30v912h-308v-912l123 -30v-31h-573v31l123 30v902z" />
    <glyph glyph-name="afii10082" unicode="&#x440;" horiz-adv-x="1280" 
d="M512 819v-706l8.5 -8.5t22 -20t34 -25t42 -19.5t47.5 -9q42 0 72.5 20t57 70t40.5 148.5t14 242.5q0 471 -154 471q-34 0 -66 -17t-52.5 -41t-36 -48t-22.5 -41zM184 -348v1311l-123 30v31h185q55 0 99 -16t68.5 -38.5t40.5 -45t22 -38.5l5 -16q3 8 10 20t32.5 44
t56.5 56.5t84.5 44.5t113.5 20q185 0 302.5 -142t117.5 -401q0 -262 -122.5 -402.5t-327.5 -140.5q-40 0 -79 8.5t-66 20.5t-48.5 24t-32.5 20l-10 9v-399l123 -31v-31h-574v31z" />
    <glyph glyph-name="afii10083" unicode="&#x441;" horiz-adv-x="1085" 
d="M676 1014q-57 0 -99.5 -23t-76.5 -77.5t-52 -155.5t-18 -246q0 -142 18 -240.5t52 -152t76.5 -76.5t99.5 -23q120 0 208.5 82.5t88.5 184.5h51q0 -128 -109 -223t-280 -95q-260 0 -406.5 144.5t-146.5 398.5t146.5 398.5t406.5 144.5q187 0 283 -66t96 -160
q0 -69 -42.5 -111t-111.5 -42q-18 0 -38.5 2.5t-31.5 5.5l-12 2v307q-41 21 -102 21z" />
    <glyph glyph-name="afii10084" unicode="&#x442;" horiz-adv-x="1126" 
d="M881 973h-154v-912l123 -30v-31h-574v31l123 30v912h-153q0 -55 -13.5 -106.5t-33 -86.5t-39.5 -62t-34 -40l-13 -12h-62v358h1024v-358h-61q-5 5 -14 13.5t-32 38.5t-40.5 63t-32 85t-14.5 107z" />
    <glyph glyph-name="afii10085" unicode="&#x443;" 
d="M748 377l215 555l-154 61v31h379v-31l-164 -61l-410 -1055q-65 -166 -139 -241.5t-168 -75.5q-92 0 -143 49.5t-51 134.5q0 76 41.5 120t111.5 44q18 0 38.5 -2.5t31.5 -5.5l12 -2v-277q56 8 103.5 65t101.5 191l41 103l-533 983l-102 30v31h256q107 0 169 -44t108 -130z
" />
    <glyph glyph-name="afii10086" unicode="&#x444;" horiz-adv-x="1658" 
d="M993 993v-962q53 4 97 31.5t80.5 81.5t57.5 148t21 220t-21 220t-57.5 148t-80.5 81.5t-97 31.5zM666 1034v338l-123 31v31h266q184 0 184 -185v-215q139 -4 253.5 -45.5t191 -111.5t118 -163.5t41.5 -201.5t-41.5 -201.5t-118 -163.5t-191 -111.5t-253.5 -45.5v-338
l123 -31v-31h-573v31l123 31v338q-139 4 -254 45.5t-191.5 111.5t-118 163.5t-41.5 201.5t41.5 201.5t118 163.5t191.5 111.5t254 45.5zM666 31v962q-53 -4 -97 -31.5t-80.5 -81.5t-57.5 -148t-21 -220t21 -220t57.5 -148t80.5 -81.5t97 -31.5z" />
    <glyph glyph-name="afii10087" unicode="&#x445;" horiz-adv-x="1136" 
d="M184 92l254 326l-346 545l-102 30v31h276q52 0 93.5 -12t74.5 -37.5t57.5 -54t51.5 -70.5l104 -166l193 248l-154 61v31h389v-31l-164 -61l-233 -297l366 -574l103 -30v-31h-277q-99 0 -159 43t-117 131l-123 193l-215 -275l154 -61v-31h-390v31z" />
    <glyph glyph-name="afii10088" unicode="&#x446;" horiz-adv-x="1382" 
d="M1116 0h-1034v31l123 30v902l-123 30v31h573v-31l-123 -30v-912h308v912l-123 30v31h573v-31l-123 -30v-912h185v-389h-62q-7 5 -19 14t-42 40.5t-52.5 67.5t-41.5 94.5t-19 121.5z" />
    <glyph glyph-name="afii10089" unicode="&#x447;" horiz-adv-x="1300" 
d="M768 471v492l-123 30v31h574v-31l-123 -30v-902l123 -30v-31h-574v31l123 30v359q-9 -6 -26.5 -14.5t-73.5 -22.5t-115 -14q-200 0 -299.5 80t-99.5 217v297l-123 30v31h573v-31l-123 -30v-297q0 -246 154 -246q32 0 65.5 13t50.5 25z" />
    <glyph glyph-name="afii10090" unicode="&#x448;" horiz-adv-x="1925" 
d="M82 0v31l123 30v902l-123 30v31h563v-31l-113 -30v-912h267v912l-113 30v31h553v-31l-113 -30v-912h267v912l-113 30v31h563v-31l-123 -30v-902l123 -30v-31h-1761z" />
    <glyph glyph-name="afii10091" unicode="&#x449;" horiz-adv-x="1935" 
d="M1669 0h-1587v31l123 30v902l-123 30v31h563v-31l-113 -30v-912h267v912l-113 30v31h553v-31l-113 -30v-912h267v912l-113 30v31h563v-31l-123 -30v-912h185v-389h-62q-7 5 -19 14t-42 40.5t-52.5 67.5t-41.5 94.5t-19 121.5z" />
    <glyph glyph-name="afii10092" unicode="&#x44a;" horiz-adv-x="1372" 
d="M389 973h-143q0 -55 -13.5 -106.5t-33 -86.5t-39.5 -62t-34 -40l-13 -12h-62v358h789v-31l-123 -30v-349h82q532 0 532 -307t-532 -307h-533v31l123 30v912zM799 563h-82v-512h82q88 0 141 65t53 191t-53 191t-141 65z" />
    <glyph glyph-name="afii10093" unicode="&#x44b;" horiz-adv-x="1863" 
d="M532 614h103q532 0 532 -307t-532 -307h-553v31l123 30v902l-123 30v31h573v-31l-123 -30v-349zM635 563h-103v-512h103q88 0 141 65t53 191t-53 191t-141 65zM1659 963v-902l123 -30v-31h-574v31l123 30v902l-123 30v31h574v-31z" />
    <glyph glyph-name="afii10094" unicode="&#x44c;" horiz-adv-x="1208" 
d="M532 614h103q532 0 532 -307t-532 -307h-553v31l123 30v902l-123 30v31h573v-31l-123 -30v-349zM635 563h-103v-512h103q88 0 141 65t53 191t-53 191t-141 65z" />
    <glyph glyph-name="afii10095" unicode="&#x44d;" horiz-adv-x="1085" 
d="M410 1014q-27 0 -53 -5t-38 -11l-12 -5v-307q-41 -10 -82 -10q-69 0 -111 42t-42 111q0 94 96 160t283 66q260 0 406.5 -144.5t146.5 -398.5t-146.5 -398.5t-406.5 -144.5q-171 0 -280.5 95t-109.5 223h52q0 -102 88.5 -184.5t208.5 -82.5q42 0 76 12.5t65 43.5t52 81.5
t35 129.5t17 184h-153q-9 -36 -29.5 -74.5t-36.5 -58.5l-16 -21h-51v359h51q62 -72 82 -154h153q0 114 -12 200t-33 141t-52.5 89.5t-67 48t-80.5 13.5z" />
    <glyph glyph-name="afii10096" unicode="&#x44e;" horiz-adv-x="1812" 
d="M1208 -31q-232 0 -373.5 139.5t-148.5 383.5h-154v-431l123 -30v-31h-573v31l123 30v902l-123 30v31h573v-31l-123 -30v-420h154q7 237 149 374.5t373 137.5q239 0 381 -145.5t142 -397.5t-142 -397.5t-381 -145.5zM1208 10q34 0 62.5 22t55 74t41.5 155.5t15 250.5
t-15 250.5t-41.5 155.5t-55 74t-62.5 22t-62.5 -22t-55 -74t-41.5 -155.5t-15 -250.5t15 -250.5t41.5 -155.5t55 -74t62.5 -22z" />
    <glyph glyph-name="afii10097" unicode="&#x44f;" horiz-adv-x="1290" 
d="M758 451h-164l-92 -287q-22 -68 -87 -116t-159 -48h-246v31l103 30l82 246q15 46 52.5 79.5t79.5 49t82 24.5t67 10l26 1q-8 0 -21 0.5t-51.5 6t-73.5 14.5t-77.5 29t-73 47t-51.5 71t-21 98q0 60 28 110t88 91t166 63.5t251 22.5h542v-31l-123 -30v-902l123 -30v-31
h-573v31l123 30v390zM666 502h92v471h-92q-87 0 -141 -62t-54 -174t54 -173.5t141 -61.5z" />
    <glyph glyph-name="afii10071" unicode="&#x451;" 
d="M266 1331q0 61 41 102.5t103 41.5q61 0 102 -41t41 -103q0 -61 -40.5 -102t-102.5 -41t-103 41t-41 102zM645 1331q0 62 41 103t102 41q62 0 103 -41.5t41 -102.5t-41 -102t-103 -41t-102.5 41t-40.5 102zM430 512q82 0 153.5 5t102.5 10l31 5q20 72 20 154
q0 170 -45 249t-108 79q-154 0 -154 -502zM635 -31q-260 0 -406.5 144.5t-146.5 398.5q0 251 138 397t364 146q224 0 357.5 -118t133.5 -292q0 -32 -5 -63t-10 -46l-5 -14q-33 -7 -91.5 -17t-223 -27t-310.5 -17q0 -123 18 -211t52 -137t77 -71t99 -22q120 0 208.5 82.5
t88.5 184.5h51q0 -128 -109 -223t-280 -95z" />
    <glyph glyph-name="afii10099" unicode="&#x452;" horiz-adv-x="1341" 
d="M870 184v471q0 128 -46.5 197.5t-106.5 69.5q-34 0 -66 -17t-52.5 -41t-36.5 -48t-23 -41l-7 -17v-697l123 -30v-31h-573v31l123 30v1055h-133v51h133v205l-123 31v31h266q184 0 184 -185v-82h256v-51h-256v-256q3 5 10 14t31 32t52.5 40.5t75 32t98.5 14.5
q172 0 285.5 -101.5t113.5 -236.5v-471q0 -56 -22 -99t-72 -77t-139.5 -51.5t-216.5 -17.5v41q50 0 86 52t36 152z" />
    <glyph glyph-name="afii10100" unicode="&#x453;" horiz-adv-x="1085" 
d="M205 963l-123 30v31h952v-358h-61q-5 5 -14 13.5t-32 38.5t-40.5 63t-32 85t-14.5 107h-308v-912l123 -30v-31h-573v31l123 30v902zM614 1434h267l-277 -308h-72z" />
    <glyph glyph-name="afii10101" unicode="&#x454;" horiz-adv-x="1085" 
d="M676 1014q-57 0 -99.5 -23t-76.5 -76.5t-52 -152t-18 -240.5h154q9 36 29.5 74.5t36.5 59.5l16 20h51v-359h-51q-62 72 -82 154h-154q3 -105 17 -184t35.5 -129.5t52.5 -81.5t65 -43.5t76 -12.5q120 0 208.5 82.5t88.5 184.5h51q0 -128 -109 -223t-280 -95
q-260 0 -406.5 144.5t-146.5 398.5t146.5 398.5t406.5 144.5q187 0 283 -66t96 -160q0 -69 -42.5 -111t-111.5 -42q-18 0 -38.5 2.5t-31.5 5.5l-12 2v307q-41 21 -102 21z" />
    <glyph glyph-name="afii10102" unicode="&#x455;" horiz-adv-x="1105" 
d="M563 -31q-55 0 -106.5 11.5t-86.5 28t-62 33.5t-40 28l-12 12q-18 -27 -46.5 -50t-47.5 -32l-19 -10h-51v348h82q2 -7 6 -18.5t18.5 -44.5t32 -63t47 -66.5t63.5 -63t81.5 -44.5t99.5 -18q84 0 129 43.5t45 120.5q0 45 -33 85t-85 71t-115.5 62t-127 67.5t-115.5 77.5
t-85 100.5t-33 130.5q0 124 106 200.5t324 76.5q73 0 142.5 -28.5t103.5 -56.5l33 -28q18 27 46.5 50t47.5 32l19 10h51v-348h-82q-2 7 -6 18.5t-18 44.5t-31 63t-44.5 66.5t-58.5 63t-73.5 44.5t-88.5 18q-55 0 -94 -41.5t-39 -102.5q0 -50 33 -93t85 -75.5t115.5 -64.5
t127 -67.5t115.5 -75t85 -95.5t33 -123q0 -297 -471 -297z" />
    <glyph glyph-name="afii10103" unicode="&#x456;" horiz-adv-x="696" 
d="M195 1280q0 69 52.5 121.5t121.5 52.5t121.5 -52.5t52.5 -121.5t-52.5 -121.5t-121.5 -52.5t-121.5 52.5t-52.5 121.5zM82 1024h266q184 0 184 -184v-779l123 -30v-31h-573v31l123 30v902l-123 30v31z" />
    <glyph glyph-name="afii10104" unicode="&#x457;" horiz-adv-x="696" 
d="M82 1024h266q184 0 184 -184v-779l123 -30v-31h-573v31l123 30v902l-123 30v31zM16 1290q0 62 41 103t103 41q61 0 102 -41t41 -103t-40.5 -102.5t-102.5 -40.5t-103 41t-41 102zM395 1290q0 62 41.5 103t102.5 41t102 -41t41 -103t-41 -102.5t-102 -40.5q-62 0 -103 41
t-41 102z" />
    <glyph glyph-name="afii10105" unicode="&#x458;" horiz-adv-x="675" 
d="M184 1280q0 69 52.5 121.5t121.5 52.5t121.5 -52.5t52.5 -121.5t-52.5 -121.5t-121.5 -52.5t-121.5 52.5t-52.5 121.5zM10 -102v-287q21 -10 41 -10q63 0 103.5 77.5t40.5 260.5v1024l-123 30v31h266q184 0 184 -184v-901q0 -166 -120 -272.5t-330 -106.5
q-154 0 -225.5 52t-71.5 142q0 69 42 111.5t111 42.5q18 0 38.5 -2.5t31.5 -5.5z" />
    <glyph glyph-name="afii10106" unicode="&#x459;" horiz-adv-x="1751" 
d="M1075 614h103q532 0 532 -307t-532 -307h-553v31l123 30v912h-297l-41 -625q-13 -194 -78 -286.5t-158 -92.5q-91 0 -142.5 49.5t-51.5 135.5q0 68 45.5 115.5t107.5 47.5q18 0 38.5 -2.5t32.5 -4.5l11 -3v-276q115 45 133 317l41 604l-143 41v31h952v-31l-123 -30v-349z
M1178 563h-103v-512h103q88 0 141 65t53 191t-53 191t-141 65z" />
    <glyph glyph-name="afii10107" unicode="&#x45a;" horiz-adv-x="1843" 
d="M1167 594h103q117 0 208.5 -15.5t151.5 -42t99.5 -64.5t56 -81t16.5 -94t-16.5 -94t-56 -81t-99.5 -64.5t-151.5 -42t-208.5 -15.5h-553v31l123 30v471h-308v-471l123 -30v-31h-573v31l123 30v902l-123 30v31h573v-31l-123 -30v-379h308v379l-123 30v31h573v-31l-123 -30
v-369zM1270 543h-103v-492h103q88 0 141 63.5t53 182.5t-53 182.5t-141 63.5z" />
    <glyph glyph-name="afii10108" unicode="&#x45b;" horiz-adv-x="1361" 
d="M788 1116h-256v-256q3 5 10 14t31 32t52.5 40.5t75 32t98.5 14.5q172 0 285.5 -101.5t113.5 -236.5v-594l123 -30v-31h-266q-185 0 -185 184v471q0 128 -46.5 197.5t-106.5 69.5q-34 0 -66 -17t-52.5 -41t-36.5 -48t-23 -41l-7 -17v-697l123 -30v-31h-573v31l123 30v1055
h-133v51h133v205l-123 31v31h266q184 0 184 -185v-82h256v-51z" />
    <glyph glyph-name="afii10109" unicode="&#x45c;" horiz-adv-x="1280" 
d="M717 553h61q121 0 191 -48.5t96 -125.5l102 -318l103 -30v-31h-215q-108 0 -174.5 49t-92.5 125l-112 338h-144v-451l123 -30v-31h-573v31l123 30v902l-123 30v31h573v-31l-123 -30v-400h72q59 0 103.5 38t60.5 95l51 185q22 78 69.5 120.5t115.5 42.5q92 0 143 -49.5
t51 -134.5q0 -76 -42 -120t-112 -44q-18 0 -38.5 3t-31.5 5l-11 3v276q-59 -14 -82 -102l-52 -185q-9 -32 -23.5 -58t-29.5 -41t-28.5 -25.5t-21.5 -14.5zM676 1434h266l-276 -308h-72z" />
    <glyph glyph-name="afii10110" unicode="&#x45e;" 
d="M748 377l215 555l-154 61v31h379v-31l-164 -61l-410 -1055q-65 -166 -139 -241.5t-168 -75.5q-92 0 -143 49.5t-51 134.5q0 76 41.5 120t111.5 44q18 0 38.5 -2.5t31.5 -5.5l12 -2v-277q56 8 103.5 65t101.5 191l41 103l-533 983l-102 30v31h256q107 0 169 -44t108 -130z
M598 1167q32 0 60.5 6t40.5 11l12 4v225q40 10 71 10q54 0 88.5 -34.5t34.5 -88.5q0 -76 -74.5 -125t-232.5 -49t-232.5 49t-74.5 125q0 54 34.5 88.5t88.5 34.5q14 0 31.5 -2.5t28.5 -4.5l11 -3v-225l12 -4q12 -5 40.5 -11t60.5 -6z" />
    <glyph glyph-name="afii10193" unicode="&#x45f;" horiz-adv-x="1372" 
d="M82 0v31l123 30v902l-123 30v31h573v-31l-123 -30v-912h308v912l-123 30v31h573v-31l-123 -30v-902l123 -30v-31h-502q0 -91 -18 -173t-36 -119l-17 -36h-62q-3 5 -7.5 14.5t-17 42t-22 68t-17 91t-7.5 112.5h-502z" />
    <glyph glyph-name="afii10050" unicode="&#x490;" horiz-adv-x="1208" 
d="M1198 1382h-635v-1321l123 -30v-31h-584v31l123 30v1311l-123 31v31h902q0 60 13.5 115t33 90t39.5 61.5t34 38.5l13 12h61v-369z" />
    <glyph glyph-name="afii10098" unicode="&#x491;" horiz-adv-x="1044" 
d="M1034 973h-502v-912l123 -30v-31h-573v31l123 30v902l-123 30v31h758q0 55 13.5 106.5t33 86.5t39.5 62t34 39l13 13h61v-358z" />
    <glyph glyph-name="Wgrave" unicode="&#x1e80;" horiz-adv-x="2017" 
d="M625 -20l-553 1402l-113 21v31h246q108 0 177.5 -49t98.5 -125l310 -789l180 528l-152 383l-112 21v31h245q108 0 177 -49t100 -125l309 -789l295 870l-154 62v31h379v-31l-164 -62l-460 -1361h-62l-368 935l-318 -935h-61zM680 1843h266l82 -307h-72z" />
    <glyph glyph-name="wgrave" unicode="&#x1e81;" horiz-adv-x="1710" 
d="M532 -20l-471 983l-102 30v31h236q108 0 172 -45t104 -129l225 -471l117 299l-137 285l-103 30v31h236q108 0 172 -45t104 -129l226 -471l215 553l-154 61v31h379v-31l-164 -61l-379 -952h-61l-303 630l-250 -630h-62zM526 1454h267l81 -307h-71z" />
    <glyph glyph-name="Wacute" unicode="&#x1e82;" horiz-adv-x="2017" 
d="M625 -20l-553 1402l-113 21v31h246q108 0 177.5 -49t98.5 -125l310 -789l180 528l-152 383l-112 21v31h245q108 0 177 -49t100 -125l309 -789l295 870l-154 62v31h379v-31l-164 -62l-460 -1361h-62l-368 935l-318 -935h-61zM1028 1843h266l-276 -307h-72z" />
    <glyph glyph-name="wacute" unicode="&#x1e83;" horiz-adv-x="1710" 
d="M532 -20l-471 983l-102 30v31h236q108 0 172 -45t104 -129l225 -471l117 299l-137 285l-103 30v31h236q108 0 172 -45t104 -129l226 -471l215 553l-154 61v31h379v-31l-164 -61l-379 -952h-61l-303 630l-250 -630h-62zM854 1454h266l-276 -307h-72z" />
    <glyph glyph-name="Wdieresis" unicode="&#x1e84;" horiz-adv-x="2017" 
d="M625 -20l-553 1402l-113 21v31h246q108 0 177.5 -49t98.5 -125l310 -789l180 528l-152 383l-112 21v31h245q108 0 177 -49t100 -125l309 -789l295 870l-154 62v31h379v-31l-164 -62l-460 -1361h-62l-368 935l-318 -935h-61zM686 1720q0 62 41 103t102 41t102.5 -41
t41.5 -103q0 -61 -41 -102t-103 -41q-61 0 -102 40.5t-41 102.5zM1065 1720q0 62 41 103t102 41q62 0 103 -41t41 -103q0 -61 -41 -102t-103 -41t-102.5 40.5t-40.5 102.5z" />
    <glyph glyph-name="wdieresis" unicode="&#x1e85;" horiz-adv-x="1710" 
d="M532 -20l-471 983l-102 30v31h236q108 0 172 -45t104 -129l225 -471l117 299l-137 285l-103 30v31h236q108 0 172 -45t104 -129l226 -471l215 553l-154 61v31h379v-31l-164 -61l-379 -952h-61l-303 630l-250 -630h-62zM512 1321q0 61 41 102t102 41q62 0 103 -41t41 -102
t-41 -102t-103 -41q-61 0 -102 41t-41 102zM891 1321q0 61 40.5 102t102.5 41t103 -41t41 -102t-41 -102t-103 -41t-102.5 41t-40.5 102z" />
    <glyph glyph-name="Ygrave" unicode="&#x1ef2;" horiz-adv-x="1361" 
d="M522 532l-420 840l-102 31v31h256q108 0 171 -44.5t105 -129.5l304 -605l311 686l-154 62v31h389v-31l-163 -62l-359 -788v-492l123 -30v-31h-584v31l123 30v471zM444 1843h267l82 -307h-72z" />
    <glyph glyph-name="ygrave" unicode="&#x1ef3;" 
d="M748 377l215 555l-154 61v31h379v-31l-164 -61l-410 -1055q-65 -166 -139 -241.5t-168 -75.5q-92 0 -143 49.5t-51 134.5q0 76 41.5 120t111.5 44q18 0 38.5 -2.5t31.5 -5.5l12 -2v-277q56 8 103.5 65t101.5 191l41 103l-533 983l-102 30v31h256q107 0 169 -44t108 -130z
M342 1434h266l82 -308h-72z" />
    <glyph glyph-name="endash" unicode="&#x2013;" 
d="M1085 604h-1024v82h1024v-82z" />
    <glyph glyph-name="emdash" unicode="&#x2014;" horiz-adv-x="1597" 
d="M1536 604h-1475v82h1475v-82z" />
    <glyph glyph-name="quoteleft" unicode="&#x2018;" horiz-adv-x="501" 
d="M338 1454l20 -51q-7 -2 -18 -6.5t-41 -22.5t-54 -41.5t-48 -64.5t-33 -90q41 30 92 30q62 0 108 -46t46 -107t-46 -107.5t-108 -46.5q-71 0 -117.5 50.5t-46.5 133.5q0 61 13.5 114t35.5 89.5t48 66.5t52 47.5t48 30t35 17.5z" />
    <glyph glyph-name="quoteright" unicode="&#x2019;" horiz-adv-x="501" 
d="M164 901l-21 51q7 2 18 6.5t41 23t54.5 41.5t48.5 64.5t33 90.5q-41 -31 -92 -31q-62 0 -108 46t-46 107q0 62 46 108t108 46q71 0 117.5 -50.5t46.5 -133.5q0 -61 -13.5 -114t-35.5 -89.5t-48 -66.5t-52 -47.5t-48 -30t-35 -16.5z" />
    <glyph glyph-name="quotesinglbase" unicode="&#x201a;" horiz-adv-x="501" 
d="M164 -266l-21 51q7 2 18 6.5t41 22.5t54.5 41.5t48.5 64.5t33 90q-41 -30 -92 -30q-62 0 -108 46t-46 107t46 107.5t108 46.5q70 0 117 -51t47 -134t-25.5 -151.5t-61.5 -107t-72 -65t-61 -35.5z" />
    <glyph glyph-name="quotedblleft" unicode="&#x201c;" horiz-adv-x="890" 
d="M727 1454l21 -51q-7 -2 -18 -6.5t-41 -22.5t-54.5 -41.5t-48.5 -64.5t-33 -90q41 30 92 30q62 0 108 -46t46 -107t-46.5 -107.5t-107.5 -46.5q-71 0 -117.5 50.5t-46.5 133.5q0 61 13.5 114t35.5 89.5t48 66.5t52 47.5t48 30t36 17.5zM338 1454l20 -51q-7 -2 -18 -6.5
t-41 -22.5t-54 -41.5t-48 -64.5t-33 -90q41 30 92 30q62 0 108 -46t46 -107t-46 -107.5t-108 -46.5q-71 0 -117.5 50.5t-46.5 133.5q0 61 13.5 114t35.5 89.5t48 66.5t52 47.5t48 30t35 17.5z" />
    <glyph glyph-name="quotedblright" unicode="&#x201d;" horiz-adv-x="890" 
d="M164 901l-21 51q7 2 18 6.5t41 23t54.5 41.5t48.5 64.5t33 90.5q-41 -31 -92 -31q-62 0 -108 46t-46 107q0 62 46 108t108 46q71 0 117.5 -50.5t46.5 -133.5q0 -61 -13.5 -114t-35.5 -89.5t-48 -66.5t-52 -47.5t-48 -30t-35 -16.5zM553 901l-21 51q7 2 18 6.5t41 23
t54.5 41.5t48.5 64.5t33 90.5q-41 -31 -92 -31q-62 0 -108 46t-46 107q0 62 46.5 108t107.5 46q71 0 117.5 -50.5t46.5 -133.5q0 -61 -13.5 -114t-35.5 -89.5t-48 -66.5t-52 -47.5t-48 -30t-36 -16.5z" />
    <glyph glyph-name="quotedblbase" unicode="&#x201e;" horiz-adv-x="890" 
d="M164 -266l-21 51q7 2 18 6.5t41 22.5t54.5 41.5t48.5 64.5t33 90q-41 -30 -92 -30q-62 0 -108 46t-46 107t46 107.5t108 46.5q70 0 117 -51t47 -134t-25.5 -151.5t-61.5 -107t-72 -65t-61 -35.5zM553 -266l-21 51q7 2 18 6.5t41 22.5t54.5 41.5t48.5 64.5t33 90
q-41 -30 -92 -30q-62 0 -108 46t-46 107t46.5 107.5t107.5 46.5q70 0 117 -51t47 -134t-25.5 -151.5t-61.5 -107t-72 -65t-62 -35.5z" />
    <glyph glyph-name="dagger" unicode="&#x2020;" horiz-adv-x="1105" 
d="M922 963l122 -134l-122 -133l-308 103l134 -922l-195 -307l-195 307l134 922l-308 -103l-123 133l123 134l308 -103l-93 410l154 184l154 -184l-93 -410z" />
    <glyph glyph-name="daggerdbl" unicode="&#x2021;" horiz-adv-x="1105" 
d="M614 829l74 -266l-74 -287l267 103l123 -133l-123 -133l-267 102l113 -440l-174 -205l-174 205l113 440l-267 -102l-123 133l123 133l267 -103l-72 287l72 266l-308 -102l-123 133l123 133l308 -102l-82 389l143 174l143 -174l-82 -389l308 102l122 -133l-122 -133z" />
    <glyph glyph-name="bullet" unicode="&#x2022;" horiz-adv-x="675" 
d="M543 676q0 -92 -56.5 -148.5t-148.5 -56.5t-148.5 56.5t-56.5 148.5t56.5 148.5t148.5 56.5t148.5 -56.5t56.5 -148.5z" />
    <glyph glyph-name="ellipsis" unicode="&#x2026;" horiz-adv-x="1433" 
d="M399 133q0 -61 -45.5 -107t-107.5 -46t-108 46t-46 107t46 107.5t108 46.5q61 0 107 -46t46 -108zM870 133q0 -61 -46 -107t-107 -46q-62 0 -108 46t-46 107t46.5 107.5t107.5 46.5t107 -46t46 -108zM1341 133q0 -61 -45.5 -107t-107.5 -46t-108 46t-46 107t46 107.5
t108 46.5q61 0 107 -46t46 -108z" />
    <glyph glyph-name="perthousand" unicode="&#x2030;" horiz-adv-x="2232" 
d="M1239 1434h113l-1055 -1434h-113zM1208 338q0 91 -10 156.5t-27 98.5t-35.5 47.5t-39.5 14.5t-39.5 -14.5t-36 -47.5t-27.5 -98.5t-10 -156.5t10 -156.5t27.5 -99t36 -48t39.5 -14.5t39.5 14.5t35.5 48t27 99t10 156.5zM1434 338q0 -160 -95 -259t-243 -99t-243 99
t-95 259t95 259t243 99t243 -99t95 -259zM512 1096q0 91 -10 156.5t-27.5 98.5t-36 47.5t-39.5 14.5t-39.5 -14.5t-35.5 -47.5t-27 -98.5t-10 -156.5t10 -156.5t27 -99t35.5 -48t39.5 -14.5t39.5 14.5t36 48t27.5 99t10 156.5zM737 1096q0 -160 -95 -259.5t-243 -99.5
t-243 99.5t-95 259.5t95 259t243 99t243 -99t95 -259zM1946 338q0 91 -10 156.5t-27.5 98.5t-36 47.5t-39.5 14.5t-39.5 -14.5t-36 -47.5t-27.5 -98.5t-10 -156.5t10 -156.5t27.5 -99t36 -48t39.5 -14.5t39.5 14.5t36 48t27.5 99t10 156.5zM2171 338q0 -160 -95 -259
t-243 -99t-243 99t-95 259t95 259t243 99t243 -99t95 -259z" />
    <glyph glyph-name="guilsinglleft" unicode="&#x2039;" horiz-adv-x="747" 
d="M31 512l594 492l61 -72l-481 -420l481 -420l-61 -72z" />
    <glyph glyph-name="guilsinglright" unicode="&#x203a;" horiz-adv-x="747" 
d="M123 1004l594 -492l-594 -492l-62 72l482 420l-482 420z" />
    <glyph glyph-name="Euro" unicode="&#x20ac;" horiz-adv-x="1423" 
d="M41 860h152q36 288 207.5 446t430.5 158q54 0 107.5 -13.5t91 -33t67.5 -39.5t45 -34l15 -13q18 32 46.5 60.5t47.5 40.5l19 12h51v-389h-82q-2 7 -6 20t-19 50.5t-33.5 71t-49.5 75t-67 71t-87 50t-107 20.5q-47 0 -88.5 -17t-81.5 -57.5t-70.5 -102.5t-52.5 -158
t-30 -218h405v-61h-409v-185h389v-61h-383q9 -118 32.5 -210t56.5 -152t78.5 -99t95.5 -55.5t110 -16.5q147 0 262.5 118.5t115.5 271.5h52q0 -179 -137 -310t-334 -131q-286 0 -465.5 151t-220.5 433h-175v61h166q-2 72 -2 103l2 82h-145v61z" />
    <glyph glyph-name="afii61352" unicode="&#x2116;" horiz-adv-x="2252" 
d="M1239 522v819l-164 62v31h389v-31l-164 -62v-1372h-61l-952 1116v-993l164 -61v-31h-390v31l164 61v1270l-143 41v31h215q58 0 105 -12.5t82.5 -38t54.5 -44t45 -49.5zM1946 1096q0 91 -10 156.5t-27.5 98.5t-36 47.5t-39.5 14.5t-39.5 -14.5t-36 -47.5t-27.5 -98.5
t-10 -156.5t10 -156.5t27.5 -99t36 -48t39.5 -14.5t39.5 14.5t36 48t27.5 99t10 156.5zM2171 1096q0 -160 -95 -259.5t-243 -99.5t-243 99.5t-95 259.5t95 259t243 99t243 -99t95 -259zM2130 543h-594v82h594v-82z" />
    <glyph glyph-name="trademark" unicode="&#x2122;" horiz-adv-x="1822" 
d="M737 1434v-256h-41q-3 3 -8.5 9.5t-20 28t-25 44.5t-19.5 59.5t-9 73.5h-102v-584l82 -21v-30h-389v30l82 21v584h-103q0 -37 -8.5 -73t-20.5 -60.5t-24 -44t-21 -28.5l-8 -9h-41v256h676zM922 819l102 -31v-30h-256v30l102 31v563l-82 21v31h175q50 0 94 -34.5t69 -78.5
l170 -301l138 301q20 44 61.5 78.5t91.5 34.5h164v-31l-82 -21v-573l82 -21v-30h-389v30l82 21v399l-215 -471h-41l-266 471v-389z" />
    <glyph glyph-name="foundryicon" horiz-adv-x="2672" 
d="M399 553h-338l338 338v-338zM809 717q0 -69 -52.5 -121.5t-121.5 -52.5t-121.5 52.5t-52.5 121.5t52.5 121.5t121.5 52.5t121.5 -52.5t52.5 -121.5zM809 881h369l-185 -338zM1485 553v287l287 -287h-287zM1454 553h-369l185 338zM1812 881v-287l-286 287h286zM1886 553
v287l287 -287h-287zM2214 881v-287l-287 287h287zM2243 881h368l-184 -338z" />
    <glyph glyph-name="commaaccent" horiz-adv-x="378" 
d="M113 -512l-21 41q6 2 15.5 6.5t36 22t48.5 39.5t43.5 61.5t30.5 85.5q-31 -31 -82 -31q-61 0 -102 41t-41 103q0 61 40.5 102t102.5 41q70 0 112 -45.5t42 -128.5q0 -54 -12.5 -102t-32.5 -81.5t-44 -61t-47.5 -44.5t-43.5 -28.5t-32 -16.5z" />
    </font>
</defs>
</svg>
