<svg width="165" height="81" viewBox="0 0 165 81" fill="none" xmlns="http://www.w3.org/2000/svg">
<path fill-rule="evenodd" clip-rule="evenodd" d="M146.522 81H14.1497C6.36696 81 0 74.6711 0 66.9366V19.3646C0 9.26411 8.31482 1 18.4781 1H155.456C160.705 1 165 5.26882 165 10.4863V62.6354C165 72.7359 156.684 81 146.522 81Z" fill="#69AD7D"/>
<path fill-rule="evenodd" clip-rule="evenodd" d="M155.418 75H15.582C10.3119 75 6 70.7083 6 65.4612V10.5388C6 5.29328 10.3119 1 15.582 1H155.418C160.688 1 165 5.29328 165 10.5388V65.4612C165 70.7083 160.688 75 155.418 75Z" fill="white"/>
<path fill-rule="evenodd" clip-rule="evenodd" d="M154.418 75H14.582C9.31191 75 5 70.7083 5 65.4612V10.5388C5 5.29328 9.31191 1 14.582 1H154.418C159.688 1 164 5.29328 164 10.5388V65.4612C164 70.7083 159.688 75 154.418 75Z" stroke="#92C0A0" stroke-linecap="round"/>
<path d="M21 22H58" stroke="#92C0A0" stroke-linecap="round"/>
<path d="M21 45H88" stroke="#92C0A0" stroke-linecap="round"/>
<path d="M21 34H88" stroke="#92C0A0" stroke-linecap="round"/>
<path d="M21 57H88" stroke="#92C0A0" stroke-linecap="round"/>
<path fill-rule="evenodd" clip-rule="evenodd" d="M130.704 60L111.043 35.5951C109.382 33.534 109.744 30.5471 111.85 28.9222C113.955 27.2973 117.009 27.6513 118.669 29.7125L129.754 43.4733L147.019 16.247C148.431 14.018 151.424 13.3307 153.704 14.7148C155.982 16.0982 156.683 19.0272 155.27 21.2563L130.704 60Z" fill="#FFCA4D"/>
</svg>
