<svg width="602" height="298" viewBox="0 0 602 298" fill="none" xmlns="http://www.w3.org/2000/svg">
<path d="M601.613 261.1C600.618 275.037 578.482 283.808 574.723 298V289.825C578.205 276.541 597.357 268.168 601.033 255.962C601.302 255.093 601.487 254.2 601.586 253.294V261.1H601.613Z" fill="#4D8EFF"/>
<path d="M592.883 235.326C588.468 238.318 583.144 239.558 577.904 238.818C575.279 238.392 574.118 237.484 574.008 236.462C573.676 233.141 584.233 228.599 592.883 235.326Z" fill="#4D8EFF"/>
<path d="M590.889 208.758C587.24 210.81 583.033 211.568 578.922 210.915C577.181 210.546 576.435 209.979 576.435 209.411C576.463 207.537 583.952 205.437 590.889 208.758Z" fill="#4D8EFF"/>
<path d="M600.448 222.468V222.922C600.426 223.569 600.361 224.214 600.254 224.853C600.144 225.51 599.977 226.156 599.757 226.783C599.34 225.568 598.774 224.414 598.071 223.348C596.275 220.618 593.792 218.44 590.886 217.047C592.889 215.988 594.748 214.661 596.413 213.101C596.994 213.735 597.521 214.418 597.988 215.145C598.941 216.565 599.634 218.153 600.033 219.828C600.276 220.687 600.416 221.574 600.448 222.468Z" fill="#4D8EFF"/>
<path d="M601.998 194.083C601.983 195.546 601.692 196.992 601.142 198.341C600.13 196.285 598.616 194.535 596.748 193.26V185C598.287 185.949 599.573 187.275 600.489 188.861C601.406 190.446 601.924 192.241 601.998 194.083Z" fill="#4D8EFF"/>
<path d="M601.448 253.294C601.35 254.2 601.164 255.093 600.896 255.962C600.896 255.593 600.675 255.224 600.536 254.855C599.082 250.402 596.428 246.465 592.881 243.501C594.43 242.45 595.825 241.179 597.027 239.726C598.493 241.843 599.673 244.153 600.536 246.595C600.993 247.798 601.291 249.058 601.421 250.342C601.528 251.322 601.538 252.311 601.448 253.294Z" fill="#4D8EFF"/>
<path d="M602 194.083V202.315C601.841 204.4 601.268 206.43 600.318 208.28C599.367 210.13 598.059 211.761 596.473 213.073C594.808 214.633 592.949 215.959 590.946 217.018C587.292 219.058 583.09 219.816 578.979 219.176C577.238 218.807 576.492 218.239 576.492 217.643V209.411C576.492 209.979 577.238 210.547 578.979 210.916C583.09 211.569 587.296 210.81 590.946 208.758C595.437 206.601 599.061 202.909 601.199 198.313C601.726 196.968 601.998 195.533 602 194.083Z" fill="#4D8EFF"/>
<path d="M600.448 222.865V231.211C600.259 234.362 599.054 237.358 597.021 239.726C595.82 241.179 594.424 242.45 592.875 243.501C588.471 246.519 583.138 247.763 577.897 246.993C575.271 246.595 574.111 245.687 574 244.665V236.433C574 237.455 575.271 238.364 577.897 238.789C583.137 239.53 588.46 238.289 592.875 235.298C595.993 233.284 598.404 230.301 599.757 226.783C599.977 226.156 600.144 225.51 600.254 224.853C600.364 224.196 600.428 223.532 600.448 222.865Z" fill="#4D8EFF"/>
<path d="M34.6164 28.3952V41.4831C34.4856 39.9246 34.1733 38.3871 33.6861 36.9023C29.9088 25.237 15.5886 18.1809 0 13.088V0C17.5337 5.71887 33.4606 13.9415 34.6164 28.3952Z" fill="#4D8EFF"/>
<path d="M14.0753 137.651C13.293 136.323 12.8116 134.836 12.6658 133.298C12.5411 130.643 12.9141 127.989 13.7652 125.474C16.5841 116.483 24.7872 110.422 28.5646 103.822C29.6126 105.552 30.2673 107.495 30.4815 109.512C31.158 119.356 18.2755 126.1 14.0753 137.651Z" fill="#4D8EFF"/>
<path d="M30.5281 57.843C26.8635 65.0698 20.098 71.5 16.4334 78.4707C15.1502 77.211 14.3681 75.5209 14.2347 73.7192C14.1922 73.227 14.1922 72.732 14.2347 72.2397C14.3871 70.8331 14.6993 69.4488 15.1649 68.1142C17.9838 59.9484 26.4406 52.9492 30.4999 44.7835C31.818 42.2829 32.876 39.6513 33.6571 36.9307C34.1443 38.4155 34.4565 39.953 34.5873 41.5115C34.7915 47.2332 33.384 52.8961 30.5281 57.843Z" fill="#4D8EFF"/>
<path d="M30.4711 96.5378V109.569C30.2569 107.552 29.6022 105.609 28.5542 103.878C27.4803 102.11 26.2133 100.468 24.7768 98.9846C19.4209 93.4649 14.3187 91.957 14.0368 86.921V85.7829L14.2341 73.7761C14.3675 75.5778 15.1496 77.268 16.4328 78.5276C18.4342 80.6331 21.5069 82.5109 24.8896 85.8967C27.9213 88.6793 29.8954 92.4428 30.4711 96.5378Z" fill="#4D8EFF"/>
<path d="M38 163.912V177C33.3488 163.827 28.5566 164.794 20.0435 157.453C14.4056 152.389 12.0941 149.202 12.6861 143.569V133.298C12.8319 134.836 13.3132 136.322 14.0955 137.651C15.7324 140.187 17.7483 142.452 20.0716 144.365C28.5566 151.706 33.3488 150.739 38 163.912Z" fill="#4D8EFF"/>
<path d="M213.241 259.462V268C199.249 263.674 193.658 257.043 193.913 249.814C193.977 248.5 194.205 247.2 194.594 245.943C196.496 251.266 202.286 256.047 213.241 259.462Z" fill="#FF757F"/>
<path d="M223 153.562V153.704C222.957 155.119 222.471 156.483 221.609 157.604C213.407 142.264 182.244 143.373 176.766 130.111C176.268 128.911 176.007 127.626 176 126.326C176.022 124.836 176.34 123.365 176.937 122C183.124 135.262 216.16 133.811 222.517 151.143C222.832 151.911 222.996 152.732 223 153.562Z" fill="#FF757F"/>
<path d="M222.747 208.746C222.501 209.946 221.921 211.052 221.072 211.934C220.845 211.649 220.647 211.364 220.391 211.08C214.715 204.506 201.092 201.773 195.358 195.199C193.611 193.525 192.506 191.289 192.236 188.881V188.369C192.33 186.968 192.844 185.628 193.712 184.527C194.212 185.301 194.772 186.033 195.387 186.718C201.063 193.264 214.686 195.996 220.419 202.57C221.59 203.81 222.404 205.344 222.775 207.01C222.88 207.585 222.87 208.175 222.747 208.746Z" fill="#FF757F"/>
<path d="M206.798 230.205C201.3 234.123 197.059 239.562 194.594 245.858C194.205 247.114 193.976 248.415 193.913 249.729V240.337C194.537 234.161 199.334 227.587 206.713 221.695C211.623 217.939 218.065 215.263 220.904 211.934C221.752 211.052 222.333 209.946 222.578 208.746V215.52C223.827 221.638 213.865 224.826 206.798 230.205Z" fill="#FF757F"/>
<path d="M223 153.704L223 162.613C222.262 172.033 199.755 176.387 193.71 184.527C192.842 185.628 192.328 186.968 192.234 188.369V180.4C191.809 170.468 215.592 166.17 221.638 157.632C222.495 156.5 222.972 155.125 223 153.704Z" fill="#FF757F"/>
<path d="M406.7 37V43.6567C415.33 46.3187 419.901 49.9717 421.379 54.191C421.37 54.2205 421.361 54.25 421.352 54.2794C419.415 59.2107 416.08 63.4725 411.755 66.5447C410.126 67.7859 408.299 68.8777 406.55 69.9231C402.35 72.4323 398.598 74.6742 399.119 78.0735V83.3422C399.334 82.4162 399.795 81.565 400.453 80.8778C401.942 79.3087 404.317 77.8903 406.81 76.4012C408.503 75.3903 410.25 74.3468 411.812 73.2014C417.604 68.5842 421.381 63.4571 421.892 58.6133V51.5627C421.903 51.4298 421.913 51.2966 421.92 51.1632C422.118 45.4979 417.717 40.3992 406.7 37Z" fill="url(#paint0_linear)"/>
<path d="M401.643 172.343V179C410.956 176.252 436.001 165.857 436.001 154.554V147.898C435.984 149.066 435.743 150.219 435.291 151.297C431.088 161.239 410.019 169.851 401.643 172.343Z" fill="url(#paint1_linear)"/>
<path d="M399 126.455C399.049 125.347 399.436 124.28 400.107 123.395C403.424 129.575 411.529 132.395 419.205 135.066C426.447 137.586 433.307 139.973 435.403 144.923C435.786 145.819 435.988 146.782 435.999 147.756C435.982 148.924 435.741 150.078 435.289 151.155C433.034 146.356 426.278 144.014 419.164 141.548C410.869 138.673 402.088 135.629 399.397 128.324C399.168 127.726 399.034 127.095 399 126.455Z" fill="url(#paint2_linear)"/>
<path d="M400.533 80.8777C399.874 81.5648 399.413 82.4161 399.198 83.3421C399.127 83.7925 399.127 84.2513 399.198 84.7018C399.495 86.0108 400.143 87.215 401.072 88.186C403.329 90.7637 407.127 92.5836 410.925 94.4036C414.723 96.2236 418.521 98.0436 420.778 100.621C421.255 101.145 421.687 101.707 422.072 102.301C422.067 102.308 422.062 102.314 422.057 102.321C420.017 105.062 415.577 107.258 411.13 109.458C405.24 112.371 399.34 115.289 399 119.486V126.455C399.041 125.35 399.417 124.283 400.079 123.395C402.1 120.575 406.623 118.34 411.139 116.108C417.284 113.071 423.417 110.04 423.221 105.55V99.6176C423.233 99.5183 423.242 99.4185 423.249 99.3182V98.9217C423.044 97.0284 422.168 95.2703 420.778 93.9645C418.521 91.3868 414.723 89.5668 410.925 87.7469C407.127 85.9269 403.329 84.1069 401.072 81.5292L400.533 80.8777Z" fill="url(#paint3_linear)"/>
<defs>
<linearGradient id="paint0_linear" x1="64045.1" y1="84537.2" x2="63838.5" y2="84537.2" gradientUnits="userSpaceOnUse">
<stop stop-color="#FF3EB9"/>
<stop offset="0.04" stop-color="#FF44BC"/>
<stop offset="0.7" stop-color="#FF98E3"/>
<stop offset="1" stop-color="#FFB9F2"/>
</linearGradient>
<linearGradient id="paint1_linear" x1="64045.1" y1="84537.2" x2="63838.5" y2="84537.2" gradientUnits="userSpaceOnUse">
<stop stop-color="#FF3EB9"/>
<stop offset="0.04" stop-color="#FF44BC"/>
<stop offset="0.7" stop-color="#FF98E3"/>
<stop offset="1" stop-color="#FFB9F2"/>
</linearGradient>
<linearGradient id="paint2_linear" x1="64045.1" y1="84537.2" x2="63838.5" y2="84537.2" gradientUnits="userSpaceOnUse">
<stop stop-color="#FF3EB9"/>
<stop offset="0.04" stop-color="#FF44BC"/>
<stop offset="0.7" stop-color="#FF98E3"/>
<stop offset="1" stop-color="#FFB9F2"/>
</linearGradient>
<linearGradient id="paint3_linear" x1="64045.1" y1="84537.2" x2="63838.5" y2="84537.2" gradientUnits="userSpaceOnUse">
<stop stop-color="#FF3EB9"/>
<stop offset="0.04" stop-color="#FF44BC"/>
<stop offset="0.7" stop-color="#FF98E3"/>
<stop offset="1" stop-color="#FFB9F2"/>
</linearGradient>
</defs>
</svg>
