<svg width="892" height="319" viewBox="0 0 892 319" fill="none" xmlns="http://www.w3.org/2000/svg">
<path d="M891.613 100.1C890.618 114.037 868.482 122.808 864.723 137V128.825C868.205 115.541 887.357 107.168 891.033 94.9622C891.302 94.0935 891.487 93.1998 891.586 92.294V100.1H891.613Z" fill="#4D8EFF"/>
<path d="M882.883 74.3263C878.468 77.3175 873.144 78.5583 867.904 77.8176C865.279 77.3919 864.118 76.4836 864.008 75.4617C863.676 72.1407 874.233 67.5991 882.883 74.3263Z" fill="#4D8EFF"/>
<path d="M880.889 47.758C877.24 49.81 873.033 50.5682 868.922 49.9153C867.181 49.5463 866.435 48.9786 866.435 48.4109C866.463 46.5375 873.952 44.437 880.889 47.758Z" fill="#4D8EFF"/>
<path d="M890.448 61.4682V61.9223C890.426 62.5695 890.361 63.2143 890.254 63.8525C890.144 64.5097 889.977 65.1555 889.757 65.7827C889.34 64.5683 888.774 63.414 888.071 62.3481C886.275 59.6182 883.792 57.4403 880.886 56.0467C882.889 54.9878 884.748 53.6611 886.413 52.1012C886.994 52.7345 887.521 53.4183 887.988 54.1449C888.941 55.5654 889.634 57.1525 890.033 58.8284C890.276 59.6875 890.416 60.5741 890.448 61.4682Z" fill="#4D8EFF"/>
<path d="M891.998 33.0831C891.983 34.5458 891.692 35.9915 891.142 37.3409C890.13 35.2853 888.616 33.5346 886.748 32.26V24C888.287 24.9486 889.573 26.2753 890.489 27.8608C891.406 29.4462 891.924 31.2408 891.998 33.0831Z" fill="#4D8EFF"/>
<path d="M891.448 92.2938C891.35 93.1996 891.164 94.0933 890.896 94.962C890.896 94.593 890.675 94.224 890.536 93.855C889.082 89.4024 886.428 85.4652 882.881 82.5011C884.43 81.4501 885.825 80.1791 887.027 78.7259C888.493 80.8426 889.673 83.1533 890.536 85.595C890.993 86.7976 891.291 88.0578 891.421 89.3418C891.528 90.3223 891.538 91.3114 891.448 92.2938Z" fill="#4D8EFF"/>
<path d="M892 33.0834V41.315C891.841 43.4003 891.268 45.4301 890.318 47.28C889.367 49.1299 888.059 50.7609 886.473 52.0728C884.808 53.6327 882.949 54.9594 880.946 56.0183C877.292 58.0582 873.09 58.8158 868.979 58.1756C867.238 57.8066 866.492 57.2389 866.492 56.6428V48.4112C866.492 48.9789 867.238 49.5466 868.979 49.9156C873.09 50.5686 877.296 49.8103 880.946 47.7584C885.437 45.6006 889.061 41.9088 891.199 37.3128C891.726 35.9685 891.998 34.5328 892 33.0834Z" fill="#4D8EFF"/>
<path d="M890.448 61.8655V70.2106C890.259 73.3615 889.054 76.358 887.021 78.726C885.82 80.1792 884.424 81.4502 882.875 82.5012C878.471 85.5195 873.138 86.7626 867.897 85.9925C865.271 85.5951 864.111 84.6868 864 83.665V75.4334C864 76.4552 865.271 77.3635 867.897 77.7893C873.137 78.53 878.46 77.2892 882.875 74.298C885.993 72.2842 888.404 69.3011 889.757 65.7827C889.977 65.1555 890.144 64.5097 890.254 63.8525C890.364 63.1956 890.428 62.5316 890.448 61.8655Z" fill="#4D8EFF"/>
<path d="M216.616 28.3952V41.4831C216.486 39.9246 216.173 38.3871 215.686 36.9023C211.909 25.237 197.589 18.1809 182 13.088V0C199.534 5.71887 215.461 13.9415 216.616 28.3952Z" fill="#4D8EFF"/>
<path d="M196.075 137.651C195.293 136.323 194.812 134.836 194.666 133.298C194.541 130.643 194.914 127.989 195.765 125.474C198.584 116.483 206.787 110.422 210.565 103.822C211.613 105.552 212.267 107.495 212.481 109.512C213.158 119.356 200.276 126.1 196.075 137.651Z" fill="#4D8EFF"/>
<path d="M212.528 57.843C208.863 65.0698 202.098 71.5 198.433 78.4707C197.15 77.211 196.368 75.5209 196.235 73.7192C196.192 73.227 196.192 72.732 196.235 72.2397C196.387 70.8331 196.699 69.4488 197.165 68.1142C199.984 59.9484 208.441 52.9492 212.5 44.7835C213.818 42.2829 214.876 39.6513 215.657 36.9307C216.144 38.4155 216.457 39.953 216.587 41.5115C216.792 47.2332 215.384 52.8961 212.528 57.843Z" fill="#4D8EFF"/>
<path d="M212.471 96.5378V109.569C212.257 107.552 211.602 105.609 210.554 103.878C209.48 102.11 208.213 100.468 206.777 98.9846C201.421 93.4649 196.319 91.957 196.037 86.921V85.7829L196.234 73.7761C196.368 75.5778 197.15 77.268 198.433 78.5276C200.434 80.6331 203.507 82.5109 206.89 85.8967C209.921 88.6793 211.895 92.4428 212.471 96.5378Z" fill="#4D8EFF"/>
<path d="M220 163.912V177C215.349 163.827 210.557 164.794 202.043 157.453C196.406 152.389 194.094 149.202 194.686 143.569V133.298C194.832 134.836 195.313 136.322 196.096 137.651C197.732 140.187 199.748 142.452 202.072 144.365C210.557 151.706 215.349 150.739 220 163.912Z" fill="#4D8EFF"/>
<path d="M765.241 226.462V235C751.249 230.674 745.658 224.043 745.913 216.814C745.977 215.5 746.205 214.2 746.594 212.943C748.496 218.266 754.286 223.047 765.241 226.462Z" fill="#FF757F"/>
<path d="M775 120.562V120.704C774.957 122.119 774.471 123.483 773.609 124.604C765.407 109.264 734.244 110.373 728.766 97.1111C728.268 95.9114 728.007 94.6256 728 93.3259C728.022 91.8358 728.34 90.365 728.937 89C735.124 102.262 768.16 100.811 774.517 118.143C774.832 118.911 774.996 119.732 775 120.562Z" fill="#FF757F"/>
<path d="M774.747 175.746C774.501 176.946 773.921 178.052 773.072 178.934C772.845 178.649 772.647 178.364 772.391 178.08C766.715 171.506 753.092 168.773 747.358 162.199C745.611 160.525 744.506 158.289 744.236 155.881V155.369C744.33 153.968 744.844 152.628 745.712 151.527C746.212 152.301 746.772 153.033 747.387 153.718C753.063 160.264 766.686 162.996 772.419 169.57C773.59 170.81 774.404 172.344 774.775 174.01C774.88 174.585 774.87 175.175 774.747 175.746Z" fill="#FF757F"/>
<path d="M758.798 197.205C753.3 201.123 749.059 206.562 746.594 212.858C746.205 214.114 745.976 215.415 745.913 216.729V207.337C746.537 201.161 751.334 194.587 758.713 188.695C763.623 184.939 770.065 182.263 772.904 178.934C773.752 178.052 774.333 176.946 774.578 175.746V182.52C775.827 188.638 765.865 191.826 758.798 197.205Z" fill="#FF757F"/>
<path d="M775 120.704L775 129.613C774.262 139.033 751.755 143.387 745.71 151.527C744.842 152.628 744.328 153.968 744.234 155.369V147.4C743.809 137.468 767.592 133.17 773.638 124.632C774.495 123.5 774.972 122.125 775 120.704Z" fill="#FF757F"/>
<path d="M7.69997 177V183.657C16.3299 186.319 20.9015 189.972 22.3792 194.191C22.3703 194.22 22.3614 194.25 22.3523 194.279C20.4146 199.211 17.0797 203.472 12.7548 206.545C11.1264 207.786 9.29913 208.878 7.54954 209.923C3.34983 212.432 -0.402272 214.674 0.118887 218.074V223.342C0.334023 222.416 0.795001 221.565 1.45346 220.878C2.94185 219.309 5.31678 217.89 7.81017 216.401C9.50279 215.39 11.25 214.347 12.8115 213.201C18.6041 208.584 22.3807 203.457 22.8918 198.613V191.563C22.9032 191.43 22.9125 191.297 22.9197 191.163C23.1185 185.498 18.7173 180.399 7.69997 177Z" fill="url(#paint0_linear)"/>
<path d="M2.64258 312.343V319C11.9562 316.252 37.0007 305.857 37.0007 294.554V287.898C36.9837 289.066 36.7428 290.219 36.2908 291.297C32.0883 301.239 11.0191 309.851 2.64258 312.343Z" fill="url(#paint1_linear)"/>
<path d="M0 266.455C0.0494573 265.347 0.435648 264.28 1.10737 263.395C4.42385 269.575 12.5288 272.395 20.2046 275.066C27.447 277.586 34.3072 279.973 36.4026 284.923C36.7858 285.819 36.9885 286.782 36.9989 287.756C36.982 288.924 36.741 290.078 36.2891 291.155C34.0344 286.356 27.2776 284.014 20.1642 281.548C11.8686 278.673 3.08798 275.629 0.397488 268.324C0.16808 267.726 0.0339932 267.095 0 266.455Z" fill="url(#paint2_linear)"/>
<path d="M1.53254 220.878C0.874075 221.565 0.413097 222.416 0.19796 223.342C0.126722 223.793 0.126722 224.251 0.19796 224.702C0.495321 226.011 1.14301 227.215 2.07205 228.186C4.32947 230.764 8.12733 232.584 11.9252 234.404C15.723 236.224 19.5209 238.044 21.7783 240.621C22.2547 241.145 22.6874 241.707 23.0721 242.301C23.067 242.308 23.0619 242.314 23.0569 242.321C21.0172 245.062 16.5766 247.258 12.1304 249.458C6.23998 252.371 0.339809 255.289 0 259.486V266.455C0.0412151 265.35 0.417459 264.283 1.07903 263.395C3.09989 260.575 7.62277 258.34 12.1393 256.108C18.2843 253.071 24.4175 250.04 24.2211 245.55V239.618C24.2331 239.518 24.2423 239.418 24.2487 239.318V238.922C24.0438 237.028 23.1678 235.27 21.7783 233.965C19.5209 231.387 15.723 229.567 11.9252 227.747C8.12733 225.927 4.32947 224.107 2.07205 221.529L1.53254 220.878Z" fill="url(#paint3_linear)"/>
<defs>
<linearGradient id="paint0_linear" x1="63646.1" y1="84677.2" x2="63439.5" y2="84677.2" gradientUnits="userSpaceOnUse">
<stop stop-color="#FF3EB9"/>
<stop offset="0.04" stop-color="#FF44BC"/>
<stop offset="0.7" stop-color="#FF98E3"/>
<stop offset="1" stop-color="#FFB9F2"/>
</linearGradient>
<linearGradient id="paint1_linear" x1="63646.1" y1="84677.2" x2="63439.5" y2="84677.2" gradientUnits="userSpaceOnUse">
<stop stop-color="#FF3EB9"/>
<stop offset="0.04" stop-color="#FF44BC"/>
<stop offset="0.7" stop-color="#FF98E3"/>
<stop offset="1" stop-color="#FFB9F2"/>
</linearGradient>
<linearGradient id="paint2_linear" x1="63646.1" y1="84677.2" x2="63439.5" y2="84677.2" gradientUnits="userSpaceOnUse">
<stop stop-color="#FF3EB9"/>
<stop offset="0.04" stop-color="#FF44BC"/>
<stop offset="0.7" stop-color="#FF98E3"/>
<stop offset="1" stop-color="#FFB9F2"/>
</linearGradient>
<linearGradient id="paint3_linear" x1="63646.1" y1="84677.2" x2="63439.5" y2="84677.2" gradientUnits="userSpaceOnUse">
<stop stop-color="#FF3EB9"/>
<stop offset="0.04" stop-color="#FF44BC"/>
<stop offset="0.7" stop-color="#FF98E3"/>
<stop offset="1" stop-color="#FFB9F2"/>
</linearGradient>
</defs>
</svg>
