<svg width="690" height="296" viewBox="0 0 690 296" fill="none" xmlns="http://www.w3.org/2000/svg">
<path d="M689.613 97.0998C688.618 111.037 666.482 119.808 662.723 134V125.825C666.205 112.541 685.357 104.168 689.033 91.9622C689.302 91.0935 689.487 90.1998 689.586 89.294V97.0998H689.613Z" fill="#4D8EFF"/>
<path d="M680.883 71.3263C676.468 74.3175 671.144 75.5583 665.904 74.8176C663.279 74.3919 662.118 73.4836 662.008 72.4617C661.676 69.1407 672.233 64.5991 680.883 71.3263Z" fill="#4D8EFF"/>
<path d="M678.889 44.758C675.24 46.81 671.033 47.5682 666.922 46.9153C665.181 46.5463 664.435 45.9786 664.435 45.4109C664.463 43.5375 671.952 41.437 678.889 44.758Z" fill="#4D8EFF"/>
<path d="M688.448 58.4682V58.9223C688.426 59.5695 688.361 60.2143 688.254 60.8525C688.144 61.5097 687.977 62.1555 687.757 62.7827C687.34 61.5683 686.774 60.414 686.071 59.3481C684.275 56.6182 681.792 54.4403 678.886 53.0467C680.889 51.9878 682.748 50.6611 684.413 49.1012C684.994 49.7345 685.521 50.4183 685.988 51.1449C686.941 52.5654 687.634 54.1525 688.033 55.8284C688.276 56.6875 688.416 57.5741 688.448 58.4682Z" fill="#4D8EFF"/>
<path d="M689.998 30.0831C689.983 31.5458 689.692 32.9915 689.142 34.3409C688.13 32.2853 686.616 30.5346 684.748 29.26V21C686.287 21.9486 687.573 23.2753 688.489 24.8608C689.406 26.4462 689.924 28.2408 689.998 30.0831Z" fill="#4D8EFF"/>
<path d="M689.448 89.2938C689.35 90.1996 689.164 91.0933 688.896 91.962C688.896 91.593 688.675 91.224 688.536 90.855C687.082 86.4024 684.428 82.4652 680.881 79.5011C682.43 78.4501 683.825 77.1791 685.027 75.7259C686.493 77.8426 687.673 80.1533 688.536 82.595C688.993 83.7976 689.291 85.0578 689.421 86.3418C689.528 87.3223 689.538 88.3114 689.448 89.2938Z" fill="#4D8EFF"/>
<path d="M690 30.0834V38.315C689.841 40.4003 689.268 42.4301 688.318 44.28C687.367 46.1299 686.059 47.7609 684.473 49.0728C682.808 50.6327 680.949 51.9594 678.946 53.0183C675.292 55.0582 671.09 55.8158 666.979 55.1756C665.238 54.8066 664.492 54.2389 664.492 53.6428V45.4112C664.492 45.9789 665.238 46.5466 666.979 46.9156C671.09 47.5686 675.296 46.8103 678.946 44.7584C683.437 42.6006 687.061 38.9088 689.199 34.3128C689.726 32.9685 689.998 31.5328 690 30.0834Z" fill="#4D8EFF"/>
<path d="M688.448 58.8655V67.2106C688.259 70.3615 687.054 73.358 685.021 75.726C683.82 77.1792 682.424 78.4502 680.875 79.5012C676.471 82.5195 671.138 83.7626 665.897 82.9925C663.271 82.5951 662.111 81.6868 662 80.665V72.4334C662 73.4552 663.271 74.3635 665.897 74.7893C671.137 75.53 676.46 74.2892 680.875 71.298C683.993 69.2842 686.404 66.3011 687.757 62.7827C687.977 62.1555 688.144 61.5097 688.254 60.8525C688.364 60.1956 688.428 59.5316 688.448 58.8655Z" fill="#4D8EFF"/>
<path d="M111.616 28.3952V41.4831C111.486 39.9246 111.173 38.3871 110.686 36.9023C106.909 25.237 92.5886 18.1809 77 13.088V0C94.5337 5.71887 110.461 13.9415 111.616 28.3952Z" fill="#4D8EFF"/>
<path d="M91.0753 137.651C90.293 136.323 89.8116 134.836 89.6658 133.298C89.5411 130.643 89.9141 127.989 90.7652 125.474C93.5841 116.483 101.787 110.422 105.565 103.822C106.613 105.552 107.267 107.495 107.481 109.512C108.158 119.356 95.2755 126.1 91.0753 137.651Z" fill="#4D8EFF"/>
<path d="M107.528 57.843C103.863 65.0698 97.098 71.5 93.4334 78.4707C92.1502 77.211 91.3681 75.5209 91.2347 73.7192C91.1922 73.227 91.1922 72.732 91.2347 72.2397C91.3871 70.8331 91.6993 69.4488 92.1649 68.1142C94.9838 59.9484 103.441 52.9492 107.5 44.7835C108.818 42.2829 109.876 39.6513 110.657 36.9307C111.144 38.4155 111.457 39.953 111.587 41.5115C111.792 47.2332 110.384 52.8961 107.528 57.843Z" fill="#4D8EFF"/>
<path d="M107.471 96.5378V109.569C107.257 107.552 106.602 105.609 105.554 103.878C104.48 102.11 103.213 100.468 101.777 98.9846C96.4209 93.4649 91.3187 91.957 91.0368 86.921V85.7829L91.2341 73.7761C91.3675 75.5778 92.1496 77.268 93.4328 78.5276C95.4342 80.6331 98.5069 82.5109 101.89 85.8967C104.921 88.6793 106.895 92.4428 107.471 96.5378Z" fill="#4D8EFF"/>
<path d="M115 163.912V177C110.349 163.827 105.557 164.794 97.0435 157.453C91.4056 152.389 89.0941 149.202 89.6861 143.569V133.298C89.8319 134.836 90.3132 136.322 91.0955 137.651C92.7324 140.187 94.7483 142.452 97.0716 144.365C105.557 151.706 110.349 150.739 115 163.912Z" fill="#4D8EFF"/>
<path d="M597.241 237.462V246C583.249 241.674 577.658 235.043 577.913 227.814C577.977 226.5 578.205 225.2 578.594 223.943C580.496 229.266 586.286 234.047 597.241 237.462Z" fill="#FF757F"/>
<path d="M607 131.562V131.704C606.957 133.119 606.471 134.483 605.609 135.604C597.407 120.264 566.244 121.373 560.766 108.111C560.268 106.911 560.007 105.626 560 104.326C560.022 102.836 560.34 101.365 560.937 100C567.124 113.262 600.16 111.811 606.517 129.143C606.832 129.911 606.996 130.732 607 131.562Z" fill="#FF757F"/>
<path d="M606.747 186.746C606.501 187.946 605.921 189.052 605.072 189.934C604.845 189.649 604.647 189.364 604.391 189.08C598.715 182.506 585.092 179.773 579.358 173.199C577.611 171.525 576.506 169.289 576.236 166.881V166.369C576.33 164.968 576.844 163.628 577.712 162.527C578.212 163.301 578.772 164.033 579.387 164.718C585.063 171.264 598.686 173.996 604.419 180.57C605.59 181.81 606.404 183.344 606.775 185.01C606.88 185.585 606.87 186.175 606.747 186.746Z" fill="#FF757F"/>
<path d="M590.798 208.205C585.3 212.123 581.059 217.562 578.594 223.858C578.205 225.114 577.976 226.415 577.913 227.729V218.337C578.537 212.161 583.334 205.587 590.713 199.695C595.623 195.939 602.065 193.263 604.904 189.934C605.752 189.052 606.333 187.946 606.578 186.746V193.52C607.827 199.638 597.865 202.826 590.798 208.205Z" fill="#FF757F"/>
<path d="M607 131.704L607 140.613C606.262 150.033 583.755 154.387 577.71 162.527C576.842 163.628 576.328 164.968 576.234 166.369V158.4C575.809 148.468 599.592 144.17 605.638 135.632C606.495 134.5 606.972 133.125 607 131.704Z" fill="#FF757F"/>
<path d="M7.69997 154V160.657C16.3299 163.319 20.9015 166.972 22.3792 171.191C22.3703 171.22 22.3614 171.25 22.3523 171.279C20.4146 176.211 17.0797 180.472 12.7548 183.545C11.1264 184.786 9.29913 185.878 7.54954 186.923C3.34983 189.432 -0.402272 191.674 0.118887 195.074V200.342C0.334023 199.416 0.795001 198.565 1.45346 197.878C2.94185 196.309 5.31678 194.89 7.81017 193.401C9.50279 192.39 11.25 191.347 12.8115 190.201C18.6041 185.584 22.3807 180.457 22.8918 175.613V168.563C22.9032 168.43 22.9125 168.297 22.9197 168.163C23.1185 162.498 18.7173 157.399 7.69997 154Z" fill="url(#paint0_linear)"/>
<path d="M2.64258 289.343V296C11.9562 293.252 37.0007 282.857 37.0007 271.554V264.898C36.9837 266.066 36.7428 267.219 36.2908 268.297C32.0883 278.239 11.0191 286.851 2.64258 289.343Z" fill="url(#paint1_linear)"/>
<path d="M0 243.455C0.0494573 242.347 0.435648 241.28 1.10737 240.395C4.42385 246.575 12.5288 249.395 20.2046 252.066C27.447 254.586 34.3072 256.973 36.4026 261.923C36.7858 262.819 36.9885 263.782 36.9989 264.756C36.982 265.924 36.741 267.078 36.2891 268.155C34.0344 263.356 27.2776 261.014 20.1642 258.548C11.8686 255.673 3.08798 252.629 0.397488 245.324C0.16808 244.726 0.0339932 244.095 0 243.455Z" fill="url(#paint2_linear)"/>
<path d="M1.53254 197.878C0.874075 198.565 0.413097 199.416 0.19796 200.342C0.126722 200.793 0.126722 201.251 0.19796 201.702C0.495321 203.011 1.14301 204.215 2.07205 205.186C4.32947 207.764 8.12733 209.584 11.9252 211.404C15.723 213.224 19.5209 215.044 21.7783 217.621C22.2547 218.145 22.6874 218.707 23.0721 219.301C23.067 219.308 23.0619 219.314 23.0569 219.321C21.0172 222.062 16.5766 224.258 12.1304 226.458C6.23998 229.371 0.339809 232.289 0 236.486V243.455C0.0412151 242.35 0.417459 241.283 1.07903 240.395C3.09989 237.575 7.62277 235.34 12.1393 233.108C18.2843 230.071 24.4175 227.04 24.2211 222.55V216.618C24.2331 216.518 24.2423 216.418 24.2487 216.318V215.922C24.0438 214.028 23.1678 212.27 21.7783 210.965C19.5209 208.387 15.723 206.567 11.9252 204.747C8.12733 202.927 4.32947 201.107 2.07205 198.529L1.53254 197.878Z" fill="url(#paint3_linear)"/>
<defs>
<linearGradient id="paint0_linear" x1="63646.1" y1="84654.2" x2="63439.5" y2="84654.2" gradientUnits="userSpaceOnUse">
<stop stop-color="#FF3EB9"/>
<stop offset="0.04" stop-color="#FF44BC"/>
<stop offset="0.7" stop-color="#FF98E3"/>
<stop offset="1" stop-color="#FFB9F2"/>
</linearGradient>
<linearGradient id="paint1_linear" x1="63646.1" y1="84654.2" x2="63439.5" y2="84654.2" gradientUnits="userSpaceOnUse">
<stop stop-color="#FF3EB9"/>
<stop offset="0.04" stop-color="#FF44BC"/>
<stop offset="0.7" stop-color="#FF98E3"/>
<stop offset="1" stop-color="#FFB9F2"/>
</linearGradient>
<linearGradient id="paint2_linear" x1="63646.1" y1="84654.2" x2="63439.5" y2="84654.2" gradientUnits="userSpaceOnUse">
<stop stop-color="#FF3EB9"/>
<stop offset="0.04" stop-color="#FF44BC"/>
<stop offset="0.7" stop-color="#FF98E3"/>
<stop offset="1" stop-color="#FFB9F2"/>
</linearGradient>
<linearGradient id="paint3_linear" x1="63646.1" y1="84654.2" x2="63439.5" y2="84654.2" gradientUnits="userSpaceOnUse">
<stop stop-color="#FF3EB9"/>
<stop offset="0.04" stop-color="#FF44BC"/>
<stop offset="0.7" stop-color="#FF98E3"/>
<stop offset="1" stop-color="#FFB9F2"/>
</linearGradient>
</defs>
</svg>
