<svg width="238" height="213" viewBox="0 0 238 213" fill="none" xmlns="http://www.w3.org/2000/svg">
<g filter="url(#filter0_d)">
<path d="M65.2288 167C59.7538 161.878 55.0027 155.957 51.1459 149.431C44.0665 137.451 40 123.433 40 108.578C40 64.6281 75.5934 29 119.5 29C163.407 29 199 64.6281 199 108.578C199 125.237 193.885 140.562 185.142 153.264C181.691 158.278 177.675 162.883 173.185 167" stroke="#E4EEE7" stroke-width="25"/>
</g>
<g filter="url(#filter1_d)">
<circle cx="119.5" cy="108.5" r="67.5" fill="white"/>
</g>
<path d="M81.082 117H72.8594V102.723H81.082V105.203H75.8867V108.338H80.7207V110.818H75.8867V114.5H81.082V117ZM86.0723 111.424L82.5566 106.082H85.9355L88.0547 109.559L90.1934 106.082H93.5723L90.0176 111.424L93.7383 117H90.3496L88.0547 113.26L85.75 117H82.3711L86.0723 111.424ZM99.832 117.195C96.4336 117.195 94.7344 115.33 94.7344 111.6C94.7344 109.744 95.1966 108.328 96.1211 107.352C97.0456 106.368 98.3704 105.877 100.096 105.877C101.359 105.877 102.492 106.124 103.494 106.619L102.615 108.924C102.146 108.735 101.71 108.582 101.307 108.465C100.903 108.341 100.499 108.279 100.096 108.279C98.5462 108.279 97.7715 109.38 97.7715 111.58C97.7715 113.715 98.5462 114.783 100.096 114.783C100.669 114.783 101.199 114.708 101.688 114.559C102.176 114.402 102.664 114.161 103.152 113.836V116.385C102.671 116.691 102.182 116.902 101.688 117.02C101.199 117.137 100.581 117.195 99.832 117.195ZM110.213 107.996C109.581 107.996 109.087 108.198 108.729 108.602C108.37 108.999 108.165 109.565 108.113 110.301H112.293C112.28 109.565 112.088 108.999 111.717 108.602C111.346 108.198 110.844 107.996 110.213 107.996ZM110.633 117.195C108.875 117.195 107.501 116.71 106.512 115.74C105.522 114.77 105.027 113.396 105.027 111.619C105.027 109.79 105.483 108.377 106.395 107.381C107.312 106.378 108.579 105.877 110.193 105.877C111.736 105.877 112.938 106.316 113.797 107.195C114.656 108.074 115.086 109.288 115.086 110.838V112.283H108.045C108.077 113.13 108.328 113.79 108.797 114.266C109.266 114.741 109.923 114.979 110.77 114.979C111.427 114.979 112.049 114.91 112.635 114.773C113.221 114.637 113.833 114.419 114.471 114.119V116.424C113.95 116.684 113.393 116.876 112.801 117C112.208 117.13 111.486 117.195 110.633 117.195ZM120.486 117H117.508V101.805H120.486V117ZM126.6 117H123.621V101.805H126.6V117ZM132.713 117H129.734V101.805H132.713V117ZM140.369 107.996C139.738 107.996 139.243 108.198 138.885 108.602C138.527 108.999 138.322 109.565 138.27 110.301H142.449C142.436 109.565 142.244 108.999 141.873 108.602C141.502 108.198 141.001 107.996 140.369 107.996ZM140.789 117.195C139.031 117.195 137.658 116.71 136.668 115.74C135.678 114.77 135.184 113.396 135.184 111.619C135.184 109.79 135.639 108.377 136.551 107.381C137.469 106.378 138.735 105.877 140.35 105.877C141.893 105.877 143.094 106.316 143.953 107.195C144.812 108.074 145.242 109.288 145.242 110.838V112.283H138.201C138.234 113.13 138.484 113.79 138.953 114.266C139.422 114.741 140.079 114.979 140.926 114.979C141.583 114.979 142.205 114.91 142.791 114.773C143.377 114.637 143.989 114.419 144.627 114.119V116.424C144.106 116.684 143.549 116.876 142.957 117C142.365 117.13 141.642 117.195 140.789 117.195ZM157.742 117H154.764V110.623C154.764 109.835 154.624 109.246 154.344 108.855C154.064 108.458 153.618 108.26 153.006 108.26C152.173 108.26 151.57 108.54 151.199 109.1C150.828 109.653 150.643 110.574 150.643 111.863V117H147.664V106.082H149.939L150.34 107.479H150.506C150.838 106.951 151.294 106.554 151.873 106.287C152.459 106.014 153.123 105.877 153.865 105.877C155.135 105.877 156.098 106.222 156.756 106.912C157.413 107.596 157.742 108.585 157.742 109.881V117ZM165.408 114.822C165.929 114.822 166.554 114.708 167.283 114.48V116.697C166.541 117.029 165.63 117.195 164.549 117.195C163.357 117.195 162.488 116.896 161.941 116.297C161.401 115.691 161.131 114.786 161.131 113.582V108.318H159.705V107.059L161.346 106.062L162.205 103.758H164.109V106.082H167.166V108.318H164.109V113.582C164.109 114.005 164.227 114.318 164.461 114.52C164.702 114.721 165.018 114.822 165.408 114.822Z" fill="#69AD7D"/>
<g filter="url(#filter2_d)">
<path fill-rule="evenodd" clip-rule="evenodd" d="M121.87 20C71.0867 20 29.9932 60.3354 29.9932 110C29.9932 111.105 29.0993 112 27.9966 112C26.8939 112 26 111.105 26 110C26 58.0442 68.9641 16 121.87 16C152.255 16 177.755 31.5653 194.594 53.7909C195.26 54.6708 195.089 55.9254 194.21 56.5931C193.332 57.2609 192.079 57.089 191.413 56.2091C175.195 34.803 150.8 20 121.87 20Z" fill="#69AD7D"/>
</g>
<path d="M186 62L169 61L181.463 79.6624L186 62Z" fill="#353538" stroke="#353538"/>
<path d="M200 54.5C200 58.0899 197.09 61 193.5 61C189.91 61 187 58.0899 187 54.5C187 50.9101 189.91 48 193.5 48C197.09 48 200 50.9101 200 54.5Z" fill="white"/>
<path fill-rule="evenodd" clip-rule="evenodd" d="M193.5 58C195.433 58 197 56.433 197 54.5C197 52.567 195.433 51 193.5 51C191.567 51 190 52.567 190 54.5C190 56.433 191.567 58 193.5 58ZM193.5 61C197.09 61 200 58.0899 200 54.5C200 50.9101 197.09 48 193.5 48C189.91 48 187 50.9101 187 54.5C187 58.0899 189.91 61 193.5 61Z" fill="#69AD7D"/>
<defs>
<filter id="filter0_d" x="1.5" y="0.5" width="236" height="211.713" filterUnits="userSpaceOnUse" color-interpolation-filters="sRGB">
<feFlood flood-opacity="0" result="BackgroundImageFix"/>
<feColorMatrix in="SourceAlpha" type="matrix" values="0 0 0 0 0 0 0 0 0 0 0 0 0 0 0 0 0 0 127 0"/>
<feMorphology radius="6" operator="dilate" in="SourceAlpha" result="effect1_dropShadow"/>
<feOffset dy="10"/>
<feGaussianBlur stdDeviation="10"/>
<feColorMatrix type="matrix" values="0 0 0 0 0.895486 0 0 0 0 0.897418 0 0 0 0 0.895783 0 0 0 0.25 0"/>
<feBlend mode="normal" in2="BackgroundImageFix" result="effect1_dropShadow"/>
<feBlend mode="normal" in="SourceGraphic" in2="effect1_dropShadow" result="shape"/>
</filter>
<filter id="filter1_d" x="26" y="25" width="187" height="187" filterUnits="userSpaceOnUse" color-interpolation-filters="sRGB">
<feFlood flood-opacity="0" result="BackgroundImageFix"/>
<feColorMatrix in="SourceAlpha" type="matrix" values="0 0 0 0 0 0 0 0 0 0 0 0 0 0 0 0 0 0 127 0"/>
<feMorphology radius="6" operator="dilate" in="SourceAlpha" result="effect1_dropShadow"/>
<feOffset dy="10"/>
<feGaussianBlur stdDeviation="10"/>
<feColorMatrix type="matrix" values="0 0 0 0 0.895486 0 0 0 0 0.897418 0 0 0 0 0.895783 0 0 0 0.25 0"/>
<feBlend mode="normal" in2="BackgroundImageFix" result="effect1_dropShadow"/>
<feBlend mode="normal" in="SourceGraphic" in2="effect1_dropShadow" result="shape"/>
</filter>
<filter id="filter2_d" x="0" y="0" width="221" height="148" filterUnits="userSpaceOnUse" color-interpolation-filters="sRGB">
<feFlood flood-opacity="0" result="BackgroundImageFix"/>
<feColorMatrix in="SourceAlpha" type="matrix" values="0 0 0 0 0 0 0 0 0 0 0 0 0 0 0 0 0 0 127 0"/>
<feMorphology radius="6" operator="dilate" in="SourceAlpha" result="effect1_dropShadow"/>
<feOffset dy="10"/>
<feGaussianBlur stdDeviation="10"/>
<feColorMatrix type="matrix" values="0 0 0 0 0.895486 0 0 0 0 0.897418 0 0 0 0 0.895783 0 0 0 0.25 0"/>
<feBlend mode="normal" in2="BackgroundImageFix" result="effect1_dropShadow"/>
<feBlend mode="normal" in="SourceGraphic" in2="effect1_dropShadow" result="shape"/>
</filter>
</defs>
</svg>
