<svg width="307" height="207" viewBox="0 0 307 207" fill="none" xmlns="http://www.w3.org/2000/svg">
<path d="M304.596 102.053V111.296C304.503 110.195 304.281 109.11 303.935 108.061C301.251 99.8227 291.076 94.8396 280 91.2429V82C292.458 86.0387 303.775 91.8457 304.596 102.053Z" fill="#4D8EFF"/>
<path d="M290.001 179.211C289.445 178.273 289.103 177.223 288.999 176.137C288.911 174.262 289.176 172.387 289.781 170.611C291.783 164.262 297.612 159.982 300.296 155.32C301.041 156.542 301.506 157.915 301.658 159.339C302.139 166.291 292.985 171.053 290.001 179.211Z" fill="#4D8EFF"/>
<path d="M301.691 122.85C299.087 127.953 294.28 132.494 291.676 137.417C290.765 136.528 290.209 135.334 290.114 134.062C290.084 133.714 290.084 133.364 290.114 133.017C290.222 132.023 290.444 131.046 290.775 130.103C292.778 124.336 298.787 119.394 301.671 113.627C302.608 111.861 303.359 110.002 303.914 108.081C304.26 109.13 304.482 110.215 304.575 111.316C304.72 115.357 303.72 119.356 301.691 122.85Z" fill="#4D8EFF"/>
<path d="M301.65 150.176V159.379C301.498 157.955 301.033 156.582 300.288 155.36C299.525 154.111 298.625 152.952 297.605 151.904C293.799 148.006 290.174 146.941 289.973 143.385V142.581L290.114 134.102C290.208 135.374 290.764 136.568 291.676 137.457C293.098 138.944 295.281 140.27 297.685 142.662C299.839 144.627 301.241 147.284 301.65 150.176Z" fill="#4D8EFF"/>
<path d="M307 197.757V207C303.695 197.697 300.29 198.38 294.241 193.196C290.236 189.619 288.593 187.369 289.014 183.39V176.137C289.117 177.223 289.459 178.273 290.015 179.211C291.178 181.002 292.611 182.602 294.261 183.953C300.29 189.137 303.695 188.454 307 197.757Z" fill="#4D8EFF"/>
<path d="M0.560413 78.7751C1.58288 93.2087 24.5194 102.141 28.4158 117V108.493C24.7957 94.7683 4.98189 86.0911 1.16835 73.4724C0.885174 72.5488 0.690809 71.5991 0.588032 70.6367V78.69L0.560413 78.7751Z" fill="#FBEA39"/>
<path d="M9.48159 52.1198C14.0539 55.2065 19.5623 56.4861 24.9844 55.7211C27.7479 55.2958 28.8808 54.36 28.9914 53.2824C29.3506 49.8796 18.4075 45.1723 9.48159 52.1198Z" fill="#FBEA39"/>
<path d="M11.5263 24.6416C15.3051 26.7518 19.6551 27.5289 23.9065 26.8535C25.7027 26.4848 26.4765 25.9177 26.4765 25.2939C26.4765 23.3656 18.7113 21.2388 11.5263 24.6416Z" fill="#FBEA39"/>
<path d="M1.63201 38.7636V39.2457C1.64163 39.9118 1.70634 40.5758 1.82545 41.2307C1.93577 41.9057 2.10218 42.5698 2.32287 43.2157C2.76777 41.9638 3.3618 40.7733 4.09146 39.6711C5.93374 36.8333 8.507 34.5756 11.5251 33.149C9.42339 32.0569 7.47201 30.6838 5.72188 29.0656C5.12852 29.7227 4.58356 30.4241 4.09146 31.164C3.08732 32.6367 2.36521 34.2919 1.96361 36.0414C1.74615 36.9317 1.63481 37.8458 1.63201 38.7636Z" fill="#FBEA39"/>
<path d="M0 9.3861C0.0203893 10.8984 0.330242 12.3917 0.91193 13.7814C1.95061 11.6492 3.51254 9.83146 5.44392 8.50702V0C3.85178 0.981585 2.52133 2.35251 1.57139 3.99035C0.621446 5.62819 0.0815751 7.48197 0 9.3861Z" fill="#FBEA39"/>
<path d="M0.585461 70.7217C0.688237 71.6841 0.882602 72.6338 1.16578 73.5574C1.27418 73.1629 1.40332 72.7748 1.55266 72.3947C3.046 67.7986 5.79979 63.7421 9.48371 60.7118C7.86901 59.6293 6.41676 58.311 5.17277 56.7985C3.66435 58.9859 2.44691 61.37 1.55266 63.8877C1.08104 65.1368 0.765351 66.4422 0.613101 67.7726C0.512629 68.7525 0.50337 69.74 0.585461 70.7217Z" fill="#FBEA39"/>
<path d="M0 9.4424V17.9494C0.161212 20.1054 0.752098 22.2044 1.73606 24.1165C2.72002 26.0285 4.0761 27.7129 5.72029 29.0653C7.47043 30.6835 9.42181 32.0565 11.5235 33.1487C15.3023 35.2588 19.6522 36.0359 23.9036 35.3605C25.7275 34.9918 26.4736 34.3964 26.4736 33.8009V25.2938C26.4736 25.9177 25.6999 26.4848 23.9036 26.8535C19.6522 27.5289 15.3023 26.7517 11.5235 24.6416C6.8856 22.3926 3.13995 18.5791 0.911936 13.8377C0.330244 12.4481 0.0203895 10.9547 0 9.4424Z" fill="#FBEA39"/>
<path d="M1.63201 39.2457V47.7525C1.79491 51.0289 3.04276 54.1501 5.1692 56.5998C6.41319 58.1123 7.86544 59.4306 9.48014 60.5131C14.0423 63.6242 19.5598 64.9059 24.983 64.1144C27.7464 63.689 28.8794 62.7532 28.9899 61.6757V53.1687C28.9899 54.2462 27.6911 55.182 24.983 55.6073C19.5609 56.3723 14.0525 55.0927 9.48014 52.006C6.223 49.9054 3.71299 46.7828 2.32287 43.102C2.10218 42.4561 1.93577 41.792 1.82545 41.117C1.71238 40.4995 1.6477 39.8739 1.63201 39.2457Z" fill="#FBEA39"/>
</svg>
