<svg width="70" height="70" viewBox="0 0 70 70" fill="none" xmlns="http://www.w3.org/2000/svg">
<circle cx="35" cy="35" r="35" fill="#0156FF"/>
<path d="M50.2044 46.5321L46.4159 38.4078C44.324 41.4538 41.0578 43.6227 37.277 44.2804L40.4484 51.0811C40.8539 51.9513 42.1087 51.8932 42.4353 50.9946L44.0608 46.5293L44.3958 46.3731L48.8611 47.9987C49.7571 48.3275 50.6094 47.3989 50.2044 46.5321Z" fill="white"/>
<path d="M34.8763 18.6667C28.3475 18.6667 23.0354 23.9786 23.0354 30.5077C23.0354 37.0368 28.3476 42.3486 34.8763 42.3486C41.4051 42.3486 46.7172 37.0368 46.7172 30.5077C46.7172 23.9786 41.4051 18.6667 34.8763 18.6667ZM40.6378 29.6376L38.5381 31.6844L39.0343 34.5753C39.186 35.4579 38.256 36.121 37.4721 35.7099L34.8763 34.3454L32.2805 35.7098C31.4921 36.1238 30.5675 35.4529 30.7184 34.5752L31.2146 31.6844L29.1149 29.6376C28.4768 29.0154 28.831 27.9295 29.7114 27.8015L32.6135 27.38L33.9114 24.7505C34.3042 23.952 35.4483 23.9513 35.8415 24.7505L37.1394 27.38L40.0414 27.8015C40.9218 27.9294 41.2759 29.0154 40.6378 29.6376Z" fill="white"/>
<path d="M23.3368 38.4078L19.5483 46.5321C19.1415 47.4029 20.0014 48.3264 20.8917 47.9985L25.3569 46.3729L25.6919 46.5292L27.3174 50.9944C27.6433 51.8912 28.898 51.953 29.3043 51.081L32.4757 44.2803C28.6949 43.6227 25.4287 41.4538 23.3368 38.4078Z" fill="white"/>
</svg>
