<svg width="421" height="60" viewBox="0 0 421 60" fill="none" xmlns="http://www.w3.org/2000/svg">
<path fill-rule="evenodd" clip-rule="evenodd" d="M36.3014 59.849H83.9362L156.032 6.30219L36.3014 59.849ZM101.436 59.849H147.157L156.032 6.30219L101.436 59.849Z" fill="#E0E0E0"/>
<path fill-rule="evenodd" clip-rule="evenodd" d="M22.0437 6.41191C22.0437 8.13209 21.5212 9.58119 20.4714 10.7542C19.4216 11.9273 17.9972 12.8095 16.1981 13.4059L21.1565 22.4997H14.9609L10.9192 14.6036H7.81897L6.00028 22.4997H0.455322L5.41869 1H13.8026C16.4297 1 18.4604 1.44357 19.8947 2.33577C21.329 3.22291 22.0437 4.58328 22.0437 6.41191ZM16.0699 7.3336C16.0699 6.47106 15.7939 5.8598 15.237 5.49999C14.685 5.14018 13.8667 4.96281 12.7922 4.96281H10.0469L8.71605 10.7296H11.4417C12.9105 10.7296 14.0491 10.4289 14.8574 9.83247C15.6657 9.23124 16.0699 8.3982 16.0699 7.3336ZM43.2279 6.2936L39.4672 22.4997H34.2328L34.6468 20.7106C34.1292 21.0457 33.6216 21.3612 33.1287 21.6568C32.6358 21.9476 32.1675 22.1843 31.724 22.3567C31.167 22.5834 30.6594 22.7412 30.201 22.82C29.7377 22.9039 29.2842 22.9432 28.8307 22.9432C27.4112 22.9432 26.2875 22.6031 25.4693 21.9181C24.6462 21.2379 24.237 20.2275 24.237 18.8868C24.237 18.5221 24.2568 18.1869 24.2962 17.8715C24.3356 17.561 24.3948 17.2159 24.4834 16.8414L26.9282 6.2936H32.207L30.3193 14.3227C30.1714 14.9339 30.0629 15.4662 29.989 15.9048C29.92 16.3484 29.8806 16.7231 29.8806 17.0287C29.8806 17.6645 30.0334 18.1229 30.3439 18.4088C30.6495 18.6897 31.2261 18.8326 32.0838 18.8326C32.5028 18.8326 32.9907 18.7389 33.5427 18.5566C34.0898 18.3742 34.6912 18.113 35.3319 17.768L37.9934 6.2936H43.2279ZM63.3722 9.96063C63.3722 10.2514 63.3524 10.5619 63.313 10.8972C63.2736 11.2372 63.2145 11.5872 63.1258 11.9519L60.7057 22.4997H55.4712L57.2899 14.4706C57.4231 13.8741 57.5265 13.3665 57.6005 12.9426C57.6794 12.5237 57.7139 12.1294 57.7139 11.7646C57.7139 11.1387 57.5561 10.6803 57.2407 10.3944C56.9252 10.1035 56.3436 9.96063 55.4958 9.96063C55.0867 9.96063 54.6086 10.0494 54.0714 10.2268C53.5342 10.4043 52.928 10.6704 52.2576 11.0253L49.6158 22.4997H44.3862L48.1371 6.2936H53.3666L52.9378 8.08271C54.0074 7.38289 54.9783 6.83576 55.8606 6.44149C56.7429 6.04713 57.7089 5.85003 58.7686 5.85003C60.2226 5.85003 61.3513 6.19998 62.1597 6.90477C62.968 7.60468 63.3722 8.62495 63.3722 9.96063ZM77.0645 14.8402C76.133 14.9191 75.2557 15.0078 74.4424 15.1162C73.6242 15.2198 72.9342 15.3725 72.3575 15.5746C71.766 15.7865 71.3175 16.0872 71.007 16.4717C70.6965 16.8561 70.5387 17.3638 70.5387 17.9996C70.5387 18.5566 70.7458 18.946 71.1597 19.1727C71.5738 19.3994 72.1751 19.5128 72.9638 19.5128C73.4763 19.5128 74.0284 19.3945 74.6198 19.1629C75.2063 18.9262 75.7584 18.6305 76.276 18.2658L77.0645 14.8402ZM75.6993 20.7893C75.369 21.0013 74.9747 21.2576 74.5065 21.5534C74.0432 21.8539 73.6144 22.0906 73.22 22.2631C72.6779 22.4849 72.1702 22.6524 71.697 22.7707C71.2239 22.8842 70.5634 22.9432 69.7255 22.9432C68.3701 22.9432 67.266 22.5638 66.4083 21.8096C65.5556 21.0506 65.1268 20.0648 65.1268 18.8523C65.1268 17.5708 65.4324 16.4816 66.0387 15.5894C66.6449 14.6972 67.542 13.9876 68.7348 13.4602C69.8536 12.9574 71.1844 12.5976 72.7271 12.3758C74.2699 12.154 75.9408 11.9864 77.7447 11.883C77.7546 11.8237 77.7743 11.7301 77.8039 11.6019C77.8384 11.4689 77.8531 11.321 77.8531 11.1584C77.8531 10.4732 77.5328 9.99518 76.897 9.72402C76.2661 9.44805 75.3148 9.31003 74.0531 9.31003C73.2003 9.31003 72.254 9.45294 71.2189 9.74382C70.1839 10.0296 69.4051 10.2712 68.8875 10.4634H68.4094L69.1734 6.62872C69.7796 6.47595 70.7211 6.29849 71.9927 6.10628C73.2595 5.91407 74.5262 5.82045 75.788 5.82045C78.3313 5.82045 80.1944 6.1506 81.3822 6.81604C82.57 7.48148 83.1665 8.51153 83.1665 9.90645C83.1665 10.0987 83.1517 10.35 83.1172 10.6605C83.0827 10.9662 83.0383 11.2372 82.9791 11.4689L80.4457 22.4997H75.3049L75.6993 20.7893ZM91.442 22.825C89.6381 22.825 88.3466 22.5292 87.5778 21.9378C86.8039 21.3463 86.4195 20.469 86.4195 19.3058C86.4195 18.9953 86.4442 18.6996 86.4934 18.4088C86.5378 18.1229 86.6019 17.7828 86.6807 17.3984L88.4551 9.72402H86.3062L87.0997 6.2936H89.2437L90.3183 1.65061H95.5527L94.4782 6.2936H99.3429L98.5494 9.72402H93.6847L92.3194 15.5796C92.2208 15.9837 92.1271 16.3928 92.0385 16.8019C91.9497 17.211 91.9053 17.561 91.9053 17.8468C91.9053 18.4284 92.068 18.8277 92.3933 19.0544C92.7186 19.2811 93.2164 19.3945 93.8917 19.3945C94.1628 19.3945 94.5176 19.3403 94.9612 19.2368C95.3999 19.1333 95.7498 19.0199 96.0111 18.8918H96.4448L95.6365 22.3617C95.045 22.5095 94.4289 22.6229 93.7783 22.7017C93.1228 22.7856 92.344 22.825 91.442 22.825ZM110.29 14.8402C109.358 14.9191 108.481 15.0078 107.668 15.1162C106.85 15.2198 106.16 15.3725 105.583 15.5746C104.991 15.7865 104.543 16.0872 104.232 16.4717C103.922 16.8561 103.764 17.3638 103.764 17.9996C103.764 18.5566 103.971 18.946 104.385 19.1727C104.799 19.3994 105.401 19.5128 106.189 19.5128C106.702 19.5128 107.254 19.3945 107.845 19.1629C108.432 18.9262 108.984 18.6305 109.501 18.2658L110.29 14.8402ZM108.925 20.7893C108.594 21.0013 108.2 21.2576 107.732 21.5534C107.269 21.8539 106.84 22.0906 106.445 22.2631C105.903 22.4849 105.396 22.6524 104.922 22.7707C104.449 22.8842 103.789 22.9432 102.951 22.9432C101.596 22.9432 100.491 22.5638 99.6338 21.8096C98.7811 21.0506 98.3522 20.0648 98.3522 18.8523C98.3522 17.5708 98.6579 16.4816 99.2642 15.5894C99.8704 14.6972 100.767 13.9876 101.96 13.4602C103.079 12.9574 104.41 12.5976 105.953 12.3758C107.495 12.154 109.166 11.9864 110.97 11.883C110.98 11.8237 111 11.7301 111.029 11.6019C111.064 11.4689 111.079 11.321 111.079 11.1584C111.079 10.4732 110.758 9.99518 110.122 9.72402C109.492 9.44805 108.54 9.31003 107.279 9.31003C106.426 9.31003 105.479 9.45294 104.444 9.74382C103.409 10.0296 102.631 10.2712 102.113 10.4634H101.635L102.399 6.62872C103.005 6.47595 103.947 6.29849 105.218 6.10628C106.485 5.91407 107.752 5.82045 109.013 5.82045C111.557 5.82045 113.42 6.1506 114.608 6.81604C115.795 7.48148 116.392 8.51153 116.392 9.90645C116.392 10.0987 116.377 10.35 116.343 10.6605C116.308 10.9662 116.264 11.2372 116.205 11.4689L113.671 22.4997H108.53L108.925 20.7893Z" fill="#0E0412"/>
<path fill-rule="evenodd" clip-rule="evenodd" d="M170.66 42.0756H163.937L159.944 59.4054H154.375L158.362 42.0756H151.684L152.635 37.9058H171.616L170.66 42.0756ZM184.056 48.1676H183.593C183.366 48.0887 183.036 48.0296 182.612 47.9902C182.193 47.9508 181.774 47.9311 181.36 47.9311C180.675 47.9311 180.02 47.9804 179.384 48.0839C178.748 48.1824 178.097 48.3451 177.422 48.5669L174.913 59.4054H169.684L173.435 43.1994H178.664L178.112 45.58C179.093 44.8604 180.074 44.2738 181.05 43.8204C182.026 43.367 183.006 43.1402 183.997 43.1402C184.18 43.1402 184.387 43.1451 184.613 43.155C184.835 43.1648 185.037 43.1796 185.21 43.1994L184.056 48.1676ZM195.994 51.746C195.062 51.8249 194.185 51.9136 193.372 52.0221C192.554 52.1255 191.864 52.2783 191.287 52.4804C190.696 52.6923 190.247 52.993 189.936 53.3775C189.626 53.7619 189.468 54.2696 189.468 54.9053C189.468 55.4623 189.675 55.8517 190.089 56.0785C190.503 56.3052 191.105 56.4186 191.893 56.4186C192.406 56.4186 192.958 56.3003 193.549 56.0686C194.136 55.832 194.688 55.5362 195.205 55.1715L195.994 51.746ZM194.629 57.6951C194.299 57.9071 193.904 58.1634 193.436 58.4591C192.973 58.7598 192.544 58.9963 192.15 59.1689C191.607 59.3907 191.1 59.5583 190.626 59.6765C190.153 59.7899 189.493 59.849 188.655 59.849C187.3 59.849 186.195 59.4696 185.338 58.7154C184.485 57.9563 184.056 56.9706 184.056 55.7581C184.056 54.4766 184.362 53.3873 184.968 52.4952C185.574 51.603 186.471 50.8933 187.664 50.3659C188.783 49.8632 190.114 49.5034 191.657 49.2816C193.199 49.0598 194.87 48.8922 196.674 48.7887C196.684 48.7295 196.704 48.6359 196.733 48.5077C196.768 48.3747 196.783 48.2268 196.783 48.0641C196.783 47.379 196.462 46.9009 195.826 46.6299C195.196 46.3538 194.244 46.2158 192.983 46.2158C192.13 46.2158 191.183 46.3587 190.148 46.6496C189.113 46.9354 188.335 47.1769 187.817 47.3691H187.339L188.103 43.5345C188.709 43.3817 189.651 43.2043 190.922 43.012C192.189 42.8198 193.456 42.7262 194.717 42.7262C197.261 42.7262 199.124 43.0564 200.312 43.7218C201.5 44.3872 202.096 45.4174 202.096 46.8122C202.096 47.0044 202.081 47.2558 202.047 47.5663C202.012 47.8719 201.968 48.143 201.909 48.3747L199.375 59.4054H194.234L194.629 57.6951ZM223.122 46.8664C223.122 47.1572 223.103 47.4677 223.063 47.8029C223.024 48.143 222.965 48.493 222.876 48.8577L220.456 59.4054H215.222L217.04 51.3763C217.173 50.7799 217.277 50.2723 217.351 49.8484C217.43 49.4295 217.464 49.0351 217.464 48.6703C217.464 48.0444 217.306 47.586 216.991 47.3002C216.676 47.0093 216.094 46.8664 215.246 46.8664C214.837 46.8664 214.359 46.9551 213.822 47.1326C213.284 47.3101 212.678 47.5762 212.008 47.9311L209.366 59.4054H204.137L207.887 43.1994H213.117L212.688 44.9885C213.758 44.2887 214.729 43.7415 215.611 43.3472C216.493 42.9529 217.459 42.7558 218.519 42.7558C219.973 42.7558 221.102 43.1057 221.91 43.8105C222.718 44.5104 223.122 45.5307 223.122 46.8664ZM231.447 59.849C230.062 59.849 228.722 59.7209 227.42 59.4597C226.124 59.2034 225.128 58.8978 224.434 58.5527L225.429 54.2893H225.907C226.119 54.4716 226.39 54.6738 226.711 54.8955C227.036 55.1124 227.494 55.344 228.091 55.5856C228.603 55.8024 229.195 55.9946 229.87 56.1524C230.545 56.3101 231.275 56.389 232.054 56.389C233.222 56.389 234.094 56.2559 234.681 55.9848C235.262 55.7137 235.553 55.3293 235.553 54.8314C235.553 54.447 235.346 54.1513 234.932 53.9492C234.518 53.7471 233.655 53.4958 232.354 53.2C230.146 52.6874 228.633 52.0762 227.815 51.3517C227.001 50.6321 226.592 49.7301 226.592 48.6556C226.592 46.827 227.411 45.3878 229.047 44.333C230.683 43.2831 232.896 42.7558 235.691 42.7558C236.904 42.7558 238.116 42.879 239.329 43.1254C240.541 43.3718 241.433 43.6331 242 43.914L241.044 48.0197H240.595C239.91 47.4874 239.082 47.0537 238.111 46.7185C237.145 46.3834 236.149 46.2158 235.124 46.2158C234.015 46.2158 233.163 46.3488 232.571 46.615C231.975 46.8763 231.679 47.2854 231.679 47.8325C231.679 48.2563 231.935 48.5817 232.448 48.8084C232.956 49.0351 233.764 49.2668 234.863 49.5083C236.909 49.947 238.382 50.5088 239.284 51.1792C240.186 51.8545 240.64 52.7959 240.64 54.0083C240.64 55.8173 239.812 57.2417 238.155 58.2817C236.504 59.3265 234.267 59.849 231.447 59.849Z" fill="#0E0412"/>
<path d="M269.945 5.00586V6.05176H265.536V15H264.374V5.00586H269.945ZM274.977 15.1367C274.489 15.1367 274.042 15.0479 273.637 14.8701C273.236 14.6878 272.898 14.4098 272.625 14.0361H272.543C272.598 14.4736 272.625 14.8883 272.625 15.2803V18.3633H271.49V7.50781H272.413L272.57 8.5332H272.625C272.917 8.12305 273.256 7.82682 273.644 7.64453C274.031 7.46224 274.475 7.37109 274.977 7.37109C275.97 7.37109 276.736 7.71061 277.273 8.38965C277.816 9.06868 278.087 10.0212 278.087 11.2471C278.087 12.4775 277.811 13.4346 277.26 14.1182C276.713 14.7972 275.952 15.1367 274.977 15.1367ZM274.812 8.33496C274.047 8.33496 273.493 8.54688 273.151 8.9707C272.81 9.39453 272.634 10.069 272.625 10.9941V11.2471C272.625 12.2998 272.8 13.054 273.151 13.5098C273.502 13.9609 274.065 14.1865 274.84 14.1865C275.487 14.1865 275.993 13.9245 276.357 13.4004C276.727 12.8763 276.911 12.154 276.911 11.2334C276.911 10.2992 276.727 9.58366 276.357 9.08691C275.993 8.58561 275.478 8.33496 274.812 8.33496ZM278.887 7.50781H280.104L281.744 11.7803C282.104 12.7555 282.327 13.4596 282.414 13.8926H282.469C282.528 13.6602 282.651 13.2637 282.838 12.7031C283.029 12.138 283.649 10.4062 284.697 7.50781H285.914L282.694 16.0391C282.375 16.8822 282.002 17.4792 281.573 17.8301C281.149 18.1855 280.628 18.3633 280.008 18.3633C279.661 18.3633 279.32 18.3245 278.982 18.2471V17.3379C279.233 17.3926 279.513 17.4199 279.823 17.4199C280.603 17.4199 281.159 16.9824 281.491 16.1074L281.908 15.041L278.887 7.50781ZM288.56 10.6182C289.977 10.6182 290.686 10.2262 290.686 9.44238C290.686 8.7041 290.111 8.33496 288.963 8.33496C288.612 8.33496 288.293 8.36686 288.006 8.43066C287.719 8.49447 287.343 8.62207 286.878 8.81348L286.475 7.89062C287.249 7.54427 288.095 7.37109 289.011 7.37109C289.872 7.37109 290.551 7.54883 291.048 7.9043C291.545 8.25521 291.793 8.736 291.793 9.34668C291.793 10.1852 291.326 10.7344 290.392 10.9941V11.0488C290.966 11.2174 291.385 11.459 291.649 11.7734C291.914 12.0833 292.046 12.473 292.046 12.9424C292.046 13.6351 291.766 14.1751 291.205 14.5625C290.649 14.9453 289.879 15.1367 288.895 15.1367C287.814 15.1367 286.98 14.9749 286.393 14.6514V13.6123C287.227 14.0042 288.07 14.2002 288.922 14.2002C289.578 14.2002 290.073 14.0885 290.405 13.8652C290.743 13.6374 290.911 13.3115 290.911 12.8877C290.911 12.0173 290.202 11.582 288.785 11.582H287.746V10.6182H288.56ZM300.365 11.2471C300.365 12.4684 300.058 13.4232 299.442 14.1113C298.827 14.7949 297.977 15.1367 296.893 15.1367C296.223 15.1367 295.628 14.9795 295.108 14.665C294.589 14.3506 294.188 13.8994 293.905 13.3115C293.623 12.7236 293.481 12.0355 293.481 11.2471C293.481 10.0257 293.787 9.07552 294.397 8.39648C295.008 7.71289 295.856 7.37109 296.94 7.37109C297.989 7.37109 298.82 7.71973 299.436 8.41699C300.055 9.11426 300.365 10.0576 300.365 11.2471ZM294.657 11.2471C294.657 12.2041 294.849 12.9333 295.231 13.4346C295.614 13.9359 296.177 14.1865 296.92 14.1865C297.663 14.1865 298.226 13.9382 298.608 13.4414C298.996 12.9401 299.189 12.2087 299.189 11.2471C299.189 10.2946 298.996 9.57227 298.608 9.08008C298.226 8.58333 297.658 8.33496 296.906 8.33496C296.163 8.33496 295.603 8.57878 295.225 9.06641C294.846 9.55404 294.657 10.2809 294.657 11.2471ZM303.496 15H302.361V7.50781H308.65V15H307.502V8.49219H303.496V15ZM314.222 15.1367C313.114 15.1367 312.239 14.7995 311.597 14.125C310.959 13.4505 310.64 12.514 310.64 11.3154C310.64 10.1077 310.936 9.14844 311.528 8.4375C312.125 7.72656 312.925 7.37109 313.928 7.37109C314.867 7.37109 315.609 7.68099 316.156 8.30078C316.703 8.91602 316.977 9.72949 316.977 10.7412V11.459H311.815C311.838 12.3385 312.059 13.0062 312.479 13.4619C312.902 13.9176 313.497 14.1455 314.263 14.1455C315.069 14.1455 315.867 13.9769 316.655 13.6396V14.6514C316.254 14.8245 315.874 14.9476 315.514 15.0205C315.158 15.098 314.728 15.1367 314.222 15.1367ZM313.914 8.32129C313.312 8.32129 312.832 8.51725 312.472 8.90918C312.116 9.30111 311.907 9.84342 311.843 10.5361H315.76C315.76 9.82064 315.6 9.27376 315.281 8.89551C314.962 8.5127 314.507 8.32129 313.914 8.32129ZM322.404 15.1367C321.917 15.1367 321.47 15.0479 321.064 14.8701C320.663 14.6878 320.326 14.4098 320.053 14.0361H319.971C320.025 14.4736 320.053 14.8883 320.053 15.2803V18.3633H318.918V7.50781H319.841L319.998 8.5332H320.053C320.344 8.12305 320.684 7.82682 321.071 7.64453C321.459 7.46224 321.903 7.37109 322.404 7.37109C323.398 7.37109 324.163 7.71061 324.701 8.38965C325.243 9.06868 325.515 10.0212 325.515 11.2471C325.515 12.4775 325.239 13.4346 324.688 14.1182C324.141 14.7972 323.38 15.1367 322.404 15.1367ZM322.24 8.33496C321.475 8.33496 320.921 8.54688 320.579 8.9707C320.237 9.39453 320.062 10.069 320.053 10.9941V11.2471C320.053 12.2998 320.228 13.054 320.579 13.5098C320.93 13.9609 321.493 14.1865 322.268 14.1865C322.915 14.1865 323.421 13.9245 323.785 13.4004C324.154 12.8763 324.339 12.154 324.339 11.2334C324.339 10.2992 324.154 9.58366 323.785 9.08691C323.421 8.58561 322.906 8.33496 322.24 8.33496ZM330.669 15.1367C329.562 15.1367 328.687 14.7995 328.044 14.125C327.406 13.4505 327.087 12.514 327.087 11.3154C327.087 10.1077 327.383 9.14844 327.976 8.4375C328.573 7.72656 329.372 7.37109 330.375 7.37109C331.314 7.37109 332.057 7.68099 332.604 8.30078C333.15 8.91602 333.424 9.72949 333.424 10.7412V11.459H328.263C328.285 12.3385 328.507 13.0062 328.926 13.4619C329.35 13.9176 329.944 14.1455 330.71 14.1455C331.517 14.1455 332.314 13.9769 333.103 13.6396V14.6514C332.701 14.8245 332.321 14.9476 331.961 15.0205C331.605 15.098 331.175 15.1367 330.669 15.1367ZM330.361 8.32129C329.76 8.32129 329.279 8.51725 328.919 8.90918C328.563 9.30111 328.354 9.84342 328.29 10.5361H332.207C332.207 9.82064 332.048 9.27376 331.729 8.89551C331.41 8.5127 330.954 8.32129 330.361 8.32129ZM341.442 9.3877C341.442 9.87533 341.301 10.2467 341.019 10.502C340.741 10.7526 340.349 10.9212 339.843 11.0078V11.0693C340.481 11.1559 340.946 11.3428 341.237 11.6299C341.534 11.917 341.682 12.3135 341.682 12.8193C341.682 13.5166 341.424 14.0544 340.909 14.4326C340.399 14.8109 339.651 15 338.667 15H335.365V7.50781H338.653C340.513 7.50781 341.442 8.13444 341.442 9.3877ZM340.547 12.7441C340.547 12.3385 340.392 12.0446 340.082 11.8623C339.777 11.6755 339.269 11.582 338.558 11.582H336.5V14.0498H338.585C339.893 14.0498 340.547 13.6146 340.547 12.7441ZM340.335 9.49707C340.335 9.13249 340.194 8.875 339.911 8.72461C339.633 8.56966 339.209 8.49219 338.64 8.49219H336.5V10.6045H338.421C339.123 10.6045 339.617 10.5179 339.904 10.3447C340.191 10.1715 340.335 9.889 340.335 9.49707ZM349.803 11.2471C349.803 12.4684 349.495 13.4232 348.88 14.1113C348.265 14.7949 347.415 15.1367 346.33 15.1367C345.66 15.1367 345.065 14.9795 344.546 14.665C344.026 14.3506 343.625 13.8994 343.343 13.3115C343.06 12.7236 342.919 12.0355 342.919 11.2471C342.919 10.0257 343.224 9.07552 343.835 8.39648C344.446 7.71289 345.293 7.37109 346.378 7.37109C347.426 7.37109 348.258 7.71973 348.873 8.41699C349.493 9.11426 349.803 10.0576 349.803 11.2471ZM344.095 11.2471C344.095 12.2041 344.286 12.9333 344.669 13.4346C345.052 13.9359 345.615 14.1865 346.357 14.1865C347.1 14.1865 347.663 13.9382 348.046 13.4414C348.433 12.9401 348.627 12.2087 348.627 11.2471C348.627 10.2946 348.433 9.57227 348.046 9.08008C347.663 8.58333 347.096 8.33496 346.344 8.33496C345.601 8.33496 345.04 8.57878 344.662 9.06641C344.284 9.55404 344.095 10.2809 344.095 11.2471ZM353.228 10.6182C354.645 10.6182 355.354 10.2262 355.354 9.44238C355.354 8.7041 354.779 8.33496 353.631 8.33496C353.28 8.33496 352.961 8.36686 352.674 8.43066C352.387 8.49447 352.011 8.62207 351.546 8.81348L351.143 7.89062C351.917 7.54427 352.763 7.37109 353.679 7.37109C354.54 7.37109 355.219 7.54883 355.716 7.9043C356.213 8.25521 356.461 8.736 356.461 9.34668C356.461 10.1852 355.994 10.7344 355.06 10.9941V11.0488C355.634 11.2174 356.053 11.459 356.317 11.7734C356.582 12.0833 356.714 12.473 356.714 12.9424C356.714 13.6351 356.434 14.1751 355.873 14.5625C355.317 14.9453 354.547 15.1367 353.562 15.1367C352.482 15.1367 351.648 14.9749 351.061 14.6514V13.6123C351.895 14.0042 352.738 14.2002 353.59 14.2002C354.246 14.2002 354.741 14.0885 355.073 13.8652C355.41 13.6374 355.579 13.3115 355.579 12.8877C355.579 12.0173 354.87 11.582 353.453 11.582H352.414V10.6182H353.228ZM362.935 7.50781H364.179L360.945 11.124L364.445 15H363.119L359.701 11.2061V15H358.566V7.50781H359.701V11.1514L362.935 7.50781ZM366.906 7.50781V12.2588L366.858 13.5029L366.838 13.8926L370.892 7.50781H372.307V15H371.247V10.4199L371.268 9.51758L371.302 8.62891L367.255 15H365.84V7.50781H366.906ZM379.484 15H378.35V7.50781H384.639V15H383.49V8.49219H379.484V15ZM393.512 11.2471C393.512 12.4684 393.204 13.4232 392.589 14.1113C391.974 14.7949 391.124 15.1367 390.039 15.1367C389.369 15.1367 388.774 14.9795 388.255 14.665C387.735 14.3506 387.334 13.8994 387.052 13.3115C386.769 12.7236 386.628 12.0355 386.628 11.2471C386.628 10.0257 386.933 9.07552 387.544 8.39648C388.155 7.71289 389.002 7.37109 390.087 7.37109C391.135 7.37109 391.967 7.71973 392.582 8.41699C393.202 9.11426 393.512 10.0576 393.512 11.2471ZM387.804 11.2471C387.804 12.2041 387.995 12.9333 388.378 13.4346C388.761 13.9359 389.324 14.1865 390.066 14.1865C390.809 14.1865 391.372 13.9382 391.755 13.4414C392.142 12.9401 392.336 12.2087 392.336 11.2471C392.336 10.2946 392.142 9.57227 391.755 9.08008C391.372 8.58333 390.805 8.33496 390.053 8.33496C389.31 8.33496 388.749 8.57878 388.371 9.06641C387.993 9.55404 387.804 10.2809 387.804 11.2471ZM405.652 7.91797C405.652 8.92969 405.306 9.70898 404.613 10.2559C403.925 10.7982 402.938 11.0693 401.653 11.0693H400.478V15H399.315V5.00586H401.906C404.404 5.00586 405.652 5.97656 405.652 7.91797ZM400.478 10.0713H401.523C402.553 10.0713 403.299 9.90495 403.759 9.57227C404.219 9.23958 404.449 8.70638 404.449 7.97266C404.449 7.31185 404.233 6.81966 403.8 6.49609C403.367 6.17253 402.692 6.01074 401.776 6.01074H400.478V10.0713ZM414.231 12.0879C414.231 13.0814 413.935 13.8151 413.343 14.2891C412.755 14.763 411.866 15 410.677 15H407.751V5.00586H413.644V6.03809H408.913V9.27148H410.465C411.344 9.27148 412.06 9.37402 412.611 9.5791C413.163 9.77962 413.571 10.0781 413.835 10.4746C414.099 10.8711 414.231 11.4089 414.231 12.0879ZM408.913 13.9951H410.547C411.413 13.9951 412.042 13.847 412.434 13.5508C412.83 13.2546 413.028 12.7669 413.028 12.0879C413.028 11.4408 412.828 10.9805 412.427 10.707C412.026 10.4336 411.326 10.2969 410.328 10.2969H408.913V13.9951ZM417.355 13.373L417.458 13.5303C417.34 13.986 417.169 14.5146 416.945 15.1162C416.722 15.7223 416.49 16.2852 416.248 16.8047H415.394C415.517 16.3307 415.651 15.7451 415.797 15.0479C415.947 14.3506 416.052 13.7923 416.111 13.373H417.355ZM270.711 27.918C270.711 28.9297 270.365 29.709 269.672 30.2559C268.984 30.7982 267.997 31.0693 266.712 31.0693H265.536V35H264.374V25.0059H266.965C269.462 25.0059 270.711 25.9766 270.711 27.918ZM265.536 30.0713H266.582C267.612 30.0713 268.357 29.9049 268.817 29.5723C269.278 29.2396 269.508 28.7064 269.508 27.9727C269.508 27.3118 269.291 26.8197 268.858 26.4961C268.425 26.1725 267.751 26.0107 266.835 26.0107H265.536V30.0713ZM279.105 31.2471C279.105 32.4684 278.798 33.4232 278.183 34.1113C277.567 34.7949 276.717 35.1367 275.633 35.1367C274.963 35.1367 274.368 34.9795 273.849 34.665C273.329 34.3506 272.928 33.8994 272.646 33.3115C272.363 32.7236 272.222 32.0355 272.222 31.2471C272.222 30.0257 272.527 29.0755 273.138 28.3965C273.748 27.7129 274.596 27.3711 275.681 27.3711C276.729 27.3711 277.561 27.7197 278.176 28.417C278.796 29.1143 279.105 30.0576 279.105 31.2471ZM273.397 31.2471C273.397 32.2041 273.589 32.9333 273.972 33.4346C274.354 33.9359 274.917 34.1865 275.66 34.1865C276.403 34.1865 276.966 33.9382 277.349 33.4414C277.736 32.9401 277.93 32.2087 277.93 31.2471C277.93 30.2946 277.736 29.5723 277.349 29.0801C276.966 28.5833 276.398 28.335 275.646 28.335C274.904 28.335 274.343 28.5788 273.965 29.0664C273.587 29.554 273.397 30.2809 273.397 31.2471ZM284.096 35.1367C283.011 35.1367 282.17 34.804 281.573 34.1387C280.981 33.4688 280.685 32.5231 280.685 31.3018C280.685 30.0485 280.985 29.0801 281.587 28.3965C282.193 27.7129 283.054 27.3711 284.171 27.3711C284.531 27.3711 284.891 27.4098 285.251 27.4873C285.611 27.5648 285.894 27.6559 286.099 27.7607L285.75 28.7246C285.499 28.6243 285.226 28.5423 284.93 28.4785C284.633 28.4102 284.371 28.376 284.144 28.376C282.621 28.376 281.86 29.3467 281.86 31.2881C281.86 32.2087 282.045 32.915 282.414 33.4072C282.788 33.8994 283.339 34.1455 284.068 34.1455C284.693 34.1455 285.333 34.0111 285.989 33.7422V34.7471C285.488 35.0068 284.857 35.1367 284.096 35.1367ZM290.768 35.1367C289.683 35.1367 288.842 34.804 288.245 34.1387C287.653 33.4688 287.356 32.5231 287.356 31.3018C287.356 30.0485 287.657 29.0801 288.259 28.3965C288.865 27.7129 289.726 27.3711 290.843 27.3711C291.203 27.3711 291.563 27.4098 291.923 27.4873C292.283 27.5648 292.565 27.6559 292.771 27.7607L292.422 28.7246C292.171 28.6243 291.898 28.5423 291.602 28.4785C291.305 28.4102 291.043 28.376 290.815 28.376C289.293 28.376 288.532 29.3467 288.532 31.2881C288.532 32.2087 288.717 32.915 289.086 33.4072C289.46 33.8994 290.011 34.1455 290.74 34.1455C291.365 34.1455 292.005 34.0111 292.661 33.7422V34.7471C292.16 35.0068 291.529 35.1367 290.768 35.1367ZM295.512 27.5078V32.2588L295.464 33.5029L295.443 33.8926L299.497 27.5078H300.912V35H299.853V30.4199L299.873 29.5176L299.907 28.6289L295.86 35H294.445V27.5078H295.512ZM304.385 27.5078V32.2588L304.337 33.5029L304.316 33.8926L308.37 27.5078H309.785V35H308.726V30.4199L308.746 29.5176L308.78 28.6289L304.733 35H303.318V27.5078H304.385ZM313.381 33.373L313.483 33.5303C313.365 33.986 313.194 34.5146 312.971 35.1162C312.747 35.7223 312.515 36.2852 312.273 36.8047H311.419C311.542 36.3307 311.676 35.7451 311.822 35.0479C311.973 34.3506 312.077 33.7923 312.137 33.373H313.381ZM320.06 35.1367C319.554 35.1367 319.109 35.0684 318.727 34.9316V33.7969C319.15 33.9928 319.581 34.0908 320.019 34.0908C320.52 34.0908 320.921 33.9769 321.222 33.749C321.527 33.5166 321.83 33.0837 322.131 32.4502L318.241 25.0059H319.526L322.479 30.6865C322.593 30.9098 322.682 31.1286 322.746 31.3428H322.801C322.928 30.96 323.017 30.7184 323.067 30.6182L325.521 25.0059H326.752L323.56 32.1562C323.177 33.0085 322.83 33.6283 322.521 34.0156C322.215 34.403 321.869 34.6878 321.481 34.8701C321.099 35.0479 320.625 35.1367 320.06 35.1367ZM332.323 27.5078H333.567L330.334 31.124L333.834 35H332.508L329.09 31.2061V35H327.955V27.5078H329.09V31.1514L332.323 27.5078ZM338.715 35.1367C338.227 35.1367 337.781 35.0479 337.375 34.8701C336.974 34.6878 336.637 34.4098 336.363 34.0361H336.281C336.336 34.4736 336.363 34.8883 336.363 35.2803V38.3633H335.229V27.5078H336.151L336.309 28.5332H336.363C336.655 28.123 336.994 27.8268 337.382 27.6445C337.769 27.4622 338.214 27.3711 338.715 27.3711C339.708 27.3711 340.474 27.7106 341.012 28.3896C341.554 29.0687 341.825 30.0212 341.825 31.2471C341.825 32.4775 341.549 33.4346 340.998 34.1182C340.451 34.7972 339.69 35.1367 338.715 35.1367ZM338.551 28.335C337.785 28.335 337.231 28.5469 336.89 28.9707C336.548 29.3945 336.372 30.069 336.363 30.9941V31.2471C336.363 32.2998 336.539 33.054 336.89 33.5098C337.241 33.9609 337.803 34.1865 338.578 34.1865C339.225 34.1865 339.731 33.9245 340.096 33.4004C340.465 32.8763 340.649 32.154 340.649 31.2334C340.649 30.2992 340.465 29.5837 340.096 29.0869C339.731 28.5856 339.216 28.335 338.551 28.335ZM348.422 35L348.196 33.9336H348.142C347.768 34.403 347.394 34.722 347.021 34.8906C346.651 35.0547 346.189 35.1367 345.633 35.1367C344.89 35.1367 344.307 34.9453 343.883 34.5625C343.464 34.1797 343.254 33.6351 343.254 32.9287C343.254 31.4157 344.464 30.6227 346.884 30.5498L348.155 30.5088V30.0439C348.155 29.4561 348.028 29.0231 347.772 28.7451C347.522 28.4626 347.118 28.3213 346.562 28.3213C345.938 28.3213 345.232 28.5127 344.443 28.8955L344.095 28.0273C344.464 27.8268 344.867 27.6696 345.305 27.5557C345.747 27.4417 346.189 27.3848 346.631 27.3848C347.524 27.3848 348.185 27.583 348.613 27.9795C349.046 28.376 349.263 29.0117 349.263 29.8867V35H348.422ZM345.858 34.2002C346.565 34.2002 347.118 34.0065 347.52 33.6191C347.925 33.2318 348.128 32.6895 348.128 31.9922V31.3154L346.993 31.3633C346.091 31.3952 345.439 31.5365 345.038 31.7871C344.642 32.0332 344.443 32.4183 344.443 32.9424C344.443 33.3525 344.566 33.6647 344.812 33.8789C345.063 34.0931 345.412 34.2002 345.858 34.2002ZM352.674 27.5078V32.2588L352.626 33.5029L352.605 33.8926L356.659 27.5078H358.074V35H357.015V30.4199L357.035 29.5176L357.069 28.6289L353.022 35H351.607V27.5078H352.674ZM361.615 27.5078V30.6455H365.812V27.5078H366.947V35H365.812V31.623H361.615V35H360.48V27.5078H361.615ZM372.519 35.1367C371.411 35.1367 370.536 34.7995 369.894 34.125C369.256 33.4505 368.937 32.514 368.937 31.3154C368.937 30.1077 369.233 29.1484 369.825 28.4375C370.422 27.7266 371.222 27.3711 372.225 27.3711C373.163 27.3711 373.906 27.681 374.453 28.3008C375 28.916 375.273 29.7295 375.273 30.7412V31.459H370.112C370.135 32.3385 370.356 33.0062 370.775 33.4619C371.199 33.9176 371.794 34.1455 372.56 34.1455C373.366 34.1455 374.164 33.9769 374.952 33.6396V34.6514C374.551 34.8245 374.171 34.9476 373.811 35.0205C373.455 35.098 373.024 35.1367 372.519 35.1367ZM372.211 28.3213C371.609 28.3213 371.129 28.5173 370.769 28.9092C370.413 29.3011 370.203 29.8434 370.14 30.5361H374.057C374.057 29.8206 373.897 29.2738 373.578 28.8955C373.259 28.5127 372.803 28.3213 372.211 28.3213ZM265.27 47.5078V52.2588L265.222 53.5029L265.201 53.8926L269.255 47.5078H270.67V55H269.61V50.4199L269.631 49.5176L269.665 48.6289L265.618 55H264.203V47.5078H265.27ZM282.455 55H276.884V45.0059H282.455V46.0381H278.046V49.2578H282.188V50.2832H278.046V53.9609H282.455V55ZM290.583 49.3877C290.583 49.8753 290.442 50.2467 290.159 50.502C289.881 50.7526 289.489 50.9212 288.983 51.0078V51.0693C289.621 51.1559 290.086 51.3428 290.378 51.6299C290.674 51.917 290.822 52.3135 290.822 52.8193C290.822 53.5166 290.565 54.0544 290.05 54.4326C289.539 54.8109 288.792 55 287.808 55H284.506V47.5078H287.794C289.653 47.5078 290.583 48.1344 290.583 49.3877ZM289.688 52.7441C289.688 52.3385 289.533 52.0446 289.223 51.8623C288.917 51.6755 288.409 51.582 287.698 51.582H285.641V54.0498H287.726C289.034 54.0498 289.688 53.6146 289.688 52.7441ZM289.476 49.4971C289.476 49.1325 289.334 48.875 289.052 48.7246C288.774 48.5697 288.35 48.4922 287.78 48.4922H285.641V50.6045H287.562C288.263 50.6045 288.758 50.5179 289.045 50.3447C289.332 50.1715 289.476 49.889 289.476 49.4971ZM295.963 55.1367C295.475 55.1367 295.029 55.0479 294.623 54.8701C294.222 54.6878 293.885 54.4098 293.611 54.0361H293.529C293.584 54.4736 293.611 54.8883 293.611 55.2803V58.3633H292.477V47.5078H293.399L293.557 48.5332H293.611C293.903 48.123 294.243 47.8268 294.63 47.6445C295.017 47.4622 295.462 47.3711 295.963 47.3711C296.956 47.3711 297.722 47.7106 298.26 48.3896C298.802 49.0687 299.073 50.0212 299.073 51.2471C299.073 52.4775 298.798 53.4346 298.246 54.1182C297.699 54.7972 296.938 55.1367 295.963 55.1367ZM295.799 48.335C295.033 48.335 294.479 48.5469 294.138 48.9707C293.796 49.3945 293.62 50.069 293.611 50.9941V51.2471C293.611 52.2998 293.787 53.054 294.138 53.5098C294.489 53.9609 295.051 54.1865 295.826 54.1865C296.473 54.1865 296.979 53.9245 297.344 53.4004C297.713 52.8763 297.897 52.154 297.897 51.2334C297.897 50.2992 297.713 49.5837 297.344 49.0869C296.979 48.5856 296.464 48.335 295.799 48.335ZM307.529 51.2471C307.529 52.4684 307.222 53.4232 306.606 54.1113C305.991 54.7949 305.141 55.1367 304.057 55.1367C303.387 55.1367 302.792 54.9795 302.272 54.665C301.753 54.3506 301.352 53.8994 301.069 53.3115C300.787 52.7236 300.646 52.0355 300.646 51.2471C300.646 50.0257 300.951 49.0755 301.562 48.3965C302.172 47.7129 303.02 47.3711 304.104 47.3711C305.153 47.3711 305.984 47.7197 306.6 48.417C307.219 49.1143 307.529 50.0576 307.529 51.2471ZM301.821 51.2471C301.821 52.2041 302.013 52.9333 302.396 53.4346C302.778 53.9359 303.341 54.1865 304.084 54.1865C304.827 54.1865 305.39 53.9382 305.772 53.4414C306.16 52.9401 306.354 52.2087 306.354 51.2471C306.354 50.2946 306.16 49.5723 305.772 49.0801C305.39 48.5833 304.822 48.335 304.07 48.335C303.327 48.335 302.767 48.5788 302.389 49.0664C302.01 49.554 301.821 50.2809 301.821 51.2471ZM310.66 55H309.525V47.5078H315.814V55H314.666V48.4922H310.66V55ZM321.386 55.1367C320.278 55.1367 319.403 54.7995 318.761 54.125C318.123 53.4505 317.804 52.514 317.804 51.3154C317.804 50.1077 318.1 49.1484 318.692 48.4375C319.289 47.7266 320.089 47.3711 321.092 47.3711C322.031 47.3711 322.773 47.681 323.32 48.3008C323.867 48.916 324.141 49.7295 324.141 50.7412V51.459H318.979C319.002 52.3385 319.223 53.0062 319.643 53.4619C320.066 53.9176 320.661 54.1455 321.427 54.1455C322.233 54.1455 323.031 53.9769 323.819 53.6396V54.6514C323.418 54.8245 323.038 54.9476 322.678 55.0205C322.322 55.098 321.892 55.1367 321.386 55.1367ZM321.078 48.3213C320.477 48.3213 319.996 48.5173 319.636 48.9092C319.28 49.3011 319.071 49.8434 319.007 50.5361H322.924C322.924 49.8206 322.764 49.2738 322.445 48.8955C322.126 48.5127 321.671 48.3213 321.078 48.3213Z" fill="#4F4F4F"/>
<rect x="252" y="1" width="1" height="59" fill="#E0E0E0"/>
</svg>
