<svg width="20" height="20" viewBox="0 0 20 20" fill="none" xmlns="http://www.w3.org/2000/svg">
<circle cx="10" cy="10" r="10" fill="#7B519D"/>
<path d="M12.85 9.45703C12.8605 8.25629 11.8103 7.15553 10.5089 7.00331C10.483 7.00032 10.4548 6.99577 10.425 6.99096C10.3606 6.98056 10.2939 6.96988 10.2267 6.96988C9.96 6.96988 9.8887 7.15233 9.86993 7.26114C9.85168 7.36693 9.86909 7.45578 9.92159 7.52531C10.0099 7.64227 10.1653 7.66303 10.2902 7.67967C10.3268 7.68459 10.3613 7.68917 10.3902 7.69549C11.5594 7.9499 11.9531 8.34989 12.1455 9.4788C12.1502 9.50639 12.1523 9.54037 12.1546 9.57642C12.163 9.71137 12.1805 9.99213 12.4904 9.99213H12.4905C12.5163 9.99213 12.544 9.98996 12.5729 9.98567C12.8615 9.94296 12.8525 9.68632 12.8481 9.56301C12.8469 9.52829 12.8457 9.49544 12.8487 9.47359C12.8496 9.46809 12.85 9.46256 12.85 9.45703Z" fill="white"/>
<path d="M10.1509 6.56276C10.1856 6.56519 10.2183 6.56752 10.2456 6.57159C12.1656 6.85912 13.0486 7.74496 13.2933 9.62926C13.2975 9.66129 13.2981 9.70035 13.2988 9.74172C13.3012 9.88893 13.3063 10.1952 13.644 10.2015L13.6545 10.2016C13.7604 10.2016 13.8447 10.1705 13.9049 10.1091C14.0101 10.002 14.0027 9.84294 13.9968 9.71508C13.9954 9.68371 13.994 9.65417 13.9944 9.6283C14.0188 7.70116 12.3057 5.95363 10.3285 5.88865C10.3203 5.88838 10.3125 5.88881 10.3046 5.88989C10.3007 5.89045 10.2935 5.89113 10.2811 5.89113C10.2614 5.89113 10.2372 5.88947 10.2114 5.88777C10.1803 5.88571 10.1451 5.88333 10.1093 5.88333C9.79447 5.88333 9.73461 6.10127 9.72695 6.23119C9.70929 6.53144 10.0076 6.55258 10.1509 6.56276Z" fill="white"/>
<path d="M13.2008 12.0648C13.16 12.0344 13.1178 12.003 13.0783 11.972C12.8686 11.8077 12.6456 11.6563 12.4299 11.5098C12.3852 11.4795 12.3404 11.4491 12.2958 11.4186C12.0195 11.2296 11.7711 11.1378 11.5365 11.1378C11.2204 11.1378 10.9448 11.3079 10.7174 11.6432C10.6166 11.7919 10.4944 11.8642 10.3437 11.8642C10.2546 11.8642 10.1534 11.8394 10.0429 11.7906C9.15108 11.3968 8.51429 10.793 8.15014 9.996C7.97411 9.61079 8.03117 9.359 8.34097 9.15407C8.51689 9.0378 8.84435 8.82134 8.82115 8.40682C8.79489 7.93611 7.72833 6.51978 7.27895 6.35891C7.08868 6.29078 6.88878 6.29014 6.68371 6.35733C6.16711 6.52644 5.79639 6.82344 5.61153 7.21616C5.43289 7.59563 5.44096 8.04119 5.63486 8.50469C6.19541 9.84476 6.98352 11.0131 7.97737 11.9773C8.95017 12.9211 10.1458 13.6942 11.5311 14.2751C11.656 14.3274 11.7869 14.3559 11.8826 14.3767C11.9151 14.3839 11.9433 14.39 11.9638 14.3954C11.9751 14.3984 11.9867 14.4 11.9983 14.4001L12.0093 14.4002C12.0093 14.4002 12.0093 14.4002 12.0093 14.4002C12.6609 14.4002 13.4432 13.8204 13.6835 13.1595C13.894 12.5807 13.5096 12.2946 13.2008 12.0648Z" fill="white"/>
<path d="M10.4398 8.09352C10.3282 8.09627 10.0961 8.10188 10.0146 8.33212C9.97652 8.43972 9.98108 8.53314 10.0282 8.60979C10.0974 8.72225 10.2298 8.75671 10.3504 8.77562C10.7874 8.84391 11.0119 9.07926 11.0568 9.5162C11.0776 9.71994 11.2185 9.86221 11.3994 9.86221H11.3994C11.4128 9.86221 11.4265 9.86144 11.4401 9.85983C11.6576 9.83462 11.7631 9.67897 11.7536 9.39723C11.757 9.1032 11.599 8.76938 11.3303 8.50349C11.0606 8.23677 10.7355 8.08657 10.4398 8.09352Z" fill="white"/>
</svg>
