<svg width="15" height="16" viewBox="0 0 15 16" fill="none" xmlns="http://www.w3.org/2000/svg">
<path d="M1.80822 2.30684C4.21918 -0.03685 8.137 -0.03685 10.548 2.30684C12.7329 4.43081 12.9589 7.65338 11.3014 9.99707L14.6918 13.2929C15.6713 14.245 14.0891 15.7831 13.1096 14.8309L9.71919 11.5351C7.30823 13.1464 3.99316 12.9267 1.80822 10.8027C-0.602741 8.45902 -0.602741 4.65053 1.80822 2.30684ZM3.16439 3.62516C1.50685 5.23645 1.50685 7.8731 3.16439 9.48439C4.82193 11.0957 7.53426 11.0957 9.1918 9.48439C10.8493 7.8731 10.8493 5.23645 9.1918 3.62516C7.53426 2.01388 4.82193 2.01388 3.16439 3.62516Z" fill="#1A1B1B"/>
</svg>
