<svg width="41" height="41" viewBox="0 0 41 41" fill="none" xmlns="http://www.w3.org/2000/svg">
<circle cx="20.3494" cy="20.5001" r="20.2498" fill="#F8F8FA"/>
<path d="M29.4614 14.2416C29.4614 12.7254 28.1236 11.3877 26.6075 11.3877H15.1029C13.5868 11.3877 12.249 12.7254 12.249 14.2416V25.7462C12.249 27.2623 13.5868 28.6 15.1029 28.6H20.8998V22.0897H18.7594V19.2358H20.8998V18.0764C20.8998 16.1144 22.3267 14.4199 24.1104 14.4199H26.4292V17.2738H24.1104C23.8428 17.2738 23.5753 17.5413 23.5753 18.0764V19.2358H26.4292V22.0897H23.5753V28.6H26.6075C28.1236 28.6 29.4614 27.2623 29.4614 25.7462V14.2416Z" fill="#BD8E4C"/>
</svg>
