<svg width="41" height="41" viewBox="0 0 41 41" fill="none" xmlns="http://www.w3.org/2000/svg">
<circle opacity="0.4" cx="20.1278" cy="20.1278" r="20.1278" fill="#F2F2F2"/>
<path d="M25.8639 19.0345C25.8851 16.6177 23.7712 14.4021 21.1518 14.0957C21.0997 14.0897 21.043 14.0806 20.9829 14.0709C20.8532 14.0499 20.7191 14.0284 20.5838 14.0284C20.047 14.0284 19.9035 14.3957 19.8657 14.6147C19.8289 14.8276 19.864 15.0065 19.9697 15.1464C20.1474 15.3818 20.4603 15.4236 20.7115 15.4571C20.7852 15.467 20.8547 15.4762 20.9128 15.4889C23.2662 16.001 24.0587 16.8061 24.4459 19.0784C24.4554 19.1339 24.4597 19.2023 24.4642 19.2749C24.4811 19.5465 24.5163 20.1116 25.1402 20.1116H25.1402C25.1922 20.1116 25.248 20.1072 25.3061 20.0986C25.8871 20.0126 25.8689 19.4961 25.8601 19.2479C25.8577 19.178 25.8553 19.1118 25.8614 19.0679C25.863 19.0568 25.8638 19.0457 25.8639 19.0345Z" fill="#4F4F4F"/>
<path d="M20.433 13.2095C20.5027 13.2144 20.5687 13.219 20.6237 13.2272C24.4882 13.806 26.2654 15.589 26.7579 19.3817C26.7663 19.4461 26.7676 19.5248 26.769 19.608C26.7739 19.9043 26.784 20.5208 27.4638 20.5335L27.4849 20.5338C27.6981 20.5338 27.8677 20.4711 27.989 20.3475C28.2007 20.132 28.1859 19.8118 28.174 19.5544C28.1711 19.4913 28.1683 19.4318 28.169 19.3797C28.2182 15.5008 24.7702 11.9834 20.7904 11.8526C20.7739 11.8521 20.7581 11.8529 20.7422 11.8551C20.7344 11.8562 20.7199 11.8576 20.6951 11.8576C20.6554 11.8576 20.6066 11.8543 20.5548 11.8509C20.4922 11.8467 20.4213 11.8419 20.3493 11.8419C19.7155 11.8419 19.5951 12.2806 19.5796 12.5421C19.5441 13.1464 20.1445 13.189 20.433 13.2095Z" fill="#4F4F4F"/>
<path d="M26.5709 24.2837C26.4887 24.2226 26.4038 24.1593 26.3242 24.0969C25.9023 23.7663 25.4534 23.4615 25.0193 23.1667C24.9292 23.1056 24.8391 23.0444 24.7493 22.9831C24.1932 22.6027 23.6933 22.4179 23.2209 22.4179C22.5848 22.4179 22.0301 22.7602 21.5723 23.4352C21.3695 23.7344 21.1234 23.8799 20.8201 23.8799C20.6408 23.8799 20.4371 23.8301 20.2146 23.7318C18.4197 22.9391 17.1379 21.7238 16.405 20.1197C16.0507 19.3443 16.1655 18.8375 16.7891 18.425C17.1432 18.191 17.8023 17.7553 17.7556 16.921C17.7027 15.9735 15.556 13.1228 14.6515 12.799C14.2685 12.6619 13.8661 12.6606 13.4534 12.7958C12.4136 13.1362 11.6674 13.734 11.2953 14.5244C10.9358 15.2882 10.952 16.1851 11.3423 17.118C12.4705 19.8153 14.0568 22.1669 16.0572 24.1076C18.0153 26.0073 20.4219 27.5634 23.2101 28.7325C23.4614 28.8378 23.725 28.8952 23.9175 28.9371C23.9831 28.9515 24.0398 28.9638 24.0811 28.9748C24.1037 28.9808 24.1271 28.984 24.1506 28.9842L24.1726 28.9844C24.1727 28.9844 24.1726 28.9844 24.1727 28.9844C25.4841 28.9844 27.0588 27.8174 27.5424 26.487C27.9661 25.3221 27.1925 24.7463 26.5709 24.2837Z" fill="#4F4F4F"/>
<path d="M21.0126 16.2903C20.7881 16.2959 20.3208 16.3071 20.1569 16.7706C20.0802 16.9871 20.0893 17.1752 20.1842 17.3294C20.3234 17.5558 20.5901 17.6252 20.8326 17.6632C21.7123 17.8007 22.1641 18.2744 22.2545 19.1539C22.2965 19.5639 22.58 19.8503 22.9441 19.8503H22.9442C22.9711 19.8503 22.9986 19.8488 23.026 19.8455C23.4639 19.7948 23.6761 19.4815 23.657 18.9144C23.664 18.3226 23.3459 17.6507 22.8049 17.1155C22.2621 16.5787 21.6078 16.2763 21.0126 16.2903Z" fill="#4F4F4F"/>
</svg>
