<svg width="66" height="66" viewBox="0 0 66 66" fill="none" xmlns="http://www.w3.org/2000/svg">
<path d="M33.08 64.16C15.92 64.16 2 50.25 2 33.08C2 15.92 15.91 2 33.08 2C50.24 2 64.16 15.91 64.16 33.08" stroke="#082044" stroke-width="2.5" stroke-miterlimit="10" stroke-linecap="square"/>
<path d="M33.08 2V6.83" stroke="#082044" stroke-width="2.5" stroke-miterlimit="10" stroke-linecap="square"/>
<path d="M33.08 59.33V64.16" stroke="#082044" stroke-width="2.5" stroke-miterlimit="10" stroke-linecap="square"/>
<path d="M11.11 11.1L14.52 14.52" stroke="#082044" stroke-width="2.5" stroke-miterlimit="10" stroke-linecap="square"/>
<path d="M2.01001 33.08H6.83001" stroke="#082044" stroke-width="2.5" stroke-miterlimit="10" stroke-linecap="square"/>
<path d="M59.33 33.08H64.16" stroke="#082044" stroke-width="2.5" stroke-miterlimit="10" stroke-linecap="square"/>
<path d="M11.11 55.05L14.52 51.64" stroke="#082044" stroke-width="2.5" stroke-miterlimit="10" stroke-linecap="square"/>
<path d="M51.64 14.52L55.06 11.1" stroke="#082044" stroke-width="2.5" stroke-miterlimit="10" stroke-linecap="square"/>
<path d="M46.5 19.67L36 30.17" stroke="#082044" stroke-width="2.5" stroke-miterlimit="10" stroke-linecap="square"/>
<path d="M30.31 30.03L24.94 24.76" stroke="#082044" stroke-width="2.5" stroke-miterlimit="10" stroke-linecap="square"/>
<path d="M33.08 37.2099C35.3609 37.2099 37.21 35.3609 37.21 33.0799C37.21 30.799 35.3609 28.95 33.08 28.95C30.7991 28.95 28.95 30.799 28.95 33.0799C28.95 35.3609 30.7991 37.2099 33.08 37.2099Z" stroke="#082044" stroke-width="2.5" stroke-miterlimit="10" stroke-linecap="square"/>
<path d="M39.94 44.12V41.5H49.42V45.05L40.31 56.38V60.82H49.42" stroke="#082044" stroke-width="2.5" stroke-miterlimit="10" stroke-linecap="square"/>
<path d="M53.93 41.5V51.16H60.87" stroke="#082044" stroke-width="2.5" stroke-miterlimit="10" stroke-linecap="square"/>
<path d="M62.52 41.5V60.82" stroke="#082044" stroke-width="2.5" stroke-miterlimit="10" stroke-linecap="square"/>
</svg>
