<svg width="66" height="80" viewBox="0 0 66 80" fill="none" xmlns="http://www.w3.org/2000/svg">
<path d="M54.8346 14.4043H53.0088L53.6444 7.67934C53.7252 6.80011 54.1644 6.00405 54.8346 5.46939C55.3546 5.05354 55.7475 4.48323 55.9208 3.81786L56.4293 2H9.0507L9.55915 3.81786C9.74404 4.47134 10.1254 5.05354 10.6454 5.46939C11.3272 6.00405 11.7547 6.81199 11.8356 7.67934L12.4712 14.4043H11.1654C5.78041 14.4043 1.56257 19.145 2.03635 24.658L2.05946 24.8718C2.76436 32.9631 7.92979 39.6167 14.9326 42.3495C15.9264 42.7416 16.7584 43.4426 17.3362 44.3574C20.0171 48.6348 24.3274 51.6883 29.3195 52.6626V61.1816C29.3195 62.7262 28.5568 64.1757 27.2857 65.0074L19.6358 70.0927H45.8673L38.1943 65.0193C36.9232 64.1757 36.1605 62.7381 36.1605 61.1935V52.6745C41.0833 51.7239 45.3358 48.7298 48.0283 44.5594C48.6407 43.6089 49.5536 42.9198 50.5936 42.5396C57.8391 39.9257 63.2241 33.1532 63.9405 24.8837L63.9636 24.6698C64.4374 19.145 60.2196 14.4043 54.8346 14.4043Z" stroke="#082044" stroke-width="2.5" stroke-miterlimit="10" stroke-linecap="round" stroke-linejoin="round"/>
<path d="M50.5243 70.0928H14.9672V77.7801H50.5243V70.0928Z" stroke="#082044" stroke-width="2.5" stroke-miterlimit="10" stroke-linecap="round" stroke-linejoin="round"/>
<path d="M32.7515 16.0201L35.6405 23.1847L43.2211 23.85L37.4316 28.8402L39.2228 36.5038L32.7515 32.3334L26.2688 36.5038L28.0599 28.8402L22.2705 23.85L29.851 23.1847L32.7515 16.0201Z" stroke="#082044" stroke-width="2.5" stroke-miterlimit="10" stroke-linecap="round" stroke-linejoin="round"/>
<path d="M14.505 35.7553L12.9565 19.3945H11.2347C8.72713 19.3945 6.7511 21.5926 6.94755 24.1709L6.98221 24.5749C7.39822 29.8621 10.3796 34.3533 14.6206 36.7771C14.5628 36.4326 14.5281 36.0999 14.505 35.7553Z" stroke="#082044" stroke-width="2.5" stroke-miterlimit="10" stroke-linecap="round" stroke-linejoin="round"/>
<path d="M54.7884 19.3826H52.5466L50.9981 35.7433C50.9634 36.1948 50.9056 36.6345 50.8479 37.0741C55.3777 34.7334 58.6249 30.0878 59.0524 24.5629L59.0871 24.1589C59.272 21.5925 57.296 19.3826 54.7884 19.3826Z" stroke="#082044" stroke-width="2.5" stroke-miterlimit="10" stroke-linecap="round" stroke-linejoin="round"/>
</svg>
