<svg width="88" height="57" viewBox="0 0 88 57" fill="none" xmlns="http://www.w3.org/2000/svg">
<path d="M2 17.744L10.64 26.974" stroke="#082044" stroke-width="2.5" stroke-miterlimit="10" stroke-linecap="square"/>
<path d="M71.91 5.33403L66.07 10.554L52.05 2.64403C50.55 1.80403 48.73 1.78403 47.22 2.59403L26.97 13.714C26.48 13.984 26.31 14.614 26.61 15.094L28.19 17.594C28.68 18.374 29.6 18.774 30.5 18.604L45.85 15.324C47.71 14.924 49.64 15.604 50.84 17.084L66.68 36.564C67.72 37.844 67.56 39.714 66.31 40.804L63.94 42.864C62.63 44.004 60.65 43.834 59.56 42.484L48.9 29.374" stroke="#082044" stroke-width="2.5" stroke-miterlimit="10" stroke-linecap="square"/>
<path d="M26.75 13.784L19.26 5.38403" stroke="#082044" stroke-width="2.5" stroke-miterlimit="10" stroke-linecap="square"/>
<path d="M86.1 20.944L80.12 26.284C80.12 26.284 79.21 33.574 73.66 36.094" stroke="#082044" stroke-width="2.5" stroke-miterlimit="10" stroke-linecap="square"/>
<path d="M42.54 35.734L51.87 47.164C52.94 48.474 54.87 48.664 56.18 47.594L58.31 45.844C59.6 44.784 59.8 42.874 58.75 41.574L52.72 34.074" stroke="#082044" stroke-width="2.5" stroke-miterlimit="10" stroke-linecap="square"/>
<path d="M37.39 42.984L44.2 51.284C45.28 52.594 47.21 52.784 48.52 51.694L50.39 50.144C51.68 49.074 51.86 47.164 50.8 45.864L43.47 36.884" stroke="#082044" stroke-width="2.5" stroke-miterlimit="10" stroke-linecap="square"/>
<path d="M35.8 54.334L36.02 54.594C37.1 55.884 39.02 56.054 40.31 54.974L42.09 53.494C43.38 52.424 43.56 50.504 42.5 49.204L37.39 42.964" stroke="#082044" stroke-width="2.5" stroke-miterlimit="10" stroke-linecap="square"/>
<path d="M11.98 35.404L9.55001 32.594C8.83001 31.754 8.92001 30.494 9.76001 29.774L12.57 27.344C13.41 26.624 14.67 26.714 15.39 27.554L17.82 30.364C18.54 31.204 18.45 32.464 17.61 33.184L14.8 35.614C13.96 36.334 12.7 36.244 11.98 35.404Z" stroke="#082044" stroke-width="2.5" stroke-miterlimit="10" stroke-linecap="square"/>
<path d="M16.99 41.1241L14.58 38.3341C13.86 37.4941 13.95 36.2341 14.79 35.5141L17.58 33.1041C18.42 32.3841 19.68 32.4741 20.4 33.3141L22.81 36.1041C23.53 36.9441 23.44 38.2041 22.6 38.9241L19.81 41.3341C18.97 42.0541 17.71 41.9641 16.99 41.1241Z" stroke="#082044" stroke-width="2.5" stroke-miterlimit="10" stroke-linecap="square"/>
<path d="M22.01 46.944L19.6 44.154C18.88 43.314 18.97 42.054 19.81 41.334L22.6 38.924C23.44 38.204 24.7 38.294 25.42 39.134L27.83 41.924C28.55 42.764 28.46 44.024 27.62 44.744L24.83 47.154C24 47.874 22.74 47.774 22.01 46.944Z" stroke="#082044" stroke-width="2.5" stroke-miterlimit="10" stroke-linecap="square"/>
<path d="M27.15 51.1941L24.16 47.7341L27.62 44.7441C28.46 44.0241 29.72 44.1141 30.44 44.9541L32.12 46.9041C32.84 47.7441 32.75 49.0041 31.91 49.7241L29.96 51.4041C29.14 52.1141 27.88 52.0241 27.15 51.1941Z" stroke="#082044" stroke-width="2.5" stroke-miterlimit="10" stroke-linecap="square"/>
</svg>
