<svg width="20" height="20" viewBox="0 0 20 20" fill="none" xmlns="http://www.w3.org/2000/svg">
<path d="M1.66666 4.99992C1.66666 4.55789 1.84225 4.13397 2.15481 3.82141C2.46737 3.50885 2.8913 3.33325 3.33332 3.33325H16.6667C17.1087 3.33325 17.5326 3.50885 17.8452 3.82141C18.1577 4.13397 18.3333 4.55789 18.3333 4.99992V14.9999C18.3333 15.4419 18.1577 15.8659 17.8452 16.1784C17.5326 16.491 17.1087 16.6666 16.6667 16.6666H3.33332C2.8913 16.6666 2.46737 16.491 2.15481 16.1784C1.84225 15.8659 1.66666 15.4419 1.66666 14.9999V4.99992Z" stroke="#2D487C" stroke-width="2" stroke-linecap="round" stroke-linejoin="round"/>
<path d="M1.66666 6.66675L7.91749 11.6676C8.50856 12.1405 9.243 12.3982 9.99999 12.3982C10.757 12.3982 11.4914 12.1405 12.0825 11.6676L18.3333 6.66675" stroke="#2D487C" stroke-width="2" stroke-linecap="round" stroke-linejoin="round"/>
</svg>
