<svg width="90" height="90" viewBox="0 0 90 90" fill="none" xmlns="http://www.w3.org/2000/svg">
<circle cx="45" cy="45" r="44.5" stroke="white" stroke-opacity="0.2"/>
<path d="M45.0195 44.8555C44.4614 44.8546 43.9106 44.7467 43.4084 44.5398L29.845 39.011L25.2127 40.8996C24.9583 41.0056 24.7966 41.2255 24.7966 41.4664C24.7966 41.7072 24.9583 41.9271 25.2127 42.0332L44.0523 49.7219C44.6645 49.9674 45.3745 49.9674 45.9867 49.7219L64.8263 42.0363C65.0807 41.9302 65.242 41.7103 65.242 41.4695C65.242 41.2286 65.0807 41.0087 64.8263 40.9026L60.194 39.011L46.6313 44.5425C46.1284 44.7482 45.5776 44.8555 45.0195 44.8555Z" fill="white"/>
<path d="M24.793 35.1522C24.7897 35.3955 24.9547 35.6182 25.2149 35.7205L44.0523 43.4037C44.6631 43.6547 45.376 43.6547 45.9868 43.4037L64.8231 35.7205C65.08 35.6151 65.2431 35.3943 65.2431 35.1522C65.2431 34.9101 65.08 34.6893 64.8231 34.5838L45.9868 26.9007C45.376 26.6493 44.6631 26.6493 44.0523 26.9007L25.2149 34.5838C24.9547 34.6862 24.7897 34.9089 24.793 35.1522Z" fill="white"/>
<path d="M25.2105 54.668L44.0523 62.3536C44.6646 62.5991 45.3745 62.5991 45.9868 62.3536L64.8253 54.668C65.0847 54.5644 65.25 54.3429 65.25 54.0996C65.25 53.8563 65.0847 53.6349 64.8253 53.5313L60.1933 51.6427L46.6299 57.1767C45.6107 57.5847 44.4302 57.5847 43.4114 57.1767L29.8458 51.6427L25.2127 53.5313C24.9562 53.6367 24.793 53.8575 24.793 54.0996C24.793 54.3417 24.9562 54.5625 25.2127 54.668H25.2105Z" fill="white"/>
<path d="M45.9868 56.0363L64.8264 48.3519C65.0829 48.2465 65.2461 48.0257 65.2461 47.7836C65.2461 47.5415 65.0829 47.3207 64.8264 47.2152L60.1933 45.3267L46.6299 50.8607C45.6107 51.2687 44.4302 51.2687 43.4114 50.8607L29.8458 45.3267L25.2127 47.2152C24.9562 47.3207 24.793 47.5415 24.793 47.7836C24.793 48.0257 24.9562 48.2465 25.2127 48.3519L44.0523 56.0376C44.6649 56.2827 45.3745 56.2821 45.9868 56.0363Z" fill="white"/>
</svg>
